G04 #@! TF.GenerationSoftware,KiCad,Pcbnew,5.1.5+dfsg1-2build2*
G04 #@! TF.CreationDate,2022-03-03T19:49:00-05:00*
G04 #@! TF.ProjectId,6800sbc,36383030-7362-4632-9e6b-696361645f70,rev?*
G04 #@! TF.SameCoordinates,Original*
G04 #@! TF.FileFunction,Soldermask,Top*
G04 #@! TF.FilePolarity,Negative*
%FSLAX46Y46*%
G04 Gerber Fmt 4.6, Leading zero omitted, Abs format (unit mm)*
G04 Created by KiCad (PCBNEW 5.1.5+dfsg1-2build2) date 2022-03-03 19:49:00*
%MOMM*%
%LPD*%
G04 APERTURE LIST*
%ADD10O,1.400000X1.400000*%
%ADD11C,1.400000*%
%ADD12O,1.700000X1.700000*%
%ADD13R,1.700000X1.700000*%
%ADD14O,1.600000X1.600000*%
%ADD15R,1.600000X1.600000*%
%ADD16C,3.000000*%
%ADD17O,2.200000X2.200000*%
%ADD18R,2.200000X2.200000*%
%ADD19C,1.500000*%
%ADD20R,1.500000X1.500000*%
%ADD21O,1.905000X2.000000*%
%ADD22R,1.905000X2.000000*%
%ADD23C,2.000000*%
%ADD24C,1.800000*%
%ADD25R,1.800000X1.800000*%
%ADD26C,1.600000*%
%ADD27C,1.200000*%
%ADD28R,1.200000X1.200000*%
G04 APERTURE END LIST*
D10*
X135890000Y-198120000D03*
D11*
X128270000Y-198120000D03*
D10*
X135890000Y-185420000D03*
D11*
X128270000Y-185420000D03*
D10*
X135890000Y-191770000D03*
D11*
X128270000Y-191770000D03*
D10*
X135890000Y-204470000D03*
D11*
X128270000Y-204470000D03*
D10*
X135890000Y-210820000D03*
D11*
X128270000Y-210820000D03*
D10*
X135890000Y-152400000D03*
D11*
X128270000Y-152400000D03*
D10*
X135890000Y-157480000D03*
D11*
X128270000Y-157480000D03*
D10*
X135890000Y-162560000D03*
D11*
X128270000Y-162560000D03*
D10*
X135890000Y-167640000D03*
D11*
X128270000Y-167640000D03*
D10*
X135890000Y-172720000D03*
D11*
X128270000Y-172720000D03*
D10*
X135890000Y-179070000D03*
D11*
X128270000Y-179070000D03*
D12*
X90170000Y-182880000D03*
X90170000Y-185420000D03*
D13*
X90170000Y-187960000D03*
D12*
X86360000Y-182880000D03*
X86360000Y-185420000D03*
D13*
X86360000Y-187960000D03*
D12*
X82550000Y-182880000D03*
X82550000Y-185420000D03*
D13*
X82550000Y-187960000D03*
D12*
X78740000Y-182880000D03*
X78740000Y-185420000D03*
D13*
X78740000Y-187960000D03*
D12*
X74930000Y-182880000D03*
X74930000Y-185420000D03*
D13*
X74930000Y-187960000D03*
D12*
X71120000Y-182880000D03*
X71120000Y-185420000D03*
D13*
X71120000Y-187960000D03*
D14*
X55880000Y-57150000D03*
X40640000Y-85090000D03*
X55880000Y-59690000D03*
X40640000Y-82550000D03*
X55880000Y-62230000D03*
X40640000Y-80010000D03*
X55880000Y-64770000D03*
X40640000Y-77470000D03*
X55880000Y-67310000D03*
X40640000Y-74930000D03*
X55880000Y-69850000D03*
X40640000Y-72390000D03*
X55880000Y-72390000D03*
X40640000Y-69850000D03*
X55880000Y-74930000D03*
X40640000Y-67310000D03*
X55880000Y-77470000D03*
X40640000Y-64770000D03*
X55880000Y-80010000D03*
X40640000Y-62230000D03*
X55880000Y-82550000D03*
X40640000Y-59690000D03*
X55880000Y-85090000D03*
D15*
X40640000Y-57150000D03*
D16*
X39370000Y-29210000D03*
X38100000Y-210820000D03*
X215900000Y-210820000D03*
X215900000Y-27940000D03*
D10*
X210820000Y-81280000D03*
D11*
X203200000Y-81280000D03*
D10*
X210820000Y-85090000D03*
D11*
X203200000Y-85090000D03*
D10*
X210820000Y-88900000D03*
D11*
X203200000Y-88900000D03*
D10*
X210820000Y-92710000D03*
D11*
X203200000Y-92710000D03*
D10*
X210820000Y-96520000D03*
D11*
X203200000Y-96520000D03*
D10*
X210820000Y-100330000D03*
D11*
X203200000Y-100330000D03*
D10*
X210820000Y-104140000D03*
D11*
X203200000Y-104140000D03*
D10*
X210820000Y-107950000D03*
D11*
X203200000Y-107950000D03*
D10*
X196850000Y-81280000D03*
D11*
X189230000Y-81280000D03*
D10*
X196850000Y-85090000D03*
D11*
X189230000Y-85090000D03*
D10*
X196850000Y-88900000D03*
D11*
X189230000Y-88900000D03*
D10*
X196850000Y-92710000D03*
D11*
X189230000Y-92710000D03*
D10*
X196850000Y-96520000D03*
D11*
X189230000Y-96520000D03*
D10*
X196850000Y-100330000D03*
D11*
X189230000Y-100330000D03*
D10*
X196850000Y-104140000D03*
D11*
X189230000Y-104140000D03*
D10*
X196850000Y-107950000D03*
D11*
X189230000Y-107950000D03*
D10*
X182880000Y-81280000D03*
D11*
X175260000Y-81280000D03*
D10*
X182880000Y-85090000D03*
D11*
X175260000Y-85090000D03*
D10*
X182880000Y-88900000D03*
D11*
X175260000Y-88900000D03*
D10*
X182880000Y-92710000D03*
D11*
X175260000Y-92710000D03*
D10*
X182880000Y-96520000D03*
D11*
X175260000Y-96520000D03*
D10*
X182880000Y-100330000D03*
D11*
X175260000Y-100330000D03*
D10*
X182880000Y-104140000D03*
D11*
X175260000Y-104140000D03*
D10*
X182880000Y-107950000D03*
D11*
X175260000Y-107950000D03*
D10*
X168910000Y-81280000D03*
D11*
X161290000Y-81280000D03*
D10*
X168910000Y-85090000D03*
D11*
X161290000Y-85090000D03*
D10*
X168910000Y-88900000D03*
D11*
X161290000Y-88900000D03*
D10*
X168910000Y-92710000D03*
D11*
X161290000Y-92710000D03*
D10*
X168910000Y-96520000D03*
D11*
X161290000Y-96520000D03*
D10*
X168910000Y-100330000D03*
D11*
X161290000Y-100330000D03*
D10*
X168910000Y-104140000D03*
D11*
X161290000Y-104140000D03*
D10*
X168910000Y-107950000D03*
D11*
X161290000Y-107950000D03*
D10*
X154940000Y-81280000D03*
D11*
X147320000Y-81280000D03*
D10*
X154940000Y-85090000D03*
D11*
X147320000Y-85090000D03*
D10*
X154940000Y-88900000D03*
D11*
X147320000Y-88900000D03*
D10*
X154940000Y-92710000D03*
D11*
X147320000Y-92710000D03*
D10*
X154940000Y-96520000D03*
D11*
X147320000Y-96520000D03*
D10*
X154940000Y-100330000D03*
D11*
X147320000Y-100330000D03*
D10*
X154940000Y-104140000D03*
D11*
X147320000Y-104140000D03*
D10*
X154940000Y-107950000D03*
D11*
X147320000Y-107950000D03*
D10*
X140970000Y-81280000D03*
D11*
X133350000Y-81280000D03*
D10*
X140970000Y-85090000D03*
D11*
X133350000Y-85090000D03*
D10*
X140970000Y-88900000D03*
D11*
X133350000Y-88900000D03*
D10*
X140970000Y-92710000D03*
D11*
X133350000Y-92710000D03*
D10*
X140970000Y-96520000D03*
D11*
X133350000Y-96520000D03*
D10*
X140970000Y-100330000D03*
D11*
X133350000Y-100330000D03*
D10*
X140970000Y-104140000D03*
D11*
X133350000Y-104140000D03*
D10*
X140970000Y-107950000D03*
D11*
X133350000Y-107950000D03*
D12*
X129540000Y-30480000D03*
D13*
X127000000Y-30480000D03*
D12*
X137160000Y-140970000D03*
D13*
X134620000Y-140970000D03*
D17*
X180340000Y-30480000D03*
D18*
X190500000Y-30480000D03*
D17*
X180340000Y-35560000D03*
D18*
X190500000Y-35560000D03*
D17*
X163830000Y-35560000D03*
D18*
X173990000Y-35560000D03*
D17*
X163830000Y-30480000D03*
D18*
X173990000Y-30480000D03*
D19*
X96340000Y-44450000D03*
X91440000Y-44450000D03*
X119200000Y-144780000D03*
X114300000Y-144780000D03*
D14*
X86360000Y-152400000D03*
X78740000Y-167640000D03*
X86360000Y-154940000D03*
X78740000Y-165100000D03*
X86360000Y-157480000D03*
X78740000Y-162560000D03*
X86360000Y-160020000D03*
X78740000Y-160020000D03*
X86360000Y-162560000D03*
X78740000Y-157480000D03*
X86360000Y-165100000D03*
X78740000Y-154940000D03*
X86360000Y-167640000D03*
D15*
X78740000Y-152400000D03*
D14*
X71120000Y-152400000D03*
X63500000Y-170180000D03*
X71120000Y-154940000D03*
X63500000Y-167640000D03*
X71120000Y-157480000D03*
X63500000Y-165100000D03*
X71120000Y-160020000D03*
X63500000Y-162560000D03*
X71120000Y-162560000D03*
X63500000Y-160020000D03*
X71120000Y-165100000D03*
X63500000Y-157480000D03*
X71120000Y-167640000D03*
X63500000Y-154940000D03*
X71120000Y-170180000D03*
D15*
X63500000Y-152400000D03*
D14*
X101600000Y-116840000D03*
X93980000Y-139700000D03*
X101600000Y-119380000D03*
X93980000Y-137160000D03*
X101600000Y-121920000D03*
X93980000Y-134620000D03*
X101600000Y-124460000D03*
X93980000Y-132080000D03*
X101600000Y-127000000D03*
X93980000Y-129540000D03*
X101600000Y-129540000D03*
X93980000Y-127000000D03*
X101600000Y-132080000D03*
X93980000Y-124460000D03*
X101600000Y-134620000D03*
X93980000Y-121920000D03*
X101600000Y-137160000D03*
X93980000Y-119380000D03*
X101600000Y-139700000D03*
D15*
X93980000Y-116840000D03*
D14*
X71120000Y-116840000D03*
X63500000Y-139700000D03*
X71120000Y-119380000D03*
X63500000Y-137160000D03*
X71120000Y-121920000D03*
X63500000Y-134620000D03*
X71120000Y-124460000D03*
X63500000Y-132080000D03*
X71120000Y-127000000D03*
X63500000Y-129540000D03*
X71120000Y-129540000D03*
X63500000Y-127000000D03*
X71120000Y-132080000D03*
X63500000Y-124460000D03*
X71120000Y-134620000D03*
X63500000Y-121920000D03*
X71120000Y-137160000D03*
X63500000Y-119380000D03*
X71120000Y-139700000D03*
D15*
X63500000Y-116840000D03*
D14*
X101600000Y-57150000D03*
X86360000Y-105410000D03*
X101600000Y-59690000D03*
X86360000Y-102870000D03*
X101600000Y-62230000D03*
X86360000Y-100330000D03*
X101600000Y-64770000D03*
X86360000Y-97790000D03*
X101600000Y-67310000D03*
X86360000Y-95250000D03*
X101600000Y-69850000D03*
X86360000Y-92710000D03*
X101600000Y-72390000D03*
X86360000Y-90170000D03*
X101600000Y-74930000D03*
X86360000Y-87630000D03*
X101600000Y-77470000D03*
X86360000Y-85090000D03*
X101600000Y-80010000D03*
X86360000Y-82550000D03*
X101600000Y-82550000D03*
X86360000Y-80010000D03*
X101600000Y-85090000D03*
X86360000Y-77470000D03*
X101600000Y-87630000D03*
X86360000Y-74930000D03*
X101600000Y-90170000D03*
X86360000Y-72390000D03*
X101600000Y-92710000D03*
X86360000Y-69850000D03*
X101600000Y-95250000D03*
X86360000Y-67310000D03*
X101600000Y-97790000D03*
X86360000Y-64770000D03*
X101600000Y-100330000D03*
X86360000Y-62230000D03*
X101600000Y-102870000D03*
X86360000Y-59690000D03*
X101600000Y-105410000D03*
D15*
X86360000Y-57150000D03*
D14*
X124460000Y-57150000D03*
X109220000Y-90170000D03*
X124460000Y-59690000D03*
X109220000Y-87630000D03*
X124460000Y-62230000D03*
X109220000Y-85090000D03*
X124460000Y-64770000D03*
X109220000Y-82550000D03*
X124460000Y-67310000D03*
X109220000Y-80010000D03*
X124460000Y-69850000D03*
X109220000Y-77470000D03*
X124460000Y-72390000D03*
X109220000Y-74930000D03*
X124460000Y-74930000D03*
X109220000Y-72390000D03*
X124460000Y-77470000D03*
X109220000Y-69850000D03*
X124460000Y-80010000D03*
X109220000Y-67310000D03*
X124460000Y-82550000D03*
X109220000Y-64770000D03*
X124460000Y-85090000D03*
X109220000Y-62230000D03*
X124460000Y-87630000D03*
X109220000Y-59690000D03*
X124460000Y-90170000D03*
D15*
X109220000Y-57150000D03*
D14*
X124460000Y-101600000D03*
X109220000Y-134620000D03*
X124460000Y-104140000D03*
X109220000Y-132080000D03*
X124460000Y-106680000D03*
X109220000Y-129540000D03*
X124460000Y-109220000D03*
X109220000Y-127000000D03*
X124460000Y-111760000D03*
X109220000Y-124460000D03*
X124460000Y-114300000D03*
X109220000Y-121920000D03*
X124460000Y-116840000D03*
X109220000Y-119380000D03*
X124460000Y-119380000D03*
X109220000Y-116840000D03*
X124460000Y-121920000D03*
X109220000Y-114300000D03*
X124460000Y-124460000D03*
X109220000Y-111760000D03*
X124460000Y-127000000D03*
X109220000Y-109220000D03*
X124460000Y-129540000D03*
X109220000Y-106680000D03*
X124460000Y-132080000D03*
X109220000Y-104140000D03*
X124460000Y-134620000D03*
D15*
X109220000Y-101600000D03*
D14*
X86360000Y-116840000D03*
X78740000Y-139700000D03*
X86360000Y-119380000D03*
X78740000Y-137160000D03*
X86360000Y-121920000D03*
X78740000Y-134620000D03*
X86360000Y-124460000D03*
X78740000Y-132080000D03*
X86360000Y-127000000D03*
X78740000Y-129540000D03*
X86360000Y-129540000D03*
X78740000Y-127000000D03*
X86360000Y-132080000D03*
X78740000Y-124460000D03*
X86360000Y-134620000D03*
X78740000Y-121920000D03*
X86360000Y-137160000D03*
X78740000Y-119380000D03*
X86360000Y-139700000D03*
D15*
X78740000Y-116840000D03*
D14*
X210820000Y-57150000D03*
X203200000Y-74930000D03*
X210820000Y-59690000D03*
X203200000Y-72390000D03*
X210820000Y-62230000D03*
X203200000Y-69850000D03*
X210820000Y-64770000D03*
X203200000Y-67310000D03*
X210820000Y-67310000D03*
X203200000Y-64770000D03*
X210820000Y-69850000D03*
X203200000Y-62230000D03*
X210820000Y-72390000D03*
X203200000Y-59690000D03*
X210820000Y-74930000D03*
D15*
X203200000Y-57150000D03*
D14*
X196850000Y-57150000D03*
X189230000Y-74930000D03*
X196850000Y-59690000D03*
X189230000Y-72390000D03*
X196850000Y-62230000D03*
X189230000Y-69850000D03*
X196850000Y-64770000D03*
X189230000Y-67310000D03*
X196850000Y-67310000D03*
X189230000Y-64770000D03*
X196850000Y-69850000D03*
X189230000Y-62230000D03*
X196850000Y-72390000D03*
X189230000Y-59690000D03*
X196850000Y-74930000D03*
D15*
X189230000Y-57150000D03*
D14*
X182880000Y-57150000D03*
X175260000Y-74930000D03*
X182880000Y-59690000D03*
X175260000Y-72390000D03*
X182880000Y-62230000D03*
X175260000Y-69850000D03*
X182880000Y-64770000D03*
X175260000Y-67310000D03*
X182880000Y-67310000D03*
X175260000Y-64770000D03*
X182880000Y-69850000D03*
X175260000Y-62230000D03*
X182880000Y-72390000D03*
X175260000Y-59690000D03*
X182880000Y-74930000D03*
D15*
X175260000Y-57150000D03*
D14*
X168910000Y-57150000D03*
X161290000Y-74930000D03*
X168910000Y-59690000D03*
X161290000Y-72390000D03*
X168910000Y-62230000D03*
X161290000Y-69850000D03*
X168910000Y-64770000D03*
X161290000Y-67310000D03*
X168910000Y-67310000D03*
X161290000Y-64770000D03*
X168910000Y-69850000D03*
X161290000Y-62230000D03*
X168910000Y-72390000D03*
X161290000Y-59690000D03*
X168910000Y-74930000D03*
D15*
X161290000Y-57150000D03*
D14*
X154940000Y-57150000D03*
X147320000Y-74930000D03*
X154940000Y-59690000D03*
X147320000Y-72390000D03*
X154940000Y-62230000D03*
X147320000Y-69850000D03*
X154940000Y-64770000D03*
X147320000Y-67310000D03*
X154940000Y-67310000D03*
X147320000Y-64770000D03*
X154940000Y-69850000D03*
X147320000Y-62230000D03*
X154940000Y-72390000D03*
X147320000Y-59690000D03*
X154940000Y-74930000D03*
D15*
X147320000Y-57150000D03*
D14*
X140970000Y-57150000D03*
X133350000Y-74930000D03*
X140970000Y-59690000D03*
X133350000Y-72390000D03*
X140970000Y-62230000D03*
X133350000Y-69850000D03*
X140970000Y-64770000D03*
X133350000Y-67310000D03*
X140970000Y-67310000D03*
X133350000Y-64770000D03*
X140970000Y-69850000D03*
X133350000Y-62230000D03*
X140970000Y-72390000D03*
X133350000Y-59690000D03*
X140970000Y-74930000D03*
D15*
X133350000Y-57150000D03*
D19*
X210820000Y-114300000D03*
X210820000Y-116840000D03*
X210820000Y-119380000D03*
X210820000Y-121920000D03*
X210820000Y-124460000D03*
X210820000Y-127000000D03*
X210820000Y-129540000D03*
X203200000Y-129540000D03*
X203200000Y-127000000D03*
X203200000Y-124460000D03*
X203200000Y-121920000D03*
X203200000Y-119380000D03*
X203200000Y-116840000D03*
D20*
X203200000Y-114300000D03*
D19*
X196850000Y-114300000D03*
X196850000Y-116840000D03*
X196850000Y-119380000D03*
X196850000Y-121920000D03*
X196850000Y-124460000D03*
X196850000Y-127000000D03*
X196850000Y-129540000D03*
X189230000Y-129540000D03*
X189230000Y-127000000D03*
X189230000Y-124460000D03*
X189230000Y-121920000D03*
X189230000Y-119380000D03*
X189230000Y-116840000D03*
D20*
X189230000Y-114300000D03*
D19*
X182880000Y-114300000D03*
X182880000Y-116840000D03*
X182880000Y-119380000D03*
X182880000Y-121920000D03*
X182880000Y-124460000D03*
X182880000Y-127000000D03*
X182880000Y-129540000D03*
X175260000Y-129540000D03*
X175260000Y-127000000D03*
X175260000Y-124460000D03*
X175260000Y-121920000D03*
X175260000Y-119380000D03*
X175260000Y-116840000D03*
D20*
X175260000Y-114300000D03*
D19*
X168910000Y-114300000D03*
X168910000Y-116840000D03*
X168910000Y-119380000D03*
X168910000Y-121920000D03*
X168910000Y-124460000D03*
X168910000Y-127000000D03*
X168910000Y-129540000D03*
X161290000Y-129540000D03*
X161290000Y-127000000D03*
X161290000Y-124460000D03*
X161290000Y-121920000D03*
X161290000Y-119380000D03*
X161290000Y-116840000D03*
D20*
X161290000Y-114300000D03*
D19*
X154940000Y-114300000D03*
X154940000Y-116840000D03*
X154940000Y-119380000D03*
X154940000Y-121920000D03*
X154940000Y-124460000D03*
X154940000Y-127000000D03*
X154940000Y-129540000D03*
X147320000Y-129540000D03*
X147320000Y-127000000D03*
X147320000Y-124460000D03*
X147320000Y-121920000D03*
X147320000Y-119380000D03*
X147320000Y-116840000D03*
D20*
X147320000Y-114300000D03*
D19*
X140970000Y-114300000D03*
X140970000Y-116840000D03*
X140970000Y-119380000D03*
X140970000Y-121920000D03*
X140970000Y-124460000D03*
X140970000Y-127000000D03*
X140970000Y-129540000D03*
X133350000Y-129540000D03*
X133350000Y-127000000D03*
X133350000Y-124460000D03*
X133350000Y-121920000D03*
X133350000Y-119380000D03*
X133350000Y-116840000D03*
D20*
X133350000Y-114300000D03*
D14*
X101600000Y-152400000D03*
X93980000Y-167640000D03*
X101600000Y-154940000D03*
X93980000Y-165100000D03*
X101600000Y-157480000D03*
X93980000Y-162560000D03*
X101600000Y-160020000D03*
X93980000Y-160020000D03*
X101600000Y-162560000D03*
X93980000Y-157480000D03*
X101600000Y-165100000D03*
X93980000Y-154940000D03*
X101600000Y-167640000D03*
D15*
X93980000Y-152400000D03*
D14*
X78740000Y-57150000D03*
X63500000Y-105410000D03*
X78740000Y-59690000D03*
X63500000Y-102870000D03*
X78740000Y-62230000D03*
X63500000Y-100330000D03*
X78740000Y-64770000D03*
X63500000Y-97790000D03*
X78740000Y-67310000D03*
X63500000Y-95250000D03*
X78740000Y-69850000D03*
X63500000Y-92710000D03*
X78740000Y-72390000D03*
X63500000Y-90170000D03*
X78740000Y-74930000D03*
X63500000Y-87630000D03*
X78740000Y-77470000D03*
X63500000Y-85090000D03*
X78740000Y-80010000D03*
X63500000Y-82550000D03*
X78740000Y-82550000D03*
X63500000Y-80010000D03*
X78740000Y-85090000D03*
X63500000Y-77470000D03*
X78740000Y-87630000D03*
X63500000Y-74930000D03*
X78740000Y-90170000D03*
X63500000Y-72390000D03*
X78740000Y-92710000D03*
X63500000Y-69850000D03*
X78740000Y-95250000D03*
X63500000Y-67310000D03*
X78740000Y-97790000D03*
X63500000Y-64770000D03*
X78740000Y-100330000D03*
X63500000Y-62230000D03*
X78740000Y-102870000D03*
X63500000Y-59690000D03*
X78740000Y-105410000D03*
D15*
X63500000Y-57150000D03*
D21*
X203200000Y-30480000D03*
X200660000Y-30480000D03*
D22*
X198120000Y-30480000D03*
D23*
X184300000Y-203200000D03*
X184300000Y-207700000D03*
X177800000Y-203200000D03*
X177800000Y-207700000D03*
X165100000Y-203200000D03*
X165100000Y-207700000D03*
X158600000Y-203200000D03*
X158600000Y-207700000D03*
X193190000Y-190500000D03*
X193190000Y-195000000D03*
X186690000Y-190500000D03*
X186690000Y-195000000D03*
X175410000Y-190500000D03*
X175410000Y-195000000D03*
X168910000Y-190500000D03*
X168910000Y-195000000D03*
X157630000Y-190500000D03*
X157630000Y-195000000D03*
X151130000Y-190500000D03*
X151130000Y-195000000D03*
X193190000Y-177800000D03*
X193190000Y-182300000D03*
X186690000Y-177800000D03*
X186690000Y-182300000D03*
X175410000Y-177800000D03*
X175410000Y-182300000D03*
X168910000Y-177800000D03*
X168910000Y-182300000D03*
X157630000Y-177800000D03*
X157630000Y-182300000D03*
X151130000Y-177800000D03*
X151130000Y-182300000D03*
X193190000Y-165100000D03*
X193190000Y-169600000D03*
X186690000Y-165100000D03*
X186690000Y-169600000D03*
X175410000Y-165100000D03*
X175410000Y-169600000D03*
X168910000Y-165100000D03*
X168910000Y-169600000D03*
X157630000Y-165100000D03*
X157630000Y-169600000D03*
X151130000Y-165100000D03*
X151130000Y-169600000D03*
X193190000Y-152400000D03*
X193190000Y-156900000D03*
X186690000Y-152400000D03*
X186690000Y-156900000D03*
X175410000Y-152400000D03*
X175410000Y-156900000D03*
X168910000Y-152400000D03*
X168910000Y-156900000D03*
X157630000Y-152400000D03*
X157630000Y-156900000D03*
X151130000Y-152400000D03*
X151130000Y-156900000D03*
X193190000Y-139700000D03*
X193190000Y-144200000D03*
X186690000Y-139700000D03*
X186690000Y-144200000D03*
X175410000Y-139700000D03*
X175410000Y-144200000D03*
X168910000Y-139700000D03*
X168910000Y-144200000D03*
X157630000Y-139700000D03*
X157630000Y-144200000D03*
X151130000Y-139700000D03*
X151130000Y-144200000D03*
D10*
X120650000Y-167640000D03*
D11*
X113030000Y-167640000D03*
D10*
X120650000Y-172720000D03*
D11*
X113030000Y-172720000D03*
D10*
X120650000Y-162560000D03*
D11*
X113030000Y-162560000D03*
D10*
X120650000Y-157480000D03*
D11*
X113030000Y-157480000D03*
D10*
X148590000Y-40640000D03*
D11*
X140970000Y-40640000D03*
D10*
X148590000Y-35560000D03*
D11*
X140970000Y-35560000D03*
D12*
X73660000Y-30480000D03*
D13*
X71120000Y-30480000D03*
D12*
X62230000Y-30480000D03*
X59690000Y-30480000D03*
X57150000Y-30480000D03*
X54610000Y-30480000D03*
X52070000Y-30480000D03*
D13*
X49530000Y-30480000D03*
D12*
X53340000Y-38100000D03*
X50800000Y-38100000D03*
D13*
X48260000Y-38100000D03*
D12*
X55880000Y-208280000D03*
X55880000Y-205740000D03*
X58420000Y-208280000D03*
X58420000Y-205740000D03*
X60960000Y-208280000D03*
X60960000Y-205740000D03*
X63500000Y-208280000D03*
X63500000Y-205740000D03*
X66040000Y-208280000D03*
X66040000Y-205740000D03*
X68580000Y-208280000D03*
X68580000Y-205740000D03*
X71120000Y-208280000D03*
X71120000Y-205740000D03*
X73660000Y-208280000D03*
X73660000Y-205740000D03*
X76200000Y-208280000D03*
X76200000Y-205740000D03*
X78740000Y-208280000D03*
X78740000Y-205740000D03*
X81280000Y-208280000D03*
X81280000Y-205740000D03*
X83820000Y-208280000D03*
X83820000Y-205740000D03*
X86360000Y-208280000D03*
X86360000Y-205740000D03*
X88900000Y-208280000D03*
X88900000Y-205740000D03*
X91440000Y-208280000D03*
X91440000Y-205740000D03*
X93980000Y-208280000D03*
X93980000Y-205740000D03*
X96520000Y-208280000D03*
X96520000Y-205740000D03*
X99060000Y-208280000D03*
X99060000Y-205740000D03*
X101600000Y-208280000D03*
X101600000Y-205740000D03*
X104140000Y-208280000D03*
D13*
X104140000Y-205740000D03*
D12*
X88900000Y-30480000D03*
X86360000Y-30480000D03*
D13*
X83820000Y-30480000D03*
D12*
X66040000Y-38100000D03*
X63500000Y-38100000D03*
D13*
X60960000Y-38100000D03*
D12*
X41910000Y-111760000D03*
X44450000Y-111760000D03*
X41910000Y-114300000D03*
X44450000Y-114300000D03*
X41910000Y-116840000D03*
X44450000Y-116840000D03*
X41910000Y-119380000D03*
X44450000Y-119380000D03*
X41910000Y-121920000D03*
X44450000Y-121920000D03*
X41910000Y-124460000D03*
X44450000Y-124460000D03*
X41910000Y-127000000D03*
X44450000Y-127000000D03*
X41910000Y-129540000D03*
X44450000Y-129540000D03*
X41910000Y-132080000D03*
X44450000Y-132080000D03*
X41910000Y-134620000D03*
X44450000Y-134620000D03*
X41910000Y-137160000D03*
X44450000Y-137160000D03*
X41910000Y-139700000D03*
D13*
X44450000Y-139700000D03*
D12*
X99060000Y-30480000D03*
D13*
X96520000Y-30480000D03*
D12*
X109220000Y-30480000D03*
D13*
X106680000Y-30480000D03*
D14*
X120650000Y-191770000D03*
D15*
X113030000Y-191770000D03*
D14*
X120650000Y-185420000D03*
D15*
X113030000Y-185420000D03*
D14*
X120650000Y-179070000D03*
D15*
X113030000Y-179070000D03*
D24*
X119380000Y-30480000D03*
D25*
X116840000Y-30480000D03*
D14*
X187960000Y-40640000D03*
D15*
X180340000Y-40640000D03*
D14*
X173990000Y-40640000D03*
D15*
X166370000Y-40640000D03*
D26*
X102870000Y-49450000D03*
X102870000Y-44450000D03*
X85090000Y-44530000D03*
X85090000Y-49530000D03*
D27*
X117570000Y-200660000D03*
D28*
X115570000Y-200660000D03*
D26*
X119300000Y-152400000D03*
X114300000Y-152400000D03*
X95330000Y-147320000D03*
X100330000Y-147320000D03*
X114380000Y-52070000D03*
X119380000Y-52070000D03*
X91520000Y-52070000D03*
X96520000Y-52070000D03*
X68660000Y-52070000D03*
X73660000Y-52070000D03*
X64850000Y-111760000D03*
X69850000Y-111760000D03*
X176610000Y-52070000D03*
X181610000Y-52070000D03*
X95330000Y-111760000D03*
X100330000Y-111760000D03*
X64850000Y-147320000D03*
X69850000Y-147320000D03*
X114380000Y-96520000D03*
X119380000Y-96520000D03*
X204550000Y-52070000D03*
X209550000Y-52070000D03*
X45800000Y-52070000D03*
X50800000Y-52070000D03*
X190580000Y-52070000D03*
X195580000Y-52070000D03*
X80090000Y-111760000D03*
X85090000Y-111760000D03*
X148670000Y-52070000D03*
X153670000Y-52070000D03*
X80090000Y-147320000D03*
X85090000Y-147320000D03*
X134700000Y-52070000D03*
X139700000Y-52070000D03*
X162640000Y-52070000D03*
X167640000Y-52070000D03*
X157400000Y-30480000D03*
X152400000Y-30480000D03*
X198200000Y-35560000D03*
X203200000Y-35560000D03*
X201390000Y-41910000D03*
D15*
X199390000Y-41910000D03*
D26*
X145970000Y-30480000D03*
X140970000Y-30480000D03*
M02*
