G04 #@! TF.GenerationSoftware,KiCad,Pcbnew,5.1.5+dfsg1-2build2*
G04 #@! TF.CreationDate,2022-02-12T20:51:50-05:00*
G04 #@! TF.ProjectId,6800sbc,36383030-7362-4632-9e6b-696361645f70,rev?*
G04 #@! TF.SameCoordinates,Original*
G04 #@! TF.FileFunction,Copper,L1,Top*
G04 #@! TF.FilePolarity,Positive*
%FSLAX46Y46*%
G04 Gerber Fmt 4.6, Leading zero omitted, Abs format (unit mm)*
G04 Created by KiCad (PCBNEW 5.1.5+dfsg1-2build2) date 2022-02-12 20:51:50*
%MOMM*%
%LPD*%
G04 APERTURE LIST*
%ADD10O,1.400000X1.400000*%
%ADD11C,1.400000*%
%ADD12O,1.700000X1.700000*%
%ADD13R,1.700000X1.700000*%
%ADD14O,1.600000X1.600000*%
%ADD15R,1.600000X1.600000*%
%ADD16O,2.200000X2.200000*%
%ADD17R,2.200000X2.200000*%
%ADD18C,1.500000*%
%ADD19R,1.500000X1.500000*%
%ADD20O,1.905000X2.000000*%
%ADD21R,1.905000X2.000000*%
%ADD22C,2.000000*%
%ADD23C,1.800000*%
%ADD24R,1.800000X1.800000*%
%ADD25C,1.600000*%
%ADD26C,1.200000*%
%ADD27R,1.200000X1.200000*%
%ADD28C,0.800000*%
%ADD29C,0.500000*%
%ADD30C,0.250000*%
G04 APERTURE END LIST*
D10*
X135890000Y-198120000D03*
D11*
X128270000Y-198120000D03*
D10*
X135890000Y-185420000D03*
D11*
X128270000Y-185420000D03*
D10*
X135890000Y-191770000D03*
D11*
X128270000Y-191770000D03*
D10*
X135890000Y-204470000D03*
D11*
X128270000Y-204470000D03*
D10*
X135890000Y-210820000D03*
D11*
X128270000Y-210820000D03*
D10*
X135890000Y-152400000D03*
D11*
X128270000Y-152400000D03*
D10*
X135890000Y-157480000D03*
D11*
X128270000Y-157480000D03*
D10*
X135890000Y-162560000D03*
D11*
X128270000Y-162560000D03*
D10*
X135890000Y-167640000D03*
D11*
X128270000Y-167640000D03*
D10*
X135890000Y-172720000D03*
D11*
X128270000Y-172720000D03*
D10*
X135890000Y-179070000D03*
D11*
X128270000Y-179070000D03*
D12*
X90170000Y-182880000D03*
X90170000Y-185420000D03*
D13*
X90170000Y-187960000D03*
D12*
X86360000Y-182880000D03*
X86360000Y-185420000D03*
D13*
X86360000Y-187960000D03*
D12*
X82550000Y-182880000D03*
X82550000Y-185420000D03*
D13*
X82550000Y-187960000D03*
D12*
X78740000Y-182880000D03*
X78740000Y-185420000D03*
D13*
X78740000Y-187960000D03*
D12*
X74930000Y-182880000D03*
X74930000Y-185420000D03*
D13*
X74930000Y-187960000D03*
D12*
X71120000Y-182880000D03*
X71120000Y-185420000D03*
D13*
X71120000Y-187960000D03*
D14*
X55880000Y-57150000D03*
X40640000Y-85090000D03*
X55880000Y-59690000D03*
X40640000Y-82550000D03*
X55880000Y-62230000D03*
X40640000Y-80010000D03*
X55880000Y-64770000D03*
X40640000Y-77470000D03*
X55880000Y-67310000D03*
X40640000Y-74930000D03*
X55880000Y-69850000D03*
X40640000Y-72390000D03*
X55880000Y-72390000D03*
X40640000Y-69850000D03*
X55880000Y-74930000D03*
X40640000Y-67310000D03*
X55880000Y-77470000D03*
X40640000Y-64770000D03*
X55880000Y-80010000D03*
X40640000Y-62230000D03*
X55880000Y-82550000D03*
X40640000Y-59690000D03*
X55880000Y-85090000D03*
D15*
X40640000Y-57150000D03*
D10*
X210820000Y-81280000D03*
D11*
X203200000Y-81280000D03*
D10*
X210820000Y-85090000D03*
D11*
X203200000Y-85090000D03*
D10*
X210820000Y-88900000D03*
D11*
X203200000Y-88900000D03*
D10*
X210820000Y-92710000D03*
D11*
X203200000Y-92710000D03*
D10*
X210820000Y-96520000D03*
D11*
X203200000Y-96520000D03*
D10*
X210820000Y-100330000D03*
D11*
X203200000Y-100330000D03*
D10*
X210820000Y-104140000D03*
D11*
X203200000Y-104140000D03*
D10*
X210820000Y-107950000D03*
D11*
X203200000Y-107950000D03*
D10*
X196850000Y-81280000D03*
D11*
X189230000Y-81280000D03*
D10*
X196850000Y-85090000D03*
D11*
X189230000Y-85090000D03*
D10*
X196850000Y-88900000D03*
D11*
X189230000Y-88900000D03*
D10*
X196850000Y-92710000D03*
D11*
X189230000Y-92710000D03*
D10*
X196850000Y-96520000D03*
D11*
X189230000Y-96520000D03*
D10*
X196850000Y-100330000D03*
D11*
X189230000Y-100330000D03*
D10*
X196850000Y-104140000D03*
D11*
X189230000Y-104140000D03*
D10*
X196850000Y-107950000D03*
D11*
X189230000Y-107950000D03*
D10*
X182880000Y-81280000D03*
D11*
X175260000Y-81280000D03*
D10*
X182880000Y-85090000D03*
D11*
X175260000Y-85090000D03*
D10*
X182880000Y-88900000D03*
D11*
X175260000Y-88900000D03*
D10*
X182880000Y-92710000D03*
D11*
X175260000Y-92710000D03*
D10*
X182880000Y-96520000D03*
D11*
X175260000Y-96520000D03*
D10*
X182880000Y-100330000D03*
D11*
X175260000Y-100330000D03*
D10*
X182880000Y-104140000D03*
D11*
X175260000Y-104140000D03*
D10*
X182880000Y-107950000D03*
D11*
X175260000Y-107950000D03*
D10*
X168910000Y-81280000D03*
D11*
X161290000Y-81280000D03*
D10*
X168910000Y-85090000D03*
D11*
X161290000Y-85090000D03*
D10*
X168910000Y-88900000D03*
D11*
X161290000Y-88900000D03*
D10*
X168910000Y-92710000D03*
D11*
X161290000Y-92710000D03*
D10*
X168910000Y-96520000D03*
D11*
X161290000Y-96520000D03*
D10*
X168910000Y-100330000D03*
D11*
X161290000Y-100330000D03*
D10*
X168910000Y-104140000D03*
D11*
X161290000Y-104140000D03*
D10*
X168910000Y-107950000D03*
D11*
X161290000Y-107950000D03*
D10*
X154940000Y-81280000D03*
D11*
X147320000Y-81280000D03*
D10*
X154940000Y-85090000D03*
D11*
X147320000Y-85090000D03*
D10*
X154940000Y-88900000D03*
D11*
X147320000Y-88900000D03*
D10*
X154940000Y-92710000D03*
D11*
X147320000Y-92710000D03*
D10*
X154940000Y-96520000D03*
D11*
X147320000Y-96520000D03*
D10*
X154940000Y-100330000D03*
D11*
X147320000Y-100330000D03*
D10*
X154940000Y-104140000D03*
D11*
X147320000Y-104140000D03*
D10*
X154940000Y-107950000D03*
D11*
X147320000Y-107950000D03*
D10*
X140970000Y-81280000D03*
D11*
X133350000Y-81280000D03*
D10*
X140970000Y-85090000D03*
D11*
X133350000Y-85090000D03*
D10*
X140970000Y-88900000D03*
D11*
X133350000Y-88900000D03*
D10*
X140970000Y-92710000D03*
D11*
X133350000Y-92710000D03*
D10*
X140970000Y-96520000D03*
D11*
X133350000Y-96520000D03*
D10*
X140970000Y-100330000D03*
D11*
X133350000Y-100330000D03*
D10*
X140970000Y-104140000D03*
D11*
X133350000Y-104140000D03*
D10*
X140970000Y-107950000D03*
D11*
X133350000Y-107950000D03*
D12*
X129540000Y-30480000D03*
D13*
X127000000Y-30480000D03*
D12*
X137160000Y-140970000D03*
D13*
X134620000Y-140970000D03*
D16*
X180340000Y-30480000D03*
D17*
X190500000Y-30480000D03*
D16*
X180340000Y-35560000D03*
D17*
X190500000Y-35560000D03*
D16*
X163830000Y-35560000D03*
D17*
X173990000Y-35560000D03*
D16*
X163830000Y-30480000D03*
D17*
X173990000Y-30480000D03*
D18*
X96340000Y-44450000D03*
X91440000Y-44450000D03*
X119200000Y-144780000D03*
X114300000Y-144780000D03*
D14*
X86360000Y-152400000D03*
X78740000Y-167640000D03*
X86360000Y-154940000D03*
X78740000Y-165100000D03*
X86360000Y-157480000D03*
X78740000Y-162560000D03*
X86360000Y-160020000D03*
X78740000Y-160020000D03*
X86360000Y-162560000D03*
X78740000Y-157480000D03*
X86360000Y-165100000D03*
X78740000Y-154940000D03*
X86360000Y-167640000D03*
D15*
X78740000Y-152400000D03*
D14*
X71120000Y-152400000D03*
X63500000Y-170180000D03*
X71120000Y-154940000D03*
X63500000Y-167640000D03*
X71120000Y-157480000D03*
X63500000Y-165100000D03*
X71120000Y-160020000D03*
X63500000Y-162560000D03*
X71120000Y-162560000D03*
X63500000Y-160020000D03*
X71120000Y-165100000D03*
X63500000Y-157480000D03*
X71120000Y-167640000D03*
X63500000Y-154940000D03*
X71120000Y-170180000D03*
D15*
X63500000Y-152400000D03*
D14*
X101600000Y-116840000D03*
X93980000Y-139700000D03*
X101600000Y-119380000D03*
X93980000Y-137160000D03*
X101600000Y-121920000D03*
X93980000Y-134620000D03*
X101600000Y-124460000D03*
X93980000Y-132080000D03*
X101600000Y-127000000D03*
X93980000Y-129540000D03*
X101600000Y-129540000D03*
X93980000Y-127000000D03*
X101600000Y-132080000D03*
X93980000Y-124460000D03*
X101600000Y-134620000D03*
X93980000Y-121920000D03*
X101600000Y-137160000D03*
X93980000Y-119380000D03*
X101600000Y-139700000D03*
D15*
X93980000Y-116840000D03*
D14*
X71120000Y-116840000D03*
X63500000Y-139700000D03*
X71120000Y-119380000D03*
X63500000Y-137160000D03*
X71120000Y-121920000D03*
X63500000Y-134620000D03*
X71120000Y-124460000D03*
X63500000Y-132080000D03*
X71120000Y-127000000D03*
X63500000Y-129540000D03*
X71120000Y-129540000D03*
X63500000Y-127000000D03*
X71120000Y-132080000D03*
X63500000Y-124460000D03*
X71120000Y-134620000D03*
X63500000Y-121920000D03*
X71120000Y-137160000D03*
X63500000Y-119380000D03*
X71120000Y-139700000D03*
D15*
X63500000Y-116840000D03*
D14*
X101600000Y-57150000D03*
X86360000Y-105410000D03*
X101600000Y-59690000D03*
X86360000Y-102870000D03*
X101600000Y-62230000D03*
X86360000Y-100330000D03*
X101600000Y-64770000D03*
X86360000Y-97790000D03*
X101600000Y-67310000D03*
X86360000Y-95250000D03*
X101600000Y-69850000D03*
X86360000Y-92710000D03*
X101600000Y-72390000D03*
X86360000Y-90170000D03*
X101600000Y-74930000D03*
X86360000Y-87630000D03*
X101600000Y-77470000D03*
X86360000Y-85090000D03*
X101600000Y-80010000D03*
X86360000Y-82550000D03*
X101600000Y-82550000D03*
X86360000Y-80010000D03*
X101600000Y-85090000D03*
X86360000Y-77470000D03*
X101600000Y-87630000D03*
X86360000Y-74930000D03*
X101600000Y-90170000D03*
X86360000Y-72390000D03*
X101600000Y-92710000D03*
X86360000Y-69850000D03*
X101600000Y-95250000D03*
X86360000Y-67310000D03*
X101600000Y-97790000D03*
X86360000Y-64770000D03*
X101600000Y-100330000D03*
X86360000Y-62230000D03*
X101600000Y-102870000D03*
X86360000Y-59690000D03*
X101600000Y-105410000D03*
D15*
X86360000Y-57150000D03*
D14*
X124460000Y-57150000D03*
X109220000Y-90170000D03*
X124460000Y-59690000D03*
X109220000Y-87630000D03*
X124460000Y-62230000D03*
X109220000Y-85090000D03*
X124460000Y-64770000D03*
X109220000Y-82550000D03*
X124460000Y-67310000D03*
X109220000Y-80010000D03*
X124460000Y-69850000D03*
X109220000Y-77470000D03*
X124460000Y-72390000D03*
X109220000Y-74930000D03*
X124460000Y-74930000D03*
X109220000Y-72390000D03*
X124460000Y-77470000D03*
X109220000Y-69850000D03*
X124460000Y-80010000D03*
X109220000Y-67310000D03*
X124460000Y-82550000D03*
X109220000Y-64770000D03*
X124460000Y-85090000D03*
X109220000Y-62230000D03*
X124460000Y-87630000D03*
X109220000Y-59690000D03*
X124460000Y-90170000D03*
D15*
X109220000Y-57150000D03*
D14*
X124460000Y-101600000D03*
X109220000Y-134620000D03*
X124460000Y-104140000D03*
X109220000Y-132080000D03*
X124460000Y-106680000D03*
X109220000Y-129540000D03*
X124460000Y-109220000D03*
X109220000Y-127000000D03*
X124460000Y-111760000D03*
X109220000Y-124460000D03*
X124460000Y-114300000D03*
X109220000Y-121920000D03*
X124460000Y-116840000D03*
X109220000Y-119380000D03*
X124460000Y-119380000D03*
X109220000Y-116840000D03*
X124460000Y-121920000D03*
X109220000Y-114300000D03*
X124460000Y-124460000D03*
X109220000Y-111760000D03*
X124460000Y-127000000D03*
X109220000Y-109220000D03*
X124460000Y-129540000D03*
X109220000Y-106680000D03*
X124460000Y-132080000D03*
X109220000Y-104140000D03*
X124460000Y-134620000D03*
D15*
X109220000Y-101600000D03*
D14*
X86360000Y-116840000D03*
X78740000Y-139700000D03*
X86360000Y-119380000D03*
X78740000Y-137160000D03*
X86360000Y-121920000D03*
X78740000Y-134620000D03*
X86360000Y-124460000D03*
X78740000Y-132080000D03*
X86360000Y-127000000D03*
X78740000Y-129540000D03*
X86360000Y-129540000D03*
X78740000Y-127000000D03*
X86360000Y-132080000D03*
X78740000Y-124460000D03*
X86360000Y-134620000D03*
X78740000Y-121920000D03*
X86360000Y-137160000D03*
X78740000Y-119380000D03*
X86360000Y-139700000D03*
D15*
X78740000Y-116840000D03*
D14*
X210820000Y-57150000D03*
X203200000Y-74930000D03*
X210820000Y-59690000D03*
X203200000Y-72390000D03*
X210820000Y-62230000D03*
X203200000Y-69850000D03*
X210820000Y-64770000D03*
X203200000Y-67310000D03*
X210820000Y-67310000D03*
X203200000Y-64770000D03*
X210820000Y-69850000D03*
X203200000Y-62230000D03*
X210820000Y-72390000D03*
X203200000Y-59690000D03*
X210820000Y-74930000D03*
D15*
X203200000Y-57150000D03*
D14*
X196850000Y-57150000D03*
X189230000Y-74930000D03*
X196850000Y-59690000D03*
X189230000Y-72390000D03*
X196850000Y-62230000D03*
X189230000Y-69850000D03*
X196850000Y-64770000D03*
X189230000Y-67310000D03*
X196850000Y-67310000D03*
X189230000Y-64770000D03*
X196850000Y-69850000D03*
X189230000Y-62230000D03*
X196850000Y-72390000D03*
X189230000Y-59690000D03*
X196850000Y-74930000D03*
D15*
X189230000Y-57150000D03*
D14*
X182880000Y-57150000D03*
X175260000Y-74930000D03*
X182880000Y-59690000D03*
X175260000Y-72390000D03*
X182880000Y-62230000D03*
X175260000Y-69850000D03*
X182880000Y-64770000D03*
X175260000Y-67310000D03*
X182880000Y-67310000D03*
X175260000Y-64770000D03*
X182880000Y-69850000D03*
X175260000Y-62230000D03*
X182880000Y-72390000D03*
X175260000Y-59690000D03*
X182880000Y-74930000D03*
D15*
X175260000Y-57150000D03*
D14*
X168910000Y-57150000D03*
X161290000Y-74930000D03*
X168910000Y-59690000D03*
X161290000Y-72390000D03*
X168910000Y-62230000D03*
X161290000Y-69850000D03*
X168910000Y-64770000D03*
X161290000Y-67310000D03*
X168910000Y-67310000D03*
X161290000Y-64770000D03*
X168910000Y-69850000D03*
X161290000Y-62230000D03*
X168910000Y-72390000D03*
X161290000Y-59690000D03*
X168910000Y-74930000D03*
D15*
X161290000Y-57150000D03*
D14*
X154940000Y-57150000D03*
X147320000Y-74930000D03*
X154940000Y-59690000D03*
X147320000Y-72390000D03*
X154940000Y-62230000D03*
X147320000Y-69850000D03*
X154940000Y-64770000D03*
X147320000Y-67310000D03*
X154940000Y-67310000D03*
X147320000Y-64770000D03*
X154940000Y-69850000D03*
X147320000Y-62230000D03*
X154940000Y-72390000D03*
X147320000Y-59690000D03*
X154940000Y-74930000D03*
D15*
X147320000Y-57150000D03*
D14*
X140970000Y-57150000D03*
X133350000Y-74930000D03*
X140970000Y-59690000D03*
X133350000Y-72390000D03*
X140970000Y-62230000D03*
X133350000Y-69850000D03*
X140970000Y-64770000D03*
X133350000Y-67310000D03*
X140970000Y-67310000D03*
X133350000Y-64770000D03*
X140970000Y-69850000D03*
X133350000Y-62230000D03*
X140970000Y-72390000D03*
X133350000Y-59690000D03*
X140970000Y-74930000D03*
D15*
X133350000Y-57150000D03*
D18*
X210820000Y-114300000D03*
X210820000Y-116840000D03*
X210820000Y-119380000D03*
X210820000Y-121920000D03*
X210820000Y-124460000D03*
X210820000Y-127000000D03*
X210820000Y-129540000D03*
X203200000Y-129540000D03*
X203200000Y-127000000D03*
X203200000Y-124460000D03*
X203200000Y-121920000D03*
X203200000Y-119380000D03*
X203200000Y-116840000D03*
D19*
X203200000Y-114300000D03*
D18*
X196850000Y-114300000D03*
X196850000Y-116840000D03*
X196850000Y-119380000D03*
X196850000Y-121920000D03*
X196850000Y-124460000D03*
X196850000Y-127000000D03*
X196850000Y-129540000D03*
X189230000Y-129540000D03*
X189230000Y-127000000D03*
X189230000Y-124460000D03*
X189230000Y-121920000D03*
X189230000Y-119380000D03*
X189230000Y-116840000D03*
D19*
X189230000Y-114300000D03*
D18*
X182880000Y-114300000D03*
X182880000Y-116840000D03*
X182880000Y-119380000D03*
X182880000Y-121920000D03*
X182880000Y-124460000D03*
X182880000Y-127000000D03*
X182880000Y-129540000D03*
X175260000Y-129540000D03*
X175260000Y-127000000D03*
X175260000Y-124460000D03*
X175260000Y-121920000D03*
X175260000Y-119380000D03*
X175260000Y-116840000D03*
D19*
X175260000Y-114300000D03*
D18*
X168910000Y-114300000D03*
X168910000Y-116840000D03*
X168910000Y-119380000D03*
X168910000Y-121920000D03*
X168910000Y-124460000D03*
X168910000Y-127000000D03*
X168910000Y-129540000D03*
X161290000Y-129540000D03*
X161290000Y-127000000D03*
X161290000Y-124460000D03*
X161290000Y-121920000D03*
X161290000Y-119380000D03*
X161290000Y-116840000D03*
D19*
X161290000Y-114300000D03*
D18*
X154940000Y-114300000D03*
X154940000Y-116840000D03*
X154940000Y-119380000D03*
X154940000Y-121920000D03*
X154940000Y-124460000D03*
X154940000Y-127000000D03*
X154940000Y-129540000D03*
X147320000Y-129540000D03*
X147320000Y-127000000D03*
X147320000Y-124460000D03*
X147320000Y-121920000D03*
X147320000Y-119380000D03*
X147320000Y-116840000D03*
D19*
X147320000Y-114300000D03*
D18*
X140970000Y-114300000D03*
X140970000Y-116840000D03*
X140970000Y-119380000D03*
X140970000Y-121920000D03*
X140970000Y-124460000D03*
X140970000Y-127000000D03*
X140970000Y-129540000D03*
X133350000Y-129540000D03*
X133350000Y-127000000D03*
X133350000Y-124460000D03*
X133350000Y-121920000D03*
X133350000Y-119380000D03*
X133350000Y-116840000D03*
D19*
X133350000Y-114300000D03*
D14*
X101600000Y-152400000D03*
X93980000Y-167640000D03*
X101600000Y-154940000D03*
X93980000Y-165100000D03*
X101600000Y-157480000D03*
X93980000Y-162560000D03*
X101600000Y-160020000D03*
X93980000Y-160020000D03*
X101600000Y-162560000D03*
X93980000Y-157480000D03*
X101600000Y-165100000D03*
X93980000Y-154940000D03*
X101600000Y-167640000D03*
D15*
X93980000Y-152400000D03*
D14*
X78740000Y-57150000D03*
X63500000Y-105410000D03*
X78740000Y-59690000D03*
X63500000Y-102870000D03*
X78740000Y-62230000D03*
X63500000Y-100330000D03*
X78740000Y-64770000D03*
X63500000Y-97790000D03*
X78740000Y-67310000D03*
X63500000Y-95250000D03*
X78740000Y-69850000D03*
X63500000Y-92710000D03*
X78740000Y-72390000D03*
X63500000Y-90170000D03*
X78740000Y-74930000D03*
X63500000Y-87630000D03*
X78740000Y-77470000D03*
X63500000Y-85090000D03*
X78740000Y-80010000D03*
X63500000Y-82550000D03*
X78740000Y-82550000D03*
X63500000Y-80010000D03*
X78740000Y-85090000D03*
X63500000Y-77470000D03*
X78740000Y-87630000D03*
X63500000Y-74930000D03*
X78740000Y-90170000D03*
X63500000Y-72390000D03*
X78740000Y-92710000D03*
X63500000Y-69850000D03*
X78740000Y-95250000D03*
X63500000Y-67310000D03*
X78740000Y-97790000D03*
X63500000Y-64770000D03*
X78740000Y-100330000D03*
X63500000Y-62230000D03*
X78740000Y-102870000D03*
X63500000Y-59690000D03*
X78740000Y-105410000D03*
D15*
X63500000Y-57150000D03*
D20*
X203200000Y-30480000D03*
X200660000Y-30480000D03*
D21*
X198120000Y-30480000D03*
D22*
X184300000Y-203200000D03*
X184300000Y-207700000D03*
X177800000Y-203200000D03*
X177800000Y-207700000D03*
X165100000Y-203200000D03*
X165100000Y-207700000D03*
X158600000Y-203200000D03*
X158600000Y-207700000D03*
X193190000Y-190500000D03*
X193190000Y-195000000D03*
X186690000Y-190500000D03*
X186690000Y-195000000D03*
X175410000Y-190500000D03*
X175410000Y-195000000D03*
X168910000Y-190500000D03*
X168910000Y-195000000D03*
X157630000Y-190500000D03*
X157630000Y-195000000D03*
X151130000Y-190500000D03*
X151130000Y-195000000D03*
X193190000Y-177800000D03*
X193190000Y-182300000D03*
X186690000Y-177800000D03*
X186690000Y-182300000D03*
X175410000Y-177800000D03*
X175410000Y-182300000D03*
X168910000Y-177800000D03*
X168910000Y-182300000D03*
X157630000Y-177800000D03*
X157630000Y-182300000D03*
X151130000Y-177800000D03*
X151130000Y-182300000D03*
X193190000Y-165100000D03*
X193190000Y-169600000D03*
X186690000Y-165100000D03*
X186690000Y-169600000D03*
X175410000Y-165100000D03*
X175410000Y-169600000D03*
X168910000Y-165100000D03*
X168910000Y-169600000D03*
X157630000Y-165100000D03*
X157630000Y-169600000D03*
X151130000Y-165100000D03*
X151130000Y-169600000D03*
X193190000Y-152400000D03*
X193190000Y-156900000D03*
X186690000Y-152400000D03*
X186690000Y-156900000D03*
X175410000Y-152400000D03*
X175410000Y-156900000D03*
X168910000Y-152400000D03*
X168910000Y-156900000D03*
X157630000Y-152400000D03*
X157630000Y-156900000D03*
X151130000Y-152400000D03*
X151130000Y-156900000D03*
X193190000Y-139700000D03*
X193190000Y-144200000D03*
X186690000Y-139700000D03*
X186690000Y-144200000D03*
X175410000Y-139700000D03*
X175410000Y-144200000D03*
X168910000Y-139700000D03*
X168910000Y-144200000D03*
X157630000Y-139700000D03*
X157630000Y-144200000D03*
X151130000Y-139700000D03*
X151130000Y-144200000D03*
D10*
X120650000Y-167640000D03*
D11*
X113030000Y-167640000D03*
D10*
X120650000Y-172720000D03*
D11*
X113030000Y-172720000D03*
D10*
X120650000Y-162560000D03*
D11*
X113030000Y-162560000D03*
D10*
X120650000Y-157480000D03*
D11*
X113030000Y-157480000D03*
D10*
X148590000Y-40640000D03*
D11*
X140970000Y-40640000D03*
D10*
X148590000Y-35560000D03*
D11*
X140970000Y-35560000D03*
D12*
X73660000Y-30480000D03*
D13*
X71120000Y-30480000D03*
D12*
X62230000Y-30480000D03*
X59690000Y-30480000D03*
X57150000Y-30480000D03*
X54610000Y-30480000D03*
X52070000Y-30480000D03*
D13*
X49530000Y-30480000D03*
D12*
X53340000Y-38100000D03*
X50800000Y-38100000D03*
D13*
X48260000Y-38100000D03*
D12*
X55880000Y-208280000D03*
X55880000Y-205740000D03*
X58420000Y-208280000D03*
X58420000Y-205740000D03*
X60960000Y-208280000D03*
X60960000Y-205740000D03*
X63500000Y-208280000D03*
X63500000Y-205740000D03*
X66040000Y-208280000D03*
X66040000Y-205740000D03*
X68580000Y-208280000D03*
X68580000Y-205740000D03*
X71120000Y-208280000D03*
X71120000Y-205740000D03*
X73660000Y-208280000D03*
X73660000Y-205740000D03*
X76200000Y-208280000D03*
X76200000Y-205740000D03*
X78740000Y-208280000D03*
X78740000Y-205740000D03*
X81280000Y-208280000D03*
X81280000Y-205740000D03*
X83820000Y-208280000D03*
X83820000Y-205740000D03*
X86360000Y-208280000D03*
X86360000Y-205740000D03*
X88900000Y-208280000D03*
X88900000Y-205740000D03*
X91440000Y-208280000D03*
X91440000Y-205740000D03*
X93980000Y-208280000D03*
X93980000Y-205740000D03*
X96520000Y-208280000D03*
X96520000Y-205740000D03*
X99060000Y-208280000D03*
X99060000Y-205740000D03*
X101600000Y-208280000D03*
X101600000Y-205740000D03*
X104140000Y-208280000D03*
D13*
X104140000Y-205740000D03*
D12*
X88900000Y-30480000D03*
X86360000Y-30480000D03*
D13*
X83820000Y-30480000D03*
D12*
X66040000Y-38100000D03*
X63500000Y-38100000D03*
D13*
X60960000Y-38100000D03*
D12*
X41910000Y-111760000D03*
X44450000Y-111760000D03*
X41910000Y-114300000D03*
X44450000Y-114300000D03*
X41910000Y-116840000D03*
X44450000Y-116840000D03*
X41910000Y-119380000D03*
X44450000Y-119380000D03*
X41910000Y-121920000D03*
X44450000Y-121920000D03*
X41910000Y-124460000D03*
X44450000Y-124460000D03*
X41910000Y-127000000D03*
X44450000Y-127000000D03*
X41910000Y-129540000D03*
X44450000Y-129540000D03*
X41910000Y-132080000D03*
X44450000Y-132080000D03*
X41910000Y-134620000D03*
X44450000Y-134620000D03*
X41910000Y-137160000D03*
X44450000Y-137160000D03*
X41910000Y-139700000D03*
D13*
X44450000Y-139700000D03*
D12*
X99060000Y-30480000D03*
D13*
X96520000Y-30480000D03*
D12*
X109220000Y-30480000D03*
D13*
X106680000Y-30480000D03*
D14*
X120650000Y-191770000D03*
D15*
X113030000Y-191770000D03*
D14*
X120650000Y-185420000D03*
D15*
X113030000Y-185420000D03*
D14*
X120650000Y-179070000D03*
D15*
X113030000Y-179070000D03*
D23*
X119380000Y-30480000D03*
D24*
X116840000Y-30480000D03*
D14*
X187960000Y-40640000D03*
D15*
X180340000Y-40640000D03*
D14*
X173990000Y-40640000D03*
D15*
X166370000Y-40640000D03*
D25*
X102870000Y-49450000D03*
X102870000Y-44450000D03*
X85090000Y-44530000D03*
X85090000Y-49530000D03*
D26*
X117570000Y-200660000D03*
D27*
X115570000Y-200660000D03*
D25*
X119300000Y-152400000D03*
X114300000Y-152400000D03*
X95330000Y-147320000D03*
X100330000Y-147320000D03*
X114380000Y-52070000D03*
X119380000Y-52070000D03*
X91520000Y-52070000D03*
X96520000Y-52070000D03*
X68660000Y-52070000D03*
X73660000Y-52070000D03*
X64850000Y-111760000D03*
X69850000Y-111760000D03*
X176610000Y-52070000D03*
X181610000Y-52070000D03*
X95330000Y-111760000D03*
X100330000Y-111760000D03*
X64850000Y-147320000D03*
X69850000Y-147320000D03*
X114380000Y-96520000D03*
X119380000Y-96520000D03*
X204550000Y-52070000D03*
X209550000Y-52070000D03*
X45800000Y-52070000D03*
X50800000Y-52070000D03*
X190580000Y-52070000D03*
X195580000Y-52070000D03*
X80090000Y-111760000D03*
X85090000Y-111760000D03*
X148670000Y-52070000D03*
X153670000Y-52070000D03*
X80090000Y-147320000D03*
X85090000Y-147320000D03*
X134700000Y-52070000D03*
X139700000Y-52070000D03*
X162640000Y-52070000D03*
X167640000Y-52070000D03*
X157400000Y-30480000D03*
X152400000Y-30480000D03*
X198200000Y-35560000D03*
X203200000Y-35560000D03*
X201390000Y-41910000D03*
D15*
X199390000Y-41910000D03*
D25*
X145970000Y-30480000D03*
X140970000Y-30480000D03*
D28*
X103983700Y-159373700D03*
X96376100Y-55284500D03*
X100180000Y-130034100D03*
X60451400Y-92318100D03*
X60710000Y-94478400D03*
X81983500Y-141349700D03*
X58662700Y-126782600D03*
X81251100Y-142163700D03*
X57055800Y-136001500D03*
X79475000Y-141779400D03*
X57094400Y-134698500D03*
X47946100Y-138097700D03*
X65653100Y-55003300D03*
X97322700Y-132270200D03*
X92589000Y-100888600D03*
X81208600Y-114722200D03*
X58638900Y-163820600D03*
X92589300Y-102386100D03*
X81026900Y-115941500D03*
X58748000Y-165896400D03*
X117534700Y-94908400D03*
X60264900Y-143339400D03*
X102450200Y-111795600D03*
X60264800Y-166244400D03*
X80143200Y-113977700D03*
X60243200Y-167422500D03*
X77767600Y-123365700D03*
X61253700Y-167492500D03*
X88885700Y-121959400D03*
X62036000Y-168167300D03*
X77003200Y-128621100D03*
X65056200Y-167685300D03*
X75463300Y-151062800D03*
X105388000Y-92154600D03*
X105866500Y-89876100D03*
X106447400Y-87680400D03*
X105800800Y-145730300D03*
X93722100Y-110035600D03*
X105173700Y-204218800D03*
X89995900Y-80161100D03*
X79223700Y-108632100D03*
X82372700Y-106232000D03*
X96614100Y-65914800D03*
X110340100Y-58595400D03*
X104128000Y-81519100D03*
X108364800Y-165100000D03*
X100790600Y-203603500D03*
X104050600Y-83200800D03*
X102725300Y-84059300D03*
X94447600Y-84577900D03*
X97362000Y-140323200D03*
X82828500Y-108501400D03*
X53995700Y-119399400D03*
X129643500Y-159560600D03*
X106632100Y-106456000D03*
X106322500Y-68124300D03*
X141607300Y-132435400D03*
X167490400Y-112173400D03*
X109489900Y-143727100D03*
X110605000Y-144311700D03*
X92466400Y-81845600D03*
X99165400Y-174433700D03*
X93939000Y-172063700D03*
X89733800Y-171012800D03*
X90294700Y-152795400D03*
X89839900Y-146892700D03*
X89253700Y-145816000D03*
D29*
X101600000Y-105410000D02*
X101600000Y-106660300D01*
X101600000Y-106660300D02*
X101599900Y-106660300D01*
X101599900Y-106660300D02*
X101599900Y-113663200D01*
X101599900Y-113663200D02*
X102889600Y-114952900D01*
X102889600Y-114952900D02*
X102889600Y-117384000D01*
X102889600Y-117384000D02*
X102143900Y-118129700D01*
X102143900Y-118129700D02*
X101600000Y-118129700D01*
X63500000Y-170180000D02*
X64750300Y-170180000D01*
X93980000Y-116840000D02*
X93980000Y-115589700D01*
X93980000Y-115589700D02*
X95330000Y-114239700D01*
X95330000Y-114239700D02*
X95330000Y-111760000D01*
X93980000Y-138449700D02*
X93433000Y-138449700D01*
X93433000Y-138449700D02*
X92671300Y-137688000D01*
X92671300Y-137688000D02*
X92671300Y-118148700D01*
X92671300Y-118148700D02*
X93980000Y-116840000D01*
X117570000Y-200660000D02*
X117570000Y-201795500D01*
X117570000Y-201795500D02*
X127784500Y-212010000D01*
X127784500Y-212010000D02*
X173490000Y-212010000D01*
X173490000Y-212010000D02*
X177800000Y-207700000D01*
X105490000Y-52070000D02*
X105490000Y-62713600D01*
X105490000Y-62713600D02*
X102143900Y-66059700D01*
X102143900Y-66059700D02*
X101600000Y-66059700D01*
X101600000Y-67310000D02*
X101600000Y-66059700D01*
X101600000Y-105410000D02*
X101600000Y-104159700D01*
X101600000Y-67310000D02*
X99870500Y-69039500D01*
X99870500Y-69039500D02*
X99870500Y-102974100D01*
X99870500Y-102974100D02*
X101056100Y-104159700D01*
X101056100Y-104159700D02*
X101600000Y-104159700D01*
X78740000Y-140950300D02*
X78624700Y-141065600D01*
X78624700Y-141065600D02*
X78624700Y-145854700D01*
X78624700Y-145854700D02*
X80090000Y-147320000D01*
X101600000Y-154940000D02*
X101600000Y-153689700D01*
X95330000Y-147320000D02*
X95330000Y-147963600D01*
X95330000Y-147963600D02*
X101056100Y-153689700D01*
X101056100Y-153689700D02*
X101600000Y-153689700D01*
X93980000Y-140950300D02*
X95330000Y-142300300D01*
X95330000Y-142300300D02*
X95330000Y-147320000D01*
X78740000Y-166389700D02*
X79283900Y-166389700D01*
X79283900Y-166389700D02*
X80447600Y-165226000D01*
X80447600Y-165226000D02*
X80447600Y-147677600D01*
X80447600Y-147677600D02*
X80090000Y-147320000D01*
X63500000Y-140950300D02*
X63500000Y-145970000D01*
X63500000Y-145970000D02*
X64850000Y-147320000D01*
X101600000Y-119380000D02*
X101600000Y-118129700D01*
X74930000Y-182880000D02*
X74930000Y-181579700D01*
X74930000Y-181579700D02*
X64750300Y-171400000D01*
X64750300Y-171400000D02*
X64750300Y-170180000D01*
X177800000Y-207700000D02*
X184300000Y-207700000D01*
X114380000Y-96520000D02*
X109280300Y-91420300D01*
X109280300Y-91420300D02*
X109220000Y-91420300D01*
X86360000Y-166350300D02*
X86907000Y-166350300D01*
X86907000Y-166350300D02*
X87612500Y-167055800D01*
X87612500Y-167055800D02*
X87612500Y-180327200D01*
X87612500Y-180327200D02*
X86360000Y-181579700D01*
X93980000Y-139700000D02*
X93980000Y-140950300D01*
X93980000Y-139700000D02*
X93980000Y-138449700D01*
X55880000Y-57150000D02*
X55880000Y-59690000D01*
X105490000Y-52070000D02*
X102870000Y-49450000D01*
X114380000Y-52070000D02*
X105490000Y-52070000D01*
X161290000Y-74930000D02*
X160039700Y-74930000D01*
X147320000Y-74930000D02*
X148570300Y-74930000D01*
X148570300Y-74930000D02*
X152380300Y-71120000D01*
X152380300Y-71120000D02*
X156229700Y-71120000D01*
X156229700Y-71120000D02*
X160039700Y-74930000D01*
X162640000Y-50768100D02*
X162640000Y-38300300D01*
X162640000Y-38300300D02*
X163830000Y-37110300D01*
X162640000Y-52070000D02*
X162640000Y-50768100D01*
X162640000Y-50768100D02*
X149971900Y-50768100D01*
X149971900Y-50768100D02*
X148670000Y-52070000D01*
X101600000Y-154940000D02*
X101600000Y-156190300D01*
X93980000Y-167640000D02*
X93980000Y-166389700D01*
X93980000Y-166389700D02*
X94527100Y-166389700D01*
X94527100Y-166389700D02*
X95230300Y-165686500D01*
X95230300Y-165686500D02*
X95230300Y-162016100D01*
X95230300Y-162016100D02*
X101056100Y-156190300D01*
X101056100Y-156190300D02*
X101600000Y-156190300D01*
X187970900Y-71120000D02*
X187970900Y-63500000D01*
X189230000Y-73679700D02*
X188728300Y-73679700D01*
X188728300Y-73679700D02*
X187970900Y-72922300D01*
X187970900Y-72922300D02*
X187970900Y-71120000D01*
X176510300Y-74930000D02*
X180320300Y-71120000D01*
X180320300Y-71120000D02*
X187970900Y-71120000D01*
X175260000Y-74930000D02*
X176510300Y-74930000D01*
X187970900Y-63500000D02*
X190146700Y-63500000D01*
X190146700Y-63500000D02*
X195226700Y-68580000D01*
X195226700Y-68580000D02*
X197397100Y-68580000D01*
X197397100Y-68580000D02*
X202496800Y-73679700D01*
X202496800Y-73679700D02*
X203200000Y-73679700D01*
X186055000Y-58420000D02*
X187970900Y-60335900D01*
X187970900Y-60335900D02*
X187970900Y-63500000D01*
X189230000Y-74930000D02*
X189230000Y-73679700D01*
X78740000Y-167640000D02*
X78740000Y-166389700D01*
X63500000Y-139700000D02*
X63500000Y-140950300D01*
X203200000Y-74930000D02*
X203200000Y-73679700D01*
X190580000Y-52070000D02*
X186055000Y-56595000D01*
X186055000Y-56595000D02*
X186055000Y-58420000D01*
X186055000Y-58420000D02*
X182341300Y-58420000D01*
X182341300Y-58420000D02*
X176610000Y-52688700D01*
X176610000Y-52688700D02*
X176610000Y-52070000D01*
X49530000Y-30480000D02*
X49530000Y-31780300D01*
X45800000Y-52070000D02*
X45800000Y-35510300D01*
X45800000Y-35510300D02*
X49530000Y-31780300D01*
X109220000Y-90170000D02*
X109220000Y-91420300D01*
X163830000Y-35560000D02*
X163830000Y-37110300D01*
X187960000Y-41890300D02*
X190580000Y-44510300D01*
X190580000Y-44510300D02*
X190580000Y-52070000D01*
X133350000Y-74930000D02*
X133350000Y-73679700D01*
X134700000Y-52070000D02*
X132060400Y-54709600D01*
X132060400Y-54709600D02*
X132060400Y-72934000D01*
X132060400Y-72934000D02*
X132806100Y-73679700D01*
X132806100Y-73679700D02*
X133350000Y-73679700D01*
X86360000Y-165100000D02*
X86360000Y-166350300D01*
X86360000Y-165100000D02*
X86360000Y-162560000D01*
X86360000Y-182880000D02*
X86360000Y-181579700D01*
X200660000Y-35560000D02*
X198200000Y-35560000D01*
X201390000Y-41910000D02*
X201390000Y-36290000D01*
X201390000Y-36290000D02*
X200660000Y-35560000D01*
X200660000Y-35560000D02*
X200660000Y-31930300D01*
X163830000Y-30480000D02*
X157400000Y-30480000D01*
X163830000Y-30480000D02*
X163830000Y-35560000D01*
X86360000Y-157480000D02*
X86360000Y-158730300D01*
X86360000Y-158730300D02*
X86907000Y-158730300D01*
X86907000Y-158730300D02*
X87610400Y-159433700D01*
X87610400Y-159433700D02*
X87610400Y-160603200D01*
X87610400Y-160603200D02*
X86903900Y-161309700D01*
X86903900Y-161309700D02*
X86360000Y-161309700D01*
X86360000Y-157480000D02*
X86360000Y-154940000D01*
X86360000Y-162560000D02*
X86360000Y-161309700D01*
X201390000Y-41910000D02*
X204550000Y-45070000D01*
X204550000Y-45070000D02*
X204550000Y-52070000D01*
X187960000Y-40640000D02*
X187960000Y-41890300D01*
X78740000Y-139700000D02*
X78740000Y-140950300D01*
X200660000Y-30480000D02*
X200660000Y-31930300D01*
X140970000Y-30480000D02*
X138917300Y-28427300D01*
X138917300Y-28427300D02*
X108732700Y-28427300D01*
X108732700Y-28427300D02*
X106680000Y-30480000D01*
X173990000Y-30480000D02*
X172439700Y-30480000D01*
X148590000Y-35560000D02*
X149740300Y-35560000D01*
X149740300Y-35560000D02*
X156370600Y-28929700D01*
X156370600Y-28929700D02*
X170889400Y-28929700D01*
X170889400Y-28929700D02*
X172439700Y-30480000D01*
X191275200Y-32805500D02*
X190500000Y-32030300D01*
X191275200Y-35560000D02*
X191275200Y-32805500D01*
X191275200Y-32805500D02*
X194391700Y-32805500D01*
X194391700Y-32805500D02*
X196717200Y-30480000D01*
X198120000Y-30480000D02*
X196717200Y-30480000D01*
X190500000Y-30480000D02*
X190500000Y-32030300D01*
X191275200Y-35560000D02*
X192050300Y-35560000D01*
X190500000Y-35560000D02*
X191275200Y-35560000D01*
X199390000Y-41910000D02*
X198139700Y-41910000D01*
X198139700Y-41910000D02*
X192050300Y-35820600D01*
X192050300Y-35820600D02*
X192050300Y-35560000D01*
X128270000Y-152400000D02*
X128270000Y-157480000D01*
X133350000Y-119380000D02*
X134550400Y-120580400D01*
X134550400Y-120580400D02*
X134550400Y-134758300D01*
X134550400Y-134758300D02*
X128270000Y-141038700D01*
X128270000Y-141038700D02*
X128270000Y-152400000D01*
X101600000Y-69850000D02*
X101600000Y-68599700D01*
X109220000Y-57150000D02*
X109220000Y-58400300D01*
X109220000Y-58400300D02*
X108673000Y-58400300D01*
X108673000Y-58400300D02*
X106832300Y-60241000D01*
X106832300Y-60241000D02*
X106832300Y-63846100D01*
X106832300Y-63846100D02*
X102078700Y-68599700D01*
X102078700Y-68599700D02*
X101600000Y-68599700D01*
X101600000Y-116840000D02*
X101600000Y-115589700D01*
X100330000Y-111760000D02*
X100330000Y-114319700D01*
X100330000Y-114319700D02*
X101600000Y-115589700D01*
X86360000Y-187960000D02*
X88869700Y-187960000D01*
X86360000Y-153650300D02*
X85816100Y-153650300D01*
X85816100Y-153650300D02*
X85058600Y-154407800D01*
X85058600Y-154407800D02*
X85058600Y-186658600D01*
X85058600Y-186658600D02*
X86360000Y-187960000D01*
X90170000Y-187960000D02*
X88869700Y-187960000D01*
X101600000Y-152400000D02*
X101600000Y-151149700D01*
X101600000Y-151149700D02*
X100330000Y-149879700D01*
X100330000Y-149879700D02*
X100330000Y-147320000D01*
X81280000Y-205740000D02*
X78740000Y-208280000D01*
X141605000Y-53984800D02*
X141605000Y-53975000D01*
X141605000Y-53975000D02*
X139700000Y-52070000D01*
X140970000Y-56074800D02*
X140970000Y-54619800D01*
X140970000Y-54619800D02*
X141605000Y-53984800D01*
X153670000Y-53984800D02*
X153670000Y-52070000D01*
X154940000Y-55264700D02*
X153670000Y-53994700D01*
X153670000Y-53994700D02*
X153670000Y-53984800D01*
X141605000Y-53984800D02*
X153670000Y-53984800D01*
X154940000Y-55264700D02*
X167005000Y-55264700D01*
X167005000Y-55264700D02*
X167640000Y-54629700D01*
X154940000Y-55899700D02*
X154940000Y-55264700D01*
X124460000Y-59690000D02*
X124460000Y-57150000D01*
X124460000Y-101600000D02*
X123209700Y-101600000D01*
X123209700Y-101600000D02*
X123209700Y-100349700D01*
X123209700Y-100349700D02*
X119380000Y-96520000D01*
X69850000Y-111760000D02*
X71120000Y-113030000D01*
X71120000Y-113030000D02*
X71120000Y-116840000D01*
X69850000Y-111760000D02*
X69850000Y-110509700D01*
X69850000Y-110509700D02*
X64750300Y-105410000D01*
X128270000Y-179070000D02*
X128270000Y-185420000D01*
X128270000Y-172720000D02*
X128270000Y-179070000D01*
X167640000Y-54629700D02*
X168910000Y-55899700D01*
X167640000Y-52070000D02*
X167640000Y-54629700D01*
X168910000Y-57150000D02*
X168910000Y-55899700D01*
X166370000Y-41890300D02*
X167640000Y-43160300D01*
X167640000Y-43160300D02*
X167640000Y-52070000D01*
X71120000Y-116840000D02*
X71120000Y-118090300D01*
X69850000Y-147320000D02*
X71120000Y-148590000D01*
X71120000Y-148590000D02*
X71120000Y-152400000D01*
X71120000Y-118090300D02*
X70573000Y-118090300D01*
X70573000Y-118090300D02*
X69850000Y-118813300D01*
X69850000Y-118813300D02*
X69850000Y-147320000D01*
X86360000Y-152400000D02*
X86360000Y-151149700D01*
X85090000Y-147320000D02*
X85090000Y-149879700D01*
X85090000Y-149879700D02*
X86360000Y-151149700D01*
X40640000Y-85090000D02*
X40640000Y-86340300D01*
X40640000Y-86340300D02*
X40607500Y-86372800D01*
X40607500Y-86372800D02*
X40607500Y-125099300D01*
X40607500Y-125099300D02*
X42209100Y-126700900D01*
X42209100Y-126700900D02*
X44450000Y-124460000D01*
X41910000Y-127000000D02*
X42209100Y-126700900D01*
X40640000Y-85090000D02*
X40640000Y-83839700D01*
X40640000Y-80010000D02*
X40640000Y-81260300D01*
X40640000Y-81260300D02*
X41187000Y-81260300D01*
X41187000Y-81260300D02*
X41929600Y-82002900D01*
X41929600Y-82002900D02*
X41929600Y-83094000D01*
X41929600Y-83094000D02*
X41183900Y-83839700D01*
X41183900Y-83839700D02*
X40640000Y-83839700D01*
X196889400Y-55860300D02*
X208280000Y-55860300D01*
X196850000Y-56074800D02*
X196850000Y-55899700D01*
X196850000Y-55899700D02*
X196889400Y-55860300D01*
X196889400Y-55860300D02*
X195580000Y-54550900D01*
X195580000Y-54550900D02*
X195580000Y-52070000D01*
X208280000Y-55860300D02*
X208280000Y-53340000D01*
X208280000Y-53340000D02*
X209550000Y-52070000D01*
X209569700Y-57150000D02*
X208280000Y-55860300D01*
X196850000Y-57150000D02*
X196850000Y-56074800D01*
X140970000Y-57150000D02*
X140970000Y-56074800D01*
X154940000Y-57150000D02*
X154940000Y-55899700D01*
X86360000Y-116840000D02*
X86360000Y-115589700D01*
X86360000Y-115589700D02*
X86360000Y-113030000D01*
X86360000Y-113030000D02*
X85090000Y-111760000D01*
X166370000Y-40640000D02*
X166370000Y-41890300D01*
X139700000Y-41185000D02*
X140425000Y-41185000D01*
X140425000Y-41185000D02*
X140970000Y-40640000D01*
X127000000Y-30480000D02*
X137705000Y-41185000D01*
X137705000Y-41185000D02*
X139700000Y-41185000D01*
X139700000Y-52070000D02*
X139700000Y-41185000D01*
X86360000Y-116840000D02*
X86360000Y-118090300D01*
X86360000Y-118090300D02*
X86907000Y-118090300D01*
X86907000Y-118090300D02*
X87649600Y-118832900D01*
X87649600Y-118832900D02*
X87649600Y-122464000D01*
X87649600Y-122464000D02*
X86903900Y-123209700D01*
X86903900Y-123209700D02*
X86360000Y-123209700D01*
X86360000Y-124460000D02*
X86360000Y-123209700D01*
X86360000Y-152400000D02*
X86360000Y-153650300D01*
X63500000Y-105410000D02*
X64750300Y-105410000D01*
X210820000Y-57150000D02*
X209569700Y-57150000D01*
X154940000Y-114300000D02*
X160020000Y-119380000D01*
X160020000Y-119380000D02*
X161290000Y-119380000D01*
X128270000Y-204470000D02*
X128270000Y-210820000D01*
X128270000Y-198120000D02*
X128270000Y-204470000D01*
X40640000Y-74930000D02*
X40640000Y-73679700D01*
X50800000Y-52070000D02*
X50800000Y-64063600D01*
X50800000Y-64063600D02*
X41183900Y-73679700D01*
X41183900Y-73679700D02*
X40640000Y-73679700D01*
X86360000Y-124460000D02*
X86360000Y-125710300D01*
X86360000Y-129540000D02*
X86360000Y-128289700D01*
X86360000Y-128289700D02*
X86907000Y-128289700D01*
X86907000Y-128289700D02*
X87679700Y-127517000D01*
X87679700Y-127517000D02*
X87679700Y-126486100D01*
X87679700Y-126486100D02*
X86903900Y-125710300D01*
X86903900Y-125710300D02*
X86360000Y-125710300D01*
X128270000Y-157480000D02*
X128270000Y-162560000D01*
X74930000Y-187960000D02*
X71120000Y-187960000D01*
X77439700Y-187960000D02*
X74930000Y-187960000D01*
X128270000Y-167640000D02*
X128270000Y-172720000D01*
X128270000Y-162560000D02*
X128270000Y-167640000D01*
X73660000Y-30480000D02*
X73660000Y-52070000D01*
X147320000Y-119380000D02*
X142240000Y-114300000D01*
X142240000Y-114300000D02*
X140970000Y-114300000D01*
X182880000Y-57150000D02*
X182880000Y-55899700D01*
X182880000Y-55899700D02*
X181610000Y-54629700D01*
X181610000Y-54629700D02*
X181610000Y-52070000D01*
X128270000Y-191770000D02*
X128270000Y-198120000D01*
X78740000Y-187960000D02*
X77439700Y-187960000D01*
X96520000Y-30480000D02*
X96520000Y-31780300D01*
X96520000Y-31780300D02*
X97576100Y-32836400D01*
X97576100Y-32836400D02*
X97576100Y-51013900D01*
X97576100Y-51013900D02*
X96520000Y-52070000D01*
X78740000Y-99040300D02*
X79247000Y-99040300D01*
X79247000Y-99040300D02*
X79997700Y-99791000D01*
X79997700Y-99791000D02*
X79997700Y-100909000D01*
X79997700Y-100909000D02*
X79287000Y-101619700D01*
X79287000Y-101619700D02*
X78740000Y-101619700D01*
X78740000Y-97790000D02*
X78740000Y-99040300D01*
X78740000Y-102870000D02*
X78740000Y-101619700D01*
X196850000Y-114300000D02*
X201930000Y-119380000D01*
X201930000Y-119380000D02*
X203200000Y-119380000D01*
X182880000Y-114300000D02*
X187960000Y-119380000D01*
X187960000Y-119380000D02*
X189230000Y-119380000D01*
X168910000Y-114300000D02*
X173990000Y-119380000D01*
X173990000Y-119380000D02*
X175260000Y-119380000D01*
X109220000Y-30480000D02*
X110520300Y-30480000D01*
X152400000Y-30480000D02*
X151102100Y-31777900D01*
X151102100Y-31777900D02*
X133866500Y-31777900D01*
X133866500Y-31777900D02*
X131218300Y-29129700D01*
X131218300Y-29129700D02*
X111870600Y-29129700D01*
X111870600Y-29129700D02*
X110520300Y-30480000D01*
D30*
X119300000Y-152400000D02*
X118172800Y-151272800D01*
X118172800Y-151272800D02*
X113833100Y-151272800D01*
X113833100Y-151272800D02*
X113030000Y-152075900D01*
X113030000Y-152075900D02*
X113030000Y-157480000D01*
X120650000Y-162560000D02*
X120650000Y-161534700D01*
X114300000Y-152400000D02*
X114300000Y-155184700D01*
X114300000Y-155184700D02*
X120650000Y-161534700D01*
X93980000Y-134620000D02*
X93980000Y-135745300D01*
X103983700Y-159373700D02*
X103983700Y-145572100D01*
X103983700Y-145572100D02*
X94156900Y-135745300D01*
X94156900Y-135745300D02*
X93980000Y-135745300D01*
X119512800Y-192913800D02*
X119512800Y-169802500D01*
X119512800Y-169802500D02*
X120650000Y-168665300D01*
X115570000Y-199734700D02*
X119512800Y-195791900D01*
X119512800Y-195791900D02*
X119512800Y-192913800D01*
X177800000Y-203200000D02*
X171959100Y-209040900D01*
X171959100Y-209040900D02*
X145276900Y-209040900D01*
X145276900Y-209040900D02*
X129456700Y-193220700D01*
X129456700Y-193220700D02*
X129456700Y-191499700D01*
X129456700Y-191499700D02*
X128700900Y-190743900D01*
X128700900Y-190743900D02*
X126177400Y-190743900D01*
X126177400Y-190743900D02*
X124007500Y-192913800D01*
X124007500Y-192913800D02*
X119512800Y-192913800D01*
X120650000Y-167640000D02*
X120650000Y-168665300D01*
X115570000Y-200660000D02*
X115570000Y-199734700D01*
X101600000Y-62230000D02*
X101600000Y-61104700D01*
X91440000Y-44450000D02*
X91440000Y-48870800D01*
X91440000Y-48870800D02*
X99909900Y-57340700D01*
X99909900Y-57340700D02*
X99909900Y-59695900D01*
X99909900Y-59695900D02*
X101318700Y-61104700D01*
X101318700Y-61104700D02*
X101600000Y-61104700D01*
X101600000Y-58564700D02*
X101318600Y-58564700D01*
X101318600Y-58564700D02*
X100474700Y-57720800D01*
X100474700Y-57720800D02*
X100474700Y-46845300D01*
X100474700Y-46845300D02*
X102870000Y-44450000D01*
X101600000Y-59690000D02*
X101600000Y-58564700D01*
X96376100Y-55284500D02*
X98048100Y-56956500D01*
X98048100Y-56956500D02*
X98048100Y-136148100D01*
X98048100Y-136148100D02*
X101600000Y-139700000D01*
X93980000Y-119380000D02*
X93980000Y-118254700D01*
X93980000Y-118254700D02*
X94683300Y-118254700D01*
X94683300Y-118254700D02*
X96468500Y-116469500D01*
X96468500Y-116469500D02*
X96468500Y-84184900D01*
X96468500Y-84184900D02*
X89753600Y-77470000D01*
X89753600Y-77470000D02*
X86360000Y-77470000D01*
X113030000Y-177944700D02*
X107612800Y-172527500D01*
X107612800Y-172527500D02*
X107612800Y-126067200D01*
X107612800Y-126067200D02*
X109220000Y-124460000D01*
X113030000Y-179070000D02*
X113030000Y-177944700D01*
X109220000Y-121920000D02*
X109220000Y-123045300D01*
X113030000Y-185420000D02*
X113030000Y-184294700D01*
X113030000Y-184294700D02*
X107159800Y-178424500D01*
X107159800Y-178424500D02*
X107159800Y-124824200D01*
X107159800Y-124824200D02*
X108938700Y-123045300D01*
X108938700Y-123045300D02*
X109220000Y-123045300D01*
X109220000Y-120794700D02*
X109501300Y-120794700D01*
X109501300Y-120794700D02*
X112633100Y-117662900D01*
X112633100Y-117662900D02*
X112633100Y-95685300D01*
X112633100Y-95685300D02*
X108094700Y-91146900D01*
X108094700Y-91146900D02*
X108094700Y-79439200D01*
X108094700Y-79439200D02*
X108938600Y-78595300D01*
X108938600Y-78595300D02*
X109220000Y-78595300D01*
X109220000Y-77470000D02*
X109220000Y-78595300D01*
X109220000Y-121920000D02*
X109220000Y-120794700D01*
X113030000Y-190644700D02*
X106652000Y-184266700D01*
X106652000Y-184266700D02*
X106652000Y-130665400D01*
X106652000Y-130665400D02*
X106652000Y-121948000D01*
X106652000Y-121948000D02*
X109220000Y-119380000D01*
X106652000Y-130665400D02*
X100811300Y-130665400D01*
X100811300Y-130665400D02*
X100180000Y-130034100D01*
X113030000Y-191770000D02*
X113030000Y-190644700D01*
X109220000Y-74930000D02*
X109220000Y-76055300D01*
X109220000Y-119380000D02*
X109220000Y-118254700D01*
X109220000Y-118254700D02*
X109501400Y-118254700D01*
X109501400Y-118254700D02*
X112181100Y-115575000D01*
X112181100Y-115575000D02*
X112181100Y-96023100D01*
X112181100Y-96023100D02*
X107633700Y-91475700D01*
X107633700Y-91475700D02*
X107633700Y-77360200D01*
X107633700Y-77360200D02*
X108938600Y-76055300D01*
X108938600Y-76055300D02*
X109220000Y-76055300D01*
X63500000Y-81135300D02*
X63307200Y-81135300D01*
X63307200Y-81135300D02*
X61571300Y-82871200D01*
X61571300Y-82871200D02*
X61571300Y-91198200D01*
X61571300Y-91198200D02*
X60451400Y-92318100D01*
X63500000Y-80010000D02*
X63500000Y-81135300D01*
X63500000Y-82550000D02*
X63500000Y-83675300D01*
X60710000Y-94478400D02*
X62374700Y-92813700D01*
X62374700Y-92813700D02*
X62374700Y-84519200D01*
X62374700Y-84519200D02*
X63218600Y-83675300D01*
X63218600Y-83675300D02*
X63500000Y-83675300D01*
X77614700Y-59690000D02*
X68677200Y-59690000D01*
X68677200Y-59690000D02*
X65011900Y-56024700D01*
X65011900Y-56024700D02*
X62518200Y-56024700D01*
X62518200Y-56024700D02*
X57518600Y-61024300D01*
X57518600Y-61024300D02*
X57518600Y-87501300D01*
X57518600Y-87501300D02*
X55171400Y-89848500D01*
X55171400Y-89848500D02*
X55171400Y-120527400D01*
X55171400Y-120527400D02*
X44955600Y-130743200D01*
X44955600Y-130743200D02*
X43921200Y-130743200D01*
X43921200Y-130743200D02*
X43085300Y-129907300D01*
X43085300Y-129907300D02*
X43085300Y-129540000D01*
X78740000Y-59690000D02*
X77614700Y-59690000D01*
X41910000Y-129540000D02*
X43085300Y-129540000D01*
X77614700Y-57150000D02*
X66774100Y-57150000D01*
X66774100Y-57150000D02*
X65169400Y-55545300D01*
X65169400Y-55545300D02*
X62356100Y-55545300D01*
X62356100Y-55545300D02*
X57005400Y-60896000D01*
X57005400Y-60896000D02*
X57005400Y-86692200D01*
X57005400Y-86692200D02*
X54721100Y-88976500D01*
X54721100Y-88976500D02*
X54721100Y-119711300D01*
X54721100Y-119711300D02*
X44892400Y-129540000D01*
X44892400Y-129540000D02*
X44450000Y-129540000D01*
X78740000Y-57150000D02*
X77614700Y-57150000D01*
X81983500Y-141349700D02*
X81983500Y-141980000D01*
X81983500Y-141980000D02*
X88462200Y-148458700D01*
X88462200Y-148458700D02*
X88462200Y-154013500D01*
X88462200Y-154013500D02*
X88994700Y-154546000D01*
X88994700Y-154546000D02*
X88994700Y-183436800D01*
X88994700Y-183436800D02*
X89802600Y-184244700D01*
X89802600Y-184244700D02*
X90170000Y-184244700D01*
X63500000Y-76055300D02*
X63218600Y-76055300D01*
X63218600Y-76055300D02*
X61121000Y-78152900D01*
X61121000Y-78152900D02*
X61121000Y-90622700D01*
X61121000Y-90622700D02*
X59224100Y-92519600D01*
X59224100Y-92519600D02*
X59224100Y-126221200D01*
X59224100Y-126221200D02*
X58662700Y-126782600D01*
X90170000Y-185420000D02*
X90170000Y-184244700D01*
X63500000Y-74930000D02*
X63500000Y-76055300D01*
X81251100Y-142163700D02*
X81530300Y-142163700D01*
X81530300Y-142163700D02*
X87947200Y-148580600D01*
X87947200Y-148580600D02*
X87947200Y-154453600D01*
X87947200Y-154453600D02*
X88237100Y-154743500D01*
X88237100Y-154743500D02*
X88237100Y-182734900D01*
X88237100Y-182734900D02*
X86727300Y-184244700D01*
X86727300Y-184244700D02*
X86360000Y-184244700D01*
X63500000Y-73515300D02*
X63218700Y-73515300D01*
X63218700Y-73515300D02*
X60236800Y-76497200D01*
X60236800Y-76497200D02*
X60236800Y-90870000D01*
X60236800Y-90870000D02*
X58773800Y-92333000D01*
X58773800Y-92333000D02*
X58773800Y-125645800D01*
X58773800Y-125645800D02*
X57881800Y-126537800D01*
X57881800Y-126537800D02*
X57881800Y-135175500D01*
X57881800Y-135175500D02*
X57055800Y-136001500D01*
X86360000Y-185420000D02*
X86360000Y-184244700D01*
X63500000Y-72390000D02*
X63500000Y-73515300D01*
X57094400Y-134698500D02*
X57094400Y-124266600D01*
X57094400Y-124266600D02*
X58323400Y-123037600D01*
X58323400Y-123037600D02*
X58323400Y-92146500D01*
X58323400Y-92146500D02*
X59770100Y-90699800D01*
X59770100Y-90699800D02*
X59770100Y-74423900D01*
X59770100Y-74423900D02*
X63218700Y-70975300D01*
X63218700Y-70975300D02*
X63500000Y-70975300D01*
X82550000Y-185420000D02*
X82550000Y-184244700D01*
X79475000Y-141779400D02*
X79475000Y-143440000D01*
X79475000Y-143440000D02*
X81374700Y-145339700D01*
X81374700Y-145339700D02*
X81374700Y-183375100D01*
X81374700Y-183375100D02*
X82244300Y-184244700D01*
X82244300Y-184244700D02*
X82550000Y-184244700D01*
X63500000Y-69850000D02*
X63500000Y-70975300D01*
X63500000Y-67310000D02*
X64675500Y-66134500D01*
X64675500Y-66134500D02*
X64675500Y-59222300D01*
X64675500Y-59222300D02*
X64008800Y-58555600D01*
X64008800Y-58555600D02*
X63040600Y-58555600D01*
X63040600Y-58555600D02*
X57968900Y-63627300D01*
X57968900Y-63627300D02*
X57968900Y-87712300D01*
X57968900Y-87712300D02*
X55621700Y-90059500D01*
X55621700Y-90059500D02*
X55621700Y-120996800D01*
X55621700Y-120996800D02*
X55049800Y-121568700D01*
X55049800Y-121568700D02*
X55049800Y-125695700D01*
X55049800Y-125695700D02*
X44855500Y-135890000D01*
X44855500Y-135890000D02*
X44040200Y-135890000D01*
X44040200Y-135890000D02*
X43085300Y-136844900D01*
X43085300Y-136844900D02*
X43085300Y-137160000D01*
X77564700Y-185420000D02*
X76389400Y-186595300D01*
X76389400Y-186595300D02*
X70628800Y-186595300D01*
X70628800Y-186595300D02*
X40715200Y-156681700D01*
X40715200Y-156681700D02*
X40715200Y-139162800D01*
X40715200Y-139162800D02*
X41542700Y-138335300D01*
X41542700Y-138335300D02*
X41910000Y-138335300D01*
X41910000Y-137160000D02*
X43085300Y-137160000D01*
X78740000Y-185420000D02*
X77564700Y-185420000D01*
X41910000Y-137160000D02*
X41910000Y-138335300D01*
X63500000Y-64770000D02*
X63500000Y-65895300D01*
X63500000Y-65895300D02*
X63218700Y-65895300D01*
X63218700Y-65895300D02*
X59319800Y-69794200D01*
X59319800Y-69794200D02*
X59319800Y-90194900D01*
X59319800Y-90194900D02*
X57873000Y-91641700D01*
X57873000Y-91641700D02*
X57873000Y-122194700D01*
X57873000Y-122194700D02*
X56644000Y-123423700D01*
X56644000Y-123423700D02*
X56644000Y-129399800D01*
X56644000Y-129399800D02*
X47946100Y-138097700D01*
X74930000Y-185420000D02*
X74930000Y-184244700D01*
X47946100Y-138097700D02*
X47946100Y-157558400D01*
X47946100Y-157558400D02*
X74632400Y-184244700D01*
X74632400Y-184244700D02*
X74930000Y-184244700D01*
X63500000Y-63355300D02*
X63218700Y-63355300D01*
X63218700Y-63355300D02*
X58869500Y-67704500D01*
X58869500Y-67704500D02*
X58869500Y-88635900D01*
X58869500Y-88635900D02*
X56972600Y-90532800D01*
X56972600Y-90532800D02*
X56972600Y-122252400D01*
X56972600Y-122252400D02*
X55950400Y-123274600D01*
X55950400Y-123274600D02*
X55950400Y-129067700D01*
X55950400Y-129067700D02*
X46793100Y-138225000D01*
X46793100Y-138225000D02*
X46793100Y-139673000D01*
X46793100Y-139673000D02*
X45590800Y-140875300D01*
X45590800Y-140875300D02*
X45590800Y-159084900D01*
X45590800Y-159084900D02*
X70750600Y-184244700D01*
X70750600Y-184244700D02*
X71120000Y-184244700D01*
X45590800Y-140875300D02*
X43452500Y-140875300D01*
X43452500Y-140875300D02*
X43085300Y-140508100D01*
X43085300Y-140508100D02*
X43085300Y-139700000D01*
X71120000Y-185420000D02*
X71120000Y-184244700D01*
X41910000Y-139700000D02*
X43085300Y-139700000D01*
X63500000Y-62230000D02*
X63500000Y-63355300D01*
X63500000Y-60815300D02*
X63218700Y-60815300D01*
X63218700Y-60815300D02*
X58419200Y-65614800D01*
X58419200Y-65614800D02*
X58419200Y-88022700D01*
X58419200Y-88022700D02*
X56195700Y-90246200D01*
X56195700Y-90246200D02*
X56195700Y-122392400D01*
X56195700Y-122392400D02*
X55500100Y-123088000D01*
X55500100Y-123088000D02*
X55500100Y-127841900D01*
X55500100Y-127841900D02*
X44817300Y-138524700D01*
X44817300Y-138524700D02*
X44450000Y-138524700D01*
X66040000Y-38100000D02*
X66040000Y-39275300D01*
X65653100Y-55003300D02*
X65653100Y-39662200D01*
X65653100Y-39662200D02*
X66040000Y-39275300D01*
X63500000Y-59690000D02*
X63500000Y-60815300D01*
X44450000Y-139700000D02*
X44450000Y-138524700D01*
X87535300Y-30480000D02*
X87535300Y-30112600D01*
X87535300Y-30112600D02*
X88343200Y-29304700D01*
X88343200Y-29304700D02*
X89462800Y-29304700D01*
X89462800Y-29304700D02*
X90318600Y-30160500D01*
X90318600Y-30160500D02*
X90318600Y-53528800D01*
X90318600Y-53528800D02*
X97460300Y-60670500D01*
X97460300Y-60670500D02*
X97460300Y-132132600D01*
X97460300Y-132132600D02*
X97322700Y-132270200D01*
X86360000Y-30480000D02*
X87535300Y-30480000D01*
X60960000Y-38100000D02*
X60960000Y-39275300D01*
X40640000Y-69850000D02*
X40640000Y-68724700D01*
X40640000Y-68724700D02*
X40921300Y-68724700D01*
X40921300Y-68724700D02*
X48898600Y-60747400D01*
X48898600Y-60747400D02*
X48898600Y-51336700D01*
X48898600Y-51336700D02*
X60960000Y-39275300D01*
X135890000Y-191770000D02*
X133158300Y-191770000D01*
X133158300Y-191770000D02*
X127228200Y-185839900D01*
X127228200Y-185839900D02*
X127228200Y-132895700D01*
X127228200Y-132895700D02*
X130580700Y-129543200D01*
X130580700Y-129543200D02*
X130580700Y-60335900D01*
X130580700Y-60335900D02*
X99033800Y-28789000D01*
X99033800Y-28789000D02*
X86317600Y-28789000D01*
X86317600Y-28789000D02*
X85175000Y-29931600D01*
X85175000Y-29931600D02*
X85175000Y-31037900D01*
X85175000Y-31037900D02*
X86037900Y-31900800D01*
X86037900Y-31900800D02*
X87945800Y-31900800D01*
X87945800Y-31900800D02*
X88654500Y-31900800D01*
X88654500Y-31900800D02*
X88900000Y-31655300D01*
X86360000Y-68724700D02*
X86641300Y-68724700D01*
X86641300Y-68724700D02*
X87945800Y-67420200D01*
X87945800Y-67420200D02*
X87945800Y-31900800D01*
X86360000Y-69850000D02*
X86360000Y-68724700D01*
X88900000Y-30480000D02*
X88900000Y-31655300D01*
X86360000Y-208280000D02*
X86360000Y-207104700D01*
X86360000Y-207104700D02*
X85992600Y-207104700D01*
X85992600Y-207104700D02*
X85184700Y-206296800D01*
X85184700Y-206296800D02*
X85184700Y-205393700D01*
X85184700Y-205393700D02*
X39475800Y-159684800D01*
X39475800Y-159684800D02*
X39475800Y-73554200D01*
X39475800Y-73554200D02*
X40640000Y-72390000D01*
X82113200Y-61635200D02*
X80460100Y-61635200D01*
X80460100Y-61635200D02*
X79865300Y-62230000D01*
X85234700Y-64770000D02*
X85234700Y-64756700D01*
X85234700Y-64756700D02*
X82113200Y-61635200D01*
X83820000Y-31655300D02*
X82113200Y-33362100D01*
X82113200Y-33362100D02*
X82113200Y-61635200D01*
X78740000Y-62230000D02*
X79865300Y-62230000D01*
X86360000Y-64770000D02*
X85234700Y-64770000D01*
X83820000Y-30480000D02*
X83820000Y-31655300D01*
X78740000Y-62230000D02*
X78740000Y-64770000D01*
X81208600Y-114722200D02*
X83286500Y-112644300D01*
X83286500Y-112644300D02*
X83286500Y-110396600D01*
X83286500Y-110396600D02*
X92589000Y-101094100D01*
X92589000Y-101094100D02*
X92589000Y-100888600D01*
X58638900Y-163820600D02*
X58638900Y-128650600D01*
X58638900Y-128650600D02*
X60300700Y-126988800D01*
X60300700Y-126988800D02*
X60300700Y-123423300D01*
X60300700Y-123423300D02*
X63218700Y-120505300D01*
X63218700Y-120505300D02*
X63500000Y-120505300D01*
X63500000Y-119380000D02*
X63500000Y-120505300D01*
X81026900Y-115941500D02*
X83736900Y-113231500D01*
X83736900Y-113231500D02*
X83736900Y-111238500D01*
X83736900Y-111238500D02*
X92589300Y-102386100D01*
X58748000Y-165896400D02*
X59539500Y-165104900D01*
X59539500Y-165104900D02*
X59539500Y-128695800D01*
X59539500Y-128695800D02*
X62374700Y-125860600D01*
X62374700Y-125860600D02*
X62374700Y-123889200D01*
X62374700Y-123889200D02*
X63218600Y-123045300D01*
X63218600Y-123045300D02*
X63500000Y-123045300D01*
X63500000Y-121920000D02*
X63500000Y-123045300D01*
X124460000Y-63355300D02*
X124178700Y-63355300D01*
X124178700Y-63355300D02*
X119372000Y-68162000D01*
X119372000Y-68162000D02*
X119372000Y-94908400D01*
X60264900Y-143339400D02*
X60264900Y-128607300D01*
X60264900Y-128607300D02*
X63286900Y-125585300D01*
X63286900Y-125585300D02*
X63500000Y-125585300D01*
X119372000Y-94908400D02*
X117534700Y-94908400D01*
X124460000Y-105554700D02*
X124741300Y-105554700D01*
X124741300Y-105554700D02*
X125610300Y-104685700D01*
X125610300Y-104685700D02*
X125610300Y-101146700D01*
X125610300Y-101146700D02*
X119372000Y-94908400D01*
X124460000Y-62230000D02*
X124460000Y-63355300D01*
X124460000Y-106680000D02*
X124460000Y-105554700D01*
X63500000Y-124460000D02*
X63500000Y-125585300D01*
X109220000Y-59690000D02*
X109220000Y-60815300D01*
X101600000Y-102870000D02*
X101600000Y-101744700D01*
X101600000Y-101744700D02*
X101318700Y-101744700D01*
X101318700Y-101744700D02*
X100445900Y-100871900D01*
X100445900Y-100871900D02*
X100445900Y-74449600D01*
X100445900Y-74449600D02*
X101235500Y-73660000D01*
X101235500Y-73660000D02*
X101921800Y-73660000D01*
X101921800Y-73660000D02*
X103681400Y-71900400D01*
X103681400Y-71900400D02*
X103681400Y-68072200D01*
X103681400Y-68072200D02*
X108094700Y-63658900D01*
X108094700Y-63658900D02*
X108094700Y-61659200D01*
X108094700Y-61659200D02*
X108938600Y-60815300D01*
X108938600Y-60815300D02*
X109220000Y-60815300D01*
X102450200Y-111795600D02*
X102752600Y-111493200D01*
X102752600Y-111493200D02*
X102752600Y-104022600D01*
X102752600Y-104022600D02*
X101600000Y-102870000D01*
X60264800Y-166244400D02*
X60990200Y-165519000D01*
X60990200Y-165519000D02*
X60990200Y-130353800D01*
X60990200Y-130353800D02*
X63218700Y-128125300D01*
X63218700Y-128125300D02*
X63500000Y-128125300D01*
X63500000Y-127000000D02*
X63500000Y-128125300D01*
X80143200Y-113977700D02*
X82836200Y-111284700D01*
X82836200Y-111284700D02*
X82836200Y-110059100D01*
X82836200Y-110059100D02*
X86360000Y-106535300D01*
X124460000Y-70975300D02*
X124178700Y-70975300D01*
X124178700Y-70975300D02*
X120629600Y-74524400D01*
X120629600Y-74524400D02*
X120629600Y-93247100D01*
X120629600Y-93247100D02*
X126514800Y-99132300D01*
X126514800Y-99132300D02*
X126514800Y-111373700D01*
X126514800Y-111373700D02*
X124713800Y-113174700D01*
X124713800Y-113174700D02*
X124460000Y-113174700D01*
X86360000Y-105410000D02*
X86360000Y-106535300D01*
X60243200Y-167422500D02*
X61440500Y-166225200D01*
X61440500Y-166225200D02*
X61440500Y-132443500D01*
X61440500Y-132443500D02*
X63218700Y-130665300D01*
X63218700Y-130665300D02*
X63500000Y-130665300D01*
X63500000Y-129540000D02*
X63500000Y-130665300D01*
X124460000Y-69850000D02*
X124460000Y-70975300D01*
X124460000Y-114300000D02*
X124460000Y-113174700D01*
X124460000Y-76055300D02*
X124267200Y-76055300D01*
X124267200Y-76055300D02*
X121530200Y-78792300D01*
X121530200Y-78792300D02*
X121530200Y-92873900D01*
X121530200Y-92873900D02*
X127415400Y-98759100D01*
X127415400Y-98759100D02*
X127415400Y-115580600D01*
X127415400Y-115580600D02*
X124741300Y-118254700D01*
X124741300Y-118254700D02*
X124460000Y-118254700D01*
X86360000Y-103995300D02*
X86182700Y-103995300D01*
X86182700Y-103995300D02*
X85234700Y-104943300D01*
X85234700Y-104943300D02*
X85234700Y-105032700D01*
X85234700Y-105032700D02*
X82859800Y-107407600D01*
X82859800Y-107407600D02*
X82803700Y-107407600D01*
X82803700Y-107407600D02*
X77118700Y-113092600D01*
X77118700Y-113092600D02*
X77118700Y-122716800D01*
X77118700Y-122716800D02*
X77767600Y-123365700D01*
X86360000Y-102870000D02*
X86360000Y-103995300D01*
X61253700Y-167492500D02*
X61890800Y-166855400D01*
X61890800Y-166855400D02*
X61890800Y-134533200D01*
X61890800Y-134533200D02*
X63218700Y-133205300D01*
X63218700Y-133205300D02*
X63500000Y-133205300D01*
X63500000Y-132080000D02*
X63500000Y-133205300D01*
X124460000Y-74930000D02*
X124460000Y-76055300D01*
X124460000Y-119380000D02*
X124460000Y-118254700D01*
X124460000Y-68435300D02*
X124178700Y-68435300D01*
X124178700Y-68435300D02*
X120179300Y-72434700D01*
X120179300Y-72434700D02*
X120179300Y-93644900D01*
X120179300Y-93644900D02*
X126060700Y-99526300D01*
X126060700Y-99526300D02*
X126060700Y-109315400D01*
X126060700Y-109315400D02*
X124741400Y-110634700D01*
X124741400Y-110634700D02*
X124460000Y-110634700D01*
X88885700Y-121959400D02*
X88885700Y-107115500D01*
X88885700Y-107115500D02*
X93314600Y-102686600D01*
X93314600Y-102686600D02*
X93314600Y-100573000D01*
X93314600Y-100573000D02*
X92891400Y-100149800D01*
X92891400Y-100149800D02*
X87665500Y-100149800D01*
X87665500Y-100149800D02*
X87485300Y-100330000D01*
X86360000Y-100330000D02*
X87485300Y-100330000D01*
X62036000Y-168167300D02*
X62341100Y-167862200D01*
X62341100Y-167862200D02*
X62341100Y-136622900D01*
X62341100Y-136622900D02*
X63218700Y-135745300D01*
X63218700Y-135745300D02*
X63500000Y-135745300D01*
X63500000Y-134620000D02*
X63500000Y-135745300D01*
X124460000Y-67310000D02*
X124460000Y-68435300D01*
X124460000Y-111760000D02*
X124460000Y-110634700D01*
X86360000Y-98915300D02*
X86078700Y-98915300D01*
X86078700Y-98915300D02*
X84233900Y-100760100D01*
X84233900Y-100760100D02*
X84233900Y-105396600D01*
X84233900Y-105396600D02*
X82673200Y-106957300D01*
X82673200Y-106957300D02*
X82561400Y-106957300D01*
X82561400Y-106957300D02*
X76668400Y-112850300D01*
X76668400Y-112850300D02*
X76668400Y-128286300D01*
X76668400Y-128286300D02*
X77003200Y-128621100D01*
X86360000Y-97790000D02*
X86360000Y-98915300D01*
X63500000Y-137160000D02*
X63500000Y-138285300D01*
X65056200Y-167685300D02*
X65991800Y-166749700D01*
X65991800Y-166749700D02*
X65991800Y-140495700D01*
X65991800Y-140495700D02*
X63781400Y-138285300D01*
X63781400Y-138285300D02*
X63500000Y-138285300D01*
X75463300Y-151062800D02*
X75314300Y-150913800D01*
X75314300Y-150913800D02*
X75314300Y-111515800D01*
X75314300Y-111515800D02*
X78923300Y-107906800D01*
X78923300Y-107906800D02*
X79772300Y-107906800D01*
X79772300Y-107906800D02*
X81647400Y-106031700D01*
X81647400Y-106031700D02*
X81647400Y-105931600D01*
X81647400Y-105931600D02*
X83445200Y-104133800D01*
X83445200Y-104133800D02*
X83445200Y-99008800D01*
X83445200Y-99008800D02*
X86078700Y-96375300D01*
X86078700Y-96375300D02*
X86360000Y-96375300D01*
X109220000Y-105554700D02*
X108938700Y-105554700D01*
X108938700Y-105554700D02*
X104647800Y-101263800D01*
X104647800Y-101263800D02*
X104647800Y-86778900D01*
X104647800Y-86778900D02*
X105305600Y-86121100D01*
X105305600Y-86121100D02*
X105305600Y-70167000D01*
X105305600Y-70167000D02*
X107047800Y-68424800D01*
X107047800Y-68424800D02*
X107047800Y-65342700D01*
X107047800Y-65342700D02*
X109035200Y-63355300D01*
X109035200Y-63355300D02*
X109220000Y-63355300D01*
X86360000Y-95250000D02*
X86360000Y-96375300D01*
X109220000Y-62230000D02*
X109220000Y-63355300D01*
X109220000Y-106680000D02*
X109220000Y-105554700D01*
X71120000Y-158894700D02*
X71401300Y-158894700D01*
X71401300Y-158894700D02*
X74416900Y-155879100D01*
X74416900Y-155879100D02*
X74416900Y-111776300D01*
X74416900Y-111776300D02*
X78736700Y-107456500D01*
X78736700Y-107456500D02*
X79574100Y-107456500D01*
X79574100Y-107456500D02*
X81197100Y-105833500D01*
X81197100Y-105833500D02*
X81197100Y-105503400D01*
X81197100Y-105503400D02*
X82994900Y-103705600D01*
X82994900Y-103705600D02*
X82994900Y-96919100D01*
X82994900Y-96919100D02*
X86078700Y-93835300D01*
X86078700Y-93835300D02*
X86360000Y-93835300D01*
X105388000Y-92154600D02*
X105133700Y-91900300D01*
X105133700Y-91900300D02*
X105133700Y-86929900D01*
X105133700Y-86929900D02*
X105755900Y-86307700D01*
X105755900Y-86307700D02*
X105755900Y-70353600D01*
X105755900Y-70353600D02*
X107498100Y-68611400D01*
X107498100Y-68611400D02*
X107498100Y-67335900D01*
X107498100Y-67335900D02*
X108938700Y-65895300D01*
X108938700Y-65895300D02*
X109220000Y-65895300D01*
X105388000Y-92154600D02*
X105388000Y-93482700D01*
X105388000Y-93482700D02*
X110345400Y-98440100D01*
X110345400Y-98440100D02*
X110345400Y-107250600D01*
X110345400Y-107250600D02*
X109501300Y-108094700D01*
X109501300Y-108094700D02*
X109220000Y-108094700D01*
X86360000Y-92710000D02*
X86360000Y-93835300D01*
X71120000Y-160020000D02*
X71120000Y-158894700D01*
X109220000Y-64770000D02*
X109220000Y-65895300D01*
X109220000Y-109220000D02*
X109220000Y-108094700D01*
X71120000Y-156354700D02*
X71331000Y-156354700D01*
X71331000Y-156354700D02*
X73966600Y-153719100D01*
X73966600Y-153719100D02*
X73966600Y-111589700D01*
X73966600Y-111589700D02*
X78550100Y-107006200D01*
X78550100Y-107006200D02*
X79379100Y-107006200D01*
X79379100Y-107006200D02*
X80746800Y-105638500D01*
X80746800Y-105638500D02*
X80746800Y-105076300D01*
X80746800Y-105076300D02*
X82280800Y-103542300D01*
X82280800Y-103542300D02*
X82280800Y-95170200D01*
X82280800Y-95170200D02*
X86155700Y-91295300D01*
X86155700Y-91295300D02*
X86360000Y-91295300D01*
X105866500Y-89876100D02*
X106280500Y-90290100D01*
X106280500Y-90290100D02*
X106280500Y-93738300D01*
X106280500Y-93738300D02*
X110817400Y-98275200D01*
X110817400Y-98275200D02*
X110817400Y-109241000D01*
X110817400Y-109241000D02*
X109423700Y-110634700D01*
X109423700Y-110634700D02*
X109220000Y-110634700D01*
X105866500Y-89876100D02*
X105703400Y-89713000D01*
X105703400Y-89713000D02*
X105703400Y-86997100D01*
X105703400Y-86997100D02*
X106206200Y-86494300D01*
X106206200Y-86494300D02*
X106206200Y-71167700D01*
X106206200Y-71167700D02*
X108938600Y-68435300D01*
X108938600Y-68435300D02*
X109220000Y-68435300D01*
X86360000Y-90170000D02*
X86360000Y-91295300D01*
X71120000Y-157480000D02*
X71120000Y-156354700D01*
X109220000Y-67310000D02*
X109220000Y-68435300D01*
X109220000Y-111760000D02*
X109220000Y-110634700D01*
X71120000Y-154940000D02*
X73458000Y-152602000D01*
X73458000Y-152602000D02*
X73458000Y-111408300D01*
X73458000Y-111408300D02*
X78310500Y-106555800D01*
X78310500Y-106555800D02*
X79185800Y-106555800D01*
X79185800Y-106555800D02*
X80108200Y-105633400D01*
X80108200Y-105633400D02*
X80108200Y-104681600D01*
X80108200Y-104681600D02*
X81756700Y-103033100D01*
X81756700Y-103033100D02*
X81756700Y-93077300D01*
X81756700Y-93077300D02*
X86078700Y-88755300D01*
X86078700Y-88755300D02*
X86360000Y-88755300D01*
X106447400Y-87680400D02*
X106730800Y-87963800D01*
X106730800Y-87963800D02*
X106730800Y-93551700D01*
X106730800Y-93551700D02*
X111267700Y-98088600D01*
X111267700Y-98088600D02*
X111267700Y-111408300D01*
X111267700Y-111408300D02*
X109501300Y-113174700D01*
X109501300Y-113174700D02*
X109220000Y-113174700D01*
X109220000Y-70975300D02*
X108997100Y-70975300D01*
X108997100Y-70975300D02*
X106697900Y-73274500D01*
X106697900Y-73274500D02*
X106697900Y-87429900D01*
X106697900Y-87429900D02*
X106447400Y-87680400D01*
X86360000Y-87630000D02*
X86360000Y-88755300D01*
X109220000Y-69850000D02*
X109220000Y-70975300D01*
X109220000Y-114300000D02*
X109220000Y-113174700D01*
X105800800Y-145730300D02*
X105800800Y-137180100D01*
X105800800Y-137180100D02*
X101970700Y-133350000D01*
X101970700Y-133350000D02*
X101222200Y-133350000D01*
X101222200Y-133350000D02*
X99399100Y-131526900D01*
X99399100Y-131526900D02*
X99399100Y-129729000D01*
X99399100Y-129729000D02*
X100858100Y-128270000D01*
X100858100Y-128270000D02*
X101952300Y-128270000D01*
X101952300Y-128270000D02*
X105402700Y-124819600D01*
X105402700Y-124819600D02*
X105402700Y-120657300D01*
X105402700Y-120657300D02*
X109220000Y-116840000D01*
X86360000Y-85090000D02*
X86360000Y-86215300D01*
X93722100Y-110035600D02*
X93801600Y-109956100D01*
X93801600Y-109956100D02*
X93801600Y-93375600D01*
X93801600Y-93375600D02*
X86641300Y-86215300D01*
X86641300Y-86215300D02*
X86360000Y-86215300D01*
X109220000Y-115714700D02*
X109501300Y-115714700D01*
X109501300Y-115714700D02*
X111730700Y-113485300D01*
X111730700Y-113485300D02*
X111730700Y-97525900D01*
X111730700Y-97525900D02*
X107183300Y-92978500D01*
X107183300Y-92978500D02*
X107183300Y-75270700D01*
X107183300Y-75270700D02*
X108938700Y-73515300D01*
X108938700Y-73515300D02*
X109220000Y-73515300D01*
X109220000Y-72390000D02*
X109220000Y-73515300D01*
X109220000Y-116840000D02*
X109220000Y-115714700D01*
X40640000Y-64770000D02*
X40640000Y-65895300D01*
X76200000Y-208280000D02*
X76200000Y-207104700D01*
X76200000Y-207104700D02*
X75832600Y-207104700D01*
X75832600Y-207104700D02*
X75024700Y-206296800D01*
X75024700Y-206296800D02*
X75024700Y-198230700D01*
X75024700Y-198230700D02*
X39025400Y-162231400D01*
X39025400Y-162231400D02*
X39025400Y-67228600D01*
X39025400Y-67228600D02*
X40358700Y-65895300D01*
X40358700Y-65895300D02*
X40640000Y-65895300D01*
X40640000Y-62230000D02*
X40640000Y-64770000D01*
X86360000Y-59690000D02*
X86360000Y-60815300D01*
X86360000Y-205740000D02*
X86360000Y-204564700D01*
X86360000Y-204564700D02*
X79915300Y-198120000D01*
X79915300Y-198120000D02*
X79915300Y-184933100D01*
X79915300Y-184933100D02*
X79132200Y-184150000D01*
X79132200Y-184150000D02*
X78314000Y-184150000D01*
X78314000Y-184150000D02*
X67341700Y-173177700D01*
X67341700Y-173177700D02*
X67341700Y-121584600D01*
X67341700Y-121584600D02*
X63722500Y-117965400D01*
X63722500Y-117965400D02*
X62489300Y-117965400D01*
X62489300Y-117965400D02*
X61895000Y-117371100D01*
X61895000Y-117371100D02*
X61895000Y-100285000D01*
X61895000Y-100285000D02*
X63120000Y-99060000D01*
X63120000Y-99060000D02*
X63872800Y-99060000D01*
X63872800Y-99060000D02*
X64625400Y-98307400D01*
X64625400Y-98307400D02*
X64625400Y-87380200D01*
X64625400Y-87380200D02*
X78345600Y-73660000D01*
X78345600Y-73660000D02*
X79134400Y-73660000D01*
X79134400Y-73660000D02*
X84300500Y-68493900D01*
X84300500Y-68493900D02*
X84300500Y-67721700D01*
X84300500Y-67721700D02*
X85982200Y-66040000D01*
X85982200Y-66040000D02*
X86733900Y-66040000D01*
X86733900Y-66040000D02*
X87485300Y-65288600D01*
X87485300Y-65288600D02*
X87485300Y-61659200D01*
X87485300Y-61659200D02*
X86641400Y-60815300D01*
X86641400Y-60815300D02*
X86360000Y-60815300D01*
X101600000Y-57150000D02*
X102734900Y-58284900D01*
X102734900Y-58284900D02*
X102734900Y-62699900D01*
X102734900Y-62699900D02*
X101934800Y-63500000D01*
X101934800Y-63500000D02*
X101190800Y-63500000D01*
X101190800Y-63500000D02*
X98948700Y-65742100D01*
X98948700Y-65742100D02*
X98948700Y-133612900D01*
X98948700Y-133612900D02*
X101370500Y-136034700D01*
X101370500Y-136034700D02*
X101600000Y-136034700D01*
X101600000Y-138285300D02*
X101804500Y-138285300D01*
X101804500Y-138285300D02*
X105075500Y-141556300D01*
X105075500Y-141556300D02*
X105075500Y-146030700D01*
X105075500Y-146030700D02*
X105173700Y-146128900D01*
X105173700Y-146128900D02*
X105173700Y-204218800D01*
X101600000Y-137160000D02*
X101600000Y-138285300D01*
X101600000Y-137160000D02*
X101600000Y-136034700D01*
X78740000Y-151274700D02*
X75767800Y-148302500D01*
X75767800Y-148302500D02*
X75767800Y-112088000D01*
X75767800Y-112088000D02*
X79223700Y-108632100D01*
X78740000Y-104284700D02*
X79021300Y-104284700D01*
X79021300Y-104284700D02*
X81306300Y-101999700D01*
X81306300Y-101999700D02*
X81306300Y-88476500D01*
X81306300Y-88476500D02*
X85962800Y-83820000D01*
X85962800Y-83820000D02*
X86769400Y-83820000D01*
X86769400Y-83820000D02*
X89995900Y-80593500D01*
X89995900Y-80593500D02*
X89995900Y-80161100D01*
X78740000Y-105410000D02*
X78740000Y-104284700D01*
X88900000Y-204564700D02*
X80902800Y-196567500D01*
X80902800Y-196567500D02*
X80902800Y-184643500D01*
X80902800Y-184643500D02*
X80473900Y-184214600D01*
X80473900Y-184214600D02*
X80473900Y-175084000D01*
X80473900Y-175084000D02*
X77161800Y-171771900D01*
X77161800Y-171771900D02*
X77161800Y-154822200D01*
X77161800Y-154822200D02*
X78458700Y-153525300D01*
X78458700Y-153525300D02*
X78740000Y-153525300D01*
X78740000Y-152400000D02*
X78740000Y-153525300D01*
X88900000Y-205740000D02*
X88900000Y-204564700D01*
X78740000Y-152400000D02*
X78740000Y-151274700D01*
X82372700Y-106232000D02*
X82372700Y-106509100D01*
X82372700Y-106509100D02*
X76218100Y-112663700D01*
X76218100Y-112663700D02*
X76218100Y-146527900D01*
X76218100Y-146527900D02*
X79865400Y-150175200D01*
X79865400Y-150175200D02*
X79865400Y-153814600D01*
X79865400Y-153814600D02*
X78740000Y-154940000D01*
X78740000Y-154940000D02*
X78740000Y-155169100D01*
X78740000Y-95250000D02*
X78740000Y-94124700D01*
X78740000Y-94124700D02*
X78458700Y-94124700D01*
X78458700Y-94124700D02*
X77606600Y-93272600D01*
X77606600Y-93272600D02*
X77606600Y-79545200D01*
X77606600Y-79545200D02*
X78411800Y-78740000D01*
X78411800Y-78740000D02*
X79139800Y-78740000D01*
X79139800Y-78740000D02*
X84387400Y-73492400D01*
X84387400Y-73492400D02*
X84387400Y-72756800D01*
X84387400Y-72756800D02*
X86024200Y-71120000D01*
X86024200Y-71120000D02*
X91408900Y-71120000D01*
X91408900Y-71120000D02*
X96614100Y-65914800D01*
X91440000Y-207104700D02*
X91072600Y-207104700D01*
X91072600Y-207104700D02*
X90264700Y-206296800D01*
X90264700Y-206296800D02*
X90264700Y-197834800D01*
X90264700Y-197834800D02*
X81353100Y-188923200D01*
X81353100Y-188923200D02*
X81353100Y-184456900D01*
X81353100Y-184456900D02*
X80924300Y-184028100D01*
X80924300Y-184028100D02*
X80924300Y-174645200D01*
X80924300Y-174645200D02*
X77614700Y-171335600D01*
X77614700Y-171335600D02*
X77614700Y-161989200D01*
X77614700Y-161989200D02*
X78458600Y-161145300D01*
X78458600Y-161145300D02*
X78740000Y-161145300D01*
X78740000Y-155169100D02*
X78740000Y-155398200D01*
X78740000Y-155502600D02*
X78740000Y-156065300D01*
X78740000Y-155502600D02*
X78740000Y-155398200D01*
X78740000Y-160020000D02*
X78740000Y-161145300D01*
X91440000Y-208280000D02*
X91440000Y-207104700D01*
X78740000Y-156065300D02*
X78458600Y-156065300D01*
X78458600Y-156065300D02*
X77614700Y-156909200D01*
X77614700Y-156909200D02*
X77614700Y-157947300D01*
X77614700Y-157947300D02*
X78632900Y-158965500D01*
X78632900Y-158965500D02*
X78740000Y-158965500D01*
X78740000Y-160020000D02*
X78740000Y-158965500D01*
X135890000Y-198120000D02*
X135890000Y-197082700D01*
X135890000Y-197082700D02*
X126746800Y-187939500D01*
X126746800Y-187939500D02*
X126746800Y-132701700D01*
X126746800Y-132701700D02*
X130130400Y-129318100D01*
X130130400Y-129318100D02*
X130130400Y-66280400D01*
X130130400Y-66280400D02*
X124810000Y-60960000D01*
X124810000Y-60960000D02*
X112704700Y-60960000D01*
X112704700Y-60960000D02*
X110340100Y-58595400D01*
X86360000Y-73515300D02*
X86538200Y-73515300D01*
X86538200Y-73515300D02*
X96984000Y-83961100D01*
X96984000Y-83961100D02*
X96984000Y-131583200D01*
X96984000Y-131583200D02*
X96597400Y-131969800D01*
X96597400Y-131969800D02*
X96597400Y-137047900D01*
X96597400Y-137047900D02*
X104625200Y-145075700D01*
X104625200Y-145075700D02*
X104625200Y-146217300D01*
X104625200Y-146217300D02*
X104709000Y-146301100D01*
X104709000Y-146301100D02*
X104709000Y-159674200D01*
X104709000Y-159674200D02*
X102914500Y-161468700D01*
X102914500Y-161468700D02*
X102914500Y-208670800D01*
X102914500Y-208670800D02*
X101631300Y-209954000D01*
X101631300Y-209954000D02*
X96461900Y-209954000D01*
X96461900Y-209954000D02*
X95155300Y-208647400D01*
X95155300Y-208647400D02*
X95155300Y-208280000D01*
X86360000Y-72390000D02*
X86360000Y-73515300D01*
X93980000Y-208280000D02*
X95155300Y-208280000D01*
X63500000Y-116277300D02*
X62356400Y-115133700D01*
X62356400Y-115133700D02*
X62356400Y-102389400D01*
X62356400Y-102389400D02*
X63145800Y-101600000D01*
X63145800Y-101600000D02*
X63892900Y-101600000D01*
X63892900Y-101600000D02*
X66362800Y-99130100D01*
X66362800Y-99130100D02*
X66362800Y-88250400D01*
X66362800Y-88250400D02*
X78325600Y-76287600D01*
X78325600Y-76287600D02*
X79053800Y-76287600D01*
X79053800Y-76287600D02*
X80315700Y-75025700D01*
X80315700Y-75025700D02*
X80315700Y-73354300D01*
X80315700Y-73354300D02*
X86360000Y-67310000D01*
X93980000Y-206915300D02*
X93612600Y-206915300D01*
X93612600Y-206915300D02*
X92804700Y-207723200D01*
X92804700Y-207723200D02*
X92804700Y-208602000D01*
X92804700Y-208602000D02*
X91910300Y-209496400D01*
X91910300Y-209496400D02*
X88423100Y-209496400D01*
X88423100Y-209496400D02*
X87630000Y-208703300D01*
X87630000Y-208703300D02*
X87630000Y-204150500D01*
X87630000Y-204150500D02*
X80452500Y-196973000D01*
X80452500Y-196973000D02*
X80452500Y-184830100D01*
X80452500Y-184830100D02*
X80002200Y-184379800D01*
X80002200Y-184379800D02*
X80002200Y-180076200D01*
X80002200Y-180076200D02*
X74319100Y-174393100D01*
X74319100Y-174393100D02*
X74319100Y-166644500D01*
X74319100Y-166644500D02*
X71504600Y-163830000D01*
X71504600Y-163830000D02*
X70763700Y-163830000D01*
X70763700Y-163830000D02*
X68373000Y-161439300D01*
X68373000Y-161439300D02*
X68373000Y-121150300D01*
X68373000Y-121150300D02*
X63500000Y-116277300D01*
X93980000Y-205740000D02*
X93980000Y-206915300D01*
X63500000Y-116840000D02*
X63500000Y-116277300D01*
X101600000Y-74930000D02*
X101600000Y-76055300D01*
X104128000Y-81519100D02*
X104128000Y-78302000D01*
X104128000Y-78302000D02*
X101881300Y-76055300D01*
X101881300Y-76055300D02*
X101600000Y-76055300D01*
X101600000Y-166225300D02*
X101381200Y-166225300D01*
X101381200Y-166225300D02*
X100473400Y-167133100D01*
X100473400Y-167133100D02*
X100473400Y-203286300D01*
X100473400Y-203286300D02*
X100790600Y-203603500D01*
X110345300Y-127000000D02*
X110345300Y-135086200D01*
X110345300Y-135086200D02*
X108364800Y-137066700D01*
X108364800Y-137066700D02*
X108364800Y-165100000D01*
X110345300Y-127000000D02*
X116012800Y-121332500D01*
X116012800Y-121332500D02*
X116012800Y-90186800D01*
X116012800Y-90186800D02*
X109501300Y-83675300D01*
X109501300Y-83675300D02*
X109220000Y-83675300D01*
X109220000Y-127000000D02*
X110345300Y-127000000D01*
X109220000Y-82550000D02*
X109220000Y-83675300D01*
X101600000Y-165100000D02*
X101600000Y-166225300D01*
X96520000Y-204564700D02*
X96519900Y-204564700D01*
X96519900Y-204564700D02*
X96519900Y-186340700D01*
X96519900Y-186340700D02*
X91020000Y-180840800D01*
X91020000Y-180840800D02*
X91020000Y-152494900D01*
X91020000Y-152494900D02*
X90592900Y-152067800D01*
X90592900Y-152067800D02*
X90592800Y-152067800D01*
X90592800Y-152067800D02*
X90592800Y-146129300D01*
X90592800Y-146129300D02*
X89554200Y-145090700D01*
X89554200Y-145090700D02*
X89333000Y-145090700D01*
X89333000Y-145090700D02*
X84753400Y-140511100D01*
X84753400Y-140511100D02*
X84753400Y-128606600D01*
X84753400Y-128606600D02*
X86360000Y-127000000D01*
X109220000Y-85090000D02*
X109220000Y-86215300D01*
X109220000Y-129540000D02*
X109220000Y-128414700D01*
X109220000Y-128414700D02*
X108938700Y-128414700D01*
X108938700Y-128414700D02*
X108063200Y-127539200D01*
X108063200Y-127539200D02*
X108063200Y-126563600D01*
X108063200Y-126563600D02*
X108896800Y-125730000D01*
X108896800Y-125730000D02*
X109621100Y-125730000D01*
X109621100Y-125730000D02*
X115562400Y-119788700D01*
X115562400Y-119788700D02*
X115562400Y-92276400D01*
X115562400Y-92276400D02*
X109501300Y-86215300D01*
X109501300Y-86215300D02*
X109220000Y-86215300D01*
X101600000Y-77470000D02*
X101600000Y-78595300D01*
X104050600Y-83200800D02*
X103347800Y-82498000D01*
X103347800Y-82498000D02*
X103347800Y-80061800D01*
X103347800Y-80061800D02*
X101881300Y-78595300D01*
X101881300Y-78595300D02*
X101600000Y-78595300D01*
X96520000Y-205740000D02*
X96520000Y-204564700D01*
X79865300Y-80010000D02*
X81002900Y-78872400D01*
X81002900Y-78872400D02*
X90519100Y-78872400D01*
X90519100Y-78872400D02*
X94447500Y-82800800D01*
X94447500Y-82800800D02*
X94447500Y-84577900D01*
X94447500Y-84577900D02*
X94447600Y-84577900D01*
X86360000Y-130954700D02*
X86591300Y-130954700D01*
X86591300Y-130954700D02*
X91732400Y-125813600D01*
X91732400Y-125813600D02*
X91732400Y-113051100D01*
X91732400Y-113051100D02*
X94447600Y-110335900D01*
X94447600Y-110335900D02*
X94447600Y-84577900D01*
X99060000Y-207104700D02*
X98692600Y-207104700D01*
X98692600Y-207104700D02*
X97884700Y-206296800D01*
X97884700Y-206296800D02*
X97884700Y-177577100D01*
X97884700Y-177577100D02*
X91470300Y-171162700D01*
X91470300Y-171162700D02*
X91470300Y-146369900D01*
X91470300Y-146369900D02*
X89740800Y-144640400D01*
X89740800Y-144640400D02*
X89519700Y-144640400D01*
X89519700Y-144640400D02*
X85234700Y-140355400D01*
X85234700Y-140355400D02*
X85234700Y-134049200D01*
X85234700Y-134049200D02*
X86078600Y-133205300D01*
X86078600Y-133205300D02*
X86360000Y-133205300D01*
X78740000Y-80010000D02*
X79865300Y-80010000D01*
X86360000Y-132080000D02*
X86360000Y-133205300D01*
X99060000Y-208280000D02*
X99060000Y-207104700D01*
X86360000Y-132080000D02*
X86360000Y-130954700D01*
X101600000Y-81135300D02*
X101792800Y-81135300D01*
X101792800Y-81135300D02*
X102725300Y-82067800D01*
X102725300Y-82067800D02*
X102725300Y-84059300D01*
X101600000Y-80010000D02*
X101600000Y-81135300D01*
X99060000Y-204564700D02*
X99060000Y-176158900D01*
X99060000Y-176158900D02*
X92370900Y-169469800D01*
X92370900Y-169469800D02*
X92370900Y-144091700D01*
X92370900Y-144091700D02*
X86564500Y-138285300D01*
X86564500Y-138285300D02*
X86360000Y-138285300D01*
X124460000Y-133494700D02*
X124652400Y-133494700D01*
X124652400Y-133494700D02*
X129680100Y-128467000D01*
X129680100Y-128467000D02*
X129680100Y-96515400D01*
X129680100Y-96515400D02*
X124460000Y-91295300D01*
X124460000Y-90170000D02*
X124460000Y-91295300D01*
X124460000Y-134620000D02*
X124460000Y-133494700D01*
X86360000Y-137160000D02*
X86360000Y-138285300D01*
X99060000Y-205740000D02*
X99060000Y-204564700D01*
X124460000Y-130954700D02*
X124741300Y-130954700D01*
X124741300Y-130954700D02*
X129229800Y-126466200D01*
X129229800Y-126466200D02*
X129229800Y-97115400D01*
X129229800Y-97115400D02*
X123334700Y-91220300D01*
X123334700Y-91220300D02*
X123334700Y-89687800D01*
X123334700Y-89687800D02*
X124267200Y-88755300D01*
X124267200Y-88755300D02*
X124460000Y-88755300D01*
X78740000Y-138285300D02*
X78932800Y-138285300D01*
X78932800Y-138285300D02*
X80367000Y-139719500D01*
X80367000Y-139719500D02*
X80367000Y-143411900D01*
X80367000Y-143411900D02*
X81905300Y-144950200D01*
X81905300Y-144950200D02*
X81905300Y-148989000D01*
X81905300Y-148989000D02*
X84263600Y-151347300D01*
X84263600Y-151347300D02*
X84263600Y-188378000D01*
X84263600Y-188378000D02*
X95250000Y-199364400D01*
X95250000Y-199364400D02*
X95250000Y-206171000D01*
X95250000Y-206171000D02*
X95994400Y-206915400D01*
X95994400Y-206915400D02*
X96856400Y-206915400D01*
X96856400Y-206915400D02*
X97695400Y-207754400D01*
X97695400Y-207754400D02*
X97695400Y-208588100D01*
X97695400Y-208588100D02*
X98601000Y-209493700D01*
X98601000Y-209493700D02*
X99578300Y-209493700D01*
X99578300Y-209493700D02*
X100424700Y-208647300D01*
X100424700Y-208647300D02*
X100424700Y-208280000D01*
X78740000Y-137160000D02*
X78740000Y-138285300D01*
X101600000Y-208280000D02*
X100424700Y-208280000D01*
X124460000Y-132080000D02*
X124460000Y-130954700D01*
X124460000Y-87630000D02*
X124460000Y-88755300D01*
X124460000Y-128414700D02*
X124741300Y-128414700D01*
X124741300Y-128414700D02*
X128779500Y-124376500D01*
X128779500Y-124376500D02*
X128779500Y-97515000D01*
X128779500Y-97515000D02*
X122881200Y-91616700D01*
X122881200Y-91616700D02*
X122881200Y-87512800D01*
X122881200Y-87512800D02*
X124178700Y-86215300D01*
X124178700Y-86215300D02*
X124460000Y-86215300D01*
X97362000Y-140323200D02*
X102777500Y-145738700D01*
X102777500Y-145738700D02*
X102777500Y-157912600D01*
X102777500Y-157912600D02*
X101940100Y-158750000D01*
X101940100Y-158750000D02*
X101201100Y-158750000D01*
X101201100Y-158750000D02*
X100004400Y-159946700D01*
X100004400Y-159946700D02*
X100004400Y-203843000D01*
X100004400Y-203843000D02*
X100726100Y-204564700D01*
X100726100Y-204564700D02*
X101600000Y-204564700D01*
X101600000Y-205740000D02*
X101600000Y-204564700D01*
X124460000Y-85090000D02*
X124460000Y-86215300D01*
X124460000Y-129540000D02*
X124460000Y-128414700D01*
X124460000Y-82550000D02*
X124460000Y-83675300D01*
X124460000Y-83675300D02*
X124178700Y-83675300D01*
X124178700Y-83675300D02*
X122430900Y-85423100D01*
X122430900Y-85423100D02*
X122430900Y-91840300D01*
X122430900Y-91840300D02*
X128329100Y-97738500D01*
X128329100Y-97738500D02*
X128329100Y-123130900D01*
X128329100Y-123130900D02*
X124460000Y-127000000D01*
X104140000Y-207104700D02*
X104948000Y-207104700D01*
X104948000Y-207104700D02*
X118271100Y-193781600D01*
X118271100Y-193781600D02*
X118271100Y-168568800D01*
X118271100Y-168568800D02*
X122856200Y-163983700D01*
X122856200Y-163983700D02*
X122856200Y-128603800D01*
X122856200Y-128603800D02*
X124460000Y-127000000D01*
X104140000Y-208280000D02*
X104140000Y-207104700D01*
X124460000Y-81135300D02*
X124178700Y-81135300D01*
X124178700Y-81135300D02*
X121980500Y-83333500D01*
X121980500Y-83333500D02*
X121980500Y-92063900D01*
X121980500Y-92063900D02*
X127869100Y-97952500D01*
X127869100Y-97952500D02*
X127869100Y-120206900D01*
X127869100Y-120206900D02*
X124741300Y-123334700D01*
X124741300Y-123334700D02*
X124460000Y-123334700D01*
X82828500Y-108501400D02*
X81959900Y-109370000D01*
X81959900Y-109370000D02*
X81959900Y-111524100D01*
X81959900Y-111524100D02*
X80374300Y-113109700D01*
X80374300Y-113109700D02*
X79973500Y-113109700D01*
X79973500Y-113109700D02*
X77569100Y-115514100D01*
X77569100Y-115514100D02*
X77569100Y-120749100D01*
X77569100Y-120749100D02*
X78740000Y-121920000D01*
X124460000Y-124460000D02*
X124460000Y-125585300D01*
X124460000Y-80010000D02*
X124460000Y-81135300D01*
X124460000Y-124460000D02*
X124460000Y-123334700D01*
X105315300Y-205740000D02*
X116731300Y-194324000D01*
X116731300Y-194324000D02*
X116731300Y-168880200D01*
X116731300Y-168880200D02*
X122405800Y-163205700D01*
X122405800Y-163205700D02*
X122405800Y-127358200D01*
X122405800Y-127358200D02*
X124178700Y-125585300D01*
X124178700Y-125585300D02*
X124460000Y-125585300D01*
X104140000Y-205740000D02*
X105315300Y-205740000D01*
X53340000Y-38100000D02*
X53340000Y-39275300D01*
X40640000Y-59690000D02*
X40640000Y-58564700D01*
X40640000Y-58564700D02*
X41343300Y-58564700D01*
X41343300Y-58564700D02*
X46925400Y-52982600D01*
X46925400Y-52982600D02*
X46925400Y-45689900D01*
X46925400Y-45689900D02*
X53340000Y-39275300D01*
X57150000Y-30480000D02*
X57150000Y-31655300D01*
X50800000Y-38100000D02*
X50800000Y-36924700D01*
X57150000Y-31655300D02*
X56069400Y-31655300D01*
X56069400Y-31655300D02*
X50800000Y-36924700D01*
X120650000Y-156454700D02*
X120650000Y-151130000D01*
X120650000Y-151130000D02*
X114300000Y-144780000D01*
X120650000Y-157480000D02*
X120650000Y-156454700D01*
X113030000Y-162560000D02*
X112001400Y-161531400D01*
X112001400Y-161531400D02*
X112001400Y-145555300D01*
X112001400Y-145555300D02*
X113853200Y-143703500D01*
X113853200Y-143703500D02*
X118123500Y-143703500D01*
X118123500Y-143703500D02*
X119200000Y-144780000D01*
X71120000Y-124460000D02*
X71120000Y-123334700D01*
X78740000Y-100330000D02*
X72785800Y-106284200D01*
X72785800Y-106284200D02*
X72785800Y-121950200D01*
X72785800Y-121950200D02*
X71401300Y-123334700D01*
X71401300Y-123334700D02*
X71120000Y-123334700D01*
X40640000Y-78595300D02*
X40921300Y-78595300D01*
X40921300Y-78595300D02*
X53995700Y-91669700D01*
X53995700Y-91669700D02*
X53995700Y-119399400D01*
X40640000Y-77470000D02*
X40640000Y-78595300D01*
X140970000Y-65895300D02*
X141251300Y-65895300D01*
X141251300Y-65895300D02*
X142569400Y-67213400D01*
X142569400Y-67213400D02*
X142569400Y-107987400D01*
X142569400Y-107987400D02*
X139362200Y-111194600D01*
X139362200Y-111194600D02*
X139362200Y-119324600D01*
X139362200Y-119324600D02*
X140687600Y-120650000D01*
X140687600Y-120650000D02*
X141281700Y-120650000D01*
X141281700Y-120650000D02*
X142079900Y-121448200D01*
X142079900Y-121448200D02*
X142079900Y-129950900D01*
X142079900Y-129950900D02*
X129643600Y-142387200D01*
X129643600Y-142387200D02*
X129643500Y-142387200D01*
X129643500Y-142387200D02*
X129643500Y-159560600D01*
X140970000Y-64770000D02*
X140970000Y-65895300D01*
X182880000Y-64770000D02*
X181754700Y-64770000D01*
X168910000Y-64770000D02*
X170035300Y-64770000D01*
X170035300Y-64770000D02*
X171160600Y-63644700D01*
X171160600Y-63644700D02*
X180629400Y-63644700D01*
X180629400Y-63644700D02*
X181754700Y-64770000D01*
X147320000Y-59690000D02*
X146194700Y-59690000D01*
X133350000Y-59690000D02*
X134475300Y-59690000D01*
X134475300Y-59690000D02*
X135600600Y-58564700D01*
X135600600Y-58564700D02*
X145069400Y-58564700D01*
X145069400Y-58564700D02*
X146194700Y-59690000D01*
X101600000Y-127000000D02*
X101600000Y-125874700D01*
X101600000Y-125874700D02*
X101881300Y-125874700D01*
X101881300Y-125874700D02*
X104472100Y-123283900D01*
X104472100Y-123283900D02*
X104472100Y-108616000D01*
X104472100Y-108616000D02*
X106632100Y-106456000D01*
X101600000Y-121920000D02*
X101600000Y-120794700D01*
X101600000Y-120794700D02*
X101881300Y-120794700D01*
X101881300Y-120794700D02*
X103474900Y-119201100D01*
X103474900Y-119201100D02*
X103474900Y-85686600D01*
X103474900Y-85686600D02*
X104855200Y-84306300D01*
X104855200Y-84306300D02*
X104855200Y-69591600D01*
X104855200Y-69591600D02*
X106322500Y-68124300D01*
X175260000Y-57150000D02*
X174134700Y-57150000D01*
X161290000Y-57150000D02*
X162415300Y-57150000D01*
X162415300Y-57150000D02*
X163540600Y-58275300D01*
X163540600Y-58275300D02*
X173009400Y-58275300D01*
X173009400Y-58275300D02*
X174134700Y-57150000D01*
X154940000Y-62230000D02*
X153814700Y-62230000D01*
X153814700Y-62230000D02*
X152689400Y-63355300D01*
X152689400Y-63355300D02*
X147133400Y-63355300D01*
X147133400Y-63355300D02*
X145271400Y-65217300D01*
X145271400Y-65217300D02*
X145271400Y-116341800D01*
X145271400Y-116341800D02*
X147039600Y-118110000D01*
X147039600Y-118110000D02*
X147632800Y-118110000D01*
X147632800Y-118110000D02*
X148429100Y-118906300D01*
X148429100Y-118906300D02*
X148429100Y-119802000D01*
X148429100Y-119802000D02*
X147581100Y-120650000D01*
X147581100Y-120650000D02*
X146996400Y-120650000D01*
X146996400Y-120650000D02*
X144234800Y-123411600D01*
X144234800Y-123411600D02*
X144234800Y-129807900D01*
X144234800Y-129807900D02*
X141607300Y-132435400D01*
X168910000Y-62230000D02*
X168910000Y-63355300D01*
X168910000Y-63355300D02*
X168628700Y-63355300D01*
X168628700Y-63355300D02*
X167434300Y-64549700D01*
X167434300Y-64549700D02*
X167434300Y-104533600D01*
X167434300Y-104533600D02*
X169942900Y-107042200D01*
X169942900Y-107042200D02*
X169942900Y-109720900D01*
X169942900Y-109720900D02*
X167490400Y-112173400D01*
X86360000Y-119380000D02*
X85234700Y-119380000D01*
X79865300Y-116840000D02*
X82405300Y-119380000D01*
X82405300Y-119380000D02*
X85234700Y-119380000D01*
X78740000Y-116840000D02*
X79865300Y-116840000D01*
X124460000Y-104140000D02*
X116643200Y-111956800D01*
X116643200Y-111956800D02*
X116643200Y-136573800D01*
X116643200Y-136573800D02*
X109489900Y-143727100D01*
X124460000Y-73515300D02*
X124256600Y-73515300D01*
X124256600Y-73515300D02*
X121079900Y-76692000D01*
X121079900Y-76692000D02*
X121079900Y-93060500D01*
X121079900Y-93060500D02*
X126965100Y-98945700D01*
X126965100Y-98945700D02*
X126965100Y-113491000D01*
X126965100Y-113491000D02*
X124741400Y-115714700D01*
X124741400Y-115714700D02*
X124460000Y-115714700D01*
X124460000Y-72390000D02*
X124460000Y-73515300D01*
X124460000Y-116840000D02*
X124460000Y-115714700D01*
X110605000Y-144311700D02*
X121955400Y-132961300D01*
X121955400Y-132961300D02*
X121955400Y-119344600D01*
X121955400Y-119344600D02*
X124460000Y-116840000D01*
X71120000Y-119380000D02*
X72285600Y-118214400D01*
X72285600Y-118214400D02*
X72285600Y-102601100D01*
X72285600Y-102601100D02*
X78314700Y-96572000D01*
X78314700Y-96572000D02*
X79036300Y-96572000D01*
X79036300Y-96572000D02*
X80375400Y-95232900D01*
X80375400Y-95232900D02*
X80375400Y-86930700D01*
X80375400Y-86930700D02*
X86026100Y-81280000D01*
X86026100Y-81280000D02*
X87537100Y-81280000D01*
X87537100Y-81280000D02*
X89405200Y-79411900D01*
X89405200Y-79411900D02*
X90324500Y-79411900D01*
X90324500Y-79411900D02*
X92466400Y-81553800D01*
X92466400Y-81553800D02*
X92466400Y-81845600D01*
X71120000Y-162560000D02*
X71120000Y-161434700D01*
X71120000Y-132080000D02*
X71120000Y-133205300D01*
X71120000Y-133205300D02*
X71401300Y-133205300D01*
X71401300Y-133205300D02*
X72248400Y-134052400D01*
X72248400Y-134052400D02*
X72248400Y-152877600D01*
X72248400Y-152877600D02*
X71456000Y-153670000D01*
X71456000Y-153670000D02*
X70788500Y-153670000D01*
X70788500Y-153670000D02*
X69994700Y-154463800D01*
X69994700Y-154463800D02*
X69994700Y-160590800D01*
X69994700Y-160590800D02*
X70838600Y-161434700D01*
X70838600Y-161434700D02*
X71120000Y-161434700D01*
X156232500Y-153797500D02*
X157630000Y-152400000D01*
X156232500Y-163804600D02*
X156232500Y-153797500D01*
X156232500Y-153797500D02*
X152527500Y-153797500D01*
X152527500Y-153797500D02*
X151130000Y-152400000D01*
X151130000Y-152400000D02*
X149795700Y-151065700D01*
X149795700Y-151065700D02*
X149795700Y-141034300D01*
X149795700Y-141034300D02*
X151130000Y-139700000D01*
X157630000Y-165100000D02*
X156334600Y-163804600D01*
X156334600Y-163804600D02*
X156232500Y-163804600D01*
X156232500Y-163804600D02*
X154937100Y-165100000D01*
X154937100Y-165100000D02*
X151130000Y-165100000D01*
X151130000Y-190500000D02*
X157630000Y-190500000D01*
X157630000Y-190500000D02*
X158970700Y-191840700D01*
X158970700Y-191840700D02*
X158970700Y-202829300D01*
X158970700Y-202829300D02*
X158600000Y-203200000D01*
X158970700Y-202829300D02*
X164729300Y-202829300D01*
X164729300Y-202829300D02*
X165100000Y-203200000D01*
X157630000Y-177800000D02*
X158962100Y-179132100D01*
X158962100Y-179132100D02*
X158962100Y-189167900D01*
X158962100Y-189167900D02*
X157630000Y-190500000D01*
X175410000Y-177800000D02*
X171560800Y-177800000D01*
X171560800Y-177800000D02*
X170235400Y-176474600D01*
X175410000Y-190500000D02*
X176735400Y-189174600D01*
X176735400Y-189174600D02*
X176735400Y-179125400D01*
X176735400Y-179125400D02*
X175410000Y-177800000D01*
X170235400Y-176474600D02*
X170235400Y-166425400D01*
X168910000Y-177800000D02*
X170235400Y-176474600D01*
X170256400Y-141046400D02*
X168910000Y-139700000D01*
X170256400Y-151053600D02*
X170256400Y-141046400D01*
X170256400Y-141046400D02*
X174063600Y-141046400D01*
X174063600Y-141046400D02*
X175410000Y-139700000D01*
X170256400Y-151053600D02*
X174063600Y-151053600D01*
X174063600Y-151053600D02*
X175410000Y-152400000D01*
X168910000Y-152400000D02*
X170256400Y-151053600D01*
X170235400Y-166425400D02*
X168910000Y-165100000D01*
X170235400Y-166425400D02*
X174084600Y-166425400D01*
X174084600Y-166425400D02*
X175410000Y-165100000D01*
X175410000Y-165100000D02*
X176735400Y-163774600D01*
X176735400Y-163774600D02*
X176735400Y-153725400D01*
X176735400Y-153725400D02*
X175410000Y-152400000D01*
X191818900Y-151028900D02*
X193190000Y-152400000D01*
X191818900Y-140385600D02*
X191818900Y-151028900D01*
X188056300Y-153766300D02*
X189081500Y-153766300D01*
X189081500Y-153766300D02*
X191818900Y-151028900D01*
X188056300Y-153766300D02*
X186690000Y-152400000D01*
X188056300Y-163733700D02*
X188056300Y-153766300D01*
X186690000Y-139700000D02*
X191133300Y-139700000D01*
X191133300Y-139700000D02*
X191818900Y-140385600D01*
X191818900Y-140385600D02*
X192504400Y-140385600D01*
X192504400Y-140385600D02*
X193190000Y-139700000D01*
X188056300Y-163733700D02*
X186690000Y-165100000D01*
X193190000Y-165100000D02*
X191823700Y-163733700D01*
X191823700Y-163733700D02*
X188056300Y-163733700D01*
X193190000Y-177800000D02*
X189340800Y-177800000D01*
X189340800Y-177800000D02*
X188015400Y-176474600D01*
X193190000Y-190500000D02*
X194515400Y-189174600D01*
X194515400Y-189174600D02*
X194515400Y-179125400D01*
X194515400Y-179125400D02*
X193190000Y-177800000D01*
X188015400Y-176474600D02*
X188015400Y-166425400D01*
X188015400Y-166425400D02*
X186690000Y-165100000D01*
X186690000Y-177800000D02*
X188015400Y-176474600D01*
X63500000Y-38100000D02*
X63500000Y-36924700D01*
X59690000Y-30480000D02*
X59690000Y-33114700D01*
X59690000Y-33114700D02*
X63500000Y-36924700D01*
X143019800Y-60815300D02*
X143019800Y-108570900D01*
X143019800Y-108570900D02*
X139867300Y-111723400D01*
X139867300Y-111723400D02*
X139867300Y-114749500D01*
X139867300Y-114749500D02*
X140687800Y-115570000D01*
X140687800Y-115570000D02*
X141281800Y-115570000D01*
X141281800Y-115570000D02*
X142548400Y-116836600D01*
X142548400Y-116836600D02*
X142548400Y-130468600D01*
X142548400Y-130468600D02*
X137160000Y-135857000D01*
X137160000Y-135857000D02*
X137160000Y-140970000D01*
X142095300Y-59690000D02*
X143019800Y-60614500D01*
X143019800Y-60614500D02*
X143019800Y-60815300D01*
X143019800Y-60815300D02*
X152689400Y-60815300D01*
X152689400Y-60815300D02*
X153814700Y-59690000D01*
X154940000Y-59690000D02*
X153814700Y-59690000D01*
X140970000Y-59690000D02*
X142095300Y-59690000D01*
D29*
X203200000Y-35560000D02*
X203200000Y-30480000D01*
D30*
X140970000Y-107950000D02*
X140970000Y-106924700D01*
X133350000Y-64770000D02*
X133350000Y-65895300D01*
X133350000Y-65895300D02*
X133631300Y-65895300D01*
X133631300Y-65895300D02*
X139269200Y-71533200D01*
X139269200Y-71533200D02*
X139269200Y-92459200D01*
X139269200Y-92459200D02*
X141995300Y-95185300D01*
X141995300Y-95185300D02*
X141995300Y-105899400D01*
X141995300Y-105899400D02*
X140970000Y-106924700D01*
X140970000Y-104140000D02*
X140970000Y-103114700D01*
X133350000Y-67310000D02*
X133350000Y-68435300D01*
X133350000Y-68435300D02*
X133631300Y-68435300D01*
X133631300Y-68435300D02*
X138595200Y-73399200D01*
X138595200Y-73399200D02*
X138595200Y-100739900D01*
X138595200Y-100739900D02*
X140970000Y-103114700D01*
X133350000Y-116840000D02*
X132269300Y-115759300D01*
X132269300Y-115759300D02*
X132269300Y-105220700D01*
X132269300Y-105220700D02*
X133350000Y-104140000D01*
X133350000Y-129540000D02*
X131814800Y-128004800D01*
X131814800Y-128004800D02*
X131814800Y-101865200D01*
X131814800Y-101865200D02*
X133350000Y-100330000D01*
X140970000Y-129540000D02*
X135289100Y-123859100D01*
X135289100Y-123859100D02*
X135289100Y-98459100D01*
X135289100Y-98459100D02*
X133350000Y-96520000D01*
X140970000Y-92710000D02*
X140970000Y-91684700D01*
X140970000Y-74930000D02*
X140970000Y-76055300D01*
X140970000Y-76055300D02*
X139944700Y-77080600D01*
X139944700Y-77080600D02*
X139944700Y-90659400D01*
X139944700Y-90659400D02*
X140970000Y-91684700D01*
X140970000Y-88900000D02*
X140970000Y-87874700D01*
X140970000Y-72390000D02*
X140970000Y-73515300D01*
X140970000Y-73515300D02*
X141251300Y-73515300D01*
X141251300Y-73515300D02*
X142104400Y-74368400D01*
X142104400Y-74368400D02*
X142104400Y-86740300D01*
X142104400Y-86740300D02*
X140970000Y-87874700D01*
X133350000Y-114300000D02*
X133350000Y-113224700D01*
X133350000Y-113224700D02*
X134396700Y-112178000D01*
X134396700Y-112178000D02*
X134396700Y-99166800D01*
X134396700Y-99166800D02*
X132319800Y-97089900D01*
X132319800Y-97089900D02*
X132319800Y-86120200D01*
X132319800Y-86120200D02*
X133350000Y-85090000D01*
X140970000Y-127000000D02*
X137069600Y-123099600D01*
X137069600Y-123099600D02*
X137069600Y-84999600D01*
X137069600Y-84999600D02*
X133350000Y-81280000D01*
X154940000Y-106924700D02*
X152672900Y-104657600D01*
X152672900Y-104657600D02*
X152672900Y-83040000D01*
X152672900Y-83040000D02*
X145730600Y-76097700D01*
X145730600Y-76097700D02*
X145730600Y-67203400D01*
X145730600Y-67203400D02*
X147038700Y-65895300D01*
X147038700Y-65895300D02*
X147320000Y-65895300D01*
X154940000Y-107950000D02*
X154940000Y-106924700D01*
X147320000Y-64770000D02*
X147320000Y-65895300D01*
X147320000Y-116840000D02*
X148399300Y-115760700D01*
X148399300Y-115760700D02*
X148399300Y-105219300D01*
X148399300Y-105219300D02*
X147320000Y-104140000D01*
X154940000Y-100330000D02*
X154940000Y-99304700D01*
X147320000Y-69850000D02*
X147320000Y-70975300D01*
X147320000Y-70975300D02*
X147058300Y-70975300D01*
X147058300Y-70975300D02*
X146180900Y-71852700D01*
X146180900Y-71852700D02*
X146180900Y-75592900D01*
X146180900Y-75592900D02*
X153359700Y-82771700D01*
X153359700Y-82771700D02*
X153359700Y-97724400D01*
X153359700Y-97724400D02*
X154940000Y-99304700D01*
X147320000Y-100330000D02*
X148879500Y-101889500D01*
X148879500Y-101889500D02*
X148879500Y-127980500D01*
X148879500Y-127980500D02*
X147320000Y-129540000D01*
X147320000Y-96520000D02*
X149498200Y-98698200D01*
X149498200Y-98698200D02*
X149498200Y-124098200D01*
X149498200Y-124098200D02*
X154940000Y-129540000D01*
X154940000Y-92710000D02*
X154940000Y-91684700D01*
X154940000Y-74930000D02*
X154940000Y-76055300D01*
X154940000Y-76055300D02*
X153914700Y-77080600D01*
X153914700Y-77080600D02*
X153914700Y-90659400D01*
X153914700Y-90659400D02*
X154940000Y-91684700D01*
X147320000Y-92710000D02*
X149948500Y-95338500D01*
X149948500Y-95338500D02*
X149948500Y-119468500D01*
X149948500Y-119468500D02*
X154940000Y-124460000D01*
X154940000Y-88900000D02*
X154940000Y-87874700D01*
X154940000Y-72390000D02*
X154940000Y-73515300D01*
X154940000Y-73515300D02*
X155221300Y-73515300D01*
X155221300Y-73515300D02*
X156078200Y-74372200D01*
X156078200Y-74372200D02*
X156078200Y-86736500D01*
X156078200Y-86736500D02*
X154940000Y-87874700D01*
X154940000Y-116840000D02*
X151058600Y-112958600D01*
X151058600Y-112958600D02*
X151058600Y-92638600D01*
X151058600Y-92638600D02*
X147320000Y-88900000D01*
X147320000Y-113224700D02*
X146291700Y-112196400D01*
X146291700Y-112196400D02*
X146291700Y-86118300D01*
X146291700Y-86118300D02*
X147320000Y-85090000D01*
X147320000Y-114300000D02*
X147320000Y-113224700D01*
X154940000Y-127000000D02*
X156047000Y-125893000D01*
X156047000Y-125893000D02*
X156047000Y-116396600D01*
X156047000Y-116396600D02*
X155220400Y-115570000D01*
X155220400Y-115570000D02*
X154649500Y-115570000D01*
X154649500Y-115570000D02*
X151807700Y-112728200D01*
X151807700Y-112728200D02*
X151807700Y-85767700D01*
X151807700Y-85767700D02*
X147320000Y-81280000D01*
X168910000Y-106924700D02*
X165768500Y-103783200D01*
X165768500Y-103783200D02*
X165768500Y-70196800D01*
X165768500Y-70196800D02*
X161467000Y-65895300D01*
X161467000Y-65895300D02*
X161290000Y-65895300D01*
X168910000Y-107950000D02*
X168910000Y-106924700D01*
X161290000Y-64770000D02*
X161290000Y-65895300D01*
X161290000Y-116840000D02*
X162389900Y-115740100D01*
X162389900Y-115740100D02*
X162389900Y-105239900D01*
X162389900Y-105239900D02*
X161290000Y-104140000D01*
X161290000Y-129540000D02*
X162840300Y-127989700D01*
X162840300Y-127989700D02*
X162840300Y-101880300D01*
X162840300Y-101880300D02*
X161290000Y-100330000D01*
X168910000Y-129540000D02*
X163422800Y-124052800D01*
X163422800Y-124052800D02*
X163422800Y-98652800D01*
X163422800Y-98652800D02*
X161290000Y-96520000D01*
X168910000Y-91684700D02*
X167884700Y-90659400D01*
X167884700Y-90659400D02*
X167884700Y-77080600D01*
X167884700Y-77080600D02*
X168910000Y-76055300D01*
X168910000Y-92710000D02*
X168910000Y-91684700D01*
X168910000Y-74930000D02*
X168910000Y-76055300D01*
X168910000Y-124460000D02*
X163873200Y-119423200D01*
X163873200Y-119423200D02*
X163873200Y-95293200D01*
X163873200Y-95293200D02*
X161290000Y-92710000D01*
X168910000Y-88900000D02*
X168910000Y-87874700D01*
X168910000Y-72390000D02*
X168910000Y-73515300D01*
X168910000Y-73515300D02*
X169191300Y-73515300D01*
X169191300Y-73515300D02*
X170048200Y-74372200D01*
X170048200Y-74372200D02*
X170048200Y-86736500D01*
X170048200Y-86736500D02*
X168910000Y-87874700D01*
X168910000Y-116840000D02*
X164337400Y-112267400D01*
X164337400Y-112267400D02*
X164337400Y-91947400D01*
X164337400Y-91947400D02*
X161290000Y-88900000D01*
X161290000Y-114300000D02*
X161290000Y-113224700D01*
X161290000Y-113224700D02*
X160245800Y-112180500D01*
X160245800Y-112180500D02*
X160245800Y-86134200D01*
X160245800Y-86134200D02*
X161290000Y-85090000D01*
X168910000Y-127000000D02*
X169985400Y-125924600D01*
X169985400Y-125924600D02*
X169985400Y-116365000D01*
X169985400Y-116365000D02*
X169190400Y-115570000D01*
X169190400Y-115570000D02*
X168619500Y-115570000D01*
X168619500Y-115570000D02*
X165205400Y-112155900D01*
X165205400Y-112155900D02*
X165205400Y-85195400D01*
X165205400Y-85195400D02*
X161290000Y-81280000D01*
X182880000Y-107950000D02*
X182880000Y-106924700D01*
X175260000Y-64770000D02*
X175260000Y-65895300D01*
X175260000Y-65895300D02*
X174978700Y-65895300D01*
X174978700Y-65895300D02*
X174117000Y-66757000D01*
X174117000Y-66757000D02*
X174117000Y-76727000D01*
X174117000Y-76727000D02*
X181362200Y-83972200D01*
X181362200Y-83972200D02*
X181362200Y-105406900D01*
X181362200Y-105406900D02*
X182880000Y-106924700D01*
X175260000Y-116840000D02*
X176379800Y-115720200D01*
X176379800Y-115720200D02*
X176379800Y-105259800D01*
X176379800Y-105259800D02*
X175260000Y-104140000D01*
X182880000Y-129540000D02*
X177471500Y-124131500D01*
X177471500Y-124131500D02*
X177471500Y-98731500D01*
X177471500Y-98731500D02*
X175260000Y-96520000D01*
X182880000Y-92710000D02*
X182880000Y-91684700D01*
X182880000Y-74930000D02*
X182880000Y-76055300D01*
X182880000Y-76055300D02*
X181854700Y-77080600D01*
X181854700Y-77080600D02*
X181854700Y-90659400D01*
X181854700Y-90659400D02*
X182880000Y-91684700D01*
X182880000Y-124460000D02*
X178060900Y-119640900D01*
X178060900Y-119640900D02*
X178060900Y-95510900D01*
X178060900Y-95510900D02*
X175260000Y-92710000D01*
X182880000Y-88900000D02*
X182880000Y-87874700D01*
X182880000Y-72390000D02*
X182880000Y-73515300D01*
X182880000Y-73515300D02*
X183161300Y-73515300D01*
X183161300Y-73515300D02*
X184018200Y-74372200D01*
X184018200Y-74372200D02*
X184018200Y-86736500D01*
X184018200Y-86736500D02*
X182880000Y-87874700D01*
X182880000Y-116840000D02*
X178556700Y-112516700D01*
X178556700Y-112516700D02*
X178556700Y-92196700D01*
X178556700Y-92196700D02*
X175260000Y-88900000D01*
X175260000Y-114300000D02*
X175260000Y-113224700D01*
X175260000Y-113224700D02*
X174215800Y-112180500D01*
X174215800Y-112180500D02*
X174215800Y-86134200D01*
X174215800Y-86134200D02*
X175260000Y-85090000D01*
X182880000Y-127000000D02*
X183987000Y-125893000D01*
X183987000Y-125893000D02*
X183987000Y-116396600D01*
X183987000Y-116396600D02*
X183160400Y-115570000D01*
X183160400Y-115570000D02*
X182589500Y-115570000D01*
X182589500Y-115570000D02*
X179870800Y-112851300D01*
X179870800Y-112851300D02*
X179870800Y-85890800D01*
X179870800Y-85890800D02*
X175260000Y-81280000D01*
X196850000Y-107950000D02*
X196850000Y-106924700D01*
X189230000Y-64770000D02*
X189230000Y-65895300D01*
X189230000Y-65895300D02*
X189431800Y-65895300D01*
X189431800Y-65895300D02*
X195315500Y-71779000D01*
X195315500Y-71779000D02*
X195315500Y-96450600D01*
X195315500Y-96450600D02*
X197875300Y-99010400D01*
X197875300Y-99010400D02*
X197875300Y-105899400D01*
X197875300Y-105899400D02*
X196850000Y-106924700D01*
X189230000Y-116840000D02*
X190309300Y-115760700D01*
X190309300Y-115760700D02*
X190309300Y-105219300D01*
X190309300Y-105219300D02*
X189230000Y-104140000D01*
X189230000Y-70975300D02*
X189511300Y-70975300D01*
X189511300Y-70975300D02*
X194785500Y-76249500D01*
X194785500Y-76249500D02*
X194785500Y-97240200D01*
X194785500Y-97240200D02*
X196850000Y-99304700D01*
X196850000Y-100330000D02*
X196850000Y-99304700D01*
X189230000Y-69850000D02*
X189230000Y-70975300D01*
X189230000Y-129540000D02*
X190763200Y-128006800D01*
X190763200Y-128006800D02*
X190763200Y-101863200D01*
X190763200Y-101863200D02*
X189230000Y-100330000D01*
X196850000Y-129540000D02*
X191276700Y-123966700D01*
X191276700Y-123966700D02*
X191276700Y-98566700D01*
X191276700Y-98566700D02*
X189230000Y-96520000D01*
X196850000Y-92710000D02*
X196850000Y-91684700D01*
X196850000Y-74930000D02*
X196850000Y-76055300D01*
X196850000Y-76055300D02*
X195824700Y-77080600D01*
X195824700Y-77080600D02*
X195824700Y-90659400D01*
X195824700Y-90659400D02*
X196850000Y-91684700D01*
X196850000Y-124460000D02*
X191979300Y-119589300D01*
X191979300Y-119589300D02*
X191979300Y-95459300D01*
X191979300Y-95459300D02*
X189230000Y-92710000D01*
X196850000Y-88900000D02*
X196850000Y-87874700D01*
X196850000Y-72390000D02*
X196850000Y-73515300D01*
X196850000Y-73515300D02*
X197131300Y-73515300D01*
X197131300Y-73515300D02*
X197988200Y-74372200D01*
X197988200Y-74372200D02*
X197988200Y-86736500D01*
X197988200Y-86736500D02*
X196850000Y-87874700D01*
X196850000Y-116840000D02*
X192676000Y-112666000D01*
X192676000Y-112666000D02*
X192676000Y-92346000D01*
X192676000Y-92346000D02*
X189230000Y-88900000D01*
X189230000Y-114300000D02*
X189230000Y-113224700D01*
X189230000Y-113224700D02*
X188185800Y-112180500D01*
X188185800Y-112180500D02*
X188185800Y-86134200D01*
X188185800Y-86134200D02*
X189230000Y-85090000D01*
X196850000Y-127000000D02*
X197957000Y-125893000D01*
X197957000Y-125893000D02*
X197957000Y-116396600D01*
X197957000Y-116396600D02*
X197130400Y-115570000D01*
X197130400Y-115570000D02*
X196559500Y-115570000D01*
X196559500Y-115570000D02*
X194064700Y-113075200D01*
X194064700Y-113075200D02*
X194064700Y-86114700D01*
X194064700Y-86114700D02*
X189230000Y-81280000D01*
X210820000Y-107950000D02*
X210820000Y-106924700D01*
X203200000Y-64770000D02*
X204325300Y-64770000D01*
X204325300Y-64770000D02*
X204325300Y-65051300D01*
X204325300Y-65051300D02*
X210394000Y-71120000D01*
X210394000Y-71120000D02*
X211150100Y-71120000D01*
X211150100Y-71120000D02*
X212430100Y-72400000D01*
X212430100Y-72400000D02*
X212430100Y-105314600D01*
X212430100Y-105314600D02*
X210820000Y-106924700D01*
X210820000Y-104140000D02*
X210820000Y-103114700D01*
X203200000Y-67310000D02*
X203200000Y-68435300D01*
X203200000Y-68435300D02*
X203481300Y-68435300D01*
X203481300Y-68435300D02*
X209300800Y-74254800D01*
X209300800Y-74254800D02*
X209300800Y-101595500D01*
X209300800Y-101595500D02*
X210820000Y-103114700D01*
X203200000Y-129540000D02*
X204275400Y-128464600D01*
X204275400Y-128464600D02*
X204275400Y-101405400D01*
X204275400Y-101405400D02*
X203200000Y-100330000D01*
X203200000Y-96520000D02*
X205130000Y-98450000D01*
X205130000Y-98450000D02*
X205130000Y-123850100D01*
X205130000Y-123850100D02*
X205130100Y-123850100D01*
X205130100Y-123850100D02*
X210820000Y-129540000D01*
X210820000Y-92710000D02*
X210820000Y-91684700D01*
X210820000Y-74930000D02*
X210820000Y-76055300D01*
X210820000Y-76055300D02*
X209794700Y-77080600D01*
X209794700Y-77080600D02*
X209794700Y-90659400D01*
X209794700Y-90659400D02*
X210820000Y-91684700D01*
X210820000Y-124460000D02*
X205949300Y-119589300D01*
X205949300Y-119589300D02*
X205949300Y-95459300D01*
X205949300Y-95459300D02*
X203200000Y-92710000D01*
X210820000Y-88900000D02*
X210820000Y-87874700D01*
X210820000Y-72390000D02*
X210820000Y-73515300D01*
X210820000Y-73515300D02*
X211101300Y-73515300D01*
X211101300Y-73515300D02*
X211949100Y-74363100D01*
X211949100Y-74363100D02*
X211949100Y-86745600D01*
X211949100Y-86745600D02*
X210820000Y-87874700D01*
X210820000Y-116840000D02*
X206586200Y-112606200D01*
X206586200Y-112606200D02*
X206586200Y-92286200D01*
X206586200Y-92286200D02*
X203200000Y-88900000D01*
X203200000Y-114300000D02*
X203200000Y-113224700D01*
X203200000Y-113224700D02*
X202155800Y-112180500D01*
X202155800Y-112180500D02*
X202155800Y-86134200D01*
X202155800Y-86134200D02*
X203200000Y-85090000D01*
X203200000Y-81280000D02*
X208675200Y-86755200D01*
X208675200Y-86755200D02*
X208675200Y-108298300D01*
X208675200Y-108298300D02*
X211897900Y-111521000D01*
X211897900Y-111521000D02*
X211897900Y-125922100D01*
X211897900Y-125922100D02*
X210820000Y-127000000D01*
X99165400Y-174433700D02*
X92854600Y-168122900D01*
X92854600Y-168122900D02*
X92854600Y-141958600D01*
X92854600Y-141958600D02*
X86641300Y-135745300D01*
X86641300Y-135745300D02*
X86360000Y-135745300D01*
X86360000Y-134620000D02*
X86360000Y-135745300D01*
X135890000Y-179070000D02*
X135890000Y-180095300D01*
X158600000Y-207700000D02*
X136915300Y-186015300D01*
X136915300Y-186015300D02*
X136915300Y-181120600D01*
X136915300Y-181120600D02*
X135890000Y-180095300D01*
X93939000Y-172063700D02*
X91920600Y-170045300D01*
X91920600Y-170045300D02*
X91920600Y-146183300D01*
X91920600Y-146183300D02*
X86562600Y-140825300D01*
X86562600Y-140825300D02*
X86360000Y-140825300D01*
X86360000Y-139700000D02*
X86360000Y-140825300D01*
X78740000Y-135745300D02*
X79021500Y-135745300D01*
X79021500Y-135745300D02*
X82726200Y-139450000D01*
X82726200Y-139450000D02*
X82726200Y-142085800D01*
X82726200Y-142085800D02*
X89008500Y-148368100D01*
X89008500Y-148368100D02*
X89008500Y-153604300D01*
X89008500Y-153604300D02*
X89733800Y-154329600D01*
X89733800Y-154329600D02*
X89733800Y-171012800D01*
X78740000Y-134620000D02*
X78740000Y-135745300D01*
X78740000Y-130665300D02*
X79021300Y-130665300D01*
X79021300Y-130665300D02*
X83176500Y-134820500D01*
X83176500Y-134820500D02*
X83176500Y-141462900D01*
X83176500Y-141462900D02*
X89458900Y-147745300D01*
X89458900Y-147745300D02*
X89458900Y-151959600D01*
X89458900Y-151959600D02*
X90294700Y-152795400D01*
X78740000Y-129540000D02*
X78740000Y-130665300D01*
X78740000Y-124460000D02*
X78740000Y-125585300D01*
X78740000Y-125585300D02*
X79021300Y-125585300D01*
X79021300Y-125585300D02*
X83681400Y-130245400D01*
X83681400Y-130245400D02*
X83681400Y-141269500D01*
X83681400Y-141269500D02*
X89304600Y-146892700D01*
X89304600Y-146892700D02*
X89839900Y-146892700D01*
X78740000Y-119380000D02*
X78740000Y-120505300D01*
X89253700Y-145816000D02*
X84303000Y-140865300D01*
X84303000Y-140865300D02*
X84303000Y-125787000D01*
X84303000Y-125787000D02*
X79021300Y-120505300D01*
X79021300Y-120505300D02*
X78740000Y-120505300D01*
M02*
