G04 #@! TF.GenerationSoftware,KiCad,Pcbnew,5.1.5+dfsg1-2build2*
G04 #@! TF.CreationDate,2022-03-03T19:49:00-05:00*
G04 #@! TF.ProjectId,6800sbc,36383030-7362-4632-9e6b-696361645f70,rev?*
G04 #@! TF.SameCoordinates,Original*
G04 #@! TF.FileFunction,Copper,L2,Bot*
G04 #@! TF.FilePolarity,Positive*
%FSLAX46Y46*%
G04 Gerber Fmt 4.6, Leading zero omitted, Abs format (unit mm)*
G04 Created by KiCad (PCBNEW 5.1.5+dfsg1-2build2) date 2022-03-03 19:49:00*
%MOMM*%
%LPD*%
G04 APERTURE LIST*
%ADD10O,1.400000X1.400000*%
%ADD11C,1.400000*%
%ADD12O,1.700000X1.700000*%
%ADD13R,1.700000X1.700000*%
%ADD14O,1.600000X1.600000*%
%ADD15R,1.600000X1.600000*%
%ADD16O,2.200000X2.200000*%
%ADD17R,2.200000X2.200000*%
%ADD18C,1.500000*%
%ADD19R,1.500000X1.500000*%
%ADD20O,1.905000X2.000000*%
%ADD21R,1.905000X2.000000*%
%ADD22C,2.000000*%
%ADD23C,1.800000*%
%ADD24R,1.800000X1.800000*%
%ADD25C,1.600000*%
%ADD26C,1.200000*%
%ADD27R,1.200000X1.200000*%
%ADD28C,0.800000*%
%ADD29C,0.500000*%
%ADD30C,0.250000*%
G04 APERTURE END LIST*
D10*
X135890000Y-198120000D03*
D11*
X128270000Y-198120000D03*
D10*
X135890000Y-185420000D03*
D11*
X128270000Y-185420000D03*
D10*
X135890000Y-191770000D03*
D11*
X128270000Y-191770000D03*
D10*
X135890000Y-204470000D03*
D11*
X128270000Y-204470000D03*
D10*
X135890000Y-210820000D03*
D11*
X128270000Y-210820000D03*
D10*
X135890000Y-152400000D03*
D11*
X128270000Y-152400000D03*
D10*
X135890000Y-157480000D03*
D11*
X128270000Y-157480000D03*
D10*
X135890000Y-162560000D03*
D11*
X128270000Y-162560000D03*
D10*
X135890000Y-167640000D03*
D11*
X128270000Y-167640000D03*
D10*
X135890000Y-172720000D03*
D11*
X128270000Y-172720000D03*
D10*
X135890000Y-179070000D03*
D11*
X128270000Y-179070000D03*
D12*
X90170000Y-182880000D03*
X90170000Y-185420000D03*
D13*
X90170000Y-187960000D03*
D12*
X86360000Y-182880000D03*
X86360000Y-185420000D03*
D13*
X86360000Y-187960000D03*
D12*
X82550000Y-182880000D03*
X82550000Y-185420000D03*
D13*
X82550000Y-187960000D03*
D12*
X78740000Y-182880000D03*
X78740000Y-185420000D03*
D13*
X78740000Y-187960000D03*
D12*
X74930000Y-182880000D03*
X74930000Y-185420000D03*
D13*
X74930000Y-187960000D03*
D12*
X71120000Y-182880000D03*
X71120000Y-185420000D03*
D13*
X71120000Y-187960000D03*
D14*
X55880000Y-57150000D03*
X40640000Y-85090000D03*
X55880000Y-59690000D03*
X40640000Y-82550000D03*
X55880000Y-62230000D03*
X40640000Y-80010000D03*
X55880000Y-64770000D03*
X40640000Y-77470000D03*
X55880000Y-67310000D03*
X40640000Y-74930000D03*
X55880000Y-69850000D03*
X40640000Y-72390000D03*
X55880000Y-72390000D03*
X40640000Y-69850000D03*
X55880000Y-74930000D03*
X40640000Y-67310000D03*
X55880000Y-77470000D03*
X40640000Y-64770000D03*
X55880000Y-80010000D03*
X40640000Y-62230000D03*
X55880000Y-82550000D03*
X40640000Y-59690000D03*
X55880000Y-85090000D03*
D15*
X40640000Y-57150000D03*
D10*
X210820000Y-81280000D03*
D11*
X203200000Y-81280000D03*
D10*
X210820000Y-85090000D03*
D11*
X203200000Y-85090000D03*
D10*
X210820000Y-88900000D03*
D11*
X203200000Y-88900000D03*
D10*
X210820000Y-92710000D03*
D11*
X203200000Y-92710000D03*
D10*
X210820000Y-96520000D03*
D11*
X203200000Y-96520000D03*
D10*
X210820000Y-100330000D03*
D11*
X203200000Y-100330000D03*
D10*
X210820000Y-104140000D03*
D11*
X203200000Y-104140000D03*
D10*
X210820000Y-107950000D03*
D11*
X203200000Y-107950000D03*
D10*
X196850000Y-81280000D03*
D11*
X189230000Y-81280000D03*
D10*
X196850000Y-85090000D03*
D11*
X189230000Y-85090000D03*
D10*
X196850000Y-88900000D03*
D11*
X189230000Y-88900000D03*
D10*
X196850000Y-92710000D03*
D11*
X189230000Y-92710000D03*
D10*
X196850000Y-96520000D03*
D11*
X189230000Y-96520000D03*
D10*
X196850000Y-100330000D03*
D11*
X189230000Y-100330000D03*
D10*
X196850000Y-104140000D03*
D11*
X189230000Y-104140000D03*
D10*
X196850000Y-107950000D03*
D11*
X189230000Y-107950000D03*
D10*
X182880000Y-81280000D03*
D11*
X175260000Y-81280000D03*
D10*
X182880000Y-85090000D03*
D11*
X175260000Y-85090000D03*
D10*
X182880000Y-88900000D03*
D11*
X175260000Y-88900000D03*
D10*
X182880000Y-92710000D03*
D11*
X175260000Y-92710000D03*
D10*
X182880000Y-96520000D03*
D11*
X175260000Y-96520000D03*
D10*
X182880000Y-100330000D03*
D11*
X175260000Y-100330000D03*
D10*
X182880000Y-104140000D03*
D11*
X175260000Y-104140000D03*
D10*
X182880000Y-107950000D03*
D11*
X175260000Y-107950000D03*
D10*
X168910000Y-81280000D03*
D11*
X161290000Y-81280000D03*
D10*
X168910000Y-85090000D03*
D11*
X161290000Y-85090000D03*
D10*
X168910000Y-88900000D03*
D11*
X161290000Y-88900000D03*
D10*
X168910000Y-92710000D03*
D11*
X161290000Y-92710000D03*
D10*
X168910000Y-96520000D03*
D11*
X161290000Y-96520000D03*
D10*
X168910000Y-100330000D03*
D11*
X161290000Y-100330000D03*
D10*
X168910000Y-104140000D03*
D11*
X161290000Y-104140000D03*
D10*
X168910000Y-107950000D03*
D11*
X161290000Y-107950000D03*
D10*
X154940000Y-81280000D03*
D11*
X147320000Y-81280000D03*
D10*
X154940000Y-85090000D03*
D11*
X147320000Y-85090000D03*
D10*
X154940000Y-88900000D03*
D11*
X147320000Y-88900000D03*
D10*
X154940000Y-92710000D03*
D11*
X147320000Y-92710000D03*
D10*
X154940000Y-96520000D03*
D11*
X147320000Y-96520000D03*
D10*
X154940000Y-100330000D03*
D11*
X147320000Y-100330000D03*
D10*
X154940000Y-104140000D03*
D11*
X147320000Y-104140000D03*
D10*
X154940000Y-107950000D03*
D11*
X147320000Y-107950000D03*
D10*
X140970000Y-81280000D03*
D11*
X133350000Y-81280000D03*
D10*
X140970000Y-85090000D03*
D11*
X133350000Y-85090000D03*
D10*
X140970000Y-88900000D03*
D11*
X133350000Y-88900000D03*
D10*
X140970000Y-92710000D03*
D11*
X133350000Y-92710000D03*
D10*
X140970000Y-96520000D03*
D11*
X133350000Y-96520000D03*
D10*
X140970000Y-100330000D03*
D11*
X133350000Y-100330000D03*
D10*
X140970000Y-104140000D03*
D11*
X133350000Y-104140000D03*
D10*
X140970000Y-107950000D03*
D11*
X133350000Y-107950000D03*
D12*
X129540000Y-30480000D03*
D13*
X127000000Y-30480000D03*
D12*
X137160000Y-140970000D03*
D13*
X134620000Y-140970000D03*
D16*
X180340000Y-30480000D03*
D17*
X190500000Y-30480000D03*
D16*
X180340000Y-35560000D03*
D17*
X190500000Y-35560000D03*
D16*
X163830000Y-35560000D03*
D17*
X173990000Y-35560000D03*
D16*
X163830000Y-30480000D03*
D17*
X173990000Y-30480000D03*
D18*
X96340000Y-44450000D03*
X91440000Y-44450000D03*
X119200000Y-144780000D03*
X114300000Y-144780000D03*
D14*
X86360000Y-152400000D03*
X78740000Y-167640000D03*
X86360000Y-154940000D03*
X78740000Y-165100000D03*
X86360000Y-157480000D03*
X78740000Y-162560000D03*
X86360000Y-160020000D03*
X78740000Y-160020000D03*
X86360000Y-162560000D03*
X78740000Y-157480000D03*
X86360000Y-165100000D03*
X78740000Y-154940000D03*
X86360000Y-167640000D03*
D15*
X78740000Y-152400000D03*
D14*
X71120000Y-152400000D03*
X63500000Y-170180000D03*
X71120000Y-154940000D03*
X63500000Y-167640000D03*
X71120000Y-157480000D03*
X63500000Y-165100000D03*
X71120000Y-160020000D03*
X63500000Y-162560000D03*
X71120000Y-162560000D03*
X63500000Y-160020000D03*
X71120000Y-165100000D03*
X63500000Y-157480000D03*
X71120000Y-167640000D03*
X63500000Y-154940000D03*
X71120000Y-170180000D03*
D15*
X63500000Y-152400000D03*
D14*
X101600000Y-116840000D03*
X93980000Y-139700000D03*
X101600000Y-119380000D03*
X93980000Y-137160000D03*
X101600000Y-121920000D03*
X93980000Y-134620000D03*
X101600000Y-124460000D03*
X93980000Y-132080000D03*
X101600000Y-127000000D03*
X93980000Y-129540000D03*
X101600000Y-129540000D03*
X93980000Y-127000000D03*
X101600000Y-132080000D03*
X93980000Y-124460000D03*
X101600000Y-134620000D03*
X93980000Y-121920000D03*
X101600000Y-137160000D03*
X93980000Y-119380000D03*
X101600000Y-139700000D03*
D15*
X93980000Y-116840000D03*
D14*
X71120000Y-116840000D03*
X63500000Y-139700000D03*
X71120000Y-119380000D03*
X63500000Y-137160000D03*
X71120000Y-121920000D03*
X63500000Y-134620000D03*
X71120000Y-124460000D03*
X63500000Y-132080000D03*
X71120000Y-127000000D03*
X63500000Y-129540000D03*
X71120000Y-129540000D03*
X63500000Y-127000000D03*
X71120000Y-132080000D03*
X63500000Y-124460000D03*
X71120000Y-134620000D03*
X63500000Y-121920000D03*
X71120000Y-137160000D03*
X63500000Y-119380000D03*
X71120000Y-139700000D03*
D15*
X63500000Y-116840000D03*
D14*
X101600000Y-57150000D03*
X86360000Y-105410000D03*
X101600000Y-59690000D03*
X86360000Y-102870000D03*
X101600000Y-62230000D03*
X86360000Y-100330000D03*
X101600000Y-64770000D03*
X86360000Y-97790000D03*
X101600000Y-67310000D03*
X86360000Y-95250000D03*
X101600000Y-69850000D03*
X86360000Y-92710000D03*
X101600000Y-72390000D03*
X86360000Y-90170000D03*
X101600000Y-74930000D03*
X86360000Y-87630000D03*
X101600000Y-77470000D03*
X86360000Y-85090000D03*
X101600000Y-80010000D03*
X86360000Y-82550000D03*
X101600000Y-82550000D03*
X86360000Y-80010000D03*
X101600000Y-85090000D03*
X86360000Y-77470000D03*
X101600000Y-87630000D03*
X86360000Y-74930000D03*
X101600000Y-90170000D03*
X86360000Y-72390000D03*
X101600000Y-92710000D03*
X86360000Y-69850000D03*
X101600000Y-95250000D03*
X86360000Y-67310000D03*
X101600000Y-97790000D03*
X86360000Y-64770000D03*
X101600000Y-100330000D03*
X86360000Y-62230000D03*
X101600000Y-102870000D03*
X86360000Y-59690000D03*
X101600000Y-105410000D03*
D15*
X86360000Y-57150000D03*
D14*
X124460000Y-57150000D03*
X109220000Y-90170000D03*
X124460000Y-59690000D03*
X109220000Y-87630000D03*
X124460000Y-62230000D03*
X109220000Y-85090000D03*
X124460000Y-64770000D03*
X109220000Y-82550000D03*
X124460000Y-67310000D03*
X109220000Y-80010000D03*
X124460000Y-69850000D03*
X109220000Y-77470000D03*
X124460000Y-72390000D03*
X109220000Y-74930000D03*
X124460000Y-74930000D03*
X109220000Y-72390000D03*
X124460000Y-77470000D03*
X109220000Y-69850000D03*
X124460000Y-80010000D03*
X109220000Y-67310000D03*
X124460000Y-82550000D03*
X109220000Y-64770000D03*
X124460000Y-85090000D03*
X109220000Y-62230000D03*
X124460000Y-87630000D03*
X109220000Y-59690000D03*
X124460000Y-90170000D03*
D15*
X109220000Y-57150000D03*
D14*
X124460000Y-101600000D03*
X109220000Y-134620000D03*
X124460000Y-104140000D03*
X109220000Y-132080000D03*
X124460000Y-106680000D03*
X109220000Y-129540000D03*
X124460000Y-109220000D03*
X109220000Y-127000000D03*
X124460000Y-111760000D03*
X109220000Y-124460000D03*
X124460000Y-114300000D03*
X109220000Y-121920000D03*
X124460000Y-116840000D03*
X109220000Y-119380000D03*
X124460000Y-119380000D03*
X109220000Y-116840000D03*
X124460000Y-121920000D03*
X109220000Y-114300000D03*
X124460000Y-124460000D03*
X109220000Y-111760000D03*
X124460000Y-127000000D03*
X109220000Y-109220000D03*
X124460000Y-129540000D03*
X109220000Y-106680000D03*
X124460000Y-132080000D03*
X109220000Y-104140000D03*
X124460000Y-134620000D03*
D15*
X109220000Y-101600000D03*
D14*
X86360000Y-116840000D03*
X78740000Y-139700000D03*
X86360000Y-119380000D03*
X78740000Y-137160000D03*
X86360000Y-121920000D03*
X78740000Y-134620000D03*
X86360000Y-124460000D03*
X78740000Y-132080000D03*
X86360000Y-127000000D03*
X78740000Y-129540000D03*
X86360000Y-129540000D03*
X78740000Y-127000000D03*
X86360000Y-132080000D03*
X78740000Y-124460000D03*
X86360000Y-134620000D03*
X78740000Y-121920000D03*
X86360000Y-137160000D03*
X78740000Y-119380000D03*
X86360000Y-139700000D03*
D15*
X78740000Y-116840000D03*
D14*
X210820000Y-57150000D03*
X203200000Y-74930000D03*
X210820000Y-59690000D03*
X203200000Y-72390000D03*
X210820000Y-62230000D03*
X203200000Y-69850000D03*
X210820000Y-64770000D03*
X203200000Y-67310000D03*
X210820000Y-67310000D03*
X203200000Y-64770000D03*
X210820000Y-69850000D03*
X203200000Y-62230000D03*
X210820000Y-72390000D03*
X203200000Y-59690000D03*
X210820000Y-74930000D03*
D15*
X203200000Y-57150000D03*
D14*
X196850000Y-57150000D03*
X189230000Y-74930000D03*
X196850000Y-59690000D03*
X189230000Y-72390000D03*
X196850000Y-62230000D03*
X189230000Y-69850000D03*
X196850000Y-64770000D03*
X189230000Y-67310000D03*
X196850000Y-67310000D03*
X189230000Y-64770000D03*
X196850000Y-69850000D03*
X189230000Y-62230000D03*
X196850000Y-72390000D03*
X189230000Y-59690000D03*
X196850000Y-74930000D03*
D15*
X189230000Y-57150000D03*
D14*
X182880000Y-57150000D03*
X175260000Y-74930000D03*
X182880000Y-59690000D03*
X175260000Y-72390000D03*
X182880000Y-62230000D03*
X175260000Y-69850000D03*
X182880000Y-64770000D03*
X175260000Y-67310000D03*
X182880000Y-67310000D03*
X175260000Y-64770000D03*
X182880000Y-69850000D03*
X175260000Y-62230000D03*
X182880000Y-72390000D03*
X175260000Y-59690000D03*
X182880000Y-74930000D03*
D15*
X175260000Y-57150000D03*
D14*
X168910000Y-57150000D03*
X161290000Y-74930000D03*
X168910000Y-59690000D03*
X161290000Y-72390000D03*
X168910000Y-62230000D03*
X161290000Y-69850000D03*
X168910000Y-64770000D03*
X161290000Y-67310000D03*
X168910000Y-67310000D03*
X161290000Y-64770000D03*
X168910000Y-69850000D03*
X161290000Y-62230000D03*
X168910000Y-72390000D03*
X161290000Y-59690000D03*
X168910000Y-74930000D03*
D15*
X161290000Y-57150000D03*
D14*
X154940000Y-57150000D03*
X147320000Y-74930000D03*
X154940000Y-59690000D03*
X147320000Y-72390000D03*
X154940000Y-62230000D03*
X147320000Y-69850000D03*
X154940000Y-64770000D03*
X147320000Y-67310000D03*
X154940000Y-67310000D03*
X147320000Y-64770000D03*
X154940000Y-69850000D03*
X147320000Y-62230000D03*
X154940000Y-72390000D03*
X147320000Y-59690000D03*
X154940000Y-74930000D03*
D15*
X147320000Y-57150000D03*
D14*
X140970000Y-57150000D03*
X133350000Y-74930000D03*
X140970000Y-59690000D03*
X133350000Y-72390000D03*
X140970000Y-62230000D03*
X133350000Y-69850000D03*
X140970000Y-64770000D03*
X133350000Y-67310000D03*
X140970000Y-67310000D03*
X133350000Y-64770000D03*
X140970000Y-69850000D03*
X133350000Y-62230000D03*
X140970000Y-72390000D03*
X133350000Y-59690000D03*
X140970000Y-74930000D03*
D15*
X133350000Y-57150000D03*
D18*
X210820000Y-114300000D03*
X210820000Y-116840000D03*
X210820000Y-119380000D03*
X210820000Y-121920000D03*
X210820000Y-124460000D03*
X210820000Y-127000000D03*
X210820000Y-129540000D03*
X203200000Y-129540000D03*
X203200000Y-127000000D03*
X203200000Y-124460000D03*
X203200000Y-121920000D03*
X203200000Y-119380000D03*
X203200000Y-116840000D03*
D19*
X203200000Y-114300000D03*
D18*
X196850000Y-114300000D03*
X196850000Y-116840000D03*
X196850000Y-119380000D03*
X196850000Y-121920000D03*
X196850000Y-124460000D03*
X196850000Y-127000000D03*
X196850000Y-129540000D03*
X189230000Y-129540000D03*
X189230000Y-127000000D03*
X189230000Y-124460000D03*
X189230000Y-121920000D03*
X189230000Y-119380000D03*
X189230000Y-116840000D03*
D19*
X189230000Y-114300000D03*
D18*
X182880000Y-114300000D03*
X182880000Y-116840000D03*
X182880000Y-119380000D03*
X182880000Y-121920000D03*
X182880000Y-124460000D03*
X182880000Y-127000000D03*
X182880000Y-129540000D03*
X175260000Y-129540000D03*
X175260000Y-127000000D03*
X175260000Y-124460000D03*
X175260000Y-121920000D03*
X175260000Y-119380000D03*
X175260000Y-116840000D03*
D19*
X175260000Y-114300000D03*
D18*
X168910000Y-114300000D03*
X168910000Y-116840000D03*
X168910000Y-119380000D03*
X168910000Y-121920000D03*
X168910000Y-124460000D03*
X168910000Y-127000000D03*
X168910000Y-129540000D03*
X161290000Y-129540000D03*
X161290000Y-127000000D03*
X161290000Y-124460000D03*
X161290000Y-121920000D03*
X161290000Y-119380000D03*
X161290000Y-116840000D03*
D19*
X161290000Y-114300000D03*
D18*
X154940000Y-114300000D03*
X154940000Y-116840000D03*
X154940000Y-119380000D03*
X154940000Y-121920000D03*
X154940000Y-124460000D03*
X154940000Y-127000000D03*
X154940000Y-129540000D03*
X147320000Y-129540000D03*
X147320000Y-127000000D03*
X147320000Y-124460000D03*
X147320000Y-121920000D03*
X147320000Y-119380000D03*
X147320000Y-116840000D03*
D19*
X147320000Y-114300000D03*
D18*
X140970000Y-114300000D03*
X140970000Y-116840000D03*
X140970000Y-119380000D03*
X140970000Y-121920000D03*
X140970000Y-124460000D03*
X140970000Y-127000000D03*
X140970000Y-129540000D03*
X133350000Y-129540000D03*
X133350000Y-127000000D03*
X133350000Y-124460000D03*
X133350000Y-121920000D03*
X133350000Y-119380000D03*
X133350000Y-116840000D03*
D19*
X133350000Y-114300000D03*
D14*
X101600000Y-152400000D03*
X93980000Y-167640000D03*
X101600000Y-154940000D03*
X93980000Y-165100000D03*
X101600000Y-157480000D03*
X93980000Y-162560000D03*
X101600000Y-160020000D03*
X93980000Y-160020000D03*
X101600000Y-162560000D03*
X93980000Y-157480000D03*
X101600000Y-165100000D03*
X93980000Y-154940000D03*
X101600000Y-167640000D03*
D15*
X93980000Y-152400000D03*
D14*
X78740000Y-57150000D03*
X63500000Y-105410000D03*
X78740000Y-59690000D03*
X63500000Y-102870000D03*
X78740000Y-62230000D03*
X63500000Y-100330000D03*
X78740000Y-64770000D03*
X63500000Y-97790000D03*
X78740000Y-67310000D03*
X63500000Y-95250000D03*
X78740000Y-69850000D03*
X63500000Y-92710000D03*
X78740000Y-72390000D03*
X63500000Y-90170000D03*
X78740000Y-74930000D03*
X63500000Y-87630000D03*
X78740000Y-77470000D03*
X63500000Y-85090000D03*
X78740000Y-80010000D03*
X63500000Y-82550000D03*
X78740000Y-82550000D03*
X63500000Y-80010000D03*
X78740000Y-85090000D03*
X63500000Y-77470000D03*
X78740000Y-87630000D03*
X63500000Y-74930000D03*
X78740000Y-90170000D03*
X63500000Y-72390000D03*
X78740000Y-92710000D03*
X63500000Y-69850000D03*
X78740000Y-95250000D03*
X63500000Y-67310000D03*
X78740000Y-97790000D03*
X63500000Y-64770000D03*
X78740000Y-100330000D03*
X63500000Y-62230000D03*
X78740000Y-102870000D03*
X63500000Y-59690000D03*
X78740000Y-105410000D03*
D15*
X63500000Y-57150000D03*
D20*
X203200000Y-30480000D03*
X200660000Y-30480000D03*
D21*
X198120000Y-30480000D03*
D22*
X184300000Y-203200000D03*
X184300000Y-207700000D03*
X177800000Y-203200000D03*
X177800000Y-207700000D03*
X165100000Y-203200000D03*
X165100000Y-207700000D03*
X158600000Y-203200000D03*
X158600000Y-207700000D03*
X193190000Y-190500000D03*
X193190000Y-195000000D03*
X186690000Y-190500000D03*
X186690000Y-195000000D03*
X175410000Y-190500000D03*
X175410000Y-195000000D03*
X168910000Y-190500000D03*
X168910000Y-195000000D03*
X157630000Y-190500000D03*
X157630000Y-195000000D03*
X151130000Y-190500000D03*
X151130000Y-195000000D03*
X193190000Y-177800000D03*
X193190000Y-182300000D03*
X186690000Y-177800000D03*
X186690000Y-182300000D03*
X175410000Y-177800000D03*
X175410000Y-182300000D03*
X168910000Y-177800000D03*
X168910000Y-182300000D03*
X157630000Y-177800000D03*
X157630000Y-182300000D03*
X151130000Y-177800000D03*
X151130000Y-182300000D03*
X193190000Y-165100000D03*
X193190000Y-169600000D03*
X186690000Y-165100000D03*
X186690000Y-169600000D03*
X175410000Y-165100000D03*
X175410000Y-169600000D03*
X168910000Y-165100000D03*
X168910000Y-169600000D03*
X157630000Y-165100000D03*
X157630000Y-169600000D03*
X151130000Y-165100000D03*
X151130000Y-169600000D03*
X193190000Y-152400000D03*
X193190000Y-156900000D03*
X186690000Y-152400000D03*
X186690000Y-156900000D03*
X175410000Y-152400000D03*
X175410000Y-156900000D03*
X168910000Y-152400000D03*
X168910000Y-156900000D03*
X157630000Y-152400000D03*
X157630000Y-156900000D03*
X151130000Y-152400000D03*
X151130000Y-156900000D03*
X193190000Y-139700000D03*
X193190000Y-144200000D03*
X186690000Y-139700000D03*
X186690000Y-144200000D03*
X175410000Y-139700000D03*
X175410000Y-144200000D03*
X168910000Y-139700000D03*
X168910000Y-144200000D03*
X157630000Y-139700000D03*
X157630000Y-144200000D03*
X151130000Y-139700000D03*
X151130000Y-144200000D03*
D10*
X120650000Y-167640000D03*
D11*
X113030000Y-167640000D03*
D10*
X120650000Y-172720000D03*
D11*
X113030000Y-172720000D03*
D10*
X120650000Y-162560000D03*
D11*
X113030000Y-162560000D03*
D10*
X120650000Y-157480000D03*
D11*
X113030000Y-157480000D03*
D10*
X148590000Y-40640000D03*
D11*
X140970000Y-40640000D03*
D10*
X148590000Y-35560000D03*
D11*
X140970000Y-35560000D03*
D12*
X73660000Y-30480000D03*
D13*
X71120000Y-30480000D03*
D12*
X62230000Y-30480000D03*
X59690000Y-30480000D03*
X57150000Y-30480000D03*
X54610000Y-30480000D03*
X52070000Y-30480000D03*
D13*
X49530000Y-30480000D03*
D12*
X53340000Y-38100000D03*
X50800000Y-38100000D03*
D13*
X48260000Y-38100000D03*
D12*
X55880000Y-208280000D03*
X55880000Y-205740000D03*
X58420000Y-208280000D03*
X58420000Y-205740000D03*
X60960000Y-208280000D03*
X60960000Y-205740000D03*
X63500000Y-208280000D03*
X63500000Y-205740000D03*
X66040000Y-208280000D03*
X66040000Y-205740000D03*
X68580000Y-208280000D03*
X68580000Y-205740000D03*
X71120000Y-208280000D03*
X71120000Y-205740000D03*
X73660000Y-208280000D03*
X73660000Y-205740000D03*
X76200000Y-208280000D03*
X76200000Y-205740000D03*
X78740000Y-208280000D03*
X78740000Y-205740000D03*
X81280000Y-208280000D03*
X81280000Y-205740000D03*
X83820000Y-208280000D03*
X83820000Y-205740000D03*
X86360000Y-208280000D03*
X86360000Y-205740000D03*
X88900000Y-208280000D03*
X88900000Y-205740000D03*
X91440000Y-208280000D03*
X91440000Y-205740000D03*
X93980000Y-208280000D03*
X93980000Y-205740000D03*
X96520000Y-208280000D03*
X96520000Y-205740000D03*
X99060000Y-208280000D03*
X99060000Y-205740000D03*
X101600000Y-208280000D03*
X101600000Y-205740000D03*
X104140000Y-208280000D03*
D13*
X104140000Y-205740000D03*
D12*
X88900000Y-30480000D03*
X86360000Y-30480000D03*
D13*
X83820000Y-30480000D03*
D12*
X66040000Y-38100000D03*
X63500000Y-38100000D03*
D13*
X60960000Y-38100000D03*
D12*
X41910000Y-111760000D03*
X44450000Y-111760000D03*
X41910000Y-114300000D03*
X44450000Y-114300000D03*
X41910000Y-116840000D03*
X44450000Y-116840000D03*
X41910000Y-119380000D03*
X44450000Y-119380000D03*
X41910000Y-121920000D03*
X44450000Y-121920000D03*
X41910000Y-124460000D03*
X44450000Y-124460000D03*
X41910000Y-127000000D03*
X44450000Y-127000000D03*
X41910000Y-129540000D03*
X44450000Y-129540000D03*
X41910000Y-132080000D03*
X44450000Y-132080000D03*
X41910000Y-134620000D03*
X44450000Y-134620000D03*
X41910000Y-137160000D03*
X44450000Y-137160000D03*
X41910000Y-139700000D03*
D13*
X44450000Y-139700000D03*
D12*
X99060000Y-30480000D03*
D13*
X96520000Y-30480000D03*
D12*
X109220000Y-30480000D03*
D13*
X106680000Y-30480000D03*
D14*
X120650000Y-191770000D03*
D15*
X113030000Y-191770000D03*
D14*
X120650000Y-185420000D03*
D15*
X113030000Y-185420000D03*
D14*
X120650000Y-179070000D03*
D15*
X113030000Y-179070000D03*
D23*
X119380000Y-30480000D03*
D24*
X116840000Y-30480000D03*
D14*
X187960000Y-40640000D03*
D15*
X180340000Y-40640000D03*
D14*
X173990000Y-40640000D03*
D15*
X166370000Y-40640000D03*
D25*
X102870000Y-49450000D03*
X102870000Y-44450000D03*
X85090000Y-44530000D03*
X85090000Y-49530000D03*
D26*
X117570000Y-200660000D03*
D27*
X115570000Y-200660000D03*
D25*
X119300000Y-152400000D03*
X114300000Y-152400000D03*
X95330000Y-147320000D03*
X100330000Y-147320000D03*
X114380000Y-52070000D03*
X119380000Y-52070000D03*
X91520000Y-52070000D03*
X96520000Y-52070000D03*
X68660000Y-52070000D03*
X73660000Y-52070000D03*
X64850000Y-111760000D03*
X69850000Y-111760000D03*
X176610000Y-52070000D03*
X181610000Y-52070000D03*
X95330000Y-111760000D03*
X100330000Y-111760000D03*
X64850000Y-147320000D03*
X69850000Y-147320000D03*
X114380000Y-96520000D03*
X119380000Y-96520000D03*
X204550000Y-52070000D03*
X209550000Y-52070000D03*
X45800000Y-52070000D03*
X50800000Y-52070000D03*
X190580000Y-52070000D03*
X195580000Y-52070000D03*
X80090000Y-111760000D03*
X85090000Y-111760000D03*
X148670000Y-52070000D03*
X153670000Y-52070000D03*
X80090000Y-147320000D03*
X85090000Y-147320000D03*
X134700000Y-52070000D03*
X139700000Y-52070000D03*
X162640000Y-52070000D03*
X167640000Y-52070000D03*
X157400000Y-30480000D03*
X152400000Y-30480000D03*
X198200000Y-35560000D03*
X203200000Y-35560000D03*
X201390000Y-41910000D03*
D15*
X199390000Y-41910000D03*
D25*
X145970000Y-30480000D03*
X140970000Y-30480000D03*
D28*
X103984000Y-159374000D03*
X96376100Y-55284500D03*
X100180000Y-130034000D03*
X60451400Y-92318100D03*
X60710000Y-94478400D03*
X58662700Y-126783000D03*
X81983500Y-141350000D03*
X57055800Y-136002000D03*
X81251100Y-142164000D03*
X57094400Y-134698000D03*
X79475000Y-141779000D03*
X47946100Y-138098000D03*
X65653100Y-55003300D03*
X97322700Y-132270000D03*
X58638900Y-163821000D03*
X81208600Y-114722000D03*
X92589000Y-100889000D03*
X58748000Y-165896000D03*
X81026900Y-115942000D03*
X92589300Y-102386000D03*
X60264900Y-143339000D03*
X117535000Y-94908400D03*
X60264800Y-166244000D03*
X102450000Y-111796000D03*
X60243200Y-167422000D03*
X80143200Y-113978000D03*
X61253700Y-167492000D03*
X77767600Y-123366000D03*
X62036000Y-168167000D03*
X88885700Y-121959000D03*
X65056200Y-167685000D03*
X77003200Y-128621000D03*
X75463300Y-151063000D03*
X105388000Y-92154600D03*
X105866000Y-89876100D03*
X106447000Y-87680400D03*
X93722100Y-110036000D03*
X105801000Y-145730000D03*
X105174000Y-204219000D03*
X79223700Y-108632000D03*
X89995900Y-80161100D03*
X96614100Y-65914800D03*
X82372700Y-106232000D03*
X110340000Y-58595400D03*
X100791000Y-203604000D03*
X108365000Y-165100000D03*
X104128000Y-81519100D03*
X104051000Y-83200800D03*
X94447600Y-84577900D03*
X102725000Y-84059300D03*
X97362000Y-140323000D03*
X82828500Y-108501000D03*
X53995700Y-119399000D03*
X129644000Y-159561000D03*
X106632000Y-106456000D03*
X106322000Y-68124300D03*
X141607000Y-132435000D03*
X167490000Y-112173000D03*
X109490000Y-143727000D03*
X110605000Y-144312000D03*
X92466400Y-81845600D03*
X99165400Y-174434000D03*
X93939000Y-172064000D03*
X89733800Y-171013000D03*
X90294700Y-152795000D03*
X89839900Y-146893000D03*
X89253700Y-145816000D03*
D29*
X87630000Y-52070000D02*
X87630000Y-54629700D01*
X87630000Y-54629700D02*
X86360000Y-55899700D01*
X86360000Y-55899700D02*
X86360000Y-57150000D01*
X91520000Y-52070000D02*
X87630000Y-52070000D01*
X45800000Y-54119900D02*
X45800000Y-52070000D01*
X55880000Y-57150000D02*
X48830100Y-57150000D01*
X48830100Y-57150000D02*
X45800000Y-54119900D01*
X40640000Y-57150000D02*
X41890300Y-57150000D01*
X41890300Y-57150000D02*
X44920400Y-54119900D01*
X44920400Y-54119900D02*
X45800000Y-54119900D01*
X198200000Y-35560000D02*
X193120000Y-40640000D01*
X193120000Y-40640000D02*
X187960000Y-40640000D01*
X134700000Y-52070000D02*
X133414000Y-50784200D01*
X133414000Y-50784200D02*
X115666000Y-50784200D01*
X115666000Y-50784200D02*
X114380000Y-52070000D01*
X87630000Y-52070000D02*
X85090000Y-49530000D01*
X85090000Y-49530000D02*
X81285800Y-53334200D01*
X81285800Y-53334200D02*
X69924200Y-53334200D01*
X69924200Y-53334200D02*
X68660000Y-52070000D01*
X99060000Y-30480000D02*
X99060000Y-31780300D01*
X99060000Y-31780300D02*
X104164000Y-36884600D01*
X116840000Y-30480000D02*
X115490000Y-30480000D01*
X115490000Y-30480000D02*
X109085000Y-36884600D01*
X109085000Y-36884600D02*
X104164000Y-36884600D01*
X44450000Y-127000000D02*
X41910000Y-124460000D01*
X86360000Y-165100000D02*
X82530300Y-165100000D01*
X82530300Y-165100000D02*
X79990300Y-167640000D01*
X79990300Y-167640000D02*
X78740000Y-167640000D01*
X86360000Y-182880000D02*
X82550000Y-182880000D01*
X82550000Y-182880000D02*
X78740000Y-182880000D01*
X78740000Y-182880000D02*
X77439700Y-182880000D01*
X133350000Y-74930000D02*
X133350000Y-73679700D01*
X133350000Y-73679700D02*
X133897000Y-73679700D01*
X133897000Y-73679700D02*
X134600000Y-72976500D01*
X134600000Y-72976500D02*
X134600000Y-71910800D01*
X134600000Y-71910800D02*
X140471000Y-66040000D01*
X140471000Y-66040000D02*
X141503000Y-66040000D01*
X141503000Y-66040000D02*
X144776000Y-69312700D01*
X144776000Y-69312700D02*
X144776000Y-72386100D01*
X144776000Y-72386100D02*
X147320000Y-74930000D01*
X176610000Y-52070000D02*
X175343000Y-53337200D01*
X175343000Y-53337200D02*
X163907000Y-53337200D01*
X163907000Y-53337200D02*
X162640000Y-52070000D01*
X44450000Y-127000000D02*
X45750300Y-127000000D01*
X45750300Y-127000000D02*
X45750300Y-126442000D01*
X45750300Y-126442000D02*
X60432600Y-111760000D01*
X60432600Y-111760000D02*
X64850000Y-111760000D01*
X77439700Y-182880000D02*
X74930000Y-182880000D01*
X74930000Y-182880000D02*
X71120000Y-182880000D01*
X81280000Y-208280000D02*
X78740000Y-205740000D01*
X78740000Y-205740000D02*
X78740000Y-204440000D01*
X78740000Y-204440000D02*
X77439700Y-203139000D01*
X77439700Y-203139000D02*
X77439700Y-182880000D01*
X93980000Y-116840000D02*
X97809700Y-116840000D01*
X97809700Y-116840000D02*
X100350000Y-119380000D01*
X100350000Y-119380000D02*
X101600000Y-119380000D01*
X148670000Y-52070000D02*
X147389000Y-53351200D01*
X147389000Y-53351200D02*
X135981000Y-53351200D01*
X135981000Y-53351200D02*
X134700000Y-52070000D01*
X157400000Y-30480000D02*
X156138000Y-31742500D01*
X156138000Y-31742500D02*
X147232000Y-31742500D01*
X147232000Y-31742500D02*
X145970000Y-30480000D01*
X104164000Y-36884600D02*
X104164000Y-48155700D01*
X104164000Y-48155700D02*
X102870000Y-49450000D01*
X102870000Y-49450000D02*
X94140000Y-49450000D01*
X94140000Y-49450000D02*
X91520000Y-52070000D01*
X93980000Y-139700000D02*
X95230300Y-139700000D01*
X95230300Y-139700000D02*
X99040300Y-135890000D01*
X99040300Y-135890000D02*
X106700000Y-135890000D01*
X106700000Y-135890000D02*
X107970000Y-134620000D01*
X107970000Y-134620000D02*
X109220000Y-134620000D01*
X101600000Y-154940000D02*
X127368000Y-154940000D01*
X127368000Y-154940000D02*
X134620000Y-147688000D01*
X134620000Y-147688000D02*
X134620000Y-140970000D01*
X68660000Y-52070000D02*
X67383900Y-52070000D01*
X67383900Y-52070000D02*
X63500000Y-55953900D01*
X63500000Y-55953900D02*
X63500000Y-56837400D01*
X95330000Y-111760000D02*
X94075000Y-113015000D01*
X94075000Y-113015000D02*
X82476100Y-113015000D01*
X82476100Y-113015000D02*
X81221100Y-111760000D01*
X81221100Y-111760000D02*
X80090000Y-111760000D01*
X80090000Y-111760000D02*
X78831700Y-110502000D01*
X78831700Y-110502000D02*
X66108300Y-110502000D01*
X66108300Y-110502000D02*
X64850000Y-111760000D01*
X63500000Y-57150000D02*
X63500000Y-56837400D01*
X63500000Y-56837400D02*
X57442900Y-56837400D01*
X57442900Y-56837400D02*
X57130300Y-57150000D01*
X57130300Y-57150000D02*
X55880000Y-57150000D01*
X93980000Y-167640000D02*
X90150300Y-167640000D01*
X90150300Y-167640000D02*
X87610300Y-165100000D01*
X87610300Y-165100000D02*
X86360000Y-165100000D01*
X78740000Y-139700000D02*
X77489700Y-139700000D01*
X77489700Y-139700000D02*
X76236300Y-140953000D01*
X76236300Y-140953000D02*
X66003700Y-140953000D01*
X66003700Y-140953000D02*
X64750300Y-139700000D01*
X64750300Y-139700000D02*
X63500000Y-139700000D01*
X86360000Y-182880000D02*
X90170000Y-182880000D01*
X90170000Y-182880000D02*
X106480000Y-182880000D01*
X106480000Y-182880000D02*
X117570000Y-193970000D01*
X117570000Y-193970000D02*
X117570000Y-200660000D01*
X101600000Y-105410000D02*
X102850000Y-105410000D01*
X102850000Y-105410000D02*
X105410000Y-102850000D01*
X105410000Y-102850000D02*
X110243000Y-102850000D01*
X110243000Y-102850000D02*
X114380000Y-98713800D01*
X114380000Y-98713800D02*
X114380000Y-96520000D01*
X180340000Y-30480000D02*
X173990000Y-30480000D01*
X148590000Y-35560000D02*
X146050000Y-35560000D01*
X146050000Y-35560000D02*
X140970000Y-30480000D01*
X124460000Y-57150000D02*
X123210000Y-57150000D01*
X123210000Y-57150000D02*
X120377000Y-54317100D01*
X120377000Y-54317100D02*
X119380000Y-54317100D01*
X124460000Y-59690000D02*
X125710000Y-59690000D01*
X125710000Y-59690000D02*
X126961000Y-58439700D01*
X126961000Y-58439700D02*
X138430000Y-58439700D01*
X138430000Y-58439700D02*
X139720000Y-57150000D01*
X139720000Y-57150000D02*
X140970000Y-57150000D01*
X196850000Y-57150000D02*
X192082000Y-57150000D01*
X192082000Y-57150000D02*
X190831000Y-58400400D01*
X190831000Y-58400400D02*
X188149000Y-58400400D01*
X188149000Y-58400400D02*
X186898000Y-57150000D01*
X186898000Y-57150000D02*
X182880000Y-57150000D01*
X86360000Y-74930000D02*
X87610300Y-74930000D01*
X87610300Y-74930000D02*
X92690300Y-69850000D01*
X92690300Y-69850000D02*
X101600000Y-69850000D01*
X182880000Y-114300000D02*
X180340000Y-114300000D01*
X180340000Y-114300000D02*
X175260000Y-119380000D01*
X210820000Y-114300000D02*
X208280000Y-114300000D01*
X208280000Y-114300000D02*
X203200000Y-119380000D01*
X40640000Y-74930000D02*
X40640000Y-76180300D01*
X40640000Y-76180300D02*
X41187000Y-76180300D01*
X41187000Y-76180300D02*
X41907200Y-76900500D01*
X41907200Y-76900500D02*
X41907200Y-78036400D01*
X41907200Y-78036400D02*
X41183900Y-78759700D01*
X41183900Y-78759700D02*
X40640000Y-78759700D01*
X40640000Y-78759700D02*
X40640000Y-80010000D01*
X161290000Y-119380000D02*
X166370000Y-114300000D01*
X166370000Y-114300000D02*
X168910000Y-114300000D01*
X189230000Y-119380000D02*
X194310000Y-114300000D01*
X194310000Y-114300000D02*
X196850000Y-114300000D01*
X86360000Y-116840000D02*
X85109700Y-116840000D01*
X85109700Y-116840000D02*
X81297300Y-113028000D01*
X81297300Y-113028000D02*
X71117600Y-113028000D01*
X71117600Y-113028000D02*
X69850000Y-111760000D01*
X154940000Y-114300000D02*
X149860000Y-119380000D01*
X149860000Y-119380000D02*
X147320000Y-119380000D01*
X124460000Y-101600000D02*
X125710000Y-101600000D01*
X125710000Y-101600000D02*
X125710000Y-101991000D01*
X125710000Y-101991000D02*
X138225000Y-114505000D01*
X133350000Y-119380000D02*
X138225000Y-114505000D01*
X138225000Y-114505000D02*
X138430000Y-114300000D01*
X138430000Y-114300000D02*
X140970000Y-114300000D01*
X181610000Y-52070000D02*
X179625000Y-54055100D01*
X179625000Y-54055100D02*
X173255000Y-54055100D01*
X173255000Y-54055100D02*
X170160000Y-57150000D01*
X170160000Y-57150000D02*
X168910000Y-57150000D01*
X86360000Y-187960000D02*
X82550000Y-187960000D01*
X81280000Y-205740000D02*
X81280000Y-187960000D01*
X82550000Y-187960000D02*
X81280000Y-187960000D01*
X81280000Y-187960000D02*
X78740000Y-187960000D01*
X128270000Y-172720000D02*
X120650000Y-172720000D01*
X120650000Y-172720000D02*
X119500000Y-172720000D01*
X119500000Y-172720000D02*
X114420000Y-167640000D01*
X114420000Y-167640000D02*
X113030000Y-167640000D01*
X100330000Y-111760000D02*
X98125700Y-113964000D01*
X98125700Y-113964000D02*
X90486000Y-113964000D01*
X90486000Y-113964000D02*
X87610300Y-116840000D01*
X87610300Y-116840000D02*
X86360000Y-116840000D01*
X128270000Y-185420000D02*
X128270000Y-191770000D01*
X86360000Y-152400000D02*
X87610300Y-152400000D01*
X87610300Y-152400000D02*
X88065200Y-151945000D01*
X88065200Y-151945000D02*
X90647000Y-151945000D01*
X90647000Y-151945000D02*
X92352300Y-153650000D01*
X92352300Y-153650000D02*
X99099300Y-153650000D01*
X99099300Y-153650000D02*
X100350000Y-152400000D01*
X100350000Y-152400000D02*
X101600000Y-152400000D01*
X101600000Y-152400000D02*
X102850000Y-152400000D01*
X102850000Y-152400000D02*
X104117000Y-151133000D01*
X104117000Y-151133000D02*
X127003000Y-151133000D01*
X127003000Y-151133000D02*
X128270000Y-152400000D01*
X73660000Y-52070000D02*
X72389100Y-50799100D01*
X72389100Y-50799100D02*
X52070900Y-50799100D01*
X52070900Y-50799100D02*
X50800000Y-52070000D01*
X96520000Y-30480000D02*
X95219700Y-30480000D01*
X95219700Y-30480000D02*
X93919400Y-29179700D01*
X93919400Y-29179700D02*
X76260600Y-29179700D01*
X76260600Y-29179700D02*
X74960300Y-30480000D01*
X74960300Y-30480000D02*
X73660000Y-30480000D01*
X119380000Y-52070000D02*
X119380000Y-54317100D01*
X119380000Y-54317100D02*
X116547000Y-57150000D01*
X116547000Y-57150000D02*
X109220000Y-57150000D01*
X96520000Y-52070000D02*
X102890000Y-52070000D01*
X102890000Y-52070000D02*
X107970000Y-57150000D01*
X107970000Y-57150000D02*
X109220000Y-57150000D01*
X78740000Y-102870000D02*
X78740000Y-104120000D01*
X78740000Y-104120000D02*
X79249800Y-104120000D01*
X79249800Y-104120000D02*
X81358200Y-106229000D01*
X81358200Y-106229000D02*
X81358200Y-108234000D01*
X81358200Y-108234000D02*
X84884600Y-111760000D01*
X84884600Y-111760000D02*
X85090000Y-111760000D01*
X44450000Y-124460000D02*
X45750300Y-124460000D01*
X45750300Y-124460000D02*
X45750300Y-124410000D01*
X45750300Y-124410000D02*
X63500000Y-106660000D01*
X63500000Y-106660000D02*
X63500000Y-105410000D01*
X71120000Y-152400000D02*
X72370300Y-152400000D01*
X72370300Y-152400000D02*
X76099800Y-148670000D01*
X76099800Y-148670000D02*
X83739500Y-148670000D01*
X83739500Y-148670000D02*
X85090000Y-147320000D01*
X173990000Y-35560000D02*
X180340000Y-35560000D01*
X152400000Y-30480000D02*
X153672000Y-29208200D01*
X153672000Y-29208200D02*
X159671000Y-29208200D01*
X159671000Y-29208200D02*
X166023000Y-35560000D01*
X166023000Y-35560000D02*
X173990000Y-35560000D01*
D30*
X119300000Y-152400000D02*
X118175000Y-153525000D01*
X118175000Y-153525000D02*
X101175000Y-153525000D01*
X101175000Y-153525000D02*
X99760400Y-154940000D01*
X99760400Y-154940000D02*
X93980000Y-154940000D01*
X120650000Y-162560000D02*
X119625000Y-162560000D01*
X119625000Y-162560000D02*
X115713000Y-158648000D01*
X115713000Y-158648000D02*
X101177000Y-158648000D01*
X101177000Y-158648000D02*
X100008000Y-157480000D01*
X100008000Y-157480000D02*
X93980000Y-157480000D01*
X184300000Y-203200000D02*
X177800000Y-203200000D01*
X120650000Y-167640000D02*
X119625000Y-167640000D01*
X119625000Y-167640000D02*
X111358000Y-159374000D01*
X111358000Y-159374000D02*
X103984000Y-159374000D01*
X85090000Y-44530000D02*
X91360000Y-44530000D01*
X91360000Y-44530000D02*
X91440000Y-44450000D01*
X102870000Y-44450000D02*
X96340000Y-44450000D01*
X180340000Y-40640000D02*
X173990000Y-40640000D01*
X173990000Y-40640000D02*
X172865000Y-40640000D01*
X172865000Y-40640000D02*
X171695000Y-39470400D01*
X171695000Y-39470400D02*
X149652000Y-39470400D01*
X149652000Y-39470400D02*
X148988000Y-39470400D01*
X148988000Y-39470400D02*
X145078000Y-35560000D01*
X145078000Y-35560000D02*
X140970000Y-35560000D01*
X149652000Y-39470400D02*
X149652000Y-41032500D01*
X149652000Y-41032500D02*
X144106000Y-46578900D01*
X144106000Y-46578900D02*
X107406000Y-46578900D01*
X107406000Y-46578900D02*
X103041000Y-50944600D01*
X103041000Y-50944600D02*
X96052100Y-50944600D01*
X96052100Y-50944600D02*
X95358800Y-51637900D01*
X95358800Y-51637900D02*
X95358800Y-54267200D01*
X95358800Y-54267200D02*
X96376100Y-55284500D01*
X76967400Y-67957300D02*
X76967400Y-72300300D01*
X76967400Y-72300300D02*
X78327100Y-73660000D01*
X78327100Y-73660000D02*
X81424700Y-73660000D01*
X81424700Y-73660000D02*
X85234700Y-77470000D01*
X85234700Y-77470000D02*
X86360000Y-77470000D01*
X40640000Y-82550000D02*
X40640000Y-81424700D01*
X40640000Y-81424700D02*
X40921300Y-81424700D01*
X40921300Y-81424700D02*
X48260000Y-74086000D01*
X48260000Y-74086000D02*
X48260000Y-68257900D01*
X48260000Y-68257900D02*
X55462400Y-61055500D01*
X55462400Y-61055500D02*
X70065600Y-61055500D01*
X70065600Y-61055500D02*
X76967400Y-67957300D01*
X78740000Y-67310000D02*
X79865300Y-67310000D01*
X79865300Y-67310000D02*
X80990600Y-66184700D01*
X80990600Y-66184700D02*
X89318700Y-66184700D01*
X89318700Y-66184700D02*
X99482600Y-56020800D01*
X99482600Y-56020800D02*
X102096000Y-56020800D01*
X102096000Y-56020800D02*
X104882000Y-58806100D01*
X104882000Y-58806100D02*
X104882000Y-69649400D01*
X104882000Y-69649400D02*
X108892000Y-73660000D01*
X108892000Y-73660000D02*
X109549000Y-73660000D01*
X109549000Y-73660000D02*
X110812000Y-74923600D01*
X110812000Y-74923600D02*
X110812000Y-78417800D01*
X110812000Y-78417800D02*
X109220000Y-80010000D01*
X78740000Y-67310000D02*
X77614700Y-67310000D01*
X77614700Y-67310000D02*
X76967400Y-67957300D01*
X113030000Y-179070000D02*
X72623800Y-179070000D01*
X72623800Y-179070000D02*
X69494400Y-182199000D01*
X69494400Y-182199000D02*
X69494400Y-189131000D01*
X69494400Y-189131000D02*
X73660000Y-193297000D01*
X73660000Y-193297000D02*
X73660000Y-205740000D01*
X109220000Y-124460000D02*
X108095000Y-124460000D01*
X108095000Y-124460000D02*
X104140000Y-120505000D01*
X104140000Y-120505000D02*
X96230600Y-120505000D01*
X96230600Y-120505000D02*
X95105300Y-119380000D01*
X95105300Y-119380000D02*
X93980000Y-119380000D01*
X109220000Y-77470000D02*
X108095000Y-77470000D01*
X108095000Y-77470000D02*
X106959000Y-76334700D01*
X106959000Y-76334700D02*
X102729000Y-76334700D01*
X86360000Y-80010000D02*
X88182200Y-80010000D01*
X88182200Y-80010000D02*
X89508900Y-81336700D01*
X89508900Y-81336700D02*
X90483000Y-81336700D01*
X90483000Y-81336700D02*
X95484900Y-76334800D01*
X95484900Y-76334800D02*
X95484900Y-76334700D01*
X95484900Y-76334700D02*
X102729000Y-76334700D01*
X78740000Y-69850000D02*
X79865300Y-69850000D01*
X79865300Y-69850000D02*
X80990600Y-70975300D01*
X80990600Y-70975300D02*
X89244100Y-70975300D01*
X89244100Y-70975300D02*
X91503800Y-68715600D01*
X91503800Y-68715600D02*
X102062000Y-68715600D01*
X102062000Y-68715600D02*
X102729000Y-69382400D01*
X102729000Y-69382400D02*
X102729000Y-76334700D01*
X109220000Y-121920000D02*
X109220000Y-123045000D01*
X109220000Y-123045000D02*
X109501000Y-123045000D01*
X109501000Y-123045000D02*
X110369000Y-123913000D01*
X110369000Y-123913000D02*
X110369000Y-124928000D01*
X110369000Y-124928000D02*
X109664000Y-125634000D01*
X109664000Y-125634000D02*
X106728000Y-125634000D01*
X106728000Y-125634000D02*
X104429000Y-123335000D01*
X104429000Y-123335000D02*
X96230600Y-123335000D01*
X96230600Y-123335000D02*
X95105300Y-124460000D01*
X95105300Y-124460000D02*
X93980000Y-124460000D01*
X113030000Y-185420000D02*
X111905000Y-185420000D01*
X111905000Y-185420000D02*
X108167000Y-181682000D01*
X108167000Y-181682000D02*
X70648400Y-181682000D01*
X70648400Y-181682000D02*
X69944700Y-182386000D01*
X69944700Y-182386000D02*
X69944700Y-188945000D01*
X69944700Y-188945000D02*
X75475200Y-194475000D01*
X75475200Y-194475000D02*
X75475200Y-202137000D01*
X75475200Y-202137000D02*
X77467200Y-204129000D01*
X77467200Y-204129000D02*
X77467200Y-208710000D01*
X77467200Y-208710000D02*
X76716900Y-209460000D01*
X76716900Y-209460000D02*
X74840000Y-209460000D01*
X74840000Y-209460000D02*
X73660000Y-208280000D01*
D29*
X119380000Y-30480000D02*
X128390000Y-39489700D01*
X128390000Y-39489700D02*
X146289000Y-39489700D01*
X146289000Y-39489700D02*
X147440000Y-40640000D01*
X147440000Y-40640000D02*
X148590000Y-40640000D01*
D30*
X109220000Y-74930000D02*
X109220000Y-76055300D01*
X109220000Y-76055300D02*
X109501000Y-76055300D01*
X109501000Y-76055300D02*
X110347000Y-76900600D01*
X110347000Y-76900600D02*
X110347000Y-77978300D01*
X110347000Y-77978300D02*
X109531000Y-78793700D01*
X109531000Y-78793700D02*
X94299800Y-78793700D01*
X94299800Y-78793700D02*
X90543500Y-82550000D01*
X90543500Y-82550000D02*
X86360000Y-82550000D01*
X71120000Y-205740000D02*
X71120000Y-206915000D01*
X71120000Y-206915000D02*
X71487400Y-206915000D01*
X71487400Y-206915000D02*
X72295300Y-207723000D01*
X72295300Y-207723000D02*
X72295300Y-208613000D01*
X72295300Y-208613000D02*
X73592400Y-209910000D01*
X73592400Y-209910000D02*
X81319300Y-209910000D01*
X81319300Y-209910000D02*
X82550000Y-208680000D01*
X82550000Y-208680000D02*
X82550000Y-205318000D01*
X82550000Y-205318000D02*
X96097500Y-191770000D01*
X96097500Y-191770000D02*
X113030000Y-191770000D01*
X100180000Y-130034000D02*
X95599400Y-130034000D01*
X95599400Y-130034000D02*
X95105300Y-129540000D01*
X95105300Y-129540000D02*
X93980000Y-129540000D01*
X41910000Y-111760000D02*
X41910000Y-110585000D01*
X41910000Y-110585000D02*
X60176600Y-92318100D01*
X60176600Y-92318100D02*
X60451400Y-92318100D01*
X44450000Y-111760000D02*
X44450000Y-110585000D01*
X44450000Y-110585000D02*
X44603700Y-110585000D01*
X44603700Y-110585000D02*
X60710000Y-94478400D01*
X41910000Y-114300000D02*
X43095200Y-115485000D01*
X43095200Y-115485000D02*
X43095200Y-117339000D01*
X43095200Y-117339000D02*
X42413800Y-118020000D01*
X42413800Y-118020000D02*
X41361400Y-118020000D01*
X41361400Y-118020000D02*
X40229500Y-116888000D01*
X40229500Y-116888000D02*
X40229500Y-99088700D01*
X40229500Y-99088700D02*
X55361400Y-83956800D01*
X55361400Y-83956800D02*
X56509000Y-83956800D01*
X56509000Y-83956800D02*
X57642200Y-85090000D01*
X57642200Y-85090000D02*
X63500000Y-85090000D01*
X44450000Y-114300000D02*
X44450000Y-113125000D01*
X44450000Y-113125000D02*
X44797700Y-113125000D01*
X44797700Y-113125000D02*
X46751400Y-111171000D01*
X46751400Y-111171000D02*
X46751400Y-109463000D01*
X46751400Y-109463000D02*
X61435300Y-94778900D01*
X61435300Y-94778900D02*
X61435300Y-93177200D01*
X61435300Y-93177200D02*
X63172500Y-91440000D01*
X63172500Y-91440000D02*
X63834600Y-91440000D01*
X63834600Y-91440000D02*
X64625300Y-90649300D01*
X64625300Y-90649300D02*
X64625300Y-89599200D01*
X64625300Y-89599200D02*
X63781400Y-88755300D01*
X63781400Y-88755300D02*
X63500000Y-88755300D01*
X63500000Y-88755300D02*
X63500000Y-87630000D01*
X41910000Y-116840000D02*
X41910000Y-115665000D01*
X41910000Y-115665000D02*
X41542700Y-115665000D01*
X41542700Y-115665000D02*
X40728900Y-114851000D01*
X40728900Y-114851000D02*
X40728900Y-111003000D01*
X40728900Y-111003000D02*
X61561600Y-90170000D01*
X61561600Y-90170000D02*
X63500000Y-90170000D01*
X44450000Y-116840000D02*
X44450000Y-115665000D01*
X44450000Y-115665000D02*
X44817300Y-115665000D01*
X44817300Y-115665000D02*
X47426800Y-113055000D01*
X47426800Y-113055000D02*
X47426800Y-109732000D01*
X47426800Y-109732000D02*
X63323100Y-93835300D01*
X63323100Y-93835300D02*
X63500000Y-93835300D01*
X63500000Y-93835300D02*
X63500000Y-92710000D01*
X41910000Y-119380000D02*
X43085300Y-119380000D01*
X43085300Y-119380000D02*
X43085300Y-119013000D01*
X43085300Y-119013000D02*
X43893200Y-118205000D01*
X43893200Y-118205000D02*
X44763500Y-118205000D01*
X44763500Y-118205000D02*
X56306400Y-106662000D01*
X56306400Y-106662000D02*
X56306400Y-103288000D01*
X56306400Y-103288000D02*
X63218700Y-96375300D01*
X63218700Y-96375300D02*
X63500000Y-96375300D01*
X63500000Y-96375300D02*
X63500000Y-95250000D01*
X44450000Y-119380000D02*
X62374700Y-101455000D01*
X62374700Y-101455000D02*
X62374700Y-99759200D01*
X62374700Y-99759200D02*
X63218600Y-98915300D01*
X63218600Y-98915300D02*
X63500000Y-98915300D01*
X63500000Y-98915300D02*
X63500000Y-97790000D01*
X41910000Y-121920000D02*
X41910000Y-123095000D01*
X41910000Y-123095000D02*
X42277400Y-123095000D01*
X42277400Y-123095000D02*
X43085300Y-123903000D01*
X43085300Y-123903000D02*
X43085300Y-124822000D01*
X43085300Y-124822000D02*
X43927900Y-125664000D01*
X43927900Y-125664000D02*
X45410900Y-125664000D01*
X45410900Y-125664000D02*
X64625300Y-106450000D01*
X64625300Y-106450000D02*
X64625300Y-102299000D01*
X64625300Y-102299000D02*
X63781400Y-101455000D01*
X63781400Y-101455000D02*
X63500000Y-101455000D01*
X63500000Y-101455000D02*
X63500000Y-100330000D01*
X44450000Y-121920000D02*
X45625300Y-121920000D01*
X45625300Y-121920000D02*
X45625300Y-121589000D01*
X45625300Y-121589000D02*
X63218700Y-103995000D01*
X63218700Y-103995000D02*
X63500000Y-103995000D01*
X63500000Y-103995000D02*
X63500000Y-102870000D01*
X41910000Y-132080000D02*
X41910000Y-130905000D01*
X41910000Y-130905000D02*
X41542700Y-130905000D01*
X41542700Y-130905000D02*
X39779100Y-129141000D01*
X39779100Y-129141000D02*
X39779100Y-91959900D01*
X39779100Y-91959900D02*
X41800000Y-89939000D01*
X41800000Y-89939000D02*
X41800000Y-83820000D01*
X48260000Y-38100000D02*
X48260000Y-39275300D01*
X48260000Y-39275300D02*
X38997100Y-48538200D01*
X38997100Y-48538200D02*
X38997100Y-82563700D01*
X38997100Y-82563700D02*
X40253400Y-83820000D01*
X40253400Y-83820000D02*
X41800000Y-83820000D01*
X41800000Y-83820000D02*
X49283200Y-76336800D01*
X49283200Y-76336800D02*
X56509000Y-76336800D01*
X56509000Y-76336800D02*
X57642200Y-77470000D01*
X57642200Y-77470000D02*
X63500000Y-77470000D01*
X44450000Y-132080000D02*
X56806300Y-132080000D01*
X56806300Y-132080000D02*
X63082400Y-138356000D01*
X63082400Y-138356000D02*
X78989900Y-138356000D01*
X78989900Y-138356000D02*
X81983500Y-141350000D01*
X56806300Y-132080000D02*
X56806300Y-128639000D01*
X56806300Y-128639000D02*
X58662700Y-126783000D01*
X41910000Y-134620000D02*
X43085300Y-134620000D01*
X43085300Y-134620000D02*
X43085300Y-134987000D01*
X43085300Y-134987000D02*
X43893200Y-135795000D01*
X43893200Y-135795000D02*
X56849600Y-135795000D01*
X56849600Y-135795000D02*
X57055800Y-136002000D01*
X57055800Y-136002000D02*
X63612100Y-142558000D01*
X63612100Y-142558000D02*
X80857000Y-142558000D01*
X80857000Y-142558000D02*
X81251100Y-142164000D01*
X44450000Y-134620000D02*
X57015900Y-134620000D01*
X57015900Y-134620000D02*
X57094400Y-134698000D01*
X57094400Y-134698000D02*
X57094400Y-134886000D01*
X57094400Y-134886000D02*
X63987800Y-141779000D01*
X63987800Y-141779000D02*
X79475000Y-141779000D01*
X44450000Y-137160000D02*
X47008400Y-137160000D01*
X47008400Y-137160000D02*
X47946100Y-138098000D01*
X63500000Y-59690000D02*
X63500000Y-58564700D01*
X63500000Y-58564700D02*
X64203300Y-58564700D01*
X64203300Y-58564700D02*
X65653100Y-57114900D01*
X65653100Y-57114900D02*
X65653100Y-55003300D01*
X93980000Y-137160000D02*
X93980000Y-136035000D01*
X93980000Y-136035000D02*
X94261300Y-136035000D01*
X94261300Y-136035000D02*
X97322700Y-132973000D01*
X97322700Y-132973000D02*
X97322700Y-132270000D01*
X83820000Y-205740000D02*
X84995300Y-205740000D01*
X84995300Y-205740000D02*
X84995300Y-205373000D01*
X84995300Y-205373000D02*
X88615600Y-201752000D01*
X88615600Y-201752000D02*
X119653000Y-201752000D01*
X119653000Y-201752000D02*
X128610000Y-192795000D01*
X128610000Y-192795000D02*
X133839000Y-192795000D01*
X133839000Y-192795000D02*
X134865000Y-191770000D01*
X134865000Y-191770000D02*
X135890000Y-191770000D01*
X40640000Y-72390000D02*
X40640000Y-71264700D01*
X40640000Y-71264700D02*
X40921300Y-71264700D01*
X40921300Y-71264700D02*
X41790000Y-70396000D01*
X41790000Y-70396000D02*
X41790000Y-64287500D01*
X41790000Y-64287500D02*
X41002500Y-63500000D01*
X41002500Y-63500000D02*
X40261600Y-63500000D01*
X40261600Y-63500000D02*
X39514700Y-62753100D01*
X39514700Y-62753100D02*
X39514700Y-56168500D01*
X39514700Y-56168500D02*
X52278600Y-43404600D01*
X52278600Y-43404600D02*
X69720100Y-43404600D01*
X69720100Y-43404600D02*
X82644700Y-30480000D01*
X82644700Y-30480000D02*
X83820000Y-30480000D01*
X86360000Y-208280000D02*
X87535300Y-208280000D01*
X87535300Y-208280000D02*
X87535300Y-208647000D01*
X87535300Y-208647000D02*
X90733600Y-211846000D01*
X90733600Y-211846000D02*
X136340000Y-211846000D01*
X136340000Y-211846000D02*
X136915000Y-211271000D01*
X136915000Y-211271000D02*
X136915000Y-187471000D01*
X136915000Y-187471000D02*
X135890000Y-186445000D01*
X135890000Y-186445000D02*
X135890000Y-185420000D01*
X55880000Y-208280000D02*
X55880000Y-207105000D01*
X55880000Y-207105000D02*
X55512700Y-207105000D01*
X55512700Y-207105000D02*
X54692200Y-206284000D01*
X54692200Y-206284000D02*
X54692200Y-167767000D01*
X54692200Y-167767000D02*
X58638900Y-163821000D01*
X63500000Y-119380000D02*
X64625300Y-119380000D01*
X64625300Y-119380000D02*
X69283100Y-114722000D01*
X69283100Y-114722000D02*
X81208600Y-114722000D01*
X101600000Y-95250000D02*
X100475000Y-95250000D01*
X100475000Y-95250000D02*
X94836100Y-100889000D01*
X94836100Y-100889000D02*
X92589000Y-100889000D01*
X109220000Y-101600000D02*
X108095000Y-101600000D01*
X108095000Y-101600000D02*
X107380000Y-100886000D01*
X107380000Y-100886000D02*
X102725000Y-100886000D01*
X101600000Y-97790000D02*
X101600000Y-98915300D01*
X101600000Y-98915300D02*
X101881000Y-98915300D01*
X101881000Y-98915300D02*
X102725000Y-99759400D01*
X102725000Y-99759400D02*
X102725000Y-100886000D01*
X55880000Y-205740000D02*
X55880000Y-168764000D01*
X55880000Y-168764000D02*
X58748000Y-165896000D01*
X63500000Y-121920000D02*
X64625300Y-121920000D01*
X64625300Y-121920000D02*
X64625300Y-121639000D01*
X64625300Y-121639000D02*
X71091400Y-115173000D01*
X71091400Y-115173000D02*
X80258000Y-115173000D01*
X80258000Y-115173000D02*
X81026900Y-115942000D01*
X102725000Y-100886000D02*
X102011000Y-101600000D01*
X102011000Y-101600000D02*
X93375400Y-101600000D01*
X93375400Y-101600000D02*
X92589300Y-102386000D01*
X58420000Y-208280000D02*
X58420000Y-207105000D01*
X58420000Y-207105000D02*
X58052700Y-207105000D01*
X58052700Y-207105000D02*
X57234300Y-206286000D01*
X57234300Y-206286000D02*
X57234300Y-168436000D01*
X57234300Y-168436000D02*
X59473300Y-166197000D01*
X59473300Y-166197000D02*
X59473300Y-144131000D01*
X59473300Y-144131000D02*
X60264900Y-143339000D01*
X117535000Y-94908400D02*
X104192000Y-94908400D01*
X104192000Y-94908400D02*
X102581000Y-96520000D01*
X102581000Y-96520000D02*
X101204000Y-96520000D01*
X101204000Y-96520000D02*
X100470000Y-97254600D01*
X100470000Y-97254600D02*
X100470000Y-99199500D01*
X100470000Y-99199500D02*
X101600000Y-100330000D01*
X60264900Y-143339000D02*
X81474700Y-143339000D01*
X81474700Y-143339000D02*
X82425200Y-142389000D01*
X82425200Y-142389000D02*
X102386000Y-142389000D01*
X102386000Y-142389000D02*
X106435000Y-138340000D01*
X106435000Y-138340000D02*
X120748000Y-138340000D01*
X120748000Y-138340000D02*
X121802000Y-137286000D01*
X121802000Y-137286000D02*
X123491000Y-137286000D01*
X123491000Y-137286000D02*
X126088000Y-134688000D01*
X126088000Y-134688000D02*
X126088000Y-108308000D01*
X126088000Y-108308000D02*
X124460000Y-106680000D01*
X101600000Y-102870000D02*
X101600000Y-103995000D01*
X101600000Y-103995000D02*
X101319000Y-103995000D01*
X101319000Y-103995000D02*
X100475000Y-104839000D01*
X100475000Y-104839000D02*
X100475000Y-105891000D01*
X100475000Y-105891000D02*
X101133000Y-106549000D01*
X101133000Y-106549000D02*
X105513000Y-106549000D01*
X105513000Y-106549000D02*
X107922000Y-104140000D01*
X107922000Y-104140000D02*
X109220000Y-104140000D01*
X58420000Y-205740000D02*
X58420000Y-168089000D01*
X58420000Y-168089000D02*
X60264800Y-166244000D01*
X63500000Y-127000000D02*
X63500000Y-125875000D01*
X63500000Y-125875000D02*
X63781400Y-125875000D01*
X63781400Y-125875000D02*
X64625300Y-125031000D01*
X64625300Y-125031000D02*
X64625300Y-124280000D01*
X64625300Y-124280000D02*
X70795300Y-118110000D01*
X70795300Y-118110000D02*
X71868700Y-118110000D01*
X71868700Y-118110000D02*
X74264100Y-115715000D01*
X74264100Y-115715000D02*
X79712400Y-115715000D01*
X79712400Y-115715000D02*
X81990100Y-117992000D01*
X81990100Y-117992000D02*
X88072300Y-117992000D01*
X88072300Y-117992000D02*
X91251500Y-114813000D01*
X91251500Y-114813000D02*
X99432700Y-114813000D01*
X99432700Y-114813000D02*
X102450000Y-111796000D01*
X86360000Y-105410000D02*
X91809500Y-105410000D01*
X91809500Y-105410000D02*
X95555700Y-109156000D01*
X95555700Y-109156000D02*
X103376000Y-109156000D01*
X103376000Y-109156000D02*
X107394000Y-113175000D01*
X107394000Y-113175000D02*
X122209000Y-113175000D01*
X122209000Y-113175000D02*
X123335000Y-114300000D01*
X123335000Y-114300000D02*
X124460000Y-114300000D01*
X60960000Y-208280000D02*
X60960000Y-207105000D01*
X60960000Y-207105000D02*
X60592700Y-207105000D01*
X60592700Y-207105000D02*
X59747300Y-206259000D01*
X59747300Y-206259000D02*
X59747300Y-167918000D01*
X59747300Y-167918000D02*
X60243200Y-167422000D01*
X63500000Y-129540000D02*
X63500000Y-128415000D01*
X63500000Y-128415000D02*
X63218700Y-128415000D01*
X63218700Y-128415000D02*
X62331200Y-127527000D01*
X62331200Y-127527000D02*
X62331200Y-118954000D01*
X62331200Y-118954000D02*
X63319700Y-117965000D01*
X63319700Y-117965000D02*
X64761100Y-117965000D01*
X64761100Y-117965000D02*
X68748800Y-113978000D01*
X68748800Y-113978000D02*
X80143200Y-113978000D01*
X86360000Y-102870000D02*
X86360000Y-103995000D01*
X86360000Y-103995000D02*
X86078700Y-103995000D01*
X86078700Y-103995000D02*
X85206800Y-104867000D01*
X85206800Y-104867000D02*
X85206800Y-105848000D01*
X85206800Y-105848000D02*
X88599300Y-109241000D01*
X88599300Y-109241000D02*
X93953200Y-109241000D01*
X93953200Y-109241000D02*
X94318800Y-109606000D01*
X94318800Y-109606000D02*
X102551000Y-109606000D01*
X102551000Y-109606000D02*
X108515000Y-115570000D01*
X108515000Y-115570000D02*
X119525000Y-115570000D01*
X119525000Y-115570000D02*
X123335000Y-119380000D01*
X123335000Y-119380000D02*
X124460000Y-119380000D01*
X60960000Y-205740000D02*
X60960000Y-204565000D01*
X60960000Y-204565000D02*
X61253700Y-204271000D01*
X61253700Y-204271000D02*
X61253700Y-167492000D01*
X63500000Y-132080000D02*
X67314700Y-132080000D01*
X67314700Y-132080000D02*
X68584700Y-130810000D01*
X68584700Y-130810000D02*
X71498500Y-130810000D01*
X71498500Y-130810000D02*
X74980000Y-127328000D01*
X74980000Y-127328000D02*
X74980000Y-126153000D01*
X74980000Y-126153000D02*
X77767600Y-123366000D01*
X86360000Y-100330000D02*
X87485300Y-100330000D01*
X87485300Y-100330000D02*
X95861200Y-108706000D01*
X95861200Y-108706000D02*
X105794000Y-108706000D01*
X105794000Y-108706000D02*
X107723000Y-110635000D01*
X107723000Y-110635000D02*
X122209000Y-110635000D01*
X122209000Y-110635000D02*
X123335000Y-111760000D01*
X123335000Y-111760000D02*
X124460000Y-111760000D01*
X63500000Y-208280000D02*
X63500000Y-207105000D01*
X63500000Y-207105000D02*
X63132700Y-207105000D01*
X63132700Y-207105000D02*
X62202300Y-206174000D01*
X62202300Y-206174000D02*
X62202300Y-168334000D01*
X62202300Y-168334000D02*
X62036000Y-168167000D01*
X63500000Y-134620000D02*
X64625300Y-134620000D01*
X64625300Y-134620000D02*
X65750600Y-133495000D01*
X65750600Y-133495000D02*
X71377200Y-133495000D01*
X71377200Y-133495000D02*
X76277900Y-128594000D01*
X76277900Y-128594000D02*
X76277900Y-127842000D01*
X76277900Y-127842000D02*
X78390200Y-125730000D01*
X78390200Y-125730000D02*
X79559700Y-125730000D01*
X79559700Y-125730000D02*
X82173600Y-123116000D01*
X82173600Y-123116000D02*
X87729000Y-123116000D01*
X87729000Y-123116000D02*
X88885700Y-121959000D01*
X63500000Y-205740000D02*
X63500000Y-204565000D01*
X63500000Y-204565000D02*
X65056200Y-203008000D01*
X65056200Y-203008000D02*
X65056200Y-167685000D01*
X63500000Y-137160000D02*
X64625300Y-137160000D01*
X64625300Y-137160000D02*
X65750600Y-136035000D01*
X65750600Y-136035000D02*
X71347900Y-136035000D01*
X71347900Y-136035000D02*
X77003200Y-130379000D01*
X77003200Y-130379000D02*
X77003200Y-128621000D01*
X86360000Y-97790000D02*
X86360000Y-98915300D01*
X86360000Y-98915300D02*
X87388100Y-98915300D01*
X87388100Y-98915300D02*
X96280600Y-107808000D01*
X96280600Y-107808000D02*
X122209000Y-107808000D01*
X124460000Y-109220000D02*
X123335000Y-109220000D01*
X123335000Y-109220000D02*
X122209000Y-108095000D01*
X122209000Y-108095000D02*
X122209000Y-107808000D01*
X124460000Y-64770000D02*
X124460000Y-65895300D01*
X124460000Y-65895300D02*
X124741000Y-65895300D01*
X124741000Y-65895300D02*
X127875000Y-69029400D01*
X127875000Y-69029400D02*
X127875000Y-92533200D01*
X127875000Y-92533200D02*
X122209000Y-98199200D01*
X122209000Y-98199200D02*
X122209000Y-107808000D01*
X66040000Y-208280000D02*
X66040000Y-207105000D01*
X66040000Y-207105000D02*
X65672700Y-207105000D01*
X65672700Y-207105000D02*
X64841600Y-206274000D01*
X64841600Y-206274000D02*
X64841600Y-205126000D01*
X64841600Y-205126000D02*
X66387600Y-203580000D01*
X66387600Y-203580000D02*
X66387600Y-158075000D01*
X66387600Y-158075000D02*
X70792500Y-153670000D01*
X70792500Y-153670000D02*
X72856100Y-153670000D01*
X72856100Y-153670000D02*
X75463300Y-151063000D01*
X86360000Y-95250000D02*
X86360000Y-96375300D01*
X86360000Y-96375300D02*
X86546300Y-96375300D01*
X86546300Y-96375300D02*
X91863700Y-101693000D01*
X91863700Y-101693000D02*
X91863700Y-102686000D01*
X91863700Y-102686000D02*
X96363400Y-107186000D01*
X96363400Y-107186000D02*
X107588000Y-107186000D01*
X107588000Y-107186000D02*
X108095000Y-106680000D01*
X108095000Y-106680000D02*
X109220000Y-106680000D01*
X86360000Y-92710000D02*
X98227200Y-92710000D01*
X98227200Y-92710000D02*
X99360500Y-91576700D01*
X99360500Y-91576700D02*
X103589000Y-91576700D01*
X103589000Y-91576700D02*
X104167000Y-92154600D01*
X104167000Y-92154600D02*
X105388000Y-92154600D01*
X66040000Y-205740000D02*
X66040000Y-204565000D01*
X66040000Y-204565000D02*
X66837900Y-203767000D01*
X66837900Y-203767000D02*
X66837900Y-165223000D01*
X66837900Y-165223000D02*
X70915700Y-161145000D01*
X70915700Y-161145000D02*
X71120000Y-161145000D01*
X71120000Y-161145000D02*
X71120000Y-160020000D01*
X86360000Y-90170000D02*
X87485300Y-90170000D01*
X87485300Y-90170000D02*
X88642700Y-89012600D01*
X88642700Y-89012600D02*
X105003000Y-89012600D01*
X105003000Y-89012600D02*
X105866000Y-89876100D01*
X68580000Y-208280000D02*
X68580000Y-207105000D01*
X68580000Y-207105000D02*
X68212700Y-207105000D01*
X68212700Y-207105000D02*
X67389400Y-206281000D01*
X67389400Y-206281000D02*
X67389400Y-177244000D01*
X67389400Y-177244000D02*
X72245300Y-172389000D01*
X72245300Y-172389000D02*
X72245300Y-159449000D01*
X72245300Y-159449000D02*
X71401400Y-158605000D01*
X71401400Y-158605000D02*
X71120000Y-158605000D01*
X71120000Y-158605000D02*
X71120000Y-157480000D01*
X68580000Y-205740000D02*
X68580000Y-204565000D01*
X68580000Y-204565000D02*
X68134000Y-204119000D01*
X68134000Y-204119000D02*
X68134000Y-181122000D01*
X68134000Y-181122000D02*
X72696200Y-176560000D01*
X72696200Y-176560000D02*
X72696200Y-157360000D01*
X72696200Y-157360000D02*
X71401300Y-156065000D01*
X71401300Y-156065000D02*
X71120000Y-156065000D01*
X71120000Y-156065000D02*
X71120000Y-154940000D01*
X86360000Y-87630000D02*
X87485300Y-87630000D01*
X87485300Y-87630000D02*
X87935700Y-87179600D01*
X87935700Y-87179600D02*
X99515100Y-87179600D01*
X99515100Y-87179600D02*
X100238000Y-86456400D01*
X100238000Y-86456400D02*
X102189000Y-86456400D01*
X102189000Y-86456400D02*
X103413000Y-87680400D01*
X103413000Y-87680400D02*
X106447000Y-87680400D01*
X109220000Y-116840000D02*
X108095000Y-116840000D01*
X108095000Y-116840000D02*
X108095000Y-116347000D01*
X108095000Y-116347000D02*
X101934000Y-110186000D01*
X101934000Y-110186000D02*
X93872900Y-110186000D01*
X93872900Y-110186000D02*
X93722100Y-110036000D01*
X71120000Y-208280000D02*
X69850000Y-207010000D01*
X69850000Y-207010000D02*
X69850000Y-192982000D01*
X69850000Y-192982000D02*
X68584400Y-191716000D01*
X68584400Y-191716000D02*
X68584400Y-181836000D01*
X68584400Y-181836000D02*
X76292100Y-174128000D01*
X76292100Y-174128000D02*
X76292100Y-151424000D01*
X76292100Y-151424000D02*
X77508400Y-150208000D01*
X77508400Y-150208000D02*
X92444700Y-150208000D01*
X92444700Y-150208000D02*
X93695600Y-148957000D01*
X93695600Y-148957000D02*
X102574000Y-148957000D01*
X102574000Y-148957000D02*
X105801000Y-145730000D01*
X93980000Y-165100000D02*
X93980000Y-166225000D01*
X93980000Y-166225000D02*
X94261400Y-166225000D01*
X94261400Y-166225000D02*
X95105300Y-167069000D01*
X95105300Y-167069000D02*
X95105300Y-168140000D01*
X95105300Y-168140000D02*
X93963400Y-169281000D01*
X93963400Y-169281000D02*
X81775500Y-169281000D01*
X81775500Y-169281000D02*
X69044100Y-182013000D01*
X69044100Y-182013000D02*
X69044100Y-189318000D01*
X69044100Y-189318000D02*
X72390000Y-192664000D01*
X72390000Y-192664000D02*
X72390000Y-206171000D01*
X72390000Y-206171000D02*
X73323700Y-207105000D01*
X73323700Y-207105000D02*
X74216800Y-207105000D01*
X74216800Y-207105000D02*
X75024700Y-207913000D01*
X75024700Y-207913000D02*
X75024700Y-208280000D01*
X75024700Y-208280000D02*
X76200000Y-208280000D01*
X86360000Y-205740000D02*
X87535300Y-205740000D01*
X87535300Y-205740000D02*
X87535300Y-206107000D01*
X87535300Y-206107000D02*
X88343400Y-206915000D01*
X88343400Y-206915000D02*
X94505600Y-206915000D01*
X94505600Y-206915000D02*
X95250000Y-206171000D01*
X95250000Y-206171000D02*
X95250000Y-205303000D01*
X95250000Y-205303000D02*
X97675300Y-202878000D01*
X97675300Y-202878000D02*
X133273000Y-202878000D01*
X133273000Y-202878000D02*
X134865000Y-204470000D01*
X134865000Y-204470000D02*
X135890000Y-204470000D01*
X105373000Y-209459000D02*
X105373000Y-204418000D01*
X105373000Y-204418000D02*
X105174000Y-204219000D01*
X88900000Y-208280000D02*
X90075300Y-208280000D01*
X90075300Y-208280000D02*
X90075300Y-208647000D01*
X90075300Y-208647000D02*
X90887300Y-209459000D01*
X90887300Y-209459000D02*
X105373000Y-209459000D01*
X135890000Y-210820000D02*
X134865000Y-210820000D01*
X134865000Y-210820000D02*
X133504000Y-209459000D01*
X133504000Y-209459000D02*
X105373000Y-209459000D01*
X101600000Y-57150000D02*
X100475000Y-57150000D01*
X100475000Y-57150000D02*
X89044700Y-68580000D01*
X89044700Y-68580000D02*
X78377500Y-68580000D01*
X78377500Y-68580000D02*
X77614700Y-69342800D01*
X77614700Y-69342800D02*
X77614700Y-70420800D01*
X77614700Y-70420800D02*
X78458600Y-71264700D01*
X78458600Y-71264700D02*
X78740000Y-71264700D01*
X78740000Y-71264700D02*
X78740000Y-72390000D01*
X55880000Y-85090000D02*
X57005300Y-85090000D01*
X57005300Y-85090000D02*
X58130600Y-86215300D01*
X58130600Y-86215300D02*
X63681500Y-86215300D01*
X63681500Y-86215300D02*
X77614600Y-100148000D01*
X77614600Y-100148000D02*
X77614600Y-104285000D01*
X77614600Y-104285000D02*
X78740000Y-105410000D01*
X78740000Y-152400000D02*
X79865300Y-152400000D01*
X79865300Y-152400000D02*
X79865300Y-152681000D01*
X79865300Y-152681000D02*
X86078700Y-158895000D01*
X86078700Y-158895000D02*
X99349400Y-158895000D01*
X99349400Y-158895000D02*
X100475000Y-160020000D01*
X100475000Y-160020000D02*
X101600000Y-160020000D01*
X78740000Y-105410000D02*
X78740000Y-108148000D01*
X78740000Y-108148000D02*
X79223700Y-108632000D01*
X101600000Y-72390000D02*
X97767000Y-72390000D01*
X97767000Y-72390000D02*
X89995900Y-80161100D01*
X78740000Y-95250000D02*
X77614700Y-95250000D01*
X77614700Y-95250000D02*
X66040000Y-83675300D01*
X66040000Y-83675300D02*
X58130600Y-83675300D01*
X58130600Y-83675300D02*
X57005300Y-82550000D01*
X57005300Y-82550000D02*
X55880000Y-82550000D01*
X96614100Y-65914800D02*
X99329900Y-65914800D01*
X99329900Y-65914800D02*
X100475000Y-64770000D01*
X100475000Y-64770000D02*
X101600000Y-64770000D01*
X82372700Y-106232000D02*
X82372700Y-99726700D01*
X82372700Y-99726700D02*
X79021300Y-96375300D01*
X79021300Y-96375300D02*
X78740000Y-96375300D01*
X78740000Y-96375300D02*
X78740000Y-95250000D01*
X86360000Y-62230000D02*
X92411600Y-62230000D01*
X92411600Y-62230000D02*
X99127000Y-55514600D01*
X99127000Y-55514600D02*
X102625000Y-55514600D01*
X102625000Y-55514600D02*
X105386000Y-58275400D01*
X105386000Y-58275400D02*
X110020000Y-58275400D01*
X110020000Y-58275400D02*
X110340000Y-58595400D01*
X91440000Y-205740000D02*
X92615300Y-205740000D01*
X92615300Y-205740000D02*
X92615300Y-205373000D01*
X92615300Y-205373000D02*
X95560200Y-202428000D01*
X95560200Y-202428000D02*
X130557000Y-202428000D01*
X130557000Y-202428000D02*
X134865000Y-198120000D01*
X134865000Y-198120000D02*
X135890000Y-198120000D01*
X78740000Y-74930000D02*
X77614700Y-74930000D01*
X77614700Y-74930000D02*
X66040000Y-63355300D01*
X66040000Y-63355300D02*
X58130600Y-63355300D01*
X58130600Y-63355300D02*
X57005300Y-62230000D01*
X57005300Y-62230000D02*
X55880000Y-62230000D01*
X96520000Y-208280000D02*
X96520000Y-207105000D01*
X96520000Y-207105000D02*
X96887400Y-207105000D01*
X96887400Y-207105000D02*
X97695300Y-206297000D01*
X97695300Y-206297000D02*
X97695300Y-205423000D01*
X97695300Y-205423000D02*
X99515200Y-203604000D01*
X99515200Y-203604000D02*
X100791000Y-203604000D01*
X78740000Y-74930000D02*
X79865300Y-74930000D01*
X79865300Y-74930000D02*
X83819900Y-78884600D01*
X83819900Y-78884600D02*
X87693700Y-78884600D01*
X87693700Y-78884600D02*
X89695500Y-80886400D01*
X89695500Y-80886400D02*
X90296400Y-80886400D01*
X90296400Y-80886400D02*
X90835900Y-80346900D01*
X90835900Y-80346900D02*
X90835900Y-80276000D01*
X90835900Y-80276000D02*
X96181900Y-74930000D01*
X96181900Y-74930000D02*
X101600000Y-74930000D01*
X86360000Y-121920000D02*
X87485300Y-121920000D01*
X87485300Y-121920000D02*
X87485300Y-121275000D01*
X87485300Y-121275000D02*
X93045200Y-115715000D01*
X93045200Y-115715000D02*
X103006000Y-115715000D01*
X103006000Y-115715000D02*
X107941000Y-120650000D01*
X107941000Y-120650000D02*
X109561000Y-120650000D01*
X109561000Y-120650000D02*
X110877000Y-121966000D01*
X110877000Y-121966000D02*
X110877000Y-125343000D01*
X110877000Y-125343000D02*
X109220000Y-127000000D01*
X101600000Y-165100000D02*
X108365000Y-165100000D01*
X109220000Y-82550000D02*
X105159000Y-82550000D01*
X105159000Y-82550000D02*
X104128000Y-81519100D01*
X78740000Y-77470000D02*
X77614700Y-77470000D01*
X77614700Y-77470000D02*
X66040000Y-65895300D01*
X66040000Y-65895300D02*
X58130600Y-65895300D01*
X58130600Y-65895300D02*
X57005300Y-64770000D01*
X57005300Y-64770000D02*
X55880000Y-64770000D01*
X78740000Y-77470000D02*
X79865300Y-77470000D01*
X79865300Y-77470000D02*
X83739100Y-81343800D01*
X83739100Y-81343800D02*
X88879100Y-81343800D01*
X88879100Y-81343800D02*
X89322300Y-81787000D01*
X89322300Y-81787000D02*
X90669600Y-81787000D01*
X90669600Y-81787000D02*
X94986600Y-77470000D01*
X94986600Y-77470000D02*
X101600000Y-77470000D01*
X109220000Y-129540000D02*
X108095000Y-129540000D01*
X108095000Y-129540000D02*
X106705000Y-128151000D01*
X106705000Y-128151000D02*
X88636000Y-128151000D01*
X88636000Y-128151000D02*
X87485300Y-127000000D01*
X87485300Y-127000000D02*
X86360000Y-127000000D01*
X109220000Y-85090000D02*
X105940000Y-85090000D01*
X105940000Y-85090000D02*
X104051000Y-83200800D01*
X109220000Y-132080000D02*
X108095000Y-132080000D01*
X108095000Y-132080000D02*
X106969000Y-130955000D01*
X106969000Y-130955000D02*
X88610600Y-130955000D01*
X88610600Y-130955000D02*
X87485300Y-132080000D01*
X87485300Y-132080000D02*
X86360000Y-132080000D01*
X109220000Y-87630000D02*
X108095000Y-87630000D01*
X108095000Y-87630000D02*
X106969000Y-86504600D01*
X106969000Y-86504600D02*
X105171000Y-86504600D01*
X105171000Y-86504600D02*
X102725000Y-84059300D01*
X78740000Y-80010000D02*
X77614700Y-80010000D01*
X77614700Y-80010000D02*
X66040000Y-68435300D01*
X66040000Y-68435300D02*
X58130600Y-68435300D01*
X58130600Y-68435300D02*
X57005300Y-67310000D01*
X57005300Y-67310000D02*
X55880000Y-67310000D01*
X102725000Y-84059300D02*
X102627000Y-83961400D01*
X102627000Y-83961400D02*
X95064100Y-83961400D01*
X95064100Y-83961400D02*
X94447600Y-84577900D01*
X78740000Y-82550000D02*
X77614700Y-82550000D01*
X77614700Y-82550000D02*
X66040000Y-70975300D01*
X66040000Y-70975300D02*
X58130600Y-70975300D01*
X58130600Y-70975300D02*
X57005300Y-69850000D01*
X57005300Y-69850000D02*
X55880000Y-69850000D01*
X86360000Y-137160000D02*
X87485300Y-137160000D01*
X87485300Y-137160000D02*
X92115100Y-141790000D01*
X92115100Y-141790000D02*
X102348000Y-141790000D01*
X102348000Y-141790000D02*
X106314000Y-137823000D01*
X106314000Y-137823000D02*
X120132000Y-137823000D01*
X120132000Y-137823000D02*
X123335000Y-134620000D01*
X123335000Y-134620000D02*
X124460000Y-134620000D01*
X101600000Y-82550000D02*
X100475000Y-82550000D01*
X100475000Y-82550000D02*
X99904900Y-83119800D01*
X99904900Y-83119800D02*
X89237800Y-83119800D01*
X89237800Y-83119800D02*
X88682300Y-83675300D01*
X88682300Y-83675300D02*
X80990600Y-83675300D01*
X80990600Y-83675300D02*
X79865300Y-82550000D01*
X79865300Y-82550000D02*
X78740000Y-82550000D01*
X124460000Y-90170000D02*
X124460000Y-89044700D01*
X124460000Y-89044700D02*
X124741000Y-89044700D01*
X124741000Y-89044700D02*
X125604000Y-88181600D01*
X125604000Y-88181600D02*
X125604000Y-87151900D01*
X125604000Y-87151900D02*
X124732000Y-86279500D01*
X124732000Y-86279500D02*
X113904000Y-86279500D01*
X113904000Y-86279500D02*
X111524000Y-83899700D01*
X111524000Y-83899700D02*
X105824000Y-83899700D01*
X105824000Y-83899700D02*
X104398000Y-82474400D01*
X104398000Y-82474400D02*
X102801000Y-82474400D01*
X102801000Y-82474400D02*
X102725000Y-82550000D01*
X102725000Y-82550000D02*
X101600000Y-82550000D01*
X78740000Y-85090000D02*
X77614700Y-85090000D01*
X77614700Y-85090000D02*
X66040000Y-73515300D01*
X66040000Y-73515300D02*
X58130600Y-73515300D01*
X58130600Y-73515300D02*
X57005300Y-72390000D01*
X57005300Y-72390000D02*
X55880000Y-72390000D01*
X78740000Y-85090000D02*
X79865300Y-85090000D01*
X79865300Y-85090000D02*
X80990600Y-86215300D01*
X80990600Y-86215300D02*
X99349400Y-86215300D01*
X99349400Y-86215300D02*
X100475000Y-85090000D01*
X100475000Y-85090000D02*
X101600000Y-85090000D01*
X78740000Y-137160000D02*
X79865300Y-137160000D01*
X79865300Y-137160000D02*
X81014700Y-136011000D01*
X81014700Y-136011000D02*
X87271100Y-136011000D01*
X87271100Y-136011000D02*
X92599900Y-141339000D01*
X92599900Y-141339000D02*
X101653000Y-141339000D01*
X101653000Y-141339000D02*
X105620000Y-137373000D01*
X105620000Y-137373000D02*
X118042000Y-137373000D01*
X118042000Y-137373000D02*
X123335000Y-132080000D01*
X123335000Y-132080000D02*
X124460000Y-132080000D01*
X124460000Y-87630000D02*
X123335000Y-87630000D01*
X123335000Y-87630000D02*
X122182000Y-88782500D01*
X122182000Y-88782500D02*
X108602000Y-88782500D01*
X108602000Y-88782500D02*
X106774000Y-86955000D01*
X106774000Y-86955000D02*
X104590000Y-86955000D01*
X104590000Y-86955000D02*
X102725000Y-85090000D01*
X102725000Y-85090000D02*
X101600000Y-85090000D01*
X78740000Y-87630000D02*
X77614700Y-87630000D01*
X77614700Y-87630000D02*
X66040000Y-76055300D01*
X66040000Y-76055300D02*
X58130600Y-76055300D01*
X58130600Y-76055300D02*
X57005300Y-74930000D01*
X57005300Y-74930000D02*
X55880000Y-74930000D01*
X101600000Y-87630000D02*
X88895300Y-87630000D01*
X88895300Y-87630000D02*
X87770000Y-88755300D01*
X87770000Y-88755300D02*
X80990600Y-88755300D01*
X80990600Y-88755300D02*
X79865300Y-87630000D01*
X79865300Y-87630000D02*
X78740000Y-87630000D01*
X124460000Y-129540000D02*
X123335000Y-129540000D01*
X123335000Y-129540000D02*
X116324000Y-136550000D01*
X116324000Y-136550000D02*
X104978000Y-136550000D01*
X104978000Y-136550000D02*
X103098000Y-138430000D01*
X103098000Y-138430000D02*
X99255200Y-138430000D01*
X99255200Y-138430000D02*
X97362000Y-140323000D01*
X78740000Y-132080000D02*
X79865300Y-132080000D01*
X79865300Y-132080000D02*
X80990600Y-133205000D01*
X80990600Y-133205000D02*
X86599100Y-133205000D01*
X86599100Y-133205000D02*
X88419500Y-135026000D01*
X88419500Y-135026000D02*
X88419500Y-135773000D01*
X88419500Y-135773000D02*
X93511500Y-140865000D01*
X93511500Y-140865000D02*
X96820000Y-140865000D01*
X96820000Y-140865000D02*
X97362000Y-140323000D01*
X101600000Y-87630000D02*
X102725000Y-87630000D01*
X102725000Y-87630000D02*
X103248000Y-88153200D01*
X103248000Y-88153200D02*
X105548000Y-88153200D01*
X105548000Y-88153200D02*
X108692000Y-91297100D01*
X108692000Y-91297100D02*
X124944000Y-91297100D01*
X124944000Y-91297100D02*
X126055000Y-90185900D01*
X126055000Y-90185900D02*
X126055000Y-86684800D01*
X126055000Y-86684800D02*
X124460000Y-85090000D01*
X78740000Y-90170000D02*
X77614700Y-90170000D01*
X77614700Y-90170000D02*
X66040000Y-78595300D01*
X66040000Y-78595300D02*
X58130600Y-78595300D01*
X58130600Y-78595300D02*
X57005300Y-77470000D01*
X57005300Y-77470000D02*
X55880000Y-77470000D01*
X101600000Y-90170000D02*
X99837900Y-90170000D01*
X99837900Y-90170000D02*
X98712600Y-91295300D01*
X98712600Y-91295300D02*
X80990600Y-91295300D01*
X80990600Y-91295300D02*
X79865300Y-90170000D01*
X79865300Y-90170000D02*
X78740000Y-90170000D01*
X124460000Y-127000000D02*
X123335000Y-127000000D01*
X123335000Y-127000000D02*
X122206000Y-128128000D01*
X122206000Y-128128000D02*
X107881000Y-128128000D01*
X107881000Y-128128000D02*
X105628000Y-125875000D01*
X105628000Y-125875000D02*
X80990600Y-125875000D01*
X80990600Y-125875000D02*
X79865300Y-127000000D01*
X79865300Y-127000000D02*
X78740000Y-127000000D01*
X124460000Y-82550000D02*
X124460000Y-83675300D01*
X124460000Y-83675300D02*
X124690000Y-83675300D01*
X124690000Y-83675300D02*
X126505000Y-85490900D01*
X126505000Y-85490900D02*
X126505000Y-90372400D01*
X126505000Y-90372400D02*
X125130000Y-91747500D01*
X125130000Y-91747500D02*
X108077000Y-91747500D01*
X108077000Y-91747500D02*
X107683000Y-91353500D01*
X107683000Y-91353500D02*
X104408000Y-91353500D01*
X104408000Y-91353500D02*
X103224000Y-90170000D01*
X103224000Y-90170000D02*
X101600000Y-90170000D01*
X124460000Y-80010000D02*
X124460000Y-81135300D01*
X124460000Y-81135300D02*
X124741000Y-81135300D01*
X124741000Y-81135300D02*
X126959000Y-83353100D01*
X126959000Y-83353100D02*
X126959000Y-90564900D01*
X126959000Y-90564900D02*
X124637000Y-92886800D01*
X124637000Y-92886800D02*
X102902000Y-92886800D01*
X102902000Y-92886800D02*
X102725000Y-92710000D01*
X102725000Y-92710000D02*
X101600000Y-92710000D01*
X101600000Y-92710000D02*
X100475000Y-92710000D01*
X100475000Y-92710000D02*
X99092100Y-94092600D01*
X99092100Y-94092600D02*
X83128900Y-94092600D01*
X78740000Y-92710000D02*
X77614700Y-92710000D01*
X77614700Y-92710000D02*
X66040000Y-81135300D01*
X66040000Y-81135300D02*
X58130600Y-81135300D01*
X58130600Y-81135300D02*
X57005300Y-80010000D01*
X57005300Y-80010000D02*
X55880000Y-80010000D01*
X82828500Y-108501000D02*
X83128900Y-108201000D01*
X83128900Y-108201000D02*
X83128900Y-94092600D01*
X83128900Y-94092600D02*
X81247900Y-94092600D01*
X81247900Y-94092600D02*
X79865300Y-92710000D01*
X79865300Y-92710000D02*
X78740000Y-92710000D01*
X93980000Y-152400000D02*
X95105300Y-152400000D01*
X95105300Y-152400000D02*
X96947400Y-150558000D01*
X96947400Y-150558000D02*
X108522000Y-150558000D01*
X108522000Y-150558000D02*
X114300000Y-144780000D01*
X93980000Y-160020000D02*
X93980000Y-162560000D01*
X93980000Y-162560000D02*
X95105300Y-162560000D01*
X95105300Y-162560000D02*
X96241200Y-161424000D01*
X96241200Y-161424000D02*
X111894000Y-161424000D01*
X111894000Y-161424000D02*
X113030000Y-162560000D01*
X71120000Y-127000000D02*
X69994700Y-127000000D01*
X69994700Y-127000000D02*
X66324400Y-130670000D01*
X66324400Y-130670000D02*
X62973300Y-130670000D01*
X62973300Y-130670000D02*
X59400000Y-127097000D01*
X59400000Y-127097000D02*
X59400000Y-124804000D01*
X59400000Y-124804000D02*
X53995700Y-119399000D01*
X154940000Y-64770000D02*
X153815000Y-64770000D01*
X153815000Y-64770000D02*
X152689000Y-65895300D01*
X152689000Y-65895300D02*
X143221000Y-65895300D01*
X143221000Y-65895300D02*
X142095000Y-64770000D01*
X142095000Y-64770000D02*
X140970000Y-64770000D01*
X196850000Y-64770000D02*
X197975000Y-64770000D01*
X197975000Y-64770000D02*
X199101000Y-65895300D01*
X199101000Y-65895300D02*
X208569000Y-65895300D01*
X208569000Y-65895300D02*
X209695000Y-64770000D01*
X209695000Y-64770000D02*
X210820000Y-64770000D01*
X182880000Y-64770000D02*
X184005000Y-64770000D01*
X184005000Y-64770000D02*
X185131000Y-65895300D01*
X185131000Y-65895300D02*
X194599000Y-65895300D01*
X194599000Y-65895300D02*
X195725000Y-64770000D01*
X195725000Y-64770000D02*
X196850000Y-64770000D01*
X154940000Y-64770000D02*
X156065000Y-64770000D01*
X156065000Y-64770000D02*
X157191000Y-65895300D01*
X157191000Y-65895300D02*
X166659000Y-65895300D01*
X166659000Y-65895300D02*
X167785000Y-64770000D01*
X167785000Y-64770000D02*
X168910000Y-64770000D01*
X101600000Y-167640000D02*
X102725000Y-167640000D01*
X102725000Y-167640000D02*
X104218000Y-166147000D01*
X104218000Y-166147000D02*
X115110000Y-166147000D01*
X115110000Y-166147000D02*
X117632000Y-168669000D01*
X117632000Y-168669000D02*
X121074000Y-168669000D01*
X121074000Y-168669000D02*
X122833000Y-166910000D01*
X122833000Y-166910000D02*
X122833000Y-166371000D01*
X122833000Y-166371000D02*
X129644000Y-159561000D01*
X140970000Y-62230000D02*
X139845000Y-62230000D01*
X139845000Y-62230000D02*
X139845000Y-62511300D01*
X139845000Y-62511300D02*
X133776000Y-68580000D01*
X133776000Y-68580000D02*
X132996000Y-68580000D01*
X132996000Y-68580000D02*
X130746000Y-70830100D01*
X130746000Y-70830100D02*
X130746000Y-93259800D01*
X130746000Y-93259800D02*
X123312000Y-100694000D01*
X123312000Y-100694000D02*
X123312000Y-102067000D01*
X123312000Y-102067000D02*
X124196000Y-102951000D01*
X124196000Y-102951000D02*
X124891000Y-102951000D01*
X124891000Y-102951000D02*
X126539000Y-104599000D01*
X126539000Y-104599000D02*
X126539000Y-134875000D01*
X126539000Y-134875000D02*
X123623000Y-137790000D01*
X123623000Y-137790000D02*
X122159000Y-137790000D01*
X122159000Y-137790000D02*
X120935000Y-139015000D01*
X120935000Y-139015000D02*
X106396000Y-139015000D01*
X106396000Y-139015000D02*
X102572000Y-142839000D01*
X102572000Y-142839000D02*
X82611800Y-142839000D01*
X82611800Y-142839000D02*
X81661300Y-143790000D01*
X81661300Y-143790000D02*
X69971800Y-143790000D01*
X69971800Y-143790000D02*
X65316200Y-148445000D01*
X65316200Y-148445000D02*
X64055700Y-148445000D01*
X64055700Y-148445000D02*
X60990200Y-151511000D01*
X60990200Y-151511000D02*
X60990200Y-164286000D01*
X60990200Y-164286000D02*
X63218700Y-166515000D01*
X63218700Y-166515000D02*
X63500000Y-166515000D01*
X63500000Y-166515000D02*
X63500000Y-167640000D01*
X147320000Y-62230000D02*
X148445000Y-62230000D01*
X148445000Y-62230000D02*
X149571000Y-63355300D01*
X149571000Y-63355300D02*
X159039000Y-63355300D01*
X159039000Y-63355300D02*
X160165000Y-62230000D01*
X160165000Y-62230000D02*
X161290000Y-62230000D01*
X175260000Y-62230000D02*
X180345000Y-62230000D01*
X180345000Y-62230000D02*
X181481000Y-61093700D01*
X181481000Y-61093700D02*
X183833000Y-61093700D01*
X183833000Y-61093700D02*
X184970000Y-62230000D01*
X184970000Y-62230000D02*
X189230000Y-62230000D01*
X189230000Y-62230000D02*
X193924000Y-62230000D01*
X193924000Y-62230000D02*
X195061000Y-61093700D01*
X195061000Y-61093700D02*
X197803000Y-61093700D01*
X197803000Y-61093700D02*
X198940000Y-62230000D01*
X198940000Y-62230000D02*
X203200000Y-62230000D01*
X101600000Y-132080000D02*
X102725000Y-132080000D01*
X102725000Y-132080000D02*
X103916000Y-133271000D01*
X103916000Y-133271000D02*
X118060000Y-133271000D01*
X118060000Y-133271000D02*
X123060000Y-128270000D01*
X123060000Y-128270000D02*
X124801000Y-128270000D01*
X124801000Y-128270000D02*
X125599000Y-127473000D01*
X125599000Y-127473000D02*
X125599000Y-108709000D01*
X125599000Y-108709000D02*
X124840000Y-107950000D01*
X124840000Y-107950000D02*
X124087000Y-107950000D01*
X124087000Y-107950000D02*
X122862000Y-106724000D01*
X122862000Y-106724000D02*
X122862000Y-99794800D01*
X122862000Y-99794800D02*
X129607000Y-93048900D01*
X129607000Y-93048900D02*
X129607000Y-66911500D01*
X129607000Y-66911500D02*
X133276000Y-63242700D01*
X133276000Y-63242700D02*
X133350000Y-63242700D01*
X133350000Y-63242700D02*
X133350000Y-62736300D01*
X161290000Y-62230000D02*
X162415000Y-62230000D01*
X162415000Y-62230000D02*
X163541000Y-63355300D01*
X163541000Y-63355300D02*
X173009000Y-63355300D01*
X173009000Y-63355300D02*
X174135000Y-62230000D01*
X174135000Y-62230000D02*
X175260000Y-62230000D01*
X133350000Y-62230000D02*
X133350000Y-62736300D01*
X133350000Y-62736300D02*
X134982000Y-61104700D01*
X134982000Y-61104700D02*
X145069000Y-61104700D01*
X145069000Y-61104700D02*
X146195000Y-62230000D01*
X146195000Y-62230000D02*
X147320000Y-62230000D01*
X175260000Y-59690000D02*
X176385000Y-59690000D01*
X176385000Y-59690000D02*
X177511000Y-58564700D01*
X177511000Y-58564700D02*
X186979000Y-58564700D01*
X186979000Y-58564700D02*
X188105000Y-59690000D01*
X188105000Y-59690000D02*
X189230000Y-59690000D01*
X189230000Y-59690000D02*
X190355000Y-59690000D01*
X190355000Y-59690000D02*
X191481000Y-58564700D01*
X191481000Y-58564700D02*
X200949000Y-58564700D01*
X200949000Y-58564700D02*
X202075000Y-59690000D01*
X202075000Y-59690000D02*
X203200000Y-59690000D01*
X161290000Y-59690000D02*
X162415000Y-59690000D01*
X162415000Y-59690000D02*
X163541000Y-58564700D01*
X163541000Y-58564700D02*
X173009000Y-58564700D01*
X173009000Y-58564700D02*
X174135000Y-59690000D01*
X174135000Y-59690000D02*
X175260000Y-59690000D01*
X147320000Y-59690000D02*
X148445000Y-59690000D01*
X148445000Y-59690000D02*
X149571000Y-58564700D01*
X149571000Y-58564700D02*
X159039000Y-58564700D01*
X159039000Y-58564700D02*
X160165000Y-59690000D01*
X160165000Y-59690000D02*
X161290000Y-59690000D01*
X106632000Y-106456000D02*
X107678000Y-105410000D01*
X107678000Y-105410000D02*
X112751000Y-105410000D01*
X112751000Y-105410000D02*
X127410000Y-90751400D01*
X127410000Y-90751400D02*
X127410000Y-78798300D01*
X127410000Y-78798300D02*
X124885000Y-76273900D01*
X124885000Y-76273900D02*
X124207000Y-76273900D01*
X124207000Y-76273900D02*
X123320000Y-75386600D01*
X123320000Y-75386600D02*
X123320000Y-64306400D01*
X123320000Y-64306400D02*
X124126000Y-63500000D01*
X124126000Y-63500000D02*
X128415000Y-63500000D01*
X128415000Y-63500000D02*
X132225000Y-59690000D01*
X132225000Y-59690000D02*
X133350000Y-59690000D01*
X189230000Y-57150000D02*
X190355000Y-57150000D01*
X190355000Y-57150000D02*
X191481000Y-56024700D01*
X191481000Y-56024700D02*
X200949000Y-56024700D01*
X200949000Y-56024700D02*
X202075000Y-57150000D01*
X202075000Y-57150000D02*
X203200000Y-57150000D01*
X147320000Y-57150000D02*
X148445000Y-57150000D01*
X148445000Y-57150000D02*
X149571000Y-56024700D01*
X149571000Y-56024700D02*
X159039000Y-56024700D01*
X159039000Y-56024700D02*
X160165000Y-57150000D01*
X160165000Y-57150000D02*
X161290000Y-57150000D01*
X175260000Y-57150000D02*
X176385000Y-57150000D01*
X176385000Y-57150000D02*
X177511000Y-56024700D01*
X177511000Y-56024700D02*
X186979000Y-56024700D01*
X186979000Y-56024700D02*
X188105000Y-57150000D01*
X188105000Y-57150000D02*
X189230000Y-57150000D01*
X147320000Y-57150000D02*
X146195000Y-57150000D01*
X146195000Y-57150000D02*
X145069000Y-56024700D01*
X145069000Y-56024700D02*
X135601000Y-56024700D01*
X135601000Y-56024700D02*
X134475000Y-57150000D01*
X134475000Y-57150000D02*
X133350000Y-57150000D01*
X106322000Y-68124300D02*
X108407000Y-66040000D01*
X108407000Y-66040000D02*
X114254000Y-66040000D01*
X114254000Y-66040000D02*
X121729000Y-58564600D01*
X121729000Y-58564600D02*
X124885000Y-58564600D01*
X124885000Y-58564600D02*
X126300000Y-57150000D01*
X126300000Y-57150000D02*
X133350000Y-57150000D01*
X63500000Y-165100000D02*
X63500000Y-163975000D01*
X63500000Y-163975000D02*
X63781300Y-163975000D01*
X63781300Y-163975000D02*
X65215500Y-162540000D01*
X65215500Y-162540000D02*
X65215500Y-156706000D01*
X65215500Y-156706000D02*
X75879800Y-146041000D01*
X75879800Y-146041000D02*
X88002900Y-146041000D01*
X88002900Y-146041000D02*
X88953300Y-145091000D01*
X88953300Y-145091000D02*
X103823000Y-145091000D01*
X103823000Y-145091000D02*
X107648000Y-141266000D01*
X107648000Y-141266000D02*
X121868000Y-141266000D01*
X121868000Y-141266000D02*
X122093000Y-141041000D01*
X122093000Y-141041000D02*
X126554000Y-141041000D01*
X126554000Y-141041000D02*
X135160000Y-132435000D01*
X135160000Y-132435000D02*
X141607000Y-132435000D01*
X63500000Y-162560000D02*
X63500000Y-161435000D01*
X63500000Y-161435000D02*
X63781400Y-161435000D01*
X63781400Y-161435000D02*
X64625300Y-160591000D01*
X64625300Y-160591000D02*
X64625300Y-156936000D01*
X64625300Y-156936000D02*
X63899000Y-156210000D01*
X63899000Y-156210000D02*
X63172400Y-156210000D01*
X63172400Y-156210000D02*
X62374700Y-155412000D01*
X62374700Y-155412000D02*
X62374700Y-154458000D01*
X62374700Y-154458000D02*
X63307300Y-153525000D01*
X63307300Y-153525000D02*
X64434800Y-153525000D01*
X64434800Y-153525000D02*
X64625300Y-153335000D01*
X64625300Y-153335000D02*
X66728500Y-153335000D01*
X66728500Y-153335000D02*
X74922600Y-145141000D01*
X74922600Y-145141000D02*
X82221100Y-145141000D01*
X82221100Y-145141000D02*
X83171600Y-144190000D01*
X83171600Y-144190000D02*
X103132000Y-144190000D01*
X103132000Y-144190000D02*
X106956000Y-140366000D01*
X106956000Y-140366000D02*
X121495000Y-140366000D01*
X121495000Y-140366000D02*
X121720000Y-140141000D01*
X121720000Y-140141000D02*
X125890000Y-140141000D01*
X125890000Y-140141000D02*
X134964000Y-131066000D01*
X134964000Y-131066000D02*
X142020000Y-131066000D01*
X142020000Y-131066000D02*
X145010000Y-128075000D01*
X145010000Y-128075000D02*
X149514000Y-128075000D01*
X149514000Y-128075000D02*
X154399000Y-123190000D01*
X154399000Y-123190000D02*
X155193000Y-123190000D01*
X155193000Y-123190000D02*
X160215000Y-118169000D01*
X160215000Y-118169000D02*
X160215000Y-116385000D01*
X160215000Y-116385000D02*
X161189000Y-115411000D01*
X161189000Y-115411000D02*
X164253000Y-115411000D01*
X164253000Y-115411000D02*
X167490000Y-112173000D01*
X182880000Y-62230000D02*
X181755000Y-62230000D01*
X181755000Y-62230000D02*
X180485000Y-63500000D01*
X180485000Y-63500000D02*
X174933000Y-63500000D01*
X174933000Y-63500000D02*
X171599000Y-66833700D01*
X171599000Y-66833700D02*
X171599000Y-102905000D01*
X171599000Y-102905000D02*
X169008000Y-105496000D01*
X169008000Y-105496000D02*
X147654000Y-105496000D01*
X147654000Y-105496000D02*
X143850000Y-109299000D01*
X143850000Y-109299000D02*
X143850000Y-123134000D01*
X143850000Y-123134000D02*
X141254000Y-125730000D01*
X141254000Y-125730000D02*
X139026000Y-125730000D01*
X139026000Y-125730000D02*
X125582000Y-139174000D01*
X125582000Y-139174000D02*
X121412000Y-139174000D01*
X121412000Y-139174000D02*
X121122000Y-139465000D01*
X121122000Y-139465000D02*
X106583000Y-139465000D01*
X106583000Y-139465000D02*
X102759000Y-143290000D01*
X102759000Y-143290000D02*
X82798400Y-143290000D01*
X82798400Y-143290000D02*
X81847900Y-144240000D01*
X81847900Y-144240000D02*
X70158400Y-144240000D01*
X70158400Y-144240000D02*
X65502800Y-148896000D01*
X65502800Y-148896000D02*
X64242300Y-148896000D01*
X64242300Y-148896000D02*
X61440600Y-151697000D01*
X61440600Y-151697000D02*
X61440600Y-157117000D01*
X61440600Y-157117000D02*
X63218700Y-158895000D01*
X63218700Y-158895000D02*
X63500000Y-158895000D01*
X63500000Y-158895000D02*
X63500000Y-160020000D01*
X196850000Y-62230000D02*
X195725000Y-62230000D01*
X195725000Y-62230000D02*
X194599000Y-63355300D01*
X194599000Y-63355300D02*
X182311000Y-63355300D01*
X182311000Y-63355300D02*
X179626000Y-66040000D01*
X179626000Y-66040000D02*
X174915000Y-66040000D01*
X174915000Y-66040000D02*
X172542000Y-68412900D01*
X172542000Y-68412900D02*
X172542000Y-102599000D01*
X172542000Y-102599000D02*
X168546000Y-106595000D01*
X168546000Y-106595000D02*
X147191000Y-106595000D01*
X147191000Y-106595000D02*
X144471000Y-109315000D01*
X144471000Y-109315000D02*
X144471000Y-125124000D01*
X144471000Y-125124000D02*
X141138000Y-128457000D01*
X141138000Y-128457000D02*
X136937000Y-128457000D01*
X136937000Y-128457000D02*
X125703000Y-139690000D01*
X125703000Y-139690000D02*
X121533000Y-139690000D01*
X121533000Y-139690000D02*
X121308000Y-139916000D01*
X121308000Y-139916000D02*
X106770000Y-139916000D01*
X106770000Y-139916000D02*
X102945000Y-143740000D01*
X102945000Y-143740000D02*
X82985000Y-143740000D01*
X82985000Y-143740000D02*
X82034500Y-144690000D01*
X82034500Y-144690000D02*
X70345000Y-144690000D01*
X70345000Y-144690000D02*
X65689400Y-149346000D01*
X65689400Y-149346000D02*
X64428900Y-149346000D01*
X64428900Y-149346000D02*
X61924400Y-151850000D01*
X61924400Y-151850000D02*
X61924400Y-155904000D01*
X61924400Y-155904000D02*
X63500000Y-157480000D01*
X210820000Y-62230000D02*
X210820000Y-63355300D01*
X210820000Y-63355300D02*
X211101000Y-63355300D01*
X211101000Y-63355300D02*
X212406000Y-64659700D01*
X212406000Y-64659700D02*
X212406000Y-100278000D01*
X212406000Y-100278000D02*
X210448000Y-102235000D01*
X210448000Y-102235000D02*
X203644000Y-102235000D01*
X203644000Y-102235000D02*
X199159000Y-106720000D01*
X199159000Y-106720000D02*
X199159000Y-121167000D01*
X199159000Y-121167000D02*
X197330000Y-122995000D01*
X197330000Y-122995000D02*
X193238000Y-122995000D01*
X193238000Y-122995000D02*
X190504000Y-125730000D01*
X190504000Y-125730000D02*
X182339000Y-125730000D01*
X182339000Y-125730000D02*
X176553000Y-131516000D01*
X176553000Y-131516000D02*
X135217000Y-131516000D01*
X135217000Y-131516000D02*
X126142000Y-140591000D01*
X126142000Y-140591000D02*
X121906000Y-140591000D01*
X121906000Y-140591000D02*
X121681000Y-140816000D01*
X121681000Y-140816000D02*
X107461000Y-140816000D01*
X107461000Y-140816000D02*
X103637000Y-144640000D01*
X103637000Y-144640000D02*
X83358200Y-144640000D01*
X83358200Y-144640000D02*
X82407700Y-145591000D01*
X82407700Y-145591000D02*
X75334500Y-145591000D01*
X75334500Y-145591000D02*
X65985400Y-154940000D01*
X65985400Y-154940000D02*
X63500000Y-154940000D01*
X78740000Y-116840000D02*
X75605000Y-116840000D01*
X75605000Y-116840000D02*
X71794800Y-120650000D01*
X71794800Y-120650000D02*
X70787300Y-120650000D01*
X70787300Y-120650000D02*
X69965200Y-121472000D01*
X69965200Y-121472000D02*
X69965200Y-122434000D01*
X69965200Y-122434000D02*
X70721000Y-123190000D01*
X70721000Y-123190000D02*
X71483200Y-123190000D01*
X71483200Y-123190000D02*
X72245300Y-123952000D01*
X72245300Y-123952000D02*
X72245300Y-127571000D01*
X72245300Y-127571000D02*
X71401400Y-128415000D01*
X71401400Y-128415000D02*
X71120000Y-128415000D01*
X71120000Y-128415000D02*
X71120000Y-129540000D01*
X78740000Y-165100000D02*
X78740000Y-163975000D01*
X78740000Y-163975000D02*
X78458600Y-163975000D01*
X78458600Y-163975000D02*
X77164400Y-162680000D01*
X77164400Y-162680000D02*
X77164400Y-151279000D01*
X77164400Y-151279000D02*
X77785000Y-150658000D01*
X77785000Y-150658000D02*
X94712600Y-150658000D01*
X94712600Y-150658000D02*
X95963500Y-149407000D01*
X95963500Y-149407000D02*
X103810000Y-149407000D01*
X103810000Y-149407000D02*
X109490000Y-143727000D01*
X110605000Y-144312000D02*
X104834000Y-150082000D01*
X104834000Y-150082000D02*
X96150300Y-150082000D01*
X96150300Y-150082000D02*
X94965600Y-151267000D01*
X94965600Y-151267000D02*
X77812700Y-151267000D01*
X77812700Y-151267000D02*
X77614700Y-151465000D01*
X77614700Y-151465000D02*
X77614700Y-155422000D01*
X77614700Y-155422000D02*
X78547200Y-156355000D01*
X78547200Y-156355000D02*
X78740000Y-156355000D01*
X78740000Y-156355000D02*
X78740000Y-157480000D01*
X124460000Y-121920000D02*
X123335000Y-121920000D01*
X123335000Y-121920000D02*
X119669000Y-118255000D01*
X119669000Y-118255000D02*
X106503000Y-118255000D01*
X106503000Y-118255000D02*
X103512000Y-115264000D01*
X103512000Y-115264000D02*
X92689100Y-115264000D01*
X92689100Y-115264000D02*
X87302600Y-120650000D01*
X87302600Y-120650000D02*
X73515300Y-120650000D01*
X73515300Y-120650000D02*
X72245300Y-121920000D01*
X72245300Y-121920000D02*
X71120000Y-121920000D01*
X124460000Y-77470000D02*
X123335000Y-77470000D01*
X123335000Y-77470000D02*
X119629000Y-81175900D01*
X119629000Y-81175900D02*
X104811000Y-81175900D01*
X104811000Y-81175900D02*
X104428000Y-80793800D01*
X104428000Y-80793800D02*
X103707000Y-80793800D01*
X103707000Y-80793800D02*
X103147000Y-81353900D01*
X103147000Y-81353900D02*
X92958100Y-81353900D01*
X92958100Y-81353900D02*
X92466400Y-81845600D01*
X149783000Y-177800000D02*
X149783000Y-166447000D01*
X149783000Y-166447000D02*
X151130000Y-165100000D01*
X120650000Y-179070000D02*
X121775000Y-179070000D01*
X121775000Y-179070000D02*
X123045000Y-177800000D01*
X123045000Y-177800000D02*
X149783000Y-177800000D01*
X151130000Y-139700000D02*
X157630000Y-139700000D01*
X151130000Y-177800000D02*
X157630000Y-177800000D01*
X149783000Y-177800000D02*
X151130000Y-177800000D01*
X168910000Y-190500000D02*
X175410000Y-190500000D01*
X120650000Y-185420000D02*
X121775000Y-185420000D01*
X121775000Y-185420000D02*
X123351000Y-183844000D01*
X123351000Y-183844000D02*
X132846000Y-183844000D01*
X132846000Y-183844000D02*
X136641000Y-180050000D01*
X136641000Y-180050000D02*
X166660000Y-180050000D01*
X166660000Y-180050000D02*
X168910000Y-177800000D01*
X186690000Y-190500000D02*
X193190000Y-190500000D01*
X120650000Y-191770000D02*
X120650000Y-190645000D01*
X120650000Y-190645000D02*
X126900000Y-184395000D01*
X126900000Y-184395000D02*
X180585000Y-184395000D01*
X180585000Y-184395000D02*
X186690000Y-190500000D01*
D29*
X54610000Y-30480000D02*
X55910300Y-29179700D01*
X55910300Y-29179700D02*
X68519400Y-29179700D01*
X68519400Y-29179700D02*
X69819700Y-30480000D01*
X69819700Y-30480000D02*
X71120000Y-30480000D01*
D30*
X101600000Y-162560000D02*
X100475000Y-162560000D01*
X100475000Y-162560000D02*
X99349400Y-163685000D01*
X99349400Y-163685000D02*
X80990600Y-163685000D01*
X80990600Y-163685000D02*
X79865300Y-162560000D01*
X79865300Y-162560000D02*
X78740000Y-162560000D01*
X196850000Y-59690000D02*
X197975000Y-59690000D01*
X197975000Y-59690000D02*
X199101000Y-60815300D01*
X199101000Y-60815300D02*
X208569000Y-60815300D01*
X208569000Y-60815300D02*
X209695000Y-59690000D01*
X209695000Y-59690000D02*
X210820000Y-59690000D01*
X182880000Y-59690000D02*
X184005000Y-59690000D01*
X184005000Y-59690000D02*
X185131000Y-60815300D01*
X185131000Y-60815300D02*
X194599000Y-60815300D01*
X194599000Y-60815300D02*
X195725000Y-59690000D01*
X195725000Y-59690000D02*
X196850000Y-59690000D01*
X168910000Y-59690000D02*
X170035000Y-59690000D01*
X170035000Y-59690000D02*
X171161000Y-60815300D01*
X171161000Y-60815300D02*
X180629000Y-60815300D01*
X180629000Y-60815300D02*
X181755000Y-59690000D01*
X181755000Y-59690000D02*
X182880000Y-59690000D01*
X154940000Y-59690000D02*
X156065000Y-59690000D01*
X156065000Y-59690000D02*
X157191000Y-60815300D01*
X157191000Y-60815300D02*
X166659000Y-60815300D01*
X166659000Y-60815300D02*
X167785000Y-59690000D01*
X167785000Y-59690000D02*
X168910000Y-59690000D01*
X137160000Y-140970000D02*
X137160000Y-149680000D01*
X137160000Y-149680000D02*
X134854000Y-151985000D01*
X134854000Y-151985000D02*
X134854000Y-152847000D01*
X134854000Y-152847000D02*
X136929000Y-154922000D01*
X136929000Y-154922000D02*
X136929000Y-168052000D01*
X136929000Y-168052000D02*
X131236000Y-173745000D01*
X131236000Y-173745000D02*
X114055000Y-173745000D01*
X114055000Y-173745000D02*
X113030000Y-172720000D01*
D29*
X203200000Y-30480000D02*
X201228000Y-28507800D01*
X201228000Y-28507800D02*
X132812000Y-28507800D01*
X132812000Y-28507800D02*
X130840000Y-30480000D01*
X130840000Y-30480000D02*
X129540000Y-30480000D01*
D30*
X140970000Y-121920000D02*
X139895000Y-120845000D01*
X139895000Y-120845000D02*
X139895000Y-116385000D01*
X139895000Y-116385000D02*
X140709000Y-115570000D01*
X140709000Y-115570000D02*
X141268000Y-115570000D01*
X141268000Y-115570000D02*
X142061000Y-114777000D01*
X142061000Y-114777000D02*
X142061000Y-113846000D01*
X142061000Y-113846000D02*
X136165000Y-107950000D01*
X136165000Y-107950000D02*
X133350000Y-107950000D01*
X133350000Y-69850000D02*
X133350000Y-70975300D01*
X133350000Y-70975300D02*
X133133000Y-70975300D01*
X133133000Y-70975300D02*
X131752000Y-72356000D01*
X131752000Y-72356000D02*
X131752000Y-77927300D01*
X131752000Y-77927300D02*
X134826000Y-81000600D01*
X134826000Y-81000600D02*
X134826000Y-93160400D01*
X134826000Y-93160400D02*
X140970000Y-99304700D01*
X140970000Y-99304700D02*
X140970000Y-100330000D01*
X133350000Y-72390000D02*
X132203000Y-73537200D01*
X132203000Y-73537200D02*
X132203000Y-76055400D01*
X132203000Y-76055400D02*
X139945000Y-83797300D01*
X139945000Y-83797300D02*
X139945000Y-94469400D01*
X139945000Y-94469400D02*
X140970000Y-95494700D01*
X140970000Y-95494700D02*
X140970000Y-96520000D01*
X140970000Y-124460000D02*
X142965000Y-122465000D01*
X142965000Y-122465000D02*
X142965000Y-104048000D01*
X142965000Y-104048000D02*
X133350000Y-94433000D01*
X133350000Y-94433000D02*
X133350000Y-92710000D01*
X140970000Y-116840000D02*
X142515000Y-115295000D01*
X142515000Y-115295000D02*
X142515000Y-107998000D01*
X142515000Y-107998000D02*
X132316000Y-97799400D01*
X132316000Y-97799400D02*
X132316000Y-89933600D01*
X132316000Y-89933600D02*
X133350000Y-88900000D01*
X140970000Y-69850000D02*
X140970000Y-70975300D01*
X140970000Y-70975300D02*
X141251000Y-70975300D01*
X141251000Y-70975300D02*
X142100000Y-71824200D01*
X142100000Y-71824200D02*
X142100000Y-82934500D01*
X142100000Y-82934500D02*
X140970000Y-84064700D01*
X140970000Y-84064700D02*
X140970000Y-85090000D01*
X140970000Y-67310000D02*
X140970000Y-68435300D01*
X140970000Y-68435300D02*
X140689000Y-68435300D01*
X140689000Y-68435300D02*
X139839000Y-69285400D01*
X139839000Y-69285400D02*
X139839000Y-79123300D01*
X139839000Y-79123300D02*
X140970000Y-80254700D01*
X140970000Y-80254700D02*
X140970000Y-81280000D01*
X154940000Y-121920000D02*
X156032000Y-120828000D01*
X156032000Y-120828000D02*
X156032000Y-113813000D01*
X156032000Y-113813000D02*
X150169000Y-107950000D01*
X150169000Y-107950000D02*
X147320000Y-107950000D01*
X147320000Y-67310000D02*
X147320000Y-68435300D01*
X147320000Y-68435300D02*
X147601000Y-68435300D01*
X147601000Y-68435300D02*
X148896000Y-69729700D01*
X148896000Y-69729700D02*
X148896000Y-85163600D01*
X148896000Y-85163600D02*
X155965000Y-92233200D01*
X155965000Y-92233200D02*
X155965000Y-102089000D01*
X155965000Y-102089000D02*
X154940000Y-103115000D01*
X154940000Y-103115000D02*
X154940000Y-104140000D01*
X147320000Y-72390000D02*
X147320000Y-73515300D01*
X147320000Y-73515300D02*
X147601000Y-73515300D01*
X147601000Y-73515300D02*
X148445000Y-74359200D01*
X148445000Y-74359200D02*
X148445000Y-89000000D01*
X148445000Y-89000000D02*
X154940000Y-95494700D01*
X154940000Y-95494700D02*
X154940000Y-96520000D01*
X154940000Y-69850000D02*
X154940000Y-70975300D01*
X154940000Y-70975300D02*
X155221000Y-70975300D01*
X155221000Y-70975300D02*
X156071000Y-71825200D01*
X156071000Y-71825200D02*
X156071000Y-82933500D01*
X156071000Y-82933500D02*
X154940000Y-84064700D01*
X154940000Y-84064700D02*
X154940000Y-85090000D01*
X154940000Y-67310000D02*
X154940000Y-68435300D01*
X154940000Y-68435300D02*
X154659000Y-68435300D01*
X154659000Y-68435300D02*
X153809000Y-69285400D01*
X153809000Y-69285400D02*
X153809000Y-79123300D01*
X153809000Y-79123300D02*
X154940000Y-80254700D01*
X154940000Y-80254700D02*
X154940000Y-81280000D01*
X168910000Y-121920000D02*
X170002000Y-120828000D01*
X170002000Y-120828000D02*
X170002000Y-113659000D01*
X170002000Y-113659000D02*
X164293000Y-107950000D01*
X164293000Y-107950000D02*
X161290000Y-107950000D01*
X161290000Y-67310000D02*
X161290000Y-68435300D01*
X161290000Y-68435300D02*
X161571000Y-68435300D01*
X161571000Y-68435300D02*
X166840000Y-73704000D01*
X166840000Y-73704000D02*
X166840000Y-84517100D01*
X166840000Y-84517100D02*
X170392000Y-88068800D01*
X170392000Y-88068800D02*
X170392000Y-101633000D01*
X170392000Y-101633000D02*
X168910000Y-103115000D01*
X168910000Y-103115000D02*
X168910000Y-104140000D01*
X161290000Y-69850000D02*
X161290000Y-70975300D01*
X161290000Y-70975300D02*
X161571000Y-70975300D01*
X161571000Y-70975300D02*
X166046000Y-75450500D01*
X166046000Y-75450500D02*
X166046000Y-91831100D01*
X166046000Y-91831100D02*
X169935000Y-95719900D01*
X169935000Y-95719900D02*
X169935000Y-98279400D01*
X169935000Y-98279400D02*
X168910000Y-99304700D01*
X168910000Y-99304700D02*
X168910000Y-100330000D01*
X168910000Y-96520000D02*
X168910000Y-95494700D01*
X168910000Y-95494700D02*
X165596000Y-92180900D01*
X165596000Y-92180900D02*
X165596000Y-77610400D01*
X165596000Y-77610400D02*
X161501000Y-73515300D01*
X161501000Y-73515300D02*
X161290000Y-73515300D01*
X161290000Y-73515300D02*
X161290000Y-72390000D01*
X168910000Y-69850000D02*
X168910000Y-70975300D01*
X168910000Y-70975300D02*
X169191000Y-70975300D01*
X169191000Y-70975300D02*
X170040000Y-71824200D01*
X170040000Y-71824200D02*
X170040000Y-82934500D01*
X170040000Y-82934500D02*
X168910000Y-84064700D01*
X168910000Y-84064700D02*
X168910000Y-85090000D01*
X168910000Y-67310000D02*
X168910000Y-68435300D01*
X168910000Y-68435300D02*
X168629000Y-68435300D01*
X168629000Y-68435300D02*
X167774000Y-69289600D01*
X167774000Y-69289600D02*
X167774000Y-79119100D01*
X167774000Y-79119100D02*
X168910000Y-80254700D01*
X168910000Y-80254700D02*
X168910000Y-81280000D01*
X182880000Y-121920000D02*
X183974000Y-120826000D01*
X183974000Y-120826000D02*
X183974000Y-113822000D01*
X183974000Y-113822000D02*
X178102000Y-107950000D01*
X178102000Y-107950000D02*
X175260000Y-107950000D01*
X175260000Y-67310000D02*
X175260000Y-68435300D01*
X175260000Y-68435300D02*
X174979000Y-68435300D01*
X174979000Y-68435300D02*
X174105000Y-69309400D01*
X174105000Y-69309400D02*
X174105000Y-76844100D01*
X174105000Y-76844100D02*
X176285000Y-79024900D01*
X176285000Y-79024900D02*
X176285000Y-96520100D01*
X176285000Y-96520100D02*
X182880000Y-103115000D01*
X182880000Y-103115000D02*
X182880000Y-104140000D01*
X175260000Y-69850000D02*
X175260000Y-70975300D01*
X175260000Y-70975300D02*
X175541000Y-70975300D01*
X175541000Y-70975300D02*
X177220000Y-72654200D01*
X177220000Y-72654200D02*
X177220000Y-89034700D01*
X177220000Y-89034700D02*
X183905000Y-95719800D01*
X183905000Y-95719800D02*
X183905000Y-98279400D01*
X183905000Y-98279400D02*
X182880000Y-99304700D01*
X182880000Y-99304700D02*
X182880000Y-100330000D01*
X175260000Y-129540000D02*
X174172000Y-128452000D01*
X174172000Y-128452000D02*
X174172000Y-101418000D01*
X174172000Y-101418000D02*
X175260000Y-100330000D01*
X175260000Y-72390000D02*
X175260000Y-73515300D01*
X175260000Y-73515300D02*
X175541000Y-73515300D01*
X175541000Y-73515300D02*
X176770000Y-74743800D01*
X176770000Y-74743800D02*
X176770000Y-89384500D01*
X176770000Y-89384500D02*
X182880000Y-95494700D01*
X182880000Y-95494700D02*
X182880000Y-96520000D01*
X182880000Y-69850000D02*
X182880000Y-70975300D01*
X182880000Y-70975300D02*
X183161000Y-70975300D01*
X183161000Y-70975300D02*
X184011000Y-71825200D01*
X184011000Y-71825200D02*
X184011000Y-82933500D01*
X184011000Y-82933500D02*
X182880000Y-84064700D01*
X182880000Y-84064700D02*
X182880000Y-85090000D01*
X182880000Y-67310000D02*
X182880000Y-68435300D01*
X182880000Y-68435300D02*
X182599000Y-68435300D01*
X182599000Y-68435300D02*
X181749000Y-69285400D01*
X181749000Y-69285400D02*
X181749000Y-79123300D01*
X181749000Y-79123300D02*
X182880000Y-80254700D01*
X182880000Y-80254700D02*
X182880000Y-81280000D01*
X196850000Y-121920000D02*
X197928000Y-120842000D01*
X197928000Y-120842000D02*
X197928000Y-113856000D01*
X197928000Y-113856000D02*
X192022000Y-107950000D01*
X192022000Y-107950000D02*
X189230000Y-107950000D01*
X189230000Y-67310000D02*
X189230000Y-68435300D01*
X189230000Y-68435300D02*
X189511000Y-68435300D01*
X189511000Y-68435300D02*
X191838000Y-70762400D01*
X191838000Y-70762400D02*
X191838000Y-86196300D01*
X191838000Y-86196300D02*
X197875000Y-92233200D01*
X197875000Y-92233200D02*
X197875000Y-102089000D01*
X197875000Y-102089000D02*
X196850000Y-103115000D01*
X196850000Y-103115000D02*
X196850000Y-104140000D01*
X189230000Y-72390000D02*
X189230000Y-73515300D01*
X189230000Y-73515300D02*
X189464000Y-73515300D01*
X189464000Y-73515300D02*
X191388000Y-75439300D01*
X191388000Y-75439300D02*
X191388000Y-90032800D01*
X191388000Y-90032800D02*
X196850000Y-95494700D01*
X196850000Y-95494700D02*
X196850000Y-96520000D01*
X196850000Y-69850000D02*
X196850000Y-70975300D01*
X196850000Y-70975300D02*
X197131000Y-70975300D01*
X197131000Y-70975300D02*
X197981000Y-71825200D01*
X197981000Y-71825200D02*
X197981000Y-82933500D01*
X197981000Y-82933500D02*
X196850000Y-84064700D01*
X196850000Y-84064700D02*
X196850000Y-85090000D01*
X196850000Y-67310000D02*
X196850000Y-68435300D01*
X196850000Y-68435300D02*
X196569000Y-68435300D01*
X196569000Y-68435300D02*
X195719000Y-69285400D01*
X195719000Y-69285400D02*
X195719000Y-79123300D01*
X195719000Y-79123300D02*
X196850000Y-80254700D01*
X196850000Y-80254700D02*
X196850000Y-81280000D01*
X210820000Y-121920000D02*
X211901000Y-120839000D01*
X211901000Y-120839000D02*
X211901000Y-113858000D01*
X211901000Y-113858000D02*
X205992000Y-107950000D01*
X205992000Y-107950000D02*
X203200000Y-107950000D01*
X203200000Y-116840000D02*
X202123000Y-115763000D01*
X202123000Y-115763000D02*
X202123000Y-105217000D01*
X202123000Y-105217000D02*
X203200000Y-104140000D01*
X203200000Y-69850000D02*
X203200000Y-70975300D01*
X203200000Y-70975300D02*
X203434000Y-70975300D01*
X203434000Y-70975300D02*
X205413000Y-72954000D01*
X205413000Y-72954000D02*
X205413000Y-89287100D01*
X205413000Y-89287100D02*
X211845000Y-95719800D01*
X211845000Y-95719800D02*
X211845000Y-98279400D01*
X211845000Y-98279400D02*
X210820000Y-99304700D01*
X210820000Y-99304700D02*
X210820000Y-100330000D01*
X203200000Y-72390000D02*
X203200000Y-73515300D01*
X203200000Y-73515300D02*
X203481000Y-73515300D01*
X203481000Y-73515300D02*
X204685000Y-74719200D01*
X204685000Y-74719200D02*
X204685000Y-89359900D01*
X204685000Y-89359900D02*
X210820000Y-95494700D01*
X210820000Y-95494700D02*
X210820000Y-96520000D01*
X210820000Y-69850000D02*
X210820000Y-70975300D01*
X210820000Y-70975300D02*
X211101000Y-70975300D01*
X211101000Y-70975300D02*
X211950000Y-71823800D01*
X211950000Y-71823800D02*
X211950000Y-82934900D01*
X211950000Y-82934900D02*
X210820000Y-84064700D01*
X210820000Y-84064700D02*
X210820000Y-85090000D01*
X210820000Y-67310000D02*
X210820000Y-68435300D01*
X210820000Y-68435300D02*
X210539000Y-68435300D01*
X210539000Y-68435300D02*
X209689000Y-69285400D01*
X209689000Y-69285400D02*
X209689000Y-79123300D01*
X209689000Y-79123300D02*
X210820000Y-80254700D01*
X210820000Y-80254700D02*
X210820000Y-81280000D01*
X158600000Y-207700000D02*
X165100000Y-207700000D01*
X135890000Y-179070000D02*
X134865000Y-179070000D01*
X134865000Y-179070000D02*
X133703000Y-180232000D01*
X133703000Y-180232000D02*
X116808000Y-180232000D01*
X116808000Y-180232000D02*
X113926000Y-177350000D01*
X113926000Y-177350000D02*
X102081000Y-177350000D01*
X102081000Y-177350000D02*
X99165400Y-174434000D01*
X93939000Y-172064000D02*
X108421000Y-172064000D01*
X108421000Y-172064000D02*
X110576000Y-174219000D01*
X110576000Y-174219000D02*
X133366000Y-174219000D01*
X133366000Y-174219000D02*
X134865000Y-172720000D01*
X134865000Y-172720000D02*
X135890000Y-172720000D01*
X151130000Y-195000000D02*
X157630000Y-195000000D01*
X157630000Y-195000000D02*
X168910000Y-195000000D01*
X186690000Y-195000000D02*
X193190000Y-195000000D01*
X168910000Y-195000000D02*
X175410000Y-195000000D01*
X175410000Y-195000000D02*
X186690000Y-195000000D01*
X135890000Y-167640000D02*
X134865000Y-167640000D01*
X134865000Y-167640000D02*
X133368000Y-169137000D01*
X133368000Y-169137000D02*
X116871000Y-169137000D01*
X116871000Y-169137000D02*
X114332000Y-166597000D01*
X114332000Y-166597000D02*
X111648000Y-166597000D01*
X111648000Y-166597000D02*
X107232000Y-171013000D01*
X107232000Y-171013000D02*
X89733800Y-171013000D01*
X151130000Y-182300000D02*
X157630000Y-182300000D01*
X175410000Y-182300000D02*
X186690000Y-182300000D01*
X186690000Y-182300000D02*
X193190000Y-182300000D01*
X157630000Y-182300000D02*
X168910000Y-182300000D01*
X168910000Y-182300000D02*
X175410000Y-182300000D01*
X90294700Y-152795000D02*
X90294700Y-152879000D01*
X90294700Y-152879000D02*
X93625500Y-156210000D01*
X93625500Y-156210000D02*
X128515000Y-156210000D01*
X128515000Y-156210000D02*
X134865000Y-162560000D01*
X134865000Y-162560000D02*
X135890000Y-162560000D01*
X151130000Y-169600000D02*
X157630000Y-169600000D01*
X175410000Y-169600000D02*
X186690000Y-169600000D01*
X186690000Y-169600000D02*
X193190000Y-169600000D01*
X157630000Y-169600000D02*
X168910000Y-169600000D01*
X168910000Y-169600000D02*
X175410000Y-169600000D01*
X135890000Y-157480000D02*
X135890000Y-156455000D01*
X135890000Y-156455000D02*
X134382000Y-154947000D01*
X134382000Y-154947000D02*
X134382000Y-150804000D01*
X134382000Y-150804000D02*
X135802000Y-149385000D01*
X135802000Y-149385000D02*
X135802000Y-139945000D01*
X135802000Y-139945000D02*
X135651000Y-139795000D01*
X135651000Y-139795000D02*
X133258000Y-139795000D01*
X133258000Y-139795000D02*
X130051000Y-143002000D01*
X130051000Y-143002000D02*
X107937000Y-143002000D01*
X107937000Y-143002000D02*
X105934000Y-145005000D01*
X105934000Y-145005000D02*
X105500000Y-145005000D01*
X105500000Y-145005000D02*
X104311000Y-146195000D01*
X104311000Y-146195000D02*
X90538000Y-146195000D01*
X90538000Y-146195000D02*
X89839900Y-146893000D01*
X151130000Y-156900000D02*
X157630000Y-156900000D01*
X157630000Y-156900000D02*
X168910000Y-156900000D01*
X168910000Y-156900000D02*
X175410000Y-156900000D01*
X175410000Y-156900000D02*
X186690000Y-156900000D01*
X186690000Y-156900000D02*
X193190000Y-156900000D01*
X157630000Y-144200000D02*
X168910000Y-144200000D01*
X186690000Y-144200000D02*
X193190000Y-144200000D01*
X168910000Y-144200000D02*
X175410000Y-144200000D01*
X175410000Y-144200000D02*
X186690000Y-144200000D01*
X157630000Y-144200000D02*
X151130000Y-144200000D01*
X135890000Y-152400000D02*
X136915000Y-152400000D01*
X136915000Y-152400000D02*
X143587000Y-145728000D01*
X151130000Y-144200000D02*
X145115000Y-144200000D01*
X145115000Y-144200000D02*
X143587000Y-145728000D01*
X143587000Y-145728000D02*
X137186000Y-139327000D01*
X137186000Y-139327000D02*
X133089000Y-139327000D01*
X133089000Y-139327000D02*
X131951000Y-140465000D01*
X131951000Y-140465000D02*
X130677000Y-140465000D01*
X130677000Y-140465000D02*
X130100000Y-141041000D01*
X130100000Y-141041000D02*
X128114000Y-141041000D01*
X128114000Y-141041000D02*
X127664000Y-141492000D01*
X127664000Y-141492000D02*
X126129000Y-141492000D01*
X126129000Y-141492000D02*
X125678000Y-141942000D01*
X125678000Y-141942000D02*
X108360000Y-141942000D01*
X108360000Y-141942000D02*
X105747000Y-144555000D01*
X105747000Y-144555000D02*
X105314000Y-144555000D01*
X105314000Y-144555000D02*
X104248000Y-145621000D01*
X104248000Y-145621000D02*
X89449000Y-145621000D01*
X89449000Y-145621000D02*
X89253700Y-145816000D01*
M02*
