G04 #@! TF.GenerationSoftware,KiCad,Pcbnew,5.1.5+dfsg1-2build2*
G04 #@! TF.CreationDate,2022-03-03T19:49:00-05:00*
G04 #@! TF.ProjectId,6800sbc,36383030-7362-4632-9e6b-696361645f70,rev?*
G04 #@! TF.SameCoordinates,Original*
G04 #@! TF.FileFunction,Copper,L1,Top*
G04 #@! TF.FilePolarity,Positive*
%FSLAX46Y46*%
G04 Gerber Fmt 4.6, Leading zero omitted, Abs format (unit mm)*
G04 Created by KiCad (PCBNEW 5.1.5+dfsg1-2build2) date 2022-03-03 19:49:00*
%MOMM*%
%LPD*%
G04 APERTURE LIST*
%ADD10O,1.400000X1.400000*%
%ADD11C,1.400000*%
%ADD12O,1.700000X1.700000*%
%ADD13R,1.700000X1.700000*%
%ADD14O,1.600000X1.600000*%
%ADD15R,1.600000X1.600000*%
%ADD16O,2.200000X2.200000*%
%ADD17R,2.200000X2.200000*%
%ADD18C,1.500000*%
%ADD19R,1.500000X1.500000*%
%ADD20O,1.905000X2.000000*%
%ADD21R,1.905000X2.000000*%
%ADD22C,2.000000*%
%ADD23C,1.800000*%
%ADD24R,1.800000X1.800000*%
%ADD25C,1.600000*%
%ADD26C,1.200000*%
%ADD27R,1.200000X1.200000*%
%ADD28C,0.800000*%
%ADD29C,0.500000*%
%ADD30C,0.250000*%
G04 APERTURE END LIST*
D10*
X135890000Y-198120000D03*
D11*
X128270000Y-198120000D03*
D10*
X135890000Y-185420000D03*
D11*
X128270000Y-185420000D03*
D10*
X135890000Y-191770000D03*
D11*
X128270000Y-191770000D03*
D10*
X135890000Y-204470000D03*
D11*
X128270000Y-204470000D03*
D10*
X135890000Y-210820000D03*
D11*
X128270000Y-210820000D03*
D10*
X135890000Y-152400000D03*
D11*
X128270000Y-152400000D03*
D10*
X135890000Y-157480000D03*
D11*
X128270000Y-157480000D03*
D10*
X135890000Y-162560000D03*
D11*
X128270000Y-162560000D03*
D10*
X135890000Y-167640000D03*
D11*
X128270000Y-167640000D03*
D10*
X135890000Y-172720000D03*
D11*
X128270000Y-172720000D03*
D10*
X135890000Y-179070000D03*
D11*
X128270000Y-179070000D03*
D12*
X90170000Y-182880000D03*
X90170000Y-185420000D03*
D13*
X90170000Y-187960000D03*
D12*
X86360000Y-182880000D03*
X86360000Y-185420000D03*
D13*
X86360000Y-187960000D03*
D12*
X82550000Y-182880000D03*
X82550000Y-185420000D03*
D13*
X82550000Y-187960000D03*
D12*
X78740000Y-182880000D03*
X78740000Y-185420000D03*
D13*
X78740000Y-187960000D03*
D12*
X74930000Y-182880000D03*
X74930000Y-185420000D03*
D13*
X74930000Y-187960000D03*
D12*
X71120000Y-182880000D03*
X71120000Y-185420000D03*
D13*
X71120000Y-187960000D03*
D14*
X55880000Y-57150000D03*
X40640000Y-85090000D03*
X55880000Y-59690000D03*
X40640000Y-82550000D03*
X55880000Y-62230000D03*
X40640000Y-80010000D03*
X55880000Y-64770000D03*
X40640000Y-77470000D03*
X55880000Y-67310000D03*
X40640000Y-74930000D03*
X55880000Y-69850000D03*
X40640000Y-72390000D03*
X55880000Y-72390000D03*
X40640000Y-69850000D03*
X55880000Y-74930000D03*
X40640000Y-67310000D03*
X55880000Y-77470000D03*
X40640000Y-64770000D03*
X55880000Y-80010000D03*
X40640000Y-62230000D03*
X55880000Y-82550000D03*
X40640000Y-59690000D03*
X55880000Y-85090000D03*
D15*
X40640000Y-57150000D03*
D10*
X210820000Y-81280000D03*
D11*
X203200000Y-81280000D03*
D10*
X210820000Y-85090000D03*
D11*
X203200000Y-85090000D03*
D10*
X210820000Y-88900000D03*
D11*
X203200000Y-88900000D03*
D10*
X210820000Y-92710000D03*
D11*
X203200000Y-92710000D03*
D10*
X210820000Y-96520000D03*
D11*
X203200000Y-96520000D03*
D10*
X210820000Y-100330000D03*
D11*
X203200000Y-100330000D03*
D10*
X210820000Y-104140000D03*
D11*
X203200000Y-104140000D03*
D10*
X210820000Y-107950000D03*
D11*
X203200000Y-107950000D03*
D10*
X196850000Y-81280000D03*
D11*
X189230000Y-81280000D03*
D10*
X196850000Y-85090000D03*
D11*
X189230000Y-85090000D03*
D10*
X196850000Y-88900000D03*
D11*
X189230000Y-88900000D03*
D10*
X196850000Y-92710000D03*
D11*
X189230000Y-92710000D03*
D10*
X196850000Y-96520000D03*
D11*
X189230000Y-96520000D03*
D10*
X196850000Y-100330000D03*
D11*
X189230000Y-100330000D03*
D10*
X196850000Y-104140000D03*
D11*
X189230000Y-104140000D03*
D10*
X196850000Y-107950000D03*
D11*
X189230000Y-107950000D03*
D10*
X182880000Y-81280000D03*
D11*
X175260000Y-81280000D03*
D10*
X182880000Y-85090000D03*
D11*
X175260000Y-85090000D03*
D10*
X182880000Y-88900000D03*
D11*
X175260000Y-88900000D03*
D10*
X182880000Y-92710000D03*
D11*
X175260000Y-92710000D03*
D10*
X182880000Y-96520000D03*
D11*
X175260000Y-96520000D03*
D10*
X182880000Y-100330000D03*
D11*
X175260000Y-100330000D03*
D10*
X182880000Y-104140000D03*
D11*
X175260000Y-104140000D03*
D10*
X182880000Y-107950000D03*
D11*
X175260000Y-107950000D03*
D10*
X168910000Y-81280000D03*
D11*
X161290000Y-81280000D03*
D10*
X168910000Y-85090000D03*
D11*
X161290000Y-85090000D03*
D10*
X168910000Y-88900000D03*
D11*
X161290000Y-88900000D03*
D10*
X168910000Y-92710000D03*
D11*
X161290000Y-92710000D03*
D10*
X168910000Y-96520000D03*
D11*
X161290000Y-96520000D03*
D10*
X168910000Y-100330000D03*
D11*
X161290000Y-100330000D03*
D10*
X168910000Y-104140000D03*
D11*
X161290000Y-104140000D03*
D10*
X168910000Y-107950000D03*
D11*
X161290000Y-107950000D03*
D10*
X154940000Y-81280000D03*
D11*
X147320000Y-81280000D03*
D10*
X154940000Y-85090000D03*
D11*
X147320000Y-85090000D03*
D10*
X154940000Y-88900000D03*
D11*
X147320000Y-88900000D03*
D10*
X154940000Y-92710000D03*
D11*
X147320000Y-92710000D03*
D10*
X154940000Y-96520000D03*
D11*
X147320000Y-96520000D03*
D10*
X154940000Y-100330000D03*
D11*
X147320000Y-100330000D03*
D10*
X154940000Y-104140000D03*
D11*
X147320000Y-104140000D03*
D10*
X154940000Y-107950000D03*
D11*
X147320000Y-107950000D03*
D10*
X140970000Y-81280000D03*
D11*
X133350000Y-81280000D03*
D10*
X140970000Y-85090000D03*
D11*
X133350000Y-85090000D03*
D10*
X140970000Y-88900000D03*
D11*
X133350000Y-88900000D03*
D10*
X140970000Y-92710000D03*
D11*
X133350000Y-92710000D03*
D10*
X140970000Y-96520000D03*
D11*
X133350000Y-96520000D03*
D10*
X140970000Y-100330000D03*
D11*
X133350000Y-100330000D03*
D10*
X140970000Y-104140000D03*
D11*
X133350000Y-104140000D03*
D10*
X140970000Y-107950000D03*
D11*
X133350000Y-107950000D03*
D12*
X129540000Y-30480000D03*
D13*
X127000000Y-30480000D03*
D12*
X137160000Y-140970000D03*
D13*
X134620000Y-140970000D03*
D16*
X180340000Y-30480000D03*
D17*
X190500000Y-30480000D03*
D16*
X180340000Y-35560000D03*
D17*
X190500000Y-35560000D03*
D16*
X163830000Y-35560000D03*
D17*
X173990000Y-35560000D03*
D16*
X163830000Y-30480000D03*
D17*
X173990000Y-30480000D03*
D18*
X96340000Y-44450000D03*
X91440000Y-44450000D03*
X119200000Y-144780000D03*
X114300000Y-144780000D03*
D14*
X86360000Y-152400000D03*
X78740000Y-167640000D03*
X86360000Y-154940000D03*
X78740000Y-165100000D03*
X86360000Y-157480000D03*
X78740000Y-162560000D03*
X86360000Y-160020000D03*
X78740000Y-160020000D03*
X86360000Y-162560000D03*
X78740000Y-157480000D03*
X86360000Y-165100000D03*
X78740000Y-154940000D03*
X86360000Y-167640000D03*
D15*
X78740000Y-152400000D03*
D14*
X71120000Y-152400000D03*
X63500000Y-170180000D03*
X71120000Y-154940000D03*
X63500000Y-167640000D03*
X71120000Y-157480000D03*
X63500000Y-165100000D03*
X71120000Y-160020000D03*
X63500000Y-162560000D03*
X71120000Y-162560000D03*
X63500000Y-160020000D03*
X71120000Y-165100000D03*
X63500000Y-157480000D03*
X71120000Y-167640000D03*
X63500000Y-154940000D03*
X71120000Y-170180000D03*
D15*
X63500000Y-152400000D03*
D14*
X101600000Y-116840000D03*
X93980000Y-139700000D03*
X101600000Y-119380000D03*
X93980000Y-137160000D03*
X101600000Y-121920000D03*
X93980000Y-134620000D03*
X101600000Y-124460000D03*
X93980000Y-132080000D03*
X101600000Y-127000000D03*
X93980000Y-129540000D03*
X101600000Y-129540000D03*
X93980000Y-127000000D03*
X101600000Y-132080000D03*
X93980000Y-124460000D03*
X101600000Y-134620000D03*
X93980000Y-121920000D03*
X101600000Y-137160000D03*
X93980000Y-119380000D03*
X101600000Y-139700000D03*
D15*
X93980000Y-116840000D03*
D14*
X71120000Y-116840000D03*
X63500000Y-139700000D03*
X71120000Y-119380000D03*
X63500000Y-137160000D03*
X71120000Y-121920000D03*
X63500000Y-134620000D03*
X71120000Y-124460000D03*
X63500000Y-132080000D03*
X71120000Y-127000000D03*
X63500000Y-129540000D03*
X71120000Y-129540000D03*
X63500000Y-127000000D03*
X71120000Y-132080000D03*
X63500000Y-124460000D03*
X71120000Y-134620000D03*
X63500000Y-121920000D03*
X71120000Y-137160000D03*
X63500000Y-119380000D03*
X71120000Y-139700000D03*
D15*
X63500000Y-116840000D03*
D14*
X101600000Y-57150000D03*
X86360000Y-105410000D03*
X101600000Y-59690000D03*
X86360000Y-102870000D03*
X101600000Y-62230000D03*
X86360000Y-100330000D03*
X101600000Y-64770000D03*
X86360000Y-97790000D03*
X101600000Y-67310000D03*
X86360000Y-95250000D03*
X101600000Y-69850000D03*
X86360000Y-92710000D03*
X101600000Y-72390000D03*
X86360000Y-90170000D03*
X101600000Y-74930000D03*
X86360000Y-87630000D03*
X101600000Y-77470000D03*
X86360000Y-85090000D03*
X101600000Y-80010000D03*
X86360000Y-82550000D03*
X101600000Y-82550000D03*
X86360000Y-80010000D03*
X101600000Y-85090000D03*
X86360000Y-77470000D03*
X101600000Y-87630000D03*
X86360000Y-74930000D03*
X101600000Y-90170000D03*
X86360000Y-72390000D03*
X101600000Y-92710000D03*
X86360000Y-69850000D03*
X101600000Y-95250000D03*
X86360000Y-67310000D03*
X101600000Y-97790000D03*
X86360000Y-64770000D03*
X101600000Y-100330000D03*
X86360000Y-62230000D03*
X101600000Y-102870000D03*
X86360000Y-59690000D03*
X101600000Y-105410000D03*
D15*
X86360000Y-57150000D03*
D14*
X124460000Y-57150000D03*
X109220000Y-90170000D03*
X124460000Y-59690000D03*
X109220000Y-87630000D03*
X124460000Y-62230000D03*
X109220000Y-85090000D03*
X124460000Y-64770000D03*
X109220000Y-82550000D03*
X124460000Y-67310000D03*
X109220000Y-80010000D03*
X124460000Y-69850000D03*
X109220000Y-77470000D03*
X124460000Y-72390000D03*
X109220000Y-74930000D03*
X124460000Y-74930000D03*
X109220000Y-72390000D03*
X124460000Y-77470000D03*
X109220000Y-69850000D03*
X124460000Y-80010000D03*
X109220000Y-67310000D03*
X124460000Y-82550000D03*
X109220000Y-64770000D03*
X124460000Y-85090000D03*
X109220000Y-62230000D03*
X124460000Y-87630000D03*
X109220000Y-59690000D03*
X124460000Y-90170000D03*
D15*
X109220000Y-57150000D03*
D14*
X124460000Y-101600000D03*
X109220000Y-134620000D03*
X124460000Y-104140000D03*
X109220000Y-132080000D03*
X124460000Y-106680000D03*
X109220000Y-129540000D03*
X124460000Y-109220000D03*
X109220000Y-127000000D03*
X124460000Y-111760000D03*
X109220000Y-124460000D03*
X124460000Y-114300000D03*
X109220000Y-121920000D03*
X124460000Y-116840000D03*
X109220000Y-119380000D03*
X124460000Y-119380000D03*
X109220000Y-116840000D03*
X124460000Y-121920000D03*
X109220000Y-114300000D03*
X124460000Y-124460000D03*
X109220000Y-111760000D03*
X124460000Y-127000000D03*
X109220000Y-109220000D03*
X124460000Y-129540000D03*
X109220000Y-106680000D03*
X124460000Y-132080000D03*
X109220000Y-104140000D03*
X124460000Y-134620000D03*
D15*
X109220000Y-101600000D03*
D14*
X86360000Y-116840000D03*
X78740000Y-139700000D03*
X86360000Y-119380000D03*
X78740000Y-137160000D03*
X86360000Y-121920000D03*
X78740000Y-134620000D03*
X86360000Y-124460000D03*
X78740000Y-132080000D03*
X86360000Y-127000000D03*
X78740000Y-129540000D03*
X86360000Y-129540000D03*
X78740000Y-127000000D03*
X86360000Y-132080000D03*
X78740000Y-124460000D03*
X86360000Y-134620000D03*
X78740000Y-121920000D03*
X86360000Y-137160000D03*
X78740000Y-119380000D03*
X86360000Y-139700000D03*
D15*
X78740000Y-116840000D03*
D14*
X210820000Y-57150000D03*
X203200000Y-74930000D03*
X210820000Y-59690000D03*
X203200000Y-72390000D03*
X210820000Y-62230000D03*
X203200000Y-69850000D03*
X210820000Y-64770000D03*
X203200000Y-67310000D03*
X210820000Y-67310000D03*
X203200000Y-64770000D03*
X210820000Y-69850000D03*
X203200000Y-62230000D03*
X210820000Y-72390000D03*
X203200000Y-59690000D03*
X210820000Y-74930000D03*
D15*
X203200000Y-57150000D03*
D14*
X196850000Y-57150000D03*
X189230000Y-74930000D03*
X196850000Y-59690000D03*
X189230000Y-72390000D03*
X196850000Y-62230000D03*
X189230000Y-69850000D03*
X196850000Y-64770000D03*
X189230000Y-67310000D03*
X196850000Y-67310000D03*
X189230000Y-64770000D03*
X196850000Y-69850000D03*
X189230000Y-62230000D03*
X196850000Y-72390000D03*
X189230000Y-59690000D03*
X196850000Y-74930000D03*
D15*
X189230000Y-57150000D03*
D14*
X182880000Y-57150000D03*
X175260000Y-74930000D03*
X182880000Y-59690000D03*
X175260000Y-72390000D03*
X182880000Y-62230000D03*
X175260000Y-69850000D03*
X182880000Y-64770000D03*
X175260000Y-67310000D03*
X182880000Y-67310000D03*
X175260000Y-64770000D03*
X182880000Y-69850000D03*
X175260000Y-62230000D03*
X182880000Y-72390000D03*
X175260000Y-59690000D03*
X182880000Y-74930000D03*
D15*
X175260000Y-57150000D03*
D14*
X168910000Y-57150000D03*
X161290000Y-74930000D03*
X168910000Y-59690000D03*
X161290000Y-72390000D03*
X168910000Y-62230000D03*
X161290000Y-69850000D03*
X168910000Y-64770000D03*
X161290000Y-67310000D03*
X168910000Y-67310000D03*
X161290000Y-64770000D03*
X168910000Y-69850000D03*
X161290000Y-62230000D03*
X168910000Y-72390000D03*
X161290000Y-59690000D03*
X168910000Y-74930000D03*
D15*
X161290000Y-57150000D03*
D14*
X154940000Y-57150000D03*
X147320000Y-74930000D03*
X154940000Y-59690000D03*
X147320000Y-72390000D03*
X154940000Y-62230000D03*
X147320000Y-69850000D03*
X154940000Y-64770000D03*
X147320000Y-67310000D03*
X154940000Y-67310000D03*
X147320000Y-64770000D03*
X154940000Y-69850000D03*
X147320000Y-62230000D03*
X154940000Y-72390000D03*
X147320000Y-59690000D03*
X154940000Y-74930000D03*
D15*
X147320000Y-57150000D03*
D14*
X140970000Y-57150000D03*
X133350000Y-74930000D03*
X140970000Y-59690000D03*
X133350000Y-72390000D03*
X140970000Y-62230000D03*
X133350000Y-69850000D03*
X140970000Y-64770000D03*
X133350000Y-67310000D03*
X140970000Y-67310000D03*
X133350000Y-64770000D03*
X140970000Y-69850000D03*
X133350000Y-62230000D03*
X140970000Y-72390000D03*
X133350000Y-59690000D03*
X140970000Y-74930000D03*
D15*
X133350000Y-57150000D03*
D18*
X210820000Y-114300000D03*
X210820000Y-116840000D03*
X210820000Y-119380000D03*
X210820000Y-121920000D03*
X210820000Y-124460000D03*
X210820000Y-127000000D03*
X210820000Y-129540000D03*
X203200000Y-129540000D03*
X203200000Y-127000000D03*
X203200000Y-124460000D03*
X203200000Y-121920000D03*
X203200000Y-119380000D03*
X203200000Y-116840000D03*
D19*
X203200000Y-114300000D03*
D18*
X196850000Y-114300000D03*
X196850000Y-116840000D03*
X196850000Y-119380000D03*
X196850000Y-121920000D03*
X196850000Y-124460000D03*
X196850000Y-127000000D03*
X196850000Y-129540000D03*
X189230000Y-129540000D03*
X189230000Y-127000000D03*
X189230000Y-124460000D03*
X189230000Y-121920000D03*
X189230000Y-119380000D03*
X189230000Y-116840000D03*
D19*
X189230000Y-114300000D03*
D18*
X182880000Y-114300000D03*
X182880000Y-116840000D03*
X182880000Y-119380000D03*
X182880000Y-121920000D03*
X182880000Y-124460000D03*
X182880000Y-127000000D03*
X182880000Y-129540000D03*
X175260000Y-129540000D03*
X175260000Y-127000000D03*
X175260000Y-124460000D03*
X175260000Y-121920000D03*
X175260000Y-119380000D03*
X175260000Y-116840000D03*
D19*
X175260000Y-114300000D03*
D18*
X168910000Y-114300000D03*
X168910000Y-116840000D03*
X168910000Y-119380000D03*
X168910000Y-121920000D03*
X168910000Y-124460000D03*
X168910000Y-127000000D03*
X168910000Y-129540000D03*
X161290000Y-129540000D03*
X161290000Y-127000000D03*
X161290000Y-124460000D03*
X161290000Y-121920000D03*
X161290000Y-119380000D03*
X161290000Y-116840000D03*
D19*
X161290000Y-114300000D03*
D18*
X154940000Y-114300000D03*
X154940000Y-116840000D03*
X154940000Y-119380000D03*
X154940000Y-121920000D03*
X154940000Y-124460000D03*
X154940000Y-127000000D03*
X154940000Y-129540000D03*
X147320000Y-129540000D03*
X147320000Y-127000000D03*
X147320000Y-124460000D03*
X147320000Y-121920000D03*
X147320000Y-119380000D03*
X147320000Y-116840000D03*
D19*
X147320000Y-114300000D03*
D18*
X140970000Y-114300000D03*
X140970000Y-116840000D03*
X140970000Y-119380000D03*
X140970000Y-121920000D03*
X140970000Y-124460000D03*
X140970000Y-127000000D03*
X140970000Y-129540000D03*
X133350000Y-129540000D03*
X133350000Y-127000000D03*
X133350000Y-124460000D03*
X133350000Y-121920000D03*
X133350000Y-119380000D03*
X133350000Y-116840000D03*
D19*
X133350000Y-114300000D03*
D14*
X101600000Y-152400000D03*
X93980000Y-167640000D03*
X101600000Y-154940000D03*
X93980000Y-165100000D03*
X101600000Y-157480000D03*
X93980000Y-162560000D03*
X101600000Y-160020000D03*
X93980000Y-160020000D03*
X101600000Y-162560000D03*
X93980000Y-157480000D03*
X101600000Y-165100000D03*
X93980000Y-154940000D03*
X101600000Y-167640000D03*
D15*
X93980000Y-152400000D03*
D14*
X78740000Y-57150000D03*
X63500000Y-105410000D03*
X78740000Y-59690000D03*
X63500000Y-102870000D03*
X78740000Y-62230000D03*
X63500000Y-100330000D03*
X78740000Y-64770000D03*
X63500000Y-97790000D03*
X78740000Y-67310000D03*
X63500000Y-95250000D03*
X78740000Y-69850000D03*
X63500000Y-92710000D03*
X78740000Y-72390000D03*
X63500000Y-90170000D03*
X78740000Y-74930000D03*
X63500000Y-87630000D03*
X78740000Y-77470000D03*
X63500000Y-85090000D03*
X78740000Y-80010000D03*
X63500000Y-82550000D03*
X78740000Y-82550000D03*
X63500000Y-80010000D03*
X78740000Y-85090000D03*
X63500000Y-77470000D03*
X78740000Y-87630000D03*
X63500000Y-74930000D03*
X78740000Y-90170000D03*
X63500000Y-72390000D03*
X78740000Y-92710000D03*
X63500000Y-69850000D03*
X78740000Y-95250000D03*
X63500000Y-67310000D03*
X78740000Y-97790000D03*
X63500000Y-64770000D03*
X78740000Y-100330000D03*
X63500000Y-62230000D03*
X78740000Y-102870000D03*
X63500000Y-59690000D03*
X78740000Y-105410000D03*
D15*
X63500000Y-57150000D03*
D20*
X203200000Y-30480000D03*
X200660000Y-30480000D03*
D21*
X198120000Y-30480000D03*
D22*
X184300000Y-203200000D03*
X184300000Y-207700000D03*
X177800000Y-203200000D03*
X177800000Y-207700000D03*
X165100000Y-203200000D03*
X165100000Y-207700000D03*
X158600000Y-203200000D03*
X158600000Y-207700000D03*
X193190000Y-190500000D03*
X193190000Y-195000000D03*
X186690000Y-190500000D03*
X186690000Y-195000000D03*
X175410000Y-190500000D03*
X175410000Y-195000000D03*
X168910000Y-190500000D03*
X168910000Y-195000000D03*
X157630000Y-190500000D03*
X157630000Y-195000000D03*
X151130000Y-190500000D03*
X151130000Y-195000000D03*
X193190000Y-177800000D03*
X193190000Y-182300000D03*
X186690000Y-177800000D03*
X186690000Y-182300000D03*
X175410000Y-177800000D03*
X175410000Y-182300000D03*
X168910000Y-177800000D03*
X168910000Y-182300000D03*
X157630000Y-177800000D03*
X157630000Y-182300000D03*
X151130000Y-177800000D03*
X151130000Y-182300000D03*
X193190000Y-165100000D03*
X193190000Y-169600000D03*
X186690000Y-165100000D03*
X186690000Y-169600000D03*
X175410000Y-165100000D03*
X175410000Y-169600000D03*
X168910000Y-165100000D03*
X168910000Y-169600000D03*
X157630000Y-165100000D03*
X157630000Y-169600000D03*
X151130000Y-165100000D03*
X151130000Y-169600000D03*
X193190000Y-152400000D03*
X193190000Y-156900000D03*
X186690000Y-152400000D03*
X186690000Y-156900000D03*
X175410000Y-152400000D03*
X175410000Y-156900000D03*
X168910000Y-152400000D03*
X168910000Y-156900000D03*
X157630000Y-152400000D03*
X157630000Y-156900000D03*
X151130000Y-152400000D03*
X151130000Y-156900000D03*
X193190000Y-139700000D03*
X193190000Y-144200000D03*
X186690000Y-139700000D03*
X186690000Y-144200000D03*
X175410000Y-139700000D03*
X175410000Y-144200000D03*
X168910000Y-139700000D03*
X168910000Y-144200000D03*
X157630000Y-139700000D03*
X157630000Y-144200000D03*
X151130000Y-139700000D03*
X151130000Y-144200000D03*
D10*
X120650000Y-167640000D03*
D11*
X113030000Y-167640000D03*
D10*
X120650000Y-172720000D03*
D11*
X113030000Y-172720000D03*
D10*
X120650000Y-162560000D03*
D11*
X113030000Y-162560000D03*
D10*
X120650000Y-157480000D03*
D11*
X113030000Y-157480000D03*
D10*
X148590000Y-40640000D03*
D11*
X140970000Y-40640000D03*
D10*
X148590000Y-35560000D03*
D11*
X140970000Y-35560000D03*
D12*
X73660000Y-30480000D03*
D13*
X71120000Y-30480000D03*
D12*
X62230000Y-30480000D03*
X59690000Y-30480000D03*
X57150000Y-30480000D03*
X54610000Y-30480000D03*
X52070000Y-30480000D03*
D13*
X49530000Y-30480000D03*
D12*
X53340000Y-38100000D03*
X50800000Y-38100000D03*
D13*
X48260000Y-38100000D03*
D12*
X55880000Y-208280000D03*
X55880000Y-205740000D03*
X58420000Y-208280000D03*
X58420000Y-205740000D03*
X60960000Y-208280000D03*
X60960000Y-205740000D03*
X63500000Y-208280000D03*
X63500000Y-205740000D03*
X66040000Y-208280000D03*
X66040000Y-205740000D03*
X68580000Y-208280000D03*
X68580000Y-205740000D03*
X71120000Y-208280000D03*
X71120000Y-205740000D03*
X73660000Y-208280000D03*
X73660000Y-205740000D03*
X76200000Y-208280000D03*
X76200000Y-205740000D03*
X78740000Y-208280000D03*
X78740000Y-205740000D03*
X81280000Y-208280000D03*
X81280000Y-205740000D03*
X83820000Y-208280000D03*
X83820000Y-205740000D03*
X86360000Y-208280000D03*
X86360000Y-205740000D03*
X88900000Y-208280000D03*
X88900000Y-205740000D03*
X91440000Y-208280000D03*
X91440000Y-205740000D03*
X93980000Y-208280000D03*
X93980000Y-205740000D03*
X96520000Y-208280000D03*
X96520000Y-205740000D03*
X99060000Y-208280000D03*
X99060000Y-205740000D03*
X101600000Y-208280000D03*
X101600000Y-205740000D03*
X104140000Y-208280000D03*
D13*
X104140000Y-205740000D03*
D12*
X88900000Y-30480000D03*
X86360000Y-30480000D03*
D13*
X83820000Y-30480000D03*
D12*
X66040000Y-38100000D03*
X63500000Y-38100000D03*
D13*
X60960000Y-38100000D03*
D12*
X41910000Y-111760000D03*
X44450000Y-111760000D03*
X41910000Y-114300000D03*
X44450000Y-114300000D03*
X41910000Y-116840000D03*
X44450000Y-116840000D03*
X41910000Y-119380000D03*
X44450000Y-119380000D03*
X41910000Y-121920000D03*
X44450000Y-121920000D03*
X41910000Y-124460000D03*
X44450000Y-124460000D03*
X41910000Y-127000000D03*
X44450000Y-127000000D03*
X41910000Y-129540000D03*
X44450000Y-129540000D03*
X41910000Y-132080000D03*
X44450000Y-132080000D03*
X41910000Y-134620000D03*
X44450000Y-134620000D03*
X41910000Y-137160000D03*
X44450000Y-137160000D03*
X41910000Y-139700000D03*
D13*
X44450000Y-139700000D03*
D12*
X99060000Y-30480000D03*
D13*
X96520000Y-30480000D03*
D12*
X109220000Y-30480000D03*
D13*
X106680000Y-30480000D03*
D14*
X120650000Y-191770000D03*
D15*
X113030000Y-191770000D03*
D14*
X120650000Y-185420000D03*
D15*
X113030000Y-185420000D03*
D14*
X120650000Y-179070000D03*
D15*
X113030000Y-179070000D03*
D23*
X119380000Y-30480000D03*
D24*
X116840000Y-30480000D03*
D14*
X187960000Y-40640000D03*
D15*
X180340000Y-40640000D03*
D14*
X173990000Y-40640000D03*
D15*
X166370000Y-40640000D03*
D25*
X102870000Y-49450000D03*
X102870000Y-44450000D03*
X85090000Y-44530000D03*
X85090000Y-49530000D03*
D26*
X117570000Y-200660000D03*
D27*
X115570000Y-200660000D03*
D25*
X119300000Y-152400000D03*
X114300000Y-152400000D03*
X95330000Y-147320000D03*
X100330000Y-147320000D03*
X114380000Y-52070000D03*
X119380000Y-52070000D03*
X91520000Y-52070000D03*
X96520000Y-52070000D03*
X68660000Y-52070000D03*
X73660000Y-52070000D03*
X64850000Y-111760000D03*
X69850000Y-111760000D03*
X176610000Y-52070000D03*
X181610000Y-52070000D03*
X95330000Y-111760000D03*
X100330000Y-111760000D03*
X64850000Y-147320000D03*
X69850000Y-147320000D03*
X114380000Y-96520000D03*
X119380000Y-96520000D03*
X204550000Y-52070000D03*
X209550000Y-52070000D03*
X45800000Y-52070000D03*
X50800000Y-52070000D03*
X190580000Y-52070000D03*
X195580000Y-52070000D03*
X80090000Y-111760000D03*
X85090000Y-111760000D03*
X148670000Y-52070000D03*
X153670000Y-52070000D03*
X80090000Y-147320000D03*
X85090000Y-147320000D03*
X134700000Y-52070000D03*
X139700000Y-52070000D03*
X162640000Y-52070000D03*
X167640000Y-52070000D03*
X157400000Y-30480000D03*
X152400000Y-30480000D03*
X198200000Y-35560000D03*
X203200000Y-35560000D03*
X201390000Y-41910000D03*
D15*
X199390000Y-41910000D03*
D25*
X145970000Y-30480000D03*
X140970000Y-30480000D03*
D28*
X103984000Y-159374000D03*
X96376100Y-55284500D03*
X100180000Y-130034000D03*
X60451400Y-92318100D03*
X60710000Y-94478400D03*
X58662700Y-126783000D03*
X81983500Y-141350000D03*
X57055800Y-136002000D03*
X81251100Y-142164000D03*
X57094400Y-134698000D03*
X79475000Y-141779000D03*
X47946100Y-138098000D03*
X65653100Y-55003300D03*
X97322700Y-132270000D03*
X58638900Y-163821000D03*
X81208600Y-114722000D03*
X92589000Y-100889000D03*
X58748000Y-165896000D03*
X81026900Y-115942000D03*
X92589300Y-102386000D03*
X60264900Y-143339000D03*
X117535000Y-94908400D03*
X60264800Y-166244000D03*
X102450000Y-111796000D03*
X60243200Y-167422000D03*
X80143200Y-113978000D03*
X61253700Y-167492000D03*
X77767600Y-123366000D03*
X62036000Y-168167000D03*
X88885700Y-121959000D03*
X65056200Y-167685000D03*
X77003200Y-128621000D03*
X75463300Y-151063000D03*
X105388000Y-92154600D03*
X105866000Y-89876100D03*
X106447000Y-87680400D03*
X93722100Y-110036000D03*
X105801000Y-145730000D03*
X105174000Y-204219000D03*
X79223700Y-108632000D03*
X89995900Y-80161100D03*
X96614100Y-65914800D03*
X82372700Y-106232000D03*
X110340000Y-58595400D03*
X100791000Y-203604000D03*
X108365000Y-165100000D03*
X104128000Y-81519100D03*
X104051000Y-83200800D03*
X94447600Y-84577900D03*
X102725000Y-84059300D03*
X97362000Y-140323000D03*
X82828500Y-108501000D03*
X53995700Y-119399000D03*
X129644000Y-159561000D03*
X106632000Y-106456000D03*
X106322000Y-68124300D03*
X141607000Y-132435000D03*
X167490000Y-112173000D03*
X109490000Y-143727000D03*
X110605000Y-144312000D03*
X92466400Y-81845600D03*
X99165400Y-174434000D03*
X93939000Y-172064000D03*
X89733800Y-171013000D03*
X90294700Y-152795000D03*
X89839900Y-146893000D03*
X89253700Y-145816000D03*
D29*
X186055000Y-58420000D02*
X182341000Y-58420000D01*
X182341000Y-58420000D02*
X176610000Y-52688700D01*
X176610000Y-52688700D02*
X176610000Y-52070000D01*
X190580000Y-52070000D02*
X186055000Y-56595000D01*
X186055000Y-56595000D02*
X186055000Y-58420000D01*
X162640000Y-50768100D02*
X149972000Y-50768100D01*
X149972000Y-50768100D02*
X148670000Y-52070000D01*
X162640000Y-52070000D02*
X162640000Y-50768100D01*
X200660000Y-35560000D02*
X201390000Y-36290000D01*
X201390000Y-36290000D02*
X201390000Y-41910000D01*
X200660000Y-30480000D02*
X200660000Y-35560000D01*
X78740000Y-139700000D02*
X78740000Y-140950000D01*
X78740000Y-140950000D02*
X78624700Y-141066000D01*
X78624700Y-141066000D02*
X78624700Y-145855000D01*
X78624700Y-145855000D02*
X80090000Y-147320000D01*
X187960000Y-40640000D02*
X187960000Y-41890300D01*
X187960000Y-41890300D02*
X190580000Y-44510300D01*
X190580000Y-44510300D02*
X190580000Y-52070000D01*
X201390000Y-41910000D02*
X204550000Y-45070000D01*
X204550000Y-45070000D02*
X204550000Y-52070000D01*
X86360000Y-162560000D02*
X86360000Y-161310000D01*
X86360000Y-161310000D02*
X86903900Y-161310000D01*
X86903900Y-161310000D02*
X87610400Y-160603000D01*
X87610400Y-160603000D02*
X87610400Y-159434000D01*
X87610400Y-159434000D02*
X86907000Y-158730000D01*
X86907000Y-158730000D02*
X86360000Y-158730000D01*
X86360000Y-158730000D02*
X86360000Y-157480000D01*
X86360000Y-157480000D02*
X86360000Y-154940000D01*
X163830000Y-30480000D02*
X163830000Y-35560000D01*
X163830000Y-30480000D02*
X157400000Y-30480000D01*
X200660000Y-35560000D02*
X198200000Y-35560000D01*
X86360000Y-182880000D02*
X86360000Y-181580000D01*
X86360000Y-181580000D02*
X87612500Y-180327000D01*
X87612500Y-180327000D02*
X87612500Y-167056000D01*
X87612500Y-167056000D02*
X86907000Y-166350000D01*
X86907000Y-166350000D02*
X86360000Y-166350000D01*
X86360000Y-166350000D02*
X86360000Y-165100000D01*
X86360000Y-165100000D02*
X86360000Y-162560000D01*
X134700000Y-52070000D02*
X132060000Y-54709600D01*
X132060000Y-54709600D02*
X132060000Y-72934000D01*
X132060000Y-72934000D02*
X132806000Y-73679700D01*
X132806000Y-73679700D02*
X133350000Y-73679700D01*
X133350000Y-73679700D02*
X133350000Y-74930000D01*
X163830000Y-35560000D02*
X163830000Y-37110300D01*
X163830000Y-37110300D02*
X162640000Y-38300300D01*
X162640000Y-38300300D02*
X162640000Y-50768100D01*
X109220000Y-90170000D02*
X109220000Y-91420300D01*
X109220000Y-91420300D02*
X109280000Y-91420300D01*
X109280000Y-91420300D02*
X114380000Y-96520000D01*
X45800000Y-52070000D02*
X45800000Y-35510300D01*
X45800000Y-35510300D02*
X49530000Y-31780300D01*
X49530000Y-31780300D02*
X49530000Y-30480000D01*
X203200000Y-74930000D02*
X203200000Y-73679700D01*
X203200000Y-73679700D02*
X202497000Y-73679700D01*
X202497000Y-73679700D02*
X197397000Y-68580000D01*
X197397000Y-68580000D02*
X195227000Y-68580000D01*
X195227000Y-68580000D02*
X190147000Y-63500000D01*
X190147000Y-63500000D02*
X187971000Y-63500000D01*
X63500000Y-139700000D02*
X63500000Y-145970000D01*
X63500000Y-145970000D02*
X64850000Y-147320000D01*
X78740000Y-167640000D02*
X78740000Y-166390000D01*
X78740000Y-166390000D02*
X79283900Y-166390000D01*
X79283900Y-166390000D02*
X80447600Y-165226000D01*
X80447600Y-165226000D02*
X80447600Y-147678000D01*
X80447600Y-147678000D02*
X80090000Y-147320000D01*
X189230000Y-74930000D02*
X189230000Y-73679700D01*
X189230000Y-73679700D02*
X188728000Y-73679700D01*
X188728000Y-73679700D02*
X187971000Y-72922300D01*
X187971000Y-72922300D02*
X187971000Y-71120000D01*
X186055000Y-58420000D02*
X187971000Y-60335900D01*
X187971000Y-60335900D02*
X187971000Y-63500000D01*
X175260000Y-74930000D02*
X176510000Y-74930000D01*
X176510000Y-74930000D02*
X180320000Y-71120000D01*
X180320000Y-71120000D02*
X187971000Y-71120000D01*
X187971000Y-71120000D02*
X187971000Y-63500000D01*
X93980000Y-167640000D02*
X93980000Y-166390000D01*
X93980000Y-166390000D02*
X94527100Y-166390000D01*
X94527100Y-166390000D02*
X95230300Y-165686000D01*
X95230300Y-165686000D02*
X95230300Y-162016000D01*
X95230300Y-162016000D02*
X101056000Y-156190000D01*
X101056000Y-156190000D02*
X101600000Y-156190000D01*
X101600000Y-156190000D02*
X101600000Y-154940000D01*
X147320000Y-74930000D02*
X148570000Y-74930000D01*
X148570000Y-74930000D02*
X152380000Y-71120000D01*
X152380000Y-71120000D02*
X156230000Y-71120000D01*
X156230000Y-71120000D02*
X160040000Y-74930000D01*
X160040000Y-74930000D02*
X161290000Y-74930000D01*
X114380000Y-52070000D02*
X105490000Y-52070000D01*
X105490000Y-52070000D02*
X102870000Y-49450000D01*
X55880000Y-57150000D02*
X55880000Y-59690000D01*
X93980000Y-139700000D02*
X93980000Y-138450000D01*
X93980000Y-138450000D02*
X93433000Y-138450000D01*
X93433000Y-138450000D02*
X92671300Y-137688000D01*
X92671300Y-137688000D02*
X92671300Y-118149000D01*
X92671300Y-118149000D02*
X93980000Y-116840000D01*
X93980000Y-139700000D02*
X93980000Y-140950000D01*
X93980000Y-140950000D02*
X95330000Y-142300000D01*
X95330000Y-142300000D02*
X95330000Y-147320000D01*
X177800000Y-207700000D02*
X184300000Y-207700000D01*
X74930000Y-182880000D02*
X74930000Y-181580000D01*
X74930000Y-181580000D02*
X64750300Y-171400000D01*
X64750300Y-171400000D02*
X64750300Y-170180000D01*
X64750300Y-170180000D02*
X63500000Y-170180000D01*
X101600000Y-119380000D02*
X101600000Y-118130000D01*
X101600000Y-118130000D02*
X102144000Y-118130000D01*
X102144000Y-118130000D02*
X102890000Y-117384000D01*
X102890000Y-117384000D02*
X102890000Y-114953000D01*
X102890000Y-114953000D02*
X101600000Y-113663000D01*
X101600000Y-113663000D02*
X101600000Y-105410000D01*
X95330000Y-147320000D02*
X95330000Y-147964000D01*
X95330000Y-147964000D02*
X101056000Y-153690000D01*
X101056000Y-153690000D02*
X101600000Y-153690000D01*
X101600000Y-153690000D02*
X101600000Y-154940000D01*
X101600000Y-67310000D02*
X99870500Y-69039500D01*
X99870500Y-69039500D02*
X99870500Y-102974000D01*
X99870500Y-102974000D02*
X101056000Y-104160000D01*
X101056000Y-104160000D02*
X101600000Y-104160000D01*
X101600000Y-104160000D02*
X101600000Y-105410000D01*
X101600000Y-67310000D02*
X101600000Y-66059700D01*
X101600000Y-66059700D02*
X102144000Y-66059700D01*
X102144000Y-66059700D02*
X105490000Y-62713600D01*
X105490000Y-62713600D02*
X105490000Y-52070000D01*
X117570000Y-200660000D02*
X117570000Y-201796000D01*
X117570000Y-201796000D02*
X127784000Y-212010000D01*
X127784000Y-212010000D02*
X173490000Y-212010000D01*
X173490000Y-212010000D02*
X177800000Y-207700000D01*
X93980000Y-116840000D02*
X93980000Y-115590000D01*
X93980000Y-115590000D02*
X95330000Y-114240000D01*
X95330000Y-114240000D02*
X95330000Y-111760000D01*
X148590000Y-35560000D02*
X149740000Y-35560000D01*
X149740000Y-35560000D02*
X156371000Y-28929700D01*
X156371000Y-28929700D02*
X170889000Y-28929700D01*
X170889000Y-28929700D02*
X172440000Y-30480000D01*
X172440000Y-30480000D02*
X173990000Y-30480000D01*
X140970000Y-30480000D02*
X138917000Y-28427300D01*
X138917000Y-28427300D02*
X108733000Y-28427300D01*
X108733000Y-28427300D02*
X106680000Y-30480000D01*
X191275000Y-35560000D02*
X191275000Y-32805500D01*
X199390000Y-41910000D02*
X198140000Y-41910000D01*
X198140000Y-41910000D02*
X192050000Y-35820600D01*
X192050000Y-35820600D02*
X192050000Y-35560000D01*
X192050000Y-35560000D02*
X191275000Y-35560000D01*
X190500000Y-35560000D02*
X191275000Y-35560000D01*
X190500000Y-30480000D02*
X190500000Y-32030300D01*
X190500000Y-32030300D02*
X191275000Y-32805500D01*
X198120000Y-30480000D02*
X196717000Y-30480000D01*
X196717000Y-30480000D02*
X194392000Y-32805500D01*
X194392000Y-32805500D02*
X191275000Y-32805500D01*
X42209100Y-126701000D02*
X44450000Y-124460000D01*
X40640000Y-85090000D02*
X40640000Y-86340300D01*
X40640000Y-86340300D02*
X40607500Y-86372800D01*
X40607500Y-86372800D02*
X40607500Y-125099000D01*
X40607500Y-125099000D02*
X42209100Y-126701000D01*
X196889000Y-55860300D02*
X195580000Y-54550900D01*
X195580000Y-54550900D02*
X195580000Y-52070000D01*
X196850000Y-57150000D02*
X196850000Y-55899700D01*
X196850000Y-55899700D02*
X196889000Y-55860300D01*
X168910000Y-114300000D02*
X173990000Y-119380000D01*
X173990000Y-119380000D02*
X175260000Y-119380000D01*
X182880000Y-114300000D02*
X187960000Y-119380000D01*
X187960000Y-119380000D02*
X189230000Y-119380000D01*
X196850000Y-114300000D02*
X201930000Y-119380000D01*
X201930000Y-119380000D02*
X203200000Y-119380000D01*
X78740000Y-102870000D02*
X78740000Y-101620000D01*
X78740000Y-101620000D02*
X79287000Y-101620000D01*
X79287000Y-101620000D02*
X79997700Y-100909000D01*
X79997700Y-100909000D02*
X79997700Y-99791000D01*
X79997700Y-99791000D02*
X79247000Y-99040300D01*
X79247000Y-99040300D02*
X78740000Y-99040300D01*
X78740000Y-99040300D02*
X78740000Y-97790000D01*
X96520000Y-30480000D02*
X96520000Y-31780300D01*
X96520000Y-31780300D02*
X97576100Y-32836400D01*
X97576100Y-32836400D02*
X97576100Y-51013900D01*
X97576100Y-51013900D02*
X96520000Y-52070000D01*
X78740000Y-187960000D02*
X74930000Y-187960000D01*
X128270000Y-191770000D02*
X128270000Y-198120000D01*
X182880000Y-57150000D02*
X182880000Y-55899700D01*
X182880000Y-55899700D02*
X181610000Y-54629700D01*
X181610000Y-54629700D02*
X181610000Y-52070000D01*
X147320000Y-119380000D02*
X142240000Y-114300000D01*
X142240000Y-114300000D02*
X140970000Y-114300000D01*
X73660000Y-30480000D02*
X73660000Y-52070000D01*
X128270000Y-162560000D02*
X128270000Y-167640000D01*
X128270000Y-167640000D02*
X128270000Y-172720000D01*
X74930000Y-187960000D02*
X71120000Y-187960000D01*
X128270000Y-157480000D02*
X128270000Y-162560000D01*
X86360000Y-129540000D02*
X86360000Y-128290000D01*
X86360000Y-128290000D02*
X86907000Y-128290000D01*
X86907000Y-128290000D02*
X87679700Y-127517000D01*
X87679700Y-127517000D02*
X87679700Y-126486000D01*
X87679700Y-126486000D02*
X86903900Y-125710000D01*
X86903900Y-125710000D02*
X86360000Y-125710000D01*
X86360000Y-125710000D02*
X86360000Y-124460000D01*
X50800000Y-52070000D02*
X50800000Y-64063600D01*
X50800000Y-64063600D02*
X41183900Y-73679700D01*
X41183900Y-73679700D02*
X40640000Y-73679700D01*
X40640000Y-73679700D02*
X40640000Y-74930000D01*
X128270000Y-198120000D02*
X128270000Y-204470000D01*
X128270000Y-204470000D02*
X128270000Y-210820000D01*
X154940000Y-114300000D02*
X160020000Y-119380000D01*
X160020000Y-119380000D02*
X161290000Y-119380000D01*
X210820000Y-57150000D02*
X209570000Y-57150000D01*
X209570000Y-57150000D02*
X208280000Y-55860300D01*
X63500000Y-105410000D02*
X64750300Y-105410000D01*
X64750300Y-105410000D02*
X69850000Y-110510000D01*
X69850000Y-110510000D02*
X69850000Y-111760000D01*
X86360000Y-152400000D02*
X86360000Y-153650000D01*
X86360000Y-153650000D02*
X85816100Y-153650000D01*
X85816100Y-153650000D02*
X85058600Y-154408000D01*
X85058600Y-154408000D02*
X85058600Y-186659000D01*
X85058600Y-186659000D02*
X86360000Y-187960000D01*
X86360000Y-124460000D02*
X86360000Y-123210000D01*
X86360000Y-123210000D02*
X86903900Y-123210000D01*
X86903900Y-123210000D02*
X87649600Y-122464000D01*
X87649600Y-122464000D02*
X87649600Y-118833000D01*
X87649600Y-118833000D02*
X86907000Y-118090000D01*
X86907000Y-118090000D02*
X86360000Y-118090000D01*
X86360000Y-118090000D02*
X86360000Y-116840000D01*
X139700000Y-52070000D02*
X139700000Y-41185000D01*
X127000000Y-30480000D02*
X137705000Y-41185000D01*
X137705000Y-41185000D02*
X139700000Y-41185000D01*
X139700000Y-41185000D02*
X140425000Y-41185000D01*
X140425000Y-41185000D02*
X140970000Y-40640000D01*
X166370000Y-40640000D02*
X166370000Y-41890300D01*
X166370000Y-41890300D02*
X167640000Y-43160300D01*
X167640000Y-43160300D02*
X167640000Y-52070000D01*
X86360000Y-116840000D02*
X86360000Y-113030000D01*
X86360000Y-113030000D02*
X85090000Y-111760000D01*
X154940000Y-57150000D02*
X154940000Y-55264700D01*
X140970000Y-57150000D02*
X140970000Y-54619800D01*
X140970000Y-54619800D02*
X141605000Y-53984800D01*
X208280000Y-55860300D02*
X208280000Y-53340000D01*
X208280000Y-53340000D02*
X209550000Y-52070000D01*
X196889000Y-55860300D02*
X208280000Y-55860300D01*
X40640000Y-80010000D02*
X40640000Y-81260300D01*
X40640000Y-81260300D02*
X41187000Y-81260300D01*
X41187000Y-81260300D02*
X41929600Y-82002900D01*
X41929600Y-82002900D02*
X41929600Y-83094000D01*
X41929600Y-83094000D02*
X41183900Y-83839700D01*
X41183900Y-83839700D02*
X40640000Y-83839700D01*
X40640000Y-83839700D02*
X40640000Y-85090000D01*
X41910000Y-127000000D02*
X42209100Y-126701000D01*
X85090000Y-147320000D02*
X85090000Y-149880000D01*
X85090000Y-149880000D02*
X86360000Y-151150000D01*
X86360000Y-151150000D02*
X86360000Y-152400000D01*
X71120000Y-116840000D02*
X71120000Y-118090000D01*
X71120000Y-118090000D02*
X70573000Y-118090000D01*
X70573000Y-118090000D02*
X69850000Y-118813000D01*
X69850000Y-118813000D02*
X69850000Y-147320000D01*
X69850000Y-147320000D02*
X71120000Y-148590000D01*
X71120000Y-148590000D02*
X71120000Y-152400000D01*
X168910000Y-57150000D02*
X168910000Y-55899700D01*
X168910000Y-55899700D02*
X167640000Y-54629700D01*
X167640000Y-52070000D02*
X167640000Y-54629700D01*
X128270000Y-172720000D02*
X128270000Y-179070000D01*
X128270000Y-179070000D02*
X128270000Y-185420000D01*
X69850000Y-111760000D02*
X71120000Y-113030000D01*
X71120000Y-113030000D02*
X71120000Y-116840000D01*
X124460000Y-101600000D02*
X123210000Y-101600000D01*
X123210000Y-101600000D02*
X123210000Y-100350000D01*
X123210000Y-100350000D02*
X119380000Y-96520000D01*
X124460000Y-59690000D02*
X124460000Y-57150000D01*
X154940000Y-55264700D02*
X167005000Y-55264700D01*
X167005000Y-55264700D02*
X167640000Y-54629700D01*
X141605000Y-53984800D02*
X153670000Y-53984800D01*
X154940000Y-55264700D02*
X153670000Y-53994700D01*
X153670000Y-53994700D02*
X153670000Y-53984800D01*
X153670000Y-53984800D02*
X153670000Y-52070000D01*
X141605000Y-53984800D02*
X141605000Y-53975000D01*
X141605000Y-53975000D02*
X139700000Y-52070000D01*
X81280000Y-205740000D02*
X78740000Y-208280000D01*
X101600000Y-152400000D02*
X101600000Y-151150000D01*
X101600000Y-151150000D02*
X100330000Y-149880000D01*
X100330000Y-149880000D02*
X100330000Y-147320000D01*
X90170000Y-187960000D02*
X86360000Y-187960000D01*
X100330000Y-111760000D02*
X100330000Y-114320000D01*
X100330000Y-114320000D02*
X101600000Y-115590000D01*
X101600000Y-115590000D02*
X101600000Y-116840000D01*
X109220000Y-57150000D02*
X109220000Y-58400300D01*
X109220000Y-58400300D02*
X108673000Y-58400300D01*
X108673000Y-58400300D02*
X106832000Y-60241000D01*
X106832000Y-60241000D02*
X106832000Y-63846100D01*
X106832000Y-63846100D02*
X102079000Y-68599700D01*
X102079000Y-68599700D02*
X101600000Y-68599700D01*
X101600000Y-68599700D02*
X101600000Y-69850000D01*
X133350000Y-119380000D02*
X134550000Y-120580000D01*
X134550000Y-120580000D02*
X134550000Y-134758000D01*
X134550000Y-134758000D02*
X128270000Y-141039000D01*
X128270000Y-141039000D02*
X128270000Y-152400000D01*
X128270000Y-152400000D02*
X128270000Y-157480000D01*
X152400000Y-30480000D02*
X151102000Y-31777900D01*
X151102000Y-31777900D02*
X133866000Y-31777900D01*
X133866000Y-31777900D02*
X131218000Y-29129700D01*
X131218000Y-29129700D02*
X111871000Y-29129700D01*
X111871000Y-29129700D02*
X110520000Y-30480000D01*
X110520000Y-30480000D02*
X109220000Y-30480000D01*
D30*
X119300000Y-152400000D02*
X118173000Y-151273000D01*
X118173000Y-151273000D02*
X113833000Y-151273000D01*
X113833000Y-151273000D02*
X113030000Y-152076000D01*
X113030000Y-152076000D02*
X113030000Y-157480000D01*
X114300000Y-152400000D02*
X114300000Y-155185000D01*
X114300000Y-155185000D02*
X120650000Y-161535000D01*
X120650000Y-161535000D02*
X120650000Y-162560000D01*
X115570000Y-200660000D02*
X115570000Y-199735000D01*
X115570000Y-199735000D02*
X119513000Y-195792000D01*
X119513000Y-195792000D02*
X119513000Y-192914000D01*
X120650000Y-167640000D02*
X120650000Y-168665000D01*
X120650000Y-168665000D02*
X119513000Y-169802000D01*
X119513000Y-169802000D02*
X119513000Y-192914000D01*
X177800000Y-203200000D02*
X171959000Y-209041000D01*
X171959000Y-209041000D02*
X145277000Y-209041000D01*
X145277000Y-209041000D02*
X129457000Y-193221000D01*
X129457000Y-193221000D02*
X129457000Y-191500000D01*
X129457000Y-191500000D02*
X128701000Y-190744000D01*
X128701000Y-190744000D02*
X126177000Y-190744000D01*
X126177000Y-190744000D02*
X124008000Y-192914000D01*
X124008000Y-192914000D02*
X119513000Y-192914000D01*
X103984000Y-159374000D02*
X103984000Y-145572000D01*
X103984000Y-145572000D02*
X94156900Y-135745000D01*
X94156900Y-135745000D02*
X93980000Y-135745000D01*
X93980000Y-135745000D02*
X93980000Y-134620000D01*
X91440000Y-44450000D02*
X91440000Y-48870800D01*
X91440000Y-48870800D02*
X99909900Y-57340700D01*
X99909900Y-57340700D02*
X99909900Y-59695900D01*
X99909900Y-59695900D02*
X101319000Y-61104700D01*
X101319000Y-61104700D02*
X101600000Y-61104700D01*
X101600000Y-61104700D02*
X101600000Y-62230000D01*
X101600000Y-59690000D02*
X101600000Y-58564700D01*
X101600000Y-58564700D02*
X101319000Y-58564700D01*
X101319000Y-58564700D02*
X100475000Y-57720800D01*
X100475000Y-57720800D02*
X100475000Y-46845300D01*
X100475000Y-46845300D02*
X102870000Y-44450000D01*
X96376100Y-55284500D02*
X98048100Y-56956500D01*
X98048100Y-56956500D02*
X98048100Y-136148000D01*
X98048100Y-136148000D02*
X101600000Y-139700000D01*
X113030000Y-179070000D02*
X113030000Y-177945000D01*
X113030000Y-177945000D02*
X107613000Y-172528000D01*
X107613000Y-172528000D02*
X107613000Y-126067000D01*
X107613000Y-126067000D02*
X109220000Y-124460000D01*
X93980000Y-119380000D02*
X93980000Y-118255000D01*
X93980000Y-118255000D02*
X94683300Y-118255000D01*
X94683300Y-118255000D02*
X96468500Y-116470000D01*
X96468500Y-116470000D02*
X96468500Y-84184900D01*
X96468500Y-84184900D02*
X89753600Y-77470000D01*
X89753600Y-77470000D02*
X86360000Y-77470000D01*
X109220000Y-121920000D02*
X109220000Y-120795000D01*
X109220000Y-120795000D02*
X109501000Y-120795000D01*
X109501000Y-120795000D02*
X112633000Y-117663000D01*
X112633000Y-117663000D02*
X112633000Y-95685300D01*
X112633000Y-95685300D02*
X108095000Y-91146900D01*
X108095000Y-91146900D02*
X108095000Y-79439200D01*
X108095000Y-79439200D02*
X108939000Y-78595300D01*
X108939000Y-78595300D02*
X109220000Y-78595300D01*
X109220000Y-78595300D02*
X109220000Y-77470000D01*
X113030000Y-185420000D02*
X113030000Y-184295000D01*
X113030000Y-184295000D02*
X107160000Y-178424000D01*
X107160000Y-178424000D02*
X107160000Y-124824000D01*
X107160000Y-124824000D02*
X108939000Y-123045000D01*
X108939000Y-123045000D02*
X109220000Y-123045000D01*
X109220000Y-123045000D02*
X109220000Y-121920000D01*
X109220000Y-119380000D02*
X109220000Y-118255000D01*
X109220000Y-118255000D02*
X109501000Y-118255000D01*
X109501000Y-118255000D02*
X112181000Y-115575000D01*
X112181000Y-115575000D02*
X112181000Y-96023100D01*
X112181000Y-96023100D02*
X107634000Y-91475700D01*
X107634000Y-91475700D02*
X107634000Y-77360200D01*
X107634000Y-77360200D02*
X108939000Y-76055300D01*
X108939000Y-76055300D02*
X109220000Y-76055300D01*
X109220000Y-76055300D02*
X109220000Y-74930000D01*
X113030000Y-191770000D02*
X113030000Y-190645000D01*
X113030000Y-190645000D02*
X106652000Y-184267000D01*
X106652000Y-184267000D02*
X106652000Y-130665000D01*
X106652000Y-130665000D02*
X100811000Y-130665000D01*
X100811000Y-130665000D02*
X100180000Y-130034000D01*
X106652000Y-130665000D02*
X106652000Y-121948000D01*
X106652000Y-121948000D02*
X109220000Y-119380000D01*
X63500000Y-80010000D02*
X63500000Y-81135300D01*
X63500000Y-81135300D02*
X63307200Y-81135300D01*
X63307200Y-81135300D02*
X61571300Y-82871200D01*
X61571300Y-82871200D02*
X61571300Y-91198200D01*
X61571300Y-91198200D02*
X60451400Y-92318100D01*
X60710000Y-94478400D02*
X62374700Y-92813700D01*
X62374700Y-92813700D02*
X62374700Y-84519200D01*
X62374700Y-84519200D02*
X63218600Y-83675300D01*
X63218600Y-83675300D02*
X63500000Y-83675300D01*
X63500000Y-83675300D02*
X63500000Y-82550000D01*
X41910000Y-129540000D02*
X43085300Y-129540000D01*
X43085300Y-129540000D02*
X43085300Y-129907000D01*
X43085300Y-129907000D02*
X43921200Y-130743000D01*
X43921200Y-130743000D02*
X44955600Y-130743000D01*
X44955600Y-130743000D02*
X55171400Y-120527000D01*
X55171400Y-120527000D02*
X55171400Y-89848500D01*
X55171400Y-89848500D02*
X57518600Y-87501300D01*
X57518600Y-87501300D02*
X57518600Y-61024300D01*
X57518600Y-61024300D02*
X62518200Y-56024700D01*
X62518200Y-56024700D02*
X65011900Y-56024700D01*
X65011900Y-56024700D02*
X68677200Y-59690000D01*
X68677200Y-59690000D02*
X78740000Y-59690000D01*
X78740000Y-57150000D02*
X66774100Y-57150000D01*
X66774100Y-57150000D02*
X65169400Y-55545300D01*
X65169400Y-55545300D02*
X62356100Y-55545300D01*
X62356100Y-55545300D02*
X57005400Y-60896000D01*
X57005400Y-60896000D02*
X57005400Y-86692200D01*
X57005400Y-86692200D02*
X54721100Y-88976500D01*
X54721100Y-88976500D02*
X54721100Y-119711000D01*
X54721100Y-119711000D02*
X44892400Y-129540000D01*
X44892400Y-129540000D02*
X44450000Y-129540000D01*
X63500000Y-74930000D02*
X63500000Y-76055300D01*
X63500000Y-76055300D02*
X63218600Y-76055300D01*
X63218600Y-76055300D02*
X61121000Y-78152900D01*
X61121000Y-78152900D02*
X61121000Y-90622700D01*
X61121000Y-90622700D02*
X59224100Y-92519600D01*
X59224100Y-92519600D02*
X59224100Y-126221000D01*
X59224100Y-126221000D02*
X58662700Y-126783000D01*
X90170000Y-185420000D02*
X90170000Y-184245000D01*
X90170000Y-184245000D02*
X89802600Y-184245000D01*
X89802600Y-184245000D02*
X88994700Y-183437000D01*
X88994700Y-183437000D02*
X88994700Y-154546000D01*
X88994700Y-154546000D02*
X88462200Y-154014000D01*
X88462200Y-154014000D02*
X88462200Y-148459000D01*
X88462200Y-148459000D02*
X81983500Y-141980000D01*
X81983500Y-141980000D02*
X81983500Y-141350000D01*
X63500000Y-72390000D02*
X63500000Y-73515300D01*
X63500000Y-73515300D02*
X63218700Y-73515300D01*
X63218700Y-73515300D02*
X60236800Y-76497200D01*
X60236800Y-76497200D02*
X60236800Y-90870000D01*
X60236800Y-90870000D02*
X58773800Y-92333000D01*
X58773800Y-92333000D02*
X58773800Y-125646000D01*
X58773800Y-125646000D02*
X57881800Y-126538000D01*
X57881800Y-126538000D02*
X57881800Y-135176000D01*
X57881800Y-135176000D02*
X57055800Y-136002000D01*
X86360000Y-185420000D02*
X86360000Y-184245000D01*
X86360000Y-184245000D02*
X86727300Y-184245000D01*
X86727300Y-184245000D02*
X88237100Y-182735000D01*
X88237100Y-182735000D02*
X88237100Y-154744000D01*
X88237100Y-154744000D02*
X87947200Y-154454000D01*
X87947200Y-154454000D02*
X87947200Y-148581000D01*
X87947200Y-148581000D02*
X81530300Y-142164000D01*
X81530300Y-142164000D02*
X81251100Y-142164000D01*
X63500000Y-69850000D02*
X63500000Y-70975300D01*
X63500000Y-70975300D02*
X63218700Y-70975300D01*
X63218700Y-70975300D02*
X59770100Y-74423900D01*
X59770100Y-74423900D02*
X59770100Y-90699800D01*
X59770100Y-90699800D02*
X58323400Y-92146500D01*
X58323400Y-92146500D02*
X58323400Y-123038000D01*
X58323400Y-123038000D02*
X57094400Y-124267000D01*
X57094400Y-124267000D02*
X57094400Y-134698000D01*
X79475000Y-141779000D02*
X79475000Y-143440000D01*
X79475000Y-143440000D02*
X81374700Y-145340000D01*
X81374700Y-145340000D02*
X81374700Y-183375000D01*
X81374700Y-183375000D02*
X82244300Y-184245000D01*
X82244300Y-184245000D02*
X82550000Y-184245000D01*
X82550000Y-184245000D02*
X82550000Y-185420000D01*
X41910000Y-137160000D02*
X41910000Y-138335000D01*
X41910000Y-138335000D02*
X41542700Y-138335000D01*
X41542700Y-138335000D02*
X40715200Y-139163000D01*
X40715200Y-139163000D02*
X40715200Y-156682000D01*
X40715200Y-156682000D02*
X70628800Y-186595000D01*
X70628800Y-186595000D02*
X76389400Y-186595000D01*
X76389400Y-186595000D02*
X77564700Y-185420000D01*
X77564700Y-185420000D02*
X78740000Y-185420000D01*
X41910000Y-137160000D02*
X43085300Y-137160000D01*
X43085300Y-137160000D02*
X43085300Y-136845000D01*
X43085300Y-136845000D02*
X44040200Y-135890000D01*
X44040200Y-135890000D02*
X44855500Y-135890000D01*
X44855500Y-135890000D02*
X55049800Y-125696000D01*
X55049800Y-125696000D02*
X55049800Y-121569000D01*
X55049800Y-121569000D02*
X55621700Y-120997000D01*
X55621700Y-120997000D02*
X55621700Y-90059500D01*
X55621700Y-90059500D02*
X57968900Y-87712300D01*
X57968900Y-87712300D02*
X57968900Y-63627300D01*
X57968900Y-63627300D02*
X63040600Y-58555600D01*
X63040600Y-58555600D02*
X64008800Y-58555600D01*
X64008800Y-58555600D02*
X64675500Y-59222300D01*
X64675500Y-59222300D02*
X64675500Y-66134500D01*
X64675500Y-66134500D02*
X63500000Y-67310000D01*
X47946100Y-138098000D02*
X47946100Y-157558000D01*
X47946100Y-157558000D02*
X74632400Y-184245000D01*
X74632400Y-184245000D02*
X74930000Y-184245000D01*
X74930000Y-184245000D02*
X74930000Y-185420000D01*
X63500000Y-64770000D02*
X63500000Y-65895300D01*
X63500000Y-65895300D02*
X63218700Y-65895300D01*
X63218700Y-65895300D02*
X59319800Y-69794200D01*
X59319800Y-69794200D02*
X59319800Y-90194900D01*
X59319800Y-90194900D02*
X57873000Y-91641700D01*
X57873000Y-91641700D02*
X57873000Y-122195000D01*
X57873000Y-122195000D02*
X56644000Y-123424000D01*
X56644000Y-123424000D02*
X56644000Y-129400000D01*
X56644000Y-129400000D02*
X47946100Y-138098000D01*
X45590800Y-140875000D02*
X45590800Y-159085000D01*
X45590800Y-159085000D02*
X70750600Y-184245000D01*
X70750600Y-184245000D02*
X71120000Y-184245000D01*
X71120000Y-184245000D02*
X71120000Y-185420000D01*
X63500000Y-62230000D02*
X63500000Y-63355300D01*
X63500000Y-63355300D02*
X63218700Y-63355300D01*
X63218700Y-63355300D02*
X58869500Y-67704500D01*
X58869500Y-67704500D02*
X58869500Y-88635900D01*
X58869500Y-88635900D02*
X56972600Y-90532800D01*
X56972600Y-90532800D02*
X56972600Y-122252000D01*
X56972600Y-122252000D02*
X55950400Y-123275000D01*
X55950400Y-123275000D02*
X55950400Y-129068000D01*
X55950400Y-129068000D02*
X46793100Y-138225000D01*
X46793100Y-138225000D02*
X46793100Y-139673000D01*
X46793100Y-139673000D02*
X45590800Y-140875000D01*
X41910000Y-139700000D02*
X43085300Y-139700000D01*
X43085300Y-139700000D02*
X43085300Y-140508000D01*
X43085300Y-140508000D02*
X43452500Y-140875000D01*
X43452500Y-140875000D02*
X45590800Y-140875000D01*
X44450000Y-139700000D02*
X44450000Y-138525000D01*
X44450000Y-138525000D02*
X44817300Y-138525000D01*
X44817300Y-138525000D02*
X55500100Y-127842000D01*
X55500100Y-127842000D02*
X55500100Y-123088000D01*
X55500100Y-123088000D02*
X56195700Y-122392000D01*
X56195700Y-122392000D02*
X56195700Y-90246200D01*
X56195700Y-90246200D02*
X58419200Y-88022700D01*
X58419200Y-88022700D02*
X58419200Y-65614800D01*
X58419200Y-65614800D02*
X63218700Y-60815300D01*
X63218700Y-60815300D02*
X63500000Y-60815300D01*
X63500000Y-60815300D02*
X63500000Y-59690000D01*
X65653100Y-55003300D02*
X65653100Y-39662200D01*
X65653100Y-39662200D02*
X66040000Y-39275300D01*
X66040000Y-39275300D02*
X66040000Y-38100000D01*
X86360000Y-30480000D02*
X87535300Y-30480000D01*
X87535300Y-30480000D02*
X87535300Y-30112600D01*
X87535300Y-30112600D02*
X88343200Y-29304700D01*
X88343200Y-29304700D02*
X89462800Y-29304700D01*
X89462800Y-29304700D02*
X90318600Y-30160500D01*
X90318600Y-30160500D02*
X90318600Y-53528800D01*
X90318600Y-53528800D02*
X97460300Y-60670500D01*
X97460300Y-60670500D02*
X97460300Y-132133000D01*
X97460300Y-132133000D02*
X97322700Y-132270000D01*
X40640000Y-69850000D02*
X40640000Y-68724700D01*
X40640000Y-68724700D02*
X40921300Y-68724700D01*
X40921300Y-68724700D02*
X48898600Y-60747400D01*
X48898600Y-60747400D02*
X48898600Y-51336700D01*
X48898600Y-51336700D02*
X60960000Y-39275300D01*
X60960000Y-39275300D02*
X60960000Y-38100000D01*
X87945800Y-31900800D02*
X86037900Y-31900800D01*
X86037900Y-31900800D02*
X85175000Y-31037900D01*
X85175000Y-31037900D02*
X85175000Y-29931600D01*
X85175000Y-29931600D02*
X86317600Y-28789000D01*
X86317600Y-28789000D02*
X99033800Y-28789000D01*
X99033800Y-28789000D02*
X130581000Y-60335900D01*
X130581000Y-60335900D02*
X130581000Y-129543000D01*
X130581000Y-129543000D02*
X127228000Y-132896000D01*
X127228000Y-132896000D02*
X127228000Y-185840000D01*
X127228000Y-185840000D02*
X133158000Y-191770000D01*
X133158000Y-191770000D02*
X135890000Y-191770000D01*
X88900000Y-30480000D02*
X88900000Y-31655300D01*
X88900000Y-31655300D02*
X88654500Y-31900800D01*
X88654500Y-31900800D02*
X87945800Y-31900800D01*
X86360000Y-69850000D02*
X86360000Y-68724700D01*
X86360000Y-68724700D02*
X86641300Y-68724700D01*
X86641300Y-68724700D02*
X87945800Y-67420200D01*
X87945800Y-67420200D02*
X87945800Y-31900800D01*
X78740000Y-62230000D02*
X78740000Y-64770000D01*
X83820000Y-30480000D02*
X83820000Y-31655300D01*
X83820000Y-31655300D02*
X82113200Y-33362100D01*
X82113200Y-33362100D02*
X82113200Y-61635200D01*
X86360000Y-64770000D02*
X85234700Y-64770000D01*
X85234700Y-64770000D02*
X85234700Y-64756700D01*
X85234700Y-64756700D02*
X82113200Y-61635200D01*
X78740000Y-62230000D02*
X79865300Y-62230000D01*
X79865300Y-62230000D02*
X80460100Y-61635200D01*
X80460100Y-61635200D02*
X82113200Y-61635200D01*
X86360000Y-208280000D02*
X86360000Y-207105000D01*
X86360000Y-207105000D02*
X85992600Y-207105000D01*
X85992600Y-207105000D02*
X85184700Y-206297000D01*
X85184700Y-206297000D02*
X85184700Y-205394000D01*
X85184700Y-205394000D02*
X39475800Y-159685000D01*
X39475800Y-159685000D02*
X39475800Y-73554200D01*
X39475800Y-73554200D02*
X40640000Y-72390000D01*
X63500000Y-119380000D02*
X63500000Y-120505000D01*
X63500000Y-120505000D02*
X63218700Y-120505000D01*
X63218700Y-120505000D02*
X60300700Y-123423000D01*
X60300700Y-123423000D02*
X60300700Y-126989000D01*
X60300700Y-126989000D02*
X58638900Y-128651000D01*
X58638900Y-128651000D02*
X58638900Y-163821000D01*
X81208600Y-114722000D02*
X83286500Y-112644000D01*
X83286500Y-112644000D02*
X83286500Y-110397000D01*
X83286500Y-110397000D02*
X92589000Y-101094000D01*
X92589000Y-101094000D02*
X92589000Y-100889000D01*
X63500000Y-121920000D02*
X63500000Y-123045000D01*
X63500000Y-123045000D02*
X63218600Y-123045000D01*
X63218600Y-123045000D02*
X62374700Y-123889000D01*
X62374700Y-123889000D02*
X62374700Y-125861000D01*
X62374700Y-125861000D02*
X59539500Y-128696000D01*
X59539500Y-128696000D02*
X59539500Y-165105000D01*
X59539500Y-165105000D02*
X58748000Y-165896000D01*
X81026900Y-115942000D02*
X83736900Y-113232000D01*
X83736900Y-113232000D02*
X83736900Y-111238000D01*
X83736900Y-111238000D02*
X92589300Y-102386000D01*
X63500000Y-124460000D02*
X63500000Y-125585000D01*
X63500000Y-125585000D02*
X63286900Y-125585000D01*
X63286900Y-125585000D02*
X60264900Y-128607000D01*
X60264900Y-128607000D02*
X60264900Y-143339000D01*
X124460000Y-106680000D02*
X124460000Y-105555000D01*
X124460000Y-105555000D02*
X124741000Y-105555000D01*
X124741000Y-105555000D02*
X125610000Y-104686000D01*
X125610000Y-104686000D02*
X125610000Y-101147000D01*
X125610000Y-101147000D02*
X119372000Y-94908400D01*
X124460000Y-62230000D02*
X124460000Y-63355300D01*
X124460000Y-63355300D02*
X124179000Y-63355300D01*
X124179000Y-63355300D02*
X119372000Y-68162000D01*
X119372000Y-68162000D02*
X119372000Y-94908400D01*
X119372000Y-94908400D02*
X117535000Y-94908400D01*
X63500000Y-127000000D02*
X63500000Y-128125000D01*
X63500000Y-128125000D02*
X63218700Y-128125000D01*
X63218700Y-128125000D02*
X60990200Y-130354000D01*
X60990200Y-130354000D02*
X60990200Y-165519000D01*
X60990200Y-165519000D02*
X60264800Y-166244000D01*
X102450000Y-111796000D02*
X102753000Y-111493000D01*
X102753000Y-111493000D02*
X102753000Y-104023000D01*
X102753000Y-104023000D02*
X101600000Y-102870000D01*
X101600000Y-102870000D02*
X101600000Y-101745000D01*
X101600000Y-101745000D02*
X101319000Y-101745000D01*
X101319000Y-101745000D02*
X100446000Y-100872000D01*
X100446000Y-100872000D02*
X100446000Y-74449600D01*
X100446000Y-74449600D02*
X101236000Y-73660000D01*
X101236000Y-73660000D02*
X101922000Y-73660000D01*
X101922000Y-73660000D02*
X103681000Y-71900400D01*
X103681000Y-71900400D02*
X103681000Y-68072200D01*
X103681000Y-68072200D02*
X108095000Y-63658900D01*
X108095000Y-63658900D02*
X108095000Y-61659200D01*
X108095000Y-61659200D02*
X108939000Y-60815300D01*
X108939000Y-60815300D02*
X109220000Y-60815300D01*
X109220000Y-60815300D02*
X109220000Y-59690000D01*
X124460000Y-114300000D02*
X124460000Y-113175000D01*
X124460000Y-113175000D02*
X124714000Y-113175000D01*
X124714000Y-113175000D02*
X126515000Y-111374000D01*
X126515000Y-111374000D02*
X126515000Y-99132300D01*
X126515000Y-99132300D02*
X120630000Y-93247100D01*
X120630000Y-93247100D02*
X120630000Y-74524400D01*
X120630000Y-74524400D02*
X124179000Y-70975300D01*
X124179000Y-70975300D02*
X124460000Y-70975300D01*
X124460000Y-70975300D02*
X124460000Y-69850000D01*
X63500000Y-129540000D02*
X63500000Y-130665000D01*
X63500000Y-130665000D02*
X63218700Y-130665000D01*
X63218700Y-130665000D02*
X61440500Y-132444000D01*
X61440500Y-132444000D02*
X61440500Y-166225000D01*
X61440500Y-166225000D02*
X60243200Y-167422000D01*
X86360000Y-105410000D02*
X86360000Y-106535000D01*
X86360000Y-106535000D02*
X82836200Y-110059000D01*
X82836200Y-110059000D02*
X82836200Y-111285000D01*
X82836200Y-111285000D02*
X80143200Y-113978000D01*
X124460000Y-119380000D02*
X124460000Y-118255000D01*
X124460000Y-118255000D02*
X124741000Y-118255000D01*
X124741000Y-118255000D02*
X127415000Y-115581000D01*
X127415000Y-115581000D02*
X127415000Y-98759100D01*
X127415000Y-98759100D02*
X121530000Y-92873900D01*
X121530000Y-92873900D02*
X121530000Y-78792300D01*
X121530000Y-78792300D02*
X124267000Y-76055300D01*
X124267000Y-76055300D02*
X124460000Y-76055300D01*
X124460000Y-76055300D02*
X124460000Y-74930000D01*
X63500000Y-132080000D02*
X63500000Y-133205000D01*
X63500000Y-133205000D02*
X63218700Y-133205000D01*
X63218700Y-133205000D02*
X61890800Y-134533000D01*
X61890800Y-134533000D02*
X61890800Y-166855000D01*
X61890800Y-166855000D02*
X61253700Y-167492000D01*
X86360000Y-102870000D02*
X86360000Y-103995000D01*
X86360000Y-103995000D02*
X86182700Y-103995000D01*
X86182700Y-103995000D02*
X85234700Y-104943000D01*
X85234700Y-104943000D02*
X85234700Y-105033000D01*
X85234700Y-105033000D02*
X82859800Y-107408000D01*
X82859800Y-107408000D02*
X82803700Y-107408000D01*
X82803700Y-107408000D02*
X77118700Y-113093000D01*
X77118700Y-113093000D02*
X77118700Y-122717000D01*
X77118700Y-122717000D02*
X77767600Y-123366000D01*
X124460000Y-111760000D02*
X124460000Y-110635000D01*
X124460000Y-110635000D02*
X124741000Y-110635000D01*
X124741000Y-110635000D02*
X126061000Y-109315000D01*
X126061000Y-109315000D02*
X126061000Y-99526300D01*
X126061000Y-99526300D02*
X120179000Y-93644900D01*
X120179000Y-93644900D02*
X120179000Y-72434700D01*
X120179000Y-72434700D02*
X124179000Y-68435300D01*
X124179000Y-68435300D02*
X124460000Y-68435300D01*
X124460000Y-68435300D02*
X124460000Y-67310000D01*
X63500000Y-134620000D02*
X63500000Y-135745000D01*
X63500000Y-135745000D02*
X63218700Y-135745000D01*
X63218700Y-135745000D02*
X62341100Y-136623000D01*
X62341100Y-136623000D02*
X62341100Y-167862000D01*
X62341100Y-167862000D02*
X62036000Y-168167000D01*
X86360000Y-100330000D02*
X87485300Y-100330000D01*
X87485300Y-100330000D02*
X87665500Y-100150000D01*
X87665500Y-100150000D02*
X92891400Y-100150000D01*
X92891400Y-100150000D02*
X93314600Y-100573000D01*
X93314600Y-100573000D02*
X93314600Y-102687000D01*
X93314600Y-102687000D02*
X88885700Y-107116000D01*
X88885700Y-107116000D02*
X88885700Y-121959000D01*
X65056200Y-167685000D02*
X65991800Y-166750000D01*
X65991800Y-166750000D02*
X65991800Y-140496000D01*
X65991800Y-140496000D02*
X63781400Y-138285000D01*
X63781400Y-138285000D02*
X63500000Y-138285000D01*
X63500000Y-138285000D02*
X63500000Y-137160000D01*
X86360000Y-97790000D02*
X86360000Y-98915300D01*
X86360000Y-98915300D02*
X86078700Y-98915300D01*
X86078700Y-98915300D02*
X84233900Y-100760000D01*
X84233900Y-100760000D02*
X84233900Y-105397000D01*
X84233900Y-105397000D02*
X82673200Y-106957000D01*
X82673200Y-106957000D02*
X82561400Y-106957000D01*
X82561400Y-106957000D02*
X76668400Y-112850000D01*
X76668400Y-112850000D02*
X76668400Y-128286000D01*
X76668400Y-128286000D02*
X77003200Y-128621000D01*
X109220000Y-106680000D02*
X109220000Y-105555000D01*
X109220000Y-105555000D02*
X108939000Y-105555000D01*
X108939000Y-105555000D02*
X104648000Y-101264000D01*
X104648000Y-101264000D02*
X104648000Y-86778900D01*
X104648000Y-86778900D02*
X105306000Y-86121100D01*
X105306000Y-86121100D02*
X105306000Y-70167000D01*
X105306000Y-70167000D02*
X107048000Y-68424800D01*
X107048000Y-68424800D02*
X107048000Y-65342700D01*
X107048000Y-65342700D02*
X109035000Y-63355300D01*
X109035000Y-63355300D02*
X109220000Y-63355300D01*
X109220000Y-63355300D02*
X109220000Y-62230000D01*
X86360000Y-95250000D02*
X86360000Y-96375300D01*
X86360000Y-96375300D02*
X86078700Y-96375300D01*
X86078700Y-96375300D02*
X83445200Y-99008800D01*
X83445200Y-99008800D02*
X83445200Y-104134000D01*
X83445200Y-104134000D02*
X81647400Y-105932000D01*
X81647400Y-105932000D02*
X81647400Y-106032000D01*
X81647400Y-106032000D02*
X79772300Y-107907000D01*
X79772300Y-107907000D02*
X78923300Y-107907000D01*
X78923300Y-107907000D02*
X75314300Y-111516000D01*
X75314300Y-111516000D02*
X75314300Y-150914000D01*
X75314300Y-150914000D02*
X75463300Y-151063000D01*
X109220000Y-109220000D02*
X109220000Y-108095000D01*
X109220000Y-108095000D02*
X109501000Y-108095000D01*
X109501000Y-108095000D02*
X110345000Y-107251000D01*
X110345000Y-107251000D02*
X110345000Y-98440100D01*
X110345000Y-98440100D02*
X105388000Y-93482700D01*
X105388000Y-93482700D02*
X105388000Y-92154600D01*
X109220000Y-64770000D02*
X109220000Y-65895300D01*
X109220000Y-65895300D02*
X108939000Y-65895300D01*
X108939000Y-65895300D02*
X107498000Y-67335900D01*
X107498000Y-67335900D02*
X107498000Y-68611400D01*
X107498000Y-68611400D02*
X105756000Y-70353600D01*
X105756000Y-70353600D02*
X105756000Y-86307700D01*
X105756000Y-86307700D02*
X105134000Y-86929900D01*
X105134000Y-86929900D02*
X105134000Y-91900300D01*
X105134000Y-91900300D02*
X105388000Y-92154600D01*
X71120000Y-160020000D02*
X71120000Y-158895000D01*
X71120000Y-158895000D02*
X71401300Y-158895000D01*
X71401300Y-158895000D02*
X74416900Y-155879000D01*
X74416900Y-155879000D02*
X74416900Y-111776000D01*
X74416900Y-111776000D02*
X78736700Y-107456000D01*
X78736700Y-107456000D02*
X79574100Y-107456000D01*
X79574100Y-107456000D02*
X81197100Y-105834000D01*
X81197100Y-105834000D02*
X81197100Y-105503000D01*
X81197100Y-105503000D02*
X82994900Y-103706000D01*
X82994900Y-103706000D02*
X82994900Y-96919100D01*
X82994900Y-96919100D02*
X86078700Y-93835300D01*
X86078700Y-93835300D02*
X86360000Y-93835300D01*
X86360000Y-93835300D02*
X86360000Y-92710000D01*
X109220000Y-111760000D02*
X109220000Y-110635000D01*
X109220000Y-110635000D02*
X109424000Y-110635000D01*
X109424000Y-110635000D02*
X110817000Y-109241000D01*
X110817000Y-109241000D02*
X110817000Y-98275200D01*
X110817000Y-98275200D02*
X106280000Y-93738300D01*
X106280000Y-93738300D02*
X106280000Y-90290100D01*
X106280000Y-90290100D02*
X105866000Y-89876100D01*
X109220000Y-67310000D02*
X109220000Y-68435300D01*
X109220000Y-68435300D02*
X108939000Y-68435300D01*
X108939000Y-68435300D02*
X106206000Y-71167700D01*
X106206000Y-71167700D02*
X106206000Y-86494300D01*
X106206000Y-86494300D02*
X105703000Y-86997100D01*
X105703000Y-86997100D02*
X105703000Y-89713000D01*
X105703000Y-89713000D02*
X105866000Y-89876100D01*
X71120000Y-157480000D02*
X71120000Y-156355000D01*
X71120000Y-156355000D02*
X71331000Y-156355000D01*
X71331000Y-156355000D02*
X73966600Y-153719000D01*
X73966600Y-153719000D02*
X73966600Y-111590000D01*
X73966600Y-111590000D02*
X78550100Y-107006000D01*
X78550100Y-107006000D02*
X79379100Y-107006000D01*
X79379100Y-107006000D02*
X80746800Y-105638000D01*
X80746800Y-105638000D02*
X80746800Y-105076000D01*
X80746800Y-105076000D02*
X82280800Y-103542000D01*
X82280800Y-103542000D02*
X82280800Y-95170200D01*
X82280800Y-95170200D02*
X86155700Y-91295300D01*
X86155700Y-91295300D02*
X86360000Y-91295300D01*
X86360000Y-91295300D02*
X86360000Y-90170000D01*
X109220000Y-114300000D02*
X109220000Y-113175000D01*
X109220000Y-113175000D02*
X109501000Y-113175000D01*
X109501000Y-113175000D02*
X111268000Y-111408000D01*
X111268000Y-111408000D02*
X111268000Y-98088600D01*
X111268000Y-98088600D02*
X106731000Y-93551700D01*
X106731000Y-93551700D02*
X106731000Y-87963800D01*
X106731000Y-87963800D02*
X106447000Y-87680400D01*
X109220000Y-69850000D02*
X109220000Y-70975300D01*
X109220000Y-70975300D02*
X108997000Y-70975300D01*
X108997000Y-70975300D02*
X106698000Y-73274500D01*
X106698000Y-73274500D02*
X106698000Y-87429900D01*
X106698000Y-87429900D02*
X106447000Y-87680400D01*
X86360000Y-87630000D02*
X86360000Y-88755300D01*
X86360000Y-88755300D02*
X86078700Y-88755300D01*
X86078700Y-88755300D02*
X81756700Y-93077300D01*
X81756700Y-93077300D02*
X81756700Y-103033000D01*
X81756700Y-103033000D02*
X80108200Y-104682000D01*
X80108200Y-104682000D02*
X80108200Y-105633000D01*
X80108200Y-105633000D02*
X79185800Y-106556000D01*
X79185800Y-106556000D02*
X78310500Y-106556000D01*
X78310500Y-106556000D02*
X73458000Y-111408000D01*
X73458000Y-111408000D02*
X73458000Y-152602000D01*
X73458000Y-152602000D02*
X71120000Y-154940000D01*
X109220000Y-116840000D02*
X109220000Y-115715000D01*
X109220000Y-115715000D02*
X109501000Y-115715000D01*
X109501000Y-115715000D02*
X111731000Y-113485000D01*
X111731000Y-113485000D02*
X111731000Y-97525900D01*
X111731000Y-97525900D02*
X107183000Y-92978500D01*
X107183000Y-92978500D02*
X107183000Y-75270700D01*
X107183000Y-75270700D02*
X108939000Y-73515300D01*
X108939000Y-73515300D02*
X109220000Y-73515300D01*
X109220000Y-73515300D02*
X109220000Y-72390000D01*
X93722100Y-110036000D02*
X93801600Y-109956000D01*
X93801600Y-109956000D02*
X93801600Y-93375600D01*
X93801600Y-93375600D02*
X86641300Y-86215300D01*
X86641300Y-86215300D02*
X86360000Y-86215300D01*
X86360000Y-86215300D02*
X86360000Y-85090000D01*
X105801000Y-145730000D02*
X105801000Y-137180000D01*
X105801000Y-137180000D02*
X101971000Y-133350000D01*
X101971000Y-133350000D02*
X101222000Y-133350000D01*
X101222000Y-133350000D02*
X99399100Y-131527000D01*
X99399100Y-131527000D02*
X99399100Y-129729000D01*
X99399100Y-129729000D02*
X100858000Y-128270000D01*
X100858000Y-128270000D02*
X101952000Y-128270000D01*
X101952000Y-128270000D02*
X105403000Y-124820000D01*
X105403000Y-124820000D02*
X105403000Y-120657000D01*
X105403000Y-120657000D02*
X109220000Y-116840000D01*
X40640000Y-62230000D02*
X40640000Y-64770000D01*
X76200000Y-208280000D02*
X76200000Y-207105000D01*
X76200000Y-207105000D02*
X75832600Y-207105000D01*
X75832600Y-207105000D02*
X75024700Y-206297000D01*
X75024700Y-206297000D02*
X75024700Y-198231000D01*
X75024700Y-198231000D02*
X39025400Y-162231000D01*
X39025400Y-162231000D02*
X39025400Y-67228600D01*
X39025400Y-67228600D02*
X40358700Y-65895300D01*
X40358700Y-65895300D02*
X40640000Y-65895300D01*
X40640000Y-65895300D02*
X40640000Y-64770000D01*
X86360000Y-205740000D02*
X86360000Y-204565000D01*
X86360000Y-204565000D02*
X79915300Y-198120000D01*
X79915300Y-198120000D02*
X79915300Y-184933000D01*
X79915300Y-184933000D02*
X79132200Y-184150000D01*
X79132200Y-184150000D02*
X78314000Y-184150000D01*
X78314000Y-184150000D02*
X67341700Y-173178000D01*
X67341700Y-173178000D02*
X67341700Y-121585000D01*
X67341700Y-121585000D02*
X63722500Y-117965000D01*
X63722500Y-117965000D02*
X62489300Y-117965000D01*
X62489300Y-117965000D02*
X61895000Y-117371000D01*
X61895000Y-117371000D02*
X61895000Y-100285000D01*
X61895000Y-100285000D02*
X63120000Y-99060000D01*
X63120000Y-99060000D02*
X63872800Y-99060000D01*
X63872800Y-99060000D02*
X64625400Y-98307400D01*
X64625400Y-98307400D02*
X64625400Y-87380200D01*
X64625400Y-87380200D02*
X78345600Y-73660000D01*
X78345600Y-73660000D02*
X79134400Y-73660000D01*
X79134400Y-73660000D02*
X84300500Y-68493900D01*
X84300500Y-68493900D02*
X84300500Y-67721700D01*
X84300500Y-67721700D02*
X85982200Y-66040000D01*
X85982200Y-66040000D02*
X86733900Y-66040000D01*
X86733900Y-66040000D02*
X87485300Y-65288600D01*
X87485300Y-65288600D02*
X87485300Y-61659200D01*
X87485300Y-61659200D02*
X86641400Y-60815300D01*
X86641400Y-60815300D02*
X86360000Y-60815300D01*
X86360000Y-60815300D02*
X86360000Y-59690000D01*
X101600000Y-137160000D02*
X101600000Y-136035000D01*
X101600000Y-136035000D02*
X101370000Y-136035000D01*
X101370000Y-136035000D02*
X98948700Y-133613000D01*
X98948700Y-133613000D02*
X98948700Y-65742100D01*
X98948700Y-65742100D02*
X101191000Y-63500000D01*
X101191000Y-63500000D02*
X101935000Y-63500000D01*
X101935000Y-63500000D02*
X102735000Y-62699900D01*
X102735000Y-62699900D02*
X102735000Y-58284900D01*
X102735000Y-58284900D02*
X101600000Y-57150000D01*
X101600000Y-137160000D02*
X101600000Y-138285000D01*
X101600000Y-138285000D02*
X101804000Y-138285000D01*
X101804000Y-138285000D02*
X105076000Y-141556000D01*
X105076000Y-141556000D02*
X105076000Y-146031000D01*
X105076000Y-146031000D02*
X105174000Y-146129000D01*
X105174000Y-146129000D02*
X105174000Y-204219000D01*
X78740000Y-152400000D02*
X78740000Y-151275000D01*
X78740000Y-151275000D02*
X75767800Y-148302000D01*
X75767800Y-148302000D02*
X75767800Y-112088000D01*
X75767800Y-112088000D02*
X79223700Y-108632000D01*
X88900000Y-205740000D02*
X88900000Y-204565000D01*
X88900000Y-204565000D02*
X80902800Y-196568000D01*
X80902800Y-196568000D02*
X80902800Y-184644000D01*
X80902800Y-184644000D02*
X80473900Y-184215000D01*
X80473900Y-184215000D02*
X80473900Y-175084000D01*
X80473900Y-175084000D02*
X77161800Y-171772000D01*
X77161800Y-171772000D02*
X77161800Y-154822000D01*
X77161800Y-154822000D02*
X78458700Y-153525000D01*
X78458700Y-153525000D02*
X78740000Y-153525000D01*
X78740000Y-153525000D02*
X78740000Y-152400000D01*
X78740000Y-105410000D02*
X78740000Y-104285000D01*
X78740000Y-104285000D02*
X79021300Y-104285000D01*
X79021300Y-104285000D02*
X81306300Y-102000000D01*
X81306300Y-102000000D02*
X81306300Y-88476500D01*
X81306300Y-88476500D02*
X85962800Y-83820000D01*
X85962800Y-83820000D02*
X86769400Y-83820000D01*
X86769400Y-83820000D02*
X89995900Y-80593500D01*
X89995900Y-80593500D02*
X89995900Y-80161100D01*
X78740000Y-160020000D02*
X78740000Y-158966000D01*
X78740000Y-158966000D02*
X78632900Y-158966000D01*
X78632900Y-158966000D02*
X77614700Y-157947000D01*
X77614700Y-157947000D02*
X77614700Y-156909000D01*
X77614700Y-156909000D02*
X78458600Y-156065000D01*
X78458600Y-156065000D02*
X78740000Y-156065000D01*
X78740000Y-156065000D02*
X78740000Y-154940000D01*
X91440000Y-208280000D02*
X91440000Y-207105000D01*
X91440000Y-207105000D02*
X91072600Y-207105000D01*
X91072600Y-207105000D02*
X90264700Y-206297000D01*
X90264700Y-206297000D02*
X90264700Y-197835000D01*
X90264700Y-197835000D02*
X81353100Y-188923000D01*
X81353100Y-188923000D02*
X81353100Y-184457000D01*
X81353100Y-184457000D02*
X80924300Y-184028000D01*
X80924300Y-184028000D02*
X80924300Y-174645000D01*
X80924300Y-174645000D02*
X77614700Y-171336000D01*
X77614700Y-171336000D02*
X77614700Y-161989000D01*
X77614700Y-161989000D02*
X78458600Y-161145000D01*
X78458600Y-161145000D02*
X78740000Y-161145000D01*
X78740000Y-161145000D02*
X78740000Y-160020000D01*
X78740000Y-95250000D02*
X78740000Y-94124700D01*
X78740000Y-94124700D02*
X78458700Y-94124700D01*
X78458700Y-94124700D02*
X77606600Y-93272600D01*
X77606600Y-93272600D02*
X77606600Y-79545200D01*
X77606600Y-79545200D02*
X78411800Y-78740000D01*
X78411800Y-78740000D02*
X79139800Y-78740000D01*
X79139800Y-78740000D02*
X84387400Y-73492400D01*
X84387400Y-73492400D02*
X84387400Y-72756800D01*
X84387400Y-72756800D02*
X86024200Y-71120000D01*
X86024200Y-71120000D02*
X91408900Y-71120000D01*
X91408900Y-71120000D02*
X96614100Y-65914800D01*
X82372700Y-106232000D02*
X82372700Y-106509000D01*
X82372700Y-106509000D02*
X76218100Y-112664000D01*
X76218100Y-112664000D02*
X76218100Y-146528000D01*
X76218100Y-146528000D02*
X79865400Y-150175000D01*
X79865400Y-150175000D02*
X79865400Y-153815000D01*
X79865400Y-153815000D02*
X78740000Y-154940000D01*
X135890000Y-198120000D02*
X135890000Y-197083000D01*
X135890000Y-197083000D02*
X126747000Y-187940000D01*
X126747000Y-187940000D02*
X126747000Y-132702000D01*
X126747000Y-132702000D02*
X130130000Y-129318000D01*
X130130000Y-129318000D02*
X130130000Y-66280400D01*
X130130000Y-66280400D02*
X124810000Y-60960000D01*
X124810000Y-60960000D02*
X112705000Y-60960000D01*
X112705000Y-60960000D02*
X110340000Y-58595400D01*
X93980000Y-208280000D02*
X95155300Y-208280000D01*
X95155300Y-208280000D02*
X95155300Y-208647000D01*
X95155300Y-208647000D02*
X96461900Y-209954000D01*
X96461900Y-209954000D02*
X101631000Y-209954000D01*
X101631000Y-209954000D02*
X102914000Y-208671000D01*
X102914000Y-208671000D02*
X102914000Y-161469000D01*
X102914000Y-161469000D02*
X104709000Y-159674000D01*
X104709000Y-159674000D02*
X104709000Y-146301000D01*
X104709000Y-146301000D02*
X104625000Y-146217000D01*
X104625000Y-146217000D02*
X104625000Y-145076000D01*
X104625000Y-145076000D02*
X96597400Y-137048000D01*
X96597400Y-137048000D02*
X96597400Y-131970000D01*
X96597400Y-131970000D02*
X96984000Y-131583000D01*
X96984000Y-131583000D02*
X96984000Y-83961100D01*
X96984000Y-83961100D02*
X86538200Y-73515300D01*
X86538200Y-73515300D02*
X86360000Y-73515300D01*
X86360000Y-73515300D02*
X86360000Y-72390000D01*
X63500000Y-116840000D02*
X63500000Y-116277000D01*
X93980000Y-205740000D02*
X93980000Y-206915000D01*
X93980000Y-206915000D02*
X93612600Y-206915000D01*
X93612600Y-206915000D02*
X92804700Y-207723000D01*
X92804700Y-207723000D02*
X92804700Y-208602000D01*
X92804700Y-208602000D02*
X91910300Y-209496000D01*
X91910300Y-209496000D02*
X88423100Y-209496000D01*
X88423100Y-209496000D02*
X87630000Y-208703000D01*
X87630000Y-208703000D02*
X87630000Y-204150000D01*
X87630000Y-204150000D02*
X80452500Y-196973000D01*
X80452500Y-196973000D02*
X80452500Y-184830000D01*
X80452500Y-184830000D02*
X80002200Y-184380000D01*
X80002200Y-184380000D02*
X80002200Y-180076000D01*
X80002200Y-180076000D02*
X74319100Y-174393000D01*
X74319100Y-174393000D02*
X74319100Y-166644000D01*
X74319100Y-166644000D02*
X71504600Y-163830000D01*
X71504600Y-163830000D02*
X70763700Y-163830000D01*
X70763700Y-163830000D02*
X68373000Y-161439000D01*
X68373000Y-161439000D02*
X68373000Y-121150000D01*
X68373000Y-121150000D02*
X63500000Y-116277000D01*
X63500000Y-116277000D02*
X62356400Y-115134000D01*
X62356400Y-115134000D02*
X62356400Y-102389000D01*
X62356400Y-102389000D02*
X63145800Y-101600000D01*
X63145800Y-101600000D02*
X63892900Y-101600000D01*
X63892900Y-101600000D02*
X66362800Y-99130100D01*
X66362800Y-99130100D02*
X66362800Y-88250400D01*
X66362800Y-88250400D02*
X78325600Y-76287600D01*
X78325600Y-76287600D02*
X79053800Y-76287600D01*
X79053800Y-76287600D02*
X80315700Y-75025700D01*
X80315700Y-75025700D02*
X80315700Y-73354300D01*
X80315700Y-73354300D02*
X86360000Y-67310000D01*
X101600000Y-165100000D02*
X101600000Y-166225000D01*
X101600000Y-166225000D02*
X101381000Y-166225000D01*
X101381000Y-166225000D02*
X100473000Y-167133000D01*
X100473000Y-167133000D02*
X100473000Y-203286000D01*
X100473000Y-203286000D02*
X100791000Y-203604000D01*
X109220000Y-82550000D02*
X109220000Y-83675300D01*
X109220000Y-83675300D02*
X109501000Y-83675300D01*
X109501000Y-83675300D02*
X116013000Y-90186800D01*
X116013000Y-90186800D02*
X116013000Y-121332000D01*
X116013000Y-121332000D02*
X110345000Y-127000000D01*
X109220000Y-127000000D02*
X110345000Y-127000000D01*
X110345000Y-127000000D02*
X110345000Y-135086000D01*
X110345000Y-135086000D02*
X108365000Y-137067000D01*
X108365000Y-137067000D02*
X108365000Y-165100000D01*
X104128000Y-81519100D02*
X104128000Y-78302000D01*
X104128000Y-78302000D02*
X101881000Y-76055300D01*
X101881000Y-76055300D02*
X101600000Y-76055300D01*
X101600000Y-76055300D02*
X101600000Y-74930000D01*
X96520000Y-205740000D02*
X96520000Y-204565000D01*
X96520000Y-204565000D02*
X96519900Y-204565000D01*
X96519900Y-204565000D02*
X96519900Y-186341000D01*
X96519900Y-186341000D02*
X91020000Y-180841000D01*
X91020000Y-180841000D02*
X91020000Y-152495000D01*
X91020000Y-152495000D02*
X90592900Y-152068000D01*
X90592900Y-152068000D02*
X90592800Y-152068000D01*
X90592800Y-152068000D02*
X90592800Y-146129000D01*
X90592800Y-146129000D02*
X89554200Y-145091000D01*
X89554200Y-145091000D02*
X89333000Y-145091000D01*
X89333000Y-145091000D02*
X84753400Y-140511000D01*
X84753400Y-140511000D02*
X84753400Y-128607000D01*
X84753400Y-128607000D02*
X86360000Y-127000000D01*
X104051000Y-83200800D02*
X103348000Y-82498000D01*
X103348000Y-82498000D02*
X103348000Y-80061800D01*
X103348000Y-80061800D02*
X101881000Y-78595300D01*
X101881000Y-78595300D02*
X101600000Y-78595300D01*
X101600000Y-78595300D02*
X101600000Y-77470000D01*
X109220000Y-129540000D02*
X109220000Y-128415000D01*
X109220000Y-128415000D02*
X108939000Y-128415000D01*
X108939000Y-128415000D02*
X108063000Y-127539000D01*
X108063000Y-127539000D02*
X108063000Y-126564000D01*
X108063000Y-126564000D02*
X108897000Y-125730000D01*
X108897000Y-125730000D02*
X109621000Y-125730000D01*
X109621000Y-125730000D02*
X115562000Y-119789000D01*
X115562000Y-119789000D02*
X115562000Y-92276400D01*
X115562000Y-92276400D02*
X109501000Y-86215300D01*
X109501000Y-86215300D02*
X109220000Y-86215300D01*
X109220000Y-86215300D02*
X109220000Y-85090000D01*
X101600000Y-80010000D02*
X101600000Y-81135300D01*
X101600000Y-81135300D02*
X101793000Y-81135300D01*
X101793000Y-81135300D02*
X102725000Y-82067800D01*
X102725000Y-82067800D02*
X102725000Y-84059300D01*
X86360000Y-132080000D02*
X86360000Y-130955000D01*
X86360000Y-130955000D02*
X86591300Y-130955000D01*
X86591300Y-130955000D02*
X91732400Y-125814000D01*
X91732400Y-125814000D02*
X91732400Y-113051000D01*
X91732400Y-113051000D02*
X94447600Y-110336000D01*
X94447600Y-110336000D02*
X94447600Y-84577900D01*
X99060000Y-208280000D02*
X99060000Y-207105000D01*
X99060000Y-207105000D02*
X98692600Y-207105000D01*
X98692600Y-207105000D02*
X97884700Y-206297000D01*
X97884700Y-206297000D02*
X97884700Y-177577000D01*
X97884700Y-177577000D02*
X91470300Y-171163000D01*
X91470300Y-171163000D02*
X91470300Y-146370000D01*
X91470300Y-146370000D02*
X89740800Y-144640000D01*
X89740800Y-144640000D02*
X89519700Y-144640000D01*
X89519700Y-144640000D02*
X85234700Y-140355000D01*
X85234700Y-140355000D02*
X85234700Y-134049000D01*
X85234700Y-134049000D02*
X86078600Y-133205000D01*
X86078600Y-133205000D02*
X86360000Y-133205000D01*
X86360000Y-133205000D02*
X86360000Y-132080000D01*
X78740000Y-80010000D02*
X79865300Y-80010000D01*
X79865300Y-80010000D02*
X81002900Y-78872400D01*
X81002900Y-78872400D02*
X90519100Y-78872400D01*
X90519100Y-78872400D02*
X94447500Y-82800800D01*
X94447500Y-82800800D02*
X94447500Y-84577900D01*
X94447500Y-84577900D02*
X94447600Y-84577900D01*
X99060000Y-205740000D02*
X99060000Y-176159000D01*
X99060000Y-176159000D02*
X92370900Y-169470000D01*
X92370900Y-169470000D02*
X92370900Y-144092000D01*
X92370900Y-144092000D02*
X86564500Y-138285000D01*
X86564500Y-138285000D02*
X86360000Y-138285000D01*
X86360000Y-138285000D02*
X86360000Y-137160000D01*
X124460000Y-134620000D02*
X124460000Y-133495000D01*
X124460000Y-133495000D02*
X124652000Y-133495000D01*
X124652000Y-133495000D02*
X129680000Y-128467000D01*
X129680000Y-128467000D02*
X129680000Y-96515400D01*
X129680000Y-96515400D02*
X124460000Y-91295300D01*
X124460000Y-91295300D02*
X124460000Y-90170000D01*
X124460000Y-87630000D02*
X124460000Y-88755300D01*
X124460000Y-88755300D02*
X124267000Y-88755300D01*
X124267000Y-88755300D02*
X123335000Y-89687800D01*
X123335000Y-89687800D02*
X123335000Y-91220300D01*
X123335000Y-91220300D02*
X129230000Y-97115400D01*
X129230000Y-97115400D02*
X129230000Y-126466000D01*
X129230000Y-126466000D02*
X124741000Y-130955000D01*
X124741000Y-130955000D02*
X124460000Y-130955000D01*
X124460000Y-130955000D02*
X124460000Y-132080000D01*
X101600000Y-208280000D02*
X100425000Y-208280000D01*
X100425000Y-208280000D02*
X100425000Y-208647000D01*
X100425000Y-208647000D02*
X99578300Y-209494000D01*
X99578300Y-209494000D02*
X98601000Y-209494000D01*
X98601000Y-209494000D02*
X97695400Y-208588000D01*
X97695400Y-208588000D02*
X97695400Y-207754000D01*
X97695400Y-207754000D02*
X96856400Y-206915000D01*
X96856400Y-206915000D02*
X95994400Y-206915000D01*
X95994400Y-206915000D02*
X95250000Y-206171000D01*
X95250000Y-206171000D02*
X95250000Y-199364000D01*
X95250000Y-199364000D02*
X84263600Y-188378000D01*
X84263600Y-188378000D02*
X84263600Y-151347000D01*
X84263600Y-151347000D02*
X81905300Y-148989000D01*
X81905300Y-148989000D02*
X81905300Y-144950000D01*
X81905300Y-144950000D02*
X80367000Y-143412000D01*
X80367000Y-143412000D02*
X80367000Y-139720000D01*
X80367000Y-139720000D02*
X78932800Y-138285000D01*
X78932800Y-138285000D02*
X78740000Y-138285000D01*
X78740000Y-138285000D02*
X78740000Y-137160000D01*
X124460000Y-129540000D02*
X124460000Y-128415000D01*
X124460000Y-128415000D02*
X124741000Y-128415000D01*
X124741000Y-128415000D02*
X128780000Y-124376000D01*
X128780000Y-124376000D02*
X128780000Y-97515000D01*
X128780000Y-97515000D02*
X122881000Y-91616700D01*
X122881000Y-91616700D02*
X122881000Y-87512800D01*
X122881000Y-87512800D02*
X124179000Y-86215300D01*
X124179000Y-86215300D02*
X124460000Y-86215300D01*
X124460000Y-86215300D02*
X124460000Y-85090000D01*
X101600000Y-205740000D02*
X101600000Y-204565000D01*
X101600000Y-204565000D02*
X100726000Y-204565000D01*
X100726000Y-204565000D02*
X100004000Y-203843000D01*
X100004000Y-203843000D02*
X100004000Y-159947000D01*
X100004000Y-159947000D02*
X101201000Y-158750000D01*
X101201000Y-158750000D02*
X101940000Y-158750000D01*
X101940000Y-158750000D02*
X102778000Y-157913000D01*
X102778000Y-157913000D02*
X102778000Y-145739000D01*
X102778000Y-145739000D02*
X97362000Y-140323000D01*
X104140000Y-208280000D02*
X104140000Y-207105000D01*
X104140000Y-207105000D02*
X104948000Y-207105000D01*
X104948000Y-207105000D02*
X118271000Y-193782000D01*
X118271000Y-193782000D02*
X118271000Y-168569000D01*
X118271000Y-168569000D02*
X122856000Y-163984000D01*
X122856000Y-163984000D02*
X122856000Y-128604000D01*
X122856000Y-128604000D02*
X124460000Y-127000000D01*
X124460000Y-82550000D02*
X124460000Y-83675300D01*
X124460000Y-83675300D02*
X124179000Y-83675300D01*
X124179000Y-83675300D02*
X122431000Y-85423100D01*
X122431000Y-85423100D02*
X122431000Y-91840300D01*
X122431000Y-91840300D02*
X128329000Y-97738500D01*
X128329000Y-97738500D02*
X128329000Y-123131000D01*
X128329000Y-123131000D02*
X124460000Y-127000000D01*
X104140000Y-205740000D02*
X105315000Y-205740000D01*
X105315000Y-205740000D02*
X116731000Y-194324000D01*
X116731000Y-194324000D02*
X116731000Y-168880000D01*
X116731000Y-168880000D02*
X122406000Y-163206000D01*
X122406000Y-163206000D02*
X122406000Y-127358000D01*
X122406000Y-127358000D02*
X124179000Y-125585000D01*
X124179000Y-125585000D02*
X124460000Y-125585000D01*
X124460000Y-125585000D02*
X124460000Y-124460000D01*
X124460000Y-124460000D02*
X124460000Y-123335000D01*
X124460000Y-123335000D02*
X124741000Y-123335000D01*
X124741000Y-123335000D02*
X127869000Y-120207000D01*
X127869000Y-120207000D02*
X127869000Y-97952500D01*
X127869000Y-97952500D02*
X121980000Y-92063900D01*
X121980000Y-92063900D02*
X121980000Y-83333500D01*
X121980000Y-83333500D02*
X124179000Y-81135300D01*
X124179000Y-81135300D02*
X124460000Y-81135300D01*
X124460000Y-81135300D02*
X124460000Y-80010000D01*
X82828500Y-108501000D02*
X81959900Y-109370000D01*
X81959900Y-109370000D02*
X81959900Y-111524000D01*
X81959900Y-111524000D02*
X80374300Y-113110000D01*
X80374300Y-113110000D02*
X79973500Y-113110000D01*
X79973500Y-113110000D02*
X77569100Y-115514000D01*
X77569100Y-115514000D02*
X77569100Y-120749000D01*
X77569100Y-120749000D02*
X78740000Y-121920000D01*
X40640000Y-59690000D02*
X40640000Y-58564700D01*
X40640000Y-58564700D02*
X41343300Y-58564700D01*
X41343300Y-58564700D02*
X46925400Y-52982600D01*
X46925400Y-52982600D02*
X46925400Y-45689900D01*
X46925400Y-45689900D02*
X53340000Y-39275300D01*
X53340000Y-39275300D02*
X53340000Y-38100000D01*
X57150000Y-30480000D02*
X57150000Y-31655300D01*
X57150000Y-31655300D02*
X56069400Y-31655300D01*
X56069400Y-31655300D02*
X50800000Y-36924700D01*
X50800000Y-36924700D02*
X50800000Y-38100000D01*
X120650000Y-157480000D02*
X120650000Y-151130000D01*
X120650000Y-151130000D02*
X114300000Y-144780000D01*
X113030000Y-162560000D02*
X112001000Y-161531000D01*
X112001000Y-161531000D02*
X112001000Y-145555000D01*
X112001000Y-145555000D02*
X113853000Y-143704000D01*
X113853000Y-143704000D02*
X118124000Y-143704000D01*
X118124000Y-143704000D02*
X119200000Y-144780000D01*
X78740000Y-100330000D02*
X72785800Y-106284000D01*
X72785800Y-106284000D02*
X72785800Y-121950000D01*
X72785800Y-121950000D02*
X71401300Y-123335000D01*
X71401300Y-123335000D02*
X71120000Y-123335000D01*
X71120000Y-123335000D02*
X71120000Y-124460000D01*
X40640000Y-77470000D02*
X40640000Y-78595300D01*
X40640000Y-78595300D02*
X40921300Y-78595300D01*
X40921300Y-78595300D02*
X53995700Y-91669700D01*
X53995700Y-91669700D02*
X53995700Y-119399000D01*
X168910000Y-64770000D02*
X170035000Y-64770000D01*
X170035000Y-64770000D02*
X171161000Y-63644700D01*
X171161000Y-63644700D02*
X180629000Y-63644700D01*
X180629000Y-63644700D02*
X181755000Y-64770000D01*
X181755000Y-64770000D02*
X182880000Y-64770000D01*
X140970000Y-64770000D02*
X140970000Y-65895300D01*
X140970000Y-65895300D02*
X141251000Y-65895300D01*
X141251000Y-65895300D02*
X142569000Y-67213400D01*
X142569000Y-67213400D02*
X142569000Y-107987000D01*
X142569000Y-107987000D02*
X139362000Y-111195000D01*
X139362000Y-111195000D02*
X139362000Y-119325000D01*
X139362000Y-119325000D02*
X140688000Y-120650000D01*
X140688000Y-120650000D02*
X141282000Y-120650000D01*
X141282000Y-120650000D02*
X142080000Y-121448000D01*
X142080000Y-121448000D02*
X142080000Y-129951000D01*
X142080000Y-129951000D02*
X129644000Y-142387000D01*
X129644000Y-142387000D02*
X129644000Y-159561000D01*
X101600000Y-127000000D02*
X101600000Y-125875000D01*
X101600000Y-125875000D02*
X101881000Y-125875000D01*
X101881000Y-125875000D02*
X104472000Y-123284000D01*
X104472000Y-123284000D02*
X104472000Y-108616000D01*
X104472000Y-108616000D02*
X106632000Y-106456000D01*
X133350000Y-59690000D02*
X134475000Y-59690000D01*
X134475000Y-59690000D02*
X135601000Y-58564700D01*
X135601000Y-58564700D02*
X145069000Y-58564700D01*
X145069000Y-58564700D02*
X146195000Y-59690000D01*
X146195000Y-59690000D02*
X147320000Y-59690000D01*
X161290000Y-57150000D02*
X162415000Y-57150000D01*
X162415000Y-57150000D02*
X163541000Y-58275300D01*
X163541000Y-58275300D02*
X173009000Y-58275300D01*
X173009000Y-58275300D02*
X174135000Y-57150000D01*
X174135000Y-57150000D02*
X175260000Y-57150000D01*
X101600000Y-121920000D02*
X101600000Y-120795000D01*
X101600000Y-120795000D02*
X101881000Y-120795000D01*
X101881000Y-120795000D02*
X103475000Y-119201000D01*
X103475000Y-119201000D02*
X103475000Y-85686600D01*
X103475000Y-85686600D02*
X104855000Y-84306300D01*
X104855000Y-84306300D02*
X104855000Y-69591600D01*
X104855000Y-69591600D02*
X106322000Y-68124300D01*
X154940000Y-62230000D02*
X153815000Y-62230000D01*
X153815000Y-62230000D02*
X152689000Y-63355300D01*
X152689000Y-63355300D02*
X147133000Y-63355300D01*
X147133000Y-63355300D02*
X145271000Y-65217300D01*
X145271000Y-65217300D02*
X145271000Y-116342000D01*
X145271000Y-116342000D02*
X147040000Y-118110000D01*
X147040000Y-118110000D02*
X147633000Y-118110000D01*
X147633000Y-118110000D02*
X148429000Y-118906000D01*
X148429000Y-118906000D02*
X148429000Y-119802000D01*
X148429000Y-119802000D02*
X147581000Y-120650000D01*
X147581000Y-120650000D02*
X146996000Y-120650000D01*
X146996000Y-120650000D02*
X144235000Y-123412000D01*
X144235000Y-123412000D02*
X144235000Y-129808000D01*
X144235000Y-129808000D02*
X141607000Y-132435000D01*
X168910000Y-62230000D02*
X168910000Y-63355300D01*
X168910000Y-63355300D02*
X168629000Y-63355300D01*
X168629000Y-63355300D02*
X167434000Y-64549700D01*
X167434000Y-64549700D02*
X167434000Y-104534000D01*
X167434000Y-104534000D02*
X169943000Y-107042000D01*
X169943000Y-107042000D02*
X169943000Y-109721000D01*
X169943000Y-109721000D02*
X167490000Y-112173000D01*
X78740000Y-116840000D02*
X79865300Y-116840000D01*
X79865300Y-116840000D02*
X82405300Y-119380000D01*
X82405300Y-119380000D02*
X86360000Y-119380000D01*
X124460000Y-104140000D02*
X116643000Y-111957000D01*
X116643000Y-111957000D02*
X116643000Y-136574000D01*
X116643000Y-136574000D02*
X109490000Y-143727000D01*
X110605000Y-144312000D02*
X121955000Y-132961000D01*
X121955000Y-132961000D02*
X121955000Y-119345000D01*
X121955000Y-119345000D02*
X124460000Y-116840000D01*
X124460000Y-116840000D02*
X124460000Y-115715000D01*
X124460000Y-115715000D02*
X124741000Y-115715000D01*
X124741000Y-115715000D02*
X126965000Y-113491000D01*
X126965000Y-113491000D02*
X126965000Y-98945700D01*
X126965000Y-98945700D02*
X121080000Y-93060500D01*
X121080000Y-93060500D02*
X121080000Y-76692000D01*
X121080000Y-76692000D02*
X124257000Y-73515300D01*
X124257000Y-73515300D02*
X124460000Y-73515300D01*
X124460000Y-73515300D02*
X124460000Y-72390000D01*
X71120000Y-119380000D02*
X72285600Y-118214000D01*
X72285600Y-118214000D02*
X72285600Y-102601000D01*
X72285600Y-102601000D02*
X78314700Y-96572000D01*
X78314700Y-96572000D02*
X79036300Y-96572000D01*
X79036300Y-96572000D02*
X80375400Y-95232900D01*
X80375400Y-95232900D02*
X80375400Y-86930700D01*
X80375400Y-86930700D02*
X86026100Y-81280000D01*
X86026100Y-81280000D02*
X87537100Y-81280000D01*
X87537100Y-81280000D02*
X89405200Y-79411900D01*
X89405200Y-79411900D02*
X90324500Y-79411900D01*
X90324500Y-79411900D02*
X92466400Y-81553800D01*
X92466400Y-81553800D02*
X92466400Y-81845600D01*
X71120000Y-132080000D02*
X71120000Y-133205000D01*
X71120000Y-133205000D02*
X71401300Y-133205000D01*
X71401300Y-133205000D02*
X72248400Y-134052000D01*
X72248400Y-134052000D02*
X72248400Y-152878000D01*
X72248400Y-152878000D02*
X71456000Y-153670000D01*
X71456000Y-153670000D02*
X70788500Y-153670000D01*
X70788500Y-153670000D02*
X69994700Y-154464000D01*
X69994700Y-154464000D02*
X69994700Y-160591000D01*
X69994700Y-160591000D02*
X70838600Y-161435000D01*
X70838600Y-161435000D02*
X71120000Y-161435000D01*
X71120000Y-161435000D02*
X71120000Y-162560000D01*
X151130000Y-152400000D02*
X149796000Y-151066000D01*
X149796000Y-151066000D02*
X149796000Y-141034000D01*
X149796000Y-141034000D02*
X151130000Y-139700000D01*
X156232000Y-153798000D02*
X152528000Y-153798000D01*
X152528000Y-153798000D02*
X151130000Y-152400000D01*
X156232000Y-163805000D02*
X156232000Y-153798000D01*
X156232000Y-163805000D02*
X154937000Y-165100000D01*
X154937000Y-165100000D02*
X151130000Y-165100000D01*
X157630000Y-165100000D02*
X156335000Y-163805000D01*
X156335000Y-163805000D02*
X156232000Y-163805000D01*
X158971000Y-202829000D02*
X158600000Y-203200000D01*
X157630000Y-190500000D02*
X158971000Y-191841000D01*
X158971000Y-191841000D02*
X158971000Y-202829000D01*
X151130000Y-190500000D02*
X157630000Y-190500000D01*
X157630000Y-177800000D02*
X158962000Y-179132000D01*
X158962000Y-179132000D02*
X158962000Y-189168000D01*
X158962000Y-189168000D02*
X157630000Y-190500000D01*
X158971000Y-202829000D02*
X164729000Y-202829000D01*
X164729000Y-202829000D02*
X165100000Y-203200000D01*
X156232000Y-153798000D02*
X157630000Y-152400000D01*
X170256000Y-141046000D02*
X174064000Y-141046000D01*
X174064000Y-141046000D02*
X175410000Y-139700000D01*
X170256000Y-151054000D02*
X170256000Y-141046000D01*
X175410000Y-165100000D02*
X176735000Y-163775000D01*
X176735000Y-163775000D02*
X176735000Y-153725000D01*
X176735000Y-153725000D02*
X175410000Y-152400000D01*
X170235000Y-166425000D02*
X174085000Y-166425000D01*
X174085000Y-166425000D02*
X175410000Y-165100000D01*
X170235000Y-166425000D02*
X168910000Y-165100000D01*
X168910000Y-152400000D02*
X170256000Y-151054000D01*
X170256000Y-151054000D02*
X174064000Y-151054000D01*
X174064000Y-151054000D02*
X175410000Y-152400000D01*
X170256000Y-141046000D02*
X168910000Y-139700000D01*
X168910000Y-177800000D02*
X170235000Y-176475000D01*
X170235000Y-176475000D02*
X170235000Y-166425000D01*
X175410000Y-190500000D02*
X176735000Y-189175000D01*
X176735000Y-189175000D02*
X176735000Y-179125000D01*
X176735000Y-179125000D02*
X175410000Y-177800000D01*
X175410000Y-177800000D02*
X171561000Y-177800000D01*
X171561000Y-177800000D02*
X170235000Y-176475000D01*
X191819000Y-140386000D02*
X192504000Y-140386000D01*
X192504000Y-140386000D02*
X193190000Y-139700000D01*
X186690000Y-139700000D02*
X191133000Y-139700000D01*
X191133000Y-139700000D02*
X191819000Y-140386000D01*
X186690000Y-177800000D02*
X188015000Y-176475000D01*
X188015000Y-176475000D02*
X188015000Y-166425000D01*
X188015000Y-166425000D02*
X186690000Y-165100000D01*
X193190000Y-190500000D02*
X194515000Y-189175000D01*
X194515000Y-189175000D02*
X194515000Y-179125000D01*
X194515000Y-179125000D02*
X193190000Y-177800000D01*
X193190000Y-177800000D02*
X189341000Y-177800000D01*
X189341000Y-177800000D02*
X188015000Y-176475000D01*
X193190000Y-165100000D02*
X191824000Y-163734000D01*
X191824000Y-163734000D02*
X188056000Y-163734000D01*
X188056000Y-163734000D02*
X186690000Y-165100000D01*
X188056000Y-163734000D02*
X188056000Y-153766000D01*
X188056000Y-153766000D02*
X186690000Y-152400000D01*
X188056000Y-153766000D02*
X189082000Y-153766000D01*
X189082000Y-153766000D02*
X191819000Y-151029000D01*
X191819000Y-140386000D02*
X191819000Y-151029000D01*
X191819000Y-151029000D02*
X193190000Y-152400000D01*
X59690000Y-30480000D02*
X59690000Y-33114700D01*
X59690000Y-33114700D02*
X63500000Y-36924700D01*
X63500000Y-36924700D02*
X63500000Y-38100000D01*
X143020000Y-60815300D02*
X152689000Y-60815300D01*
X152689000Y-60815300D02*
X153815000Y-59690000D01*
X153815000Y-59690000D02*
X154940000Y-59690000D01*
X140970000Y-59690000D02*
X142095000Y-59690000D01*
X142095000Y-59690000D02*
X143020000Y-60614500D01*
X143020000Y-60614500D02*
X143020000Y-60815300D01*
X143020000Y-60815300D02*
X143020000Y-108571000D01*
X143020000Y-108571000D02*
X139867000Y-111723000D01*
X139867000Y-111723000D02*
X139867000Y-114750000D01*
X139867000Y-114750000D02*
X140688000Y-115570000D01*
X140688000Y-115570000D02*
X141282000Y-115570000D01*
X141282000Y-115570000D02*
X142548000Y-116837000D01*
X142548000Y-116837000D02*
X142548000Y-130469000D01*
X142548000Y-130469000D02*
X137160000Y-135857000D01*
X137160000Y-135857000D02*
X137160000Y-140970000D01*
D29*
X203200000Y-35560000D02*
X203200000Y-30480000D01*
D30*
X133350000Y-64770000D02*
X133350000Y-65895300D01*
X133350000Y-65895300D02*
X133631000Y-65895300D01*
X133631000Y-65895300D02*
X139269000Y-71533200D01*
X139269000Y-71533200D02*
X139269000Y-92459200D01*
X139269000Y-92459200D02*
X141995000Y-95185300D01*
X141995000Y-95185300D02*
X141995000Y-105899000D01*
X141995000Y-105899000D02*
X140970000Y-106925000D01*
X140970000Y-106925000D02*
X140970000Y-107950000D01*
X133350000Y-67310000D02*
X133350000Y-68435300D01*
X133350000Y-68435300D02*
X133631000Y-68435300D01*
X133631000Y-68435300D02*
X138595000Y-73399200D01*
X138595000Y-73399200D02*
X138595000Y-100740000D01*
X138595000Y-100740000D02*
X140970000Y-103115000D01*
X140970000Y-103115000D02*
X140970000Y-104140000D01*
X133350000Y-116840000D02*
X132269000Y-115759000D01*
X132269000Y-115759000D02*
X132269000Y-105221000D01*
X132269000Y-105221000D02*
X133350000Y-104140000D01*
X133350000Y-129540000D02*
X131815000Y-128005000D01*
X131815000Y-128005000D02*
X131815000Y-101865000D01*
X131815000Y-101865000D02*
X133350000Y-100330000D01*
X140970000Y-129540000D02*
X135289000Y-123859000D01*
X135289000Y-123859000D02*
X135289000Y-98459100D01*
X135289000Y-98459100D02*
X133350000Y-96520000D01*
X140970000Y-74930000D02*
X140970000Y-76055300D01*
X140970000Y-76055300D02*
X139945000Y-77080600D01*
X139945000Y-77080600D02*
X139945000Y-90659400D01*
X139945000Y-90659400D02*
X140970000Y-91684700D01*
X140970000Y-91684700D02*
X140970000Y-92710000D01*
X140970000Y-72390000D02*
X140970000Y-73515300D01*
X140970000Y-73515300D02*
X141251000Y-73515300D01*
X141251000Y-73515300D02*
X142104000Y-74368400D01*
X142104000Y-74368400D02*
X142104000Y-86740300D01*
X142104000Y-86740300D02*
X140970000Y-87874700D01*
X140970000Y-87874700D02*
X140970000Y-88900000D01*
X133350000Y-114300000D02*
X133350000Y-113225000D01*
X133350000Y-113225000D02*
X134397000Y-112178000D01*
X134397000Y-112178000D02*
X134397000Y-99166800D01*
X134397000Y-99166800D02*
X132320000Y-97089900D01*
X132320000Y-97089900D02*
X132320000Y-86120200D01*
X132320000Y-86120200D02*
X133350000Y-85090000D01*
X140970000Y-127000000D02*
X137070000Y-123100000D01*
X137070000Y-123100000D02*
X137070000Y-84999600D01*
X137070000Y-84999600D02*
X133350000Y-81280000D01*
X147320000Y-64770000D02*
X147320000Y-65895300D01*
X147320000Y-65895300D02*
X147039000Y-65895300D01*
X147039000Y-65895300D02*
X145731000Y-67203400D01*
X145731000Y-67203400D02*
X145731000Y-76097700D01*
X145731000Y-76097700D02*
X152673000Y-83040000D01*
X152673000Y-83040000D02*
X152673000Y-104658000D01*
X152673000Y-104658000D02*
X154940000Y-106925000D01*
X154940000Y-106925000D02*
X154940000Y-107950000D01*
X147320000Y-116840000D02*
X148399000Y-115761000D01*
X148399000Y-115761000D02*
X148399000Y-105219000D01*
X148399000Y-105219000D02*
X147320000Y-104140000D01*
X147320000Y-69850000D02*
X147320000Y-70975300D01*
X147320000Y-70975300D02*
X147058000Y-70975300D01*
X147058000Y-70975300D02*
X146181000Y-71852700D01*
X146181000Y-71852700D02*
X146181000Y-75592900D01*
X146181000Y-75592900D02*
X153360000Y-82771700D01*
X153360000Y-82771700D02*
X153360000Y-97724400D01*
X153360000Y-97724400D02*
X154940000Y-99304700D01*
X154940000Y-99304700D02*
X154940000Y-100330000D01*
X147320000Y-100330000D02*
X148880000Y-101890000D01*
X148880000Y-101890000D02*
X148880000Y-127980000D01*
X148880000Y-127980000D02*
X147320000Y-129540000D01*
X147320000Y-96520000D02*
X149498000Y-98698200D01*
X149498000Y-98698200D02*
X149498000Y-124098000D01*
X149498000Y-124098000D02*
X154940000Y-129540000D01*
X154940000Y-74930000D02*
X154940000Y-76055300D01*
X154940000Y-76055300D02*
X153915000Y-77080600D01*
X153915000Y-77080600D02*
X153915000Y-90659400D01*
X153915000Y-90659400D02*
X154940000Y-91684700D01*
X154940000Y-91684700D02*
X154940000Y-92710000D01*
X147320000Y-92710000D02*
X149948000Y-95338500D01*
X149948000Y-95338500D02*
X149948000Y-119468000D01*
X149948000Y-119468000D02*
X154940000Y-124460000D01*
X154940000Y-72390000D02*
X154940000Y-73515300D01*
X154940000Y-73515300D02*
X155221000Y-73515300D01*
X155221000Y-73515300D02*
X156078000Y-74372200D01*
X156078000Y-74372200D02*
X156078000Y-86736500D01*
X156078000Y-86736500D02*
X154940000Y-87874700D01*
X154940000Y-87874700D02*
X154940000Y-88900000D01*
X154940000Y-116840000D02*
X151059000Y-112959000D01*
X151059000Y-112959000D02*
X151059000Y-92638600D01*
X151059000Y-92638600D02*
X147320000Y-88900000D01*
X147320000Y-114300000D02*
X147320000Y-113225000D01*
X147320000Y-113225000D02*
X146292000Y-112196000D01*
X146292000Y-112196000D02*
X146292000Y-86118300D01*
X146292000Y-86118300D02*
X147320000Y-85090000D01*
X154940000Y-127000000D02*
X156047000Y-125893000D01*
X156047000Y-125893000D02*
X156047000Y-116397000D01*
X156047000Y-116397000D02*
X155220000Y-115570000D01*
X155220000Y-115570000D02*
X154650000Y-115570000D01*
X154650000Y-115570000D02*
X151808000Y-112728000D01*
X151808000Y-112728000D02*
X151808000Y-85767700D01*
X151808000Y-85767700D02*
X147320000Y-81280000D01*
X161290000Y-64770000D02*
X161290000Y-65895300D01*
X161290000Y-65895300D02*
X161467000Y-65895300D01*
X161467000Y-65895300D02*
X165768000Y-70196800D01*
X165768000Y-70196800D02*
X165768000Y-103783000D01*
X165768000Y-103783000D02*
X168910000Y-106925000D01*
X168910000Y-106925000D02*
X168910000Y-107950000D01*
X161290000Y-116840000D02*
X162390000Y-115740000D01*
X162390000Y-115740000D02*
X162390000Y-105240000D01*
X162390000Y-105240000D02*
X161290000Y-104140000D01*
X161290000Y-129540000D02*
X162840000Y-127990000D01*
X162840000Y-127990000D02*
X162840000Y-101880000D01*
X162840000Y-101880000D02*
X161290000Y-100330000D01*
X168910000Y-129540000D02*
X163423000Y-124053000D01*
X163423000Y-124053000D02*
X163423000Y-98652800D01*
X163423000Y-98652800D02*
X161290000Y-96520000D01*
X168910000Y-74930000D02*
X168910000Y-76055300D01*
X168910000Y-76055300D02*
X167885000Y-77080600D01*
X167885000Y-77080600D02*
X167885000Y-90659400D01*
X167885000Y-90659400D02*
X168910000Y-91684700D01*
X168910000Y-91684700D02*
X168910000Y-92710000D01*
X168910000Y-124460000D02*
X163873000Y-119423000D01*
X163873000Y-119423000D02*
X163873000Y-95293200D01*
X163873000Y-95293200D02*
X161290000Y-92710000D01*
X168910000Y-72390000D02*
X168910000Y-73515300D01*
X168910000Y-73515300D02*
X169191000Y-73515300D01*
X169191000Y-73515300D02*
X170048000Y-74372200D01*
X170048000Y-74372200D02*
X170048000Y-86736500D01*
X170048000Y-86736500D02*
X168910000Y-87874700D01*
X168910000Y-87874700D02*
X168910000Y-88900000D01*
X168910000Y-116840000D02*
X164337000Y-112267000D01*
X164337000Y-112267000D02*
X164337000Y-91947400D01*
X164337000Y-91947400D02*
X161290000Y-88900000D01*
X161290000Y-114300000D02*
X161290000Y-113225000D01*
X161290000Y-113225000D02*
X160246000Y-112180000D01*
X160246000Y-112180000D02*
X160246000Y-86134200D01*
X160246000Y-86134200D02*
X161290000Y-85090000D01*
X168910000Y-127000000D02*
X169985000Y-125925000D01*
X169985000Y-125925000D02*
X169985000Y-116365000D01*
X169985000Y-116365000D02*
X169190000Y-115570000D01*
X169190000Y-115570000D02*
X168620000Y-115570000D01*
X168620000Y-115570000D02*
X165205000Y-112156000D01*
X165205000Y-112156000D02*
X165205000Y-85195400D01*
X165205000Y-85195400D02*
X161290000Y-81280000D01*
X175260000Y-64770000D02*
X175260000Y-65895300D01*
X175260000Y-65895300D02*
X174979000Y-65895300D01*
X174979000Y-65895300D02*
X174117000Y-66757000D01*
X174117000Y-66757000D02*
X174117000Y-76727000D01*
X174117000Y-76727000D02*
X181362000Y-83972200D01*
X181362000Y-83972200D02*
X181362000Y-105407000D01*
X181362000Y-105407000D02*
X182880000Y-106925000D01*
X182880000Y-106925000D02*
X182880000Y-107950000D01*
X175260000Y-116840000D02*
X176380000Y-115720000D01*
X176380000Y-115720000D02*
X176380000Y-105260000D01*
X176380000Y-105260000D02*
X175260000Y-104140000D01*
X182880000Y-129540000D02*
X177472000Y-124132000D01*
X177472000Y-124132000D02*
X177472000Y-98731500D01*
X177472000Y-98731500D02*
X175260000Y-96520000D01*
X182880000Y-74930000D02*
X182880000Y-76055300D01*
X182880000Y-76055300D02*
X181855000Y-77080600D01*
X181855000Y-77080600D02*
X181855000Y-90659400D01*
X181855000Y-90659400D02*
X182880000Y-91684700D01*
X182880000Y-91684700D02*
X182880000Y-92710000D01*
X182880000Y-124460000D02*
X178061000Y-119641000D01*
X178061000Y-119641000D02*
X178061000Y-95510900D01*
X178061000Y-95510900D02*
X175260000Y-92710000D01*
X182880000Y-72390000D02*
X182880000Y-73515300D01*
X182880000Y-73515300D02*
X183161000Y-73515300D01*
X183161000Y-73515300D02*
X184018000Y-74372200D01*
X184018000Y-74372200D02*
X184018000Y-86736500D01*
X184018000Y-86736500D02*
X182880000Y-87874700D01*
X182880000Y-87874700D02*
X182880000Y-88900000D01*
X182880000Y-116840000D02*
X178557000Y-112517000D01*
X178557000Y-112517000D02*
X178557000Y-92196700D01*
X178557000Y-92196700D02*
X175260000Y-88900000D01*
X175260000Y-114300000D02*
X175260000Y-113225000D01*
X175260000Y-113225000D02*
X174216000Y-112180000D01*
X174216000Y-112180000D02*
X174216000Y-86134200D01*
X174216000Y-86134200D02*
X175260000Y-85090000D01*
X182880000Y-127000000D02*
X183987000Y-125893000D01*
X183987000Y-125893000D02*
X183987000Y-116397000D01*
X183987000Y-116397000D02*
X183160000Y-115570000D01*
X183160000Y-115570000D02*
X182590000Y-115570000D01*
X182590000Y-115570000D02*
X179871000Y-112851000D01*
X179871000Y-112851000D02*
X179871000Y-85890800D01*
X179871000Y-85890800D02*
X175260000Y-81280000D01*
X189230000Y-64770000D02*
X189230000Y-65895300D01*
X189230000Y-65895300D02*
X189432000Y-65895300D01*
X189432000Y-65895300D02*
X195316000Y-71779000D01*
X195316000Y-71779000D02*
X195316000Y-96450600D01*
X195316000Y-96450600D02*
X197875000Y-99010400D01*
X197875000Y-99010400D02*
X197875000Y-105899000D01*
X197875000Y-105899000D02*
X196850000Y-106925000D01*
X196850000Y-106925000D02*
X196850000Y-107950000D01*
X189230000Y-116840000D02*
X190309000Y-115761000D01*
X190309000Y-115761000D02*
X190309000Y-105219000D01*
X190309000Y-105219000D02*
X189230000Y-104140000D01*
X189230000Y-69850000D02*
X189230000Y-70975300D01*
X189230000Y-70975300D02*
X189511000Y-70975300D01*
X189511000Y-70975300D02*
X194786000Y-76249500D01*
X194786000Y-76249500D02*
X194786000Y-97240200D01*
X194786000Y-97240200D02*
X196850000Y-99304700D01*
X196850000Y-99304700D02*
X196850000Y-100330000D01*
X189230000Y-129540000D02*
X190763000Y-128007000D01*
X190763000Y-128007000D02*
X190763000Y-101863000D01*
X190763000Y-101863000D02*
X189230000Y-100330000D01*
X196850000Y-129540000D02*
X191277000Y-123967000D01*
X191277000Y-123967000D02*
X191277000Y-98566700D01*
X191277000Y-98566700D02*
X189230000Y-96520000D01*
X196850000Y-74930000D02*
X196850000Y-76055300D01*
X196850000Y-76055300D02*
X195825000Y-77080600D01*
X195825000Y-77080600D02*
X195825000Y-90659400D01*
X195825000Y-90659400D02*
X196850000Y-91684700D01*
X196850000Y-91684700D02*
X196850000Y-92710000D01*
X196850000Y-124460000D02*
X191979000Y-119589000D01*
X191979000Y-119589000D02*
X191979000Y-95459300D01*
X191979000Y-95459300D02*
X189230000Y-92710000D01*
X196850000Y-72390000D02*
X196850000Y-73515300D01*
X196850000Y-73515300D02*
X197131000Y-73515300D01*
X197131000Y-73515300D02*
X197988000Y-74372200D01*
X197988000Y-74372200D02*
X197988000Y-86736500D01*
X197988000Y-86736500D02*
X196850000Y-87874700D01*
X196850000Y-87874700D02*
X196850000Y-88900000D01*
X196850000Y-116840000D02*
X192676000Y-112666000D01*
X192676000Y-112666000D02*
X192676000Y-92346000D01*
X192676000Y-92346000D02*
X189230000Y-88900000D01*
X189230000Y-114300000D02*
X189230000Y-113225000D01*
X189230000Y-113225000D02*
X188186000Y-112180000D01*
X188186000Y-112180000D02*
X188186000Y-86134200D01*
X188186000Y-86134200D02*
X189230000Y-85090000D01*
X196850000Y-127000000D02*
X197957000Y-125893000D01*
X197957000Y-125893000D02*
X197957000Y-116397000D01*
X197957000Y-116397000D02*
X197130000Y-115570000D01*
X197130000Y-115570000D02*
X196560000Y-115570000D01*
X196560000Y-115570000D02*
X194065000Y-113075000D01*
X194065000Y-113075000D02*
X194065000Y-86114700D01*
X194065000Y-86114700D02*
X189230000Y-81280000D01*
X203200000Y-64770000D02*
X204325000Y-64770000D01*
X204325000Y-64770000D02*
X204325000Y-65051300D01*
X204325000Y-65051300D02*
X210394000Y-71120000D01*
X210394000Y-71120000D02*
X211150000Y-71120000D01*
X211150000Y-71120000D02*
X212430000Y-72400000D01*
X212430000Y-72400000D02*
X212430000Y-105315000D01*
X212430000Y-105315000D02*
X210820000Y-106925000D01*
X210820000Y-106925000D02*
X210820000Y-107950000D01*
X203200000Y-67310000D02*
X203200000Y-68435300D01*
X203200000Y-68435300D02*
X203481000Y-68435300D01*
X203481000Y-68435300D02*
X209301000Y-74254800D01*
X209301000Y-74254800D02*
X209301000Y-101596000D01*
X209301000Y-101596000D02*
X210820000Y-103115000D01*
X210820000Y-103115000D02*
X210820000Y-104140000D01*
X203200000Y-129540000D02*
X204275000Y-128465000D01*
X204275000Y-128465000D02*
X204275000Y-101405000D01*
X204275000Y-101405000D02*
X203200000Y-100330000D01*
X203200000Y-96520000D02*
X205130000Y-98450000D01*
X205130000Y-98450000D02*
X205130000Y-123850000D01*
X205130000Y-123850000D02*
X210820000Y-129540000D01*
X210820000Y-74930000D02*
X210820000Y-76055300D01*
X210820000Y-76055300D02*
X209795000Y-77080600D01*
X209795000Y-77080600D02*
X209795000Y-90659400D01*
X209795000Y-90659400D02*
X210820000Y-91684700D01*
X210820000Y-91684700D02*
X210820000Y-92710000D01*
X210820000Y-124460000D02*
X205949000Y-119589000D01*
X205949000Y-119589000D02*
X205949000Y-95459300D01*
X205949000Y-95459300D02*
X203200000Y-92710000D01*
X210820000Y-72390000D02*
X210820000Y-73515300D01*
X210820000Y-73515300D02*
X211101000Y-73515300D01*
X211101000Y-73515300D02*
X211949000Y-74363100D01*
X211949000Y-74363100D02*
X211949000Y-86745600D01*
X211949000Y-86745600D02*
X210820000Y-87874700D01*
X210820000Y-87874700D02*
X210820000Y-88900000D01*
X210820000Y-116840000D02*
X206586000Y-112606000D01*
X206586000Y-112606000D02*
X206586000Y-92286200D01*
X206586000Y-92286200D02*
X203200000Y-88900000D01*
X203200000Y-114300000D02*
X203200000Y-113225000D01*
X203200000Y-113225000D02*
X202156000Y-112180000D01*
X202156000Y-112180000D02*
X202156000Y-86134200D01*
X202156000Y-86134200D02*
X203200000Y-85090000D01*
X203200000Y-81280000D02*
X208675000Y-86755200D01*
X208675000Y-86755200D02*
X208675000Y-108298000D01*
X208675000Y-108298000D02*
X211898000Y-111521000D01*
X211898000Y-111521000D02*
X211898000Y-125922000D01*
X211898000Y-125922000D02*
X210820000Y-127000000D01*
X158600000Y-207700000D02*
X136915000Y-186015000D01*
X136915000Y-186015000D02*
X136915000Y-181121000D01*
X136915000Y-181121000D02*
X135890000Y-180095000D01*
X135890000Y-180095000D02*
X135890000Y-179070000D01*
X86360000Y-134620000D02*
X86360000Y-135745000D01*
X86360000Y-135745000D02*
X86641300Y-135745000D01*
X86641300Y-135745000D02*
X92854600Y-141959000D01*
X92854600Y-141959000D02*
X92854600Y-168123000D01*
X92854600Y-168123000D02*
X99165400Y-174434000D01*
X135890000Y-172720000D02*
X135890000Y-173745300D01*
X135890000Y-173745300D02*
X147955400Y-185810700D01*
X147955400Y-185810700D02*
X147955400Y-191825400D01*
X147955400Y-191825400D02*
X151130000Y-195000000D01*
X86360000Y-139700000D02*
X86360000Y-140825000D01*
X86360000Y-140825000D02*
X86562600Y-140825000D01*
X86562600Y-140825000D02*
X91920600Y-146183000D01*
X91920600Y-146183000D02*
X91920600Y-170045000D01*
X91920600Y-170045000D02*
X93939000Y-172064000D01*
X135890000Y-167640000D02*
X136915300Y-167640000D01*
X136915300Y-167640000D02*
X136915300Y-168085300D01*
X136915300Y-168085300D02*
X151130000Y-182300000D01*
X78740000Y-134620000D02*
X78740000Y-135745000D01*
X78740000Y-135745000D02*
X79021500Y-135745000D01*
X79021500Y-135745000D02*
X82726200Y-139450000D01*
X82726200Y-139450000D02*
X82726200Y-142086000D01*
X82726200Y-142086000D02*
X89008500Y-148368000D01*
X89008500Y-148368000D02*
X89008500Y-153604000D01*
X89008500Y-153604000D02*
X89733800Y-154330000D01*
X89733800Y-154330000D02*
X89733800Y-171013000D01*
X135890000Y-162560000D02*
X136915300Y-162560000D01*
X136915300Y-162560000D02*
X143955300Y-169600000D01*
X143955300Y-169600000D02*
X151130000Y-169600000D01*
X78740000Y-129540000D02*
X78740000Y-130665000D01*
X78740000Y-130665000D02*
X79021300Y-130665000D01*
X79021300Y-130665000D02*
X83176500Y-134820000D01*
X83176500Y-134820000D02*
X83176500Y-141463000D01*
X83176500Y-141463000D02*
X89458900Y-147745000D01*
X89458900Y-147745000D02*
X89458900Y-151960000D01*
X89458900Y-151960000D02*
X90294700Y-152795000D01*
X135890000Y-157480000D02*
X150550000Y-157480000D01*
X150550000Y-157480000D02*
X151130000Y-156900000D01*
X78740000Y-124460000D02*
X78740000Y-125585000D01*
X78740000Y-125585000D02*
X79021300Y-125585000D01*
X79021300Y-125585000D02*
X83681400Y-130245000D01*
X83681400Y-130245000D02*
X83681400Y-141270000D01*
X83681400Y-141270000D02*
X89304600Y-146893000D01*
X89304600Y-146893000D02*
X89839900Y-146893000D01*
X89253700Y-145816000D02*
X84303000Y-140865000D01*
X84303000Y-140865000D02*
X84303000Y-125787000D01*
X84303000Y-125787000D02*
X79021300Y-120505000D01*
X79021300Y-120505000D02*
X78740000Y-120505000D01*
X78740000Y-120505000D02*
X78740000Y-119380000D01*
M02*
