M48
; DRILL file {KiCad 5.1.5+dfsg1-2build2} date Sat 12 Feb 2022 11:59:26 AM
; FORMAT={-:-/ absolute / inch / decimal}
; #@! TF.CreationDate,2022-02-12T11:59:26-05:00
; #@! TF.GenerationSoftware,Kicad,Pcbnew,5.1.5+dfsg1-2build2
; #@! TF.FileFunction,Plated,1,2,PTH
FMAT,2
INCH
T1C0.0157
T2C0.0236
T3C0.0276
T4C0.0315
T5C0.0354
T6C0.0394
T7C0.0433
%
G90
G05
T1
X1.8979Y-5.2732
X2.0405Y-2.9143
X2.0473Y-4.2359
X2.1772Y-3.6459
X2.2586Y-5.6567
X2.2806Y-3.2513
X2.3021Y-3.3007
X2.3357Y-2.7292
X2.3505Y-4.2401
X2.3607Y-3.7158
X2.3681Y-3.5155
X2.391Y-3.4493
X2.6677Y-5.0813
X2.6712Y-6.033
X2.6977Y-6.3612
X2.7557Y-2.6137
X2.7622Y-3.4057
X2.8716Y-4.0707
X2.8863Y-6.178
X2.9898Y-3.6977
X3.0173Y-3.9149
X3.0348Y-2.8532
X3.0709Y-8.3008
X3.0863Y-5.5993
X3.1587Y-5.4306
X3.1696Y-5.0773
X3.2084Y-5.3557
X3.2265Y-4.3283
X3.2334Y-2.9784
X3.2397Y-5.2491
X3.2687Y-5.9149
X3.2797Y-5.1915
X3.3163Y-4.7221
X3.3423Y-4.5166
X3.4337Y-6.6762
X3.4543Y-7.0943
X3.474Y-4.8708
X3.4798Y-7.4348
X3.4826Y-4.9222
X3.4834Y-4.185
X3.4864Y-4.4767
X3.5005Y-3.7688
X3.5028Y-5.5893
X3.5311Y-4.5033
X3.5311Y-5.1
X3.5337Y-7.1246
X3.5433Y-2.5804
X3.5742Y-2.7259
X3.5997Y-8.036
X3.6066Y-7.832
X3.6082Y-7.1377
X3.6667Y-7.5425
X3.667Y-3.039
X3.6911Y-4.3995
X3.7237Y-7.5155
X3.7791Y-7.4857
X3.8304Y-4.4136
X3.852Y-4.5425
X3.8524Y-4.764
X3.853Y-4.8145
X3.8658Y-4.9551
X3.906Y-2.9384
X4.0067Y-5.7998
X4.0265Y-6.6858
X4.0733Y-3.4313
X4.0929Y-5.5906
X4.0945Y-3.2799
X4.0961Y-3.8956
X4.1137Y-4.8588
X4.1325Y-5.0054
X4.1361Y-4.9113
X4.1671Y-3.6546
X4.1784Y-6.4557
X4.1878Y-4.1491
X4.2086Y-5.8767
X4.2631Y-5.6568
X4.3025Y-5.5465
X4.3704Y-5.5962
X4.4681Y-5.5097
X4.5052Y-4.2245
X4.5292Y-5.4745
X4.5908Y-3.9781
X4.6211Y-5.5223
X4.6321Y-4.3452
X4.6646Y-3.4039
X4.6785Y-4.1881
X4.6835Y-5.5887
X4.7255Y-5.303
X4.78Y-4.6
X4.9477Y-2.9929
X4.9501Y-2.9
X5.0897Y-4.2682
X5.3596Y-3.6507
X5.3662Y-5.7082
X5.5111Y-4.4136
X5.5478Y-5.8555
X6.0339Y-3.629
X7.1202Y-2.9437
X7.8306Y-4.5329
T2
X4.55Y-7.9
X4.6287Y-7.9
T3
X5.25Y-3.35
X5.55Y-3.35
X7.45Y-3.95
X7.75Y-3.95
X7.45Y-4.5
X7.45Y-4.6
X7.45Y-4.7
X7.45Y-4.8
X7.45Y-4.9
X7.45Y-5.0
X7.45Y-5.1
X7.75Y-4.5
X7.75Y-4.6
X7.75Y-4.7
X7.75Y-4.8
X7.75Y-4.9
X7.75Y-5.0
X7.75Y-5.1
X7.45Y-3.5
X7.75Y-3.5
X5.05Y-7.3
X5.35Y-7.3
X5.05Y-7.55
X5.35Y-7.55
X5.25Y-4.1
X5.55Y-4.1
X5.8Y-3.5
X6.1Y-3.5
X6.9Y-3.2
X7.2Y-3.2
X7.45Y-3.2
X7.75Y-3.2
X6.9Y-3.8
X7.2Y-3.8
X5.25Y-4.5
X5.25Y-4.6
X5.25Y-4.7
X5.25Y-4.8
X5.25Y-4.9
X5.25Y-5.0
X5.25Y-5.1
X5.55Y-4.5
X5.55Y-4.6
X5.55Y-4.7
X5.55Y-4.8
X5.55Y-4.9
X5.55Y-5.0
X5.55Y-5.1
X6.9Y-4.25
X7.2Y-4.25
X7.45Y-4.1
X7.75Y-4.1
X5.05Y-8.3
X5.35Y-8.3
X8.0Y-4.25
X8.3Y-4.25
X5.55Y-1.6
X5.85Y-1.6
X7.45Y-4.25
X7.75Y-4.25
X6.9Y-3.35
X7.2Y-3.35
X8.0Y-3.2
X8.3Y-3.2
X8.0Y-3.95
X8.3Y-3.95
X6.9Y-3.95
X7.2Y-3.95
X5.25Y-3.95
X5.55Y-3.95
X8.0Y-3.5
X8.3Y-3.5
X5.8Y-3.2
X6.1Y-3.2
X6.9Y-4.5
X6.9Y-4.6
X6.9Y-4.7
X6.9Y-4.8
X6.9Y-4.9
X6.9Y-5.0
X6.9Y-5.1
X7.2Y-4.5
X7.2Y-4.6
X7.2Y-4.7
X7.2Y-4.8
X7.2Y-4.9
X7.2Y-5.0
X7.2Y-5.1
X7.45Y-3.8
X7.75Y-3.8
X6.9Y-3.5
X7.2Y-3.5
X8.0Y-3.35
X8.3Y-3.35
X6.35Y-3.95
X6.65Y-3.95
X6.35Y-3.8
X6.65Y-3.8
X7.45Y-3.65
X7.75Y-3.65
X4.45Y-6.4
X4.75Y-6.4
X5.05Y-6.4
X5.35Y-6.4
X5.8Y-3.65
X6.1Y-3.65
X8.0Y-4.5
X8.0Y-4.6
X8.0Y-4.7
X8.0Y-4.8
X8.0Y-4.9
X8.0Y-5.0
X8.0Y-5.1
X8.3Y-4.5
X8.3Y-4.6
X8.3Y-4.7
X8.3Y-4.8
X8.3Y-4.9
X8.3Y-5.0
X8.3Y-5.1
X5.25Y-3.5
X5.55Y-3.5
X6.9Y-3.65
X7.2Y-3.65
X8.0Y-3.65
X8.3Y-3.65
X6.35Y-3.35
X6.65Y-3.35
X8.0Y-4.1
X8.3Y-4.1
X6.35Y-3.65
X6.65Y-3.65
X5.05Y-6.2
X5.35Y-6.2
X5.25Y-3.65
X5.55Y-3.65
X5.8Y-3.8
X6.1Y-3.8
X6.9Y-4.1
X7.2Y-4.1
X4.45Y-6.6
X4.75Y-6.6
X5.8Y-4.25
X6.1Y-4.25
X7.45Y-3.35
X7.75Y-3.35
X5.55Y-1.4
X5.85Y-1.4
X8.0Y-3.8
X8.3Y-3.8
X5.8Y-3.35
X6.1Y-3.35
X4.45Y-6.2
X4.75Y-6.2
X5.05Y-7.05
X5.35Y-7.05
X5.05Y-7.8
X5.35Y-7.8
X6.35Y-4.5
X6.35Y-4.6
X6.35Y-4.7
X6.35Y-4.8
X6.35Y-4.9
X6.35Y-5.0
X6.35Y-5.1
X6.65Y-4.5
X6.65Y-4.6
X6.65Y-4.7
X6.65Y-4.8
X6.65Y-4.9
X6.65Y-5.0
X6.65Y-5.1
X5.05Y-6.0
X5.35Y-6.0
X5.05Y-8.05
X5.35Y-8.05
X5.8Y-4.5
X5.8Y-4.6
X5.8Y-4.7
X5.8Y-4.8
X5.8Y-4.9
X5.8Y-5.0
X5.8Y-5.1
X6.1Y-4.5
X6.1Y-4.6
X6.1Y-4.7
X6.1Y-4.8
X6.1Y-4.9
X6.1Y-5.0
X6.1Y-5.1
X5.8Y-4.1
X6.1Y-4.1
X5.25Y-3.2
X5.55Y-3.2
X5.25Y-4.25
X5.55Y-4.25
X6.35Y-4.1
X6.65Y-4.1
X6.35Y-4.25
X6.65Y-4.25
X5.05Y-6.8
X5.35Y-6.8
X5.05Y-6.6
X5.35Y-6.6
X5.8Y-3.95
X6.1Y-3.95
X6.35Y-3.2
X6.65Y-3.2
X5.25Y-3.8
X5.55Y-3.8
X6.35Y-3.5
X6.65Y-3.5
X4.45Y-6.8
X4.75Y-6.8
T4
X4.45Y-7.3
X4.75Y-7.3
X7.1Y-1.6
X7.4Y-1.6
X6.35Y-2.25
X6.35Y-2.35
X6.35Y-2.45
X6.35Y-2.55
X6.35Y-2.65
X6.35Y-2.75
X6.35Y-2.85
X6.35Y-2.95
X6.65Y-2.25
X6.65Y-2.35
X6.65Y-2.45
X6.65Y-2.55
X6.65Y-2.65
X6.65Y-2.75
X6.65Y-2.85
X6.65Y-2.95
X4.5031Y-3.8
X4.7Y-3.8
X3.7Y-6.0
X3.7Y-6.1
X3.7Y-6.2
X3.7Y-6.3
X3.7Y-6.4
X3.7Y-6.5
X3.7Y-6.6
X4.0Y-6.0
X4.0Y-6.1
X4.0Y-6.2
X4.0Y-6.3
X4.0Y-6.4
X4.0Y-6.5
X4.0Y-6.6
X6.0Y-1.2
X6.1969Y-1.2
X6.9Y-2.25
X6.9Y-2.35
X6.9Y-2.45
X6.9Y-2.55
X6.9Y-2.65
X6.9Y-2.75
X6.9Y-2.85
X6.9Y-2.95
X7.2Y-2.25
X7.2Y-2.35
X7.2Y-2.45
X7.2Y-2.55
X7.2Y-2.65
X7.2Y-2.75
X7.2Y-2.85
X7.2Y-2.95
X7.5031Y-2.05
X7.7Y-2.05
X4.5Y-5.7
X4.6929Y-5.7
X1.6Y-2.25
X1.6Y-2.35
X1.6Y-2.45
X1.6Y-2.55
X1.6Y-2.65
X1.6Y-2.75
X1.6Y-2.85
X1.6Y-2.95
X1.6Y-3.05
X1.6Y-3.15
X1.6Y-3.25
X1.6Y-3.35
X2.2Y-2.25
X2.2Y-2.35
X2.2Y-2.45
X2.2Y-2.55
X2.2Y-2.65
X2.2Y-2.75
X2.2Y-2.85
X2.2Y-2.95
X2.2Y-3.05
X2.2Y-3.15
X2.2Y-3.25
X2.2Y-3.35
X3.1531Y-5.8
X3.35Y-5.8
X3.4Y-2.25
X3.4Y-2.35
X3.4Y-2.45
X3.4Y-2.55
X3.4Y-2.65
X3.4Y-2.75
X3.4Y-2.85
X3.4Y-2.95
X3.4Y-3.05
X3.4Y-3.15
X3.4Y-3.25
X3.4Y-3.35
X3.4Y-3.45
X3.4Y-3.55
X3.4Y-3.65
X3.4Y-3.75
X3.4Y-3.85
X3.4Y-3.95
X3.4Y-4.05
X3.4Y-4.15
X4.0Y-2.25
X4.0Y-2.35
X4.0Y-2.45
X4.0Y-2.55
X4.0Y-2.65
X4.0Y-2.75
X4.0Y-2.85
X4.0Y-2.95
X4.0Y-3.05
X4.0Y-3.15
X4.0Y-3.25
X4.0Y-3.35
X4.0Y-3.45
X4.0Y-3.55
X4.0Y-3.65
X4.0Y-3.75
X4.0Y-3.85
X4.0Y-3.95
X4.0Y-4.05
X4.0Y-4.15
X7.45Y-2.25
X7.45Y-2.35
X7.45Y-2.45
X7.45Y-2.55
X7.45Y-2.65
X7.45Y-2.75
X7.45Y-2.85
X7.45Y-2.95
X7.75Y-2.25
X7.75Y-2.35
X7.75Y-2.45
X7.75Y-2.55
X7.75Y-2.65
X7.75Y-2.75
X7.75Y-2.85
X7.75Y-2.95
X3.7Y-4.6
X3.7Y-4.7
X3.7Y-4.8
X3.7Y-4.9
X3.7Y-5.0
X3.7Y-5.1
X3.7Y-5.2
X3.7Y-5.3
X3.7Y-5.4
X3.7Y-5.5
X4.0Y-4.6
X4.0Y-4.7
X4.0Y-4.8
X4.0Y-4.9
X4.0Y-5.0
X4.0Y-5.1
X4.0Y-5.2
X4.0Y-5.3
X4.0Y-5.4
X4.0Y-5.5
X4.45Y-7.05
X4.75Y-7.05
X7.85Y-1.65
X7.9287Y-1.65
X3.1Y-4.6
X3.1Y-4.7
X3.1Y-4.8
X3.1Y-4.9
X3.1Y-5.0
X3.1Y-5.1
X3.1Y-5.2
X3.1Y-5.3
X3.1Y-5.4
X3.1Y-5.5
X3.4Y-4.6
X3.4Y-4.7
X3.4Y-4.8
X3.4Y-4.9
X3.4Y-5.0
X3.4Y-5.1
X3.4Y-5.2
X3.4Y-5.3
X3.4Y-5.4
X3.4Y-5.5
X4.5Y-6.0
X4.6969Y-6.0
X4.3Y-2.25
X4.3Y-2.35
X4.3Y-2.45
X4.3Y-2.55
X4.3Y-2.65
X4.3Y-2.75
X4.3Y-2.85
X4.3Y-2.95
X4.3Y-3.05
X4.3Y-3.15
X4.3Y-3.25
X4.3Y-3.35
X4.3Y-3.45
X4.3Y-3.55
X4.9Y-2.25
X4.9Y-2.35
X4.9Y-2.45
X4.9Y-2.55
X4.9Y-2.65
X4.9Y-2.75
X4.9Y-2.85
X4.9Y-2.95
X4.9Y-3.05
X4.9Y-3.15
X4.9Y-3.25
X4.9Y-3.35
X4.9Y-3.45
X4.9Y-3.55
X2.5531Y-5.8
X2.75Y-5.8
X4.05Y-1.75
X4.05Y-1.9469
X3.6Y-1.75
X3.7929Y-1.75
X6.4031Y-2.05
X6.6Y-2.05
X5.55Y-1.2
X5.7469Y-1.2
X1.8031Y-2.05
X2.0Y-2.05
X8.0Y-2.25
X8.0Y-2.35
X8.0Y-2.45
X8.0Y-2.55
X8.0Y-2.65
X8.0Y-2.75
X8.0Y-2.85
X8.0Y-2.95
X8.3Y-2.25
X8.3Y-2.35
X8.3Y-2.45
X8.3Y-2.55
X8.3Y-2.65
X8.3Y-2.75
X8.3Y-2.85
X8.3Y-2.95
X5.8531Y-2.05
X6.05Y-2.05
X6.55Y-1.6
X6.85Y-1.6
X4.3Y-4.0
X4.3Y-4.1
X4.3Y-4.2
X4.3Y-4.3
X4.3Y-4.4
X4.3Y-4.5
X4.3Y-4.6
X4.3Y-4.7
X4.3Y-4.8
X4.3Y-4.9
X4.3Y-5.0
X4.3Y-5.1
X4.3Y-5.2
X4.3Y-5.3
X4.9Y-4.0
X4.9Y-4.1
X4.9Y-4.2
X4.9Y-4.3
X4.9Y-4.4
X4.9Y-4.5
X4.9Y-4.6
X4.9Y-4.7
X4.9Y-4.8
X4.9Y-4.9
X4.9Y-5.0
X4.9Y-5.1
X4.9Y-5.2
X4.9Y-5.3
X6.9531Y-2.05
X7.15Y-2.05
X3.1Y-6.0
X3.1Y-6.1
X3.1Y-6.2
X3.1Y-6.3
X3.1Y-6.4
X3.1Y-6.5
X3.1Y-6.6
X3.4Y-6.0
X3.4Y-6.1
X3.4Y-6.2
X3.4Y-6.3
X3.4Y-6.4
X3.4Y-6.5
X3.4Y-6.6
X5.25Y-2.25
X5.25Y-2.35
X5.25Y-2.45
X5.25Y-2.55
X5.25Y-2.65
X5.25Y-2.75
X5.25Y-2.85
X5.25Y-2.95
X5.55Y-2.25
X5.55Y-2.35
X5.55Y-2.45
X5.55Y-2.55
X5.55Y-2.65
X5.55Y-2.75
X5.55Y-2.85
X5.55Y-2.95
X3.7531Y-5.8
X3.95Y-5.8
X5.8Y-2.25
X5.8Y-2.35
X5.8Y-2.45
X5.8Y-2.55
X5.8Y-2.65
X5.8Y-2.75
X5.8Y-2.85
X5.8Y-2.95
X6.1Y-2.25
X6.1Y-2.35
X6.1Y-2.45
X6.1Y-2.55
X6.1Y-2.65
X6.1Y-2.75
X6.1Y-2.85
X6.1Y-2.95
X7.8031Y-1.4
X8.0Y-1.4
X2.5531Y-4.4
X2.75Y-4.4
X8.0531Y-2.05
X8.25Y-2.05
X3.7531Y-4.4
X3.95Y-4.4
X2.7031Y-2.05
X2.9Y-2.05
X4.45Y-7.55
X4.75Y-7.55
X5.3031Y-2.05
X5.5Y-2.05
X3.1531Y-4.4
X3.35Y-4.4
X3.35Y-1.7531
X3.35Y-1.95
X4.5031Y-2.05
X4.7Y-2.05
X3.6031Y-2.05
X3.8Y-2.05
X2.5Y-2.25
X2.5Y-2.35
X2.5Y-2.45
X2.5Y-2.55
X2.5Y-2.65
X2.5Y-2.75
X2.5Y-2.85
X2.5Y-2.95
X2.5Y-3.05
X2.5Y-3.15
X2.5Y-3.25
X2.5Y-3.35
X2.5Y-3.45
X2.5Y-3.55
X2.5Y-3.65
X2.5Y-3.75
X2.5Y-3.85
X2.5Y-3.95
X2.5Y-4.05
X2.5Y-4.15
X3.1Y-2.25
X3.1Y-2.35
X3.1Y-2.45
X3.1Y-2.55
X3.1Y-2.65
X3.1Y-2.75
X3.1Y-2.85
X3.1Y-2.95
X3.1Y-3.05
X3.1Y-3.15
X3.1Y-3.25
X3.1Y-3.35
X3.1Y-3.45
X3.1Y-3.55
X3.1Y-3.65
X3.1Y-3.75
X3.1Y-3.85
X3.1Y-3.95
X3.1Y-4.05
X3.1Y-4.15
X2.5Y-6.0
X2.5Y-6.1
X2.5Y-6.2
X2.5Y-6.3
X2.5Y-6.4
X2.5Y-6.5
X2.5Y-6.6
X2.5Y-6.7
X2.8Y-6.0
X2.8Y-6.1
X2.8Y-6.2
X2.8Y-6.3
X2.8Y-6.4
X2.8Y-6.5
X2.8Y-6.6
X2.8Y-6.7
X2.5Y-4.6
X2.5Y-4.7
X2.5Y-4.8
X2.5Y-4.9
X2.5Y-5.0
X2.5Y-5.1
X2.5Y-5.2
X2.5Y-5.3
X2.5Y-5.4
X2.5Y-5.5
X2.8Y-4.6
X2.8Y-4.7
X2.8Y-4.8
X2.8Y-4.9
X2.8Y-5.0
X2.8Y-5.1
X2.8Y-5.2
X2.8Y-5.3
X2.8Y-5.4
X2.8Y-5.5
T5
X4.6Y-1.2
X4.7Y-1.2
T6
X2.2Y-8.1
X2.2Y-8.2
X2.3Y-8.1
X2.3Y-8.2
X2.4Y-8.1
X2.4Y-8.2
X2.5Y-8.1
X2.5Y-8.2
X2.6Y-8.1
X2.6Y-8.2
X2.7Y-8.1
X2.7Y-8.2
X2.8Y-8.1
X2.8Y-8.2
X2.9Y-8.1
X2.9Y-8.2
X3.0Y-8.1
X3.0Y-8.2
X3.1Y-8.1
X3.1Y-8.2
X3.2Y-8.1
X3.2Y-8.2
X3.3Y-8.1
X3.3Y-8.2
X3.4Y-8.1
X3.4Y-8.2
X3.5Y-8.1
X3.5Y-8.2
X3.6Y-8.1
X3.6Y-8.2
X3.7Y-8.1
X3.7Y-8.2
X3.8Y-8.1
X3.8Y-8.2
X3.9Y-8.1
X3.9Y-8.2
X4.0Y-8.1
X4.0Y-8.2
X4.1Y-8.1
X4.1Y-8.2
X2.95Y-7.2
X2.95Y-7.3
X2.95Y-7.4
X5.3Y-5.55
X5.4Y-5.55
X5.0Y-1.2
X5.1Y-1.2
X3.3Y-1.2
X3.4Y-1.2
X3.5Y-1.2
X3.1Y-7.2
X3.1Y-7.3
X3.1Y-7.4
X2.4Y-1.5
X2.5Y-1.5
X2.6Y-1.5
X3.55Y-7.2
X3.55Y-7.3
X3.55Y-7.4
X1.65Y-4.4
X1.65Y-4.5
X1.65Y-4.6
X1.65Y-4.7
X1.65Y-4.8
X1.65Y-4.9
X1.65Y-5.0
X1.65Y-5.1
X1.65Y-5.2
X1.65Y-5.3
X1.65Y-5.4
X1.65Y-5.5
X1.75Y-4.4
X1.75Y-4.5
X1.75Y-4.6
X1.75Y-4.7
X1.75Y-4.8
X1.75Y-4.9
X1.75Y-5.0
X1.75Y-5.1
X1.75Y-5.2
X1.75Y-5.3
X1.75Y-5.4
X1.75Y-5.5
X3.4Y-7.2
X3.4Y-7.3
X3.4Y-7.4
X2.8Y-7.2
X2.8Y-7.3
X2.8Y-7.4
X3.8Y-1.2
X3.9Y-1.2
X2.8Y-1.2
X2.9Y-1.2
X1.9Y-1.5
X2.0Y-1.5
X2.1Y-1.5
X4.2Y-1.2
X4.3Y-1.2
X1.95Y-1.2
X2.05Y-1.2
X2.15Y-1.2
X2.25Y-1.2
X2.35Y-1.2
X2.45Y-1.2
X3.25Y-7.2
X3.25Y-7.3
X3.25Y-7.4
T7
X7.35Y-5.5
X7.35Y-5.6772
X7.6059Y-5.5
X7.6059Y-5.6772
X7.0Y-8.0
X7.0Y-8.1772
X7.2559Y-8.0
X7.2559Y-8.1772
X6.65Y-6.5
X6.65Y-6.6772
X6.9059Y-6.5
X6.9059Y-6.6772
X6.2441Y-8.0
X6.2441Y-8.1772
X6.5Y-8.0
X6.5Y-8.1772
X6.65Y-6.0
X6.65Y-6.1772
X6.9059Y-6.0
X6.9059Y-6.1772
X7.8Y-1.2
X7.9Y-1.2
X8.0Y-1.2
X7.1Y-1.4
X7.5Y-1.4
X6.65Y-7.5
X6.65Y-7.6772
X6.9059Y-7.5
X6.9059Y-7.6772
X7.35Y-7.5
X7.35Y-7.6772
X7.6059Y-7.5
X7.6059Y-7.6772
X6.65Y-5.5
X6.65Y-5.6772
X6.9059Y-5.5
X6.9059Y-5.6772
X5.95Y-6.5
X5.95Y-6.6772
X6.2059Y-6.5
X6.2059Y-6.6772
X6.45Y-1.2
X6.85Y-1.2
X5.95Y-7.0
X5.95Y-7.1772
X6.2059Y-7.0
X6.2059Y-7.1772
X7.35Y-6.5
X7.35Y-6.6772
X7.6059Y-6.5
X7.6059Y-6.6772
X5.95Y-6.0
X5.95Y-6.1772
X6.2059Y-6.0
X6.2059Y-6.1772
X7.35Y-7.0
X7.35Y-7.1772
X7.6059Y-7.0
X7.6059Y-7.1772
X5.95Y-5.5
X5.95Y-5.6772
X6.2059Y-5.5
X6.2059Y-5.6772
X7.35Y-6.0
X7.35Y-6.1772
X7.6059Y-6.0
X7.6059Y-6.1772
X6.65Y-7.0
X6.65Y-7.1772
X6.9059Y-7.0
X6.9059Y-7.1772
X5.95Y-7.5
X5.95Y-7.6772
X6.2059Y-7.5
X6.2059Y-7.6772
X7.1Y-1.2
X7.5Y-1.2
X6.45Y-1.4
X6.85Y-1.4
T0
M30
