G04 #@! TF.GenerationSoftware,KiCad,Pcbnew,5.1.5+dfsg1-2build2*
G04 #@! TF.CreationDate,2022-02-12T11:59:32-05:00*
G04 #@! TF.ProjectId,6800sbc,36383030-7362-4632-9e6b-696361645f70,rev?*
G04 #@! TF.SameCoordinates,Original*
G04 #@! TF.FileFunction,Copper,L1,Top*
G04 #@! TF.FilePolarity,Positive*
%FSLAX46Y46*%
G04 Gerber Fmt 4.6, Leading zero omitted, Abs format (unit mm)*
G04 Created by KiCad (PCBNEW 5.1.5+dfsg1-2build2) date 2022-02-12 11:59:32*
%MOMM*%
%LPD*%
G04 APERTURE LIST*
%ADD10O,1.400000X1.400000*%
%ADD11C,1.400000*%
%ADD12O,1.700000X1.700000*%
%ADD13R,1.700000X1.700000*%
%ADD14O,1.600000X1.600000*%
%ADD15R,1.600000X1.600000*%
%ADD16O,2.200000X2.200000*%
%ADD17R,2.200000X2.200000*%
%ADD18C,1.500000*%
%ADD19R,1.500000X1.500000*%
%ADD20O,1.905000X2.000000*%
%ADD21R,1.905000X2.000000*%
%ADD22C,2.000000*%
%ADD23C,1.800000*%
%ADD24R,1.800000X1.800000*%
%ADD25C,1.600000*%
%ADD26C,1.200000*%
%ADD27R,1.200000X1.200000*%
%ADD28C,0.800000*%
%ADD29C,0.500000*%
%ADD30C,0.250000*%
G04 APERTURE END LIST*
D10*
X135890000Y-198120000D03*
D11*
X128270000Y-198120000D03*
D10*
X135890000Y-185420000D03*
D11*
X128270000Y-185420000D03*
D10*
X135890000Y-191770000D03*
D11*
X128270000Y-191770000D03*
D10*
X135890000Y-204470000D03*
D11*
X128270000Y-204470000D03*
D10*
X135890000Y-210820000D03*
D11*
X128270000Y-210820000D03*
D10*
X135890000Y-152400000D03*
D11*
X128270000Y-152400000D03*
D10*
X135890000Y-157480000D03*
D11*
X128270000Y-157480000D03*
D10*
X135890000Y-162560000D03*
D11*
X128270000Y-162560000D03*
D10*
X135890000Y-167640000D03*
D11*
X128270000Y-167640000D03*
D10*
X135890000Y-172720000D03*
D11*
X128270000Y-172720000D03*
D10*
X135890000Y-179070000D03*
D11*
X128270000Y-179070000D03*
D12*
X90170000Y-182880000D03*
X90170000Y-185420000D03*
D13*
X90170000Y-187960000D03*
D12*
X86360000Y-182880000D03*
X86360000Y-185420000D03*
D13*
X86360000Y-187960000D03*
D12*
X82550000Y-182880000D03*
X82550000Y-185420000D03*
D13*
X82550000Y-187960000D03*
D12*
X78740000Y-182880000D03*
X78740000Y-185420000D03*
D13*
X78740000Y-187960000D03*
D12*
X74930000Y-182880000D03*
X74930000Y-185420000D03*
D13*
X74930000Y-187960000D03*
D12*
X71120000Y-182880000D03*
X71120000Y-185420000D03*
D13*
X71120000Y-187960000D03*
D14*
X55880000Y-57150000D03*
X40640000Y-85090000D03*
X55880000Y-59690000D03*
X40640000Y-82550000D03*
X55880000Y-62230000D03*
X40640000Y-80010000D03*
X55880000Y-64770000D03*
X40640000Y-77470000D03*
X55880000Y-67310000D03*
X40640000Y-74930000D03*
X55880000Y-69850000D03*
X40640000Y-72390000D03*
X55880000Y-72390000D03*
X40640000Y-69850000D03*
X55880000Y-74930000D03*
X40640000Y-67310000D03*
X55880000Y-77470000D03*
X40640000Y-64770000D03*
X55880000Y-80010000D03*
X40640000Y-62230000D03*
X55880000Y-82550000D03*
X40640000Y-59690000D03*
X55880000Y-85090000D03*
D15*
X40640000Y-57150000D03*
D10*
X210820000Y-81280000D03*
D11*
X203200000Y-81280000D03*
D10*
X210820000Y-85090000D03*
D11*
X203200000Y-85090000D03*
D10*
X210820000Y-88900000D03*
D11*
X203200000Y-88900000D03*
D10*
X210820000Y-92710000D03*
D11*
X203200000Y-92710000D03*
D10*
X210820000Y-96520000D03*
D11*
X203200000Y-96520000D03*
D10*
X210820000Y-100330000D03*
D11*
X203200000Y-100330000D03*
D10*
X210820000Y-104140000D03*
D11*
X203200000Y-104140000D03*
D10*
X210820000Y-107950000D03*
D11*
X203200000Y-107950000D03*
D10*
X196850000Y-81280000D03*
D11*
X189230000Y-81280000D03*
D10*
X196850000Y-85090000D03*
D11*
X189230000Y-85090000D03*
D10*
X196850000Y-88900000D03*
D11*
X189230000Y-88900000D03*
D10*
X196850000Y-92710000D03*
D11*
X189230000Y-92710000D03*
D10*
X196850000Y-96520000D03*
D11*
X189230000Y-96520000D03*
D10*
X196850000Y-100330000D03*
D11*
X189230000Y-100330000D03*
D10*
X196850000Y-104140000D03*
D11*
X189230000Y-104140000D03*
D10*
X196850000Y-107950000D03*
D11*
X189230000Y-107950000D03*
D10*
X182880000Y-81280000D03*
D11*
X175260000Y-81280000D03*
D10*
X182880000Y-85090000D03*
D11*
X175260000Y-85090000D03*
D10*
X182880000Y-88900000D03*
D11*
X175260000Y-88900000D03*
D10*
X182880000Y-92710000D03*
D11*
X175260000Y-92710000D03*
D10*
X182880000Y-96520000D03*
D11*
X175260000Y-96520000D03*
D10*
X182880000Y-100330000D03*
D11*
X175260000Y-100330000D03*
D10*
X182880000Y-104140000D03*
D11*
X175260000Y-104140000D03*
D10*
X182880000Y-107950000D03*
D11*
X175260000Y-107950000D03*
D10*
X168910000Y-81280000D03*
D11*
X161290000Y-81280000D03*
D10*
X168910000Y-85090000D03*
D11*
X161290000Y-85090000D03*
D10*
X168910000Y-88900000D03*
D11*
X161290000Y-88900000D03*
D10*
X168910000Y-92710000D03*
D11*
X161290000Y-92710000D03*
D10*
X168910000Y-96520000D03*
D11*
X161290000Y-96520000D03*
D10*
X168910000Y-100330000D03*
D11*
X161290000Y-100330000D03*
D10*
X168910000Y-104140000D03*
D11*
X161290000Y-104140000D03*
D10*
X168910000Y-107950000D03*
D11*
X161290000Y-107950000D03*
D10*
X154940000Y-81280000D03*
D11*
X147320000Y-81280000D03*
D10*
X154940000Y-85090000D03*
D11*
X147320000Y-85090000D03*
D10*
X154940000Y-88900000D03*
D11*
X147320000Y-88900000D03*
D10*
X154940000Y-92710000D03*
D11*
X147320000Y-92710000D03*
D10*
X154940000Y-96520000D03*
D11*
X147320000Y-96520000D03*
D10*
X154940000Y-100330000D03*
D11*
X147320000Y-100330000D03*
D10*
X154940000Y-104140000D03*
D11*
X147320000Y-104140000D03*
D10*
X154940000Y-107950000D03*
D11*
X147320000Y-107950000D03*
D10*
X140970000Y-81280000D03*
D11*
X133350000Y-81280000D03*
D10*
X140970000Y-85090000D03*
D11*
X133350000Y-85090000D03*
D10*
X140970000Y-88900000D03*
D11*
X133350000Y-88900000D03*
D10*
X140970000Y-92710000D03*
D11*
X133350000Y-92710000D03*
D10*
X140970000Y-96520000D03*
D11*
X133350000Y-96520000D03*
D10*
X140970000Y-100330000D03*
D11*
X133350000Y-100330000D03*
D10*
X140970000Y-104140000D03*
D11*
X133350000Y-104140000D03*
D10*
X140970000Y-107950000D03*
D11*
X133350000Y-107950000D03*
D12*
X129540000Y-30480000D03*
D13*
X127000000Y-30480000D03*
D12*
X137160000Y-140970000D03*
D13*
X134620000Y-140970000D03*
D16*
X180340000Y-30480000D03*
D17*
X190500000Y-30480000D03*
D16*
X180340000Y-35560000D03*
D17*
X190500000Y-35560000D03*
D16*
X163830000Y-35560000D03*
D17*
X173990000Y-35560000D03*
D16*
X163830000Y-30480000D03*
D17*
X173990000Y-30480000D03*
D18*
X96340000Y-44450000D03*
X91440000Y-44450000D03*
X119200000Y-144780000D03*
X114300000Y-144780000D03*
D14*
X86360000Y-152400000D03*
X78740000Y-167640000D03*
X86360000Y-154940000D03*
X78740000Y-165100000D03*
X86360000Y-157480000D03*
X78740000Y-162560000D03*
X86360000Y-160020000D03*
X78740000Y-160020000D03*
X86360000Y-162560000D03*
X78740000Y-157480000D03*
X86360000Y-165100000D03*
X78740000Y-154940000D03*
X86360000Y-167640000D03*
D15*
X78740000Y-152400000D03*
D14*
X71120000Y-152400000D03*
X63500000Y-170180000D03*
X71120000Y-154940000D03*
X63500000Y-167640000D03*
X71120000Y-157480000D03*
X63500000Y-165100000D03*
X71120000Y-160020000D03*
X63500000Y-162560000D03*
X71120000Y-162560000D03*
X63500000Y-160020000D03*
X71120000Y-165100000D03*
X63500000Y-157480000D03*
X71120000Y-167640000D03*
X63500000Y-154940000D03*
X71120000Y-170180000D03*
D15*
X63500000Y-152400000D03*
D14*
X101600000Y-116840000D03*
X93980000Y-139700000D03*
X101600000Y-119380000D03*
X93980000Y-137160000D03*
X101600000Y-121920000D03*
X93980000Y-134620000D03*
X101600000Y-124460000D03*
X93980000Y-132080000D03*
X101600000Y-127000000D03*
X93980000Y-129540000D03*
X101600000Y-129540000D03*
X93980000Y-127000000D03*
X101600000Y-132080000D03*
X93980000Y-124460000D03*
X101600000Y-134620000D03*
X93980000Y-121920000D03*
X101600000Y-137160000D03*
X93980000Y-119380000D03*
X101600000Y-139700000D03*
D15*
X93980000Y-116840000D03*
D14*
X71120000Y-116840000D03*
X63500000Y-139700000D03*
X71120000Y-119380000D03*
X63500000Y-137160000D03*
X71120000Y-121920000D03*
X63500000Y-134620000D03*
X71120000Y-124460000D03*
X63500000Y-132080000D03*
X71120000Y-127000000D03*
X63500000Y-129540000D03*
X71120000Y-129540000D03*
X63500000Y-127000000D03*
X71120000Y-132080000D03*
X63500000Y-124460000D03*
X71120000Y-134620000D03*
X63500000Y-121920000D03*
X71120000Y-137160000D03*
X63500000Y-119380000D03*
X71120000Y-139700000D03*
D15*
X63500000Y-116840000D03*
D14*
X101600000Y-57150000D03*
X86360000Y-105410000D03*
X101600000Y-59690000D03*
X86360000Y-102870000D03*
X101600000Y-62230000D03*
X86360000Y-100330000D03*
X101600000Y-64770000D03*
X86360000Y-97790000D03*
X101600000Y-67310000D03*
X86360000Y-95250000D03*
X101600000Y-69850000D03*
X86360000Y-92710000D03*
X101600000Y-72390000D03*
X86360000Y-90170000D03*
X101600000Y-74930000D03*
X86360000Y-87630000D03*
X101600000Y-77470000D03*
X86360000Y-85090000D03*
X101600000Y-80010000D03*
X86360000Y-82550000D03*
X101600000Y-82550000D03*
X86360000Y-80010000D03*
X101600000Y-85090000D03*
X86360000Y-77470000D03*
X101600000Y-87630000D03*
X86360000Y-74930000D03*
X101600000Y-90170000D03*
X86360000Y-72390000D03*
X101600000Y-92710000D03*
X86360000Y-69850000D03*
X101600000Y-95250000D03*
X86360000Y-67310000D03*
X101600000Y-97790000D03*
X86360000Y-64770000D03*
X101600000Y-100330000D03*
X86360000Y-62230000D03*
X101600000Y-102870000D03*
X86360000Y-59690000D03*
X101600000Y-105410000D03*
D15*
X86360000Y-57150000D03*
D14*
X124460000Y-57150000D03*
X109220000Y-90170000D03*
X124460000Y-59690000D03*
X109220000Y-87630000D03*
X124460000Y-62230000D03*
X109220000Y-85090000D03*
X124460000Y-64770000D03*
X109220000Y-82550000D03*
X124460000Y-67310000D03*
X109220000Y-80010000D03*
X124460000Y-69850000D03*
X109220000Y-77470000D03*
X124460000Y-72390000D03*
X109220000Y-74930000D03*
X124460000Y-74930000D03*
X109220000Y-72390000D03*
X124460000Y-77470000D03*
X109220000Y-69850000D03*
X124460000Y-80010000D03*
X109220000Y-67310000D03*
X124460000Y-82550000D03*
X109220000Y-64770000D03*
X124460000Y-85090000D03*
X109220000Y-62230000D03*
X124460000Y-87630000D03*
X109220000Y-59690000D03*
X124460000Y-90170000D03*
D15*
X109220000Y-57150000D03*
D14*
X124460000Y-101600000D03*
X109220000Y-134620000D03*
X124460000Y-104140000D03*
X109220000Y-132080000D03*
X124460000Y-106680000D03*
X109220000Y-129540000D03*
X124460000Y-109220000D03*
X109220000Y-127000000D03*
X124460000Y-111760000D03*
X109220000Y-124460000D03*
X124460000Y-114300000D03*
X109220000Y-121920000D03*
X124460000Y-116840000D03*
X109220000Y-119380000D03*
X124460000Y-119380000D03*
X109220000Y-116840000D03*
X124460000Y-121920000D03*
X109220000Y-114300000D03*
X124460000Y-124460000D03*
X109220000Y-111760000D03*
X124460000Y-127000000D03*
X109220000Y-109220000D03*
X124460000Y-129540000D03*
X109220000Y-106680000D03*
X124460000Y-132080000D03*
X109220000Y-104140000D03*
X124460000Y-134620000D03*
D15*
X109220000Y-101600000D03*
D14*
X86360000Y-116840000D03*
X78740000Y-139700000D03*
X86360000Y-119380000D03*
X78740000Y-137160000D03*
X86360000Y-121920000D03*
X78740000Y-134620000D03*
X86360000Y-124460000D03*
X78740000Y-132080000D03*
X86360000Y-127000000D03*
X78740000Y-129540000D03*
X86360000Y-129540000D03*
X78740000Y-127000000D03*
X86360000Y-132080000D03*
X78740000Y-124460000D03*
X86360000Y-134620000D03*
X78740000Y-121920000D03*
X86360000Y-137160000D03*
X78740000Y-119380000D03*
X86360000Y-139700000D03*
D15*
X78740000Y-116840000D03*
D14*
X210820000Y-57150000D03*
X203200000Y-74930000D03*
X210820000Y-59690000D03*
X203200000Y-72390000D03*
X210820000Y-62230000D03*
X203200000Y-69850000D03*
X210820000Y-64770000D03*
X203200000Y-67310000D03*
X210820000Y-67310000D03*
X203200000Y-64770000D03*
X210820000Y-69850000D03*
X203200000Y-62230000D03*
X210820000Y-72390000D03*
X203200000Y-59690000D03*
X210820000Y-74930000D03*
D15*
X203200000Y-57150000D03*
D14*
X196850000Y-57150000D03*
X189230000Y-74930000D03*
X196850000Y-59690000D03*
X189230000Y-72390000D03*
X196850000Y-62230000D03*
X189230000Y-69850000D03*
X196850000Y-64770000D03*
X189230000Y-67310000D03*
X196850000Y-67310000D03*
X189230000Y-64770000D03*
X196850000Y-69850000D03*
X189230000Y-62230000D03*
X196850000Y-72390000D03*
X189230000Y-59690000D03*
X196850000Y-74930000D03*
D15*
X189230000Y-57150000D03*
D14*
X182880000Y-57150000D03*
X175260000Y-74930000D03*
X182880000Y-59690000D03*
X175260000Y-72390000D03*
X182880000Y-62230000D03*
X175260000Y-69850000D03*
X182880000Y-64770000D03*
X175260000Y-67310000D03*
X182880000Y-67310000D03*
X175260000Y-64770000D03*
X182880000Y-69850000D03*
X175260000Y-62230000D03*
X182880000Y-72390000D03*
X175260000Y-59690000D03*
X182880000Y-74930000D03*
D15*
X175260000Y-57150000D03*
D14*
X168910000Y-57150000D03*
X161290000Y-74930000D03*
X168910000Y-59690000D03*
X161290000Y-72390000D03*
X168910000Y-62230000D03*
X161290000Y-69850000D03*
X168910000Y-64770000D03*
X161290000Y-67310000D03*
X168910000Y-67310000D03*
X161290000Y-64770000D03*
X168910000Y-69850000D03*
X161290000Y-62230000D03*
X168910000Y-72390000D03*
X161290000Y-59690000D03*
X168910000Y-74930000D03*
D15*
X161290000Y-57150000D03*
D14*
X154940000Y-57150000D03*
X147320000Y-74930000D03*
X154940000Y-59690000D03*
X147320000Y-72390000D03*
X154940000Y-62230000D03*
X147320000Y-69850000D03*
X154940000Y-64770000D03*
X147320000Y-67310000D03*
X154940000Y-67310000D03*
X147320000Y-64770000D03*
X154940000Y-69850000D03*
X147320000Y-62230000D03*
X154940000Y-72390000D03*
X147320000Y-59690000D03*
X154940000Y-74930000D03*
D15*
X147320000Y-57150000D03*
D14*
X140970000Y-57150000D03*
X133350000Y-74930000D03*
X140970000Y-59690000D03*
X133350000Y-72390000D03*
X140970000Y-62230000D03*
X133350000Y-69850000D03*
X140970000Y-64770000D03*
X133350000Y-67310000D03*
X140970000Y-67310000D03*
X133350000Y-64770000D03*
X140970000Y-69850000D03*
X133350000Y-62230000D03*
X140970000Y-72390000D03*
X133350000Y-59690000D03*
X140970000Y-74930000D03*
D15*
X133350000Y-57150000D03*
D18*
X210820000Y-114300000D03*
X210820000Y-116840000D03*
X210820000Y-119380000D03*
X210820000Y-121920000D03*
X210820000Y-124460000D03*
X210820000Y-127000000D03*
X210820000Y-129540000D03*
X203200000Y-129540000D03*
X203200000Y-127000000D03*
X203200000Y-124460000D03*
X203200000Y-121920000D03*
X203200000Y-119380000D03*
X203200000Y-116840000D03*
D19*
X203200000Y-114300000D03*
D18*
X196850000Y-114300000D03*
X196850000Y-116840000D03*
X196850000Y-119380000D03*
X196850000Y-121920000D03*
X196850000Y-124460000D03*
X196850000Y-127000000D03*
X196850000Y-129540000D03*
X189230000Y-129540000D03*
X189230000Y-127000000D03*
X189230000Y-124460000D03*
X189230000Y-121920000D03*
X189230000Y-119380000D03*
X189230000Y-116840000D03*
D19*
X189230000Y-114300000D03*
D18*
X182880000Y-114300000D03*
X182880000Y-116840000D03*
X182880000Y-119380000D03*
X182880000Y-121920000D03*
X182880000Y-124460000D03*
X182880000Y-127000000D03*
X182880000Y-129540000D03*
X175260000Y-129540000D03*
X175260000Y-127000000D03*
X175260000Y-124460000D03*
X175260000Y-121920000D03*
X175260000Y-119380000D03*
X175260000Y-116840000D03*
D19*
X175260000Y-114300000D03*
D18*
X168910000Y-114300000D03*
X168910000Y-116840000D03*
X168910000Y-119380000D03*
X168910000Y-121920000D03*
X168910000Y-124460000D03*
X168910000Y-127000000D03*
X168910000Y-129540000D03*
X161290000Y-129540000D03*
X161290000Y-127000000D03*
X161290000Y-124460000D03*
X161290000Y-121920000D03*
X161290000Y-119380000D03*
X161290000Y-116840000D03*
D19*
X161290000Y-114300000D03*
D18*
X154940000Y-114300000D03*
X154940000Y-116840000D03*
X154940000Y-119380000D03*
X154940000Y-121920000D03*
X154940000Y-124460000D03*
X154940000Y-127000000D03*
X154940000Y-129540000D03*
X147320000Y-129540000D03*
X147320000Y-127000000D03*
X147320000Y-124460000D03*
X147320000Y-121920000D03*
X147320000Y-119380000D03*
X147320000Y-116840000D03*
D19*
X147320000Y-114300000D03*
D18*
X140970000Y-114300000D03*
X140970000Y-116840000D03*
X140970000Y-119380000D03*
X140970000Y-121920000D03*
X140970000Y-124460000D03*
X140970000Y-127000000D03*
X140970000Y-129540000D03*
X133350000Y-129540000D03*
X133350000Y-127000000D03*
X133350000Y-124460000D03*
X133350000Y-121920000D03*
X133350000Y-119380000D03*
X133350000Y-116840000D03*
D19*
X133350000Y-114300000D03*
D14*
X101600000Y-152400000D03*
X93980000Y-167640000D03*
X101600000Y-154940000D03*
X93980000Y-165100000D03*
X101600000Y-157480000D03*
X93980000Y-162560000D03*
X101600000Y-160020000D03*
X93980000Y-160020000D03*
X101600000Y-162560000D03*
X93980000Y-157480000D03*
X101600000Y-165100000D03*
X93980000Y-154940000D03*
X101600000Y-167640000D03*
D15*
X93980000Y-152400000D03*
D14*
X78740000Y-57150000D03*
X63500000Y-105410000D03*
X78740000Y-59690000D03*
X63500000Y-102870000D03*
X78740000Y-62230000D03*
X63500000Y-100330000D03*
X78740000Y-64770000D03*
X63500000Y-97790000D03*
X78740000Y-67310000D03*
X63500000Y-95250000D03*
X78740000Y-69850000D03*
X63500000Y-92710000D03*
X78740000Y-72390000D03*
X63500000Y-90170000D03*
X78740000Y-74930000D03*
X63500000Y-87630000D03*
X78740000Y-77470000D03*
X63500000Y-85090000D03*
X78740000Y-80010000D03*
X63500000Y-82550000D03*
X78740000Y-82550000D03*
X63500000Y-80010000D03*
X78740000Y-85090000D03*
X63500000Y-77470000D03*
X78740000Y-87630000D03*
X63500000Y-74930000D03*
X78740000Y-90170000D03*
X63500000Y-72390000D03*
X78740000Y-92710000D03*
X63500000Y-69850000D03*
X78740000Y-95250000D03*
X63500000Y-67310000D03*
X78740000Y-97790000D03*
X63500000Y-64770000D03*
X78740000Y-100330000D03*
X63500000Y-62230000D03*
X78740000Y-102870000D03*
X63500000Y-59690000D03*
X78740000Y-105410000D03*
D15*
X63500000Y-57150000D03*
D20*
X203200000Y-30480000D03*
X200660000Y-30480000D03*
D21*
X198120000Y-30480000D03*
D22*
X184300000Y-203200000D03*
X184300000Y-207700000D03*
X177800000Y-203200000D03*
X177800000Y-207700000D03*
X165100000Y-203200000D03*
X165100000Y-207700000D03*
X158600000Y-203200000D03*
X158600000Y-207700000D03*
X193190000Y-190500000D03*
X193190000Y-195000000D03*
X186690000Y-190500000D03*
X186690000Y-195000000D03*
X175410000Y-190500000D03*
X175410000Y-195000000D03*
X168910000Y-190500000D03*
X168910000Y-195000000D03*
X157630000Y-190500000D03*
X157630000Y-195000000D03*
X151130000Y-190500000D03*
X151130000Y-195000000D03*
X193190000Y-177800000D03*
X193190000Y-182300000D03*
X186690000Y-177800000D03*
X186690000Y-182300000D03*
X175410000Y-177800000D03*
X175410000Y-182300000D03*
X168910000Y-177800000D03*
X168910000Y-182300000D03*
X157630000Y-177800000D03*
X157630000Y-182300000D03*
X151130000Y-177800000D03*
X151130000Y-182300000D03*
X193190000Y-165100000D03*
X193190000Y-169600000D03*
X186690000Y-165100000D03*
X186690000Y-169600000D03*
X175410000Y-165100000D03*
X175410000Y-169600000D03*
X168910000Y-165100000D03*
X168910000Y-169600000D03*
X157630000Y-165100000D03*
X157630000Y-169600000D03*
X151130000Y-165100000D03*
X151130000Y-169600000D03*
X193190000Y-152400000D03*
X193190000Y-156900000D03*
X186690000Y-152400000D03*
X186690000Y-156900000D03*
X175410000Y-152400000D03*
X175410000Y-156900000D03*
X168910000Y-152400000D03*
X168910000Y-156900000D03*
X157630000Y-152400000D03*
X157630000Y-156900000D03*
X151130000Y-152400000D03*
X151130000Y-156900000D03*
X193190000Y-139700000D03*
X193190000Y-144200000D03*
X186690000Y-139700000D03*
X186690000Y-144200000D03*
X175410000Y-139700000D03*
X175410000Y-144200000D03*
X168910000Y-139700000D03*
X168910000Y-144200000D03*
X157630000Y-139700000D03*
X157630000Y-144200000D03*
X151130000Y-139700000D03*
X151130000Y-144200000D03*
D10*
X120650000Y-167640000D03*
D11*
X113030000Y-167640000D03*
D10*
X120650000Y-172720000D03*
D11*
X113030000Y-172720000D03*
D10*
X120650000Y-162560000D03*
D11*
X113030000Y-162560000D03*
D10*
X120650000Y-157480000D03*
D11*
X113030000Y-157480000D03*
D10*
X148590000Y-40640000D03*
D11*
X140970000Y-40640000D03*
D10*
X148590000Y-35560000D03*
D11*
X140970000Y-35560000D03*
D12*
X73660000Y-30480000D03*
D13*
X71120000Y-30480000D03*
D12*
X62230000Y-30480000D03*
X59690000Y-30480000D03*
X57150000Y-30480000D03*
X54610000Y-30480000D03*
X52070000Y-30480000D03*
D13*
X49530000Y-30480000D03*
D12*
X53340000Y-38100000D03*
X50800000Y-38100000D03*
D13*
X48260000Y-38100000D03*
D12*
X55880000Y-208280000D03*
X55880000Y-205740000D03*
X58420000Y-208280000D03*
X58420000Y-205740000D03*
X60960000Y-208280000D03*
X60960000Y-205740000D03*
X63500000Y-208280000D03*
X63500000Y-205740000D03*
X66040000Y-208280000D03*
X66040000Y-205740000D03*
X68580000Y-208280000D03*
X68580000Y-205740000D03*
X71120000Y-208280000D03*
X71120000Y-205740000D03*
X73660000Y-208280000D03*
X73660000Y-205740000D03*
X76200000Y-208280000D03*
X76200000Y-205740000D03*
X78740000Y-208280000D03*
X78740000Y-205740000D03*
X81280000Y-208280000D03*
X81280000Y-205740000D03*
X83820000Y-208280000D03*
X83820000Y-205740000D03*
X86360000Y-208280000D03*
X86360000Y-205740000D03*
X88900000Y-208280000D03*
X88900000Y-205740000D03*
X91440000Y-208280000D03*
X91440000Y-205740000D03*
X93980000Y-208280000D03*
X93980000Y-205740000D03*
X96520000Y-208280000D03*
X96520000Y-205740000D03*
X99060000Y-208280000D03*
X99060000Y-205740000D03*
X101600000Y-208280000D03*
X101600000Y-205740000D03*
X104140000Y-208280000D03*
D13*
X104140000Y-205740000D03*
D12*
X88900000Y-30480000D03*
X86360000Y-30480000D03*
D13*
X83820000Y-30480000D03*
D12*
X66040000Y-38100000D03*
X63500000Y-38100000D03*
D13*
X60960000Y-38100000D03*
D12*
X41910000Y-111760000D03*
X44450000Y-111760000D03*
X41910000Y-114300000D03*
X44450000Y-114300000D03*
X41910000Y-116840000D03*
X44450000Y-116840000D03*
X41910000Y-119380000D03*
X44450000Y-119380000D03*
X41910000Y-121920000D03*
X44450000Y-121920000D03*
X41910000Y-124460000D03*
X44450000Y-124460000D03*
X41910000Y-127000000D03*
X44450000Y-127000000D03*
X41910000Y-129540000D03*
X44450000Y-129540000D03*
X41910000Y-132080000D03*
X44450000Y-132080000D03*
X41910000Y-134620000D03*
X44450000Y-134620000D03*
X41910000Y-137160000D03*
X44450000Y-137160000D03*
X41910000Y-139700000D03*
D13*
X44450000Y-139700000D03*
D12*
X99060000Y-30480000D03*
D13*
X96520000Y-30480000D03*
D12*
X109220000Y-30480000D03*
D13*
X106680000Y-30480000D03*
D14*
X120650000Y-191770000D03*
D15*
X113030000Y-191770000D03*
D14*
X120650000Y-185420000D03*
D15*
X113030000Y-185420000D03*
D14*
X120650000Y-179070000D03*
D15*
X113030000Y-179070000D03*
D23*
X119380000Y-30480000D03*
D24*
X116840000Y-30480000D03*
D14*
X187960000Y-40640000D03*
D15*
X180340000Y-40640000D03*
D14*
X173990000Y-40640000D03*
D15*
X166370000Y-40640000D03*
D25*
X102870000Y-49450000D03*
X102870000Y-44450000D03*
X85090000Y-44530000D03*
X85090000Y-49530000D03*
D26*
X117570000Y-200660000D03*
D27*
X115570000Y-200660000D03*
D25*
X119300000Y-152400000D03*
X114300000Y-152400000D03*
X95330000Y-147320000D03*
X100330000Y-147320000D03*
X114380000Y-52070000D03*
X119380000Y-52070000D03*
X91520000Y-52070000D03*
X96520000Y-52070000D03*
X68660000Y-52070000D03*
X73660000Y-52070000D03*
X64850000Y-111760000D03*
X69850000Y-111760000D03*
X176610000Y-52070000D03*
X181610000Y-52070000D03*
X95330000Y-111760000D03*
X100330000Y-111760000D03*
X64850000Y-147320000D03*
X69850000Y-147320000D03*
X114380000Y-96520000D03*
X119380000Y-96520000D03*
X204550000Y-52070000D03*
X209550000Y-52070000D03*
X45800000Y-52070000D03*
X50800000Y-52070000D03*
X190580000Y-52070000D03*
X195580000Y-52070000D03*
X80090000Y-111760000D03*
X85090000Y-111760000D03*
X148670000Y-52070000D03*
X153670000Y-52070000D03*
X80090000Y-147320000D03*
X85090000Y-147320000D03*
X134700000Y-52070000D03*
X139700000Y-52070000D03*
X162640000Y-52070000D03*
X167640000Y-52070000D03*
X157400000Y-30480000D03*
X152400000Y-30480000D03*
X198200000Y-35560000D03*
X203200000Y-35560000D03*
X201390000Y-41910000D03*
D15*
X199390000Y-41910000D03*
D25*
X145970000Y-30480000D03*
X140970000Y-30480000D03*
D28*
X113489300Y-139946400D03*
X97850600Y-121004400D03*
X95989900Y-190136200D03*
X102271900Y-169818200D03*
X93142500Y-77190200D03*
X59327800Y-69321700D03*
X69994700Y-66387800D03*
X94581600Y-190894300D03*
X89755500Y-180964800D03*
X89690500Y-114384300D03*
X89690500Y-129540000D03*
X55300900Y-92606200D03*
X59961100Y-94382000D03*
X52002100Y-107591900D03*
X51829800Y-74022900D03*
X88970100Y-141967400D03*
X78390900Y-142222800D03*
X48207200Y-133939700D03*
X89999100Y-65541900D03*
X91432900Y-204114300D03*
X91608700Y-198931800D03*
X91648000Y-181298000D03*
X97840600Y-115379200D03*
X97292100Y-112105700D03*
X84894900Y-114722200D03*
X84233500Y-119942600D03*
X108282900Y-143681900D03*
X57367500Y-143680600D03*
X88913500Y-95727700D03*
X88239200Y-123717900D03*
X83305400Y-131863100D03*
X72939800Y-103396300D03*
X67758700Y-129065500D03*
X82288100Y-133327900D03*
X117655900Y-110368200D03*
X129277300Y-108412800D03*
X81492400Y-136034700D03*
X118833700Y-106376900D03*
X78000000Y-210839700D03*
X76640200Y-99438100D03*
X68520800Y-161574100D03*
X75941000Y-93922800D03*
X67848800Y-153239000D03*
X105843200Y-92826000D03*
X83025600Y-150238900D03*
X88477300Y-106298900D03*
X88553300Y-113707200D03*
X88385900Y-188843700D03*
X93133600Y-191579200D03*
X125732100Y-73660000D03*
X125671400Y-76018700D03*
X115042300Y-139052300D03*
X99212600Y-74636400D03*
X93754000Y-111748100D03*
X81952900Y-109939900D03*
X59703700Y-107697500D03*
X70160000Y-86504600D03*
X77083100Y-72470400D03*
X58472600Y-83838600D03*
X60730800Y-87611200D03*
X90784600Y-69237000D03*
X88458900Y-125024900D03*
X98191600Y-125860500D03*
X104001400Y-83308900D03*
X103462100Y-87155700D03*
X118482100Y-86460100D03*
X103959700Y-142000500D03*
X111007900Y-142144300D03*
X104966000Y-127136600D03*
X109283100Y-140880200D03*
X105056900Y-124747200D03*
X57927100Y-82584100D03*
X60148700Y-89293400D03*
X104487700Y-123413700D03*
X140913300Y-148730100D03*
X139980800Y-112105300D03*
X114431200Y-107302400D03*
X116605300Y-101043800D03*
X106371300Y-105386800D03*
X104041900Y-98947000D03*
X153259900Y-92177100D03*
X136302500Y-144988000D03*
X180852400Y-74771100D03*
X198896200Y-115134800D03*
X106132400Y-163974700D03*
X106898500Y-149269000D03*
X121412100Y-116840000D03*
X82128100Y-75651500D03*
X73312900Y-156921200D03*
X136134700Y-92728700D03*
X87739900Y-180195300D03*
X87216600Y-169574300D03*
X118960500Y-141953200D03*
X80230300Y-137937500D03*
X117375600Y-140265900D03*
X120027100Y-134696500D03*
X80506800Y-128963100D03*
X97865900Y-122288200D03*
X101769600Y-147315800D03*
D29*
X97972500Y-119582100D02*
X96902400Y-120652200D01*
X96902400Y-120652200D02*
X96902400Y-137402700D01*
X96902400Y-137402700D02*
X93980000Y-140325100D01*
X100349700Y-119380000D02*
X98174600Y-119380000D01*
X98174600Y-119380000D02*
X97972500Y-119582100D01*
X97972500Y-119582100D02*
X95230300Y-116840000D01*
X93980000Y-116840000D02*
X95230300Y-116840000D01*
X93980000Y-116840000D02*
X93980000Y-115589700D01*
X95330000Y-111760000D02*
X95330000Y-114239700D01*
X95330000Y-114239700D02*
X93980000Y-115589700D01*
X100349700Y-105410000D02*
X95330000Y-110429700D01*
X95330000Y-110429700D02*
X95330000Y-111760000D01*
X80090000Y-147320000D02*
X80090000Y-148505800D01*
X80090000Y-148505800D02*
X85273900Y-153689700D01*
X85273900Y-153689700D02*
X86360000Y-153689700D01*
X200376500Y-43160400D02*
X201390000Y-42146900D01*
X201390000Y-42146900D02*
X201390000Y-41910000D01*
X197700100Y-42009700D02*
X197700100Y-42477800D01*
X197700100Y-42477800D02*
X198382700Y-43160400D01*
X198382700Y-43160400D02*
X200376500Y-43160400D01*
X200376500Y-43160400D02*
X200376500Y-47896500D01*
X200376500Y-47896500D02*
X204550000Y-52070000D01*
X198200000Y-35560000D02*
X197700100Y-36059900D01*
X197700100Y-36059900D02*
X197700100Y-42009700D01*
X190580000Y-42009700D02*
X197700100Y-42009700D01*
X190580000Y-42009700D02*
X189210300Y-40640000D01*
X190580000Y-52070000D02*
X190580000Y-42009700D01*
X187960000Y-40640000D02*
X189210300Y-40640000D01*
X86360000Y-157480000D02*
X86360000Y-158730300D01*
X86360000Y-158730300D02*
X85813000Y-158730300D01*
X85813000Y-158730300D02*
X85070400Y-159472900D01*
X85070400Y-159472900D02*
X85070400Y-160564000D01*
X85070400Y-160564000D02*
X85816100Y-161309700D01*
X85816100Y-161309700D02*
X86360000Y-161309700D01*
X86360000Y-157480000D02*
X86360000Y-154940000D01*
X78740000Y-140950300D02*
X80090000Y-142300300D01*
X80090000Y-142300300D02*
X80090000Y-147320000D01*
X86360000Y-154940000D02*
X86360000Y-153689700D01*
X162640000Y-50768100D02*
X162640000Y-38300300D01*
X162640000Y-38300300D02*
X163830000Y-37110300D01*
X162640000Y-52070000D02*
X162640000Y-50768100D01*
X162640000Y-50768100D02*
X149971900Y-50768100D01*
X149971900Y-50768100D02*
X148670000Y-52070000D01*
X117570000Y-200660000D02*
X117570000Y-201753300D01*
X117570000Y-201753300D02*
X127805500Y-211988800D01*
X127805500Y-211988800D02*
X173511200Y-211988800D01*
X173511200Y-211988800D02*
X177800000Y-207700000D01*
X101600000Y-119380000D02*
X100349700Y-119380000D01*
X49530000Y-30480000D02*
X49530000Y-31780300D01*
X45800000Y-52070000D02*
X45800000Y-35510300D01*
X45800000Y-35510300D02*
X49530000Y-31780300D01*
X78740000Y-182880000D02*
X77439600Y-184180400D01*
X77439600Y-184180400D02*
X77439600Y-204439600D01*
X77439600Y-204439600D02*
X78740000Y-205740000D01*
X78740000Y-167640000D02*
X78740000Y-182880000D01*
X109220000Y-90170000D02*
X109220000Y-91420300D01*
X114380000Y-96520000D02*
X109280300Y-91420300D01*
X109280300Y-91420300D02*
X109220000Y-91420300D01*
X101600000Y-67310000D02*
X101600000Y-66059700D01*
X102870000Y-49450000D02*
X102870000Y-65333600D01*
X102870000Y-65333600D02*
X102143900Y-66059700D01*
X102143900Y-66059700D02*
X101600000Y-66059700D01*
X93980000Y-140325100D02*
X93980000Y-140950300D01*
X93980000Y-139700000D02*
X93980000Y-140325100D01*
X100349700Y-105410000D02*
X100349700Y-68560300D01*
X100349700Y-68560300D02*
X101600000Y-67310000D01*
X101600000Y-105410000D02*
X100349700Y-105410000D01*
X86360000Y-182880000D02*
X82550000Y-182880000D01*
X63500000Y-140950300D02*
X64850000Y-142300300D01*
X64850000Y-142300300D02*
X64850000Y-147320000D01*
X203200000Y-74930000D02*
X203200000Y-73679700D01*
X71120000Y-182880000D02*
X74930000Y-182880000D01*
X55880000Y-59690000D02*
X55880000Y-57150000D01*
X163830000Y-30480000D02*
X163830000Y-35560000D01*
X86360000Y-165100000D02*
X86360000Y-162560000D01*
X86360000Y-162560000D02*
X86360000Y-161309700D01*
X203200000Y-73679700D02*
X202653000Y-73679700D01*
X202653000Y-73679700D02*
X201949600Y-72976300D01*
X201949600Y-72976300D02*
X201949600Y-54670400D01*
X201949600Y-54670400D02*
X204550000Y-52070000D01*
X95330000Y-147320000D02*
X95330000Y-142300300D01*
X95330000Y-142300300D02*
X93980000Y-140950300D01*
X63500000Y-139700000D02*
X63500000Y-140950300D01*
X78740000Y-139700000D02*
X78740000Y-140950300D01*
X163830000Y-35560000D02*
X163830000Y-37110300D01*
D30*
X140970000Y-30480000D02*
X139708100Y-29218100D01*
X139708100Y-29218100D02*
X108749900Y-29218100D01*
X108749900Y-29218100D02*
X107855300Y-30112700D01*
X107855300Y-30112700D02*
X107855300Y-30480000D01*
X140970000Y-30480000D02*
X146050000Y-35560000D01*
X146050000Y-35560000D02*
X148590000Y-35560000D01*
X106680000Y-30480000D02*
X107855300Y-30480000D01*
X190500000Y-35560000D02*
X190500000Y-30480000D01*
X198120000Y-30480000D02*
X198120000Y-31805300D01*
X199390000Y-41910000D02*
X199390000Y-33075300D01*
X199390000Y-33075300D02*
X198120000Y-31805300D01*
D29*
X44450000Y-124460000D02*
X41910000Y-127000000D01*
X139700000Y-53994700D02*
X140970000Y-55264700D01*
X139700000Y-52070000D02*
X139700000Y-53994700D01*
X139700000Y-53994700D02*
X128865600Y-53994700D01*
X128865600Y-53994700D02*
X125710300Y-57150000D01*
X124460000Y-57150000D02*
X125710300Y-57150000D01*
X128270000Y-172720000D02*
X121800300Y-172720000D01*
X120650000Y-172720000D02*
X121800300Y-172720000D01*
X128270000Y-172720000D02*
X128270000Y-179070000D01*
X86360000Y-152400000D02*
X86360000Y-151149700D01*
X85090000Y-147320000D02*
X85090000Y-149879700D01*
X85090000Y-149879700D02*
X86360000Y-151149700D01*
X86360000Y-115589700D02*
X86360000Y-113030000D01*
X86360000Y-113030000D02*
X85090000Y-111760000D01*
X128270000Y-162560000D02*
X128270000Y-167640000D01*
X50800000Y-52070000D02*
X50800000Y-64144800D01*
X50800000Y-64144800D02*
X40640000Y-74304800D01*
X40640000Y-80010000D02*
X40640000Y-78759700D01*
X40640000Y-74304800D02*
X39350400Y-75594400D01*
X39350400Y-75594400D02*
X39350400Y-78014000D01*
X39350400Y-78014000D02*
X40096100Y-78759700D01*
X40096100Y-78759700D02*
X40640000Y-78759700D01*
X40640000Y-74930000D02*
X40640000Y-74304800D01*
X168910000Y-57150000D02*
X170160300Y-57150000D01*
X182889900Y-55889800D02*
X180790000Y-53790000D01*
X180790000Y-53790000D02*
X173520300Y-53790000D01*
X173520300Y-53790000D02*
X170160300Y-57150000D01*
X180790000Y-53790000D02*
X180790000Y-52890000D01*
X180790000Y-52890000D02*
X181610000Y-52070000D01*
X165109900Y-54600100D02*
X163810300Y-55899700D01*
X163810300Y-55899700D02*
X154940000Y-55899700D01*
X167640000Y-52070000D02*
X165109900Y-54600100D01*
X165109900Y-54600100D02*
X167659700Y-57150000D01*
X168910000Y-57150000D02*
X167659700Y-57150000D01*
X167640000Y-52070000D02*
X167640000Y-43160300D01*
X167640000Y-43160300D02*
X166370000Y-41890300D01*
X166370000Y-40640000D02*
X166370000Y-41890300D01*
X140970000Y-55264700D02*
X153035000Y-55264700D01*
X153035000Y-55264700D02*
X153670000Y-54629700D01*
X140970000Y-55264700D02*
X140970000Y-55899700D01*
X153670000Y-54629700D02*
X153670000Y-52070000D01*
X154940000Y-55899700D02*
X153670000Y-54629700D01*
X154940000Y-57150000D02*
X154940000Y-55899700D01*
X86360000Y-116840000D02*
X86360000Y-115589700D01*
X86360000Y-129540000D02*
X86360000Y-130790300D01*
X85090000Y-147320000D02*
X85090000Y-131516400D01*
X85090000Y-131516400D02*
X85816100Y-130790300D01*
X85816100Y-130790300D02*
X86360000Y-130790300D01*
X85109700Y-124460000D02*
X85109700Y-127583300D01*
X85109700Y-127583300D02*
X85816100Y-128289700D01*
X85816100Y-128289700D02*
X86360000Y-128289700D01*
X86360000Y-118090300D02*
X85816100Y-118090300D01*
X85816100Y-118090300D02*
X85109700Y-118796700D01*
X85109700Y-118796700D02*
X85109700Y-124460000D01*
X86360000Y-129540000D02*
X86360000Y-128289700D01*
X86360000Y-124460000D02*
X85109700Y-124460000D01*
X78740000Y-101619700D02*
X78244900Y-101619700D01*
X78244900Y-101619700D02*
X77489700Y-100864500D01*
X77489700Y-100864500D02*
X77489700Y-99791200D01*
X77489700Y-99791200D02*
X77490500Y-99790400D01*
X77490500Y-99790400D02*
X77490500Y-98631600D01*
X77490500Y-98631600D02*
X77489700Y-98630800D01*
X77489700Y-98630800D02*
X77489700Y-97790000D01*
X71120000Y-187960000D02*
X69819600Y-186659600D01*
X69819600Y-186659600D02*
X69819600Y-154403700D01*
X69819600Y-154403700D02*
X70573000Y-153650300D01*
X70573000Y-153650300D02*
X71120000Y-153650300D01*
X69850000Y-111760000D02*
X69850000Y-110509700D01*
X69850000Y-110509700D02*
X64750300Y-105410000D01*
X40640000Y-80010000D02*
X40640000Y-81260300D01*
X210820000Y-57150000D02*
X210820000Y-55899700D01*
X210820000Y-55899700D02*
X209550000Y-54629700D01*
X209550000Y-54629700D02*
X209550000Y-52070000D01*
X182889900Y-55889800D02*
X184150000Y-54629700D01*
X184150000Y-54629700D02*
X195580000Y-54629700D01*
X182880000Y-56074800D02*
X182880000Y-55899700D01*
X182880000Y-55899700D02*
X182889900Y-55889800D01*
X195580000Y-54629700D02*
X195580000Y-52070000D01*
X196850000Y-55899700D02*
X195580000Y-54629700D01*
X182880000Y-57150000D02*
X182880000Y-56074800D01*
X196850000Y-57150000D02*
X196850000Y-55899700D01*
X140970000Y-114300000D02*
X142240000Y-114300000D01*
X142240000Y-114300000D02*
X147320000Y-119380000D01*
X139700000Y-52070000D02*
X140970000Y-50800000D01*
X140970000Y-50800000D02*
X140970000Y-40640000D01*
X140970000Y-57150000D02*
X140970000Y-55899700D01*
X101600000Y-116840000D02*
X101600000Y-115589700D01*
X100330000Y-111760000D02*
X100330000Y-114319700D01*
X100330000Y-114319700D02*
X101600000Y-115589700D01*
X86360000Y-74930000D02*
X87663800Y-76233800D01*
X87663800Y-76233800D02*
X87663800Y-80532400D01*
X87663800Y-80532400D02*
X86916200Y-81280000D01*
X86916200Y-81280000D02*
X85787200Y-81280000D01*
X85787200Y-81280000D02*
X80707200Y-86360000D01*
X80707200Y-86360000D02*
X78193400Y-86360000D01*
X78193400Y-86360000D02*
X77489700Y-87063700D01*
X77489700Y-87063700D02*
X77489700Y-97790000D01*
X78740000Y-97790000D02*
X77489700Y-97790000D01*
X78740000Y-102870000D02*
X78740000Y-101619700D01*
X71120000Y-152400000D02*
X71120000Y-153650300D01*
X71120000Y-152400000D02*
X71120000Y-148590000D01*
X71120000Y-148590000D02*
X69850000Y-147320000D01*
X40640000Y-85090000D02*
X40640000Y-83839700D01*
X40640000Y-81260300D02*
X40093000Y-81260300D01*
X40093000Y-81260300D02*
X39350400Y-82002900D01*
X39350400Y-82002900D02*
X39350400Y-83094000D01*
X39350400Y-83094000D02*
X40096100Y-83839700D01*
X40096100Y-83839700D02*
X40640000Y-83839700D01*
X109220000Y-58400300D02*
X108686400Y-58400300D01*
X108686400Y-58400300D02*
X104169300Y-62917400D01*
X104169300Y-62917400D02*
X104169300Y-66577500D01*
X104169300Y-66577500D02*
X102147100Y-68599700D01*
X102147100Y-68599700D02*
X101600000Y-68599700D01*
X101600000Y-152400000D02*
X101600000Y-151149700D01*
X100330000Y-147320000D02*
X100330000Y-149879700D01*
X100330000Y-149879700D02*
X101600000Y-151149700D01*
X78740000Y-187960000D02*
X78740000Y-189260300D01*
X80980900Y-205740000D02*
X78740000Y-203499100D01*
X78740000Y-203499100D02*
X78740000Y-189260300D01*
X128270000Y-191770000D02*
X128270000Y-198120000D01*
X128270000Y-185420000D02*
X128270000Y-191770000D01*
X128270000Y-204470000D02*
X128270000Y-198120000D01*
X128270000Y-210820000D02*
X128270000Y-204470000D01*
X128270000Y-157480000D02*
X128270000Y-152400000D01*
X128270000Y-167640000D02*
X128270000Y-172720000D01*
X128270000Y-179070000D02*
X128270000Y-185420000D01*
X96520000Y-30480000D02*
X96520000Y-31780300D01*
X96520000Y-31780300D02*
X97576100Y-32836400D01*
X97576100Y-32836400D02*
X97576100Y-51013900D01*
X97576100Y-51013900D02*
X96520000Y-52070000D01*
X86360000Y-116840000D02*
X86360000Y-118090300D01*
X109220000Y-57150000D02*
X109220000Y-58400300D01*
X101600000Y-69850000D02*
X101600000Y-68599700D01*
X63500000Y-105410000D02*
X64750300Y-105410000D01*
X124460000Y-59690000D02*
X124460000Y-57150000D01*
X196850000Y-114300000D02*
X201930000Y-119380000D01*
X201930000Y-119380000D02*
X203200000Y-119380000D01*
X182880000Y-114300000D02*
X187960000Y-119380000D01*
X187960000Y-119380000D02*
X189230000Y-119380000D01*
X168910000Y-114300000D02*
X173990000Y-119380000D01*
X173990000Y-119380000D02*
X175260000Y-119380000D01*
X154940000Y-114300000D02*
X160020000Y-119380000D01*
X160020000Y-119380000D02*
X161290000Y-119380000D01*
X78740000Y-208280000D02*
X80980900Y-206039100D01*
X80980900Y-206039100D02*
X80980900Y-205740000D01*
X81280000Y-205740000D02*
X80980900Y-205740000D01*
X124460000Y-101600000D02*
X123209700Y-101600000D01*
X119380000Y-96520000D02*
X123209700Y-100349700D01*
X123209700Y-100349700D02*
X123209700Y-101600000D01*
D30*
X173990000Y-35560000D02*
X172564700Y-35560000D01*
X152400000Y-30480000D02*
X153840100Y-29039900D01*
X153840100Y-29039900D02*
X166044600Y-29039900D01*
X166044600Y-29039900D02*
X172564700Y-35560000D01*
X120650000Y-162560000D02*
X120650000Y-161534700D01*
X114300000Y-152400000D02*
X114300000Y-155184700D01*
X114300000Y-155184700D02*
X120650000Y-161534700D01*
X117647600Y-168665300D02*
X111989900Y-163007600D01*
X111989900Y-163007600D02*
X111989900Y-141445800D01*
X111989900Y-141445800D02*
X113489300Y-139946400D01*
X117647600Y-168665300D02*
X115570000Y-170742900D01*
X115570000Y-170742900D02*
X115570000Y-199734700D01*
X120650000Y-168665300D02*
X117647600Y-168665300D01*
X115570000Y-200660000D02*
X115570000Y-199734700D01*
X120650000Y-167640000D02*
X120650000Y-168665300D01*
X101600000Y-62230000D02*
X101600000Y-61104700D01*
X91440000Y-44450000D02*
X93617900Y-46627900D01*
X93617900Y-46627900D02*
X93617900Y-53403900D01*
X93617900Y-53403900D02*
X101318700Y-61104700D01*
X101318700Y-61104700D02*
X101600000Y-61104700D01*
X101600000Y-59690000D02*
X101600000Y-58564700D01*
X101600000Y-58564700D02*
X101362900Y-58564700D01*
X101362900Y-58564700D02*
X100474700Y-57676500D01*
X100474700Y-57676500D02*
X100474700Y-46845300D01*
X100474700Y-46845300D02*
X102870000Y-44450000D01*
X140970000Y-35560000D02*
X116030000Y-60500000D01*
X116030000Y-60500000D02*
X116030000Y-100593400D01*
X116030000Y-100593400D02*
X115880000Y-100743400D01*
X115880000Y-100743400D02*
X115880000Y-127076700D01*
X115880000Y-127076700D02*
X109606700Y-133350000D01*
X109606700Y-133350000D02*
X108794000Y-133350000D01*
X108794000Y-133350000D02*
X102725300Y-139418700D01*
X102725300Y-139418700D02*
X102725300Y-139700000D01*
X101600000Y-139700000D02*
X102725300Y-139700000D01*
X100077000Y-128150900D02*
X104977500Y-128150900D01*
X104977500Y-128150900D02*
X108094700Y-125033700D01*
X108094700Y-125033700D02*
X108094700Y-124460000D01*
X100077000Y-128150900D02*
X99454000Y-128773900D01*
X99454000Y-128773900D02*
X99454000Y-142939500D01*
X99454000Y-142939500D02*
X102733500Y-146219000D01*
X102733500Y-146219000D02*
X102733500Y-169356600D01*
X102733500Y-169356600D02*
X102271900Y-169818200D01*
X100077000Y-128150900D02*
X100077000Y-123230800D01*
X100077000Y-123230800D02*
X97850600Y-121004400D01*
X102271900Y-169818200D02*
X95989900Y-176100200D01*
X95989900Y-176100200D02*
X95989900Y-190136200D01*
X109220000Y-124460000D02*
X108094700Y-124460000D01*
X93980000Y-118254700D02*
X93276700Y-118254700D01*
X93276700Y-118254700D02*
X92844600Y-117822600D01*
X92844600Y-117822600D02*
X92844600Y-77488100D01*
X92844600Y-77488100D02*
X93142500Y-77190200D01*
X93980000Y-119380000D02*
X93980000Y-118254700D01*
X69994700Y-66387800D02*
X69791500Y-66184600D01*
X69791500Y-66184600D02*
X62464900Y-66184600D01*
X62464900Y-66184600D02*
X59327800Y-69321700D01*
X78740000Y-67310000D02*
X78740000Y-68435300D01*
X86360000Y-77470000D02*
X86360000Y-76344700D01*
X86360000Y-76344700D02*
X86148000Y-76344700D01*
X86148000Y-76344700D02*
X79865300Y-70062000D01*
X79865300Y-70062000D02*
X79865300Y-69279200D01*
X79865300Y-69279200D02*
X79021400Y-68435300D01*
X79021400Y-68435300D02*
X78740000Y-68435300D01*
X93980000Y-124460000D02*
X93980000Y-125585300D01*
X94581600Y-190894300D02*
X94581600Y-171658600D01*
X94581600Y-171658600D02*
X95559900Y-170680300D01*
X95559900Y-170680300D02*
X95559900Y-149845100D01*
X95559900Y-149845100D02*
X92803300Y-147088500D01*
X92803300Y-147088500D02*
X92803300Y-139268100D01*
X92803300Y-139268100D02*
X93685400Y-138386000D01*
X93685400Y-138386000D02*
X94395500Y-138386000D01*
X94395500Y-138386000D02*
X95105300Y-137676200D01*
X95105300Y-137676200D02*
X95105300Y-126429200D01*
X95105300Y-126429200D02*
X94261400Y-125585300D01*
X94261400Y-125585300D02*
X93980000Y-125585300D01*
X109220000Y-78595300D02*
X108938600Y-78595300D01*
X108938600Y-78595300D02*
X107470700Y-80063200D01*
X107470700Y-80063200D02*
X107470700Y-86136400D01*
X107470700Y-86136400D02*
X107194100Y-86413000D01*
X107194100Y-86413000D02*
X107194100Y-91688900D01*
X107194100Y-91688900D02*
X112194000Y-96688800D01*
X112194000Y-96688800D02*
X112194000Y-101381500D01*
X112194000Y-101381500D02*
X112596800Y-101784300D01*
X112596800Y-101784300D02*
X112596800Y-117699300D01*
X112596800Y-117699300D02*
X109501400Y-120794700D01*
X109501400Y-120794700D02*
X109220000Y-120794700D01*
X86360000Y-78884700D02*
X86078600Y-78884700D01*
X86078600Y-78884700D02*
X83318100Y-76124200D01*
X83318100Y-76124200D02*
X83318100Y-75281000D01*
X83318100Y-75281000D02*
X79012400Y-70975300D01*
X79012400Y-70975300D02*
X78740000Y-70975300D01*
X109220000Y-77470000D02*
X109220000Y-78595300D01*
X109220000Y-121920000D02*
X109220000Y-120794700D01*
X86360000Y-80010000D02*
X86360000Y-78884700D01*
X78740000Y-69850000D02*
X78740000Y-70975300D01*
X148590000Y-40640000D02*
X147564700Y-40640000D01*
X119380000Y-30480000D02*
X122856100Y-33956100D01*
X122856100Y-33956100D02*
X140880800Y-33956100D01*
X140880800Y-33956100D02*
X147564700Y-40640000D01*
X89755500Y-180964800D02*
X89755500Y-129605000D01*
X89755500Y-129605000D02*
X89690500Y-129540000D01*
X89690500Y-114384300D02*
X90103200Y-113971600D01*
X90103200Y-113971600D02*
X90103200Y-87137100D01*
X90103200Y-87137100D02*
X86641400Y-83675300D01*
X86641400Y-83675300D02*
X86360000Y-83675300D01*
X89690500Y-114384300D02*
X89690500Y-129540000D01*
X86360000Y-82550000D02*
X86360000Y-83675300D01*
X41910000Y-114300000D02*
X41910000Y-113124700D01*
X55300900Y-92606200D02*
X43085300Y-104821800D01*
X43085300Y-104821800D02*
X43085300Y-112316800D01*
X43085300Y-112316800D02*
X42277400Y-113124700D01*
X42277400Y-113124700D02*
X41910000Y-113124700D01*
X41910000Y-116840000D02*
X41910000Y-115664700D01*
X41910000Y-115664700D02*
X42277400Y-115664700D01*
X42277400Y-115664700D02*
X43085300Y-114856800D01*
X43085300Y-114856800D02*
X43085300Y-113936500D01*
X43085300Y-113936500D02*
X43897200Y-113124600D01*
X43897200Y-113124600D02*
X44799300Y-113124600D01*
X44799300Y-113124600D02*
X56920700Y-101003200D01*
X56920700Y-101003200D02*
X56920700Y-97422400D01*
X56920700Y-97422400D02*
X59961100Y-94382000D01*
X43085300Y-119380000D02*
X43085300Y-119012600D01*
X43085300Y-119012600D02*
X43893200Y-118204700D01*
X43893200Y-118204700D02*
X44766500Y-118204700D01*
X44766500Y-118204700D02*
X52002100Y-110969100D01*
X52002100Y-110969100D02*
X52002100Y-107591900D01*
X41910000Y-119380000D02*
X43085300Y-119380000D01*
X78740000Y-59690000D02*
X77614700Y-59690000D01*
X41910000Y-129540000D02*
X41910000Y-128364700D01*
X41910000Y-128364700D02*
X41542700Y-128364700D01*
X41542700Y-128364700D02*
X40728300Y-127550300D01*
X40728300Y-127550300D02*
X40728300Y-98597500D01*
X40728300Y-98597500D02*
X55361200Y-83964600D01*
X55361200Y-83964600D02*
X56057000Y-83964600D01*
X56057000Y-83964600D02*
X57020300Y-83001300D01*
X57020300Y-83001300D02*
X57020300Y-81721200D01*
X57020300Y-81721200D02*
X61779800Y-76961700D01*
X61779800Y-76961700D02*
X61779800Y-69977000D01*
X61779800Y-69977000D02*
X63301400Y-68455400D01*
X63301400Y-68455400D02*
X68990000Y-68455400D01*
X68990000Y-68455400D02*
X77614700Y-59830700D01*
X77614700Y-59830700D02*
X77614700Y-59690000D01*
X48260000Y-39275300D02*
X51943100Y-42958400D01*
X51943100Y-42958400D02*
X51943100Y-73909600D01*
X51943100Y-73909600D02*
X51829800Y-74022900D01*
X43085300Y-132080000D02*
X43085300Y-132447300D01*
X43085300Y-132447300D02*
X43898100Y-133260100D01*
X43898100Y-133260100D02*
X44940300Y-133260100D01*
X44940300Y-133260100D02*
X61023800Y-117176600D01*
X61023800Y-117176600D02*
X61023800Y-102310600D01*
X61023800Y-102310600D02*
X61924400Y-101410000D01*
X61924400Y-101410000D02*
X61924400Y-79889500D01*
X61924400Y-79889500D02*
X63218600Y-78595300D01*
X63218600Y-78595300D02*
X63500000Y-78595300D01*
X48260000Y-38100000D02*
X48260000Y-39275300D01*
X63500000Y-77470000D02*
X63500000Y-78595300D01*
X41910000Y-132080000D02*
X43085300Y-132080000D01*
X90170000Y-184244700D02*
X89802700Y-184244700D01*
X89802700Y-184244700D02*
X88970100Y-183412100D01*
X88970100Y-183412100D02*
X88970100Y-141967400D01*
X90170000Y-185420000D02*
X90170000Y-184244700D01*
X63500000Y-74930000D02*
X63500000Y-76055300D01*
X44450000Y-132080000D02*
X44450000Y-130904700D01*
X44450000Y-130904700D02*
X44817300Y-130904700D01*
X44817300Y-130904700D02*
X60468500Y-115253500D01*
X60468500Y-115253500D02*
X60468500Y-96754900D01*
X60468500Y-96754900D02*
X61473900Y-95749500D01*
X61473900Y-95749500D02*
X61473900Y-77904500D01*
X61473900Y-77904500D02*
X63323100Y-76055300D01*
X63323100Y-76055300D02*
X63500000Y-76055300D01*
X63500000Y-72390000D02*
X65100400Y-73990400D01*
X65100400Y-73990400D02*
X65100400Y-100401600D01*
X65100400Y-100401600D02*
X63902000Y-101600000D01*
X63902000Y-101600000D02*
X63178400Y-101600000D01*
X63178400Y-101600000D02*
X61924400Y-102854000D01*
X61924400Y-102854000D02*
X61924400Y-118957800D01*
X61924400Y-118957800D02*
X45069100Y-135813100D01*
X45069100Y-135813100D02*
X43911100Y-135813100D01*
X43911100Y-135813100D02*
X43085300Y-134987300D01*
X43085300Y-134987300D02*
X43085300Y-134620000D01*
X41910000Y-134620000D02*
X43085300Y-134620000D01*
X78390900Y-142222800D02*
X78390900Y-148375800D01*
X78390900Y-148375800D02*
X81374700Y-151359600D01*
X81374700Y-151359600D02*
X81374700Y-183436800D01*
X81374700Y-183436800D02*
X82182600Y-184244700D01*
X82182600Y-184244700D02*
X82550000Y-184244700D01*
X82550000Y-185420000D02*
X82550000Y-184244700D01*
X45625300Y-134620000D02*
X61474100Y-118771200D01*
X61474100Y-118771200D02*
X61474100Y-102497200D01*
X61474100Y-102497200D02*
X62374700Y-101596600D01*
X62374700Y-101596600D02*
X62374700Y-82042700D01*
X62374700Y-82042700D02*
X63137400Y-81280000D01*
X63137400Y-81280000D02*
X63828400Y-81280000D01*
X63828400Y-81280000D02*
X64626400Y-80482000D01*
X64626400Y-80482000D02*
X64626400Y-74464000D01*
X64626400Y-74464000D02*
X63822400Y-73660000D01*
X63822400Y-73660000D02*
X63163200Y-73660000D01*
X63163200Y-73660000D02*
X62327700Y-72824500D01*
X62327700Y-72824500D02*
X62327700Y-71866300D01*
X62327700Y-71866300D02*
X63218700Y-70975300D01*
X63218700Y-70975300D02*
X63500000Y-70975300D01*
X44450000Y-134620000D02*
X45625300Y-134620000D01*
X63500000Y-69850000D02*
X63500000Y-70975300D01*
X41910000Y-137160000D02*
X41910000Y-135984700D01*
X41910000Y-135984700D02*
X41542700Y-135984700D01*
X41542700Y-135984700D02*
X40277900Y-134719900D01*
X40277900Y-134719900D02*
X40277900Y-93985200D01*
X40277900Y-93985200D02*
X55523100Y-78740000D01*
X55523100Y-78740000D02*
X56264300Y-78740000D01*
X56264300Y-78740000D02*
X57005400Y-77998900D01*
X57005400Y-77998900D02*
X57005400Y-73804600D01*
X57005400Y-73804600D02*
X63500000Y-67310000D01*
X44450000Y-137160000D02*
X45625300Y-137160000D01*
X45625300Y-137160000D02*
X45625300Y-136521600D01*
X45625300Y-136521600D02*
X48207200Y-133939700D01*
X63500000Y-62230000D02*
X63500000Y-63355300D01*
X41910000Y-139700000D02*
X41910000Y-138524700D01*
X41910000Y-138524700D02*
X41542700Y-138524700D01*
X41542700Y-138524700D02*
X39819500Y-136801500D01*
X39819500Y-136801500D02*
X39819500Y-89365000D01*
X39819500Y-89365000D02*
X54557700Y-74626800D01*
X54557700Y-74626800D02*
X54557700Y-72109100D01*
X54557700Y-72109100D02*
X55546800Y-71120000D01*
X55546800Y-71120000D02*
X56208400Y-71120000D01*
X56208400Y-71120000D02*
X62374700Y-64953700D01*
X62374700Y-64953700D02*
X62374700Y-64199200D01*
X62374700Y-64199200D02*
X63218600Y-63355300D01*
X63218600Y-63355300D02*
X63500000Y-63355300D01*
X63500000Y-59690000D02*
X63500000Y-60815300D01*
X63500000Y-60815300D02*
X63218600Y-60815300D01*
X63218600Y-60815300D02*
X62374700Y-61659200D01*
X62374700Y-61659200D02*
X62374700Y-62445400D01*
X62374700Y-62445400D02*
X56095500Y-68724600D01*
X56095500Y-68724600D02*
X55412300Y-68724600D01*
X55412300Y-68724600D02*
X53225200Y-70911700D01*
X53225200Y-70911700D02*
X53225200Y-75322400D01*
X53225200Y-75322400D02*
X39313500Y-89234100D01*
X39313500Y-89234100D02*
X39313500Y-138806500D01*
X39313500Y-138806500D02*
X41435400Y-140928400D01*
X41435400Y-140928400D02*
X42413600Y-140928400D01*
X42413600Y-140928400D02*
X43274700Y-140067300D01*
X43274700Y-140067300D02*
X43274700Y-139700000D01*
X63500000Y-59690000D02*
X63500000Y-58564700D01*
X63500000Y-58564700D02*
X64203300Y-58564700D01*
X64203300Y-58564700D02*
X66040000Y-56728000D01*
X66040000Y-56728000D02*
X66040000Y-38100000D01*
X44450000Y-139700000D02*
X43274700Y-139700000D01*
X86360000Y-30480000D02*
X86360000Y-31655300D01*
X93980000Y-137160000D02*
X93980000Y-136034700D01*
X93980000Y-136034700D02*
X93698700Y-136034700D01*
X93698700Y-136034700D02*
X92394300Y-134730300D01*
X92394300Y-134730300D02*
X92394300Y-68962800D01*
X92394300Y-68962800D02*
X89273800Y-65842300D01*
X89273800Y-65842300D02*
X89273800Y-34569100D01*
X89273800Y-34569100D02*
X86360000Y-31655300D01*
X88900000Y-30480000D02*
X88900000Y-31655300D01*
X89999100Y-65541900D02*
X89999100Y-32754400D01*
X89999100Y-32754400D02*
X88900000Y-31655300D01*
X91432900Y-204114300D02*
X91372300Y-204053700D01*
X91372300Y-204053700D02*
X91372300Y-199721000D01*
X91372300Y-199721000D02*
X91372200Y-199721000D01*
X91372200Y-199721000D02*
X90883400Y-199232200D01*
X90883400Y-199232200D02*
X90883400Y-198631400D01*
X90883400Y-198631400D02*
X91372300Y-198142500D01*
X91372300Y-198142500D02*
X91372300Y-182087200D01*
X91372300Y-182087200D02*
X90553500Y-181268400D01*
X90553500Y-181268400D02*
X90553500Y-77529900D01*
X90553500Y-77529900D02*
X86682800Y-73659200D01*
X86682800Y-73659200D02*
X85966800Y-73659200D01*
X85966800Y-73659200D02*
X85234700Y-72927100D01*
X85234700Y-72927100D02*
X85234700Y-71819200D01*
X85234700Y-71819200D02*
X86078600Y-70975300D01*
X86078600Y-70975300D02*
X86360000Y-70975300D01*
X86360000Y-69850000D02*
X86360000Y-70975300D01*
X91648000Y-181298000D02*
X91003800Y-180653800D01*
X91003800Y-180653800D02*
X91003800Y-71717300D01*
X91003800Y-71717300D02*
X88788400Y-69501900D01*
X88788400Y-69501900D02*
X88788400Y-68119200D01*
X88788400Y-68119200D02*
X86564500Y-65895300D01*
X86564500Y-65895300D02*
X86360000Y-65895300D01*
X91608700Y-198931800D02*
X91874000Y-198666500D01*
X91874000Y-198666500D02*
X91874000Y-181524000D01*
X91874000Y-181524000D02*
X91648000Y-181298000D01*
X86360000Y-64770000D02*
X86360000Y-65895300D01*
X83820000Y-30480000D02*
X83820000Y-31655300D01*
X83820000Y-31655300D02*
X83820000Y-56306000D01*
X83820000Y-56306000D02*
X79021300Y-61104700D01*
X79021300Y-61104700D02*
X78740000Y-61104700D01*
X78740000Y-62230000D02*
X78740000Y-61104700D01*
X78740000Y-64770000D02*
X78740000Y-62230000D01*
X101600000Y-96375300D02*
X101810600Y-96375300D01*
X101810600Y-96375300D02*
X103194300Y-97759000D01*
X103194300Y-97759000D02*
X103194300Y-107095400D01*
X103194300Y-107095400D02*
X98579200Y-111710500D01*
X98579200Y-111710500D02*
X98579200Y-114640600D01*
X98579200Y-114640600D02*
X97840600Y-115379200D01*
X101600000Y-95250000D02*
X101600000Y-96375300D01*
X63500000Y-119380000D02*
X63500000Y-120505300D01*
X55880000Y-208280000D02*
X55880000Y-207104700D01*
X55880000Y-207104700D02*
X55512700Y-207104700D01*
X55512700Y-207104700D02*
X54687000Y-206279000D01*
X54687000Y-206279000D02*
X54687000Y-129037000D01*
X54687000Y-129037000D02*
X63218700Y-120505300D01*
X63218700Y-120505300D02*
X63500000Y-120505300D01*
X101600000Y-97790000D02*
X101600000Y-98915300D01*
X97292100Y-112105700D02*
X102725300Y-106672500D01*
X102725300Y-106672500D02*
X102725300Y-99759200D01*
X102725300Y-99759200D02*
X101881400Y-98915300D01*
X101881400Y-98915300D02*
X101600000Y-98915300D01*
X84233500Y-119942600D02*
X84415200Y-119760900D01*
X84415200Y-119760900D02*
X84415200Y-115201900D01*
X84415200Y-115201900D02*
X84894900Y-114722200D01*
X55880000Y-205740000D02*
X55880000Y-130461000D01*
X55880000Y-130461000D02*
X63295700Y-123045300D01*
X63295700Y-123045300D02*
X63500000Y-123045300D01*
X63500000Y-121920000D02*
X63500000Y-123045300D01*
X124460000Y-107805300D02*
X124178700Y-107805300D01*
X124178700Y-107805300D02*
X122160600Y-109823400D01*
X122160600Y-109823400D02*
X122160600Y-126263300D01*
X122160600Y-126263300D02*
X108282900Y-140141000D01*
X108282900Y-140141000D02*
X108282900Y-143681900D01*
X57367500Y-143680600D02*
X57367500Y-131436500D01*
X57367500Y-131436500D02*
X63218700Y-125585300D01*
X63218700Y-125585300D02*
X63500000Y-125585300D01*
X58420000Y-207104700D02*
X58052700Y-207104700D01*
X58052700Y-207104700D02*
X57215300Y-206267300D01*
X57215300Y-206267300D02*
X57215300Y-143832800D01*
X57215300Y-143832800D02*
X57367500Y-143680600D01*
X124460000Y-106680000D02*
X124460000Y-107805300D01*
X63500000Y-124460000D02*
X63500000Y-125585300D01*
X58420000Y-208280000D02*
X58420000Y-207104700D01*
X108094700Y-104140000D02*
X106118200Y-102163500D01*
X106118200Y-102163500D02*
X106118100Y-102163500D01*
X106118100Y-102163500D02*
X106118100Y-95400500D01*
X106118100Y-95400500D02*
X104217300Y-93499700D01*
X104217300Y-93499700D02*
X104217300Y-85046700D01*
X104217300Y-85046700D02*
X104768900Y-84495100D01*
X104768900Y-84495100D02*
X104768900Y-64985000D01*
X104768900Y-64985000D02*
X108938600Y-60815300D01*
X108938600Y-60815300D02*
X109220000Y-60815300D01*
X88239200Y-123717900D02*
X87824900Y-123303600D01*
X87824900Y-123303600D02*
X87824900Y-107977100D01*
X87824900Y-107977100D02*
X89202600Y-106599400D01*
X89202600Y-106599400D02*
X89202600Y-96016800D01*
X89202600Y-96016800D02*
X88913500Y-95727700D01*
X109220000Y-104140000D02*
X108094700Y-104140000D01*
X109220000Y-59690000D02*
X109220000Y-60815300D01*
X63500000Y-127000000D02*
X63500000Y-128125300D01*
X58420000Y-205740000D02*
X58420000Y-133001000D01*
X58420000Y-133001000D02*
X63295700Y-128125300D01*
X63295700Y-128125300D02*
X63500000Y-128125300D01*
X124460000Y-69850000D02*
X124460000Y-70975300D01*
X124460000Y-114300000D02*
X124460000Y-113174700D01*
X124460000Y-113174700D02*
X124741300Y-113174700D01*
X124741300Y-113174700D02*
X126076900Y-111839100D01*
X126076900Y-111839100D02*
X126076900Y-87653800D01*
X126076900Y-87653800D02*
X124783100Y-86360000D01*
X124783100Y-86360000D02*
X124066800Y-86360000D01*
X124066800Y-86360000D02*
X122834900Y-85128100D01*
X122834900Y-85128100D02*
X122834900Y-72319100D01*
X122834900Y-72319100D02*
X124178700Y-70975300D01*
X124178700Y-70975300D02*
X124460000Y-70975300D01*
X86360000Y-105410000D02*
X86360000Y-106535300D01*
X83305400Y-131863100D02*
X83305400Y-122090100D01*
X83305400Y-122090100D02*
X82999800Y-121784500D01*
X82999800Y-121784500D02*
X82999800Y-118014300D01*
X82999800Y-118014300D02*
X83459200Y-117554900D01*
X83459200Y-117554900D02*
X83459200Y-110842500D01*
X83459200Y-110842500D02*
X86360000Y-107941700D01*
X86360000Y-107941700D02*
X86360000Y-106535300D01*
X63500000Y-129540000D02*
X63500000Y-130665300D01*
X60960000Y-208280000D02*
X60960000Y-207104700D01*
X60960000Y-207104700D02*
X60592700Y-207104700D01*
X60592700Y-207104700D02*
X59755300Y-206267300D01*
X59755300Y-206267300D02*
X59755300Y-134128700D01*
X59755300Y-134128700D02*
X63218700Y-130665300D01*
X63218700Y-130665300D02*
X63500000Y-130665300D01*
X67758700Y-129065500D02*
X67758700Y-118038200D01*
X67758700Y-118038200D02*
X72939800Y-112857100D01*
X72939800Y-112857100D02*
X72939800Y-103396300D01*
X124460000Y-118254700D02*
X124741300Y-118254700D01*
X124741300Y-118254700D02*
X127031900Y-115964100D01*
X127031900Y-115964100D02*
X127031900Y-78427600D01*
X127031900Y-78427600D02*
X124659600Y-76055300D01*
X124659600Y-76055300D02*
X124460000Y-76055300D01*
X124460000Y-74930000D02*
X124460000Y-76055300D01*
X124460000Y-119380000D02*
X124460000Y-118254700D01*
X60960000Y-205740000D02*
X60960000Y-135541000D01*
X60960000Y-135541000D02*
X63295700Y-133205300D01*
X63295700Y-133205300D02*
X63500000Y-133205300D01*
X63500000Y-132080000D02*
X63500000Y-133205300D01*
X86360000Y-101455300D02*
X86078700Y-101455300D01*
X86078700Y-101455300D02*
X83128500Y-104405500D01*
X83128500Y-104405500D02*
X83128500Y-110536300D01*
X83128500Y-110536300D02*
X82830900Y-110833900D01*
X82830900Y-110833900D02*
X82830900Y-117453300D01*
X82830900Y-117453300D02*
X82521400Y-117762800D01*
X82521400Y-117762800D02*
X82521400Y-122100200D01*
X82521400Y-122100200D02*
X82605800Y-122184600D01*
X82605800Y-122184600D02*
X82605800Y-131537000D01*
X82605800Y-131537000D02*
X82288100Y-131854700D01*
X82288100Y-131854700D02*
X82288100Y-133327900D01*
X124460000Y-68435300D02*
X124178700Y-68435300D01*
X124178700Y-68435300D02*
X117655900Y-74958100D01*
X117655900Y-74958100D02*
X117655900Y-110368200D01*
X86360000Y-100330000D02*
X86360000Y-101455300D01*
X124460000Y-67310000D02*
X124460000Y-68435300D01*
X63500000Y-134620000D02*
X63500000Y-135745300D01*
X63500000Y-208280000D02*
X63500000Y-207104700D01*
X63500000Y-207104700D02*
X63132700Y-207104700D01*
X63132700Y-207104700D02*
X62321200Y-206293200D01*
X62321200Y-206293200D02*
X62321200Y-136642800D01*
X62321200Y-136642800D02*
X63218700Y-135745300D01*
X63218700Y-135745300D02*
X63500000Y-135745300D01*
X124460000Y-65895300D02*
X124741300Y-65895300D01*
X124741300Y-65895300D02*
X129277300Y-70431300D01*
X129277300Y-70431300D02*
X129277300Y-108412800D01*
X86360000Y-98915300D02*
X86078700Y-98915300D01*
X86078700Y-98915300D02*
X82678200Y-102315800D01*
X82678200Y-102315800D02*
X82678200Y-110240400D01*
X82678200Y-110240400D02*
X82380600Y-110538000D01*
X82380600Y-110538000D02*
X82380600Y-117266700D01*
X82380600Y-117266700D02*
X82071100Y-117576200D01*
X82071100Y-117576200D02*
X82071100Y-122286800D01*
X82071100Y-122286800D02*
X82155500Y-122371200D01*
X82155500Y-122371200D02*
X82155500Y-131337000D01*
X82155500Y-131337000D02*
X81492400Y-132000100D01*
X81492400Y-132000100D02*
X81492400Y-136034700D01*
X124460000Y-64770000D02*
X124460000Y-65895300D01*
X86360000Y-97790000D02*
X86360000Y-98915300D01*
X63500000Y-138285300D02*
X63781300Y-138285300D01*
X63781300Y-138285300D02*
X66011400Y-140515400D01*
X66011400Y-140515400D02*
X66011400Y-173211100D01*
X66011400Y-173211100D02*
X63500000Y-175722500D01*
X63500000Y-175722500D02*
X63500000Y-204564700D01*
X63500000Y-205740000D02*
X63500000Y-204564700D01*
X63500000Y-137160000D02*
X63500000Y-138285300D01*
X109220000Y-105554700D02*
X109501400Y-105554700D01*
X109501400Y-105554700D02*
X110345300Y-104710800D01*
X110345300Y-104710800D02*
X110345300Y-103670400D01*
X110345300Y-103670400D02*
X109400300Y-102725400D01*
X109400300Y-102725400D02*
X108257800Y-102725400D01*
X108257800Y-102725400D02*
X106568400Y-101036000D01*
X106568400Y-101036000D02*
X106568400Y-95213800D01*
X106568400Y-95213800D02*
X104667600Y-93313000D01*
X104667600Y-93313000D02*
X104667600Y-85233300D01*
X104667600Y-85233300D02*
X105219200Y-84681700D01*
X105219200Y-84681700D02*
X105219200Y-67166400D01*
X105219200Y-67166400D02*
X109030300Y-63355300D01*
X109030300Y-63355300D02*
X109220000Y-63355300D01*
X118833700Y-106376900D02*
X118833700Y-127603600D01*
X118833700Y-127603600D02*
X105821600Y-140615700D01*
X105821600Y-140615700D02*
X105821600Y-144774300D01*
X105821600Y-144774300D02*
X104673100Y-145922800D01*
X104673100Y-145922800D02*
X104673100Y-200305700D01*
X104673100Y-200305700D02*
X100414200Y-204564600D01*
X100414200Y-204564600D02*
X100414200Y-208652500D01*
X100414200Y-208652500D02*
X98227000Y-210839700D01*
X98227000Y-210839700D02*
X78000000Y-210839700D01*
X109220000Y-106680000D02*
X109220000Y-105554700D01*
X109220000Y-62230000D02*
X109220000Y-63355300D01*
X68520800Y-161574100D02*
X68574100Y-161520800D01*
X68574100Y-161520800D02*
X68574100Y-122839600D01*
X68574100Y-122839600D02*
X70763700Y-120650000D01*
X70763700Y-120650000D02*
X71506700Y-120650000D01*
X71506700Y-120650000D02*
X74545600Y-117611100D01*
X74545600Y-117611100D02*
X74545600Y-101532700D01*
X74545600Y-101532700D02*
X76640200Y-99438100D01*
X109220000Y-108094700D02*
X109501400Y-108094700D01*
X109501400Y-108094700D02*
X110795600Y-106800500D01*
X110795600Y-106800500D02*
X110795600Y-102530800D01*
X110795600Y-102530800D02*
X110345300Y-102080500D01*
X110345300Y-102080500D02*
X110345300Y-98353800D01*
X110345300Y-98353800D02*
X105117900Y-93126400D01*
X105117900Y-93126400D02*
X105117900Y-85941600D01*
X105117900Y-85941600D02*
X105669500Y-85390000D01*
X105669500Y-85390000D02*
X105669500Y-69164400D01*
X105669500Y-69164400D02*
X108938600Y-65895300D01*
X108938600Y-65895300D02*
X109220000Y-65895300D01*
X66040000Y-205740000D02*
X66040000Y-200460300D01*
X66040000Y-200460300D02*
X68520800Y-197979500D01*
X68520800Y-197979500D02*
X68520800Y-161574100D01*
X109220000Y-109220000D02*
X109220000Y-108094700D01*
X109220000Y-64770000D02*
X109220000Y-65895300D01*
X67848800Y-153239000D02*
X67018300Y-152408500D01*
X67018300Y-152408500D02*
X67018300Y-116751200D01*
X67018300Y-116751200D02*
X70978200Y-112791300D01*
X70978200Y-112791300D02*
X70978200Y-98885600D01*
X70978200Y-98885600D02*
X75941000Y-93922800D01*
X71120000Y-157480000D02*
X71120000Y-158605300D01*
X68580000Y-208280000D02*
X68580000Y-207104700D01*
X68580000Y-207104700D02*
X68212700Y-207104700D01*
X68212700Y-207104700D02*
X67394300Y-206286300D01*
X67394300Y-206286300D02*
X67394300Y-199742900D01*
X67394300Y-199742900D02*
X76135500Y-191001700D01*
X76135500Y-191001700D02*
X76135500Y-163339500D01*
X76135500Y-163339500D02*
X71401300Y-158605300D01*
X71401300Y-158605300D02*
X71120000Y-158605300D01*
X105843200Y-92826000D02*
X105843200Y-85853200D01*
X105843200Y-85853200D02*
X106119800Y-85576600D01*
X106119800Y-85576600D02*
X106119800Y-71254200D01*
X106119800Y-71254200D02*
X108938700Y-68435300D01*
X108938700Y-68435300D02*
X109220000Y-68435300D01*
X109220000Y-110634700D02*
X109501400Y-110634700D01*
X109501400Y-110634700D02*
X111245900Y-108890200D01*
X111245900Y-108890200D02*
X111245900Y-102344100D01*
X111245900Y-102344100D02*
X110843000Y-101941200D01*
X110843000Y-101941200D02*
X110843000Y-97825800D01*
X110843000Y-97825800D02*
X105843200Y-92826000D01*
X109220000Y-111760000D02*
X109220000Y-110634700D01*
X109220000Y-67310000D02*
X109220000Y-68435300D01*
X83025600Y-150238900D02*
X83025600Y-141780800D01*
X83025600Y-141780800D02*
X84061100Y-140745300D01*
X84061100Y-140745300D02*
X84061100Y-121601100D01*
X84061100Y-121601100D02*
X83506200Y-121046200D01*
X83506200Y-121046200D02*
X83506200Y-119555200D01*
X83506200Y-119555200D02*
X83956800Y-119104600D01*
X83956800Y-119104600D02*
X83956800Y-110981800D01*
X83956800Y-110981800D02*
X87485300Y-107453300D01*
X87485300Y-107453300D02*
X87485300Y-106298900D01*
X87485300Y-106298900D02*
X87485300Y-89599200D01*
X87485300Y-89599200D02*
X86641400Y-88755300D01*
X86641400Y-88755300D02*
X86360000Y-88755300D01*
X88477300Y-106298900D02*
X87485300Y-106298900D01*
X86360000Y-87630000D02*
X86360000Y-88755300D01*
X109220000Y-113174700D02*
X109501300Y-113174700D01*
X109501300Y-113174700D02*
X111696200Y-110979800D01*
X111696200Y-110979800D02*
X111696200Y-102157500D01*
X111696200Y-102157500D02*
X111293400Y-101754700D01*
X111293400Y-101754700D02*
X111293400Y-97250200D01*
X111293400Y-97250200D02*
X106293500Y-92250300D01*
X106293500Y-92250300D02*
X106293500Y-86039800D01*
X106293500Y-86039800D02*
X106570100Y-85763200D01*
X106570100Y-85763200D02*
X106570100Y-73343800D01*
X106570100Y-73343800D02*
X108938600Y-70975300D01*
X108938600Y-70975300D02*
X109220000Y-70975300D01*
X71120000Y-154940000D02*
X71120000Y-156065300D01*
X68580000Y-205740000D02*
X68580000Y-204564700D01*
X68580000Y-204564700D02*
X76585900Y-196558800D01*
X76585900Y-196558800D02*
X76585900Y-161249900D01*
X76585900Y-161249900D02*
X71401300Y-156065300D01*
X71401300Y-156065300D02*
X71120000Y-156065300D01*
X109220000Y-69850000D02*
X109220000Y-70975300D01*
X109220000Y-114300000D02*
X109220000Y-113174700D01*
X88553300Y-113707200D02*
X89652900Y-112607600D01*
X89652900Y-112607600D02*
X89652900Y-89226800D01*
X89652900Y-89226800D02*
X86641400Y-86215300D01*
X86641400Y-86215300D02*
X86360000Y-86215300D01*
X88385900Y-188843700D02*
X88470300Y-188759300D01*
X88470300Y-188759300D02*
X88470300Y-150341000D01*
X88470300Y-150341000D02*
X88222500Y-150093200D01*
X88222500Y-150093200D02*
X88222500Y-126287100D01*
X88222500Y-126287100D02*
X89238300Y-125271300D01*
X89238300Y-125271300D02*
X89238300Y-114957800D01*
X89238300Y-114957800D02*
X88553300Y-114272800D01*
X88553300Y-114272800D02*
X88553300Y-113707200D01*
X109220000Y-115714700D02*
X109501300Y-115714700D01*
X109501300Y-115714700D02*
X112146500Y-113069500D01*
X112146500Y-113069500D02*
X112146500Y-101970900D01*
X112146500Y-101970900D02*
X111743700Y-101568100D01*
X111743700Y-101568100D02*
X111743700Y-96875400D01*
X111743700Y-96875400D02*
X106743800Y-91875500D01*
X106743800Y-91875500D02*
X106743800Y-86226400D01*
X106743800Y-86226400D02*
X107020400Y-85949800D01*
X107020400Y-85949800D02*
X107020400Y-75433600D01*
X107020400Y-75433600D02*
X108938700Y-73515300D01*
X108938700Y-73515300D02*
X109220000Y-73515300D01*
X109220000Y-72390000D02*
X109220000Y-73515300D01*
X109220000Y-116840000D02*
X109220000Y-115714700D01*
X86360000Y-85090000D02*
X86360000Y-86215300D01*
X93980000Y-166225300D02*
X93698600Y-166225300D01*
X93698600Y-166225300D02*
X92854700Y-167069200D01*
X92854700Y-167069200D02*
X92854700Y-191300300D01*
X92854700Y-191300300D02*
X93133600Y-191579200D01*
X40640000Y-64770000D02*
X40640000Y-65895300D01*
X76200000Y-208280000D02*
X74493300Y-209986700D01*
X74493300Y-209986700D02*
X55905300Y-209986700D01*
X55905300Y-209986700D02*
X38738500Y-192819900D01*
X38738500Y-192819900D02*
X38738500Y-67515500D01*
X38738500Y-67515500D02*
X40358700Y-65895300D01*
X40358700Y-65895300D02*
X40640000Y-65895300D01*
X93980000Y-165100000D02*
X93980000Y-166225300D01*
X40640000Y-62230000D02*
X40640000Y-64770000D01*
X135890000Y-203444700D02*
X134859900Y-202414600D01*
X134859900Y-202414600D02*
X134859900Y-176450900D01*
X134859900Y-176450900D02*
X136920200Y-174390600D01*
X136920200Y-174390600D02*
X136920200Y-146631400D01*
X136920200Y-146631400D02*
X128552000Y-138263200D01*
X128552000Y-138263200D02*
X128552000Y-76479900D01*
X128552000Y-76479900D02*
X125732100Y-73660000D01*
X135890000Y-204470000D02*
X135890000Y-203444700D01*
X115042300Y-139052300D02*
X115042300Y-138655200D01*
X115042300Y-138655200D02*
X120446600Y-133250900D01*
X120446600Y-133250900D02*
X124884100Y-133250900D01*
X124884100Y-133250900D02*
X127510800Y-130624200D01*
X127510800Y-130624200D02*
X127510800Y-77858100D01*
X127510800Y-77858100D02*
X125671400Y-76018700D01*
X115042300Y-139052300D02*
X115042300Y-139152700D01*
X115042300Y-139152700D02*
X118568100Y-142678500D01*
X118568100Y-142678500D02*
X118668500Y-142678500D01*
X118668500Y-142678500D02*
X125812900Y-149822900D01*
X125812900Y-149822900D02*
X125812900Y-158588300D01*
X125812900Y-158588300D02*
X129659200Y-162434600D01*
X129659200Y-162434600D02*
X129659200Y-203563900D01*
X129659200Y-203563900D02*
X135890000Y-209794700D01*
X135890000Y-210820000D02*
X135890000Y-209794700D01*
X81952900Y-109939900D02*
X81930300Y-109962500D01*
X81930300Y-109962500D02*
X81930300Y-117080100D01*
X81930300Y-117080100D02*
X81620800Y-117389600D01*
X81620800Y-117389600D02*
X81620800Y-122473400D01*
X81620800Y-122473400D02*
X81705200Y-122557800D01*
X81705200Y-122557800D02*
X81705200Y-130771700D01*
X81705200Y-130771700D02*
X79126900Y-133350000D01*
X79126900Y-133350000D02*
X78365300Y-133350000D01*
X78365300Y-133350000D02*
X77610500Y-134104800D01*
X77610500Y-134104800D02*
X77610500Y-150145200D01*
X77610500Y-150145200D02*
X78740000Y-151274700D01*
X93754000Y-111748100D02*
X93754000Y-80095000D01*
X93754000Y-80095000D02*
X99212600Y-74636400D01*
X78740000Y-152400000D02*
X78740000Y-151274700D01*
X88900000Y-204564700D02*
X80100000Y-195764700D01*
X80100000Y-195764700D02*
X80100000Y-167365000D01*
X80100000Y-167365000D02*
X79105000Y-166370000D01*
X79105000Y-166370000D02*
X78359700Y-166370000D01*
X78359700Y-166370000D02*
X77614600Y-165624900D01*
X77614600Y-165624900D02*
X77614600Y-159536600D01*
X77614600Y-159536600D02*
X78401200Y-158750000D01*
X78401200Y-158750000D02*
X79133400Y-158750000D01*
X79133400Y-158750000D02*
X79865800Y-158017600D01*
X79865800Y-158017600D02*
X79865800Y-153525800D01*
X79865800Y-153525800D02*
X78740000Y-152400000D01*
X55880000Y-85090000D02*
X55880000Y-86215300D01*
X55880000Y-86215300D02*
X60723000Y-91058300D01*
X60723000Y-91058300D02*
X60723000Y-94816100D01*
X60723000Y-94816100D02*
X59703700Y-95835400D01*
X59703700Y-95835400D02*
X59703700Y-107697500D01*
X88900000Y-205740000D02*
X88900000Y-204564700D01*
X78740000Y-95250000D02*
X78740000Y-96375300D01*
X78740000Y-154940000D02*
X78740000Y-153814700D01*
X78740000Y-153814700D02*
X78036700Y-153814700D01*
X78036700Y-153814700D02*
X74496200Y-150274200D01*
X74496200Y-150274200D02*
X74496200Y-133862500D01*
X74496200Y-133862500D02*
X71443700Y-130810000D01*
X71443700Y-130810000D02*
X70719100Y-130810000D01*
X70719100Y-130810000D02*
X69937300Y-130028200D01*
X69937300Y-130028200D02*
X69937300Y-126589200D01*
X69937300Y-126589200D02*
X70796500Y-125730000D01*
X70796500Y-125730000D02*
X71450500Y-125730000D01*
X71450500Y-125730000D02*
X76450600Y-120729900D01*
X76450600Y-120729900D02*
X76450600Y-109990400D01*
X76450600Y-109990400D02*
X80362100Y-106078900D01*
X80362100Y-106078900D02*
X80362100Y-97716100D01*
X80362100Y-97716100D02*
X79021300Y-96375300D01*
X79021300Y-96375300D02*
X78740000Y-96375300D01*
X77083100Y-72470400D02*
X70160000Y-79393500D01*
X70160000Y-79393500D02*
X70160000Y-86504600D01*
X78740000Y-161145300D02*
X78944500Y-161145300D01*
X78944500Y-161145300D02*
X80550400Y-162751200D01*
X80550400Y-162751200D02*
X80550400Y-189603000D01*
X80550400Y-189603000D02*
X90264700Y-199317300D01*
X90264700Y-199317300D02*
X90264700Y-206296800D01*
X90264700Y-206296800D02*
X91072600Y-207104700D01*
X91072600Y-207104700D02*
X91440000Y-207104700D01*
X58472600Y-83838600D02*
X60730700Y-86096700D01*
X60730700Y-86096700D02*
X60730700Y-87611200D01*
X60730700Y-87611200D02*
X60730800Y-87611200D01*
X78740000Y-160020000D02*
X78740000Y-161145300D01*
X91440000Y-208280000D02*
X91440000Y-207104700D01*
X86360000Y-63355300D02*
X86550700Y-63355300D01*
X86550700Y-63355300D02*
X88823500Y-65628100D01*
X88823500Y-65628100D02*
X88823500Y-66028900D01*
X88823500Y-66028900D02*
X89463800Y-66669200D01*
X89463800Y-66669200D02*
X89463800Y-69306800D01*
X89463800Y-69306800D02*
X91454100Y-71297100D01*
X91454100Y-71297100D02*
X91454100Y-147266200D01*
X91454100Y-147266200D02*
X92404300Y-148216400D01*
X92404300Y-148216400D02*
X92404300Y-204775700D01*
X92404300Y-204775700D02*
X91440000Y-205740000D01*
X86360000Y-62230000D02*
X86360000Y-63355300D01*
X90784600Y-69237000D02*
X91904400Y-70356800D01*
X91904400Y-70356800D02*
X91904400Y-147079600D01*
X91904400Y-147079600D02*
X95105400Y-150280600D01*
X95105400Y-150280600D02*
X95105400Y-169276100D01*
X95105400Y-169276100D02*
X93856300Y-170525200D01*
X93856300Y-170525200D02*
X93856300Y-191194700D01*
X93856300Y-191194700D02*
X93898700Y-191237100D01*
X93898700Y-191237100D02*
X93898700Y-204159000D01*
X93898700Y-204159000D02*
X92799800Y-205257900D01*
X92799800Y-205257900D02*
X92799800Y-206291800D01*
X92799800Y-206291800D02*
X93612700Y-207104700D01*
X93612700Y-207104700D02*
X93980000Y-207104700D01*
X93980000Y-208280000D02*
X93980000Y-207104700D01*
X63500000Y-117965300D02*
X63676900Y-117965300D01*
X63676900Y-117965300D02*
X66512500Y-120800900D01*
X66512500Y-120800900D02*
X66512500Y-173451100D01*
X66512500Y-173451100D02*
X64854200Y-175109400D01*
X64854200Y-175109400D02*
X64854200Y-208775300D01*
X64854200Y-208775300D02*
X65564300Y-209485400D01*
X65564300Y-209485400D02*
X74224700Y-209485400D01*
X74224700Y-209485400D02*
X74930000Y-208780100D01*
X74930000Y-208780100D02*
X74930000Y-207849000D01*
X74930000Y-207849000D02*
X75674400Y-207104600D01*
X75674400Y-207104600D02*
X76725600Y-207104600D01*
X76725600Y-207104600D02*
X77375400Y-207754400D01*
X77375400Y-207754400D02*
X77375400Y-208650700D01*
X77375400Y-208650700D02*
X78222900Y-209498200D01*
X78222900Y-209498200D02*
X94443100Y-209498200D01*
X94443100Y-209498200D02*
X95188100Y-208753200D01*
X95188100Y-208753200D02*
X95188100Y-206948100D01*
X95188100Y-206948100D02*
X93980000Y-205740000D01*
X63500000Y-116840000D02*
X63500000Y-117965300D01*
X63500000Y-115714700D02*
X62374700Y-114589400D01*
X62374700Y-114589400D02*
X62374700Y-104889400D01*
X62374700Y-104889400D02*
X63124100Y-104140000D01*
X63124100Y-104140000D02*
X63873700Y-104140000D01*
X63873700Y-104140000D02*
X66006600Y-102007100D01*
X66006600Y-102007100D02*
X66006600Y-78392500D01*
X66006600Y-78392500D02*
X78215200Y-66183900D01*
X78215200Y-66183900D02*
X84108600Y-66183900D01*
X84108600Y-66183900D02*
X85234700Y-67310000D01*
X63500000Y-116840000D02*
X63500000Y-115714700D01*
X86360000Y-67310000D02*
X85234700Y-67310000D01*
X96520000Y-207104700D02*
X96217100Y-207104700D01*
X96217100Y-207104700D02*
X95306900Y-206194500D01*
X95306900Y-206194500D02*
X95306900Y-190593800D01*
X95306900Y-190593800D02*
X95264400Y-190551300D01*
X95264400Y-190551300D02*
X95264400Y-172384000D01*
X95264400Y-172384000D02*
X101423100Y-166225300D01*
X101423100Y-166225300D02*
X101600000Y-166225300D01*
X101600000Y-163974700D02*
X101318700Y-163974700D01*
X101318700Y-163974700D02*
X98191600Y-160847600D01*
X98191600Y-160847600D02*
X98191600Y-125860500D01*
X86360000Y-121920000D02*
X86360000Y-123045300D01*
X88458900Y-125024900D02*
X88458900Y-124967300D01*
X88458900Y-124967300D02*
X86536900Y-123045300D01*
X86536900Y-123045300D02*
X86360000Y-123045300D01*
X109220000Y-83675300D02*
X108938700Y-83675300D01*
X108938700Y-83675300D02*
X107921000Y-84693000D01*
X107921000Y-84693000D02*
X107921000Y-86323000D01*
X107921000Y-86323000D02*
X107644400Y-86599600D01*
X107644400Y-86599600D02*
X107644400Y-91429400D01*
X107644400Y-91429400D02*
X112644300Y-96429300D01*
X112644300Y-96429300D02*
X112644300Y-101194900D01*
X112644300Y-101194900D02*
X113047100Y-101597700D01*
X113047100Y-101597700D02*
X113047100Y-122328900D01*
X113047100Y-122328900D02*
X109501300Y-125874700D01*
X109501300Y-125874700D02*
X109220000Y-125874700D01*
X101600000Y-165100000D02*
X101600000Y-166225300D01*
X96520000Y-208280000D02*
X96520000Y-207104700D01*
X101600000Y-165100000D02*
X101600000Y-163974700D01*
X109220000Y-82550000D02*
X109220000Y-83675300D01*
X109220000Y-127000000D02*
X109220000Y-125874700D01*
X109220000Y-129540000D02*
X108094700Y-129540000D01*
X96520000Y-205740000D02*
X96520000Y-204564700D01*
X96520000Y-204564700D02*
X96769100Y-204315600D01*
X96769100Y-204315600D02*
X96769100Y-177326500D01*
X96769100Y-177326500D02*
X103183900Y-170911700D01*
X103183900Y-170911700D02*
X103183900Y-146032500D01*
X103183900Y-146032500D02*
X99975700Y-142824300D01*
X99975700Y-142824300D02*
X99975700Y-132075100D01*
X99975700Y-132075100D02*
X101240800Y-130810000D01*
X101240800Y-130810000D02*
X106824700Y-130810000D01*
X106824700Y-130810000D02*
X108094700Y-129540000D01*
X101600000Y-77470000D02*
X101600000Y-78595300D01*
X104001400Y-83308900D02*
X104001400Y-80715400D01*
X104001400Y-80715400D02*
X101881300Y-78595300D01*
X101881300Y-78595300D02*
X101600000Y-78595300D01*
X109220000Y-86215300D02*
X108938600Y-86215300D01*
X108938600Y-86215300D02*
X108094700Y-87059200D01*
X108094700Y-87059200D02*
X108094700Y-91115900D01*
X108094700Y-91115900D02*
X113094600Y-96115800D01*
X113094600Y-96115800D02*
X113094600Y-101008300D01*
X113094600Y-101008300D02*
X113497400Y-101411100D01*
X113497400Y-101411100D02*
X113497400Y-124328900D01*
X113497400Y-124328900D02*
X109411600Y-128414700D01*
X109411600Y-128414700D02*
X109220000Y-128414700D01*
X109220000Y-129540000D02*
X109220000Y-128414700D01*
X109220000Y-85090000D02*
X109220000Y-86215300D01*
X99060000Y-207104700D02*
X98692700Y-207104700D01*
X98692700Y-207104700D02*
X97866800Y-206278800D01*
X97866800Y-206278800D02*
X97866800Y-178343400D01*
X97866800Y-178343400D02*
X103634300Y-172575900D01*
X103634300Y-172575900D02*
X103634300Y-143856000D01*
X103634300Y-143856000D02*
X100469200Y-140690900D01*
X100469200Y-140690900D02*
X100469200Y-136631700D01*
X100469200Y-136631700D02*
X101210900Y-135890000D01*
X101210900Y-135890000D02*
X104284700Y-135890000D01*
X104284700Y-135890000D02*
X108094700Y-132080000D01*
X109220000Y-132080000D02*
X108094700Y-132080000D01*
X99060000Y-208280000D02*
X99060000Y-207104700D01*
X109220000Y-88755300D02*
X109476700Y-88755300D01*
X109476700Y-88755300D02*
X115515700Y-94794300D01*
X115515700Y-94794300D02*
X115515700Y-100470800D01*
X115515700Y-100470800D02*
X115429700Y-100556800D01*
X115429700Y-100556800D02*
X115429700Y-125870300D01*
X115429700Y-125870300D02*
X109220000Y-132080000D01*
X101600000Y-80010000D02*
X101600000Y-81135300D01*
X103462100Y-87155700D02*
X102725300Y-86418900D01*
X102725300Y-86418900D02*
X102725300Y-81979200D01*
X102725300Y-81979200D02*
X101881400Y-81135300D01*
X101881400Y-81135300D02*
X101600000Y-81135300D01*
X109220000Y-87630000D02*
X109220000Y-88755300D01*
X122763400Y-90741300D02*
X118244300Y-95260400D01*
X118244300Y-95260400D02*
X118244300Y-105940600D01*
X118244300Y-105940600D02*
X118108400Y-106076500D01*
X118108400Y-106076500D02*
X118108400Y-106677300D01*
X118108400Y-106677300D02*
X118382300Y-106951200D01*
X118382300Y-106951200D02*
X118382300Y-126781200D01*
X118382300Y-126781200D02*
X118032600Y-127130900D01*
X118032600Y-127130900D02*
X118032600Y-127767800D01*
X118032600Y-127767800D02*
X104118100Y-141682300D01*
X104118100Y-141682300D02*
X104118100Y-142000500D01*
X104118100Y-142000500D02*
X104118100Y-199506600D01*
X104118100Y-199506600D02*
X99060000Y-204564700D01*
X104118100Y-142000500D02*
X103959700Y-142000500D01*
X123334700Y-90170000D02*
X122763400Y-90741300D01*
X122763400Y-90741300D02*
X118482100Y-86460100D01*
X124460000Y-90170000D02*
X123334700Y-90170000D01*
X99060000Y-205740000D02*
X99060000Y-204564700D01*
X102775300Y-208280000D02*
X102775300Y-208647300D01*
X102775300Y-208647300D02*
X103622400Y-209494400D01*
X103622400Y-209494400D02*
X104596300Y-209494400D01*
X104596300Y-209494400D02*
X111007900Y-203082800D01*
X111007900Y-203082800D02*
X111007900Y-142144300D01*
X111007900Y-142144300D02*
X111121100Y-142031100D01*
X111121100Y-142031100D02*
X111121100Y-141217900D01*
X111121100Y-141217900D02*
X120259000Y-132080000D01*
X120259000Y-132080000D02*
X124460000Y-132080000D01*
X101600000Y-208280000D02*
X102775300Y-208280000D01*
X124460000Y-88755300D02*
X124741400Y-88755300D01*
X124741400Y-88755300D02*
X125591800Y-89605700D01*
X125591800Y-89605700D02*
X125591800Y-109758900D01*
X125591800Y-109758900D02*
X124860700Y-110490000D01*
X124860700Y-110490000D02*
X124135800Y-110490000D01*
X124135800Y-110490000D02*
X123306000Y-111319800D01*
X123306000Y-111319800D02*
X123306000Y-119880600D01*
X123306000Y-119880600D02*
X124075400Y-120650000D01*
X124075400Y-120650000D02*
X124816400Y-120650000D01*
X124816400Y-120650000D02*
X126041800Y-121875400D01*
X126041800Y-121875400D02*
X126041800Y-129654200D01*
X126041800Y-129654200D02*
X124741300Y-130954700D01*
X124741300Y-130954700D02*
X124460000Y-130954700D01*
X124460000Y-87630000D02*
X124460000Y-88755300D01*
X124460000Y-132080000D02*
X124460000Y-130954700D01*
X101600000Y-87630000D02*
X101600000Y-88755300D01*
X104966000Y-127136600D02*
X107121300Y-124981300D01*
X107121300Y-124981300D02*
X107121300Y-104843700D01*
X107121300Y-104843700D02*
X105667800Y-103390200D01*
X105667800Y-103390200D02*
X105667800Y-96008400D01*
X105667800Y-96008400D02*
X103766900Y-94107500D01*
X103766900Y-94107500D02*
X103766900Y-90640900D01*
X103766900Y-90640900D02*
X101881300Y-88755300D01*
X101881300Y-88755300D02*
X101600000Y-88755300D01*
X109283100Y-140880200D02*
X109283100Y-139843900D01*
X109283100Y-139843900D02*
X122945700Y-126181300D01*
X122945700Y-126181300D02*
X122945700Y-124277800D01*
X122945700Y-124277800D02*
X123931800Y-123291700D01*
X123931800Y-123291700D02*
X124921000Y-123291700D01*
X124921000Y-123291700D02*
X125585300Y-123956000D01*
X125585300Y-123956000D02*
X125585300Y-127570800D01*
X125585300Y-127570800D02*
X124741400Y-128414700D01*
X124741400Y-128414700D02*
X124460000Y-128414700D01*
X78740000Y-88755300D02*
X79021300Y-88755300D01*
X79021300Y-88755300D02*
X81730000Y-91464000D01*
X81730000Y-91464000D02*
X81730000Y-107522200D01*
X81730000Y-107522200D02*
X81178500Y-108073700D01*
X81178500Y-108073700D02*
X81178500Y-110378000D01*
X81178500Y-110378000D02*
X81253900Y-110453400D01*
X81253900Y-110453400D02*
X81253900Y-113584400D01*
X81253900Y-113584400D02*
X81169700Y-113668600D01*
X81169700Y-113668600D02*
X81169700Y-122659200D01*
X81169700Y-122659200D02*
X81254900Y-122744400D01*
X81254900Y-122744400D02*
X81254900Y-129240800D01*
X81254900Y-129240800D02*
X79541000Y-130954700D01*
X79541000Y-130954700D02*
X78740000Y-130954700D01*
X101600000Y-204564700D02*
X109283100Y-196881600D01*
X109283100Y-196881600D02*
X109283100Y-140880200D01*
X101600000Y-205740000D02*
X101600000Y-204564700D01*
X124460000Y-129540000D02*
X124460000Y-128414700D01*
X78740000Y-132080000D02*
X78740000Y-130954700D01*
X78740000Y-87630000D02*
X78740000Y-88755300D01*
X101600000Y-91295300D02*
X101881400Y-91295300D01*
X101881400Y-91295300D02*
X103316600Y-92730500D01*
X103316600Y-92730500D02*
X103316600Y-94519000D01*
X103316600Y-94519000D02*
X105217500Y-96419900D01*
X105217500Y-96419900D02*
X105217500Y-124586600D01*
X105217500Y-124586600D02*
X105056900Y-124747200D01*
X124460000Y-127000000D02*
X110570800Y-140889200D01*
X110570800Y-140889200D02*
X110570800Y-141555700D01*
X110570800Y-141555700D02*
X110282600Y-141843900D01*
X110282600Y-141843900D02*
X110282600Y-201770100D01*
X110282600Y-201770100D02*
X104948000Y-207104700D01*
X104948000Y-207104700D02*
X104140000Y-207104700D01*
X78740000Y-91295300D02*
X79021300Y-91295300D01*
X79021300Y-91295300D02*
X81275000Y-93549000D01*
X81275000Y-93549000D02*
X81275000Y-106439800D01*
X81275000Y-106439800D02*
X78964700Y-108750100D01*
X78964700Y-108750100D02*
X78964700Y-112226100D01*
X78964700Y-112226100D02*
X80335000Y-113596400D01*
X80335000Y-113596400D02*
X80335000Y-125405000D01*
X80335000Y-125405000D02*
X78740000Y-127000000D01*
X78740000Y-90170000D02*
X78740000Y-91295300D01*
X104140000Y-208280000D02*
X104140000Y-207104700D01*
X101600000Y-90170000D02*
X101600000Y-91295300D01*
X60148700Y-89293400D02*
X57724900Y-86869600D01*
X57724900Y-86869600D02*
X57724900Y-82786300D01*
X57724900Y-82786300D02*
X57927100Y-82584100D01*
X124460000Y-125585300D02*
X124178600Y-125585300D01*
X124178600Y-125585300D02*
X110120500Y-139643400D01*
X110120500Y-139643400D02*
X110120500Y-141369100D01*
X110120500Y-141369100D02*
X109832300Y-141657300D01*
X109832300Y-141657300D02*
X109832300Y-198872400D01*
X109832300Y-198872400D02*
X104140000Y-204564700D01*
X78740000Y-93835300D02*
X79021300Y-93835300D01*
X79021300Y-93835300D02*
X80812500Y-95626500D01*
X80812500Y-95626500D02*
X80812500Y-106265400D01*
X80812500Y-106265400D02*
X77597100Y-109480800D01*
X77597100Y-109480800D02*
X77597100Y-119881900D01*
X77597100Y-119881900D02*
X78509900Y-120794700D01*
X78509900Y-120794700D02*
X78740000Y-120794700D01*
X104487700Y-123413700D02*
X104767200Y-123134200D01*
X104767200Y-123134200D02*
X104767200Y-96721200D01*
X104767200Y-96721200D02*
X101881300Y-93835300D01*
X101881300Y-93835300D02*
X101600000Y-93835300D01*
X101600000Y-92710000D02*
X101600000Y-93835300D01*
X124460000Y-124460000D02*
X124460000Y-125585300D01*
X104140000Y-205740000D02*
X104140000Y-204564700D01*
X78740000Y-121920000D02*
X78740000Y-120794700D01*
X78740000Y-92710000D02*
X78740000Y-93835300D01*
X57150000Y-30480000D02*
X57150000Y-31655300D01*
X50800000Y-38100000D02*
X50800000Y-36924700D01*
X57150000Y-31655300D02*
X56069400Y-31655300D01*
X56069400Y-31655300D02*
X50800000Y-36924700D01*
X114300000Y-144780000D02*
X120650000Y-151130000D01*
X120650000Y-151130000D02*
X120650000Y-157480000D01*
X119200000Y-144780000D02*
X118047000Y-143627000D01*
X118047000Y-143627000D02*
X113898500Y-143627000D01*
X113898500Y-143627000D02*
X113154800Y-144370700D01*
X113154800Y-144370700D02*
X113154800Y-155759800D01*
X113154800Y-155759800D02*
X114081200Y-156686200D01*
X114081200Y-156686200D02*
X114081200Y-161508800D01*
X114081200Y-161508800D02*
X113030000Y-162560000D01*
X93980000Y-160020000D02*
X93980000Y-162560000D01*
X71120000Y-124460000D02*
X71120000Y-123334700D01*
X78740000Y-100330000D02*
X79888600Y-101478600D01*
X79888600Y-101478600D02*
X79888600Y-105915400D01*
X79888600Y-105915400D02*
X75622600Y-110181400D01*
X75622600Y-110181400D02*
X75622600Y-119113400D01*
X75622600Y-119113400D02*
X71401300Y-123334700D01*
X71401300Y-123334700D02*
X71120000Y-123334700D01*
X154940000Y-65895300D02*
X156180300Y-65895300D01*
X156180300Y-65895300D02*
X157055100Y-66770100D01*
X157055100Y-66770100D02*
X157055200Y-66770100D01*
X157055200Y-66770100D02*
X157355500Y-67070300D01*
X157355500Y-67070300D02*
X158117700Y-67832600D01*
X158117700Y-67832600D02*
X158117700Y-77547700D01*
X158117700Y-77547700D02*
X159405600Y-78835600D01*
X159405600Y-78835600D02*
X159405600Y-116486400D01*
X159405600Y-116486400D02*
X161029200Y-118110000D01*
X161029200Y-118110000D02*
X161540800Y-118110000D01*
X161540800Y-118110000D02*
X162365400Y-118934600D01*
X162365400Y-118934600D02*
X162365400Y-119831200D01*
X162365400Y-119831200D02*
X161546600Y-120650000D01*
X161546600Y-120650000D02*
X161036700Y-120650000D01*
X161036700Y-120650000D02*
X159793100Y-121893600D01*
X159793100Y-121893600D02*
X159793100Y-122783800D01*
X159793100Y-122783800D02*
X158115100Y-124461800D01*
X158115100Y-124461800D02*
X158115100Y-127885800D01*
X158115100Y-127885800D02*
X140913300Y-145087600D01*
X140913300Y-145087600D02*
X140913300Y-148730100D01*
X157355500Y-67070300D02*
X160781100Y-63644700D01*
X160781100Y-63644700D02*
X166659400Y-63644700D01*
X166659400Y-63644700D02*
X167784700Y-64770000D01*
X168910000Y-64770000D02*
X167784700Y-64770000D01*
X154940000Y-64770000D02*
X154940000Y-65895300D01*
X139980800Y-112105300D02*
X142015700Y-110070400D01*
X142015700Y-110070400D02*
X142015700Y-95223200D01*
X142015700Y-95223200D02*
X138965300Y-92172800D01*
X138965300Y-92172800D02*
X138965300Y-65078700D01*
X138965300Y-65078700D02*
X140688700Y-63355300D01*
X140688700Y-63355300D02*
X140970000Y-63355300D01*
X140970000Y-62230000D02*
X140970000Y-63355300D01*
X101600000Y-132080000D02*
X106684700Y-132080000D01*
X106684700Y-132080000D02*
X107954700Y-130810000D01*
X107954700Y-130810000D02*
X109578100Y-130810000D01*
X109578100Y-130810000D02*
X114431200Y-125956900D01*
X114431200Y-125956900D02*
X114431200Y-107302400D01*
X101600000Y-127000000D02*
X103830100Y-127000000D01*
X103830100Y-127000000D02*
X106371300Y-124458800D01*
X106371300Y-124458800D02*
X106371300Y-105386800D01*
X189230000Y-59690000D02*
X188104700Y-59690000D01*
X175260000Y-59690000D02*
X176385300Y-59690000D01*
X176385300Y-59690000D02*
X177510600Y-60815300D01*
X177510600Y-60815300D02*
X186979400Y-60815300D01*
X186979400Y-60815300D02*
X188104700Y-59690000D01*
X133350000Y-59690000D02*
X132224700Y-59690000D01*
X116605300Y-101043800D02*
X116605300Y-70990300D01*
X116605300Y-70990300D02*
X124095600Y-63500000D01*
X124095600Y-63500000D02*
X128414700Y-63500000D01*
X128414700Y-63500000D02*
X132224700Y-59690000D01*
X147320000Y-59690000D02*
X146194700Y-59690000D01*
X133350000Y-59690000D02*
X134475300Y-59690000D01*
X134475300Y-59690000D02*
X135600600Y-58564700D01*
X135600600Y-58564700D02*
X145069400Y-58564700D01*
X145069400Y-58564700D02*
X146194700Y-59690000D01*
X175260000Y-57150000D02*
X174134700Y-57150000D01*
X161290000Y-57150000D02*
X162415300Y-57150000D01*
X162415300Y-57150000D02*
X163540600Y-58275300D01*
X163540600Y-58275300D02*
X173009400Y-58275300D01*
X173009400Y-58275300D02*
X174134700Y-57150000D01*
X101600000Y-121920000D02*
X101600000Y-120794700D01*
X101600000Y-120794700D02*
X101881300Y-120794700D01*
X101881300Y-120794700D02*
X104041900Y-118634100D01*
X104041900Y-118634100D02*
X104041900Y-98947000D01*
X153259900Y-92177100D02*
X153259900Y-91851600D01*
X153259900Y-91851600D02*
X152897100Y-91488800D01*
X152897100Y-91488800D02*
X152897100Y-65116800D01*
X152897100Y-65116800D02*
X154658600Y-63355300D01*
X154658600Y-63355300D02*
X154940000Y-63355300D01*
X154940000Y-62230000D02*
X154940000Y-63355300D01*
X168910000Y-62230000D02*
X167784700Y-62230000D01*
X167784700Y-62230000D02*
X166647700Y-61093000D01*
X166647700Y-61093000D02*
X153391600Y-61093000D01*
X153391600Y-61093000D02*
X150984600Y-63500000D01*
X150984600Y-63500000D02*
X146964100Y-63500000D01*
X146964100Y-63500000D02*
X145238500Y-65225600D01*
X145238500Y-65225600D02*
X145238500Y-116308900D01*
X145238500Y-116308900D02*
X147039600Y-118110000D01*
X147039600Y-118110000D02*
X147632800Y-118110000D01*
X147632800Y-118110000D02*
X148418800Y-118896000D01*
X148418800Y-118896000D02*
X148418800Y-119807800D01*
X148418800Y-119807800D02*
X147576600Y-120650000D01*
X147576600Y-120650000D02*
X147066700Y-120650000D01*
X147066700Y-120650000D02*
X144192200Y-123524500D01*
X144192200Y-123524500D02*
X144192200Y-137098300D01*
X144192200Y-137098300D02*
X136302500Y-144988000D01*
X182880000Y-62230000D02*
X182880000Y-63355300D01*
X182880000Y-63355300D02*
X182598700Y-63355300D01*
X182598700Y-63355300D02*
X180852400Y-65101600D01*
X180852400Y-65101600D02*
X180852400Y-74771100D01*
X196850000Y-63355300D02*
X197131300Y-63355300D01*
X197131300Y-63355300D02*
X198439800Y-64663800D01*
X198439800Y-64663800D02*
X198439800Y-69993800D01*
X198439800Y-69993800D02*
X198439900Y-69993800D01*
X198439900Y-69993800D02*
X198896200Y-70450100D01*
X198896200Y-70450100D02*
X198896200Y-115134800D01*
X196850000Y-62230000D02*
X196850000Y-63355300D01*
X71120000Y-129540000D02*
X72245300Y-129540000D01*
X78740000Y-116840000D02*
X78740000Y-117965300D01*
X78740000Y-117965300D02*
X79021300Y-117965300D01*
X79021300Y-117965300D02*
X79880100Y-118824100D01*
X79880100Y-118824100D02*
X79880100Y-122382900D01*
X79880100Y-122382900D02*
X79073000Y-123190000D01*
X79073000Y-123190000D02*
X78314000Y-123190000D01*
X78314000Y-123190000D02*
X72245300Y-129258700D01*
X72245300Y-129258700D02*
X72245300Y-129540000D01*
X124460000Y-105265300D02*
X124249000Y-105265300D01*
X124249000Y-105265300D02*
X119383500Y-110130800D01*
X119383500Y-110130800D02*
X119383500Y-127690700D01*
X119383500Y-127690700D02*
X106271900Y-140802300D01*
X106271900Y-140802300D02*
X106271900Y-148869900D01*
X106271900Y-148869900D02*
X106132400Y-149009400D01*
X106132400Y-149009400D02*
X106132400Y-163974700D01*
X124460000Y-104140000D02*
X124460000Y-105265300D01*
X106898500Y-149269000D02*
X106898500Y-140812600D01*
X106898500Y-140812600D02*
X121412100Y-126299000D01*
X121412100Y-126299000D02*
X121412100Y-116840000D01*
X124460000Y-72390000D02*
X124460000Y-73515300D01*
X124460000Y-116840000D02*
X124460000Y-115714700D01*
X124460000Y-115714700D02*
X124741300Y-115714700D01*
X124741300Y-115714700D02*
X126539100Y-113916900D01*
X126539100Y-113916900D02*
X126539100Y-85502500D01*
X126539100Y-85502500D02*
X124856600Y-83820000D01*
X124856600Y-83820000D02*
X124095500Y-83820000D01*
X124095500Y-83820000D02*
X123334700Y-83059200D01*
X123334700Y-83059200D02*
X123334700Y-74359200D01*
X123334700Y-74359200D02*
X124178600Y-73515300D01*
X124178600Y-73515300D02*
X124460000Y-73515300D01*
X71120000Y-118254700D02*
X71401400Y-118254700D01*
X71401400Y-118254700D02*
X74077800Y-115578300D01*
X74077800Y-115578300D02*
X74077800Y-96811700D01*
X74077800Y-96811700D02*
X74077900Y-96811700D01*
X74077900Y-96811700D02*
X76666300Y-94223300D01*
X76666300Y-94223300D02*
X76666300Y-82956200D01*
X76666300Y-82956200D02*
X78342500Y-81280000D01*
X78342500Y-81280000D02*
X79081000Y-81280000D01*
X79081000Y-81280000D02*
X82128100Y-78232900D01*
X82128100Y-78232900D02*
X82128100Y-75651500D01*
X71120000Y-119380000D02*
X71120000Y-118254700D01*
X71120000Y-133205300D02*
X71401300Y-133205300D01*
X71401300Y-133205300D02*
X73312900Y-135116900D01*
X73312900Y-135116900D02*
X73312900Y-156921200D01*
X71120000Y-132080000D02*
X71120000Y-133205300D01*
X158970700Y-202829300D02*
X158600000Y-203200000D01*
X157630000Y-190500000D02*
X158970700Y-191840700D01*
X158970700Y-191840700D02*
X158970700Y-202829300D01*
X158970700Y-202829300D02*
X164729300Y-202829300D01*
X164729300Y-202829300D02*
X165100000Y-203200000D01*
X152476500Y-141046500D02*
X152476500Y-151053500D01*
X151130000Y-139700000D02*
X152476500Y-141046500D01*
X157630000Y-139700000D02*
X153823000Y-139700000D01*
X153823000Y-139700000D02*
X152476500Y-141046500D01*
X152476500Y-151053500D02*
X151130000Y-152400000D01*
X152476500Y-151053500D02*
X156283500Y-151053500D01*
X156283500Y-151053500D02*
X157630000Y-152400000D01*
X157630000Y-165100000D02*
X153780800Y-165100000D01*
X153780800Y-165100000D02*
X152455400Y-163774600D01*
X157630000Y-177800000D02*
X158955400Y-176474600D01*
X158955400Y-176474600D02*
X158955400Y-166425400D01*
X158955400Y-166425400D02*
X157630000Y-165100000D01*
X152455400Y-163774600D02*
X152455400Y-153725400D01*
X152455400Y-153725400D02*
X151130000Y-152400000D01*
X151130000Y-165100000D02*
X152455400Y-163774600D01*
X157630000Y-177800000D02*
X158962100Y-179132100D01*
X158962100Y-179132100D02*
X158962100Y-189167900D01*
X158962100Y-189167900D02*
X157630000Y-190500000D01*
X170300400Y-141090400D02*
X168910000Y-139700000D01*
X170300400Y-151737300D02*
X170300400Y-141090400D01*
X170300400Y-141090400D02*
X174019600Y-141090400D01*
X174019600Y-141090400D02*
X175410000Y-139700000D01*
X170300400Y-151737300D02*
X169572700Y-151737300D01*
X169572700Y-151737300D02*
X168910000Y-152400000D01*
X175410000Y-152400000D02*
X174747300Y-151737300D01*
X174747300Y-151737300D02*
X170300400Y-151737300D01*
X170235400Y-166425400D02*
X168910000Y-165100000D01*
X170235400Y-176474600D02*
X170235400Y-166425400D01*
X170235400Y-166425400D02*
X174084600Y-166425400D01*
X174084600Y-166425400D02*
X175410000Y-165100000D01*
X175410000Y-177800000D02*
X171560800Y-177800000D01*
X171560800Y-177800000D02*
X170235400Y-176474600D01*
X175410000Y-190500000D02*
X176735400Y-189174600D01*
X176735400Y-189174600D02*
X176735400Y-179125400D01*
X176735400Y-179125400D02*
X175410000Y-177800000D01*
X168910000Y-177800000D02*
X170235400Y-176474600D01*
X175410000Y-165100000D02*
X176735400Y-163774600D01*
X176735400Y-163774600D02*
X176735400Y-153725400D01*
X176735400Y-153725400D02*
X175410000Y-152400000D01*
X186690000Y-177800000D02*
X185340500Y-176450500D01*
X185340500Y-176450500D02*
X185340500Y-166449500D01*
X185340500Y-166449500D02*
X186690000Y-165100000D01*
X186690000Y-165100000D02*
X185364600Y-163774600D01*
X185364600Y-163774600D02*
X185364600Y-153725400D01*
X185364600Y-153725400D02*
X186690000Y-152400000D01*
X186690000Y-139700000D02*
X185364600Y-141025400D01*
X185364600Y-141025400D02*
X185364600Y-151074600D01*
X185364600Y-151074600D02*
X186690000Y-152400000D01*
X193190000Y-190500000D02*
X194515400Y-189174600D01*
X194515400Y-189174600D02*
X194515400Y-179125400D01*
X194515400Y-179125400D02*
X193190000Y-177800000D01*
X63500000Y-38100000D02*
X63500000Y-36924700D01*
X59690000Y-30480000D02*
X59690000Y-33114700D01*
X59690000Y-33114700D02*
X63500000Y-36924700D01*
X137160000Y-139794700D02*
X142509700Y-134445000D01*
X142509700Y-134445000D02*
X142509700Y-116852400D01*
X142509700Y-116852400D02*
X141227300Y-115570000D01*
X141227300Y-115570000D02*
X140667000Y-115570000D01*
X140667000Y-115570000D02*
X139863600Y-114766600D01*
X139863600Y-114766600D02*
X139863600Y-113248300D01*
X139863600Y-113248300D02*
X143028600Y-110083300D01*
X143028600Y-110083300D02*
X143028600Y-61072600D01*
X196850000Y-59690000D02*
X195724700Y-59690000D01*
X182880000Y-59690000D02*
X184005300Y-59690000D01*
X184005300Y-59690000D02*
X185130600Y-58564700D01*
X185130600Y-58564700D02*
X194599400Y-58564700D01*
X194599400Y-58564700D02*
X195724700Y-59690000D01*
X143028600Y-61072600D02*
X152432100Y-61072600D01*
X152432100Y-61072600D02*
X153814700Y-59690000D01*
X140970000Y-60815300D02*
X142771300Y-60815300D01*
X142771300Y-60815300D02*
X143028600Y-61072600D01*
X154940000Y-59690000D02*
X153814700Y-59690000D01*
X137160000Y-140970000D02*
X137160000Y-139794700D01*
X140970000Y-59690000D02*
X140970000Y-60815300D01*
X203200000Y-35560000D02*
X203200000Y-30480000D01*
X133350000Y-65895300D02*
X133068700Y-65895300D01*
X133068700Y-65895300D02*
X131745100Y-67218900D01*
X131745100Y-67218900D02*
X131745100Y-81250700D01*
X131745100Y-81250700D02*
X137310400Y-86816000D01*
X137310400Y-86816000D02*
X137310400Y-103265100D01*
X137310400Y-103265100D02*
X140970000Y-106924700D01*
X140970000Y-107950000D02*
X140970000Y-106924700D01*
X133350000Y-64770000D02*
X133350000Y-65895300D01*
X133350000Y-68435300D02*
X133101900Y-68435300D01*
X133101900Y-68435300D02*
X132195400Y-69341800D01*
X132195400Y-69341800D02*
X132195400Y-78304700D01*
X132195400Y-78304700D02*
X137760800Y-83870100D01*
X137760800Y-83870100D02*
X137760800Y-99905500D01*
X137760800Y-99905500D02*
X140970000Y-103114700D01*
X140970000Y-104140000D02*
X140970000Y-103114700D01*
X133350000Y-67310000D02*
X133350000Y-68435300D01*
X133350000Y-104140000D02*
X131824400Y-105665600D01*
X131824400Y-105665600D02*
X131824400Y-115394000D01*
X131824400Y-115394000D02*
X133270400Y-116840000D01*
X133270400Y-116840000D02*
X133350000Y-116840000D01*
X133350000Y-100330000D02*
X131374000Y-102306000D01*
X131374000Y-102306000D02*
X131374000Y-127564000D01*
X131374000Y-127564000D02*
X133350000Y-129540000D01*
X140970000Y-96520000D02*
X140970000Y-95494700D01*
X133350000Y-72390000D02*
X133350000Y-73515300D01*
X133350000Y-73515300D02*
X133631300Y-73515300D01*
X133631300Y-73515300D02*
X138211200Y-78095200D01*
X138211200Y-78095200D02*
X138211200Y-92735900D01*
X138211200Y-92735900D02*
X140970000Y-95494700D01*
X133350000Y-96520000D02*
X134377500Y-97547500D01*
X134377500Y-97547500D02*
X134377500Y-110148500D01*
X134377500Y-110148500D02*
X132274700Y-112251300D01*
X132274700Y-112251300D02*
X132274700Y-115193200D01*
X132274700Y-115193200D02*
X132846100Y-115764600D01*
X132846100Y-115764600D02*
X133798700Y-115764600D01*
X133798700Y-115764600D02*
X135543800Y-117509700D01*
X135543800Y-117509700D02*
X135543800Y-124113800D01*
X135543800Y-124113800D02*
X140970000Y-129540000D01*
X133350000Y-92710000D02*
X135409400Y-94769400D01*
X135409400Y-94769400D02*
X135409400Y-112592000D01*
X135409400Y-112592000D02*
X136134600Y-113317200D01*
X136134600Y-113317200D02*
X136134600Y-123689000D01*
X136134600Y-123689000D02*
X140562500Y-128116900D01*
X140562500Y-128116900D02*
X141395800Y-128116900D01*
X141395800Y-128116900D02*
X142046600Y-127466100D01*
X142046600Y-127466100D02*
X142046600Y-125536600D01*
X142046600Y-125536600D02*
X140970000Y-124460000D01*
X140970000Y-88900000D02*
X140970000Y-87874700D01*
X140970000Y-72390000D02*
X140970000Y-73515300D01*
X140970000Y-73515300D02*
X140688700Y-73515300D01*
X140688700Y-73515300D02*
X139442500Y-74761500D01*
X139442500Y-74761500D02*
X139442500Y-86347200D01*
X139442500Y-86347200D02*
X140970000Y-87874700D01*
X133350000Y-88900000D02*
X136860000Y-92410000D01*
X136860000Y-92410000D02*
X136860000Y-112730000D01*
X136860000Y-112730000D02*
X140970000Y-116840000D01*
X140970000Y-85090000D02*
X140970000Y-84064700D01*
X140970000Y-69850000D02*
X140970000Y-70975300D01*
X140970000Y-84064700D02*
X139915200Y-83009900D01*
X139915200Y-83009900D02*
X139915200Y-78328800D01*
X139915200Y-78328800D02*
X142120100Y-76123900D01*
X142120100Y-76123900D02*
X142120100Y-71920200D01*
X142120100Y-71920200D02*
X141175200Y-70975300D01*
X141175200Y-70975300D02*
X140970000Y-70975300D01*
X133350000Y-114300000D02*
X133350000Y-113224700D01*
X133350000Y-113224700D02*
X134831300Y-111743400D01*
X134831300Y-111743400D02*
X134831300Y-96504300D01*
X134831300Y-96504300D02*
X132305200Y-93978200D01*
X132305200Y-93978200D02*
X132305200Y-86134800D01*
X132305200Y-86134800D02*
X133350000Y-85090000D01*
X140970000Y-81280000D02*
X140970000Y-80254700D01*
X140970000Y-67310000D02*
X140970000Y-68435300D01*
X140970000Y-68435300D02*
X141191000Y-68435300D01*
X141191000Y-68435300D02*
X142578300Y-69822600D01*
X142578300Y-69822600D02*
X142578300Y-78646400D01*
X142578300Y-78646400D02*
X140970000Y-80254700D01*
X140970000Y-127000000D02*
X139576300Y-125606300D01*
X139576300Y-125606300D02*
X139576300Y-116102600D01*
X139576300Y-116102600D02*
X136134700Y-112661000D01*
X136134700Y-112661000D02*
X136134700Y-92728700D01*
X154940000Y-106924700D02*
X153451500Y-105436200D01*
X153451500Y-105436200D02*
X153451500Y-96173300D01*
X153451500Y-96173300D02*
X151129100Y-93850900D01*
X151129100Y-93850900D02*
X151129100Y-92322900D01*
X151129100Y-92322900D02*
X150508100Y-91701900D01*
X150508100Y-91701900D02*
X150508100Y-81579400D01*
X150508100Y-81579400D02*
X145696700Y-76768000D01*
X145696700Y-76768000D02*
X145696700Y-67237300D01*
X145696700Y-67237300D02*
X147038700Y-65895300D01*
X147038700Y-65895300D02*
X147320000Y-65895300D01*
X154940000Y-107950000D02*
X154940000Y-106924700D01*
X147320000Y-64770000D02*
X147320000Y-65895300D01*
X154940000Y-103114700D02*
X155965300Y-102089400D01*
X155965300Y-102089400D02*
X155965300Y-95847600D01*
X155965300Y-95847600D02*
X154886000Y-94768300D01*
X154886000Y-94768300D02*
X154813000Y-94768300D01*
X154813000Y-94768300D02*
X152534500Y-92489800D01*
X152534500Y-92489800D02*
X152534500Y-91763100D01*
X152534500Y-91763100D02*
X152018000Y-91246600D01*
X152018000Y-91246600D02*
X152018000Y-72852000D01*
X152018000Y-72852000D02*
X147601300Y-68435300D01*
X147601300Y-68435300D02*
X147320000Y-68435300D01*
X154940000Y-104140000D02*
X154940000Y-103114700D01*
X147320000Y-67310000D02*
X147320000Y-68435300D01*
X147320000Y-116840000D02*
X148399300Y-115760700D01*
X148399300Y-115760700D02*
X148399300Y-105219300D01*
X148399300Y-105219300D02*
X147320000Y-104140000D01*
X154940000Y-99304700D02*
X153914700Y-98279400D01*
X153914700Y-98279400D02*
X153914700Y-95999600D01*
X153914700Y-95999600D02*
X151633900Y-93718800D01*
X151633900Y-93718800D02*
X151633900Y-92136400D01*
X151633900Y-92136400D02*
X150958400Y-91460900D01*
X150958400Y-91460900D02*
X150958400Y-80405000D01*
X150958400Y-80405000D02*
X146158400Y-75605000D01*
X146158400Y-75605000D02*
X146158400Y-71897700D01*
X146158400Y-71897700D02*
X147080800Y-70975300D01*
X147080800Y-70975300D02*
X147320000Y-70975300D01*
X154940000Y-100330000D02*
X154940000Y-99304700D01*
X147320000Y-69850000D02*
X147320000Y-70975300D01*
X147320000Y-129540000D02*
X148869200Y-127990800D01*
X148869200Y-127990800D02*
X148869200Y-101879200D01*
X148869200Y-101879200D02*
X147320000Y-100330000D01*
X154940000Y-95494700D02*
X154811700Y-95494700D01*
X154811700Y-95494700D02*
X152084200Y-92767200D01*
X152084200Y-92767200D02*
X152084200Y-91949700D01*
X152084200Y-91949700D02*
X151408800Y-91274300D01*
X151408800Y-91274300D02*
X151408800Y-77322800D01*
X151408800Y-77322800D02*
X147601300Y-73515300D01*
X147601300Y-73515300D02*
X147320000Y-73515300D01*
X154940000Y-96520000D02*
X154940000Y-95494700D01*
X147320000Y-72390000D02*
X147320000Y-73515300D01*
X154940000Y-129540000D02*
X149353300Y-123953300D01*
X149353300Y-123953300D02*
X149353300Y-98553300D01*
X149353300Y-98553300D02*
X147320000Y-96520000D01*
X147320000Y-92710000D02*
X150493000Y-95883000D01*
X150493000Y-95883000D02*
X150493000Y-120013000D01*
X150493000Y-120013000D02*
X154940000Y-124460000D01*
X154940000Y-88900000D02*
X154940000Y-87874700D01*
X154940000Y-72390000D02*
X154940000Y-73515300D01*
X154940000Y-73515300D02*
X154658700Y-73515300D01*
X154658700Y-73515300D02*
X153418400Y-74755600D01*
X153418400Y-74755600D02*
X153418400Y-86353100D01*
X153418400Y-86353100D02*
X154940000Y-87874700D01*
X147320000Y-88900000D02*
X147320000Y-90651400D01*
X147320000Y-90651400D02*
X149607500Y-92938900D01*
X149607500Y-92938900D02*
X149607500Y-94240100D01*
X149607500Y-94240100D02*
X150943400Y-95576000D01*
X150943400Y-95576000D02*
X150943400Y-112843400D01*
X150943400Y-112843400D02*
X154940000Y-116840000D01*
X154940000Y-84064700D02*
X153885200Y-83009900D01*
X153885200Y-83009900D02*
X153885200Y-80213100D01*
X153885200Y-80213100D02*
X156079500Y-78018800D01*
X156079500Y-78018800D02*
X156079500Y-71914900D01*
X156079500Y-71914900D02*
X155139900Y-70975300D01*
X155139900Y-70975300D02*
X154940000Y-70975300D01*
X154940000Y-85090000D02*
X154940000Y-84064700D01*
X154940000Y-69850000D02*
X154940000Y-70975300D01*
X147320000Y-114300000D02*
X147320000Y-113224700D01*
X147320000Y-113224700D02*
X146275800Y-112180500D01*
X146275800Y-112180500D02*
X146275800Y-86134200D01*
X146275800Y-86134200D02*
X147320000Y-85090000D01*
X154940000Y-68435300D02*
X155221300Y-68435300D01*
X155221300Y-68435300D02*
X156529800Y-69743800D01*
X156529800Y-69743800D02*
X156529800Y-78664900D01*
X156529800Y-78664900D02*
X154940000Y-80254700D01*
X154940000Y-81280000D02*
X154940000Y-80254700D01*
X154940000Y-67310000D02*
X154940000Y-68435300D01*
X154940000Y-127000000D02*
X156015400Y-125924600D01*
X156015400Y-125924600D02*
X156015400Y-116394600D01*
X156015400Y-116394600D02*
X155350100Y-115729300D01*
X155350100Y-115729300D02*
X154797700Y-115729300D01*
X154797700Y-115729300D02*
X153001100Y-113932700D01*
X153001100Y-113932700D02*
X153001100Y-96903600D01*
X153001100Y-96903600D02*
X150283000Y-94185500D01*
X150283000Y-94185500D02*
X150283000Y-92377600D01*
X150283000Y-92377600D02*
X148967300Y-91061900D01*
X148967300Y-91061900D02*
X148967300Y-82927300D01*
X148967300Y-82927300D02*
X147320000Y-81280000D01*
X161290000Y-65895300D02*
X161008700Y-65895300D01*
X161008700Y-65895300D02*
X159705600Y-67198400D01*
X159705600Y-67198400D02*
X159705600Y-76346100D01*
X159705600Y-76346100D02*
X164703100Y-81343600D01*
X164703100Y-81343600D02*
X164703100Y-93143800D01*
X164703100Y-93143800D02*
X167434400Y-95875100D01*
X167434400Y-95875100D02*
X167434400Y-105449100D01*
X167434400Y-105449100D02*
X168910000Y-106924700D01*
X168910000Y-107950000D02*
X168910000Y-106924700D01*
X161290000Y-64770000D02*
X161290000Y-65895300D01*
X161290000Y-68435300D02*
X161571300Y-68435300D01*
X161571300Y-68435300D02*
X166054000Y-72918000D01*
X166054000Y-72918000D02*
X166054000Y-91321500D01*
X166054000Y-91321500D02*
X169935300Y-95202800D01*
X169935300Y-95202800D02*
X169935300Y-102089400D01*
X169935300Y-102089400D02*
X168910000Y-103114700D01*
X168910000Y-104140000D02*
X168910000Y-103114700D01*
X161290000Y-67310000D02*
X161290000Y-68435300D01*
X161290000Y-116840000D02*
X162367100Y-115762900D01*
X162367100Y-115762900D02*
X162367100Y-105217100D01*
X162367100Y-105217100D02*
X161290000Y-104140000D01*
X161290000Y-70975300D02*
X161024100Y-70975300D01*
X161024100Y-70975300D02*
X160155900Y-71843500D01*
X160155900Y-71843500D02*
X160155900Y-75605000D01*
X160155900Y-75605000D02*
X165153400Y-80602500D01*
X165153400Y-80602500D02*
X165153400Y-92957200D01*
X165153400Y-92957200D02*
X167884700Y-95688500D01*
X167884700Y-95688500D02*
X167884700Y-98279400D01*
X167884700Y-98279400D02*
X168910000Y-99304700D01*
X168910000Y-100330000D02*
X168910000Y-99304700D01*
X161290000Y-69850000D02*
X161290000Y-70975300D01*
X161290000Y-129540000D02*
X162839200Y-127990800D01*
X162839200Y-127990800D02*
X162839200Y-101879200D01*
X162839200Y-101879200D02*
X161290000Y-100330000D01*
X161290000Y-73515300D02*
X161571300Y-73515300D01*
X161571300Y-73515300D02*
X165603700Y-77547700D01*
X165603700Y-77547700D02*
X165603700Y-92188400D01*
X165603700Y-92188400D02*
X168910000Y-95494700D01*
X168910000Y-96520000D02*
X168910000Y-95494700D01*
X161290000Y-72390000D02*
X161290000Y-73515300D01*
X168910000Y-129540000D02*
X163323300Y-123953300D01*
X163323300Y-123953300D02*
X163323300Y-98553300D01*
X163323300Y-98553300D02*
X161290000Y-96520000D01*
X168910000Y-74930000D02*
X168910000Y-76055300D01*
X168910000Y-92710000D02*
X168910000Y-91684700D01*
X168910000Y-91684700D02*
X169967500Y-90627200D01*
X169967500Y-90627200D02*
X169967500Y-88295300D01*
X169967500Y-88295300D02*
X167404900Y-85732700D01*
X167404900Y-85732700D02*
X167404900Y-77560400D01*
X167404900Y-77560400D02*
X168910000Y-76055300D01*
X168910000Y-124460000D02*
X164463000Y-120013000D01*
X164463000Y-120013000D02*
X164463000Y-95883000D01*
X164463000Y-95883000D02*
X161290000Y-92710000D01*
X168910000Y-73515300D02*
X168628700Y-73515300D01*
X168628700Y-73515300D02*
X166954600Y-75189400D01*
X166954600Y-75189400D02*
X166954600Y-85919300D01*
X166954600Y-85919300D02*
X168910000Y-87874700D01*
X168910000Y-88900000D02*
X168910000Y-87874700D01*
X168910000Y-72390000D02*
X168910000Y-73515300D01*
X161290000Y-88900000D02*
X161290000Y-91004500D01*
X161290000Y-91004500D02*
X165045500Y-94760000D01*
X165045500Y-94760000D02*
X165045500Y-112975600D01*
X165045500Y-112975600D02*
X165045600Y-112975600D01*
X165045600Y-112975600D02*
X168910000Y-116840000D01*
X168910000Y-85090000D02*
X168910000Y-84064700D01*
X168910000Y-69850000D02*
X168910000Y-70975300D01*
X168910000Y-84064700D02*
X167855200Y-83009900D01*
X167855200Y-83009900D02*
X167855200Y-80213100D01*
X167855200Y-80213100D02*
X170060100Y-78008200D01*
X170060100Y-78008200D02*
X170060100Y-71920200D01*
X170060100Y-71920200D02*
X169115200Y-70975300D01*
X169115200Y-70975300D02*
X168910000Y-70975300D01*
X161290000Y-114300000D02*
X161290000Y-113224700D01*
X161290000Y-113224700D02*
X160260200Y-112194900D01*
X160260200Y-112194900D02*
X160260200Y-86119800D01*
X160260200Y-86119800D02*
X161290000Y-85090000D01*
X168910000Y-68435300D02*
X169191300Y-68435300D01*
X169191300Y-68435300D02*
X170510400Y-69754400D01*
X170510400Y-69754400D02*
X170510400Y-78654300D01*
X170510400Y-78654300D02*
X168910000Y-80254700D01*
X168910000Y-81280000D02*
X168910000Y-80254700D01*
X168910000Y-67310000D02*
X168910000Y-68435300D01*
X161290000Y-81280000D02*
X164252800Y-84242800D01*
X164252800Y-84242800D02*
X164252800Y-93330400D01*
X164252800Y-93330400D02*
X165550400Y-94628000D01*
X165550400Y-94628000D02*
X165550400Y-112513400D01*
X165550400Y-112513400D02*
X168607000Y-115570000D01*
X168607000Y-115570000D02*
X169176500Y-115570000D01*
X169176500Y-115570000D02*
X170000200Y-116393700D01*
X170000200Y-116393700D02*
X170000200Y-125909800D01*
X170000200Y-125909800D02*
X168910000Y-127000000D01*
X175260000Y-65895300D02*
X175541300Y-65895300D01*
X175541300Y-65895300D02*
X180127100Y-70481100D01*
X180127100Y-70481100D02*
X180127100Y-86395600D01*
X180127100Y-86395600D02*
X181757600Y-88026100D01*
X181757600Y-88026100D02*
X181757600Y-93055100D01*
X181757600Y-93055100D02*
X184373900Y-95671400D01*
X184373900Y-95671400D02*
X184373900Y-105430800D01*
X184373900Y-105430800D02*
X182880000Y-106924700D01*
X182880000Y-107950000D02*
X182880000Y-106924700D01*
X175260000Y-64770000D02*
X175260000Y-65895300D01*
X182880000Y-103114700D02*
X179796000Y-100030700D01*
X179796000Y-100030700D02*
X179796000Y-88612100D01*
X179796000Y-88612100D02*
X178222800Y-87038900D01*
X178222800Y-87038900D02*
X178222800Y-86420300D01*
X178222800Y-86420300D02*
X173689300Y-81886800D01*
X173689300Y-81886800D02*
X173689300Y-79641800D01*
X173689300Y-79641800D02*
X173684400Y-79636900D01*
X173684400Y-79636900D02*
X173684400Y-69729500D01*
X173684400Y-69729500D02*
X174978600Y-68435300D01*
X174978600Y-68435300D02*
X175260000Y-68435300D01*
X175260000Y-67310000D02*
X175260000Y-68435300D01*
X182880000Y-104140000D02*
X182880000Y-103114700D01*
X175260000Y-116840000D02*
X176339300Y-115760700D01*
X176339300Y-115760700D02*
X176339300Y-105219300D01*
X176339300Y-105219300D02*
X175260000Y-104140000D01*
X175260000Y-70975300D02*
X174978600Y-70975300D01*
X174978600Y-70975300D02*
X174134700Y-71819200D01*
X174134700Y-71819200D02*
X174134700Y-78182300D01*
X174134700Y-78182300D02*
X179123400Y-83171000D01*
X179123400Y-83171000D02*
X179123400Y-86665700D01*
X179123400Y-86665700D02*
X180696600Y-88238900D01*
X180696600Y-88238900D02*
X180696600Y-97121300D01*
X180696600Y-97121300D02*
X182880000Y-99304700D01*
X175260000Y-69850000D02*
X175260000Y-70975300D01*
X182880000Y-100330000D02*
X182880000Y-99304700D01*
X175260000Y-129540000D02*
X176809200Y-127990800D01*
X176809200Y-127990800D02*
X176809200Y-101879200D01*
X176809200Y-101879200D02*
X175260000Y-100330000D01*
X175260000Y-73515300D02*
X175541300Y-73515300D01*
X175541300Y-73515300D02*
X179573700Y-77547700D01*
X179573700Y-77547700D02*
X179573700Y-86479100D01*
X179573700Y-86479100D02*
X181146900Y-88052300D01*
X181146900Y-88052300D02*
X181146900Y-93761600D01*
X181146900Y-93761600D02*
X182880000Y-95494700D01*
X182880000Y-96520000D02*
X182880000Y-95494700D01*
X175260000Y-72390000D02*
X175260000Y-73515300D01*
X182880000Y-129540000D02*
X177293300Y-123953300D01*
X177293300Y-123953300D02*
X177293300Y-98553300D01*
X177293300Y-98553300D02*
X175260000Y-96520000D01*
X182880000Y-124460000D02*
X178619500Y-120199500D01*
X178619500Y-120199500D02*
X178619500Y-96069500D01*
X178619500Y-96069500D02*
X175260000Y-92710000D01*
X182880000Y-87874700D02*
X181401800Y-86396500D01*
X181401800Y-86396500D02*
X181401800Y-75404800D01*
X181401800Y-75404800D02*
X181577700Y-75228900D01*
X181577700Y-75228900D02*
X181577700Y-74536300D01*
X181577700Y-74536300D02*
X182598700Y-73515300D01*
X182598700Y-73515300D02*
X182880000Y-73515300D01*
X182880000Y-88900000D02*
X182880000Y-87874700D01*
X182880000Y-72390000D02*
X182880000Y-73515300D01*
X175260000Y-88900000D02*
X179070000Y-92710000D01*
X179070000Y-92710000D02*
X179070000Y-113030000D01*
X179070000Y-113030000D02*
X182880000Y-116840000D01*
X182880000Y-85090000D02*
X182880000Y-84064700D01*
X182880000Y-69850000D02*
X182880000Y-70975300D01*
X182880000Y-70975300D02*
X183161300Y-70975300D01*
X183161300Y-70975300D02*
X184030000Y-71844000D01*
X184030000Y-71844000D02*
X184030000Y-76849500D01*
X184030000Y-76849500D02*
X181854700Y-79024800D01*
X181854700Y-79024800D02*
X181854700Y-83039400D01*
X181854700Y-83039400D02*
X182880000Y-84064700D01*
X175260000Y-114300000D02*
X175260000Y-113224700D01*
X175260000Y-113224700D02*
X174215800Y-112180500D01*
X174215800Y-112180500D02*
X174215800Y-86134200D01*
X174215800Y-86134200D02*
X175260000Y-85090000D01*
X182880000Y-68435300D02*
X183161300Y-68435300D01*
X183161300Y-68435300D02*
X184480400Y-69754400D01*
X184480400Y-69754400D02*
X184480400Y-78654300D01*
X184480400Y-78654300D02*
X182880000Y-80254700D01*
X182880000Y-81280000D02*
X182880000Y-80254700D01*
X182880000Y-67310000D02*
X182880000Y-68435300D01*
X175260000Y-81280000D02*
X178673100Y-84693100D01*
X178673100Y-84693100D02*
X178673100Y-86852300D01*
X178673100Y-86852300D02*
X180246300Y-88425500D01*
X180246300Y-88425500D02*
X180246300Y-99146300D01*
X180246300Y-99146300D02*
X183918100Y-102818100D01*
X183918100Y-102818100D02*
X183918100Y-104605600D01*
X183918100Y-104605600D02*
X181798200Y-106725500D01*
X181798200Y-106725500D02*
X181798200Y-114791200D01*
X181798200Y-114791200D02*
X182577000Y-115570000D01*
X182577000Y-115570000D02*
X183146500Y-115570000D01*
X183146500Y-115570000D02*
X183970200Y-116393700D01*
X183970200Y-116393700D02*
X183970200Y-125909800D01*
X183970200Y-125909800D02*
X182880000Y-127000000D01*
X189230000Y-65895300D02*
X188948600Y-65895300D01*
X188948600Y-65895300D02*
X187654400Y-67189500D01*
X187654400Y-67189500D02*
X187654400Y-75907500D01*
X187654400Y-75907500D02*
X193090700Y-81343800D01*
X193090700Y-81343800D02*
X193090700Y-93618100D01*
X193090700Y-93618100D02*
X193940600Y-94468000D01*
X193940600Y-94468000D02*
X193940600Y-104015300D01*
X193940600Y-104015300D02*
X196850000Y-106924700D01*
X189230000Y-64770000D02*
X189230000Y-65895300D01*
X196850000Y-107950000D02*
X196850000Y-106924700D01*
X189230000Y-68435300D02*
X188981000Y-68435300D01*
X188981000Y-68435300D02*
X188104700Y-69311600D01*
X188104700Y-69311600D02*
X188104700Y-75495500D01*
X188104700Y-75495500D02*
X193541000Y-80931800D01*
X193541000Y-80931800D02*
X193541000Y-93206100D01*
X193541000Y-93206100D02*
X195824700Y-95489800D01*
X195824700Y-95489800D02*
X195824700Y-102089400D01*
X195824700Y-102089400D02*
X196850000Y-103114700D01*
X196850000Y-104140000D02*
X196850000Y-103114700D01*
X189230000Y-67310000D02*
X189230000Y-68435300D01*
X189230000Y-116840000D02*
X190309300Y-115760700D01*
X190309300Y-115760700D02*
X190309300Y-105219300D01*
X190309300Y-105219300D02*
X189230000Y-104140000D01*
X189230000Y-70975300D02*
X189511300Y-70975300D01*
X189511300Y-70975300D02*
X194441700Y-75905700D01*
X194441700Y-75905700D02*
X194441700Y-92370200D01*
X194441700Y-92370200D02*
X197875300Y-95803800D01*
X197875300Y-95803800D02*
X197875300Y-98279400D01*
X197875300Y-98279400D02*
X196850000Y-99304700D01*
X196850000Y-100330000D02*
X196850000Y-99304700D01*
X189230000Y-69850000D02*
X189230000Y-70975300D01*
X189230000Y-129540000D02*
X190769100Y-128000900D01*
X190769100Y-128000900D02*
X190769100Y-101869100D01*
X190769100Y-101869100D02*
X189230000Y-100330000D01*
X189230000Y-73515300D02*
X189434500Y-73515300D01*
X189434500Y-73515300D02*
X193991300Y-78072100D01*
X193991300Y-78072100D02*
X193991300Y-92636000D01*
X193991300Y-92636000D02*
X196850000Y-95494700D01*
X196850000Y-96520000D02*
X196850000Y-95494700D01*
X189230000Y-72390000D02*
X189230000Y-73515300D01*
X196850000Y-129540000D02*
X191619800Y-124309800D01*
X191619800Y-124309800D02*
X191619800Y-98909800D01*
X191619800Y-98909800D02*
X189230000Y-96520000D01*
X196850000Y-92710000D02*
X196850000Y-91684700D01*
X196850000Y-74930000D02*
X196850000Y-76055300D01*
X196850000Y-76055300D02*
X195344900Y-77560400D01*
X195344900Y-77560400D02*
X195344900Y-85052400D01*
X195344900Y-85052400D02*
X197875300Y-87582800D01*
X197875300Y-87582800D02*
X197875300Y-90659400D01*
X197875300Y-90659400D02*
X196850000Y-91684700D01*
X196850000Y-124460000D02*
X192364500Y-119974500D01*
X192364500Y-119974500D02*
X192364500Y-95844500D01*
X192364500Y-95844500D02*
X189230000Y-92710000D01*
X196850000Y-73515300D02*
X196568700Y-73515300D01*
X196568700Y-73515300D02*
X194894600Y-75189400D01*
X194894600Y-75189400D02*
X194894600Y-85919300D01*
X194894600Y-85919300D02*
X196850000Y-87874700D01*
X196850000Y-88900000D02*
X196850000Y-87874700D01*
X196850000Y-72390000D02*
X196850000Y-73515300D01*
X196850000Y-116840000D02*
X192814900Y-112804900D01*
X192814900Y-112804900D02*
X192814900Y-95362300D01*
X192814900Y-95362300D02*
X190988400Y-93535800D01*
X190988400Y-93535800D02*
X190988400Y-90658400D01*
X190988400Y-90658400D02*
X189230000Y-88900000D01*
X196850000Y-84064700D02*
X195795200Y-83009900D01*
X195795200Y-83009900D02*
X195795200Y-80213100D01*
X195795200Y-80213100D02*
X197989500Y-78018800D01*
X197989500Y-78018800D02*
X197989500Y-71914900D01*
X197989500Y-71914900D02*
X197049900Y-70975300D01*
X197049900Y-70975300D02*
X196850000Y-70975300D01*
X196850000Y-85090000D02*
X196850000Y-84064700D01*
X196850000Y-69850000D02*
X196850000Y-70975300D01*
X189230000Y-85090000D02*
X188202500Y-86117500D01*
X188202500Y-86117500D02*
X188202500Y-112197200D01*
X188202500Y-112197200D02*
X189230000Y-113224700D01*
X189230000Y-114300000D02*
X189230000Y-113224700D01*
X196850000Y-68435300D02*
X197131300Y-68435300D01*
X197131300Y-68435300D02*
X197989500Y-69293500D01*
X197989500Y-69293500D02*
X197989500Y-70180400D01*
X197989500Y-70180400D02*
X198439700Y-70630600D01*
X198439700Y-70630600D02*
X198439800Y-70630600D01*
X198439800Y-70630600D02*
X198439800Y-78664900D01*
X198439800Y-78664900D02*
X196850000Y-80254700D01*
X196850000Y-81280000D02*
X196850000Y-80254700D01*
X196850000Y-67310000D02*
X196850000Y-68435300D01*
X189230000Y-81280000D02*
X192640400Y-84690400D01*
X192640400Y-84690400D02*
X192640400Y-94325600D01*
X192640400Y-94325600D02*
X193490300Y-95175500D01*
X193490300Y-95175500D02*
X193490300Y-112513300D01*
X193490300Y-112513300D02*
X196547000Y-115570000D01*
X196547000Y-115570000D02*
X197116500Y-115570000D01*
X197116500Y-115570000D02*
X197940200Y-116393700D01*
X197940200Y-116393700D02*
X197940200Y-125909800D01*
X197940200Y-125909800D02*
X196850000Y-127000000D01*
X210820000Y-106924700D02*
X212767500Y-104977200D01*
X212767500Y-104977200D02*
X212767500Y-96124400D01*
X212767500Y-96124400D02*
X208414300Y-91771200D01*
X208414300Y-91771200D02*
X208414300Y-70828300D01*
X208414300Y-70828300D02*
X203481300Y-65895300D01*
X203481300Y-65895300D02*
X203200000Y-65895300D01*
X203200000Y-64770000D02*
X203200000Y-65895300D01*
X210820000Y-107950000D02*
X210820000Y-106924700D01*
X210820000Y-103114700D02*
X212316300Y-101618400D01*
X212316300Y-101618400D02*
X212316300Y-96424200D01*
X212316300Y-96424200D02*
X207460400Y-91568300D01*
X207460400Y-91568300D02*
X207460400Y-72414400D01*
X207460400Y-72414400D02*
X203481300Y-68435300D01*
X203481300Y-68435300D02*
X203200000Y-68435300D01*
X210820000Y-104140000D02*
X210820000Y-103114700D01*
X203200000Y-67310000D02*
X203200000Y-68435300D01*
X203200000Y-116840000D02*
X204279300Y-115760700D01*
X204279300Y-115760700D02*
X204279300Y-105219300D01*
X204279300Y-105219300D02*
X203200000Y-104140000D01*
X210820000Y-99304700D02*
X209794700Y-98279400D01*
X209794700Y-98279400D02*
X209794700Y-94539600D01*
X209794700Y-94539600D02*
X207010000Y-91754900D01*
X207010000Y-91754900D02*
X207010000Y-74504000D01*
X207010000Y-74504000D02*
X203481300Y-70975300D01*
X203481300Y-70975300D02*
X203200000Y-70975300D01*
X210820000Y-100330000D02*
X210820000Y-99304700D01*
X203200000Y-69850000D02*
X203200000Y-70975300D01*
X203200000Y-129540000D02*
X204749200Y-127990800D01*
X204749200Y-127990800D02*
X204749200Y-101879200D01*
X204749200Y-101879200D02*
X203200000Y-100330000D01*
X210820000Y-96520000D02*
X210820000Y-97545300D01*
X203200000Y-72390000D02*
X205383500Y-74573500D01*
X205383500Y-74573500D02*
X205383500Y-90858400D01*
X205383500Y-90858400D02*
X209257800Y-94732700D01*
X209257800Y-94732700D02*
X209257800Y-100243000D01*
X209257800Y-100243000D02*
X210376100Y-101361300D01*
X210376100Y-101361300D02*
X211279300Y-101361300D01*
X211279300Y-101361300D02*
X211845300Y-100795300D01*
X211845300Y-100795300D02*
X211845300Y-98570600D01*
X211845300Y-98570600D02*
X210820000Y-97545300D01*
X210820000Y-129540000D02*
X205233300Y-123953300D01*
X205233300Y-123953300D02*
X205233300Y-98553300D01*
X205233300Y-98553300D02*
X203200000Y-96520000D01*
X203200000Y-92710000D02*
X206559500Y-96069500D01*
X206559500Y-96069500D02*
X206559500Y-120199500D01*
X206559500Y-120199500D02*
X210820000Y-124460000D01*
X210820000Y-88900000D02*
X210820000Y-87874700D01*
X210820000Y-72390000D02*
X210820000Y-73515300D01*
X210820000Y-73515300D02*
X210538700Y-73515300D01*
X210538700Y-73515300D02*
X209685900Y-74368100D01*
X209685900Y-74368100D02*
X209685900Y-86740600D01*
X209685900Y-86740600D02*
X210820000Y-87874700D01*
X203200000Y-88900000D02*
X203200000Y-91129200D01*
X203200000Y-91129200D02*
X207010000Y-94939200D01*
X207010000Y-94939200D02*
X207010000Y-113030000D01*
X207010000Y-113030000D02*
X210820000Y-116840000D01*
X210820000Y-85090000D02*
X210820000Y-84064700D01*
X210820000Y-69850000D02*
X210820000Y-70975300D01*
X210820000Y-70975300D02*
X211101300Y-70975300D01*
X211101300Y-70975300D02*
X211947200Y-71821200D01*
X211947200Y-71821200D02*
X211947200Y-82937500D01*
X211947200Y-82937500D02*
X210820000Y-84064700D01*
X203200000Y-114300000D02*
X203200000Y-113224700D01*
X203200000Y-113224700D02*
X202155800Y-112180500D01*
X202155800Y-112180500D02*
X202155800Y-86134200D01*
X202155800Y-86134200D02*
X203200000Y-85090000D01*
X203200000Y-81280000D02*
X204933100Y-83013100D01*
X204933100Y-83013100D02*
X204933100Y-91852200D01*
X204933100Y-91852200D02*
X208807400Y-95726500D01*
X208807400Y-95726500D02*
X208807400Y-108430500D01*
X208807400Y-108430500D02*
X211897900Y-111521000D01*
X211897900Y-111521000D02*
X211897900Y-125922100D01*
X211897900Y-125922100D02*
X210820000Y-127000000D01*
X87485300Y-134620000D02*
X87485300Y-149993000D01*
X87485300Y-149993000D02*
X87972600Y-150480300D01*
X87972600Y-150480300D02*
X87972600Y-179962600D01*
X87972600Y-179962600D02*
X87739900Y-180195300D01*
X135890000Y-179070000D02*
X135890000Y-180095300D01*
X158600000Y-207700000D02*
X136915300Y-186015300D01*
X136915300Y-186015300D02*
X136915300Y-181120600D01*
X136915300Y-181120600D02*
X135890000Y-180095300D01*
X86360000Y-134620000D02*
X87485300Y-134620000D01*
X86360000Y-139700000D02*
X86360000Y-149729500D01*
X86360000Y-149729500D02*
X87485400Y-150854900D01*
X87485400Y-150854900D02*
X87485400Y-169305500D01*
X87485400Y-169305500D02*
X87216600Y-169574300D01*
X118960500Y-141953200D02*
X119281400Y-141953200D01*
X119281400Y-141953200D02*
X133592100Y-156263900D01*
X133592100Y-156263900D02*
X133592100Y-164316800D01*
X133592100Y-164316800D02*
X135890000Y-166614700D01*
X78740000Y-134620000D02*
X78740000Y-135745300D01*
X135890000Y-167640000D02*
X135890000Y-166614700D01*
X78740000Y-135745300D02*
X79021300Y-135745300D01*
X79021300Y-135745300D02*
X80230300Y-136954300D01*
X80230300Y-136954300D02*
X80230300Y-137937500D01*
X135890000Y-161534700D02*
X134864700Y-160509400D01*
X134864700Y-160509400D02*
X134864700Y-156826200D01*
X134864700Y-156826200D02*
X118304400Y-140265900D01*
X118304400Y-140265900D02*
X117375600Y-140265900D01*
X135890000Y-162560000D02*
X135890000Y-161534700D01*
X135890000Y-156454700D02*
X120027100Y-140591800D01*
X120027100Y-140591800D02*
X120027100Y-134696500D01*
X78740000Y-124460000D02*
X78740000Y-125585300D01*
X135890000Y-157480000D02*
X135890000Y-156454700D01*
X78740000Y-125585300D02*
X78458700Y-125585300D01*
X78458700Y-125585300D02*
X77614600Y-126429400D01*
X77614600Y-126429400D02*
X77614600Y-127494800D01*
X77614600Y-127494800D02*
X78389800Y-128270000D01*
X78389800Y-128270000D02*
X79813700Y-128270000D01*
X79813700Y-128270000D02*
X80506800Y-128963100D01*
X101769600Y-147315800D02*
X101769600Y-146194600D01*
X101769600Y-146194600D02*
X98917000Y-143342000D01*
X98917000Y-143342000D02*
X98917000Y-123339300D01*
X98917000Y-123339300D02*
X97865900Y-122288200D01*
M02*
