M48
; DRILL file {KiCad 5.1.5+dfsg1-2build2} date Thu 03 Mar 2022 07:49:04 PM
; FORMAT={-:-/ absolute / inch / decimal}
; #@! TF.CreationDate,2022-03-03T19:49:04-05:00
; #@! TF.GenerationSoftware,Kicad,Pcbnew,5.1.5+dfsg1-2build2
; #@! TF.FileFunction,Plated,1,2,PTH
FMAT,2
INCH
T1C0.0157
T2C0.0236
T3C0.0276
T4C0.0315
T5C0.0354
T6C0.0394
T7C0.0433
%
G90
G05
T1
X1.8876Y-5.4369
X2.1258Y-4.7007
X2.2463Y-5.3544
X2.2478Y-5.3031
X2.3086Y-6.4496
X2.3096Y-4.9915
X2.3129Y-6.5313
X2.3718Y-6.5914
X2.3726Y-6.545
X2.3726Y-5.6433
X2.38Y-3.6346
X2.3902Y-3.7196
X2.4116Y-6.5942
X2.4424Y-6.6207
X2.5613Y-6.6018
X2.5848Y-2.1655
X2.971Y-5.9474
X3.0316Y-5.0638
X3.0617Y-4.8569
X3.119Y-4.2769
X3.1289Y-5.5819
X3.1552Y-4.4873
X3.19Y-4.5646
X3.1972Y-4.5166
X3.1989Y-5.597
X3.2277Y-5.565
X3.243Y-4.1824
X3.261Y-4.2717
X3.4994Y-4.8015
X3.5139Y-5.7408
X3.5328Y-6.7328
X3.537Y-5.7832
X3.5431Y-3.1559
X3.5549Y-6.0156
X3.6404Y-3.2223
X3.6452Y-3.972
X3.6452Y-4.0309
X3.6898Y-4.3321
X3.6984Y-6.7742
X3.7184Y-3.3298
X3.7943Y-2.1766
X3.8037Y-2.5951
X3.8316Y-5.2075
X3.8331Y-5.5245
X3.9041Y-6.8675
X3.9441Y-5.1194
X3.9681Y-8.0159
X4.0335Y-4.4014
X4.0443Y-3.3094
X4.0939Y-6.2746
X4.0965Y-3.2756
X4.0995Y-3.2094
X4.1407Y-8.0401
X4.1491Y-3.6281
X4.1654Y-5.7374
X4.168Y-3.5384
X4.1859Y-2.6821
X4.1908Y-3.452
X4.1981Y-4.1912
X4.2663Y-6.5
X4.3106Y-5.6585
X4.3441Y-2.3069
X4.3545Y-5.6816
X4.6274Y-3.7366
X5.1041Y-6.2819
X5.5751Y-5.214
X6.5941Y-4.4163
T2
X4.55Y-7.9
X4.6287Y-7.9
T3
X5.05Y-7.3
X5.35Y-7.3
X7.45Y-4.1
X7.75Y-4.1
X5.05Y-6.4
X5.35Y-6.4
X5.05Y-8.05
X5.35Y-8.05
X5.05Y-7.8
X5.35Y-7.8
X5.8Y-4.1
X6.1Y-4.1
X6.9Y-4.1
X7.2Y-4.1
X6.9Y-4.25
X7.2Y-4.25
X8.0Y-3.5
X8.3Y-3.5
X6.35Y-4.5
X6.35Y-4.6
X6.35Y-4.7
X6.35Y-4.8
X6.35Y-4.9
X6.35Y-5.0
X6.35Y-5.1
X6.65Y-4.5
X6.65Y-4.6
X6.65Y-4.7
X6.65Y-4.8
X6.65Y-4.9
X6.65Y-5.0
X6.65Y-5.1
X8.0Y-3.8
X8.3Y-3.8
X6.35Y-3.5
X6.65Y-3.5
X5.05Y-6.2
X5.35Y-6.2
X8.0Y-3.35
X8.3Y-3.35
X5.8Y-4.5
X5.8Y-4.6
X5.8Y-4.7
X5.8Y-4.8
X5.8Y-4.9
X5.8Y-5.0
X5.8Y-5.1
X6.1Y-4.5
X6.1Y-4.6
X6.1Y-4.7
X6.1Y-4.8
X6.1Y-4.9
X6.1Y-5.0
X6.1Y-5.1
X6.9Y-3.2
X7.2Y-3.2
X5.05Y-7.55
X5.35Y-7.55
X4.45Y-6.8
X4.75Y-6.8
X5.25Y-3.95
X5.55Y-3.95
X5.8Y-3.65
X6.1Y-3.65
X5.55Y-1.6
X5.85Y-1.6
X5.05Y-6.6
X5.35Y-6.6
X6.35Y-4.25
X6.65Y-4.25
X7.45Y-3.65
X7.75Y-3.65
X7.45Y-3.95
X7.75Y-3.95
X7.45Y-3.8
X7.75Y-3.8
X6.35Y-3.35
X6.65Y-3.35
X8.0Y-3.65
X8.3Y-3.65
X5.8Y-3.5
X6.1Y-3.5
X8.0Y-3.2
X8.3Y-3.2
X5.8Y-4.25
X6.1Y-4.25
X6.9Y-3.35
X7.2Y-3.35
X5.8Y-3.95
X6.1Y-3.95
X5.8Y-3.8
X6.1Y-3.8
X8.0Y-4.1
X8.3Y-4.1
X6.35Y-3.2
X6.65Y-3.2
X5.05Y-6.0
X5.35Y-6.0
X6.9Y-3.5
X7.2Y-3.5
X5.05Y-6.8
X5.35Y-6.8
X5.25Y-3.2
X5.55Y-3.2
X5.05Y-7.05
X5.35Y-7.05
X7.45Y-4.5
X7.45Y-4.6
X7.45Y-4.7
X7.45Y-4.8
X7.45Y-4.9
X7.45Y-5.0
X7.45Y-5.1
X7.75Y-4.5
X7.75Y-4.6
X7.75Y-4.7
X7.75Y-4.8
X7.75Y-4.9
X7.75Y-5.0
X7.75Y-5.1
X5.25Y-3.5
X5.55Y-3.5
X4.45Y-6.4
X4.75Y-6.4
X5.8Y-3.35
X6.1Y-3.35
X6.35Y-4.1
X6.65Y-4.1
X5.05Y-8.3
X5.35Y-8.3
X5.25Y-4.1
X5.55Y-4.1
X5.8Y-3.2
X6.1Y-3.2
X7.45Y-3.35
X7.75Y-3.35
X6.9Y-4.5
X6.9Y-4.6
X6.9Y-4.7
X6.9Y-4.8
X6.9Y-4.9
X6.9Y-5.0
X6.9Y-5.1
X7.2Y-4.5
X7.2Y-4.6
X7.2Y-4.7
X7.2Y-4.8
X7.2Y-4.9
X7.2Y-5.0
X7.2Y-5.1
X7.45Y-3.5
X7.75Y-3.5
X6.35Y-3.65
X6.65Y-3.65
X6.9Y-3.95
X7.2Y-3.95
X5.55Y-1.4
X5.85Y-1.4
X7.45Y-4.25
X7.75Y-4.25
X5.25Y-3.8
X5.55Y-3.8
X5.25Y-3.65
X5.55Y-3.65
X6.35Y-3.95
X6.65Y-3.95
X5.25Y-4.5
X5.25Y-4.6
X5.25Y-4.7
X5.25Y-4.8
X5.25Y-4.9
X5.25Y-5.0
X5.25Y-5.1
X5.55Y-4.5
X5.55Y-4.6
X5.55Y-4.7
X5.55Y-4.8
X5.55Y-4.9
X5.55Y-5.0
X5.55Y-5.1
X8.0Y-4.5
X8.0Y-4.6
X8.0Y-4.7
X8.0Y-4.8
X8.0Y-4.9
X8.0Y-5.0
X8.0Y-5.1
X8.3Y-4.5
X8.3Y-4.6
X8.3Y-4.7
X8.3Y-4.8
X8.3Y-4.9
X8.3Y-5.0
X8.3Y-5.1
X7.45Y-3.2
X7.75Y-3.2
X4.45Y-6.6
X4.75Y-6.6
X6.35Y-3.8
X6.65Y-3.8
X6.9Y-3.8
X7.2Y-3.8
X4.45Y-6.2
X4.75Y-6.2
X6.9Y-3.65
X7.2Y-3.65
X5.25Y-3.35
X5.55Y-3.35
X5.25Y-4.25
X5.55Y-4.25
X8.0Y-3.95
X8.3Y-3.95
X8.0Y-4.25
X8.3Y-4.25
T4
X3.4Y-2.25
X3.4Y-2.35
X3.4Y-2.45
X3.4Y-2.55
X3.4Y-2.65
X3.4Y-2.75
X3.4Y-2.85
X3.4Y-2.95
X3.4Y-3.05
X3.4Y-3.15
X3.4Y-3.25
X3.4Y-3.35
X3.4Y-3.45
X3.4Y-3.55
X3.4Y-3.65
X3.4Y-3.75
X3.4Y-3.85
X3.4Y-3.95
X3.4Y-4.05
X3.4Y-4.15
X4.0Y-2.25
X4.0Y-2.35
X4.0Y-2.45
X4.0Y-2.55
X4.0Y-2.65
X4.0Y-2.75
X4.0Y-2.85
X4.0Y-2.95
X4.0Y-3.05
X4.0Y-3.15
X4.0Y-3.25
X4.0Y-3.35
X4.0Y-3.45
X4.0Y-3.55
X4.0Y-3.65
X4.0Y-3.75
X4.0Y-3.85
X4.0Y-3.95
X4.0Y-4.05
X4.0Y-4.15
X3.7531Y-4.4
X3.95Y-4.4
X4.5031Y-3.8
X4.7Y-3.8
X6.9531Y-2.05
X7.15Y-2.05
X6.0Y-1.2
X6.1969Y-1.2
X7.5031Y-2.05
X7.7Y-2.05
X4.45Y-7.3
X4.75Y-7.3
X7.1Y-1.6
X7.4Y-1.6
X3.7531Y-5.8
X3.95Y-5.8
X3.7Y-4.6
X3.7Y-4.7
X3.7Y-4.8
X3.7Y-4.9
X3.7Y-5.0
X3.7Y-5.1
X3.7Y-5.2
X3.7Y-5.3
X3.7Y-5.4
X3.7Y-5.5
X4.0Y-4.6
X4.0Y-4.7
X4.0Y-4.8
X4.0Y-4.9
X4.0Y-5.0
X4.0Y-5.1
X4.0Y-5.2
X4.0Y-5.3
X4.0Y-5.4
X4.0Y-5.5
X2.5531Y-4.4
X2.75Y-4.4
X3.1531Y-5.8
X3.35Y-5.8
X4.5Y-5.7
X4.6929Y-5.7
X2.7031Y-2.05
X2.9Y-2.05
X3.35Y-1.7531
X3.35Y-1.95
X4.3Y-2.25
X4.3Y-2.35
X4.3Y-2.45
X4.3Y-2.55
X4.3Y-2.65
X4.3Y-2.75
X4.3Y-2.85
X4.3Y-2.95
X4.3Y-3.05
X4.3Y-3.15
X4.3Y-3.25
X4.3Y-3.35
X4.3Y-3.45
X4.3Y-3.55
X4.9Y-2.25
X4.9Y-2.35
X4.9Y-2.45
X4.9Y-2.55
X4.9Y-2.65
X4.9Y-2.75
X4.9Y-2.85
X4.9Y-2.95
X4.9Y-3.05
X4.9Y-3.15
X4.9Y-3.25
X4.9Y-3.35
X4.9Y-3.45
X4.9Y-3.55
X4.5031Y-2.05
X4.7Y-2.05
X7.85Y-1.65
X7.9287Y-1.65
X3.6031Y-2.05
X3.8Y-2.05
X6.35Y-2.25
X6.35Y-2.35
X6.35Y-2.45
X6.35Y-2.55
X6.35Y-2.65
X6.35Y-2.75
X6.35Y-2.85
X6.35Y-2.95
X6.65Y-2.25
X6.65Y-2.35
X6.65Y-2.45
X6.65Y-2.55
X6.65Y-2.65
X6.65Y-2.75
X6.65Y-2.85
X6.65Y-2.95
X3.6Y-1.75
X3.7929Y-1.75
X2.5Y-2.25
X2.5Y-2.35
X2.5Y-2.45
X2.5Y-2.55
X2.5Y-2.65
X2.5Y-2.75
X2.5Y-2.85
X2.5Y-2.95
X2.5Y-3.05
X2.5Y-3.15
X2.5Y-3.25
X2.5Y-3.35
X2.5Y-3.45
X2.5Y-3.55
X2.5Y-3.65
X2.5Y-3.75
X2.5Y-3.85
X2.5Y-3.95
X2.5Y-4.05
X2.5Y-4.15
X3.1Y-2.25
X3.1Y-2.35
X3.1Y-2.45
X3.1Y-2.55
X3.1Y-2.65
X3.1Y-2.75
X3.1Y-2.85
X3.1Y-2.95
X3.1Y-3.05
X3.1Y-3.15
X3.1Y-3.25
X3.1Y-3.35
X3.1Y-3.45
X3.1Y-3.55
X3.1Y-3.65
X3.1Y-3.75
X3.1Y-3.85
X3.1Y-3.95
X3.1Y-4.05
X3.1Y-4.15
X7.45Y-2.25
X7.45Y-2.35
X7.45Y-2.45
X7.45Y-2.55
X7.45Y-2.65
X7.45Y-2.75
X7.45Y-2.85
X7.45Y-2.95
X7.75Y-2.25
X7.75Y-2.35
X7.75Y-2.45
X7.75Y-2.55
X7.75Y-2.65
X7.75Y-2.75
X7.75Y-2.85
X7.75Y-2.95
X6.4031Y-2.05
X6.6Y-2.05
X5.55Y-1.2
X5.7469Y-1.2
X4.45Y-7.05
X4.75Y-7.05
X3.1Y-4.6
X3.1Y-4.7
X3.1Y-4.8
X3.1Y-4.9
X3.1Y-5.0
X3.1Y-5.1
X3.1Y-5.2
X3.1Y-5.3
X3.1Y-5.4
X3.1Y-5.5
X3.4Y-4.6
X3.4Y-4.7
X3.4Y-4.8
X3.4Y-4.9
X3.4Y-5.0
X3.4Y-5.1
X3.4Y-5.2
X3.4Y-5.3
X3.4Y-5.4
X3.4Y-5.5
X1.8031Y-2.05
X2.0Y-2.05
X3.7Y-6.0
X3.7Y-6.1
X3.7Y-6.2
X3.7Y-6.3
X3.7Y-6.4
X3.7Y-6.5
X3.7Y-6.6
X4.0Y-6.0
X4.0Y-6.1
X4.0Y-6.2
X4.0Y-6.3
X4.0Y-6.4
X4.0Y-6.5
X4.0Y-6.6
X5.8531Y-2.05
X6.05Y-2.05
X1.6Y-2.25
X1.6Y-2.35
X1.6Y-2.45
X1.6Y-2.55
X1.6Y-2.65
X1.6Y-2.75
X1.6Y-2.85
X1.6Y-2.95
X1.6Y-3.05
X1.6Y-3.15
X1.6Y-3.25
X1.6Y-3.35
X2.2Y-2.25
X2.2Y-2.35
X2.2Y-2.45
X2.2Y-2.55
X2.2Y-2.65
X2.2Y-2.75
X2.2Y-2.85
X2.2Y-2.95
X2.2Y-3.05
X2.2Y-3.15
X2.2Y-3.25
X2.2Y-3.35
X8.0Y-2.25
X8.0Y-2.35
X8.0Y-2.45
X8.0Y-2.55
X8.0Y-2.65
X8.0Y-2.75
X8.0Y-2.85
X8.0Y-2.95
X8.3Y-2.25
X8.3Y-2.35
X8.3Y-2.45
X8.3Y-2.55
X8.3Y-2.65
X8.3Y-2.75
X8.3Y-2.85
X8.3Y-2.95
X2.5531Y-5.8
X2.75Y-5.8
X3.1Y-6.0
X3.1Y-6.1
X3.1Y-6.2
X3.1Y-6.3
X3.1Y-6.4
X3.1Y-6.5
X3.1Y-6.6
X3.4Y-6.0
X3.4Y-6.1
X3.4Y-6.2
X3.4Y-6.3
X3.4Y-6.4
X3.4Y-6.5
X3.4Y-6.6
X6.55Y-1.6
X6.85Y-1.6
X7.8031Y-1.4
X8.0Y-1.4
X5.8Y-2.25
X5.8Y-2.35
X5.8Y-2.45
X5.8Y-2.55
X5.8Y-2.65
X5.8Y-2.75
X5.8Y-2.85
X5.8Y-2.95
X6.1Y-2.25
X6.1Y-2.35
X6.1Y-2.45
X6.1Y-2.55
X6.1Y-2.65
X6.1Y-2.75
X6.1Y-2.85
X6.1Y-2.95
X8.0531Y-2.05
X8.25Y-2.05
X4.3Y-4.0
X4.3Y-4.1
X4.3Y-4.2
X4.3Y-4.3
X4.3Y-4.4
X4.3Y-4.5
X4.3Y-4.6
X4.3Y-4.7
X4.3Y-4.8
X4.3Y-4.9
X4.3Y-5.0
X4.3Y-5.1
X4.3Y-5.2
X4.3Y-5.3
X4.9Y-4.0
X4.9Y-4.1
X4.9Y-4.2
X4.9Y-4.3
X4.9Y-4.4
X4.9Y-4.5
X4.9Y-4.6
X4.9Y-4.7
X4.9Y-4.8
X4.9Y-4.9
X4.9Y-5.0
X4.9Y-5.1
X4.9Y-5.2
X4.9Y-5.3
X6.9Y-2.25
X6.9Y-2.35
X6.9Y-2.45
X6.9Y-2.55
X6.9Y-2.65
X6.9Y-2.75
X6.9Y-2.85
X6.9Y-2.95
X7.2Y-2.25
X7.2Y-2.35
X7.2Y-2.45
X7.2Y-2.55
X7.2Y-2.65
X7.2Y-2.75
X7.2Y-2.85
X7.2Y-2.95
X2.5Y-6.0
X2.5Y-6.1
X2.5Y-6.2
X2.5Y-6.3
X2.5Y-6.4
X2.5Y-6.5
X2.5Y-6.6
X2.5Y-6.7
X2.8Y-6.0
X2.8Y-6.1
X2.8Y-6.2
X2.8Y-6.3
X2.8Y-6.4
X2.8Y-6.5
X2.8Y-6.6
X2.8Y-6.7
X5.3031Y-2.05
X5.5Y-2.05
X3.1531Y-4.4
X3.35Y-4.4
X4.5Y-6.0
X4.6969Y-6.0
X4.05Y-1.75
X4.05Y-1.9469
X5.25Y-2.25
X5.25Y-2.35
X5.25Y-2.45
X5.25Y-2.55
X5.25Y-2.65
X5.25Y-2.75
X5.25Y-2.85
X5.25Y-2.95
X5.55Y-2.25
X5.55Y-2.35
X5.55Y-2.45
X5.55Y-2.55
X5.55Y-2.65
X5.55Y-2.75
X5.55Y-2.85
X5.55Y-2.95
X2.5Y-4.6
X2.5Y-4.7
X2.5Y-4.8
X2.5Y-4.9
X2.5Y-5.0
X2.5Y-5.1
X2.5Y-5.2
X2.5Y-5.3
X2.5Y-5.4
X2.5Y-5.5
X2.8Y-4.6
X2.8Y-4.7
X2.8Y-4.8
X2.8Y-4.9
X2.8Y-5.0
X2.8Y-5.1
X2.8Y-5.2
X2.8Y-5.3
X2.8Y-5.4
X2.8Y-5.5
X4.45Y-7.55
X4.75Y-7.55
T5
X4.6Y-1.2
X4.7Y-1.2
T6
X2.8Y-1.2
X2.9Y-1.2
X1.9Y-1.5
X2.0Y-1.5
X2.1Y-1.5
X2.95Y-7.2
X2.95Y-7.3
X2.95Y-7.4
X1.95Y-1.2
X2.05Y-1.2
X2.15Y-1.2
X2.25Y-1.2
X2.35Y-1.2
X2.45Y-1.2
X3.4Y-7.2
X3.4Y-7.3
X3.4Y-7.4
X3.25Y-7.2
X3.25Y-7.3
X3.25Y-7.4
X3.55Y-7.2
X3.55Y-7.3
X3.55Y-7.4
X3.1Y-7.2
X3.1Y-7.3
X3.1Y-7.4
X5.0Y-1.2
X5.1Y-1.2
X3.3Y-1.2
X3.4Y-1.2
X3.5Y-1.2
X3.8Y-1.2
X3.9Y-1.2
X2.2Y-8.1
X2.2Y-8.2
X2.3Y-8.1
X2.3Y-8.2
X2.4Y-8.1
X2.4Y-8.2
X2.5Y-8.1
X2.5Y-8.2
X2.6Y-8.1
X2.6Y-8.2
X2.7Y-8.1
X2.7Y-8.2
X2.8Y-8.1
X2.8Y-8.2
X2.9Y-8.1
X2.9Y-8.2
X3.0Y-8.1
X3.0Y-8.2
X3.1Y-8.1
X3.1Y-8.2
X3.2Y-8.1
X3.2Y-8.2
X3.3Y-8.1
X3.3Y-8.2
X3.4Y-8.1
X3.4Y-8.2
X3.5Y-8.1
X3.5Y-8.2
X3.6Y-8.1
X3.6Y-8.2
X3.7Y-8.1
X3.7Y-8.2
X3.8Y-8.1
X3.8Y-8.2
X3.9Y-8.1
X3.9Y-8.2
X4.0Y-8.1
X4.0Y-8.2
X4.1Y-8.1
X4.1Y-8.2
X4.2Y-1.2
X4.3Y-1.2
X2.4Y-1.5
X2.5Y-1.5
X2.6Y-1.5
X2.8Y-7.2
X2.8Y-7.3
X2.8Y-7.4
X1.65Y-4.4
X1.65Y-4.5
X1.65Y-4.6
X1.65Y-4.7
X1.65Y-4.8
X1.65Y-4.9
X1.65Y-5.0
X1.65Y-5.1
X1.65Y-5.2
X1.65Y-5.3
X1.65Y-5.4
X1.65Y-5.5
X1.75Y-4.4
X1.75Y-4.5
X1.75Y-4.6
X1.75Y-4.7
X1.75Y-4.8
X1.75Y-4.9
X1.75Y-5.0
X1.75Y-5.1
X1.75Y-5.2
X1.75Y-5.3
X1.75Y-5.4
X1.75Y-5.5
X5.3Y-5.55
X5.4Y-5.55
T7
X7.35Y-6.0
X7.35Y-6.1772
X7.6059Y-6.0
X7.6059Y-6.1772
X6.65Y-7.5
X6.65Y-7.6772
X6.9059Y-7.5
X6.9059Y-7.6772
X5.95Y-7.5
X5.95Y-7.6772
X6.2059Y-7.5
X6.2059Y-7.6772
X6.65Y-6.5
X6.65Y-6.6772
X6.9059Y-6.5
X6.9059Y-6.6772
X6.65Y-5.5
X6.65Y-5.6772
X6.9059Y-5.5
X6.9059Y-5.6772
X7.0Y-8.0
X7.0Y-8.1772
X7.2559Y-8.0
X7.2559Y-8.1772
X5.95Y-6.0
X5.95Y-6.1772
X6.2059Y-6.0
X6.2059Y-6.1772
X5.95Y-7.0
X5.95Y-7.1772
X6.2059Y-7.0
X6.2059Y-7.1772
X7.8Y-1.2
X7.9Y-1.2
X8.0Y-1.2
X6.2441Y-8.0
X6.2441Y-8.1772
X6.5Y-8.0
X6.5Y-8.1772
X7.1Y-1.2
X7.5Y-1.2
X6.65Y-6.0
X6.65Y-6.1772
X6.9059Y-6.0
X6.9059Y-6.1772
X6.45Y-1.4
X6.85Y-1.4
X5.95Y-5.5
X5.95Y-5.6772
X6.2059Y-5.5
X6.2059Y-5.6772
X7.35Y-7.5
X7.35Y-7.6772
X7.6059Y-7.5
X7.6059Y-7.6772
X5.95Y-6.5
X5.95Y-6.6772
X6.2059Y-6.5
X6.2059Y-6.6772
X6.65Y-7.0
X6.65Y-7.1772
X6.9059Y-7.0
X6.9059Y-7.1772
X7.1Y-1.4
X7.5Y-1.4
X7.35Y-7.0
X7.35Y-7.1772
X7.6059Y-7.0
X7.6059Y-7.1772
X7.35Y-5.5
X7.35Y-5.6772
X7.6059Y-5.5
X7.6059Y-5.6772
X6.45Y-1.2
X6.85Y-1.2
X7.35Y-6.5
X7.35Y-6.6772
X7.6059Y-6.5
X7.6059Y-6.6772
T0
M30
