G04 #@! TF.GenerationSoftware,KiCad,Pcbnew,5.1.5+dfsg1-2build2*
G04 #@! TF.CreationDate,2022-02-12T11:59:32-05:00*
G04 #@! TF.ProjectId,6800sbc,36383030-7362-4632-9e6b-696361645f70,rev?*
G04 #@! TF.SameCoordinates,Original*
G04 #@! TF.FileFunction,Copper,L2,Bot*
G04 #@! TF.FilePolarity,Positive*
%FSLAX46Y46*%
G04 Gerber Fmt 4.6, Leading zero omitted, Abs format (unit mm)*
G04 Created by KiCad (PCBNEW 5.1.5+dfsg1-2build2) date 2022-02-12 11:59:32*
%MOMM*%
%LPD*%
G04 APERTURE LIST*
%ADD10O,1.400000X1.400000*%
%ADD11C,1.400000*%
%ADD12O,1.700000X1.700000*%
%ADD13R,1.700000X1.700000*%
%ADD14O,1.600000X1.600000*%
%ADD15R,1.600000X1.600000*%
%ADD16O,2.200000X2.200000*%
%ADD17R,2.200000X2.200000*%
%ADD18C,1.500000*%
%ADD19R,1.500000X1.500000*%
%ADD20O,1.905000X2.000000*%
%ADD21R,1.905000X2.000000*%
%ADD22C,2.000000*%
%ADD23C,1.800000*%
%ADD24R,1.800000X1.800000*%
%ADD25C,1.600000*%
%ADD26C,1.200000*%
%ADD27R,1.200000X1.200000*%
%ADD28C,0.800000*%
%ADD29C,0.500000*%
%ADD30C,0.250000*%
G04 APERTURE END LIST*
D10*
X135890000Y-198120000D03*
D11*
X128270000Y-198120000D03*
D10*
X135890000Y-185420000D03*
D11*
X128270000Y-185420000D03*
D10*
X135890000Y-191770000D03*
D11*
X128270000Y-191770000D03*
D10*
X135890000Y-204470000D03*
D11*
X128270000Y-204470000D03*
D10*
X135890000Y-210820000D03*
D11*
X128270000Y-210820000D03*
D10*
X135890000Y-152400000D03*
D11*
X128270000Y-152400000D03*
D10*
X135890000Y-157480000D03*
D11*
X128270000Y-157480000D03*
D10*
X135890000Y-162560000D03*
D11*
X128270000Y-162560000D03*
D10*
X135890000Y-167640000D03*
D11*
X128270000Y-167640000D03*
D10*
X135890000Y-172720000D03*
D11*
X128270000Y-172720000D03*
D10*
X135890000Y-179070000D03*
D11*
X128270000Y-179070000D03*
D12*
X90170000Y-182880000D03*
X90170000Y-185420000D03*
D13*
X90170000Y-187960000D03*
D12*
X86360000Y-182880000D03*
X86360000Y-185420000D03*
D13*
X86360000Y-187960000D03*
D12*
X82550000Y-182880000D03*
X82550000Y-185420000D03*
D13*
X82550000Y-187960000D03*
D12*
X78740000Y-182880000D03*
X78740000Y-185420000D03*
D13*
X78740000Y-187960000D03*
D12*
X74930000Y-182880000D03*
X74930000Y-185420000D03*
D13*
X74930000Y-187960000D03*
D12*
X71120000Y-182880000D03*
X71120000Y-185420000D03*
D13*
X71120000Y-187960000D03*
D14*
X55880000Y-57150000D03*
X40640000Y-85090000D03*
X55880000Y-59690000D03*
X40640000Y-82550000D03*
X55880000Y-62230000D03*
X40640000Y-80010000D03*
X55880000Y-64770000D03*
X40640000Y-77470000D03*
X55880000Y-67310000D03*
X40640000Y-74930000D03*
X55880000Y-69850000D03*
X40640000Y-72390000D03*
X55880000Y-72390000D03*
X40640000Y-69850000D03*
X55880000Y-74930000D03*
X40640000Y-67310000D03*
X55880000Y-77470000D03*
X40640000Y-64770000D03*
X55880000Y-80010000D03*
X40640000Y-62230000D03*
X55880000Y-82550000D03*
X40640000Y-59690000D03*
X55880000Y-85090000D03*
D15*
X40640000Y-57150000D03*
D10*
X210820000Y-81280000D03*
D11*
X203200000Y-81280000D03*
D10*
X210820000Y-85090000D03*
D11*
X203200000Y-85090000D03*
D10*
X210820000Y-88900000D03*
D11*
X203200000Y-88900000D03*
D10*
X210820000Y-92710000D03*
D11*
X203200000Y-92710000D03*
D10*
X210820000Y-96520000D03*
D11*
X203200000Y-96520000D03*
D10*
X210820000Y-100330000D03*
D11*
X203200000Y-100330000D03*
D10*
X210820000Y-104140000D03*
D11*
X203200000Y-104140000D03*
D10*
X210820000Y-107950000D03*
D11*
X203200000Y-107950000D03*
D10*
X196850000Y-81280000D03*
D11*
X189230000Y-81280000D03*
D10*
X196850000Y-85090000D03*
D11*
X189230000Y-85090000D03*
D10*
X196850000Y-88900000D03*
D11*
X189230000Y-88900000D03*
D10*
X196850000Y-92710000D03*
D11*
X189230000Y-92710000D03*
D10*
X196850000Y-96520000D03*
D11*
X189230000Y-96520000D03*
D10*
X196850000Y-100330000D03*
D11*
X189230000Y-100330000D03*
D10*
X196850000Y-104140000D03*
D11*
X189230000Y-104140000D03*
D10*
X196850000Y-107950000D03*
D11*
X189230000Y-107950000D03*
D10*
X182880000Y-81280000D03*
D11*
X175260000Y-81280000D03*
D10*
X182880000Y-85090000D03*
D11*
X175260000Y-85090000D03*
D10*
X182880000Y-88900000D03*
D11*
X175260000Y-88900000D03*
D10*
X182880000Y-92710000D03*
D11*
X175260000Y-92710000D03*
D10*
X182880000Y-96520000D03*
D11*
X175260000Y-96520000D03*
D10*
X182880000Y-100330000D03*
D11*
X175260000Y-100330000D03*
D10*
X182880000Y-104140000D03*
D11*
X175260000Y-104140000D03*
D10*
X182880000Y-107950000D03*
D11*
X175260000Y-107950000D03*
D10*
X168910000Y-81280000D03*
D11*
X161290000Y-81280000D03*
D10*
X168910000Y-85090000D03*
D11*
X161290000Y-85090000D03*
D10*
X168910000Y-88900000D03*
D11*
X161290000Y-88900000D03*
D10*
X168910000Y-92710000D03*
D11*
X161290000Y-92710000D03*
D10*
X168910000Y-96520000D03*
D11*
X161290000Y-96520000D03*
D10*
X168910000Y-100330000D03*
D11*
X161290000Y-100330000D03*
D10*
X168910000Y-104140000D03*
D11*
X161290000Y-104140000D03*
D10*
X168910000Y-107950000D03*
D11*
X161290000Y-107950000D03*
D10*
X154940000Y-81280000D03*
D11*
X147320000Y-81280000D03*
D10*
X154940000Y-85090000D03*
D11*
X147320000Y-85090000D03*
D10*
X154940000Y-88900000D03*
D11*
X147320000Y-88900000D03*
D10*
X154940000Y-92710000D03*
D11*
X147320000Y-92710000D03*
D10*
X154940000Y-96520000D03*
D11*
X147320000Y-96520000D03*
D10*
X154940000Y-100330000D03*
D11*
X147320000Y-100330000D03*
D10*
X154940000Y-104140000D03*
D11*
X147320000Y-104140000D03*
D10*
X154940000Y-107950000D03*
D11*
X147320000Y-107950000D03*
D10*
X140970000Y-81280000D03*
D11*
X133350000Y-81280000D03*
D10*
X140970000Y-85090000D03*
D11*
X133350000Y-85090000D03*
D10*
X140970000Y-88900000D03*
D11*
X133350000Y-88900000D03*
D10*
X140970000Y-92710000D03*
D11*
X133350000Y-92710000D03*
D10*
X140970000Y-96520000D03*
D11*
X133350000Y-96520000D03*
D10*
X140970000Y-100330000D03*
D11*
X133350000Y-100330000D03*
D10*
X140970000Y-104140000D03*
D11*
X133350000Y-104140000D03*
D10*
X140970000Y-107950000D03*
D11*
X133350000Y-107950000D03*
D12*
X129540000Y-30480000D03*
D13*
X127000000Y-30480000D03*
D12*
X137160000Y-140970000D03*
D13*
X134620000Y-140970000D03*
D16*
X180340000Y-30480000D03*
D17*
X190500000Y-30480000D03*
D16*
X180340000Y-35560000D03*
D17*
X190500000Y-35560000D03*
D16*
X163830000Y-35560000D03*
D17*
X173990000Y-35560000D03*
D16*
X163830000Y-30480000D03*
D17*
X173990000Y-30480000D03*
D18*
X96340000Y-44450000D03*
X91440000Y-44450000D03*
X119200000Y-144780000D03*
X114300000Y-144780000D03*
D14*
X86360000Y-152400000D03*
X78740000Y-167640000D03*
X86360000Y-154940000D03*
X78740000Y-165100000D03*
X86360000Y-157480000D03*
X78740000Y-162560000D03*
X86360000Y-160020000D03*
X78740000Y-160020000D03*
X86360000Y-162560000D03*
X78740000Y-157480000D03*
X86360000Y-165100000D03*
X78740000Y-154940000D03*
X86360000Y-167640000D03*
D15*
X78740000Y-152400000D03*
D14*
X71120000Y-152400000D03*
X63500000Y-170180000D03*
X71120000Y-154940000D03*
X63500000Y-167640000D03*
X71120000Y-157480000D03*
X63500000Y-165100000D03*
X71120000Y-160020000D03*
X63500000Y-162560000D03*
X71120000Y-162560000D03*
X63500000Y-160020000D03*
X71120000Y-165100000D03*
X63500000Y-157480000D03*
X71120000Y-167640000D03*
X63500000Y-154940000D03*
X71120000Y-170180000D03*
D15*
X63500000Y-152400000D03*
D14*
X101600000Y-116840000D03*
X93980000Y-139700000D03*
X101600000Y-119380000D03*
X93980000Y-137160000D03*
X101600000Y-121920000D03*
X93980000Y-134620000D03*
X101600000Y-124460000D03*
X93980000Y-132080000D03*
X101600000Y-127000000D03*
X93980000Y-129540000D03*
X101600000Y-129540000D03*
X93980000Y-127000000D03*
X101600000Y-132080000D03*
X93980000Y-124460000D03*
X101600000Y-134620000D03*
X93980000Y-121920000D03*
X101600000Y-137160000D03*
X93980000Y-119380000D03*
X101600000Y-139700000D03*
D15*
X93980000Y-116840000D03*
D14*
X71120000Y-116840000D03*
X63500000Y-139700000D03*
X71120000Y-119380000D03*
X63500000Y-137160000D03*
X71120000Y-121920000D03*
X63500000Y-134620000D03*
X71120000Y-124460000D03*
X63500000Y-132080000D03*
X71120000Y-127000000D03*
X63500000Y-129540000D03*
X71120000Y-129540000D03*
X63500000Y-127000000D03*
X71120000Y-132080000D03*
X63500000Y-124460000D03*
X71120000Y-134620000D03*
X63500000Y-121920000D03*
X71120000Y-137160000D03*
X63500000Y-119380000D03*
X71120000Y-139700000D03*
D15*
X63500000Y-116840000D03*
D14*
X101600000Y-57150000D03*
X86360000Y-105410000D03*
X101600000Y-59690000D03*
X86360000Y-102870000D03*
X101600000Y-62230000D03*
X86360000Y-100330000D03*
X101600000Y-64770000D03*
X86360000Y-97790000D03*
X101600000Y-67310000D03*
X86360000Y-95250000D03*
X101600000Y-69850000D03*
X86360000Y-92710000D03*
X101600000Y-72390000D03*
X86360000Y-90170000D03*
X101600000Y-74930000D03*
X86360000Y-87630000D03*
X101600000Y-77470000D03*
X86360000Y-85090000D03*
X101600000Y-80010000D03*
X86360000Y-82550000D03*
X101600000Y-82550000D03*
X86360000Y-80010000D03*
X101600000Y-85090000D03*
X86360000Y-77470000D03*
X101600000Y-87630000D03*
X86360000Y-74930000D03*
X101600000Y-90170000D03*
X86360000Y-72390000D03*
X101600000Y-92710000D03*
X86360000Y-69850000D03*
X101600000Y-95250000D03*
X86360000Y-67310000D03*
X101600000Y-97790000D03*
X86360000Y-64770000D03*
X101600000Y-100330000D03*
X86360000Y-62230000D03*
X101600000Y-102870000D03*
X86360000Y-59690000D03*
X101600000Y-105410000D03*
D15*
X86360000Y-57150000D03*
D14*
X124460000Y-57150000D03*
X109220000Y-90170000D03*
X124460000Y-59690000D03*
X109220000Y-87630000D03*
X124460000Y-62230000D03*
X109220000Y-85090000D03*
X124460000Y-64770000D03*
X109220000Y-82550000D03*
X124460000Y-67310000D03*
X109220000Y-80010000D03*
X124460000Y-69850000D03*
X109220000Y-77470000D03*
X124460000Y-72390000D03*
X109220000Y-74930000D03*
X124460000Y-74930000D03*
X109220000Y-72390000D03*
X124460000Y-77470000D03*
X109220000Y-69850000D03*
X124460000Y-80010000D03*
X109220000Y-67310000D03*
X124460000Y-82550000D03*
X109220000Y-64770000D03*
X124460000Y-85090000D03*
X109220000Y-62230000D03*
X124460000Y-87630000D03*
X109220000Y-59690000D03*
X124460000Y-90170000D03*
D15*
X109220000Y-57150000D03*
D14*
X124460000Y-101600000D03*
X109220000Y-134620000D03*
X124460000Y-104140000D03*
X109220000Y-132080000D03*
X124460000Y-106680000D03*
X109220000Y-129540000D03*
X124460000Y-109220000D03*
X109220000Y-127000000D03*
X124460000Y-111760000D03*
X109220000Y-124460000D03*
X124460000Y-114300000D03*
X109220000Y-121920000D03*
X124460000Y-116840000D03*
X109220000Y-119380000D03*
X124460000Y-119380000D03*
X109220000Y-116840000D03*
X124460000Y-121920000D03*
X109220000Y-114300000D03*
X124460000Y-124460000D03*
X109220000Y-111760000D03*
X124460000Y-127000000D03*
X109220000Y-109220000D03*
X124460000Y-129540000D03*
X109220000Y-106680000D03*
X124460000Y-132080000D03*
X109220000Y-104140000D03*
X124460000Y-134620000D03*
D15*
X109220000Y-101600000D03*
D14*
X86360000Y-116840000D03*
X78740000Y-139700000D03*
X86360000Y-119380000D03*
X78740000Y-137160000D03*
X86360000Y-121920000D03*
X78740000Y-134620000D03*
X86360000Y-124460000D03*
X78740000Y-132080000D03*
X86360000Y-127000000D03*
X78740000Y-129540000D03*
X86360000Y-129540000D03*
X78740000Y-127000000D03*
X86360000Y-132080000D03*
X78740000Y-124460000D03*
X86360000Y-134620000D03*
X78740000Y-121920000D03*
X86360000Y-137160000D03*
X78740000Y-119380000D03*
X86360000Y-139700000D03*
D15*
X78740000Y-116840000D03*
D14*
X210820000Y-57150000D03*
X203200000Y-74930000D03*
X210820000Y-59690000D03*
X203200000Y-72390000D03*
X210820000Y-62230000D03*
X203200000Y-69850000D03*
X210820000Y-64770000D03*
X203200000Y-67310000D03*
X210820000Y-67310000D03*
X203200000Y-64770000D03*
X210820000Y-69850000D03*
X203200000Y-62230000D03*
X210820000Y-72390000D03*
X203200000Y-59690000D03*
X210820000Y-74930000D03*
D15*
X203200000Y-57150000D03*
D14*
X196850000Y-57150000D03*
X189230000Y-74930000D03*
X196850000Y-59690000D03*
X189230000Y-72390000D03*
X196850000Y-62230000D03*
X189230000Y-69850000D03*
X196850000Y-64770000D03*
X189230000Y-67310000D03*
X196850000Y-67310000D03*
X189230000Y-64770000D03*
X196850000Y-69850000D03*
X189230000Y-62230000D03*
X196850000Y-72390000D03*
X189230000Y-59690000D03*
X196850000Y-74930000D03*
D15*
X189230000Y-57150000D03*
D14*
X182880000Y-57150000D03*
X175260000Y-74930000D03*
X182880000Y-59690000D03*
X175260000Y-72390000D03*
X182880000Y-62230000D03*
X175260000Y-69850000D03*
X182880000Y-64770000D03*
X175260000Y-67310000D03*
X182880000Y-67310000D03*
X175260000Y-64770000D03*
X182880000Y-69850000D03*
X175260000Y-62230000D03*
X182880000Y-72390000D03*
X175260000Y-59690000D03*
X182880000Y-74930000D03*
D15*
X175260000Y-57150000D03*
D14*
X168910000Y-57150000D03*
X161290000Y-74930000D03*
X168910000Y-59690000D03*
X161290000Y-72390000D03*
X168910000Y-62230000D03*
X161290000Y-69850000D03*
X168910000Y-64770000D03*
X161290000Y-67310000D03*
X168910000Y-67310000D03*
X161290000Y-64770000D03*
X168910000Y-69850000D03*
X161290000Y-62230000D03*
X168910000Y-72390000D03*
X161290000Y-59690000D03*
X168910000Y-74930000D03*
D15*
X161290000Y-57150000D03*
D14*
X154940000Y-57150000D03*
X147320000Y-74930000D03*
X154940000Y-59690000D03*
X147320000Y-72390000D03*
X154940000Y-62230000D03*
X147320000Y-69850000D03*
X154940000Y-64770000D03*
X147320000Y-67310000D03*
X154940000Y-67310000D03*
X147320000Y-64770000D03*
X154940000Y-69850000D03*
X147320000Y-62230000D03*
X154940000Y-72390000D03*
X147320000Y-59690000D03*
X154940000Y-74930000D03*
D15*
X147320000Y-57150000D03*
D14*
X140970000Y-57150000D03*
X133350000Y-74930000D03*
X140970000Y-59690000D03*
X133350000Y-72390000D03*
X140970000Y-62230000D03*
X133350000Y-69850000D03*
X140970000Y-64770000D03*
X133350000Y-67310000D03*
X140970000Y-67310000D03*
X133350000Y-64770000D03*
X140970000Y-69850000D03*
X133350000Y-62230000D03*
X140970000Y-72390000D03*
X133350000Y-59690000D03*
X140970000Y-74930000D03*
D15*
X133350000Y-57150000D03*
D18*
X210820000Y-114300000D03*
X210820000Y-116840000D03*
X210820000Y-119380000D03*
X210820000Y-121920000D03*
X210820000Y-124460000D03*
X210820000Y-127000000D03*
X210820000Y-129540000D03*
X203200000Y-129540000D03*
X203200000Y-127000000D03*
X203200000Y-124460000D03*
X203200000Y-121920000D03*
X203200000Y-119380000D03*
X203200000Y-116840000D03*
D19*
X203200000Y-114300000D03*
D18*
X196850000Y-114300000D03*
X196850000Y-116840000D03*
X196850000Y-119380000D03*
X196850000Y-121920000D03*
X196850000Y-124460000D03*
X196850000Y-127000000D03*
X196850000Y-129540000D03*
X189230000Y-129540000D03*
X189230000Y-127000000D03*
X189230000Y-124460000D03*
X189230000Y-121920000D03*
X189230000Y-119380000D03*
X189230000Y-116840000D03*
D19*
X189230000Y-114300000D03*
D18*
X182880000Y-114300000D03*
X182880000Y-116840000D03*
X182880000Y-119380000D03*
X182880000Y-121920000D03*
X182880000Y-124460000D03*
X182880000Y-127000000D03*
X182880000Y-129540000D03*
X175260000Y-129540000D03*
X175260000Y-127000000D03*
X175260000Y-124460000D03*
X175260000Y-121920000D03*
X175260000Y-119380000D03*
X175260000Y-116840000D03*
D19*
X175260000Y-114300000D03*
D18*
X168910000Y-114300000D03*
X168910000Y-116840000D03*
X168910000Y-119380000D03*
X168910000Y-121920000D03*
X168910000Y-124460000D03*
X168910000Y-127000000D03*
X168910000Y-129540000D03*
X161290000Y-129540000D03*
X161290000Y-127000000D03*
X161290000Y-124460000D03*
X161290000Y-121920000D03*
X161290000Y-119380000D03*
X161290000Y-116840000D03*
D19*
X161290000Y-114300000D03*
D18*
X154940000Y-114300000D03*
X154940000Y-116840000D03*
X154940000Y-119380000D03*
X154940000Y-121920000D03*
X154940000Y-124460000D03*
X154940000Y-127000000D03*
X154940000Y-129540000D03*
X147320000Y-129540000D03*
X147320000Y-127000000D03*
X147320000Y-124460000D03*
X147320000Y-121920000D03*
X147320000Y-119380000D03*
X147320000Y-116840000D03*
D19*
X147320000Y-114300000D03*
D18*
X140970000Y-114300000D03*
X140970000Y-116840000D03*
X140970000Y-119380000D03*
X140970000Y-121920000D03*
X140970000Y-124460000D03*
X140970000Y-127000000D03*
X140970000Y-129540000D03*
X133350000Y-129540000D03*
X133350000Y-127000000D03*
X133350000Y-124460000D03*
X133350000Y-121920000D03*
X133350000Y-119380000D03*
X133350000Y-116840000D03*
D19*
X133350000Y-114300000D03*
D14*
X101600000Y-152400000D03*
X93980000Y-167640000D03*
X101600000Y-154940000D03*
X93980000Y-165100000D03*
X101600000Y-157480000D03*
X93980000Y-162560000D03*
X101600000Y-160020000D03*
X93980000Y-160020000D03*
X101600000Y-162560000D03*
X93980000Y-157480000D03*
X101600000Y-165100000D03*
X93980000Y-154940000D03*
X101600000Y-167640000D03*
D15*
X93980000Y-152400000D03*
D14*
X78740000Y-57150000D03*
X63500000Y-105410000D03*
X78740000Y-59690000D03*
X63500000Y-102870000D03*
X78740000Y-62230000D03*
X63500000Y-100330000D03*
X78740000Y-64770000D03*
X63500000Y-97790000D03*
X78740000Y-67310000D03*
X63500000Y-95250000D03*
X78740000Y-69850000D03*
X63500000Y-92710000D03*
X78740000Y-72390000D03*
X63500000Y-90170000D03*
X78740000Y-74930000D03*
X63500000Y-87630000D03*
X78740000Y-77470000D03*
X63500000Y-85090000D03*
X78740000Y-80010000D03*
X63500000Y-82550000D03*
X78740000Y-82550000D03*
X63500000Y-80010000D03*
X78740000Y-85090000D03*
X63500000Y-77470000D03*
X78740000Y-87630000D03*
X63500000Y-74930000D03*
X78740000Y-90170000D03*
X63500000Y-72390000D03*
X78740000Y-92710000D03*
X63500000Y-69850000D03*
X78740000Y-95250000D03*
X63500000Y-67310000D03*
X78740000Y-97790000D03*
X63500000Y-64770000D03*
X78740000Y-100330000D03*
X63500000Y-62230000D03*
X78740000Y-102870000D03*
X63500000Y-59690000D03*
X78740000Y-105410000D03*
D15*
X63500000Y-57150000D03*
D20*
X203200000Y-30480000D03*
X200660000Y-30480000D03*
D21*
X198120000Y-30480000D03*
D22*
X184300000Y-203200000D03*
X184300000Y-207700000D03*
X177800000Y-203200000D03*
X177800000Y-207700000D03*
X165100000Y-203200000D03*
X165100000Y-207700000D03*
X158600000Y-203200000D03*
X158600000Y-207700000D03*
X193190000Y-190500000D03*
X193190000Y-195000000D03*
X186690000Y-190500000D03*
X186690000Y-195000000D03*
X175410000Y-190500000D03*
X175410000Y-195000000D03*
X168910000Y-190500000D03*
X168910000Y-195000000D03*
X157630000Y-190500000D03*
X157630000Y-195000000D03*
X151130000Y-190500000D03*
X151130000Y-195000000D03*
X193190000Y-177800000D03*
X193190000Y-182300000D03*
X186690000Y-177800000D03*
X186690000Y-182300000D03*
X175410000Y-177800000D03*
X175410000Y-182300000D03*
X168910000Y-177800000D03*
X168910000Y-182300000D03*
X157630000Y-177800000D03*
X157630000Y-182300000D03*
X151130000Y-177800000D03*
X151130000Y-182300000D03*
X193190000Y-165100000D03*
X193190000Y-169600000D03*
X186690000Y-165100000D03*
X186690000Y-169600000D03*
X175410000Y-165100000D03*
X175410000Y-169600000D03*
X168910000Y-165100000D03*
X168910000Y-169600000D03*
X157630000Y-165100000D03*
X157630000Y-169600000D03*
X151130000Y-165100000D03*
X151130000Y-169600000D03*
X193190000Y-152400000D03*
X193190000Y-156900000D03*
X186690000Y-152400000D03*
X186690000Y-156900000D03*
X175410000Y-152400000D03*
X175410000Y-156900000D03*
X168910000Y-152400000D03*
X168910000Y-156900000D03*
X157630000Y-152400000D03*
X157630000Y-156900000D03*
X151130000Y-152400000D03*
X151130000Y-156900000D03*
X193190000Y-139700000D03*
X193190000Y-144200000D03*
X186690000Y-139700000D03*
X186690000Y-144200000D03*
X175410000Y-139700000D03*
X175410000Y-144200000D03*
X168910000Y-139700000D03*
X168910000Y-144200000D03*
X157630000Y-139700000D03*
X157630000Y-144200000D03*
X151130000Y-139700000D03*
X151130000Y-144200000D03*
D10*
X120650000Y-167640000D03*
D11*
X113030000Y-167640000D03*
D10*
X120650000Y-172720000D03*
D11*
X113030000Y-172720000D03*
D10*
X120650000Y-162560000D03*
D11*
X113030000Y-162560000D03*
D10*
X120650000Y-157480000D03*
D11*
X113030000Y-157480000D03*
D10*
X148590000Y-40640000D03*
D11*
X140970000Y-40640000D03*
D10*
X148590000Y-35560000D03*
D11*
X140970000Y-35560000D03*
D12*
X73660000Y-30480000D03*
D13*
X71120000Y-30480000D03*
D12*
X62230000Y-30480000D03*
X59690000Y-30480000D03*
X57150000Y-30480000D03*
X54610000Y-30480000D03*
X52070000Y-30480000D03*
D13*
X49530000Y-30480000D03*
D12*
X53340000Y-38100000D03*
X50800000Y-38100000D03*
D13*
X48260000Y-38100000D03*
D12*
X55880000Y-208280000D03*
X55880000Y-205740000D03*
X58420000Y-208280000D03*
X58420000Y-205740000D03*
X60960000Y-208280000D03*
X60960000Y-205740000D03*
X63500000Y-208280000D03*
X63500000Y-205740000D03*
X66040000Y-208280000D03*
X66040000Y-205740000D03*
X68580000Y-208280000D03*
X68580000Y-205740000D03*
X71120000Y-208280000D03*
X71120000Y-205740000D03*
X73660000Y-208280000D03*
X73660000Y-205740000D03*
X76200000Y-208280000D03*
X76200000Y-205740000D03*
X78740000Y-208280000D03*
X78740000Y-205740000D03*
X81280000Y-208280000D03*
X81280000Y-205740000D03*
X83820000Y-208280000D03*
X83820000Y-205740000D03*
X86360000Y-208280000D03*
X86360000Y-205740000D03*
X88900000Y-208280000D03*
X88900000Y-205740000D03*
X91440000Y-208280000D03*
X91440000Y-205740000D03*
X93980000Y-208280000D03*
X93980000Y-205740000D03*
X96520000Y-208280000D03*
X96520000Y-205740000D03*
X99060000Y-208280000D03*
X99060000Y-205740000D03*
X101600000Y-208280000D03*
X101600000Y-205740000D03*
X104140000Y-208280000D03*
D13*
X104140000Y-205740000D03*
D12*
X88900000Y-30480000D03*
X86360000Y-30480000D03*
D13*
X83820000Y-30480000D03*
D12*
X66040000Y-38100000D03*
X63500000Y-38100000D03*
D13*
X60960000Y-38100000D03*
D12*
X41910000Y-111760000D03*
X44450000Y-111760000D03*
X41910000Y-114300000D03*
X44450000Y-114300000D03*
X41910000Y-116840000D03*
X44450000Y-116840000D03*
X41910000Y-119380000D03*
X44450000Y-119380000D03*
X41910000Y-121920000D03*
X44450000Y-121920000D03*
X41910000Y-124460000D03*
X44450000Y-124460000D03*
X41910000Y-127000000D03*
X44450000Y-127000000D03*
X41910000Y-129540000D03*
X44450000Y-129540000D03*
X41910000Y-132080000D03*
X44450000Y-132080000D03*
X41910000Y-134620000D03*
X44450000Y-134620000D03*
X41910000Y-137160000D03*
X44450000Y-137160000D03*
X41910000Y-139700000D03*
D13*
X44450000Y-139700000D03*
D12*
X99060000Y-30480000D03*
D13*
X96520000Y-30480000D03*
D12*
X109220000Y-30480000D03*
D13*
X106680000Y-30480000D03*
D14*
X120650000Y-191770000D03*
D15*
X113030000Y-191770000D03*
D14*
X120650000Y-185420000D03*
D15*
X113030000Y-185420000D03*
D14*
X120650000Y-179070000D03*
D15*
X113030000Y-179070000D03*
D23*
X119380000Y-30480000D03*
D24*
X116840000Y-30480000D03*
D14*
X187960000Y-40640000D03*
D15*
X180340000Y-40640000D03*
D14*
X173990000Y-40640000D03*
D15*
X166370000Y-40640000D03*
D25*
X102870000Y-49450000D03*
X102870000Y-44450000D03*
X85090000Y-44530000D03*
X85090000Y-49530000D03*
D26*
X117570000Y-200660000D03*
D27*
X115570000Y-200660000D03*
D25*
X119300000Y-152400000D03*
X114300000Y-152400000D03*
X95330000Y-147320000D03*
X100330000Y-147320000D03*
X114380000Y-52070000D03*
X119380000Y-52070000D03*
X91520000Y-52070000D03*
X96520000Y-52070000D03*
X68660000Y-52070000D03*
X73660000Y-52070000D03*
X64850000Y-111760000D03*
X69850000Y-111760000D03*
X176610000Y-52070000D03*
X181610000Y-52070000D03*
X95330000Y-111760000D03*
X100330000Y-111760000D03*
X64850000Y-147320000D03*
X69850000Y-147320000D03*
X114380000Y-96520000D03*
X119380000Y-96520000D03*
X204550000Y-52070000D03*
X209550000Y-52070000D03*
X45800000Y-52070000D03*
X50800000Y-52070000D03*
X190580000Y-52070000D03*
X195580000Y-52070000D03*
X80090000Y-111760000D03*
X85090000Y-111760000D03*
X148670000Y-52070000D03*
X153670000Y-52070000D03*
X80090000Y-147320000D03*
X85090000Y-147320000D03*
X134700000Y-52070000D03*
X139700000Y-52070000D03*
X162640000Y-52070000D03*
X167640000Y-52070000D03*
X157400000Y-30480000D03*
X152400000Y-30480000D03*
X198200000Y-35560000D03*
X203200000Y-35560000D03*
X201390000Y-41910000D03*
D15*
X199390000Y-41910000D03*
D25*
X145970000Y-30480000D03*
X140970000Y-30480000D03*
D28*
X113489300Y-139946400D03*
X97850600Y-121004400D03*
X95989900Y-190136200D03*
X102271900Y-169818200D03*
X93142500Y-77190200D03*
X59327800Y-69321700D03*
X69994700Y-66387800D03*
X94581600Y-190894300D03*
X89755500Y-180964800D03*
X89690500Y-114384300D03*
X89690500Y-129540000D03*
X55300900Y-92606200D03*
X59961100Y-94382000D03*
X52002100Y-107591900D03*
X51829800Y-74022900D03*
X88970100Y-141967400D03*
X78390900Y-142222800D03*
X48207200Y-133939700D03*
X89999100Y-65541900D03*
X91432900Y-204114300D03*
X91608700Y-198931800D03*
X91648000Y-181298000D03*
X97840600Y-115379200D03*
X97292100Y-112105700D03*
X84894900Y-114722200D03*
X84233500Y-119942600D03*
X108282900Y-143681900D03*
X57367500Y-143680600D03*
X88913500Y-95727700D03*
X88239200Y-123717900D03*
X83305400Y-131863100D03*
X72939800Y-103396300D03*
X67758700Y-129065500D03*
X82288100Y-133327900D03*
X117655900Y-110368200D03*
X129277300Y-108412800D03*
X81492400Y-136034700D03*
X118833700Y-106376900D03*
X78000000Y-210839700D03*
X76640200Y-99438100D03*
X68520800Y-161574100D03*
X75941000Y-93922800D03*
X67848800Y-153239000D03*
X105843200Y-92826000D03*
X83025600Y-150238900D03*
X88477300Y-106298900D03*
X88553300Y-113707200D03*
X88385900Y-188843700D03*
X93133600Y-191579200D03*
X125732100Y-73660000D03*
X125671400Y-76018700D03*
X115042300Y-139052300D03*
X99212600Y-74636400D03*
X93754000Y-111748100D03*
X81952900Y-109939900D03*
X59703700Y-107697500D03*
X70160000Y-86504600D03*
X77083100Y-72470400D03*
X58472600Y-83838600D03*
X60730800Y-87611200D03*
X90784600Y-69237000D03*
X88458900Y-125024900D03*
X98191600Y-125860500D03*
X104001400Y-83308900D03*
X103462100Y-87155700D03*
X118482100Y-86460100D03*
X103959700Y-142000500D03*
X111007900Y-142144300D03*
X104966000Y-127136600D03*
X109283100Y-140880200D03*
X105056900Y-124747200D03*
X57927100Y-82584100D03*
X60148700Y-89293400D03*
X104487700Y-123413700D03*
X140913300Y-148730100D03*
X139980800Y-112105300D03*
X114431200Y-107302400D03*
X116605300Y-101043800D03*
X106371300Y-105386800D03*
X104041900Y-98947000D03*
X153259900Y-92177100D03*
X136302500Y-144988000D03*
X180852400Y-74771100D03*
X198896200Y-115134800D03*
X106132400Y-163974700D03*
X106898500Y-149269000D03*
X121412100Y-116840000D03*
X82128100Y-75651500D03*
X73312900Y-156921200D03*
X136134700Y-92728700D03*
X87739900Y-180195300D03*
X87216600Y-169574300D03*
X118960500Y-141953200D03*
X80230300Y-137937500D03*
X117375600Y-140265900D03*
X120027100Y-134696500D03*
X80506800Y-128963100D03*
X97865900Y-122288200D03*
X101769600Y-147315800D03*
D29*
X133319700Y-140970000D02*
X125871000Y-148418700D01*
X125871000Y-148418700D02*
X106546300Y-148418700D01*
X106546300Y-148418700D02*
X106357400Y-148607600D01*
X106357400Y-148607600D02*
X96617600Y-148607600D01*
X96617600Y-148607600D02*
X95330000Y-147320000D01*
X134620000Y-140970000D02*
X133319700Y-140970000D01*
X95330000Y-147320000D02*
X94044900Y-148605100D01*
X94044900Y-148605100D02*
X81375100Y-148605100D01*
X81375100Y-148605100D02*
X80090000Y-147320000D01*
X101600000Y-105410000D02*
X101600000Y-104159700D01*
X101600000Y-104159700D02*
X101053000Y-104159700D01*
X101053000Y-104159700D02*
X99847000Y-102953700D01*
X99847000Y-102953700D02*
X99847000Y-97767500D01*
X99847000Y-97767500D02*
X101094500Y-96520000D01*
X101094500Y-96520000D02*
X114380000Y-96520000D01*
X80090000Y-111760000D02*
X83902500Y-115572500D01*
X83902500Y-115572500D02*
X91462200Y-115572500D01*
X91462200Y-115572500D02*
X92729700Y-116840000D01*
X74930000Y-182880000D02*
X74930000Y-180359700D01*
X74930000Y-180359700D02*
X64750300Y-170180000D01*
X74930000Y-182880000D02*
X78740000Y-182880000D01*
X63500000Y-170180000D02*
X64750300Y-170180000D01*
X109220000Y-134620000D02*
X107969700Y-134620000D01*
X93980000Y-139700000D02*
X95230300Y-139700000D01*
X95230300Y-139700000D02*
X99040200Y-135890100D01*
X99040200Y-135890100D02*
X106699600Y-135890100D01*
X106699600Y-135890100D02*
X107969700Y-134620000D01*
X189230000Y-74930000D02*
X190480300Y-74930000D01*
X203200000Y-74930000D02*
X201949700Y-74930000D01*
X201949700Y-74930000D02*
X200679700Y-73660000D01*
X200679700Y-73660000D02*
X191750300Y-73660000D01*
X191750300Y-73660000D02*
X190480300Y-74930000D01*
X176610000Y-52070000D02*
X175350400Y-53329600D01*
X175350400Y-53329600D02*
X163899600Y-53329600D01*
X163899600Y-53329600D02*
X162640000Y-52070000D01*
X190580000Y-52070000D02*
X189298800Y-53351200D01*
X189298800Y-53351200D02*
X177891200Y-53351200D01*
X177891200Y-53351200D02*
X176610000Y-52070000D01*
X157400000Y-30480000D02*
X156144100Y-31735900D01*
X156144100Y-31735900D02*
X147225900Y-31735900D01*
X147225900Y-31735900D02*
X145970000Y-30480000D01*
X163830000Y-30480000D02*
X157400000Y-30480000D01*
X95087400Y-49450000D02*
X94140000Y-49450000D01*
X94140000Y-49450000D02*
X91520000Y-52070000D01*
X102870000Y-49450000D02*
X95087400Y-49450000D01*
X95087400Y-49450000D02*
X95087400Y-35752900D01*
X95087400Y-35752900D02*
X99060000Y-31780300D01*
X99060000Y-30480000D02*
X99060000Y-31780300D01*
X64850000Y-111760000D02*
X66109800Y-110500200D01*
X66109800Y-110500200D02*
X78830200Y-110500200D01*
X78830200Y-110500200D02*
X80090000Y-111760000D01*
X86360000Y-57150000D02*
X86360000Y-55899700D01*
X87630000Y-52070000D02*
X85090000Y-49530000D01*
X91520000Y-52070000D02*
X87630000Y-52070000D01*
X87630000Y-52070000D02*
X87630000Y-54629700D01*
X87630000Y-54629700D02*
X86360000Y-55899700D01*
X69189800Y-52710500D02*
X64750300Y-57150000D01*
X85090000Y-49530000D02*
X81269000Y-53351000D01*
X81269000Y-53351000D02*
X69830300Y-53351000D01*
X69830300Y-53351000D02*
X69189800Y-52710500D01*
X68660000Y-52070000D02*
X69189800Y-52599800D01*
X69189800Y-52599800D02*
X69189800Y-52710500D01*
X63500000Y-57150000D02*
X64750300Y-57150000D01*
X55880000Y-57150000D02*
X63500000Y-57150000D01*
X148670000Y-52070000D02*
X147388800Y-53351200D01*
X147388800Y-53351200D02*
X135981200Y-53351200D01*
X135981200Y-53351200D02*
X134700000Y-52070000D01*
X79039100Y-206039100D02*
X87025300Y-198052900D01*
X87025300Y-198052900D02*
X114962900Y-198052900D01*
X114962900Y-198052900D02*
X117570000Y-200660000D01*
X79039100Y-206039100D02*
X78740000Y-205740000D01*
X81280000Y-208280000D02*
X79039100Y-206039100D01*
X86360000Y-165100000D02*
X87610300Y-165100000D01*
X87610300Y-165100000D02*
X90150300Y-167640000D01*
X90150300Y-167640000D02*
X93980000Y-167640000D01*
X85734900Y-165100000D02*
X85109700Y-165100000D01*
X85734900Y-165100000D02*
X86360000Y-165100000D01*
X45800000Y-53740300D02*
X45300000Y-53740300D01*
X45300000Y-53740300D02*
X41890300Y-57150000D01*
X54629700Y-57150000D02*
X51220000Y-53740300D01*
X51220000Y-53740300D02*
X45800000Y-53740300D01*
X45800000Y-53740300D02*
X45800000Y-52070000D01*
X40640000Y-57150000D02*
X41890300Y-57150000D01*
X55880000Y-57150000D02*
X54629700Y-57150000D01*
X134700000Y-52070000D02*
X133449600Y-50819600D01*
X133449600Y-50819600D02*
X115630400Y-50819600D01*
X115630400Y-50819600D02*
X114380000Y-52070000D01*
X86360000Y-182880000D02*
X90170000Y-182880000D01*
X78740000Y-182880000D02*
X82550000Y-182880000D01*
X85109700Y-165100000D02*
X82569700Y-167640000D01*
X82569700Y-167640000D02*
X78740000Y-167640000D01*
X86360000Y-154940000D02*
X87610300Y-154940000D01*
X101600000Y-154940000D02*
X100349700Y-154940000D01*
X100349700Y-154940000D02*
X99060100Y-153650400D01*
X99060100Y-153650400D02*
X88899900Y-153650400D01*
X88899900Y-153650400D02*
X87610300Y-154940000D01*
X188604900Y-74930000D02*
X189230000Y-74930000D01*
X188604900Y-74930000D02*
X187979700Y-74930000D01*
X175260000Y-74930000D02*
X176510300Y-74930000D01*
X176510300Y-74930000D02*
X177780300Y-73660000D01*
X177780300Y-73660000D02*
X186709700Y-73660000D01*
X186709700Y-73660000D02*
X187979700Y-74930000D01*
X174634900Y-74930000D02*
X175260000Y-74930000D01*
X174634900Y-74930000D02*
X174009700Y-74930000D01*
X161290000Y-74930000D02*
X162540300Y-74930000D01*
X162540300Y-74930000D02*
X163810300Y-73660000D01*
X163810300Y-73660000D02*
X172739700Y-73660000D01*
X172739700Y-73660000D02*
X174009700Y-74930000D01*
X160664900Y-74930000D02*
X161290000Y-74930000D01*
X160664900Y-74930000D02*
X160039700Y-74930000D01*
X147320000Y-74930000D02*
X148570300Y-74930000D01*
X148570300Y-74930000D02*
X149840300Y-73660000D01*
X149840300Y-73660000D02*
X158769700Y-73660000D01*
X158769700Y-73660000D02*
X160039700Y-74930000D01*
X146694900Y-74930000D02*
X147320000Y-74930000D01*
X146694900Y-74930000D02*
X146069700Y-74930000D01*
X133350000Y-74930000D02*
X134600300Y-74930000D01*
X134600300Y-74930000D02*
X135870300Y-73660000D01*
X135870300Y-73660000D02*
X144799700Y-73660000D01*
X144799700Y-73660000D02*
X146069700Y-74930000D01*
X78740000Y-139700000D02*
X77489700Y-139700000D01*
X63500000Y-139700000D02*
X64750300Y-139700000D01*
X64750300Y-139700000D02*
X66020300Y-138430000D01*
X66020300Y-138430000D02*
X76219700Y-138430000D01*
X76219700Y-138430000D02*
X77489700Y-139700000D01*
X45750300Y-127000000D02*
X58450300Y-139700000D01*
X58450300Y-139700000D02*
X63500000Y-139700000D01*
X177800000Y-207700000D02*
X184300000Y-207700000D01*
X44450000Y-127000000D02*
X45750300Y-127000000D01*
X41910000Y-124460000D02*
X44450000Y-127000000D01*
X99060000Y-30480000D02*
X100360300Y-30480000D01*
X116840000Y-30480000D02*
X115489700Y-30480000D01*
X115489700Y-30480000D02*
X114189400Y-29179700D01*
X114189400Y-29179700D02*
X101660600Y-29179700D01*
X101660600Y-29179700D02*
X100360300Y-30480000D01*
X114380000Y-52070000D02*
X105490000Y-52070000D01*
X105490000Y-52070000D02*
X102870000Y-49450000D01*
X93980000Y-116840000D02*
X92729700Y-116840000D01*
X198200000Y-35560000D02*
X200660000Y-33100000D01*
X200660000Y-33100000D02*
X200660000Y-30480000D01*
D30*
X173990000Y-30480000D02*
X172564700Y-30480000D01*
X148590000Y-35560000D02*
X149615300Y-35560000D01*
X149615300Y-35560000D02*
X152155300Y-33020000D01*
X152155300Y-33020000D02*
X170024700Y-33020000D01*
X170024700Y-33020000D02*
X172564700Y-30480000D01*
X180340000Y-30480000D02*
X173990000Y-30480000D01*
X198120000Y-30480000D02*
X190500000Y-30480000D01*
D29*
X102850300Y-116840000D02*
X104120300Y-118110000D01*
X104120300Y-118110000D02*
X120401700Y-118110000D01*
X120401700Y-118110000D02*
X122922000Y-120630300D01*
X122922000Y-120630300D02*
X132099700Y-120630300D01*
X132099700Y-120630300D02*
X133350000Y-119380000D01*
X72370300Y-152400000D02*
X73627500Y-151142800D01*
X73627500Y-151142800D02*
X83852500Y-151142800D01*
X83852500Y-151142800D02*
X85109700Y-152400000D01*
X138021800Y-114300000D02*
X125710300Y-101988500D01*
X125710300Y-101988500D02*
X125710300Y-101600000D01*
X120650000Y-172720000D02*
X119499700Y-172720000D01*
X119499700Y-172720000D02*
X114419700Y-167640000D01*
X114419700Y-167640000D02*
X113030000Y-167640000D01*
X74930000Y-187960000D02*
X77439700Y-187960000D01*
X71120000Y-187960000D02*
X74930000Y-187960000D01*
X78740000Y-187960000D02*
X77439700Y-187960000D01*
X82550000Y-187960000D02*
X86360000Y-187960000D01*
X78740000Y-187960000D02*
X82550000Y-187960000D01*
X78740000Y-102870000D02*
X78740000Y-104120300D01*
X85090000Y-110497700D02*
X85090000Y-109926400D01*
X85090000Y-109926400D02*
X79283900Y-104120300D01*
X79283900Y-104120300D02*
X78740000Y-104120300D01*
X85090000Y-110497700D02*
X99067700Y-110497700D01*
X99067700Y-110497700D02*
X100330000Y-111760000D01*
X85090000Y-111760000D02*
X85090000Y-110497700D01*
X78740000Y-102870000D02*
X77489700Y-102870000D01*
X77489700Y-102870000D02*
X74949700Y-105410000D01*
X74949700Y-105410000D02*
X63500000Y-105410000D01*
X102850300Y-152400000D02*
X104100700Y-151149600D01*
X104100700Y-151149600D02*
X127019600Y-151149600D01*
X127019600Y-151149600D02*
X128270000Y-152400000D01*
X128270000Y-157480000D02*
X128270000Y-162560000D01*
X140970000Y-40640000D02*
X137160000Y-40640000D01*
X137160000Y-40640000D02*
X127000000Y-30480000D01*
X69869700Y-116840000D02*
X67826100Y-116840000D01*
X67826100Y-116840000D02*
X66575700Y-118090400D01*
X66575700Y-118090400D02*
X52119900Y-118090400D01*
X52119900Y-118090400D02*
X45750300Y-124460000D01*
X96520000Y-30480000D02*
X95219700Y-30480000D01*
X74310200Y-31780400D02*
X74310200Y-48914000D01*
X74310200Y-48914000D02*
X72407100Y-50817100D01*
X74310200Y-30480000D02*
X74310200Y-31780400D01*
X95219700Y-30480000D02*
X93919300Y-31780400D01*
X93919300Y-31780400D02*
X74310200Y-31780400D01*
X72407100Y-50817100D02*
X52052900Y-50817100D01*
X52052900Y-50817100D02*
X50800000Y-52070000D01*
X73660000Y-52070000D02*
X72407100Y-50817100D01*
X73660000Y-30480000D02*
X74310200Y-30480000D01*
X69850000Y-111760000D02*
X69850000Y-116820300D01*
X69850000Y-116820300D02*
X69869700Y-116840000D01*
X147320000Y-119380000D02*
X152400000Y-114300000D01*
X152400000Y-114300000D02*
X154940000Y-114300000D01*
X101600000Y-152400000D02*
X102850300Y-152400000D01*
X100974900Y-152400000D02*
X101600000Y-152400000D01*
X109220000Y-57150000D02*
X110470300Y-57150000D01*
X124460000Y-57150000D02*
X123209700Y-57150000D01*
X119380000Y-55454200D02*
X112166100Y-55454200D01*
X112166100Y-55454200D02*
X110470300Y-57150000D01*
X123209700Y-57150000D02*
X121513900Y-55454200D01*
X121513900Y-55454200D02*
X119380000Y-55454200D01*
X119380000Y-55454200D02*
X119380000Y-52070000D01*
X109220000Y-57150000D02*
X107969700Y-57150000D01*
X107969700Y-57150000D02*
X102889700Y-52070000D01*
X102889700Y-52070000D02*
X96520000Y-52070000D01*
X140970000Y-114300000D02*
X138021800Y-114300000D01*
X138021800Y-114300000D02*
X133350000Y-118971800D01*
X133350000Y-118971800D02*
X133350000Y-119380000D01*
X86360000Y-187960000D02*
X90170000Y-187960000D01*
X100974900Y-152400000D02*
X100349700Y-152400000D01*
X86360000Y-152400000D02*
X87610300Y-152400000D01*
X100349700Y-152400000D02*
X99076900Y-151127200D01*
X99076900Y-151127200D02*
X88883100Y-151127200D01*
X88883100Y-151127200D02*
X87610300Y-152400000D01*
X86360000Y-152400000D02*
X85109700Y-152400000D01*
X71120000Y-152400000D02*
X72370300Y-152400000D01*
X210820000Y-57150000D02*
X209569700Y-57150000D01*
X209569700Y-57150000D02*
X208319300Y-58400400D01*
X208319300Y-58400400D02*
X202118600Y-58400400D01*
X202118600Y-58400400D02*
X200868200Y-57150000D01*
X200868200Y-57150000D02*
X196850000Y-57150000D01*
X86360000Y-74930000D02*
X87610300Y-74930000D01*
X87610300Y-74930000D02*
X92690300Y-69850000D01*
X92690300Y-69850000D02*
X101600000Y-69850000D01*
X101600000Y-116840000D02*
X102850300Y-116840000D01*
X124460000Y-101600000D02*
X125710300Y-101600000D01*
X203200000Y-119380000D02*
X208280000Y-114300000D01*
X208280000Y-114300000D02*
X210820000Y-114300000D01*
X189230000Y-119380000D02*
X194310000Y-114300000D01*
X194310000Y-114300000D02*
X196850000Y-114300000D01*
X175260000Y-119380000D02*
X180340000Y-114300000D01*
X180340000Y-114300000D02*
X182880000Y-114300000D01*
X161290000Y-119380000D02*
X166370000Y-114300000D01*
X166370000Y-114300000D02*
X168910000Y-114300000D01*
X71120000Y-116840000D02*
X69869700Y-116840000D01*
X44450000Y-124460000D02*
X45750300Y-124460000D01*
D30*
X109220000Y-30480000D02*
X110395300Y-30480000D01*
X152400000Y-30480000D02*
X151220200Y-29300200D01*
X151220200Y-29300200D02*
X123434000Y-29300200D01*
X123434000Y-29300200D02*
X121028800Y-31705400D01*
X121028800Y-31705400D02*
X111620700Y-31705400D01*
X111620700Y-31705400D02*
X110395300Y-30480000D01*
X173990000Y-35560000D02*
X175415300Y-35560000D01*
X180340000Y-34847300D02*
X176128000Y-34847300D01*
X176128000Y-34847300D02*
X175415300Y-35560000D01*
X180340000Y-35560000D02*
X180340000Y-34847300D01*
X93980000Y-154940000D02*
X95105300Y-154940000D01*
X113030000Y-157480000D02*
X111615300Y-156065300D01*
X111615300Y-156065300D02*
X96230600Y-156065300D01*
X96230600Y-156065300D02*
X95105300Y-154940000D01*
X119300000Y-152400000D02*
X121718400Y-154818400D01*
X121718400Y-154818400D02*
X121718400Y-157904600D01*
X121718400Y-157904600D02*
X121108400Y-158514600D01*
X121108400Y-158514600D02*
X117444200Y-158514600D01*
X117444200Y-158514600D02*
X116409600Y-157480000D01*
X116409600Y-157480000D02*
X113030000Y-157480000D01*
X120650000Y-162560000D02*
X119624700Y-162560000D01*
X119624700Y-162560000D02*
X115814700Y-158750000D01*
X115814700Y-158750000D02*
X100780300Y-158750000D01*
X100780300Y-158750000D02*
X99510300Y-157480000D01*
X99510300Y-157480000D02*
X93980000Y-157480000D01*
X113489300Y-139946400D02*
X113247500Y-139704600D01*
X113247500Y-139704600D02*
X103630000Y-139704600D01*
X103630000Y-139704600D02*
X102471900Y-140862700D01*
X102471900Y-140862700D02*
X93515800Y-140862700D01*
X93515800Y-140862700D02*
X92854700Y-140201600D01*
X92854700Y-140201600D02*
X92854700Y-136589200D01*
X92854700Y-136589200D02*
X93698600Y-135745300D01*
X93698600Y-135745300D02*
X93980000Y-135745300D01*
X93980000Y-134620000D02*
X93980000Y-135745300D01*
X116495300Y-200660000D02*
X116495300Y-200920300D01*
X116495300Y-200920300D02*
X117160300Y-201585300D01*
X117160300Y-201585300D02*
X122277300Y-201585300D01*
X122277300Y-201585300D02*
X133119300Y-190743300D01*
X133119300Y-190743300D02*
X137211900Y-190743300D01*
X137211900Y-190743300D02*
X144115400Y-197646800D01*
X144115400Y-197646800D02*
X172246800Y-197646800D01*
X172246800Y-197646800D02*
X177800000Y-203200000D01*
X177800000Y-203200000D02*
X184300000Y-203200000D01*
X115570000Y-200660000D02*
X116495300Y-200660000D01*
X85090000Y-44530000D02*
X91360000Y-44530000D01*
X91360000Y-44530000D02*
X91440000Y-44450000D01*
X102870000Y-44450000D02*
X96340000Y-44450000D01*
X173990000Y-40640000D02*
X172864700Y-40640000D01*
X172864700Y-40640000D02*
X169907900Y-37683200D01*
X169907900Y-37683200D02*
X143093200Y-37683200D01*
X143093200Y-37683200D02*
X140970000Y-35560000D01*
X180340000Y-40640000D02*
X173990000Y-40640000D01*
X93980000Y-119380000D02*
X96226200Y-119380000D01*
X96226200Y-119380000D02*
X97850600Y-121004400D01*
X73660000Y-205740000D02*
X89263800Y-190136200D01*
X89263800Y-190136200D02*
X95989900Y-190136200D01*
X111904700Y-179070000D02*
X102653000Y-169818300D01*
X102653000Y-169818300D02*
X102271900Y-169818300D01*
X102271900Y-169818300D02*
X102271900Y-169818200D01*
X113030000Y-179070000D02*
X111904700Y-179070000D01*
X109220000Y-80010000D02*
X110848300Y-78381700D01*
X110848300Y-78381700D02*
X110848300Y-74907200D01*
X110848300Y-74907200D02*
X109679000Y-73737900D01*
X109679000Y-73737900D02*
X106121600Y-73737900D01*
X106121600Y-73737900D02*
X103557800Y-76301700D01*
X103557800Y-76301700D02*
X99239500Y-76301700D01*
X99239500Y-76301700D02*
X98351000Y-77190200D01*
X98351000Y-77190200D02*
X93142500Y-77190200D01*
X87485300Y-77470000D02*
X87765100Y-77190200D01*
X87765100Y-77190200D02*
X93142500Y-77190200D01*
X86360000Y-77470000D02*
X87485300Y-77470000D01*
X78740000Y-67310000D02*
X77614700Y-67310000D01*
X40640000Y-82550000D02*
X41765300Y-82550000D01*
X59327800Y-69321700D02*
X57976700Y-69321700D01*
X57976700Y-69321700D02*
X57327700Y-68672700D01*
X57327700Y-68672700D02*
X55361300Y-68672700D01*
X55361300Y-68672700D02*
X41765300Y-82268700D01*
X41765300Y-82268700D02*
X41765300Y-82550000D01*
X77614700Y-67310000D02*
X76692500Y-66387800D01*
X76692500Y-66387800D02*
X69994700Y-66387800D01*
X113030000Y-186545300D02*
X114155400Y-187670700D01*
X114155400Y-187670700D02*
X114155400Y-192768800D01*
X114155400Y-192768800D02*
X114028800Y-192895400D01*
X114028800Y-192895400D02*
X96582700Y-192895400D01*
X96582700Y-192895400D02*
X94581600Y-190894300D01*
X73660000Y-207104700D02*
X74027400Y-207104700D01*
X74027400Y-207104700D02*
X74835300Y-206296800D01*
X74835300Y-206296800D02*
X74835300Y-205438300D01*
X74835300Y-205438300D02*
X89434200Y-190839400D01*
X89434200Y-190839400D02*
X94526700Y-190839400D01*
X94526700Y-190839400D02*
X94581600Y-190894300D01*
X73660000Y-208280000D02*
X73660000Y-207104700D01*
X113030000Y-185420000D02*
X113030000Y-186545300D01*
X108094700Y-121920000D02*
X103814200Y-121920000D01*
X103814200Y-121920000D02*
X102399500Y-123334700D01*
X102399500Y-123334700D02*
X100498400Y-123334700D01*
X100498400Y-123334700D02*
X99373100Y-124460000D01*
X99373100Y-124460000D02*
X95105300Y-124460000D01*
X87485300Y-80010000D02*
X88900000Y-78595300D01*
X88900000Y-78595300D02*
X106969400Y-78595300D01*
X106969400Y-78595300D02*
X108094700Y-77470000D01*
X93980000Y-124460000D02*
X95105300Y-124460000D01*
X109220000Y-121920000D02*
X108094700Y-121920000D01*
X109220000Y-77470000D02*
X108094700Y-77470000D01*
X86360000Y-80010000D02*
X87485300Y-80010000D01*
X91364800Y-189408200D02*
X89354900Y-189408200D01*
X89354900Y-189408200D02*
X74198400Y-204564700D01*
X74198400Y-204564700D02*
X73103200Y-204564700D01*
X73103200Y-204564700D02*
X72295300Y-205372600D01*
X72295300Y-205372600D02*
X72295300Y-205740000D01*
X111904700Y-191770000D02*
X109542900Y-189408200D01*
X109542900Y-189408200D02*
X91364800Y-189408200D01*
X91364800Y-189408200D02*
X91364800Y-182412500D01*
X91364800Y-182412500D02*
X89917100Y-180964800D01*
X89917100Y-180964800D02*
X89755500Y-180964800D01*
X71120000Y-205740000D02*
X72295300Y-205740000D01*
X113030000Y-191770000D02*
X111904700Y-191770000D01*
X93980000Y-129540000D02*
X89690500Y-129540000D01*
X89690500Y-114384300D02*
X97906400Y-114384300D01*
X97906400Y-114384300D02*
X99486900Y-115964800D01*
X99486900Y-115964800D02*
X99486900Y-116390800D01*
X99486900Y-116390800D02*
X101061500Y-117965400D01*
X101061500Y-117965400D02*
X102005400Y-117965400D01*
X102005400Y-117965400D02*
X103420000Y-119380000D01*
X103420000Y-119380000D02*
X109220000Y-119380000D01*
X109220000Y-74930000D02*
X109220000Y-76055300D01*
X86360000Y-82550000D02*
X98746300Y-82550000D01*
X98746300Y-82550000D02*
X99942400Y-81353900D01*
X99942400Y-81353900D02*
X105340800Y-81353900D01*
X105340800Y-81353900D02*
X107954700Y-78740000D01*
X107954700Y-78740000D02*
X109545300Y-78740000D01*
X109545300Y-78740000D02*
X110345300Y-77940000D01*
X110345300Y-77940000D02*
X110345300Y-76899200D01*
X110345300Y-76899200D02*
X109501400Y-76055300D01*
X109501400Y-76055300D02*
X109220000Y-76055300D01*
X41910000Y-111760000D02*
X41910000Y-102444000D01*
X41910000Y-102444000D02*
X63218700Y-81135300D01*
X63218700Y-81135300D02*
X63500000Y-81135300D01*
X63500000Y-80010000D02*
X63500000Y-81135300D01*
X63500000Y-83675300D02*
X63004100Y-83675300D01*
X63004100Y-83675300D02*
X44450000Y-102229400D01*
X44450000Y-102229400D02*
X44450000Y-111760000D01*
X63500000Y-82550000D02*
X63500000Y-83675300D01*
X63500000Y-85090000D02*
X62226300Y-85090000D01*
X62226300Y-85090000D02*
X55300900Y-92015400D01*
X55300900Y-92015400D02*
X55300900Y-92606200D01*
X62374700Y-87630000D02*
X61436600Y-88568100D01*
X61436600Y-88568100D02*
X59848300Y-88568100D01*
X59848300Y-88568100D02*
X59423400Y-88993000D01*
X59423400Y-88993000D02*
X59423400Y-90061600D01*
X59423400Y-90061600D02*
X45625300Y-103859700D01*
X45625300Y-103859700D02*
X45625300Y-112316800D01*
X45625300Y-112316800D02*
X44817400Y-113124700D01*
X44817400Y-113124700D02*
X44450000Y-113124700D01*
X63500000Y-87630000D02*
X62374700Y-87630000D01*
X44450000Y-114300000D02*
X44450000Y-113124700D01*
X63500000Y-90170000D02*
X63500000Y-91295300D01*
X59961100Y-94382000D02*
X63047800Y-91295300D01*
X63047800Y-91295300D02*
X63500000Y-91295300D01*
X63500000Y-92710000D02*
X63500000Y-93835300D01*
X44450000Y-116840000D02*
X44450000Y-115664700D01*
X44450000Y-115664700D02*
X44817300Y-115664700D01*
X44817300Y-115664700D02*
X48742000Y-111740000D01*
X48742000Y-111740000D02*
X48742000Y-108312000D01*
X48742000Y-108312000D02*
X63218700Y-93835300D01*
X63218700Y-93835300D02*
X63500000Y-93835300D01*
X52002100Y-107591900D02*
X63218700Y-96375300D01*
X63218700Y-96375300D02*
X63500000Y-96375300D01*
X63500000Y-95250000D02*
X63500000Y-96375300D01*
X63500000Y-97790000D02*
X63500000Y-98915300D01*
X44450000Y-119380000D02*
X44450000Y-118204700D01*
X44450000Y-118204700D02*
X44817400Y-118204700D01*
X44817400Y-118204700D02*
X62374700Y-100647400D01*
X62374700Y-100647400D02*
X62374700Y-99759200D01*
X62374700Y-99759200D02*
X63218600Y-98915300D01*
X63218600Y-98915300D02*
X63500000Y-98915300D01*
X63500000Y-100330000D02*
X63500000Y-101455300D01*
X41910000Y-121920000D02*
X43085300Y-121920000D01*
X43085300Y-121920000D02*
X43085300Y-121552600D01*
X43085300Y-121552600D02*
X43893200Y-120744700D01*
X43893200Y-120744700D02*
X44749900Y-120744700D01*
X44749900Y-120744700D02*
X62374700Y-103119900D01*
X62374700Y-103119900D02*
X62374700Y-102299200D01*
X62374700Y-102299200D02*
X63218600Y-101455300D01*
X63218600Y-101455300D02*
X63500000Y-101455300D01*
X45625300Y-121920000D02*
X45625300Y-120744700D01*
X45625300Y-120744700D02*
X62374700Y-103995300D01*
X62374700Y-103995300D02*
X63500000Y-103995300D01*
X63500000Y-102870000D02*
X63500000Y-103995300D01*
X44450000Y-121920000D02*
X45625300Y-121920000D01*
X78740000Y-57150000D02*
X77614700Y-57150000D01*
X44450000Y-129540000D02*
X43274700Y-129540000D01*
X43274700Y-129540000D02*
X43274700Y-129172600D01*
X43274700Y-129172600D02*
X42466800Y-128364700D01*
X42466800Y-128364700D02*
X41597600Y-128364700D01*
X41597600Y-128364700D02*
X38553300Y-125320400D01*
X38553300Y-125320400D02*
X38553300Y-72883000D01*
X38553300Y-72883000D02*
X40316300Y-71120000D01*
X40316300Y-71120000D02*
X40976300Y-71120000D01*
X40976300Y-71120000D02*
X53821000Y-58275300D01*
X53821000Y-58275300D02*
X76489400Y-58275300D01*
X76489400Y-58275300D02*
X77614700Y-57150000D01*
X63500000Y-77470000D02*
X58805600Y-77470000D01*
X58805600Y-77470000D02*
X57535600Y-76200000D01*
X57535600Y-76200000D02*
X54006900Y-76200000D01*
X54006900Y-76200000D02*
X51829800Y-74022900D01*
X45625300Y-132080000D02*
X45625300Y-132447300D01*
X45625300Y-132447300D02*
X54536600Y-141358600D01*
X54536600Y-141358600D02*
X88361300Y-141358600D01*
X88361300Y-141358600D02*
X88970100Y-141967400D01*
X44450000Y-132080000D02*
X45625300Y-132080000D01*
X86360000Y-185420000D02*
X86360000Y-184244700D01*
X41910000Y-134620000D02*
X43085300Y-134620000D01*
X43085300Y-134620000D02*
X43085300Y-134987400D01*
X43085300Y-134987400D02*
X43893200Y-135795300D01*
X43893200Y-135795300D02*
X44759400Y-135795300D01*
X44759400Y-135795300D02*
X60787600Y-151823500D01*
X60787600Y-151823500D02*
X60787600Y-166520000D01*
X60787600Y-166520000D02*
X63309700Y-169042100D01*
X63309700Y-169042100D02*
X66652700Y-169042100D01*
X66652700Y-169042100D02*
X78435700Y-180825100D01*
X78435700Y-180825100D02*
X82199600Y-180825100D01*
X82199600Y-180825100D02*
X85619200Y-184244700D01*
X85619200Y-184244700D02*
X86360000Y-184244700D01*
X44450000Y-134620000D02*
X45625300Y-134620000D01*
X45625300Y-134620000D02*
X53228100Y-142222800D01*
X53228100Y-142222800D02*
X78390900Y-142222800D01*
X78740000Y-185420000D02*
X77564700Y-185420000D01*
X41910000Y-137160000D02*
X41910000Y-138335300D01*
X41910000Y-138335300D02*
X42277400Y-138335300D01*
X42277400Y-138335300D02*
X43085300Y-139143200D01*
X43085300Y-139143200D02*
X43085300Y-153058400D01*
X43085300Y-153058400D02*
X72295400Y-182268500D01*
X72295400Y-182268500D02*
X72295400Y-184452700D01*
X72295400Y-184452700D02*
X74438000Y-186595300D01*
X74438000Y-186595300D02*
X76389400Y-186595300D01*
X76389400Y-186595300D02*
X77564700Y-185420000D01*
X48207200Y-133939700D02*
X48207200Y-131634900D01*
X48207200Y-131634900D02*
X44808900Y-128236600D01*
X44808900Y-128236600D02*
X44002400Y-128236600D01*
X44002400Y-128236600D02*
X43180000Y-127414200D01*
X43180000Y-127414200D02*
X43180000Y-126543700D01*
X43180000Y-126543700D02*
X42366300Y-125730000D01*
X42366300Y-125730000D02*
X41508400Y-125730000D01*
X41508400Y-125730000D02*
X39020600Y-123242200D01*
X39020600Y-123242200D02*
X39020600Y-77496100D01*
X39020600Y-77496100D02*
X40316700Y-76200000D01*
X40316700Y-76200000D02*
X41242100Y-76200000D01*
X41242100Y-76200000D02*
X53805300Y-63636800D01*
X53805300Y-63636800D02*
X56509000Y-63636800D01*
X56509000Y-63636800D02*
X57642200Y-64770000D01*
X57642200Y-64770000D02*
X63500000Y-64770000D01*
X74930000Y-185420000D02*
X74930000Y-184244700D01*
X44450000Y-137160000D02*
X44450000Y-138335300D01*
X44450000Y-138335300D02*
X45258100Y-138335300D01*
X45258100Y-138335300D02*
X45625300Y-138702500D01*
X45625300Y-138702500D02*
X45625300Y-154586400D01*
X45625300Y-154586400D02*
X73754700Y-182715800D01*
X73754700Y-182715800D02*
X73754700Y-183436800D01*
X73754700Y-183436800D02*
X74562600Y-184244700D01*
X74562600Y-184244700D02*
X74930000Y-184244700D01*
X71120000Y-185420000D02*
X71120000Y-184244700D01*
X71120000Y-184244700D02*
X70752700Y-184244700D01*
X70752700Y-184244700D02*
X41910000Y-155402000D01*
X41910000Y-155402000D02*
X41910000Y-139700000D01*
X60960000Y-38100000D02*
X59784700Y-38100000D01*
X40640000Y-69850000D02*
X40640000Y-68724700D01*
X40640000Y-68724700D02*
X40358700Y-68724700D01*
X40358700Y-68724700D02*
X39029500Y-67395500D01*
X39029500Y-67395500D02*
X39029500Y-51770700D01*
X39029500Y-51770700D02*
X51999700Y-38800500D01*
X51999700Y-38800500D02*
X51999700Y-37714100D01*
X51999700Y-37714100D02*
X52789100Y-36924700D01*
X52789100Y-36924700D02*
X58609400Y-36924700D01*
X58609400Y-36924700D02*
X59784700Y-38100000D01*
X86360000Y-69850000D02*
X86360000Y-68724700D01*
X86360000Y-68724700D02*
X86816300Y-68724700D01*
X86816300Y-68724700D02*
X89999100Y-65541900D01*
X91432900Y-204114300D02*
X120813400Y-204114300D01*
X120813400Y-204114300D02*
X133157700Y-191770000D01*
X133157700Y-191770000D02*
X135890000Y-191770000D01*
X84995300Y-205740000D02*
X84995300Y-205372600D01*
X84995300Y-205372600D02*
X86253600Y-204114300D01*
X86253600Y-204114300D02*
X91432900Y-204114300D01*
X83820000Y-205740000D02*
X84995300Y-205740000D01*
X86360000Y-208280000D02*
X85184700Y-208280000D01*
X85184700Y-208280000D02*
X85184700Y-207912600D01*
X85184700Y-207912600D02*
X84376800Y-207104700D01*
X84376800Y-207104700D02*
X83483700Y-207104700D01*
X83483700Y-207104700D02*
X82643000Y-206264000D01*
X82643000Y-206264000D02*
X82643000Y-205208500D01*
X82643000Y-205208500D02*
X88919700Y-198931800D01*
X88919700Y-198931800D02*
X91608700Y-198931800D01*
X40640000Y-72390000D02*
X41765300Y-72390000D01*
X78740000Y-62230000D02*
X77614700Y-62230000D01*
X77614700Y-62230000D02*
X76424100Y-61039400D01*
X76424100Y-61039400D02*
X53115900Y-61039400D01*
X53115900Y-61039400D02*
X41765300Y-72390000D01*
X135890000Y-185420000D02*
X134864700Y-185420000D01*
X91648000Y-181298000D02*
X130742700Y-181298000D01*
X130742700Y-181298000D02*
X134864700Y-185420000D01*
X86360000Y-64770000D02*
X78740000Y-64770000D01*
X63500000Y-119380000D02*
X67181200Y-119380000D01*
X67181200Y-119380000D02*
X68540400Y-118020800D01*
X68540400Y-118020800D02*
X75420800Y-118020800D01*
X75420800Y-118020800D02*
X77753800Y-115687800D01*
X77753800Y-115687800D02*
X81999900Y-115687800D01*
X81999900Y-115687800D02*
X84277500Y-117965400D01*
X84277500Y-117965400D02*
X95254400Y-117965400D01*
X95254400Y-117965400D02*
X97840600Y-115379200D01*
X101600000Y-97790000D02*
X101600000Y-98915300D01*
X101600000Y-98915300D02*
X101318700Y-98915300D01*
X101318700Y-98915300D02*
X100472500Y-99761500D01*
X100472500Y-99761500D02*
X100472500Y-100848800D01*
X100472500Y-100848800D02*
X101223700Y-101600000D01*
X101223700Y-101600000D02*
X109220000Y-101600000D01*
X84233500Y-119942600D02*
X81626200Y-119942600D01*
X81626200Y-119942600D02*
X79890000Y-118206400D01*
X79890000Y-118206400D02*
X78113400Y-118206400D01*
X78113400Y-118206400D02*
X75525100Y-120794700D01*
X75525100Y-120794700D02*
X65750600Y-120794700D01*
X65750600Y-120794700D02*
X64625300Y-121920000D01*
X63500000Y-121920000D02*
X64625300Y-121920000D01*
X84894900Y-114722200D02*
X85585500Y-114722200D01*
X85585500Y-114722200D02*
X87422300Y-112885400D01*
X87422300Y-112885400D02*
X96512400Y-112885400D01*
X96512400Y-112885400D02*
X97292100Y-112105700D01*
X57367500Y-143680600D02*
X57377000Y-143690100D01*
X57377000Y-143690100D02*
X108274700Y-143690100D01*
X108274700Y-143690100D02*
X108282900Y-143681900D01*
X101600000Y-100330000D02*
X102725300Y-100330000D01*
X117180600Y-100330000D02*
X117169100Y-100318500D01*
X117169100Y-100318500D02*
X102736800Y-100318500D01*
X102736800Y-100318500D02*
X102725300Y-100330000D01*
X124460000Y-63355300D02*
X124741300Y-63355300D01*
X124741300Y-63355300D02*
X126992000Y-65606000D01*
X126992000Y-65606000D02*
X126992000Y-90518600D01*
X126992000Y-90518600D02*
X117180600Y-100330000D01*
X123334700Y-106680000D02*
X117180600Y-100525900D01*
X117180600Y-100525900D02*
X117180600Y-100330000D01*
X124460000Y-62230000D02*
X124460000Y-63355300D01*
X124460000Y-106680000D02*
X123334700Y-106680000D01*
X102725300Y-102870000D02*
X102725300Y-105935300D01*
X102725300Y-105935300D02*
X102093300Y-106567300D01*
X102093300Y-106567300D02*
X99753100Y-106567300D01*
X99753100Y-106567300D02*
X88913500Y-95727700D01*
X88239200Y-123717900D02*
X88239200Y-124180700D01*
X88239200Y-124180700D02*
X86689900Y-125730000D01*
X86689900Y-125730000D02*
X82226800Y-125730000D01*
X82226800Y-125730000D02*
X79826300Y-128130500D01*
X79826300Y-128130500D02*
X68843200Y-128130500D01*
X68843200Y-128130500D02*
X67712700Y-127000000D01*
X67712700Y-127000000D02*
X64625300Y-127000000D01*
X63500000Y-127000000D02*
X64625300Y-127000000D01*
X102725300Y-102870000D02*
X106824700Y-102870000D01*
X106824700Y-102870000D02*
X108094700Y-104140000D01*
X109220000Y-104140000D02*
X108094700Y-104140000D01*
X101600000Y-102870000D02*
X102725300Y-102870000D01*
X63500000Y-129540000D02*
X64625300Y-129540000D01*
X64625300Y-129540000D02*
X65825200Y-128340100D01*
X65825200Y-128340100D02*
X68119900Y-128340100D01*
X68119900Y-128340100D02*
X70589800Y-130810000D01*
X70589800Y-130810000D02*
X79865400Y-130810000D01*
X79865400Y-130810000D02*
X80429200Y-131373800D01*
X80429200Y-131373800D02*
X82816100Y-131373800D01*
X82816100Y-131373800D02*
X83305400Y-131863100D01*
X87485300Y-105410000D02*
X87485300Y-106332600D01*
X87485300Y-106332600D02*
X91048200Y-109895500D01*
X91048200Y-109895500D02*
X100079200Y-109895500D01*
X100079200Y-109895500D02*
X105609000Y-115425300D01*
X105609000Y-115425300D02*
X122209400Y-115425300D01*
X122209400Y-115425300D02*
X123334700Y-114300000D01*
X124460000Y-114300000D02*
X123334700Y-114300000D01*
X86360000Y-105410000D02*
X87485300Y-105410000D01*
X124460000Y-118254700D02*
X124741400Y-118254700D01*
X124741400Y-118254700D02*
X125585300Y-117410800D01*
X125585300Y-117410800D02*
X125585300Y-113816600D01*
X125585300Y-113816600D02*
X124798700Y-113030000D01*
X124798700Y-113030000D02*
X104871400Y-113030000D01*
X104871400Y-113030000D02*
X100770400Y-108929000D01*
X100770400Y-108929000D02*
X93544300Y-108929000D01*
X93544300Y-108929000D02*
X87485300Y-102870000D01*
X64625300Y-132080000D02*
X67639800Y-129065500D01*
X67639800Y-129065500D02*
X67758700Y-129065500D01*
X86360000Y-102870000D02*
X87485300Y-102870000D01*
X63500000Y-132080000D02*
X64625300Y-132080000D01*
X86360000Y-102870000D02*
X85234700Y-102870000D01*
X72939800Y-103396300D02*
X74591400Y-101744700D01*
X74591400Y-101744700D02*
X84109400Y-101744700D01*
X84109400Y-101744700D02*
X85234700Y-102870000D01*
X124460000Y-119380000D02*
X124460000Y-118254700D01*
X117655900Y-110368200D02*
X103604200Y-110368200D01*
X103604200Y-110368200D02*
X101714700Y-108478700D01*
X101714700Y-108478700D02*
X95634000Y-108478700D01*
X95634000Y-108478700D02*
X87485300Y-100330000D01*
X63500000Y-134620000D02*
X64625300Y-134620000D01*
X64625300Y-134620000D02*
X65917400Y-133327900D01*
X65917400Y-133327900D02*
X82288100Y-133327900D01*
X117655900Y-110368200D02*
X119047700Y-111760000D01*
X119047700Y-111760000D02*
X123334700Y-111760000D01*
X124460000Y-111760000D02*
X123334700Y-111760000D01*
X86360000Y-100330000D02*
X87485300Y-100330000D01*
X125585300Y-109220000D02*
X126392500Y-108412800D01*
X126392500Y-108412800D02*
X129277300Y-108412800D01*
X124460000Y-109220000D02*
X125585300Y-109220000D01*
X124159500Y-109220000D02*
X124460000Y-109220000D01*
X87485300Y-97790000D02*
X88900200Y-97790000D01*
X88900200Y-97790000D02*
X98688300Y-107578100D01*
X98688300Y-107578100D02*
X102087900Y-107578100D01*
X102087900Y-107578100D02*
X102565400Y-108055600D01*
X102565400Y-108055600D02*
X122170300Y-108055600D01*
X122170300Y-108055600D02*
X123334700Y-109220000D01*
X124159500Y-109220000D02*
X123334700Y-109220000D01*
X64625300Y-137160000D02*
X65750600Y-136034700D01*
X65750600Y-136034700D02*
X81492400Y-136034700D01*
X63500000Y-137160000D02*
X64625300Y-137160000D01*
X86360000Y-97790000D02*
X87485300Y-97790000D01*
X66040000Y-208280000D02*
X67215300Y-208280000D01*
X109220000Y-106680000D02*
X110345300Y-106680000D01*
X118833700Y-106376900D02*
X110648400Y-106376900D01*
X110648400Y-106376900D02*
X110345300Y-106680000D01*
X67215300Y-208280000D02*
X67215300Y-208647300D01*
X67215300Y-208647300D02*
X69407700Y-210839700D01*
X69407700Y-210839700D02*
X78000000Y-210839700D01*
X87485300Y-95250000D02*
X87485300Y-95325300D01*
X87485300Y-95325300D02*
X99177700Y-107017700D01*
X99177700Y-107017700D02*
X107757000Y-107017700D01*
X107757000Y-107017700D02*
X108094700Y-106680000D01*
X109220000Y-106680000D02*
X108094700Y-106680000D01*
X86360000Y-95250000D02*
X87485300Y-95250000D01*
X108094700Y-109220000D02*
X103092900Y-109220000D01*
X103092900Y-109220000D02*
X101901300Y-108028400D01*
X101901300Y-108028400D02*
X98501700Y-108028400D01*
X98501700Y-108028400D02*
X89533300Y-99060000D01*
X89533300Y-99060000D02*
X85958900Y-99060000D01*
X85958900Y-99060000D02*
X85234700Y-98335800D01*
X85234700Y-98335800D02*
X85234700Y-94679200D01*
X85234700Y-94679200D02*
X86078600Y-93835300D01*
X86078600Y-93835300D02*
X86360000Y-93835300D01*
X76640200Y-99438100D02*
X77162900Y-98915400D01*
X77162900Y-98915400D02*
X84655100Y-98915400D01*
X84655100Y-98915400D02*
X85234700Y-98335800D01*
X71120000Y-160020000D02*
X69994700Y-160020000D01*
X68520800Y-161574100D02*
X69994700Y-160100200D01*
X69994700Y-160100200D02*
X69994700Y-160020000D01*
X109220000Y-109220000D02*
X108094700Y-109220000D01*
X86360000Y-92710000D02*
X86360000Y-93835300D01*
X75941000Y-93922800D02*
X75941000Y-93808600D01*
X75941000Y-93808600D02*
X78165000Y-91584600D01*
X78165000Y-91584600D02*
X79192000Y-91584600D01*
X79192000Y-91584600D02*
X80606600Y-90170000D01*
X80606600Y-90170000D02*
X86360000Y-90170000D01*
X71120000Y-157480000D02*
X67848800Y-154208800D01*
X67848800Y-154208800D02*
X67848800Y-153239000D01*
X105843200Y-92826000D02*
X104601800Y-91584600D01*
X104601800Y-91584600D02*
X100754300Y-91584600D01*
X100754300Y-91584600D02*
X99339700Y-90170000D01*
X99339700Y-90170000D02*
X86360000Y-90170000D01*
X71120000Y-154940000D02*
X71120000Y-153814700D01*
X71120000Y-153814700D02*
X70838700Y-153814700D01*
X70838700Y-153814700D02*
X69984100Y-152960100D01*
X69984100Y-152960100D02*
X69984100Y-151888100D01*
X69984100Y-151888100D02*
X71633300Y-150238900D01*
X71633300Y-150238900D02*
X83025600Y-150238900D01*
X88477300Y-106298900D02*
X91557800Y-109379400D01*
X91557800Y-109379400D02*
X100200000Y-109379400D01*
X100200000Y-109379400D02*
X105120600Y-114300000D01*
X105120600Y-114300000D02*
X109220000Y-114300000D01*
X88385900Y-188843700D02*
X83148500Y-194081100D01*
X83148500Y-194081100D02*
X81107600Y-194081100D01*
X81107600Y-194081100D02*
X69937700Y-205251000D01*
X69937700Y-205251000D02*
X69937700Y-206289700D01*
X69937700Y-206289700D02*
X70752700Y-207104700D01*
X70752700Y-207104700D02*
X71120000Y-207104700D01*
X88553300Y-113707200D02*
X88601500Y-113659000D01*
X88601500Y-113659000D02*
X103205800Y-113659000D01*
X103205800Y-113659000D02*
X106386800Y-116840000D01*
X106386800Y-116840000D02*
X108094700Y-116840000D01*
X109220000Y-116840000D02*
X108094700Y-116840000D01*
X71120000Y-208280000D02*
X71120000Y-207104700D01*
X76200000Y-207104700D02*
X76567400Y-207104700D01*
X76567400Y-207104700D02*
X77375300Y-206296800D01*
X77375300Y-206296800D02*
X77375300Y-205377800D01*
X77375300Y-205377800D02*
X91173900Y-191579200D01*
X91173900Y-191579200D02*
X93133600Y-191579200D01*
X76200000Y-208280000D02*
X76200000Y-207104700D01*
X87485300Y-59690000D02*
X91641800Y-55533500D01*
X91641800Y-55533500D02*
X103426900Y-55533500D01*
X103426900Y-55533500D02*
X108853400Y-60960000D01*
X108853400Y-60960000D02*
X110639200Y-60960000D01*
X110639200Y-60960000D02*
X123339200Y-73660000D01*
X123339200Y-73660000D02*
X125732100Y-73660000D01*
X86360000Y-59690000D02*
X87485300Y-59690000D01*
X134864700Y-204470000D02*
X132419000Y-206915700D01*
X132419000Y-206915700D02*
X90890400Y-206915700D01*
X90890400Y-206915700D02*
X90264600Y-206289900D01*
X90264600Y-206289900D02*
X90264600Y-205363900D01*
X90264600Y-205363900D02*
X89465400Y-204564700D01*
X89465400Y-204564700D02*
X88343200Y-204564700D01*
X88343200Y-204564700D02*
X87535300Y-205372600D01*
X87535300Y-205372600D02*
X87535300Y-205740000D01*
X135890000Y-204470000D02*
X134864700Y-204470000D01*
X86360000Y-205740000D02*
X87535300Y-205740000D01*
X78740000Y-72390000D02*
X79865300Y-72390000D01*
X100474700Y-65256800D02*
X100474700Y-59119200D01*
X100474700Y-59119200D02*
X101318600Y-58275300D01*
X101318600Y-58275300D02*
X101600000Y-58275300D01*
X125671400Y-76018700D02*
X125580800Y-76109300D01*
X125580800Y-76109300D02*
X123561100Y-76109300D01*
X123561100Y-76109300D02*
X113491800Y-66040000D01*
X113491800Y-66040000D02*
X101257900Y-66040000D01*
X101257900Y-66040000D02*
X100474700Y-65256800D01*
X79865300Y-72390000D02*
X80990600Y-71264700D01*
X80990600Y-71264700D02*
X86576700Y-71264700D01*
X86576700Y-71264700D02*
X92584600Y-65256800D01*
X92584600Y-65256800D02*
X100474700Y-65256800D01*
X101600000Y-57150000D02*
X101600000Y-58275300D01*
X101600000Y-137160000D02*
X102725300Y-137160000D01*
X102725300Y-137160000D02*
X104617600Y-139052300D01*
X104617600Y-139052300D02*
X115042300Y-139052300D01*
X135890000Y-210820000D02*
X134864700Y-210820000D01*
X88900000Y-208280000D02*
X90075300Y-208280000D01*
X90075300Y-208280000D02*
X90075300Y-208647300D01*
X90075300Y-208647300D02*
X91222700Y-209794700D01*
X91222700Y-209794700D02*
X133839400Y-209794700D01*
X133839400Y-209794700D02*
X134864700Y-210820000D01*
X81952900Y-109939900D02*
X81952900Y-110234500D01*
X81952900Y-110234500D02*
X84603800Y-112885400D01*
X84603800Y-112885400D02*
X86308900Y-112885400D01*
X86308900Y-112885400D02*
X87446200Y-111748100D01*
X87446200Y-111748100D02*
X93754000Y-111748100D01*
X78740000Y-106555300D02*
X81952900Y-109768200D01*
X81952900Y-109768200D02*
X81952900Y-109939900D01*
X100474700Y-160020000D02*
X99349400Y-158894700D01*
X99349400Y-158894700D02*
X86097000Y-158894700D01*
X86097000Y-158894700D02*
X79865300Y-152663000D01*
X79865300Y-152663000D02*
X79865300Y-152400000D01*
X101600000Y-72390000D02*
X100474700Y-72390000D01*
X99212600Y-74636400D02*
X100474700Y-73374300D01*
X100474700Y-73374300D02*
X100474700Y-72390000D01*
X78740000Y-106555300D02*
X60845900Y-106555300D01*
X60845900Y-106555300D02*
X59703700Y-107697500D01*
X78740000Y-105410000D02*
X78740000Y-106555300D01*
X78740000Y-152400000D02*
X79865300Y-152400000D01*
X101600000Y-160020000D02*
X100474700Y-160020000D01*
X77614700Y-95250000D02*
X76173000Y-95250000D01*
X76173000Y-95250000D02*
X70160000Y-89237000D01*
X70160000Y-89237000D02*
X70160000Y-86504600D01*
X101600000Y-63644700D02*
X101881400Y-63644700D01*
X101881400Y-63644700D02*
X102725300Y-62800800D01*
X102725300Y-62800800D02*
X102725300Y-56655400D01*
X102725300Y-56655400D02*
X102053800Y-55983900D01*
X102053800Y-55983900D02*
X98531400Y-55983900D01*
X98531400Y-55983900D02*
X88475300Y-66040000D01*
X88475300Y-66040000D02*
X84300500Y-66040000D01*
X84300500Y-66040000D02*
X79220500Y-71120000D01*
X79220500Y-71120000D02*
X78357700Y-71120000D01*
X78357700Y-71120000D02*
X77083100Y-72394600D01*
X77083100Y-72394600D02*
X77083100Y-72470400D01*
X60730800Y-87611200D02*
X61837400Y-86504600D01*
X61837400Y-86504600D02*
X70160000Y-86504600D01*
X101600000Y-64770000D02*
X101600000Y-63644700D01*
X57005300Y-82550000D02*
X57005300Y-82737300D01*
X57005300Y-82737300D02*
X58106600Y-83838600D01*
X58106600Y-83838600D02*
X58472600Y-83838600D01*
X78740000Y-95250000D02*
X77614700Y-95250000D01*
X55880000Y-82550000D02*
X57005300Y-82550000D01*
X78740000Y-154940000D02*
X78740000Y-156065300D01*
X78740000Y-160020000D02*
X78740000Y-158894700D01*
X78740000Y-158894700D02*
X78458700Y-158894700D01*
X78458700Y-158894700D02*
X77614700Y-158050700D01*
X77614700Y-158050700D02*
X77614700Y-156909200D01*
X77614700Y-156909200D02*
X78458600Y-156065300D01*
X78458600Y-156065300D02*
X78740000Y-156065300D01*
X91440000Y-205740000D02*
X92615300Y-205740000D01*
X92615300Y-205740000D02*
X92615300Y-205372600D01*
X92615300Y-205372600D02*
X93423200Y-204564700D01*
X93423200Y-204564700D02*
X126025700Y-204564700D01*
X126025700Y-204564700D02*
X132470400Y-198120000D01*
X132470400Y-198120000D02*
X135890000Y-198120000D01*
X86360000Y-72390000D02*
X87485300Y-72390000D01*
X90784600Y-69237000D02*
X90638300Y-69237000D01*
X90638300Y-69237000D02*
X87485300Y-72390000D01*
X108094700Y-127000000D02*
X105855200Y-127000000D01*
X105855200Y-127000000D02*
X104715700Y-125860500D01*
X104715700Y-125860500D02*
X98191600Y-125860500D01*
X98191600Y-125860500D02*
X89294500Y-125860500D01*
X89294500Y-125860500D02*
X88458900Y-125024900D01*
X100474700Y-74930000D02*
X99685400Y-75719300D01*
X99685400Y-75719300D02*
X99048600Y-75719300D01*
X99048600Y-75719300D02*
X98598300Y-76169600D01*
X98598300Y-76169600D02*
X82635800Y-76169600D01*
X82635800Y-76169600D02*
X82428600Y-76376800D01*
X82428600Y-76376800D02*
X81312100Y-76376800D01*
X81312100Y-76376800D02*
X79865300Y-74930000D01*
X57005300Y-62230000D02*
X58130600Y-63355300D01*
X58130600Y-63355300D02*
X65936500Y-63355300D01*
X65936500Y-63355300D02*
X77511200Y-74930000D01*
X77511200Y-74930000D02*
X77614700Y-74930000D01*
X55880000Y-62230000D02*
X57005300Y-62230000D01*
X78740000Y-74930000D02*
X77614700Y-74930000D01*
X79302700Y-74930000D02*
X78740000Y-74930000D01*
X79302700Y-74930000D02*
X79865300Y-74930000D01*
X109220000Y-127000000D02*
X108094700Y-127000000D01*
X101600000Y-74930000D02*
X102725300Y-74930000D01*
X109220000Y-82550000D02*
X109220000Y-81424700D01*
X109220000Y-81424700D02*
X109501300Y-81424700D01*
X109501300Y-81424700D02*
X111298700Y-79627300D01*
X111298700Y-79627300D02*
X111298700Y-72842400D01*
X111298700Y-72842400D02*
X109687200Y-71230900D01*
X109687200Y-71230900D02*
X106424400Y-71230900D01*
X106424400Y-71230900D02*
X102725300Y-74930000D01*
X101600000Y-74930000D02*
X100474700Y-74930000D01*
X78740000Y-77470000D02*
X79865300Y-77470000D01*
X101600000Y-77470000D02*
X100474700Y-77470000D01*
X100474700Y-77470000D02*
X100024300Y-77920400D01*
X100024300Y-77920400D02*
X88444900Y-77920400D01*
X88444900Y-77920400D02*
X87770000Y-78595300D01*
X87770000Y-78595300D02*
X80990600Y-78595300D01*
X80990600Y-78595300D02*
X79865300Y-77470000D01*
X109220000Y-85090000D02*
X105782500Y-85090000D01*
X105782500Y-85090000D02*
X104001400Y-83308900D01*
X55880000Y-64770000D02*
X57005300Y-64770000D01*
X78740000Y-77470000D02*
X77614700Y-77470000D01*
X77614700Y-77470000D02*
X66040000Y-65895300D01*
X66040000Y-65895300D02*
X58130600Y-65895300D01*
X58130600Y-65895300D02*
X57005300Y-64770000D01*
X108094700Y-129540000D02*
X106680000Y-128125300D01*
X106680000Y-128125300D02*
X88610600Y-128125300D01*
X88610600Y-128125300D02*
X87485300Y-127000000D01*
X86360000Y-127000000D02*
X87485300Y-127000000D01*
X109220000Y-129540000D02*
X108094700Y-129540000D01*
X109220000Y-87630000D02*
X108094700Y-87630000D01*
X108094700Y-87630000D02*
X107620400Y-87155700D01*
X107620400Y-87155700D02*
X103462100Y-87155700D01*
X77614700Y-80010000D02*
X66040000Y-68435300D01*
X66040000Y-68435300D02*
X58130600Y-68435300D01*
X58130600Y-68435300D02*
X57005300Y-67310000D01*
X100474700Y-80010000D02*
X99349400Y-81135300D01*
X99349400Y-81135300D02*
X80990600Y-81135300D01*
X80990600Y-81135300D02*
X79865300Y-80010000D01*
X78740000Y-80010000D02*
X77614700Y-80010000D01*
X55880000Y-67310000D02*
X57005300Y-67310000D01*
X79302700Y-80010000D02*
X78740000Y-80010000D01*
X79302700Y-80010000D02*
X79865300Y-80010000D01*
X101600000Y-80010000D02*
X100474700Y-80010000D01*
X86360000Y-132080000D02*
X87485300Y-132080000D01*
X109220000Y-132080000D02*
X108094700Y-132080000D01*
X108094700Y-132080000D02*
X106969400Y-133205300D01*
X106969400Y-133205300D02*
X88610600Y-133205300D01*
X88610600Y-133205300D02*
X87485300Y-132080000D01*
X123334700Y-134620000D02*
X123334700Y-135340400D01*
X123334700Y-135340400D02*
X117256100Y-141419000D01*
X117256100Y-141419000D02*
X110707500Y-141419000D01*
X110707500Y-141419000D02*
X110520900Y-141605600D01*
X110520900Y-141605600D02*
X104354600Y-141605600D01*
X104354600Y-141605600D02*
X103959700Y-142000500D01*
X78740000Y-82550000D02*
X79865300Y-82550000D01*
X101600000Y-82550000D02*
X100474700Y-82550000D01*
X100474700Y-82550000D02*
X99349400Y-83675300D01*
X99349400Y-83675300D02*
X80990600Y-83675300D01*
X80990600Y-83675300D02*
X79865300Y-82550000D01*
X118482100Y-86460100D02*
X115842000Y-83820000D01*
X115842000Y-83820000D02*
X105719900Y-83820000D01*
X105719900Y-83820000D02*
X104449900Y-82550000D01*
X104449900Y-82550000D02*
X101600000Y-82550000D01*
X87485300Y-137160000D02*
X92580400Y-142255100D01*
X92580400Y-142255100D02*
X103705100Y-142255100D01*
X103705100Y-142255100D02*
X103959700Y-142000500D01*
X86360000Y-137160000D02*
X87485300Y-137160000D01*
X55880000Y-69850000D02*
X57005300Y-69850000D01*
X78740000Y-82550000D02*
X77614700Y-82550000D01*
X77614700Y-82550000D02*
X66040000Y-70975300D01*
X66040000Y-70975300D02*
X58130600Y-70975300D01*
X58130600Y-70975300D02*
X57005300Y-69850000D01*
X124460000Y-134620000D02*
X123334700Y-134620000D01*
X111007900Y-142144300D02*
X107325500Y-142144300D01*
X107325500Y-142144300D02*
X106680400Y-142789400D01*
X106680400Y-142789400D02*
X91984700Y-142789400D01*
X91984700Y-142789400D02*
X87625300Y-138430000D01*
X87625300Y-138430000D02*
X82601800Y-138430000D01*
X82601800Y-138430000D02*
X81331800Y-137160000D01*
X81331800Y-137160000D02*
X78740000Y-137160000D01*
X124460000Y-87630000D02*
X123334700Y-87630000D01*
X99409800Y-86215300D02*
X99409800Y-87099900D01*
X99409800Y-87099900D02*
X101076200Y-88766300D01*
X101076200Y-88766300D02*
X118717400Y-88766300D01*
X118717400Y-88766300D02*
X119822800Y-87660900D01*
X119822800Y-87660900D02*
X123303800Y-87660900D01*
X123303800Y-87660900D02*
X123334700Y-87630000D01*
X99409800Y-86215300D02*
X99409800Y-86154900D01*
X99409800Y-86154900D02*
X100474700Y-85090000D01*
X99409800Y-86215300D02*
X80990600Y-86215300D01*
X80990600Y-86215300D02*
X79865300Y-85090000D01*
X78740000Y-85090000D02*
X79865300Y-85090000D01*
X101600000Y-85090000D02*
X100474700Y-85090000D01*
X55880000Y-72390000D02*
X57005300Y-72390000D01*
X78740000Y-85090000D02*
X77614700Y-85090000D01*
X77614700Y-85090000D02*
X66040000Y-73515300D01*
X66040000Y-73515300D02*
X58130600Y-73515300D01*
X58130600Y-73515300D02*
X57005300Y-72390000D01*
X124460000Y-129540000D02*
X123334700Y-129540000D01*
X123334700Y-129540000D02*
X122209400Y-128414700D01*
X122209400Y-128414700D02*
X108239300Y-128414700D01*
X108239300Y-128414700D02*
X107499500Y-127674900D01*
X107499500Y-127674900D02*
X105504300Y-127674900D01*
X105504300Y-127674900D02*
X104966000Y-127136600D01*
X109283100Y-140880200D02*
X103738000Y-140880200D01*
X103738000Y-140880200D02*
X102813500Y-141804700D01*
X102813500Y-141804700D02*
X92766900Y-141804700D01*
X92766900Y-141804700D02*
X86707600Y-135745400D01*
X86707600Y-135745400D02*
X85746400Y-135745400D01*
X85746400Y-135745400D02*
X82081000Y-132080000D01*
X82081000Y-132080000D02*
X78740000Y-132080000D01*
X102725300Y-87630000D02*
X102725300Y-86866800D01*
X102725300Y-86866800D02*
X103161700Y-86430400D01*
X103161700Y-86430400D02*
X117042200Y-86430400D01*
X117042200Y-86430400D02*
X117822400Y-87210600D01*
X117822400Y-87210600D02*
X121214100Y-87210600D01*
X121214100Y-87210600D02*
X123334700Y-85090000D01*
X101600000Y-87630000D02*
X102725300Y-87630000D01*
X77614700Y-87630000D02*
X66040000Y-76055300D01*
X66040000Y-76055300D02*
X58130600Y-76055300D01*
X58130600Y-76055300D02*
X57005300Y-74930000D01*
X78177400Y-87630000D02*
X78740000Y-87630000D01*
X78177400Y-87630000D02*
X77614700Y-87630000D01*
X124460000Y-85090000D02*
X123334700Y-85090000D01*
X55880000Y-74930000D02*
X57005300Y-74930000D01*
X123334700Y-127000000D02*
X122209400Y-125874700D01*
X122209400Y-125874700D02*
X106184400Y-125874700D01*
X106184400Y-125874700D02*
X105056900Y-124747200D01*
X77614700Y-90170000D02*
X66040000Y-78595300D01*
X66040000Y-78595300D02*
X58130600Y-78595300D01*
X58130600Y-78595300D02*
X57005300Y-77470000D01*
X78740000Y-90170000D02*
X79865300Y-90170000D01*
X101600000Y-90170000D02*
X100474700Y-90170000D01*
X100474700Y-90170000D02*
X99349400Y-89044700D01*
X99349400Y-89044700D02*
X80990600Y-89044700D01*
X80990600Y-89044700D02*
X79865300Y-90170000D01*
X124460000Y-83675300D02*
X124676200Y-83675300D01*
X124676200Y-83675300D02*
X125604500Y-84603600D01*
X125604500Y-84603600D02*
X125604500Y-88105700D01*
X125604500Y-88105700D02*
X124665600Y-89044600D01*
X124665600Y-89044600D02*
X122463700Y-89044600D01*
X122463700Y-89044600D02*
X120200900Y-91307400D01*
X120200900Y-91307400D02*
X108492800Y-91307400D01*
X108492800Y-91307400D02*
X107355400Y-90170000D01*
X107355400Y-90170000D02*
X101600000Y-90170000D01*
X55880000Y-77470000D02*
X57005300Y-77470000D01*
X78740000Y-90170000D02*
X77614700Y-90170000D01*
X124460000Y-127000000D02*
X123334700Y-127000000D01*
X124460000Y-82550000D02*
X124460000Y-83675300D01*
X79936700Y-92781500D02*
X79936700Y-95680400D01*
X79936700Y-95680400D02*
X79202100Y-96415000D01*
X79202100Y-96415000D02*
X72434200Y-96415000D01*
X72434200Y-96415000D02*
X65063800Y-89044600D01*
X65063800Y-89044600D02*
X60397500Y-89044600D01*
X60397500Y-89044600D02*
X60148700Y-89293400D01*
X79752700Y-92710000D02*
X79865200Y-92710000D01*
X79865200Y-92710000D02*
X79936700Y-92781500D01*
X79936700Y-92781500D02*
X81133500Y-91584700D01*
X81133500Y-91584700D02*
X93008900Y-91584700D01*
X93008900Y-91584700D02*
X94134200Y-92710000D01*
X94134200Y-92710000D02*
X101600000Y-92710000D01*
X55880000Y-80010000D02*
X55880000Y-81135300D01*
X57927100Y-82584100D02*
X56478300Y-81135300D01*
X56478300Y-81135300D02*
X55880000Y-81135300D01*
X101600000Y-92710000D02*
X102725300Y-92710000D01*
X124460000Y-80010000D02*
X124460000Y-81135300D01*
X124460000Y-81135300D02*
X124741300Y-81135300D01*
X124741300Y-81135300D02*
X126089100Y-82483100D01*
X126089100Y-82483100D02*
X126089100Y-90147700D01*
X126089100Y-90147700D02*
X122679400Y-93557400D01*
X122679400Y-93557400D02*
X103572700Y-93557400D01*
X103572700Y-93557400D02*
X102725300Y-92710000D01*
X124460000Y-124460000D02*
X123334700Y-124460000D01*
X123334700Y-124460000D02*
X122167600Y-123292900D01*
X122167600Y-123292900D02*
X104608500Y-123292900D01*
X104608500Y-123292900D02*
X104487700Y-123413700D01*
X78740000Y-92710000D02*
X79752700Y-92710000D01*
X53340000Y-38100000D02*
X53340000Y-39275300D01*
X40640000Y-59690000D02*
X40640000Y-58564700D01*
X40640000Y-58564700D02*
X39936700Y-58564700D01*
X39936700Y-58564700D02*
X39514600Y-58142600D01*
X39514600Y-58142600D02*
X39514600Y-53100700D01*
X39514600Y-53100700D02*
X53340000Y-39275300D01*
X120650000Y-157480000D02*
X119624700Y-157480000D01*
X119624700Y-157480000D02*
X115959300Y-153814600D01*
X115959300Y-153814600D02*
X100950600Y-153814600D01*
X100950600Y-153814600D02*
X99536000Y-152400000D01*
X99536000Y-152400000D02*
X93980000Y-152400000D01*
X113030000Y-162560000D02*
X111760000Y-161290000D01*
X111760000Y-161290000D02*
X100780300Y-161290000D01*
X100780300Y-161290000D02*
X99510300Y-160020000D01*
X99510300Y-160020000D02*
X93980000Y-160020000D01*
X186690000Y-169600000D02*
X193190000Y-169600000D01*
X175410000Y-169600000D02*
X186690000Y-169600000D01*
X168910000Y-169600000D02*
X175410000Y-169600000D01*
X157630000Y-169600000D02*
X168910000Y-169600000D01*
X151130000Y-169600000D02*
X157630000Y-169600000D01*
X71120000Y-127000000D02*
X69994700Y-127000000D01*
X40640000Y-78595300D02*
X40358600Y-78595300D01*
X40358600Y-78595300D02*
X39514700Y-79439200D01*
X39514700Y-79439200D02*
X39514700Y-121267400D01*
X39514700Y-121267400D02*
X41437300Y-123190000D01*
X41437300Y-123190000D02*
X42341000Y-123190000D01*
X42341000Y-123190000D02*
X43085400Y-123934400D01*
X43085400Y-123934400D02*
X43085400Y-124821700D01*
X43085400Y-124821700D02*
X43993700Y-125730000D01*
X43993700Y-125730000D02*
X68724700Y-125730000D01*
X68724700Y-125730000D02*
X69994700Y-127000000D01*
X40640000Y-77470000D02*
X40640000Y-78595300D01*
X140913300Y-148730100D02*
X140913300Y-149116500D01*
X140913300Y-149116500D02*
X129642400Y-160387400D01*
X129642400Y-160387400D02*
X129642400Y-164667400D01*
X129642400Y-164667400D02*
X122833400Y-171476400D01*
X122833400Y-171476400D02*
X122833400Y-172043800D01*
X122833400Y-172043800D02*
X121112000Y-173765200D01*
X121112000Y-173765200D02*
X110728700Y-173765200D01*
X110728700Y-173765200D02*
X104603500Y-167640000D01*
X104603500Y-167640000D02*
X101600000Y-167640000D01*
X182880000Y-64770000D02*
X181754700Y-64770000D01*
X168910000Y-64770000D02*
X170035300Y-64770000D01*
X170035300Y-64770000D02*
X171160600Y-65895300D01*
X171160600Y-65895300D02*
X180629400Y-65895300D01*
X180629400Y-65895300D02*
X181754700Y-64770000D01*
X196850000Y-64770000D02*
X195724700Y-64770000D01*
X182880000Y-64770000D02*
X184005300Y-64770000D01*
X184005300Y-64770000D02*
X185130600Y-65895300D01*
X185130600Y-65895300D02*
X194599400Y-65895300D01*
X194599400Y-65895300D02*
X195724700Y-64770000D01*
X154377400Y-64770000D02*
X154940000Y-64770000D01*
X210820000Y-64770000D02*
X209694700Y-64770000D01*
X196850000Y-64770000D02*
X197975300Y-64770000D01*
X197975300Y-64770000D02*
X199100600Y-65895300D01*
X199100600Y-65895300D02*
X208569400Y-65895300D01*
X208569400Y-65895300D02*
X209694700Y-64770000D01*
X154377400Y-64770000D02*
X153814700Y-64770000D01*
X140970000Y-64770000D02*
X142095300Y-64770000D01*
X142095300Y-64770000D02*
X143220600Y-65895300D01*
X143220600Y-65895300D02*
X152689400Y-65895300D01*
X152689400Y-65895300D02*
X153814700Y-64770000D01*
X63500000Y-167640000D02*
X61458700Y-165598700D01*
X61458700Y-165598700D02*
X61458700Y-151662000D01*
X61458700Y-151662000D02*
X63244600Y-149876100D01*
X63244600Y-149876100D02*
X63893900Y-149876100D01*
X63893900Y-149876100D02*
X69448900Y-144321100D01*
X69448900Y-144321100D02*
X107896400Y-144321100D01*
X107896400Y-144321100D02*
X107982500Y-144407200D01*
X107982500Y-144407200D02*
X111036700Y-144407200D01*
X111036700Y-144407200D02*
X112765400Y-142678500D01*
X112765400Y-142678500D02*
X121770700Y-142678500D01*
X121770700Y-142678500D02*
X134537300Y-129911900D01*
X134537300Y-129911900D02*
X134537300Y-126765800D01*
X134537300Y-126765800D02*
X140653100Y-120650000D01*
X140653100Y-120650000D02*
X141243200Y-120650000D01*
X141243200Y-120650000D02*
X142061600Y-119831600D01*
X142061600Y-119831600D02*
X142061600Y-113813000D01*
X142061600Y-113813000D02*
X140353900Y-112105300D01*
X140353900Y-112105300D02*
X139980800Y-112105300D01*
X114431200Y-107302400D02*
X122189400Y-107302400D01*
X122189400Y-107302400D02*
X122756000Y-107869000D01*
X122756000Y-107869000D02*
X124862700Y-107869000D01*
X124862700Y-107869000D02*
X125612700Y-107119000D01*
X125612700Y-107119000D02*
X125612700Y-106232500D01*
X125612700Y-106232500D02*
X124790200Y-105410000D01*
X124790200Y-105410000D02*
X124062300Y-105410000D01*
X124062300Y-105410000D02*
X123313200Y-104660900D01*
X123313200Y-104660900D02*
X123313200Y-99226000D01*
X123313200Y-99226000D02*
X131013700Y-91525500D01*
X131013700Y-91525500D02*
X131013700Y-65435600D01*
X131013700Y-65435600D02*
X133094000Y-63355300D01*
X133094000Y-63355300D02*
X133350000Y-63355300D01*
X189230000Y-62230000D02*
X188104700Y-62230000D01*
X175260000Y-62230000D02*
X176385300Y-62230000D01*
X176385300Y-62230000D02*
X177510600Y-63355300D01*
X177510600Y-63355300D02*
X186979400Y-63355300D01*
X186979400Y-63355300D02*
X188104700Y-62230000D01*
X174697400Y-62230000D02*
X175260000Y-62230000D01*
X147320000Y-62230000D02*
X146194700Y-62230000D01*
X133350000Y-63355300D02*
X145069400Y-63355300D01*
X145069400Y-63355300D02*
X146194700Y-62230000D01*
X133350000Y-62230000D02*
X133350000Y-63355300D01*
X203200000Y-62230000D02*
X202074700Y-62230000D01*
X189230000Y-62230000D02*
X190355300Y-62230000D01*
X190355300Y-62230000D02*
X191480600Y-63355300D01*
X191480600Y-63355300D02*
X200949400Y-63355300D01*
X200949400Y-63355300D02*
X202074700Y-62230000D01*
X174697400Y-62230000D02*
X174134700Y-62230000D01*
X161290000Y-62230000D02*
X162415300Y-62230000D01*
X162415300Y-62230000D02*
X163540600Y-63355300D01*
X163540600Y-63355300D02*
X173009400Y-63355300D01*
X173009400Y-63355300D02*
X174134700Y-62230000D01*
X160727400Y-62230000D02*
X161290000Y-62230000D01*
X160727400Y-62230000D02*
X160164700Y-62230000D01*
X147320000Y-62230000D02*
X148445300Y-62230000D01*
X148445300Y-62230000D02*
X149570600Y-63355300D01*
X149570600Y-63355300D02*
X159039400Y-63355300D01*
X159039400Y-63355300D02*
X160164700Y-62230000D01*
X116605300Y-101043800D02*
X112262300Y-105386800D01*
X112262300Y-105386800D02*
X106371300Y-105386800D01*
X161290000Y-59690000D02*
X160164700Y-59690000D01*
X147320000Y-59690000D02*
X148445300Y-59690000D01*
X148445300Y-59690000D02*
X149570600Y-58564700D01*
X149570600Y-58564700D02*
X159039400Y-58564700D01*
X159039400Y-58564700D02*
X160164700Y-59690000D01*
X175260000Y-59690000D02*
X174134700Y-59690000D01*
X161290000Y-59690000D02*
X162415300Y-59690000D01*
X162415300Y-59690000D02*
X163540600Y-58564700D01*
X163540600Y-58564700D02*
X173009400Y-58564700D01*
X173009400Y-58564700D02*
X174134700Y-59690000D01*
X203200000Y-59690000D02*
X202074700Y-59690000D01*
X189230000Y-59690000D02*
X190355300Y-59690000D01*
X190355300Y-59690000D02*
X191480600Y-58564700D01*
X191480600Y-58564700D02*
X200949400Y-58564700D01*
X200949400Y-58564700D02*
X202074700Y-59690000D01*
X133350000Y-57150000D02*
X132224700Y-57150000D01*
X147320000Y-57150000D02*
X146194700Y-57150000D01*
X133350000Y-57150000D02*
X134475300Y-57150000D01*
X134475300Y-57150000D02*
X135600600Y-58275300D01*
X135600600Y-58275300D02*
X145069400Y-58275300D01*
X145069400Y-58275300D02*
X146194700Y-57150000D01*
X104041900Y-98947000D02*
X114494300Y-98947000D01*
X114494300Y-98947000D02*
X118895400Y-94545900D01*
X118895400Y-94545900D02*
X122327800Y-94545900D01*
X122327800Y-94545900D02*
X126539500Y-90334200D01*
X126539500Y-90334200D02*
X126539500Y-70279300D01*
X126539500Y-70279300D02*
X124840200Y-68580000D01*
X124840200Y-68580000D02*
X124113800Y-68580000D01*
X124113800Y-68580000D02*
X123298900Y-67765100D01*
X123298900Y-67765100D02*
X123298900Y-59199200D01*
X123298900Y-59199200D02*
X124222800Y-58275300D01*
X124222800Y-58275300D02*
X131099400Y-58275300D01*
X131099400Y-58275300D02*
X132224700Y-57150000D01*
X189230000Y-57150000D02*
X188104700Y-57150000D01*
X175260000Y-57150000D02*
X176385300Y-57150000D01*
X176385300Y-57150000D02*
X177510600Y-56024700D01*
X177510600Y-56024700D02*
X186979400Y-56024700D01*
X186979400Y-56024700D02*
X188104700Y-57150000D01*
X203200000Y-57150000D02*
X202074700Y-57150000D01*
X189230000Y-57150000D02*
X190355300Y-57150000D01*
X190355300Y-57150000D02*
X191480600Y-56024700D01*
X191480600Y-56024700D02*
X200949400Y-56024700D01*
X200949400Y-56024700D02*
X202074700Y-57150000D01*
X160806100Y-57150000D02*
X161290000Y-57150000D01*
X160806100Y-57150000D02*
X160164700Y-57150000D01*
X147320000Y-57150000D02*
X148445300Y-57150000D01*
X148445300Y-57150000D02*
X149570600Y-56024700D01*
X149570600Y-56024700D02*
X159039400Y-56024700D01*
X159039400Y-56024700D02*
X160164700Y-57150000D01*
X63500000Y-165100000D02*
X64636400Y-163963600D01*
X64636400Y-163963600D02*
X64636400Y-162095300D01*
X64636400Y-162095300D02*
X63831100Y-161290000D01*
X63831100Y-161290000D02*
X63102800Y-161290000D01*
X63102800Y-161290000D02*
X61909000Y-160096200D01*
X61909000Y-160096200D02*
X61909000Y-151861000D01*
X61909000Y-151861000D02*
X63284300Y-150485700D01*
X63284300Y-150485700D02*
X64557900Y-150485700D01*
X64557900Y-150485700D02*
X70250900Y-144792700D01*
X70250900Y-144792700D02*
X107731100Y-144792700D01*
X107731100Y-144792700D02*
X107795900Y-144857500D01*
X107795900Y-144857500D02*
X111860200Y-144857500D01*
X111860200Y-144857500D02*
X113588900Y-143128800D01*
X113588900Y-143128800D02*
X121989100Y-143128800D01*
X121989100Y-143128800D02*
X138970900Y-126147000D01*
X138970900Y-126147000D02*
X138970900Y-124874600D01*
X138970900Y-124874600D02*
X140655500Y-123190000D01*
X140655500Y-123190000D02*
X141268700Y-123190000D01*
X141268700Y-123190000D02*
X144546500Y-119912200D01*
X144546500Y-119912200D02*
X144546500Y-100890500D01*
X144546500Y-100890500D02*
X153259900Y-92177100D01*
X63500000Y-162560000D02*
X63500000Y-163685300D01*
X136302500Y-144988000D02*
X136302500Y-145882000D01*
X136302500Y-145882000D02*
X122045000Y-160139500D01*
X122045000Y-160139500D02*
X122045000Y-162650900D01*
X122045000Y-162650900D02*
X121110500Y-163585400D01*
X121110500Y-163585400D02*
X108002300Y-163585400D01*
X108002300Y-163585400D02*
X105217700Y-166370000D01*
X105217700Y-166370000D02*
X97124500Y-166370000D01*
X97124500Y-166370000D02*
X94677500Y-168817000D01*
X94677500Y-168817000D02*
X67083200Y-168817000D01*
X67083200Y-168817000D02*
X64636200Y-166370000D01*
X64636200Y-166370000D02*
X63176800Y-166370000D01*
X63176800Y-166370000D02*
X62374700Y-165567900D01*
X62374700Y-165567900D02*
X62374700Y-164529200D01*
X62374700Y-164529200D02*
X63218600Y-163685300D01*
X63218600Y-163685300D02*
X63500000Y-163685300D01*
X180852400Y-74771100D02*
X180318800Y-74771100D01*
X180318800Y-74771100D02*
X170332600Y-84757300D01*
X170332600Y-84757300D02*
X170332600Y-85154200D01*
X170332600Y-85154200D02*
X156491200Y-98995600D01*
X156491200Y-98995600D02*
X154756600Y-98995600D01*
X154756600Y-98995600D02*
X146244600Y-107507600D01*
X146244600Y-107507600D02*
X146244600Y-120724900D01*
X146244600Y-120724900D02*
X141109300Y-125860200D01*
X141109300Y-125860200D02*
X140501000Y-125860200D01*
X140501000Y-125860200D02*
X122782000Y-143579200D01*
X122782000Y-143579200D02*
X113979900Y-143579200D01*
X113979900Y-143579200D02*
X112251300Y-145307800D01*
X112251300Y-145307800D02*
X107609300Y-145307800D01*
X107609300Y-145307800D02*
X107544600Y-145243100D01*
X107544600Y-145243100D02*
X73545200Y-145243100D01*
X73545200Y-145243100D02*
X65262900Y-153525400D01*
X65262900Y-153525400D02*
X63231800Y-153525400D01*
X63231800Y-153525400D02*
X62374700Y-154382500D01*
X62374700Y-154382500D02*
X62374700Y-158050800D01*
X62374700Y-158050800D02*
X63218600Y-158894700D01*
X63218600Y-158894700D02*
X63500000Y-158894700D01*
X63500000Y-160020000D02*
X63500000Y-158894700D01*
X198896200Y-115134800D02*
X198896200Y-121466500D01*
X198896200Y-121466500D02*
X197172700Y-123190000D01*
X197172700Y-123190000D02*
X196419800Y-123190000D01*
X196419800Y-123190000D02*
X191339800Y-128270000D01*
X191339800Y-128270000D02*
X144993400Y-128270000D01*
X144993400Y-128270000D02*
X134195900Y-139067500D01*
X134195900Y-139067500D02*
X132922300Y-139067500D01*
X132922300Y-139067500D02*
X125633200Y-146356600D01*
X125633200Y-146356600D02*
X102831800Y-146356600D01*
X102831800Y-146356600D02*
X102624300Y-146149100D01*
X102624300Y-146149100D02*
X73913000Y-146149100D01*
X73913000Y-146149100D02*
X67123500Y-152938600D01*
X67123500Y-152938600D02*
X67123500Y-153098100D01*
X67123500Y-153098100D02*
X63866900Y-156354700D01*
X63866900Y-156354700D02*
X63500000Y-156354700D01*
X63500000Y-157480000D02*
X63500000Y-156354700D01*
X210820000Y-63355300D02*
X211101300Y-63355300D01*
X211101300Y-63355300D02*
X211977900Y-64231900D01*
X211977900Y-64231900D02*
X211977900Y-65209800D01*
X211977900Y-65209800D02*
X211147700Y-66040000D01*
X211147700Y-66040000D02*
X210430600Y-66040000D01*
X210430600Y-66040000D02*
X205404100Y-71066500D01*
X205404100Y-71066500D02*
X205404100Y-74336700D01*
X205404100Y-74336700D02*
X184282200Y-95458600D01*
X184282200Y-95458600D02*
X174792000Y-95458600D01*
X174792000Y-95458600D02*
X170001400Y-100249200D01*
X170001400Y-100249200D02*
X170001400Y-100723000D01*
X170001400Y-100723000D02*
X164005300Y-106719100D01*
X164005300Y-106719100D02*
X161043800Y-106719100D01*
X161043800Y-106719100D02*
X157249200Y-110513700D01*
X157249200Y-110513700D02*
X157249200Y-121184900D01*
X157249200Y-121184900D02*
X155438700Y-122995400D01*
X155438700Y-122995400D02*
X152053800Y-122995400D01*
X152053800Y-122995400D02*
X149319200Y-125730000D01*
X149319200Y-125730000D02*
X146896500Y-125730000D01*
X146896500Y-125730000D02*
X134009300Y-138617200D01*
X134009300Y-138617200D02*
X132735600Y-138617200D01*
X132735600Y-138617200D02*
X125448200Y-145904600D01*
X125448200Y-145904600D02*
X103016700Y-145904600D01*
X103016700Y-145904600D02*
X102810000Y-145697900D01*
X102810000Y-145697900D02*
X73727300Y-145697900D01*
X73727300Y-145697900D02*
X64625300Y-154799900D01*
X64625300Y-154799900D02*
X64625300Y-154940000D01*
X63500000Y-154940000D02*
X64625300Y-154940000D01*
X210820000Y-62230000D02*
X210820000Y-63355300D01*
X85234700Y-119380000D02*
X84896700Y-119042000D01*
X84896700Y-119042000D02*
X82067300Y-119042000D01*
X82067300Y-119042000D02*
X79865300Y-116840000D01*
X86360000Y-119380000D02*
X85234700Y-119380000D01*
X78740000Y-116840000D02*
X79865300Y-116840000D01*
X79865300Y-165100000D02*
X80990600Y-163974700D01*
X80990600Y-163974700D02*
X106132400Y-163974700D01*
X78740000Y-165100000D02*
X79865300Y-165100000D01*
X124460000Y-116840000D02*
X121412100Y-116840000D01*
X106898500Y-149269000D02*
X71896100Y-149269000D01*
X71896100Y-149269000D02*
X69525100Y-151640000D01*
X69525100Y-151640000D02*
X69525100Y-155002100D01*
X69525100Y-155002100D02*
X70588500Y-156065500D01*
X70588500Y-156065500D02*
X74285000Y-156065500D01*
X74285000Y-156065500D02*
X76549700Y-153800800D01*
X76549700Y-153800800D02*
X79234900Y-153800800D01*
X79234900Y-153800800D02*
X79909300Y-154475200D01*
X79909300Y-154475200D02*
X79909300Y-156310700D01*
X79909300Y-156310700D02*
X78740000Y-157480000D01*
X72245300Y-121920000D02*
X73370600Y-123045300D01*
X73370600Y-123045300D02*
X87818700Y-123045300D01*
X87818700Y-123045300D02*
X87887500Y-122976500D01*
X87887500Y-122976500D02*
X88626500Y-122976500D01*
X88626500Y-122976500D02*
X88702500Y-123052500D01*
X88702500Y-123052500D02*
X98875700Y-123052500D01*
X98875700Y-123052500D02*
X101180700Y-120747500D01*
X101180700Y-120747500D02*
X122162200Y-120747500D01*
X122162200Y-120747500D02*
X123334700Y-121920000D01*
X71120000Y-121920000D02*
X72245300Y-121920000D01*
X124460000Y-121920000D02*
X123334700Y-121920000D01*
X82128100Y-75651500D02*
X84119600Y-73660000D01*
X84119600Y-73660000D02*
X87387400Y-73660000D01*
X87387400Y-73660000D02*
X92386800Y-68660600D01*
X92386800Y-68660600D02*
X114525300Y-68660600D01*
X114525300Y-68660600D02*
X123334700Y-77470000D01*
X124460000Y-77470000D02*
X123334700Y-77470000D01*
X73312900Y-156921200D02*
X73312900Y-159523100D01*
X73312900Y-159523100D02*
X71401300Y-161434700D01*
X71401300Y-161434700D02*
X71120000Y-161434700D01*
X71120000Y-162560000D02*
X71120000Y-161434700D01*
X120650000Y-179070000D02*
X121775300Y-179070000D01*
X121775300Y-179070000D02*
X123045300Y-177800000D01*
X123045300Y-177800000D02*
X151130000Y-177800000D01*
X151130000Y-190500000D02*
X157630000Y-190500000D01*
X151130000Y-177800000D02*
X157630000Y-177800000D01*
X120650000Y-185420000D02*
X121775300Y-185420000D01*
X168910000Y-190500000D02*
X164955300Y-186545300D01*
X164955300Y-186545300D02*
X122900600Y-186545300D01*
X122900600Y-186545300D02*
X121775300Y-185420000D01*
X175410000Y-190500000D02*
X168910000Y-190500000D01*
X120650000Y-191770000D02*
X121775300Y-191770000D01*
X121775300Y-191770000D02*
X123252400Y-190292900D01*
X123252400Y-190292900D02*
X146956500Y-190292900D01*
X146956500Y-190292900D02*
X148499500Y-191835900D01*
X148499500Y-191835900D02*
X185354100Y-191835900D01*
X185354100Y-191835900D02*
X186690000Y-190500000D01*
X186690000Y-190500000D02*
X193190000Y-190500000D01*
X186690000Y-177800000D02*
X193190000Y-177800000D01*
X186690000Y-165100000D02*
X193190000Y-165100000D01*
X186690000Y-152400000D02*
X193190000Y-152400000D01*
X186690000Y-139700000D02*
X193190000Y-139700000D01*
X71120000Y-30480000D02*
X69944700Y-30480000D01*
X54610000Y-30480000D02*
X55785300Y-30480000D01*
X55785300Y-30480000D02*
X55785300Y-30112700D01*
X55785300Y-30112700D02*
X56593300Y-29304700D01*
X56593300Y-29304700D02*
X68769400Y-29304700D01*
X68769400Y-29304700D02*
X69944700Y-30480000D01*
X186690000Y-156900000D02*
X193190000Y-156900000D01*
X175410000Y-156900000D02*
X186690000Y-156900000D01*
X168910000Y-156900000D02*
X175410000Y-156900000D01*
X157630000Y-156900000D02*
X168910000Y-156900000D01*
X151130000Y-156900000D02*
X157630000Y-156900000D01*
X186690000Y-182300000D02*
X193190000Y-182300000D01*
X175410000Y-182300000D02*
X186690000Y-182300000D01*
X168910000Y-182300000D02*
X175410000Y-182300000D01*
X157630000Y-182300000D02*
X168910000Y-182300000D01*
X151130000Y-182300000D02*
X157630000Y-182300000D01*
X186690000Y-195000000D02*
X193190000Y-195000000D01*
X175410000Y-195000000D02*
X186690000Y-195000000D01*
X168910000Y-195000000D02*
X175410000Y-195000000D01*
X157630000Y-195000000D02*
X168910000Y-195000000D01*
X151130000Y-195000000D02*
X157630000Y-195000000D01*
X78740000Y-162560000D02*
X79865300Y-162560000D01*
X101600000Y-162560000D02*
X100474700Y-162560000D01*
X100474700Y-162560000D02*
X99349400Y-161434700D01*
X99349400Y-161434700D02*
X80990600Y-161434700D01*
X80990600Y-161434700D02*
X79865300Y-162560000D01*
X137160000Y-140970000D02*
X137160000Y-146175300D01*
X137160000Y-146175300D02*
X122804100Y-160531200D01*
X122804100Y-160531200D02*
X122804100Y-162558800D01*
X122804100Y-162558800D02*
X119095200Y-166267700D01*
X119095200Y-166267700D02*
X112951200Y-166267700D01*
X112951200Y-166267700D02*
X111993200Y-167225700D01*
X111993200Y-167225700D02*
X111993200Y-171683200D01*
X111993200Y-171683200D02*
X113030000Y-172720000D01*
X168910000Y-59690000D02*
X167784700Y-59690000D01*
X154940000Y-59690000D02*
X156065300Y-59690000D01*
X156065300Y-59690000D02*
X157190600Y-60815300D01*
X157190600Y-60815300D02*
X166659400Y-60815300D01*
X166659400Y-60815300D02*
X167784700Y-59690000D01*
X182880000Y-59690000D02*
X181754700Y-59690000D01*
X168910000Y-59690000D02*
X170035300Y-59690000D01*
X170035300Y-59690000D02*
X171160600Y-60815300D01*
X171160600Y-60815300D02*
X180629400Y-60815300D01*
X180629400Y-60815300D02*
X181754700Y-59690000D01*
X210820000Y-59690000D02*
X209694700Y-59690000D01*
X196850000Y-59690000D02*
X197975300Y-59690000D01*
X197975300Y-59690000D02*
X199100600Y-60815300D01*
X199100600Y-60815300D02*
X208569400Y-60815300D01*
X208569400Y-60815300D02*
X209694700Y-59690000D01*
X203200000Y-35560000D02*
X201752200Y-37007800D01*
X201752200Y-37007800D02*
X144860800Y-37007800D01*
X144860800Y-37007800D02*
X138333000Y-30480000D01*
X138333000Y-30480000D02*
X129540000Y-30480000D01*
X140970000Y-121920000D02*
X142511900Y-120378100D01*
X142511900Y-120378100D02*
X142511900Y-113610600D01*
X142511900Y-113610600D02*
X136851300Y-107950000D01*
X136851300Y-107950000D02*
X133350000Y-107950000D01*
X133350000Y-70975300D02*
X133117400Y-70975300D01*
X133117400Y-70975300D02*
X132224700Y-71868000D01*
X132224700Y-71868000D02*
X132224700Y-75416800D01*
X132224700Y-75416800D02*
X139494400Y-82686500D01*
X139494400Y-82686500D02*
X139494400Y-97829100D01*
X139494400Y-97829100D02*
X140970000Y-99304700D01*
X140970000Y-100330000D02*
X140970000Y-99304700D01*
X133350000Y-69850000D02*
X133350000Y-70975300D01*
X140970000Y-92710000D02*
X140970000Y-91684700D01*
X140970000Y-74930000D02*
X140970000Y-76055300D01*
X140970000Y-76055300D02*
X139944700Y-77080600D01*
X139944700Y-77080600D02*
X139944700Y-90659400D01*
X139944700Y-90659400D02*
X140970000Y-91684700D01*
X133350000Y-81280000D02*
X136134700Y-84064700D01*
X136134700Y-84064700D02*
X136134700Y-92728700D01*
X154940000Y-121920000D02*
X156031600Y-120828400D01*
X156031600Y-120828400D02*
X156031600Y-113813000D01*
X156031600Y-113813000D02*
X150168600Y-107950000D01*
X150168600Y-107950000D02*
X147320000Y-107950000D01*
X154940000Y-92710000D02*
X154940000Y-91684700D01*
X154940000Y-74930000D02*
X154940000Y-76055300D01*
X154940000Y-76055300D02*
X155965300Y-77080600D01*
X155965300Y-77080600D02*
X155965300Y-90659400D01*
X155965300Y-90659400D02*
X154940000Y-91684700D01*
X168910000Y-121920000D02*
X170001600Y-120828400D01*
X170001600Y-120828400D02*
X170001600Y-113813000D01*
X170001600Y-113813000D02*
X164138600Y-107950000D01*
X164138600Y-107950000D02*
X161290000Y-107950000D01*
X175260000Y-107950000D02*
X178108600Y-107950000D01*
X178108600Y-107950000D02*
X183971600Y-113813000D01*
X183971600Y-113813000D02*
X183971600Y-120828400D01*
X183971600Y-120828400D02*
X182880000Y-121920000D01*
X182880000Y-92710000D02*
X182880000Y-91684700D01*
X182880000Y-74930000D02*
X182880000Y-76055300D01*
X182880000Y-76055300D02*
X183905300Y-77080600D01*
X183905300Y-77080600D02*
X183905300Y-90659400D01*
X183905300Y-90659400D02*
X182880000Y-91684700D01*
X196850000Y-121920000D02*
X197925400Y-120844600D01*
X197925400Y-120844600D02*
X197925400Y-113819700D01*
X197925400Y-113819700D02*
X192055700Y-107950000D01*
X192055700Y-107950000D02*
X189230000Y-107950000D01*
X210820000Y-121920000D02*
X211900600Y-120839400D01*
X211900600Y-120839400D02*
X211900600Y-113858500D01*
X211900600Y-113858500D02*
X205992100Y-107950000D01*
X205992100Y-107950000D02*
X203200000Y-107950000D01*
X210820000Y-92710000D02*
X210820000Y-91684700D01*
X210820000Y-74930000D02*
X210820000Y-76055300D01*
X210820000Y-76055300D02*
X211845300Y-77080600D01*
X211845300Y-77080600D02*
X211845300Y-90659400D01*
X211845300Y-90659400D02*
X210820000Y-91684700D01*
X210820000Y-81280000D02*
X210820000Y-80254700D01*
X210820000Y-67310000D02*
X210820000Y-68435300D01*
X210820000Y-68435300D02*
X210538700Y-68435300D01*
X210538700Y-68435300D02*
X209681000Y-69293000D01*
X209681000Y-69293000D02*
X209681000Y-79115700D01*
X209681000Y-79115700D02*
X210820000Y-80254700D01*
X134864700Y-179070000D02*
X133739400Y-180195300D01*
X133739400Y-180195300D02*
X87739900Y-180195300D01*
X135890000Y-179070000D02*
X134864700Y-179070000D01*
X158600000Y-207700000D02*
X165100000Y-207700000D01*
X134864700Y-172720000D02*
X133369100Y-174215600D01*
X133369100Y-174215600D02*
X108417700Y-174215600D01*
X108417700Y-174215600D02*
X103245500Y-169043400D01*
X103245500Y-169043400D02*
X95659300Y-169043400D01*
X95659300Y-169043400D02*
X95128400Y-169574300D01*
X95128400Y-169574300D02*
X87216600Y-169574300D01*
X135890000Y-172720000D02*
X134864700Y-172720000D01*
X80230300Y-137937500D02*
X83118100Y-140825300D01*
X83118100Y-140825300D02*
X88900400Y-140825300D01*
X88900400Y-140825300D02*
X91314900Y-143239800D01*
X91314900Y-143239800D02*
X107503800Y-143239800D01*
X107503800Y-143239800D02*
X107787100Y-142956500D01*
X107787100Y-142956500D02*
X111850500Y-142956500D01*
X111850500Y-142956500D02*
X112853800Y-141953200D01*
X112853800Y-141953200D02*
X118960500Y-141953200D01*
X79865300Y-129540000D02*
X80798400Y-130473100D01*
X80798400Y-130473100D02*
X83084700Y-130473100D01*
X83084700Y-130473100D02*
X85961600Y-133350000D01*
X85961600Y-133350000D02*
X86712500Y-133350000D01*
X86712500Y-133350000D02*
X91048300Y-137685800D01*
X91048300Y-137685800D02*
X91048300Y-139032100D01*
X91048300Y-139032100D02*
X93329300Y-141313100D01*
X93329300Y-141313100D02*
X102658400Y-141313100D01*
X102658400Y-141313100D02*
X103816600Y-140154900D01*
X103816600Y-140154900D02*
X109583600Y-140154900D01*
X109583600Y-140154900D02*
X110100400Y-140671700D01*
X110100400Y-140671700D02*
X116969800Y-140671700D01*
X116969800Y-140671700D02*
X117375600Y-140265900D01*
X78740000Y-129540000D02*
X79865300Y-129540000D01*
X80506800Y-128963100D02*
X82483500Y-128963100D01*
X82483500Y-128963100D02*
X84280200Y-130759800D01*
X84280200Y-130759800D02*
X116090400Y-130759800D01*
X116090400Y-130759800D02*
X120027100Y-134696500D01*
X143011900Y-145151400D02*
X136915300Y-151248000D01*
X136915300Y-151248000D02*
X136915300Y-152400000D01*
X151130000Y-144200000D02*
X143963300Y-144200000D01*
X143963300Y-144200000D02*
X143011900Y-145151400D01*
X143011900Y-145151400D02*
X137655100Y-139794600D01*
X137655100Y-139794600D02*
X133468900Y-139794600D01*
X133468900Y-139794600D02*
X125947700Y-147315800D01*
X125947700Y-147315800D02*
X101769600Y-147315800D01*
X78740000Y-119380000D02*
X79865300Y-119380000D01*
X97865900Y-122288200D02*
X96368600Y-120790900D01*
X96368600Y-120790900D02*
X81276200Y-120790900D01*
X81276200Y-120790900D02*
X79865300Y-119380000D01*
X135890000Y-152400000D02*
X136915300Y-152400000D01*
X157630000Y-144200000D02*
X151130000Y-144200000D01*
X186690000Y-144200000D02*
X193190000Y-144200000D01*
X175410000Y-144200000D02*
X186690000Y-144200000D01*
X168910000Y-144200000D02*
X175410000Y-144200000D01*
X157630000Y-144200000D02*
X168910000Y-144200000D01*
M02*
